<?xml version="1.0" standalone="no"?>
<!DOCTYPE svg PUBLIC "-//W3C//DTD SVG 1.1//EN" "http://www.w3.org/Graphics/SVG/1.1/DTD/svg11.dtd" >
<svg xmlns="http://www.w3.org/2000/svg" xmlns:xlink="http://www.w3.org/1999/xlink" version="1.1">
<metadata>
Created by FontForge 20201107 at Tue Dec  9 21:02:11 2014
 By 
Copyright (c) 2012 Andhra Pradesh Society for Knowledge Networks (fonts.siliconandhra.org). Digitized data copyright (c) 2010-2012 Google Corporation.
</metadata>
<defs>
<font id="Ramabhadra" horiz-adv-x="461" >
  <font-face 
    font-family="Ramabhadra"
    font-weight="400"
    font-stretch="normal"
    units-per-em="830"
    panose-1="2 0 6 0 0 0 0 0 0 0"
    ascent="664"
    descent="-166"
    x-height="439"
    cap-height="571"
    bbox="-589 -474 1385 1101"
    underline-thickness="20"
    underline-position="-552"
    unicode-range="U+0020-25CC"
  />
<missing-glyph horiz-adv-x="299" 
d="M27 0v553h218v-553h-218zM54 27h164v499h-164v-499z" />
    <glyph glyph-name=".notdef" horiz-adv-x="299" 
d="M27 0v553h218v-553h-218zM54 27h164v499h-164v-499z" />
    <glyph glyph-name=".null" horiz-adv-x="0" 
 />
    <glyph glyph-name="nonmarkingreturn" horiz-adv-x="0" 
 />
    <glyph glyph-name="space" unicode=" " horiz-adv-x="220" 
 />
    <glyph glyph-name="exclam" unicode="!" horiz-adv-x="276" 
d="M184 173h-93l-13 398h119zM78 0v109h117v-109h-117z" />
    <glyph glyph-name="quotedbl" unicode="&#x22;" horiz-adv-x="393" 
d="M327 364h-89l-11 207h112zM154 364h-88l-11 207h110z" />
    <glyph glyph-name="numbersign" unicode="#" 
d="M368 349l-28 -134h88v-61h-100l-33 -154h-64l33 154h-125l-32 -154h-62l32 154h-63v61h76l29 134h-84v60h96l34 156h62l-33 -156h125l34 156h63l-34 -156h66v-60h-80zM182 349l-29 -134h125l28 134h-124z" />
    <glyph glyph-name="dollar" unicode="$" 
d="M450 167q0 -73 -49.5 -113.5t-145.5 -44.5v-71h-44v70q-87 3 -136 41t-64 116l104 19q8 -46 30.5 -67t65.5 -25v158q-1 1 -6 2t-7 1q-66 15 -99 35.5t-51.5 52t-18.5 76.5q0 67 46.5 104t135.5 41v54h44v-54q53 -2 88.5 -17t57 -43.5t35.5 -81.5l-107 -16q-6 35 -24 54.5
t-50 23.5v-142l4 -1q12 0 72 -19.5t89.5 -57.5t29.5 -95zM211 484q-75 -6 -76 -65q0 -18 6.5 -29.5t18.5 -19.5t51 -21v135zM344 165q0 20 -7 33t-21 21t-61 22v-149q89 6 89 73z" />
    <glyph glyph-name="percent" unicode="%" horiz-adv-x="738" 
d="M716 175q0 -88 -36.5 -134.5t-106.5 -46.5q-71 0 -107.5 46t-36.5 135q0 91 35 136.5t110 45.5q73 0 107.5 -46t34.5 -136zM224 0h-84l373 571h85zM165 578q73 0 108 -46t35 -136q0 -88 -36.5 -135t-108.5 -47q-71 0 -106.5 46.5t-35.5 135.5q0 92 34.5 137t109.5 45z
M629 175q0 64 -12.5 92t-42.5 28q-32 0 -44.5 -28t-12.5 -92q0 -65 13 -91.5t43 -26.5t43 27.5t13 90.5zM220 396q0 64 -12.5 91.5t-42.5 27.5q-32 0 -44.5 -27.5t-12.5 -91.5t13 -91.5t44 -27.5q30 0 42.5 27.5t12.5 91.5z" />
    <glyph glyph-name="ampersand" unicode="&#x26;" horiz-adv-x="599" 
d="M36 156q0 55 33 97.5t104 75.5q-30 61 -30 114q0 63 40 97t113 34q68 0 107.5 -32.5t39.5 -87.5q0 -31 -15.5 -56.5t-44.5 -47t-98 -53.5q40 -71 98 -136q42 64 64 147l85 -28q-28 -94 -78 -171q35 -30 72 -29q26 0 47 6v-82q-22 -9 -53 -9q-35 0 -70 12.5t-63 36.5
q-69 -52 -154 -52q-94 0 -145.5 43t-51.5 121zM353 453q0 23 -15.5 37.5t-42.5 14.5q-31 0 -47.5 -17t-16.5 -46q0 -35 22 -78q43 18 61.5 30.5t28.5 26.5t10 32zM319 100q-67 75 -110 152q-70 -33 -70 -94q0 -40 26.5 -64.5t71.5 -24.5q26 0 47.5 10t34.5 21z" />
    <glyph glyph-name="quotesingle" unicode="'" horiz-adv-x="197" 
d="M143 364h-88l-11 207h110z" />
    <glyph glyph-name="parenleft" unicode="(" horiz-adv-x="276" 
d="M162 -172q-64 92 -92.5 183t-28.5 204t28.5 204t92.5 182h114q-64 -92 -93 -183.5t-29 -202.5t28.5 -202t93.5 -185h-114z" />
    <glyph glyph-name="parenright" unicode=")" horiz-adv-x="276" 
d="M1 -172q65 95 93.5 185.5t28.5 201.5t-29.5 203t-92.5 183h114q64 -92 92 -183t28 -203q0 -113 -28 -204t-92 -183h-114z" />
    <glyph glyph-name="asterisk" unicode="*" horiz-adv-x="323" 
d="M199 460l96 42l27 -80l-101 -24l75 -87l-74 -49l-59 102l-61 -102l-75 50l77 86l-102 24l28 80l97 -42l-7 111h87z" />
    <glyph glyph-name="plus" unicode="+" horiz-adv-x="484" 
d="M288 231v-166h-91v166h-162v90h162v166h91v-166h163v-90h-163z" />
    <glyph glyph-name="comma" unicode="," horiz-adv-x="230" 
d="M175 27q0 -49 -10.5 -86t-33.5 -69h-75q24 29 39 63t15 65h-52v124h117v-97z" />
    <glyph glyph-name="hyphen" unicode="-" horiz-adv-x="276" 
d="M32 166v99h211v-99h-211z" />
    <glyph glyph-name="period" unicode="." horiz-adv-x="230" 
d="M56 0v124h117v-124h-117z" />
    <glyph glyph-name="slash" unicode="/" horiz-adv-x="230" 
d="M8 -17l118 618h96l-115 -618h-99z" />
    <glyph glyph-name="zero" unicode="0" 
d="M428 286q0 -145 -50 -219.5t-149 -74.5q-196 0 -196 294q0 103 21.5 167.5t64.5 95.5t113 31q101 0 148.5 -73.5t47.5 -220.5zM313 286q0 79 -7.5 122.5t-24.5 62.5t-50 19q-34 0 -51.5 -19t-25 -62.5t-7.5 -122.5q0 -78 8 -122t25 -63.5t50 -19.5q32 0 49.5 20.5
t25.5 64.5t8 120z" />
    <glyph glyph-name="one" unicode="1" 
d="M52 0v85h142v389l-137 -85v89l143 93h108v-486h131v-85h-387z" />
    <glyph glyph-name="two" unicode="2" 
d="M29 0v79q22 49 63 95.5t104 97.5q60 49 84 80.5t24 61.5q0 75 -75 75q-36 0 -55.5 -20t-25.5 -59l-114 7q10 79 59.5 121t134.5 42q92 0 141.5 -42.5t49.5 -118.5q0 -40 -15.5 -72.5t-40.5 -60t-55 -51t-58.5 -46.5t-51.5 -46t-35 -49h265v-94h-399z" />
    <glyph glyph-name="three" unicode="3" 
d="M432 158q0 -80 -53 -123.5t-150 -43.5q-92 0 -146.5 42t-63.5 122l116 10q11 -82 94 -82q41 0 63.5 20.5t22.5 61.5q0 38 -27.5 58.5t-82.5 20.5h-39v92h37q49 0 74 20t25 57q0 35 -20 55.5t-57 20.5q-35 0 -57 -19.5t-25 -55.5l-114 8q9 74 61 116t137 42
q90 0 140 -40.5t50 -111.5q0 -53 -31.5 -88t-90.5 -46v-2q66 -8 101.5 -43.5t35.5 -90.5z" />
    <glyph glyph-name="four" unicode="4" 
d="M381 116v-116h-109v116h-259v86l241 369h127v-370h76v-85h-76zM272 388q0 22 1.5 47.5t2.5 32.5q-11 -23 -38 -66l-133 -201h167v187z" />
    <glyph glyph-name="five" unicode="5" 
d="M439 190q0 -91 -57 -144.5t-155 -53.5q-86 0 -137.5 38.5t-63.5 112.5l113 9q9 -36 32 -53t57 -17q43 0 68 27.5t25 78.5q0 45 -23.5 72t-66.5 27q-47 0 -78 -37h-111l20 321h343v-85h-240l-9 -144q41 36 103 37q81 0 130.5 -51t49.5 -138z" />
    <glyph glyph-name="six" unicode="6" 
d="M432 187q0 -91 -51.5 -143t-140.5 -52q-101 0 -155.5 70.5t-54.5 209.5q0 153 55 230.5t157 77.5q73 0 115 -32t59 -100l-107 -15q-15 56 -69 57q-46 0 -72 -46t-26 -139q18 30 50.5 46.5t73.5 16.5q77 0 121.5 -49t44.5 -132zM317 184q0 49 -22.5 74.5t-61.5 25.5
q-38 0 -60.5 -24.5t-22.5 -63.5q0 -50 23.5 -82.5t62.5 -32.5t60 27.5t21 75.5z" />
    <glyph glyph-name="seven" unicode="7" 
d="M425 481q-39 -61 -73 -118t-59.5 -115t-40.5 -119t-15 -129h-118q0 71 18.5 138t54 136t127.5 203h-283v94h389v-90z" />
    <glyph glyph-name="eight" unicode="8" 
d="M436 161q0 -80 -53 -124.5t-152 -44.5q-98 0 -151.5 44t-53.5 124q0 55 32 92.5t85 46.5v1q-46 10 -74.5 46t-28.5 82q0 70 49.5 111t140.5 41q93 0 142.5 -39.5t49.5 -112.5q0 -47 -28 -82.5t-76 -44.5v-2q55 -9 86.5 -45t31.5 -93zM305 421q0 41 -19 60t-56 19
q-74 0 -74 -79q0 -82 75 -81q37 0 55.5 18.5t18.5 62.5zM318 170q0 90 -89 90q-41 0 -63.5 -23.5t-22.5 -67.5q0 -50 22 -73.5t67 -23.5q44 0 65 23t21 75z" />
    <glyph glyph-name="nine" unicode="9" 
d="M431 295q0 -152 -55.5 -227.5t-157.5 -75.5q-75 0 -118 32t-61 102l107 15q16 -60 73 -60q48 0 73.5 46t26.5 136q-15 -30 -50.5 -47.5t-75.5 -17.5q-75 0 -119.5 51.5t-44.5 138.5q0 90 52 141t147 51q103 0 153 -71t50 -214zM310 374q0 53 -23 84.5t-62 31.5
q-38 0 -59.5 -27t-21.5 -76q0 -47 21.5 -75.5t60.5 -28.5q36 0 60 24.5t24 66.5z" />
    <glyph glyph-name="colon" unicode=":" horiz-adv-x="276" 
d="M80 305v114h117v-114h-117zM80 0v114h117v-114h-117z" />
    <glyph glyph-name="semicolon" unicode=";" horiz-adv-x="276" 
d="M81 305v114h116v-114h-116zM197 27q0 -49 -10 -86t-33 -69h-75q26 33 40 66t14 62h-52v114h116v-87z" />
    <glyph glyph-name="less" unicode="&#x3c;" horiz-adv-x="484" 
d="M35 209v131l416 158v-92l-338 -132l338 -131v-92z" />
    <glyph glyph-name="equal" unicode="=" horiz-adv-x="484" 
d="M34 341v91h417v-91h-417zM34 118v90h417v-90h-417z" />
    <glyph glyph-name="greater" unicode="&#x3e;" horiz-adv-x="484" 
d="M35 51v92l337 131l-337 132v92l416 -158v-131z" />
    <glyph glyph-name="question" unicode="?" horiz-adv-x="506" 
d="M459 416q0 -39 -17.5 -70.5t-65.5 -65.5l-31 -23q-28 -20 -41.5 -40t-14.5 -44h-108q2 41 23 73.5t61 60.5q43 30 61 53t18 51q0 36 -23 56.5t-66 20.5q-41 0 -69 -24t-32 -63l-116 5q11 82 68 128t147 46q96 0 151 -43.5t55 -120.5zM178 0v109h117v-109h-117z" />
    <glyph glyph-name="at" unicode="@" horiz-adv-x="809" 
d="M761 294q0 -74 -25.5 -135t-71 -95t-98.5 -34q-37 0 -57 18.5t-20 51.5q0 15 2 27h-2q-20 -43 -60 -70t-82 -27q-64 0 -99 41t-35 115q0 66 26 124t72.5 91t104.5 33q79 0 107 -70h2l16 61h63l-47 -205q-15 -70 -15 -97q0 -20 9.5 -28.5t21.5 -8.5q32 0 62 28t47.5 75
t17.5 104q0 71 -31.5 125.5t-89.5 84t-136 29.5q-97 0 -171 -42.5t-116.5 -122.5t-42.5 -180q0 -79 32.5 -139t90.5 -90.5t137 -30.5q119 0 239 63l25 -50q-68 -39 -133 -55t-134 -16q-96 0 -168.5 38.5t-113.5 111.5t-41 168q0 115 51.5 207.5t142 143.5t202.5 51
q98 0 170 -36.5t110 -103.5t38 -155zM499 292q0 39 -24 63t-62 24t-68.5 -25t-47.5 -71.5t-17 -95.5q0 -46 20 -73t60 -27q27 0 52.5 17t45 49.5t30.5 73.5t11 65z" />
    <glyph glyph-name="A" unicode="A" horiz-adv-x="599" 
d="M459 0l-50 146h-218l-51 -146h-119l208 571h141l208 -571h-119zM299 483l-2 -9q-4 -15 -9.5 -33.5t-69.5 -204.5h164l-57 164l-17 55z" />
    <glyph glyph-name="B" unicode="B" horiz-adv-x="599" 
d="M562 163q0 -78 -58.5 -120.5t-162.5 -42.5h-285v571h261q105 0 158.5 -36.5t53.5 -106.5q0 -49 -27 -82.5t-82 -45.5q69 -8 105.5 -43.5t36.5 -93.5zM409 411q0 39 -25 55t-73 16h-136v-141h137q51 0 74 17.5t23 52.5zM442 172q0 80 -115 80h-152v-163h156
q58 0 84.5 20.5t26.5 62.5z" />
    <glyph glyph-name="C" unicode="C" horiz-adv-x="599" 
d="M322 86q108 0 151 109l104 -40q-34 -83 -99 -123t-156 -40q-138 0 -213 78t-75 218q0 141 72.5 216.5t210.5 75.5q101 0 164 -40.5t88 -118.5l-105 -29q-13 43 -52.5 68.5t-92.5 25.5q-81 0 -123 -50.5t-42 -147.5q0 -98 43.5 -150t124.5 -52z" />
    <glyph glyph-name="D" unicode="D" horiz-adv-x="599" 
d="M565 290q0 -88 -35 -154t-98.5 -101t-144.5 -35h-231v571h206q144 0 223.5 -72.5t79.5 -208.5zM444 290q0 92 -47.5 140.5t-136.5 48.5h-85v-387h101q77 0 122.5 53.5t45.5 144.5z" />
    <glyph glyph-name="E" unicode="E" horiz-adv-x="553" 
d="M56 0v571h449v-92h-330v-144h305v-92h-305v-151h346v-92h-465z" />
    <glyph glyph-name="F" unicode="F" horiz-adv-x="506" 
d="M175 479v-177h292v-92h-292v-210h-119v571h421v-92h-302z" />
    <glyph glyph-name="G" unicode="G" horiz-adv-x="645" 
d="M327 86q47 0 90.5 13.5t67.5 34.5v79h-140v88h249v-210q-45 -47 -118 -73t-153 -26q-139 0 -214 77t-75 219q0 141 75.5 216.5t216.5 75.5q201 0 256 -149l-110 -33q-18 43 -56 65.5t-90 22.5q-84 0 -128 -51.5t-44 -146.5q0 -97 45.5 -149.5t127.5 -52.5z" />
    <glyph glyph-name="H" unicode="H" horiz-adv-x="599" 
d="M424 0v245h-249v-245h-119v571h119v-227h249v227h119v-571h-119z" />
    <glyph glyph-name="I" unicode="I" horiz-adv-x="230" 
d="M56 0v571h119v-571h-119z" />
    <glyph glyph-name="J" unicode="J" 
d="M212 -8q-89 0 -136.5 38.5t-62.5 124.5l118 17q7 -44 27 -65t55 -21q36 0 54.5 23.5t18.5 68.5v299h-114v94h233v-390q0 -89 -51 -139t-142 -50z" />
    <glyph glyph-name="K" unicode="K" horiz-adv-x="599" 
d="M451 0l-205 262l-71 -54v-208h-119v571h119v-259l257 259h140l-244 -242l264 -329h-141z" />
    <glyph glyph-name="L" unicode="L" horiz-adv-x="506" 
d="M56 0v571h119v-479h306v-92h-425z" />
    <glyph glyph-name="M" unicode="M" horiz-adv-x="691" 
d="M530 0v346v23.5t4 101.5q-29 -109 -43 -152l-103 -319h-85l-103 319l-43 152q5 -94 5 -125v-346h-106v571h160l102 -319l9 -31l19 -77l26 92l105 335h159v-571h-106z" />
    <glyph glyph-name="N" unicode="N" horiz-adv-x="599" 
d="M403 0l-249 440q7 -64 8 -103v-337h-106v571h136l253 -443q-7 61 -8 111v332h106v-571h-140z" />
    <glyph glyph-name="O" unicode="O" horiz-adv-x="645" 
d="M611 288q0 -89 -35.5 -156.5t-101 -103.5t-153.5 -36q-135 0 -211 79t-76 217q0 137 76 214.5t212 77.5t212.5 -78t76.5 -214zM489 288q0 92 -44 145t-123 53q-80 0 -124 -52.5t-44 -145.5q0 -94 45 -148t122 -54q80 0 124 52.5t44 149.5z" />
    <glyph glyph-name="P" unicode="P" horiz-adv-x="553" 
d="M525 390q0 -55 -25 -98.5t-72 -67t-111 -23.5h-142v-201h-119v571h256q103 0 158 -47.5t55 -133.5zM405 388q0 90 -106 90h-124v-185h127q49 0 76 24.5t27 70.5z" />
    <glyph glyph-name="Q" unicode="Q" horiz-adv-x="645" 
d="M611 288q0 -114 -56.5 -190t-156.5 -96q14 -40 39 -58t70 -18q24 0 48 4l-1 -82q-51 -11 -98 -11q-66 0 -109 36.5t-70 122.5q-116 11 -179.5 88t-63.5 204q0 137 76 214.5t212 77.5t212.5 -78t76.5 -214zM489 288q0 92 -44 145t-123 53q-80 0 -124 -52.5t-44 -145.5
q0 -94 45 -148t122 -54q80 0 124 52.5t44 149.5z" />
    <glyph glyph-name="R" unicode="R" horiz-adv-x="599" 
d="M448 0l-133 217h-140v-217h-119v571h285q102 0 157.5 -44t55.5 -126q0 -60 -34 -103.5t-92 -57.5l154 -240h-134zM434 396q0 82 -106 82h-153v-168h157q50 0 76 22.5t26 63.5z" />
    <glyph glyph-name="S" unicode="S" horiz-adv-x="553" 
d="M521 165q0 -84 -62 -128.5t-183 -44.5q-110 0 -172 39t-80 118l115 19q12 -45 46 -66t95 -21q125 0 125 77q0 24 -14.5 40t-40.5 26.5t-100 25.5q-64 15 -89.5 24t-45.5 21.5t-34.5 29.5t-22 40.5t-7.5 54.5q0 77 58 118.5t169 41.5q106 0 159.5 -33.5t68.5 -110.5
l-116 -15q-9 37 -36 55.5t-78 18.5q-109 0 -109 -68q0 -22 11.5 -36.5t34 -24.5t92.5 -25q82 -17 117.5 -32t56 -34.5t31.5 -46.5t11 -63z" />
    <glyph glyph-name="T" unicode="T" horiz-adv-x="506" 
d="M313 479v-479h-119v479h-185v92h489v-92h-185z" />
    <glyph glyph-name="U" unicode="U" horiz-adv-x="599" 
d="M293 -8q-118 0 -180.5 57.5t-62.5 164.5v357h119v-348q0 -68 32.5 -102.5t94.5 -34.5q64 0 98.5 36.5t34.5 104.5v344h120v-351q0 -109 -67 -168.5t-189 -59.5z" />
    <glyph glyph-name="V" unicode="V" horiz-adv-x="553" 
d="M338 0h-121l-211 571h124l118 -367q11 -36 30 -108l9 35l20 73l117 367h124z" />
    <glyph glyph-name="W" unicode="W" horiz-adv-x="783" 
d="M635 0h-142l-77 330q-14 58 -24 122q-10 -53 -16 -80.5t-86 -371.5h-142l-147 571h121l83 -369l18 -89q11 56 22 107.5t81 350.5h134l72 -304q9 -34 29 -154l10 47l22 93l68 318h122z" />
    <glyph glyph-name="X" unicode="X" horiz-adv-x="553" 
d="M421 0l-144 227l-143 -227h-127l198 300l-181 271h126l127 -202l127 202h126l-174 -271l190 -300h-125z" />
    <glyph glyph-name="Y" unicode="Y" horiz-adv-x="553" 
d="M337 234v-234h-119v234l-204 337h125l137 -242l139 242h125z" />
    <glyph glyph-name="Z" unicode="Z" horiz-adv-x="506" 
d="M483 0h-458v85l309 392h-278v94h410v-83l-308 -394h325v-94z" />
    <glyph glyph-name="bracketleft" unicode="[" horiz-adv-x="276" 
d="M47 -172v773h219v-77h-112v-619h112v-77h-219z" />
    <glyph glyph-name="backslash" unicode="\" horiz-adv-x="230" 
d="M124 -17l-115 619h96l118 -619h-99z" />
    <glyph glyph-name="bracketright" unicode="]" horiz-adv-x="276" 
d="M10 -172v77h113v619h-113v77h220v-773h-220z" />
    <glyph glyph-name="asciicircum" unicode="^" horiz-adv-x="484" 
d="M374 208l-132 305l-132 -305h-92l159 363h130l159 -363h-92z" />
    <glyph glyph-name="underscore" unicode="_" 
d="M-8 -101v31h477v-31h-477z" />
    <glyph glyph-name="grave" unicode="`" horiz-adv-x="276" 
d="M165 479l-138 112v18h104l102 -117v-13h-68z" />
    <glyph glyph-name="a" unicode="a" 
d="M159 -8q-64 0 -99.5 34.5t-35.5 97.5q0 68 44.5 103.5t128.5 36.5l95 2v22q0 43 -15 64t-49 21q-32 0 -46.5 -14.5t-18.5 -47.5l-119 6q11 64 58.5 97t130.5 33t128 -41t45 -117v-159q0 -37 8 -51t28 -14q13 0 25 2v-61q-10 -2 -18 -4.5t-16.5 -3.5t-17.5 -2t-21 -1
q-43 0 -63.5 21t-24.5 62h-2q-49 -86 -145 -86zM292 203l-59 -1q-40 -2 -56.5 -9t-25 -21.5t-8.5 -38.5q0 -31 14.5 -46.5t38.5 -15.5q27 0 49 15t34.5 40.5t12.5 54.5v22z" />
    <glyph glyph-name="b" unicode="b" horiz-adv-x="506" 
d="M473 221q0 -109 -43.5 -169t-124.5 -60q-47 0 -81 20t-52 59h-1q0 -14 -2 -39t-4 -32h-110q3 38 3 100v501h114v-167l-2 -72h2q39 84 140 85q78 0 119.5 -59t41.5 -167zM354 221q0 75 -22 111t-67 36q-46 0 -70.5 -39t-24.5 -112q0 -70 24 -108.5t70 -38.5q90 0 90 151z
" />
    <glyph glyph-name="c" unicode="c" 
d="M241 -8q-100 0 -154.5 59.5t-54.5 165.5q0 109 55 169.5t155 60.5q77 0 128 -39t64 -108l-115 -5q-5 34 -24 53.5t-55 19.5q-88 0 -88 -147q0 -152 90 -151q32 0 54 20.5t27 60.5l114 -5q-6 -45 -32 -80.5t-68.5 -54.5t-95.5 -19z" />
    <glyph glyph-name="d" unicode="d" horiz-adv-x="506" 
d="M342 0q-2 6 -4 30.5t-2 40.5h-2q-37 -79 -140 -79q-77 0 -118.5 59.5t-41.5 167.5q0 109 44 168.5t125 59.5q47 0 80.5 -19.5t51.5 -58.5h1l-1 72v160h114v-505q0 -41 3 -96h-110zM337 222q0 71 -24 109t-70 38t-68 -37t-22 -113q0 -149 89 -149q45 0 70 39.5t25 112.5z
" />
    <glyph glyph-name="e" unicode="e" 
d="M237 -8q-99 0 -152 58.5t-53 170.5q0 109 54 167.5t153 58.5q94 0 144 -63t50 -183v-4h-281q0 -64 23.5 -96.5t67.5 -32.5q60 0 76 52l108 -9q-47 -119 -190 -119zM237 375q-40 0 -61.5 -28t-22.5 -78h170q-3 53 -25.5 79.5t-60.5 26.5z" />
    <glyph glyph-name="f" unicode="f" horiz-adv-x="276" 
d="M192 362v-362h-114v362h-64v77h64v45q0 60 31.5 88.5t96.5 28.5q32 0 72 -6v-73q-17 4 -33 3q-29 0 -41 -11.5t-12 -40.5v-34h86v-77h-86z" />
    <glyph glyph-name="g" unicode="g" horiz-adv-x="506" 
d="M242 -176q-80 0 -129 30.5t-61 87.5l114 13q6 -26 26 -41t53 -15q47 0 69 29t22 87v23l1 43h-1q-38 -81 -141 -80q-77 0 -119 57.5t-42 164.5t43.5 165.5t125.5 58.5q96 0 133 -79h2q0 14 2 38.5t4 32.5h107q-2 -44 -2 -102v-324q0 -94 -53 -141.5t-154 -47.5zM337 225
q0 68 -24 106t-69 38q-91 0 -91 -146q0 -143 90 -143q45 0 69.5 37.5t24.5 107.5z" />
    <glyph glyph-name="h" unicode="h" horiz-adv-x="506" 
d="M170 351q23 50 58 73t83 23q70 0 107.5 -43t37.5 -126v-278h-114v246q0 116 -78 115q-41 0 -66.5 -35.5t-25.5 -90.5v-235h-114v601h114v-164q0 -44 -3 -86h1z" />
    <glyph glyph-name="i" unicode="i" horiz-adv-x="230" 
d="M58 518v83h114v-83h-114zM58 0v439h114v-439h-114z" />
    <glyph glyph-name="j" unicode="j" horiz-adv-x="230" 
d="M58 518v83h114v-83h-114zM56 -172q-41 0 -69 3v81l21 -2q29 0 39.5 13t10.5 53v463h114v-491q0 -58 -29 -89t-87 -31z" />
    <glyph glyph-name="k" unicode="k" 
d="M338 0l-117 199l-49 -34v-165h-114v601h114v-344l156 182h123l-154 -172l165 -267h-124z" />
    <glyph glyph-name="l" unicode="l" horiz-adv-x="230" 
d="M58 0v601h114v-601h-114z" />
    <glyph glyph-name="m" unicode="m" horiz-adv-x="738" 
d="M316 0v246q0 116 -66 116q-34 0 -56 -35.5t-22 -91.5v-235h-114v340q0 35 -1 58t-2 41h108q1 -8 3.5 -41.5t2.5 -46.5h1q21 50 52.5 73t75.5 23q101 0 122 -96h2q22 51 53.5 73.5t79.5 22.5q64 0 98 -43.5t34 -125.5v-278h-114v246q0 116 -66 116q-33 0 -54.5 -32.5
t-23.5 -89.5v-240h-113z" />
    <glyph glyph-name="n" unicode="n" horiz-adv-x="506" 
d="M342 0v246q0 116 -78 116q-41 0 -66.5 -35.5t-25.5 -91.5v-235h-114v340q0 35 -1 58t-2 41h108q1 -8 3.5 -41.5t2.5 -46.5h1q23 50 58 73t83 23q70 0 107.5 -43t37.5 -126v-278h-114z" />
    <glyph glyph-name="o" unicode="o" horiz-adv-x="506" 
d="M475 220q0 -107 -59.5 -167.5t-163.5 -60.5q-103 0 -161.5 60.5t-58.5 167.5q0 106 58.5 166.5t163.5 60.5q107 0 164 -58.5t57 -168.5zM355 220q0 78 -25.5 113t-73.5 35q-104 0 -104 -148q0 -73 25.5 -111.5t72.5 -38.5q105 0 105 150z" />
    <glyph glyph-name="p" unicode="p" horiz-adv-x="506" 
d="M473 221q0 -110 -44 -169.5t-124 -59.5q-46 0 -80.5 20t-52.5 58h-3q2 -12 3 -74v-168h-114v510q0 62 -3 101h110q2 -7 3.5 -29t1.5 -43h2q39 81 140 81q77 0 119 -59t42 -168zM354 221q0 148 -90 148q-45 0 -69.5 -40t-24.5 -111t24 -109.5t69 -38.5q91 -1 91 151z" />
    <glyph glyph-name="q" unicode="q" horiz-adv-x="506" 
d="M34 219q0 109 44.5 168.5t124.5 59.5q96 0 133 -79q0 19 2 41.5t4 29.5h109q-2 -44 -2 -101v-510h-113v182l2 63h-1q-38 -81 -143 -81q-77 0 -118.5 60t-41.5 167zM337 221q0 70 -23.5 109t-69.5 39q-91 0 -91 -150q0 -149 90 -149q45 0 69.5 39t24.5 112z" />
    <glyph glyph-name="r" unicode="r" horiz-adv-x="323" 
d="M58 0v336q0 36 -1 60t-2 43h108q1 -7 3.5 -44.5t2.5 -49.5h1q17 46 30 65t30.5 28t44.5 9q22 0 35 -6v-95q-28 6 -48 6q-43 0 -66.5 -34.5t-23.5 -102.5v-215h-114z" />
    <glyph glyph-name="s" unicode="s" 
d="M428 128q0 -64 -52.5 -100t-144.5 -36q-90 0 -138 28.5t-64 88.5l100 15q9 -31 30 -44t72 -13q48 0 70 12.5t22 38.5q0 21 -17.5 33t-59.5 21q-96 19 -130 35.5t-51.5 42.5t-17.5 64q0 63 48 98t137 35q78 0 126 -30.5t59 -87.5l-100 -11q-5 27 -24 40t-61 13
q-41 0 -61 -10t-20 -35q0 -19 15.5 -30t52.5 -18q51 -11 91.5 -22t64.5 -26.5t38.5 -39.5t14.5 -62z" />
    <glyph glyph-name="t" unicode="t" horiz-adv-x="276" 
d="M170 -7q-50 0 -77 27t-27 83v259h-56v77h61l36 102h71v-102h83v-77h-83v-228q0 -32 12.5 -47.5t37.5 -15.5q13 0 38 6v-71q-42 -13 -96 -13z" />
    <glyph glyph-name="u" unicode="u" horiz-adv-x="506" 
d="M165 439v-246q0 -116 78 -116q41 0 66.5 35.5t25.5 90.5v236h114v-341q0 -56 3 -98h-108q-5 58 -5 87h-2q-23 -50 -58 -72.5t-83 -22.5q-70 0 -107.5 42.5t-37.5 125.5v279h114z" />
    <glyph glyph-name="v" unicode="v" 
d="M296 0h-136l-157 439h121l76 -246q6 -20 29 -101q4 17 16.5 58.5t93.5 288.5h119z" />
    <glyph glyph-name="w" unicode="w" horiz-adv-x="645" 
d="M532 0h-120l-70 267q-5 18 -19 90l-21 -90l-71 -267h-120l-113 439h107l72 -336l5 30l11 48l68 258h122l68 -258q6 -21 16 -78l12 54l63 282h105z" />
    <glyph glyph-name="x" unicode="x" 
d="M332 0l-102 159l-103 -159h-121l160 227l-153 212h123l94 -144l93 144h124l-153 -211l162 -228h-124z" />
    <glyph glyph-name="y" unicode="y" 
d="M115 -172q-41 0 -72 5v81q21 -3 39 -3q24 0 40.5 7.5t29 25.5t28.5 60l-174 435h121l69 -206q16 -44 41 -135l10 38l26 95l65 208h119l-173 -462q-35 -84 -72.5 -116.5t-96.5 -32.5z" />
    <glyph glyph-name="z" unicode="z" horiz-adv-x="415" 
d="M33 0v81l207 275h-190v83h315v-82l-205 -274h225v-83h-352z" />
    <glyph glyph-name="braceleft" unicode="{" horiz-adv-x="323" 
d="M226 -172q-54 0 -87 31.5t-33 89.5v133q0 46 -22 69t-71 24v79q49 2 71 25t22 68v133q0 59 32 90t88 31h80v-77h-24q-37 0 -53.5 -21t-16.5 -63v-122q0 -39 -23 -67t-61 -35v-2q39 -9 61.5 -36.5t22.5 -65.5v-122q0 -43 16.5 -64t53.5 -21h24v-77h-80z" />
    <glyph glyph-name="bar" unicode="|" horiz-adv-x="232" 
d="M63 -184v785h106v-785h-106z" />
    <glyph glyph-name="braceright" unicode="}" horiz-adv-x="323" 
d="M17 -95h24q38 0 53.5 21t15.5 64v122q0 37 23 65t61 37v2q-37 8 -60.5 35.5t-23.5 66.5v122q0 43 -16 63.5t-53 20.5h-24v77h80q56 0 88 -31t32 -90v-133q0 -45 22 -68t71 -25v-79q-49 -1 -71 -24.5t-22 -68.5v-133q0 -57 -32.5 -89t-87.5 -32h-80v77z" />
    <glyph glyph-name="asciitilde" unicode="~" horiz-adv-x="484" 
d="M345 209q-30 0 -59.5 8.5t-59.5 19.5q-55 19 -90 19q-29 0 -53 -9t-50 -27v86q46 34 110 34q43 0 98 -19q53 -19 73.5 -23.5t38.5 -4.5q54 0 101 37v-88q-26 -18 -50 -25.5t-59 -7.5z" />
    <glyph glyph-name="nbsp" unicode="&#xa0;" horiz-adv-x="220" 
 />
    <glyph glyph-name="cent" unicode="&#xa2;" 
d="M238 138q36 0 60 22t30 62l115 -4q-9 -62 -54.5 -103.5t-117.5 -49.5v-78h-66v77q-87 9 -135.5 64t-48.5 150q0 94 47.5 151t136.5 67v75h66v-75q68 -8 112.5 -45.5t55.5 -98.5l-114 -6q-6 37 -29 57t-59 20q-50 0 -76 -37t-26 -104q0 -71 27 -107.5t76 -36.5z" />
    <glyph glyph-name="copyright" unicode="&#xa9;" horiz-adv-x="611" 
d="M599 287q0 -78 -39 -146.5t-107.5 -107.5t-146.5 -39q-80 0 -148.5 40.5t-106.5 108t-38 144.5q0 78 39.5 146t107.5 107.5t146 39.5q79 0 147 -39.5t107 -107t39 -146.5zM554 287q0 66 -33.5 122.5t-91 90t-123.5 33.5q-64 0 -120.5 -31.5t-91 -89t-34.5 -125.5
q0 -66 33 -124t90 -91t123 -33t124 33t91 91t33 124zM220 287q0 -55 24 -84.5t67 -29.5q27 0 47.5 15t32.5 43l65 -19q-24 -51 -59 -73.5t-86 -22.5q-78 0 -120.5 44.5t-42.5 126.5t41 125.5t119 43.5q53 0 88 -23t55 -70l-64 -17q-11 25 -30 38.5t-47 13.5q-44 0 -67 -28.5
t-23 -82.5z" />
    <glyph glyph-name="registered" unicode="&#xae;" horiz-adv-x="611" 
d="M599 287q0 -78 -39 -146.5t-107.5 -107.5t-146.5 -39q-80 0 -148.5 40.5t-106.5 108t-38 144.5q0 78 39.5 146t107.5 107.5t146 39.5q79 0 147 -39.5t107 -107t39 -146.5zM554 287q0 66 -33.5 122.5t-91 90t-123.5 33.5q-64 0 -120.5 -31.5t-91 -89t-34.5 -125.5
q0 -66 33 -124t90 -91t123 -33t124 33t91 91t33 124zM374 120l-72 127h-47v-127h-73v331h134q62 0 93 -26.5t31 -71.5q0 -38 -19.5 -62t-51.5 -34l87 -137h-82zM367 352q0 23 -15.5 35t-43.5 12h-53v-100h58q27 0 40.5 14.5t13.5 38.5z" />
    <glyph glyph-name="onequarter" unicode="&#xbc;" horiz-adv-x="692" 
d="M611 57v-57h-74v57h-140v60l128 175h86v-178h42v-57h-42zM538 236l-4 -8q-11 -19 -22 -36l-57 -78h82v78zM221 0h-82l363 571h81zM38 281v49h75v190l-70 -44v50l73 47h71v-243h68v-49h-217z" />
    <glyph glyph-name="onehalf" unicode="&#xbd;" horiz-adv-x="692" 
d="M415 -1v49q12 25 33 46.5t58 44.5q35 23 48 38t13 31q0 37 -32 36q-34 0 -39 -39l-78 2q5 40 35.5 64.5t81.5 24.5q53 0 83 -22.5t30 -62.5q0 -51 -62 -91q-42 -27 -57.5 -39t-22.5 -26h147v-56h-238zM213 0h-82l363 571h81zM38 281v49h75v190l-70 -44v50l73 47h71v-243
h68v-49h-217z" />
    <glyph glyph-name="threequarters" unicode="&#xbe;" horiz-adv-x="692" 
d="M283 363q0 -40 -30.5 -63t-86.5 -23q-55 0 -87 21t-37 64l76 4q4 -38 47 -37q41 0 41 39q0 38 -56 37h-23v51h21q26 0 38.5 9.5t12.5 27.5q0 16 -9.5 24.5t-26.5 8.5q-36 0 -40 -36l-75 5q4 38 35 60.5t82 22.5q52 0 81 -21t29 -55q0 -26 -15 -44.5t-47 -25.5v0
q34 -4 52 -22.5t18 -46.5zM611 57v-57h-74v57h-140v60l128 175h86v-178h42v-57h-42zM538 236l-4 -8q-11 -19 -22 -36l-57 -78h82v78zM221 0h-82l363 571h81z" />
    <glyph glyph-name="multiply" unicode="&#xd7;" horiz-adv-x="484" 
d="M35 132l144 145l-143 143l65 63l142 -142l143 143l64 -64l-143 -144l143 -141l-64 -65l-143 143l-144 -145z" />
    <glyph glyph-name="divide" unicode="&#xf7;" horiz-adv-x="455" 
d="M179 389v95h97v-95h-97zM20 231v90h416v-90h-416zM179 69v94h97v-94h-97z" />
    <glyph glyph-name="U0950" unicode="&#x950;" horiz-adv-x="624" 
d="M487 412q97 0 97 -158q0 -80 -30 -127t-82 -47q-36 0 -51 22.5t-15 76.5v28q0 53 -28 53q-23 0 -60 -25q49 -67 49 -120.5t-31.5 -83.5t-84.5 -30q-85 0 -148 77t-73 190l19 6q16 -100 67.5 -163t117.5 -63q35 0 60 26t25 63q0 68 -55 124q-28 -39 -67 -57l-24 59
q86 25 86 84q0 46 -54 46q-39 0 -82 -23l-24 58q34 17 78.5 17t76 -32.5t31.5 -84.5q0 -22 -10 -42l13 -12q50 48 95 48q4 0 13 -1q17 91 91 91zM411 315q21 -11 21 -47v-67q0 -70 43 -70q35 0 59 33.5t24 84t-22 81.5t-56 31q-47 0 -69 -46zM216 505l17 12q35 -45 82 -45
t80 45l49 -40q-48 -52 -99 -52q-77 0 -129 80zM324 578l37 -38l-37 -36l-37 39z" />
    <glyph glyph-name="U0951" unicode="&#x951;" horiz-adv-x="0" 
d="M-167 758h-47v343h47v-343zM-191 639z" />
    <glyph glyph-name="U0952" unicode="&#x952;" horiz-adv-x="0" 
d="M-293 -71zM-48 -337h-480v41h480v-41zM-293 141z" />
    <glyph glyph-name="U0964" unicode="&#x964;" horiz-adv-x="213" 
d="M89 -61v495h79v-495h-79z" />
    <glyph glyph-name="U0965" unicode="&#x965;" horiz-adv-x="405" 
d="M89 434h79v-495h-79v495zM280 434h80v-495h-80v495z" />
    <glyph glyph-name="U0C01" unicode="&#xc01;" horiz-adv-x="274" 
d="M254 356v-65q-84 15 -119 -24q-36 -37 -36 -86.5t22 -79.5t56.5 -36t66.5 5v-67q-23 -9 -40 -8q-88 0 -138.5 55.5t-50.5 133t65.5 137t173.5 35.5z" />
    <glyph glyph-name="U0C02" unicode="&#xc02;" horiz-adv-x="424" 
d="M344 321q60 -53 60 -138.5t-70 -141.5q-59 -46 -132.5 -46t-123.5 41q-63 50 -63 146.5t81 149.5q60 35 126 35t122 -46zM289 106q37 36 37 74t-26 70q-33 41 -85.5 41t-84 -32.5t-31.5 -78.5t30 -76t77 -30t83 32z" />
    <glyph glyph-name="U0C03" unicode="&#xc03;" horiz-adv-x="214" 
d="M171 340q23 -19 23 -50.5t-27 -59.5q-25 -23 -57 -23t-51 10q-41 24 -41 67q0 33 26 57t64 24t63 -25zM167.5 135q23.5 -21 23.5 -54.5t-27 -56.5q-24 -26 -58 -26t-50 10q-41 27 -41 65t26 60.5t64.5 22.5t62 -21zM142 286.5q0 31.5 -35.5 31.5t-35.5 -31.5t35.5 -31.5
t35.5 31.5zM138 80q0 31 -35 31t-35 -32.5t35 -32.5t35 34z" />
    <glyph glyph-name="U0C05" unicode="&#xc05;" horiz-adv-x="492" 
d="M110 174v64h92l-4 35q2 50 35 82.5t100 31.5q53 0 96 -53t43 -126q0 -85 -76 -154q-65 -59 -162 -59t-158 57t-61 161q0 27 16 68t42 67q44 44 110 44v-75q-27 9 -60 -31.5t-25.5 -101.5t40.5 -87q42 -28 108 -28t108 43t42 105q0 43 -28 75q-24 25 -46 25q-46 0 -46 -38
q0 -32 38 -32h10l1 -73h-215z" />
    <glyph glyph-name="U0C06" unicode="&#xc06;" horiz-adv-x="471" 
d="M451 156q0 -75 -94 -129q-52 -32 -124.5 -32t-129.5 36q-88 54 -88 160q0 61 48 124q54 68 128 68v-73l-14 3q-26 0 -51.5 -33t-27.5 -83q2 -52 28 -86q39 -49 112 -49q55 0 98 38q38 31 38 52t-9 37q-18 -10 -42 -11h-187v63h97q-21 24 -18 52q0 36 34 65.5t85 29.5
t84 -30q26 -27 26 -72t-21 -62q28 -31 28 -68zM366 289q0 28 -35 28t-35 -30q0 -22 36 -26q34 0 34 28z" />
    <glyph glyph-name="U0C07" unicode="&#xc07;" horiz-adv-x="495" 
d="M475 -35h-96q-11 37 -39 89q-83 -59 -160 -59q-62 0 -103 25q-53 32 -53 96q0 46 58 79q55 29 113 29t142 -64q21 40 21 79.5t-15 64.5q-16 21 -38 21q-38 0 -38 -36q0 -22 10 -43h-88q3 32 -17 52q-14 18 -35 18q-33 0 -33 -43q0 -14 12 -30l-101 -4v26q0 34 21 70
q31 54 93 54q27 2 52 -2q22 -8 44 -25q24 38 81 38t91 -48.5t34 -113t-41 -124.5q61 -61 85 -149zM290 104q-12 16 -43 31q-37 15 -65 15t-52.5 -11.5t-26.5 -27.5q0 -17 29.5 -29.5t48.5 -12.5t30 2t31 10q33 10 48 23z" />
    <glyph glyph-name="U0C08" unicode="&#xc08;" horiz-adv-x="753" 
d="M733 118q0 -46 -40.5 -79t-83 -33t-75.5 34q-29 33 -29 80q0 16 6 36h-54q-11 -64 -69.5 -113.5t-142.5 -49.5t-138 50q-41 41 -56 109h-36v73h43q0 14 17.5 51t44.5 52l-30 28q-23 27 -23 77h98q-8 -9 -8 -24.5t19 -27.5q17 -8 33 -10q25 0 51 28l47 50q21 20 57.5 32
t49 12t21.5 -7v-83q-6 7 -27 9q-52 0 -77 -41q90 -13 128 -141h116q52 20 52 77q0 30 -37 30t-37 -28l8 -20h-72l-1 13l-1 21q0 28 22 54q30 36 83 36t87 -42q28 -34 28 -69t-10 -53l-14 -26q50 -38 50 -105zM656 120q0 16 -11 31t-28 15t-29 -14.5t-12 -27.5q0 -42 41 -42
q14 0 25.5 11.5t13.5 26.5zM385 224q-27 78 -125 78q-79 0 -112 -78h237zM378 153h-235q-4 -20 32.5 -48.5t79.5 -28.5q83 0 123 77z" />
    <glyph glyph-name="U0C09" unicode="&#xc09;" horiz-adv-x="533" 
d="M513 129q0 -47 -40 -91t-103 -44t-85 45l-24 -30q-19 -16 -70 -16t-90.5 49.5t-39.5 106.5v22h-46v70h59q38 60 48 70q46 50 109 60v121h76v-117q78 0 126 -43q35 -31 40 -65h-77q-27 43 -103 43q-98 0 -134 -69h154v-70h-168l-5 -22q0 -24 15 -51t45.5 -27t42.5 23
q6 21 6 47h94q-5 -4 -5 -35q0 -38 51 -38q20 0 33.5 16t13.5 34t-5 26.5t-19.5 16.5t-37.5 8v69q6 2 25 2l22 -2q37 0 67 -39q25 -39 25 -70z" />
    <glyph glyph-name="U0C0A" unicode="&#xc0a;" horiz-adv-x="775" 
d="M498 157q5 -22 5 -41q0 -56 -36.5 -87.5t-97 -31.5t-80.5 46q-21 -49 -89.5 -49t-103.5 53q-26 42 -26 95q0 31 3 38h-58v70h73q0 17 17 45q23 41 73 69v127h71v-104l16 1l18 1v101h72v-104q97 -26 108 -99h-74q-27 38 -80.5 38t-87.5 -21.5t-43 -53.5h411q42 0 65 21
t23 38t-12.5 31t-26.5 14t-26 -12.5t-12 -29.5l2 -8h-69l-2 17q0 35 23 61q31 33 83 33t80 -38q20 -32 20 -63t-9 -45l-17 -25q26 -21 32 -32q12 -22 12 -65.5t-38 -77.5q-35 -35 -83.5 -35t-75.5 33.5t-20 81.5q0 22 15 31h-396l1 -44q0 -20 14.5 -39t36.5 -19t35.5 17
t13.5 38l-2 14h71v-27q0 -20 14 -34t32.5 -14t34 18.5t15.5 38t-4 28.5h79zM685 142q0 36 -35 42q-42 0 -42 -37q0 -20 12 -32t26 -13q39 0 39 40z" />
    <glyph glyph-name="U0C0B" unicode="&#xc0b;" horiz-adv-x="933" 
d="M417 45q-48 -48 -121 -48q-21 0 -38 10q-3 1 -27 27q-42 -39 -98.5 -39t-85.5 34q-30 29 -30 77q0 83 92 113l39 11q18 9 18 29q0 32 -35 32q-48 0 -48 -48h-68q0 119 121 119q46 0 74.5 -27.5t28.5 -74t-37 -72.5l-68 -30q-36 -17 -36 -47q0 -15 12.5 -27t34.5 -12
q38 0 46 34q1 6 1 15t-2 18h80v-19q0 -22 18.5 -33.5t35.5 -13.5q31 0 52.5 35.5t21.5 73t-23.5 71.5t-60.5 34q-13 0 -29 -7v80l33 2q64 0 107.5 -52t43.5 -135v-12l15 -46q19 -43 55 -43t58 35t22 73.5t-19 68.5q-24 40 -65 40l-29 -1v72l34 2q64 0 107 -54t43 -135v-12
l16 -46q19 -43 55 -43t58 35.5t22 74t-20 67.5q-23 40 -63 40l-31 -1v72l34 2q64 0 108 -54t44 -131t-48.5 -131t-117 -54t-105.5 44l-3 5q-48 -49 -115 -49t-102 44z" />
    <glyph glyph-name="U0C0C" unicode="&#xc0c;" horiz-adv-x="566" 
d="M546 217q0 -95 -41 -156q-48 -67 -140.5 -67t-125.5 57q-22 36 -22 107q0 81 95 109q52 13 52 57.5t-43 44.5q-20 0 -41 -15q-18 -18 -20 -36v-27h-76l-1 41q0 10 -13.5 22t-31.5 14q-18 0 -34 -14q-14 -19 -14 -40q0 -42 36 -42q19 0 28 4v-79q-82 0 -105 25
q-34 36 -34 89.5t42 92.5t86 39q74 0 93 -45q1 16 26.5 31t67 15t78.5 -31t37 -84q0 -100 -87 -119q-29 -8 -46.5 -23.5t-17.5 -33.5q0 -33 7 -49q15 -35 66 -35t76 43q19 30 19 60v45h84z" />
    <glyph glyph-name="U0C0E" unicode="&#xc0e;" horiz-adv-x="485" 
d="M289 282l-41 -4v80q27 7 45 7q78 0 129 -61q43 -56 43 -125.5t-50 -125.5t-106.5 -56t-84.5 32q-30 -36 -90.5 -36t-90.5 38q-28 32 -28 78t39 85t106 39q48 0 79 -37.5t31 -89.5q11 -32 44 -32q23 0 47 35.5t24 63.5q0 109 -96 109zM188 114q0 19 -15 32q-11 15 -33 15
q-44 0 -44 -47t44 -47q48 0 48 47z" />
    <glyph glyph-name="U0C0F" unicode="&#xc0f;" horiz-adv-x="489" 
d="M336 458l-43 -63q-33 22 -63 22q-62 0 -101 -36q-27 -30 -27 -65t22 -57h-96q-13 35 -13 61q0 81 99 138q58 33 122 33t100 -33zM426 304q43 -55 43 -123.5t-50 -126t-105 -57.5t-82 37q-17 -41 -98 -41q-55 0 -87 37q-26 32 -26 78.5t38.5 85.5t105.5 39q47 0 79 -37.5
t32 -89.5q16 -32 42 -32t47 34q24 34 24 67q0 95 -87 107q-9 1 -12.5 1t-14.5 -2l-25 -3v80q27 7 48 7q78 0 128 -61zM192 114q0 19 -14 32q-11 15 -32 15q-45 0 -45 -50q0 -43 44 -43q47 0 47 46z" />
    <glyph glyph-name="U0C10" unicode="&#xc10;" horiz-adv-x="471" 
d="M451 204q0 -80 -54.5 -143.5t-107.5 -63.5q-42 0 -78 30l-31 -22q-25 -12 -56 -12q-52 0 -84 43q-25 35 -25 80.5t26 77.5q36 46 112.5 46t112.5 -116q13 -39 34 -39q27 0 47.5 38.5t20.5 77.5t-21 78t-56 39q-21 0 -26 -15l-5 -32l-76 -4q0 23 -12.5 38.5t-33.5 15.5
q-40 0 -40 -27l9 -29h-83l-1 19q0 18 3 31.5t17 35.5q31 53 97 53q43 0 91 -31l22 17q16 12 40 12q81 0 127 -81q31 -56 31 -117zM166 86q15 15 15 32.5t-15.5 29.5t-34.5 14q-14 0 -26.5 -13t-12.5 -35q0 -43 39 -43q20 0 35 15z" />
    <glyph glyph-name="U0C12" unicode="&#xc12;" horiz-adv-x="467" 
d="M413 215q34 -36 34 -89.5t-41.5 -92.5t-84.5 -39q-76 0 -94 45q-2 -16 -25 -32q-27 -14 -68.5 -14t-79 30t-37.5 83q0 101 87 121q63 13 63 44q0 12 -9 27q-8 11 -20 13q-14 0 -25.5 -13.5t-11.5 -25.5l2 -11h-88q0 38 20 71q31 52 101 52q36 0 66 -19q42 -29 42 -87
q0 -82 -94 -108q-51 -14 -51 -58t44 -44q18 0 40 15q17 14 19 35v27h77l1 -41q0 -10 13.5 -21.5t31.5 -13.5q18 0 33 14q16 18 16 40q0 41 -38 41q-18 0 -27 -3v77q81 0 104 -23z" />
    <glyph glyph-name="U0C13" unicode="&#xc13;" horiz-adv-x="467" 
d="M413 215q34 -36 34 -89.5t-41.5 -92.5t-84.5 -39q-76 0 -94 45q-2 -16 -25 -32q-27 -14 -68.5 -14t-79 30t-37.5 83q0 101 87 121q63 13 63 44q0 12 -9 27q-8 11 -20 13q-14 0 -25.5 -13.5t-11.5 -25.5l2 -11h-88q0 74 61 110q-11 15 -11 41q0 47 34 77q36 26 96 26
t99 -40q31 -33 31 -73v-31h-87q0 72 -46.5 72t-46.5 -38q0 -14 3 -21q41 -11 56 -22q40 -27 40 -84q0 -82 -94 -108q-51 -14 -51 -58t44 -44q18 0 40 15q17 14 19 35v27h77l1 -41q0 -10 13.5 -21.5t31.5 -13.5q18 0 33 14q16 18 16 40q0 41 -38 41q-18 0 -27 -3v77
q81 0 104 -23z" />
    <glyph glyph-name="U0C14" unicode="&#xc14;" horiz-adv-x="531" 
d="M511 376q0 -52 -37.5 -92t-74.5 -40t-65.5 30t-28.5 66.5t29 67.5q29 25 67 25q14 0 22 -2q-13 14 -33 16h-171q9 -21 9 -39.5t-23 -42.5q9 -5 24 -28t15 -53q0 -62 -57 -100l-45 -17q-36 -19 -36 -49q0 -14 12 -32q10 -17 28.5 -17t34.5 20q14 22 14 46l-3 17h94l-4 -22
q0 -56 45 -56q18 0 34 17.5t15.5 33.5t-11 28.5t-21 12.5t-17.5 -13v85l10 2l20 1q27 0 47 -14q46 -34 46 -97q0 -47 -52 -94q-46 -40 -76 -40q-54 0 -88 35q-40 -38 -107 -38q-44 0 -77.5 37t-33.5 88q0 82 68 104l55 16q28 10 28 35q0 39 -32 39q-40 0 -40 -30l3 -27h-83
q0 73 42 96q-5 14 -5 26t5 18h78q13 0 25 7q9 9 9 13q0 32 -32 32h-114v66h386q102 -33 102 -137zM407 314q19 0 19 27.5t-27 27.5q-9 0 -17 -9q-5 -9 -5 -20t9.5 -19t20.5 -7z" />
    <glyph glyph-name="U0C15" unicode="&#xc15;" horiz-adv-x="401" 
d="M250 364q109 -16 109 -101h-80q-9 20 -35 31q-11 7 -21.5 8t-27.5 1q-77 0 -77 -51q0 -33 69 -33l35 9q32 8 63 8q48 0 74 -31q22 -22 22 -57q-7 -72 -61 -112.5t-125 -40.5q-90 0 -140 50q-40 37 -40 83h85q0 -22 29.5 -41t73.5 -19t70 19t26 39q0 37 -44 37l-45 -7
l-59 -6q-44 0 -81 27q-41 28 -41 69t42 78l5 3l-14 10q-36 31 -36 69v11h84l-1 -9q0 -41 41 -41q16 0 33 16l31 37q53 59 112 59q26 0 40 -9v-78q-12 17 -42.5 17t-55.5 -26z" />
    <glyph glyph-name="U0C16" unicode="&#xc16;" horiz-adv-x="559" 
d="M539 184q0 -78 -51.5 -131.5t-127.5 -53.5q-38 0 -55.5 5t-50.5 37q-19 -20 -48 -31q-46 -17 -85.5 -17t-70.5 21q-35 22 -35 63t39 69t85 28q71 0 114 -32q11 49 11 64.5t-9.5 40.5t-23.5 26q-8 -34 -33 -59q-7 -7 -26 -17q-27 -11 -43 -11q-51 0 -80.5 25.5t-29.5 69.5
t61 81q32 21 88 21q78 0 131 -56q39 -43 39 -127q0 -20 -8 -53q-9 -27 -22 -41q2 -15 19.5 -24.5t35.5 -9.5q34 0 63 28q32 35 32 77t-18 73q-22 33 -63 33l-25 -3v80q78 0 105 -17q30 -15 56 -58q26 -51 26 -101zM125 250q29 0 29 30.5t-29 30.5t-29 -30.5t29 -30.5z
M198 90q-22 18 -59.5 18t-37.5 -19q0 -21 40.5 -21t56.5 22zM292 -95h-82v90h82v-90z" />
    <glyph glyph-name="U0C17" unicode="&#xc17;" horiz-adv-x="423" 
d="M286 355q52 -21 84.5 -77t32.5 -116t-34 -106t-57 -53l-3 2l-40 63v4q54 43 54 100q0 46 -24 79q-29 41 -82 41t-84 -39t-31 -97q0 -25 2.5 -38t9 -22t39.5 -37l2 -3q-5 -15 -48 -58h-4q-88 34 -88 170q0 78 57 136l18 16l-7 3q-39 27 -39 66l1 15h89q-3 -2 -3 -12
t15 -20t29 -12l19 4q12 3 21 12l31 33q46 50 101 50q26 0 45 -9v-81q-15 14 -42.5 14t-63.5 -28z" />
    <glyph glyph-name="U0C18" unicode="&#xc18;" horiz-adv-x="709" 
d="M174 80q14 13 14 33t-15 33q-11 15 -33 15q-44 0 -44 -47t44 -47q20 0 34 13zM641 48q-48 -54 -118 -54t-106 48q-44 -49 -109 -49q-51 0 -84 36q-30 -36 -90.5 -36t-90.5 38q-28 32 -28 79.5t32 80.5q34 42 103 42q49 0 84.5 -39t35.5 -88q11 -32 43 -32t52 30.5
t20 68.5q0 109 -106 109v78q46 5 79 -8.5t61 -45.5q46 -56 46 -129v-5l18 -55q18 -43 59 -43q32 0 54 35.5t22 74t-20 67.5q-23 40 -64 40l-31 -1v74h35q64 0 107.5 -54t43.5 -131t-48 -131zM341 424q-8 4 -23 4q-29 0 -53 -26l-48 -56q-41 -39 -106 -39q-42 0 -68 26
q-27 23 -27 62h80q0 -26 30 -26t55 35l43 62q32 35 84 35q19 0 33 -9v-68zM264 -95h-82v90h82v-90z" />
    <glyph glyph-name="U0C19" unicode="&#xc19;" horiz-adv-x="467" 
d="M413 215q34 -36 34 -89.5t-41.5 -92.5t-84.5 -39q-76 0 -94 45q-2 -16 -25 -32q-27 -14 -68.5 -14t-79 30t-37.5 83q0 101 87 121q63 13 63 44q0 12 -9 27q-8 11 -20 13q-14 0 -25.5 -13.5t-11.5 -25.5l2 -11h-88q0 38 20 71q31 52 97 52t95 -46h52v57h75v-55h54v-74
h-165q0 -71 -96 -97q-48 -13 -48 -57t44 -44q18 0 40 15q17 14 19 35v27h77l1 -41q0 -10 13.5 -21.5t31.5 -13.5q18 0 33 14q16 18 16 40q0 41 -38 41q-18 0 -27 -3v77q81 0 104 -23z" />
    <glyph glyph-name="U0C1A" unicode="&#xc1a;" horiz-adv-x="593" 
d="M425 362q52 -4 95 -47q53 -50 53 -129.5t-45 -135t-118.5 -55.5t-87.5 41q-32 -42 -91 -42t-97.5 40.5t-38.5 94.5q0 38 18 55h-98v77h226v-61q-53 -12 -53 -59q0 -24 13 -45q15 -18 38 -18q44 0 44 61l-3 24h97l-3 -33q0 -59 45 -59q35 0 53.5 37t18.5 74q0 79 -66 101
q-36 10 -124 10h-13q-49 0 -83 30q-38 30 -38 94h85q-3 -4 -3 -12q0 -21 19 -32q9 -4 29 -8h15q28 3 50 32l47 59q32 31 77 31q19 0 39 -9v-77q-8 13 -39 13q-22 0 -45 -31z" />
    <glyph glyph-name="U0C1B" unicode="&#xc1b;" horiz-adv-x="593" 
d="M425 362q52 -4 95 -47q53 -50 53 -129.5t-45 -135t-118.5 -55.5t-87.5 41q-32 -42 -91 -42t-97.5 40.5t-38.5 94.5q0 38 18 55h-98v77h226v-61q-53 -12 -53 -59q0 -24 13 -45q15 -18 38 -18q44 0 44 61l-3 24h97l-3 -33q0 -59 45 -59q35 0 53.5 37t18.5 74q0 79 -66 101
q-36 10 -124 10h-13q-49 0 -83 30q-38 30 -38 94h85q-3 -4 -3 -12q0 -21 19 -32q9 -4 29 -8h15q28 3 50 32l47 59q32 31 77 31q19 0 39 -9v-77q-8 13 -39 13q-22 0 -45 -31zM360 -95h-81v90h81v-90z" />
    <glyph glyph-name="U0C1C" unicode="&#xc1c;" horiz-adv-x="472" 
d="M290 111q0 -39 36 -43q16 0 30 12q12 13 12 29.5t-4 20.5l-7 12h91q4 -19 3 -36q0 -44 -33 -77t-93 -33q-56 -6 -92 40q-35 -42 -83.5 -42t-86.5 34q-36 35 -36 86.5t41 74.5l72 26q40 13 40 45q0 35 -34 35q-42 0 -42 -55h-89q0 52 44.5 91.5t94 39.5t79.5 -33
q3 -2 35 -58q19 -32 45 -32q17 0 30.5 10t13.5 26q0 32 -39 32q-15 0 -25 -3l-14 -7v80q78 0 101 -8q65 -21 65 -89q0 -50 -43 -78q-36 -29 -79 -29t-82 18q-8 -18 -70 -40q-51 -19 -51 -49q0 -16 12.5 -26.5t29.5 -12.5q49 0 53 58h78z" />
    <glyph glyph-name="U0C1D" unicode="&#xc1d;" horiz-adv-x="884" 
d="M290.5 103.5q35.5 30.5 35.5 79.5t-33 77q-33 30 -80 30t-79 -31q-32 -29 -32 -76.5t29 -80.5q31 -29 77.5 -29t82 30.5zM626 -95h-83v90h83v-90zM403 142l14 -30q20 -38 56 -38t58 35.5t22 72.5t-21.5 73t-62.5 36h-14l-15 -1v72h16l18 2q60 0 106.5 -54t46.5 -137
q0 -22 -3 -32q17 -67 90 -67q30 0 55 35t25 72.5t-20 69.5q-24 40 -65 40h-15l-15 -1v72h18l17 2q62 0 106 -54t44 -132t-48.5 -131t-114.5 -53q-83 0 -119 60q-49 -60 -119 -60t-109 44l-9 11q-63 -54 -146 -54t-133.5 55.5t-50.5 133t61 130.5q-41 32 -41 91h87
q-4 -19 14.5 -30t40.5 -11l10 1q18 3 41 25l42 53q32 27 79 27q24 0 40 -13v-76q-19 14 -40 14q-34 0 -70 -37q43 -14 73 -45q55 -52 55 -133z" />
    <glyph glyph-name="U0C1E" unicode="&#xc1e;" horiz-adv-x="705" 
d="M371 43q-58 -49 -143.5 -49t-127 24t-41.5 67q0 78 154 98l36 2q52 0 105 -30q20 26 20 60t-12 61q-15 30 -36 30t-33.5 -18.5t-12.5 -40.5l2 -19h-95q0 73 -53 73q-28 0 -28 -36q-3 -36 20 -49h-102q-9 27 -9 42q0 46 37.5 79.5t84.5 39.5q23 0 36 -1t22 -7l39 -24
q22 21 38.5 28t49.5 7q62 0 104 -46q38 -42 38 -108h32v56h90v-54h99v-76h-90v-60h-97v60l-34 -6l-24 -41l54 -92l-69 -50zM307 87q-38 31 -79 31q-19 0 -30 -2l-25 -7q-12 -3 -16 -12l-2 -7q0 -11 17 -20t38.5 -9.5t25.5 -0.5q36 0 71 27z" />
    <glyph glyph-name="U0C1F" unicode="&#xc1f;" horiz-adv-x="521" 
d="M501 200q0 -78 -46.5 -140t-110.5 -62t-91 51q-29 -55 -91 -55t-104.5 57.5t-42.5 126.5t29.5 124t72.5 71v117h83v-110q11 -9 22.5 -17t15.5 -14q26 -32 26 -77.5t-39 -78.5t-85 -33q-37 7 -49 31q0 -57 21.5 -87.5t49 -30.5t44 24.5t16.5 49.5h80q0 -63 42 -63
q30 0 54 34.5t24 73t-23 70.5q-25 32 -59 32l-30 -2v80q14 4 29 4q87 0 131 -67q31 -51 31 -109zM191 276q0 13 -10 23t-23 12q-11 0 -21.5 -10.5t-10.5 -24.5q0 -37 32 -37q12 0 21.5 11t11.5 26z" />
    <glyph glyph-name="U0C20" unicode="&#xc20;" horiz-adv-x="427" 
d="M290.5 103.5q35.5 30.5 35.5 79.5t-33 77q-33 30 -80 30t-79 -31q-32 -29 -32 -76.5t29 -80.5q31 -29 77.5 -29t82 30.5zM35 405h87q-4 -19 14.5 -30t40.5 -11l10 1q18 3 41 25l42 53q32 27 79 27q24 0 40 -13v-76q-19 14 -40 14q-34 0 -70 -37q43 -14 73 -45
q55 -52 55 -131t-62.5 -133t-145.5 -54t-133.5 55.5t-50.5 133t61 130.5q-41 32 -41 91zM212 145q-34 0 -34 37q0 10 5 18q9 17 31 17q9 0 21.5 -7.5t12.5 -23.5t-4 -25q-9 -16 -32 -16z" />
    <glyph glyph-name="U0C21" unicode="&#xc21;" horiz-adv-x="468" 
d="M15 168q0 121 91 172l-3 4q-37 31 -37 70l1 12h84l-2 -11q0 -39 43 -39q14 0 33 15l33 37q54 63 115 63q19 0 40 -10v-79q-13 15 -44.5 15t-57.5 -27l-23 -25h97v-66h-172q-59 0 -93 -38q-29 -35 -29 -83.5t17.5 -77t48.5 -28.5q15 0 32 20q13 23 13 45l-2 15h82l-2 -17
q0 -56 46 -56q20 0 36 20t16 41t-14 34q-9 12 -24 15q-28 0 -39 -9v82q17 5 40 5t46 -16q61 -37 61 -109t-44 -115q-39 -33 -88.5 -33t-82.5 42q-31 -43 -91 -43q-85 0 -118 111q-9 31 -9 64z" />
    <glyph glyph-name="U0C22" unicode="&#xc22;" horiz-adv-x="468" 
d="M15 168q0 121 91 172l-3 4q-37 31 -37 70l1 12h84l-2 -11q0 -39 43 -39q14 0 33 15l33 37q54 63 115 63q19 0 40 -10v-79q-13 15 -44.5 15t-57.5 -27l-23 -25h97v-66h-172q-59 0 -93 -38q-29 -35 -29 -83.5t17.5 -77t48.5 -28.5q15 0 32 20q13 23 13 45l-2 15h82l-2 -17
q0 -56 46 -56q20 0 36 20t16 41t-14 34q-9 12 -24 15q-28 0 -39 -9v82q17 5 40 5t46 -16q61 -37 61 -109t-44 -115q-39 -33 -88.5 -33t-82.5 42q-31 -43 -91 -43q-85 0 -118 111q-9 31 -9 64zM276 -95h-83v90h83v-90z" />
    <glyph glyph-name="U0C23" unicode="&#xc23;" horiz-adv-x="477" 
d="M428 302q29 -55 29 -121t-27 -121q-37 -66 -107 -66q-45 0 -77.5 25.5t-32.5 72t27.5 75.5t78 29t62.5 -19q0 24 -3 42.5t-15 37.5q-17 35 -51 35q-37 0 -37 -42h-78q0 21 -19 39q-17 14 -33 14q-46 0 -46 -32q0 -14 11.5 -26t24 -12t20.5 4v-66l-9 1q-20 0 -36 -16
q-16 -18 -16 -39.5t16.5 -33t33 -11.5t24.5 4v-75q-22 -6 -43 -6q-45 0 -78 28q-31 28 -31 72q0 76 41 98q-42 23 -42 71t39 75.5t88.5 27.5t85.5 -35q30 33 96.5 33t103.5 -63zM358 96q0 15 -11 28.5t-25.5 14t-28.5 -12.5q-11 -15 -11 -28q0 -39 40 -39q36 0 36 37z" />
    <glyph glyph-name="U0C24" unicode="&#xc24;" horiz-adv-x="515" 
d="M153 190q0 29 -32 29q-12 0 -25 -8q-18 -25 0 -39q10 -8 25 -9q32 0 32 27zM395 208q0 11 -9.5 23t-21 12t-21.5 -9t-12 -23q0 -30 28 -30q36 0 36 27zM413 139q-42 -23 -73 -23t-56 23.5t-25 57t27 60.5q19 21 65 21q-18 11 -49 14l-69 3l-23 -1q-46 0 -83 29
q-20 16 -28 38.5t-8 57.5h84q-3 -5 -3 -14q0 -19 19 -30q16 -10 41.5 -10t53.5 33l46 58q32 33 77 33q19 0 39 -10v-77q-8 13 -35 13t-49 -32l-17 -22q35 -8 67 -34t40 -58q41 -40 41 -92q0 -82 -79.5 -132t-173 -50t-159.5 48q-68 52 -68 127q0 41 25 69q31 39 91 39
q39 0 63.5 -22t24.5 -57.5t-23.5 -60t-48 -24.5t-43.5 13q5 -20 49.5 -43.5t97.5 -23.5t85 16q40 17 77 63z" />
    <glyph glyph-name="U0C25" unicode="&#xc25;" horiz-adv-x="470" 
d="M343 261q-39 41 -105 41q-49 0 -95.5 -42.5t-46.5 -106.5q0 -27 13 -50.5t39 -23.5q44 0 44 82h80l-3 -32q9 -53 44 -53q28 0 41 24q20 37 20 81.5t-31 79.5zM418 381q-17 5 -48.5 5t-71.5 -30q58 -11 95 -46q57 -50 57 -143q0 -71 -43 -122t-111 -51q-32 0 -66 42
q-37 -43 -88.5 -43t-89 48.5t-37.5 116.5q0 98 68 153l18 13q-31 26 -31 87h83l-3 -13q0 -33 45 -33q24 0 49 21l37 39q18 22 35 30t52.5 8t49.5 -9v-73zM234 251q33 0 33 -35t-35 -35t-35 36q0 10 7 22t30 12zM265 -95h-82v90h82v-90z" />
    <glyph glyph-name="U0C26" unicode="&#xc26;" horiz-adv-x="470" 
d="M343 261q-39 41 -105 41q-49 0 -95.5 -42.5t-46.5 -106.5q0 -27 13 -50.5t39 -23.5q44 0 44 82h80l-3 -32q9 -53 44 -53q28 0 41 24q20 37 20 81.5t-31 79.5zM418 381q-17 5 -48.5 5t-71.5 -30q58 -11 95 -46q57 -50 57 -143q0 -71 -43 -122t-111 -51q-32 0 -66 42
q-37 -43 -88.5 -43t-89 48.5t-37.5 116.5q0 98 68 153l18 13q-31 26 -31 87h83l-3 -13q0 -33 45 -33q24 0 49 21l37 39q18 22 35 30t52.5 8t49.5 -9v-73z" />
    <glyph glyph-name="U0C27" unicode="&#xc27;" horiz-adv-x="470" 
d="M343 261q-39 41 -105 41q-49 0 -95.5 -42.5t-46.5 -106.5q0 -27 13 -50.5t39 -23.5q44 0 44 82h80l-3 -32q9 -53 44 -53q28 0 41 24q20 37 20 81.5t-31 79.5zM418 381q-17 5 -48.5 5t-71.5 -30q58 -11 95 -46q57 -50 57 -143q0 -71 -43 -122t-111 -51q-32 0 -66 42
q-37 -43 -88.5 -43t-89 48.5t-37.5 116.5q0 98 68 153l18 13q-31 26 -31 87h83l-3 -13q0 -33 45 -33q24 0 49 21l37 39q18 22 35 30t52.5 8t49.5 -9v-73zM265 -95h-82v90h82v-90z" />
    <glyph glyph-name="U0C28" unicode="&#xc28;" horiz-adv-x="479" 
d="M389 324q70 -56 70 -140t-53 -137.5t-117 -53.5q-46 0 -79 30t-33 79l1 21l3 23q0 36 -28 36q-25 0 -38 -18.5t-13 -43.5q0 -59 73 -119h-98q-15 7 -35.5 37.5t-20.5 67.5q0 62 36.5 102t98.5 40q101 0 101 -125q0 -48 41 -48q32 0 55 35t23 64q0 110 -113 110l-53 -2
l-44 -2q-151 0 -151 123h78q-3 -17 13 -34.5t37 -17.5q35 0 58 30l47 61q35 30 93 30h41v-85q-16 8 -41 8q-50 0 -77 -44l27 3q62 0 98 -30z" />
    <glyph glyph-name="U0C2A" unicode="&#xc2a;" horiz-adv-x="485" 
d="M419 306q46 -56 46 -130t-44.5 -128.5t-112.5 -54.5q-51 0 -84 36q-30 -36 -90.5 -36t-90.5 38q-28 32 -28 79.5t32 80.5q34 42 103 42q49 0 84.5 -39t35.5 -88q11 -32 43 -32t52 30.5t20 68.5q0 109 -106 109v83q46 0 79 -13.5t61 -45.5zM174 80q14 13 14 33t-15 33
q-11 15 -33 15q-44 0 -44 -47t44 -47q20 0 34 13zM341 424q-8 4 -23 4q-29 0 -53 -26l-48 -56q-41 -39 -106 -39q-42 0 -68 26q-27 23 -27 62h80q0 -26 30 -26t55 35l43 62q32 35 84 35q19 0 33 -9v-68z" />
    <glyph glyph-name="U0C2B" unicode="&#xc2b;" horiz-adv-x="485" 
d="M419 306q46 -56 46 -130t-44.5 -128.5t-112.5 -54.5q-51 0 -84 36q-30 -36 -90.5 -36t-90.5 38q-28 32 -28 79.5t32 80.5q34 42 103 42q49 0 84.5 -39t35.5 -88q11 -32 43 -32t52 30.5t20 68.5q0 109 -106 109v83q46 0 79 -13.5t61 -45.5zM174 80q14 13 14 33t-15 33
q-11 15 -33 15q-44 0 -44 -47t44 -47q20 0 34 13zM264 -94h-82v89h82v-89zM341 424q-8 4 -23 4q-29 0 -53 -26l-48 -56q-41 -39 -106 -39q-42 0 -68 26q-27 23 -27 62h80q0 -26 30 -26t55 35l43 62q32 35 84 35q19 0 33 -9v-68z" />
    <glyph glyph-name="U0C2C" unicode="&#xc2c;" horiz-adv-x="489" 
d="M425.5 310q43.5 -52 43.5 -132t-49 -130.5t-124 -50.5q-21 0 -38 10q-3 1 -27 27q-42 -39 -98.5 -39t-85.5 34q-30 29 -30 77q0 83 92 113l39 11q18 9 18 29q0 32 -35 32q-48 0 -48 -48h-68q0 119 121 119q46 0 74.5 -27.5t28.5 -74t-37 -72.5l-68 -30q-36 -17 -36 -47
q0 -15 12.5 -27t34.5 -12q38 0 46 34q1 6 1 15t-2 18h80v-19q0 -22 18.5 -33.5t35.5 -13.5q31 0 52.5 35.5t21.5 73t-23.5 71.5t-60.5 34q-13 0 -29 -7v80l33 2q64 0 107.5 -52z" />
    <glyph glyph-name="U0C2D" unicode="&#xc2d;" horiz-adv-x="501" 
d="M286 413l-3 -12q0 -13 9 -23q21 -27 51 10q13 18 22.5 28t16.5 18q28 25 63 25q14 0 33 -9l3 -4v-58q-5 -5 -7 -5l-16 9q-2 1 -17 5q-19 0 -40 -28l-19 -20q87 -57 87 -174q0 -77 -49 -127.5t-124 -50.5q-21 0 -38 10q-3 1 -27 27q-42 -39 -98.5 -39t-85.5 34
q-30 29 -30 77q0 83 92 113l39 11q18 9 18 29q0 32 -35 32q-48 0 -48 -48h-68q0 119 121 119q46 0 74.5 -27.5t28.5 -74t-37 -72.5l-68 -30q-36 -17 -36 -47q0 -15 12.5 -27t34.5 -12q38 0 46 34q1 6 1 15t-2 18h80v-19q0 -22 18.5 -33.5t35.5 -13.5q31 0 52.5 35.5
t21.5 75.5q0 71 -55 107q-16 12 -50 15l-8 3q-28 3 -47 25q-25 26 -25 74v5h73zM265 -95h-82v90h82v-90z" />
    <glyph glyph-name="U0C2E" unicode="&#xc2e;" horiz-adv-x="683" 
d="M187 114q0 54 -42 54q-51 0 -51 -45q0 -52 43 -52q18 0 34 12.5t16 30.5zM398 32q-40 -40 -111 -40q-51 0 -77 37q-24 -35 -81 -35q-41 0 -72 30q-41 33 -41 89t37.5 90t89 34t88.5 -33t37 -100q14 -28 31 -28q32 0 51.5 30t19.5 64q0 51 -34.5 85t-85.5 34
q-19 0 -56.5 -6.5t-58.5 -6.5q-52 0 -87 34q-19 17 -26 39t-7 54h81q-2 -17 9 -33t38.5 -16t59.5 34l56 67q38 35 87 35q22 0 31 -4v-87q-24 14 -39 15q-45 0 -71 -52q181 0 181 -214v-9l8 -22q20 -43 60 -43q30 0 52.5 35.5t22.5 72.5t-18 69q-26 40 -64 40l-31 -1v72l34 2
q64 0 107.5 -53t43.5 -131.5t-49 -132t-113.5 -53.5t-102.5 38z" />
    <glyph glyph-name="U0C2F" unicode="&#xc2f;" horiz-adv-x="923" 
d="M293 101q38 30 38 80.5t-35 81t-82 30.5t-81 -31.5t-34 -80t29 -81.5q33 -30 81.5 -30t83.5 31zM854.5 47q-48.5 -53 -117.5 -53t-108 49q-47 -49 -112 -49q-97 0 -146 87q-63 -86 -167 -86q-88 0 -138.5 55.5t-50.5 133t62 130.5t139.5 53t131.5 -51q59 -55 59 -125
q26 -62 45 -84q27 -33 67.5 -33t65.5 37q23 30 23 70.5t-20 69.5q-22 39 -65 39l-71 2h-7q-46 0 -82 29q-37 30 -37 95h84q-2 -4 -2 -13q0 -20 18.5 -30.5t37.5 -10.5q30 0 57 33l47 59q30 32 76 32q19 0 40 -9v-77q-9 13 -36 13t-49 -32l-21 -27q33 -15 57 -45
q44 -53 44 -134l-1 -26q5 -13 11 -22t6 -10q21 -43 56 -43t58 37q21 31 21 71t-19 69q-24 40 -63 40l-30 -1v72l33 2q64 0 108 -54t44 -132t-48.5 -131z" />
    <glyph glyph-name="U0C30" unicode="&#xc30;" horiz-adv-x="427" 
d="M290.5 103.5q35.5 30.5 35.5 79.5t-33 77q-33 30 -80 30t-79 -31q-32 -29 -32 -76.5t29 -80.5q31 -29 77.5 -29t82 30.5zM35 405h87q-4 -19 14.5 -30t40.5 -11l10 1q18 3 41 25l42 53q32 27 79 27q24 0 40 -13v-76q-19 14 -40 14q-34 0 -70 -37q43 -14 73 -45
q55 -52 55 -131t-62.5 -133t-145.5 -54t-133.5 55.5t-50.5 133t61 130.5q-41 32 -41 91z" />
    <glyph glyph-name="U0C31" unicode="&#xc31;" horiz-adv-x="514" 
d="M463 304q31 -53 31 -128t-41.5 -128t-106.5 -53t-104 44q-14 -44 -100 -44q-55 0 -91 46t-36 119t30 134q36 75 105 75q32 0 58 -22.5t26 -53.5q0 -49 -26 -80h50q-9 24 -9 45q0 46 29.5 76.5t75.5 30.5q69 0 109 -61zM148 177q-8 -6 -20.5 -6t-22.5 7l-4 -29
q0 -32 15.5 -60t47.5 -28q45 0 45 58h87v-16q0 -34 41 -34t61 36t20 79t-17 72q-19 36 -52 36q-30 0 -30 -32.5t37 -44.5v-76h-208v38zM146 240q27 0 27 31.5t-27 31.5q-29 0 -29 -31.5t29 -31.5z" />
    <glyph glyph-name="U0C32" unicode="&#xc32;" horiz-adv-x="471" 
d="M451 186q0 -91 -66.5 -142.5t-152.5 -51.5q-108 0 -165 62q-52 55 -52 143q0 71 35 119q36 46 108 46q39 0 62 -29q25 -27 25 -69t-28 -71t-64.5 -29t-59.5 20q0 -58 44 -89q39 -25 95.5 -25t98.5 25q48 32 48 92.5t-26 81.5t-66 22v67q27 9 55 -2t51 -31q58 -48 58 -139
zM177 266q0 13 -9 27q-10 13 -25.5 13t-23.5 -7.5t-10 -27.5q0 -42 31 -42q33 0 37 37z" />
    <glyph glyph-name="U0C33" unicode="&#xc33;" horiz-adv-x="479" 
d="M302 118q0 38 -81 38q-21 0 -29.5 -1.5t-23.5 -8.5q-28 -12 -28 -37q0 -50 77 -50q32 0 54 15q31 16 31 44zM131 293q0 12 -8.5 20t-20.5 8q-26 -4 -26 -32q0 -24 29 -24q30 3 26 28zM269 309l-9 -2q-41 0 -69.5 27t-28.5 66l2 13v2h80v-3l-1 -17q0 -27 24 -27
q15 0 59 48q29 36 47 48q23 17 45.5 17t40.5 -7v-79q-13 15 -32 15t-29 -9q-2 -2 -20 -22l-18 -19q18 -7 30.5 -27.5t12.5 -52.5q0 -44 -62 -87q27 -20 27 -64.5t-22 -74.5q-45 -61 -136 -61q-62 0 -102 29t-40 82.5t42 81.5q-38 7 -63 33q-32 28 -32 73q0 83 88 83
q36 0 57 -19.5t21 -47.5t-5.5 -40.5t-32.5 -31.5q33 -20 75 -20t82.5 17.5t40.5 42.5q0 33 -43 33h-29z" />
    <glyph glyph-name="U0C34" unicode="&#xc34;" horiz-adv-x="509" 
d="M146 240q27 0 27 31.5t-27 31.5q-29 0 -29 -31.5t29 -31.5zM358 240q29 0 29 31.5t-29 31.5q-27 0 -27 -31.5t27 -31.5zM253 51q-25 -56 -111 -56q-55 0 -91 46t-36 119t30 134q36 75 105 75q32 0 58 -22.5t26 -53.5q0 -49 -22 -79.5t-51.5 -36.5t-55.5 1q-17 -43 5 -80
t54 -37q45 0 45 58h87q0 -58 45 -58q32 0 54 37t4 80q-25 -7 -55 -1t-52 36.5t-22 79.5q0 31 26 53.5t58 22.5q69 0 105 -75q30 -61 30 -134t-35.5 -119t-90.5 -46q-87 0 -110 56z" />
    <glyph glyph-name="U0C35" unicode="&#xc35;" horiz-adv-x="468" 
d="M448 148q0 -70 -52 -118q-43 -38 -109 -38q-51 0 -77 37q-24 -35 -81 -35q-41 0 -72 30q-41 33 -41 89t37.5 90t89 34t88.5 -33t37 -100q14 -28 31 -28q32 0 51.5 30t19.5 64q0 51 -34.5 85t-85.5 34q-19 0 -56.5 -6.5t-58.5 -6.5q-52 0 -87 34q-19 17 -26 39t-7 54h81
q-2 -17 9 -33t38.5 -16t59.5 34l56 67q38 35 87 35q22 0 31 -4v-87q-24 14 -39 15q-45 0 -71 -52q181 0 181 -214zM187 114q0 54 -42 54q-51 0 -51 -45q0 -52 43 -52q18 0 34 12.5t16 30.5z" />
    <glyph glyph-name="U0C36" unicode="&#xc36;" horiz-adv-x="451" 
d="M343 130q0 26 -21 45.5t-47 19.5t-44.5 -19t-18.5 -46.5t21 -46.5t46 -19q64 0 64 66zM298 267q18 -1 33 -9q14 4 15 21q0 30 -38 30h-66l-19 -2q-40 0 -68.5 27t-28.5 66v13l2 2h77l3 -3l-2 -17q0 -27 25 -27q16 0 58 48q49 59 103 59q20 0 39 -9v-78q-14 14 -41 14
t-48 -23l-13 -14h16q28 0 51.5 -25t23.5 -55q0 -16 -12 -35l-23 -27q10 -21 24 -37q15 -24 15 -56q0 -61 -43.5 -99t-112 -38t-109.5 41q-33 36 -33 80t29 86q-63 0 -63 -74q0 -29 13 -45h-82q-8 12 -8 41q0 70 60 106.5t162 36.5l32 2h29z" />
    <glyph glyph-name="U0C37" unicode="&#xc37;" horiz-adv-x="515" 
d="M459 116q-9 -63 -9 -101q0 -79 45 -95q-63 -36 -89 -36q-32 26 -32 93v22q3 13 4 18l-31 -15q-21 -9 -49 -9q-61 0 -81 41q-29 -39 -81.5 -39t-86.5 38.5t-34 90t37 89t99 37.5q79 0 115 -98q9 -23 9 -46q14 -30 39.5 -30t48.5 30q22 31 22 67.5t-16 62.5q-20 35 -53 35
h-27v85q9 4 34 4q59 0 96 -47q40 -55 40 -158v-39zM186 127q0 47 -40 47q-44 0 -44 -47.5t44 -47.5q10 0 25 16t15 32zM343 424q-8 4 -22 4q-30 0 -54 -26l-47 -56q-42 -39 -107 -39q-42 0 -68 26q-27 23 -27 62h81q0 -26 29.5 -26t54.5 35l44 62q31 35 83 35q20 0 33 -9
v-68z" />
    <glyph glyph-name="U0C38" unicode="&#xc38;" horiz-adv-x="489" 
d="M421.5 310.5q47.5 -49.5 47.5 -121t-33 -122.5q-45 -75 -129 -75q-68 0 -97 44q-7 12 -27 82q-14 44 -45 44q-36 0 -36 -51q0 -38 21 -68l35 -48h-99q-44 56 -44 109.5t32.5 94.5t105.5 41q55 0 85 -43l32 -79q17 -44 45 -44t54 30q24 33 24 72t-25.5 70t-60.5 31l-20 -4
v87q87 0 134.5 -49.5zM341 424q-8 4 -23 4q-29 0 -53 -26l-48 -56q-41 -39 -106 -39q-42 0 -68 26q-27 23 -27 62h80q0 -26 30 -26t55 35l43 62q32 35 84 35q19 0 33 -9v-68z" />
    <glyph glyph-name="U0C39" unicode="&#xc39;" horiz-adv-x="751" 
d="M342 424q-8 4 -23 4q-29 0 -53 -26l-47 -56q-42 -39 -107 -39q-42 0 -68 26q-27 23 -27 62h81q0 -26 29.5 -26t54.5 35l43 62q32 35 84 35q20 0 33 -9v-68zM638 168q0 29 -34.5 29t-34.5 -31q0 -36 33 -36q36 0 36 38zM174 80q14 13 14 33t-14 34t-34 14q-45 0 -45 -47
t45 -47q20 0 34 13zM433 294q33 -52 33 -137q0 -57 -45.5 -110.5t-119.5 -53.5q-46 0 -77 36q-32 -36 -92 -36t-88.5 35t-28.5 83.5t31 79.5q36 42 103 42q49 0 85 -39t36 -88q9 -27 40 -27h11q23 0 45 29t22 62.5t-20 74.5q-26 49 -63 49h-28v72h208q127 0 153 -10
q93 -36 93 -155q0 -56 -40 -102.5t-100 -46.5q-41 0 -71.5 30t-30.5 75.5t30.5 76.5t87.5 31l36 -4q-17 21 -47 27t-100 6h-63z" />
    <glyph glyph-name="U0C3d" unicode="&#xc3d;" horiz-adv-x="655" 
d="M70 386q45 27 126 27t133.5 -40.5t52.5 -106.5q0 -55 -60.5 -94t-145.5 -39q-28 0 -47.5 -11t-19.5 -25t14 -22t34 -8h478v-72h-490q-54 0 -91 29q-39 27 -39 69t45 73q46 29 105.5 29t98.5 20.5t39 50.5q0 18 -11.5 34.5t-32.5 25.5q7 -38 -30 -68.5t-87 -30.5t-83 25
q-33 27 -33 67t44 67zM121 294q13 -10 29 -10t27 10.5t11 25t-11 25t-27 10.5t-28.5 -10.5t-12.5 -25t12 -25.5z" />
    <glyph glyph-name="U0C3E" unicode="&#xc3e;" horiz-adv-x="559" 
d="M304 81q-30 33 -30 78.5t35.5 77t87.5 31.5q24 0 43 -11.5t26 -23.5q0 37 -31.5 56.5t-72.5 19.5h-565v79h569q81 0 131 -61q41 -51 41 -112q0 -78 -30 -122q-34 -52 -101.5 -52t-102.5 40zM430 196q-11 11 -28.5 11t-28.5 -13t-11 -30.5t14 -28t31 -10.5t27.5 12t10 30
t-14.5 29z" />
    <glyph glyph-name="U0C3F" unicode="&#xc3f;" horiz-adv-x="0" 
d="M64 520l2 -12q0 -41 -36 -64q-29 -19 -69.5 -19t-65.5 28q-23 22 -23 55t34 61.5t93 28.5q83 0 127 -44q37 -39 37 -94t-45.5 -100t-116.5 -45q-96 0 -136 46l39 52q33 -35 103 -35q33 0 60 26q29 26 29 56q0 44 -32 60zM-46.5 488.5q10.5 -9.5 26 -9.5t25.5 9.5t10 21.5
t-10 22t-25.5 10t-26 -10.5t-10.5 -22t10.5 -21z" />
    <glyph glyph-name="U0C40" unicode="&#xc40;" horiz-adv-x="0" 
d="M52 657q-40 0 -40 -43q0 -6 7 -16q59 -7 100 -46q38 -41 38 -97t-47 -97.5t-115 -41.5q-96 0 -136 46l39 52q35 -35 103 -35q33 0 60 26q29 26 29 56q0 42 -32 60l2 -12q0 -34 -27 -59q-30 -24 -72.5 -24t-68.5 23t-26 56t23.5 57t60.5 33q-7 15 -7 36q0 37 28 61
q31 24 82.5 24t80.5 -26q26 -27 26 -79h-73q0 20 -10 33q-11 13 -25 13zM-53 490q10 -10 25 -10t23 9q9 8 9 21.5t-9 22.5q-8 10 -23 10t-25 -10t-10 -22.5t10 -20.5z" />
    <glyph glyph-name="U0C41" unicode="&#xc41;" horiz-adv-x="231" 
d="M52 378q68 0 113 -54.5t45 -138.5t-43.5 -137.5t-121 -53.5t-115.5 46q-23 28 -29 62q0 49 32 67l3 2h12q3 -38 31 -66q27 -25 66 -25t64.5 31t25.5 74.5t-24.5 80.5t-68.5 37q-14 0 -24 -1v75z" />
    <glyph glyph-name="U0C42" unicode="&#xc42;" horiz-adv-x="520" 
d="M-64 177q6 4 13 4.5t7 -3.5q0 -44 22.5 -71t66.5 -27t67 33.5t23 77.5t-19 75q-25 37 -69 37q-19 0 -29 -1v76h311q81 0 126.5 -52.5t45.5 -111.5q0 -76 -35 -125t-99 -49t-100 40q-29 32 -29 78t35 77.5t86 31.5q23 0 46 -15q17 -9 23 -20q0 37 -31 55.5t-71 18.5h-150
q34 -54 34 -129.5t-43.5 -129t-121.5 -53.5t-116 45q-28 32 -28 65.5t9 48.5t26 24zM365 123q41 0 41 41q0 17 -14 29t-31 12t-30.5 -12t-13.5 -30.5t16 -29t32 -10.5z" />
    <glyph glyph-name="U0C43" unicode="&#xc43;" horiz-adv-x="275" 
d="M187 133q59 -50 79.5 -147t-26.5 -158.5t-102.5 -68t-107.5 19.5q-56 30 -69 92q-8 36 15.5 74.5t65.5 47.5q56 12 87 -29q8 -10 11 -26q13 -64 -52 -102q23 -7 43 -4q40 9 58 53.5t5 104t-48 86.5q-26 21 -55 15q-10 -2 -15 -6v78q57 12 111 -30zM80 -82q-5 21 -28 15
q-22 -5 -16 -26q4 -21 26 -18q23 6 18 29z" />
    <glyph glyph-name="U0C44" unicode="&#xc44;" horiz-adv-x="490" 
d="M385 34q-29 0 -29 -27.5t27.5 -27.5t27.5 27.5t-26 27.5zM82 -82q-4 21 -27 15q-22 -5 -17 -26t27 -18q23 6 17 29zM126 166h164q104 0 121 -7q75 -30 75 -123q0 -45 -32.5 -82t-78.5 -37q-32 0 -58 22q-24 25 -24 61.5t24.5 60.5t68.5 24l31 -3q-15 19 -37.5 23t-80.5 4
h-74q-4 -1 -7 -1q38 -46 55 -121q20 -96 -28.5 -157.5t-101.5 -63.5q-55 -12 -109 16t-67 90q-8 36 15.5 74.5t65 47.5t67.5 -9q25 -20 31 -46q13 -64 -53 -102q23 -7 43 -4q40 9 58 53.5t5.5 104t-47.5 87.5q-26 20 -55 14q-10 -2 -15 -6v78q22 5 44 2z" />
    <glyph glyph-name="U0C46" unicode="&#xc46;" horiz-adv-x="0" 
d="M152 342q-34 -33 -89 -33h-172v69h163q21 0 37 10.5t16 29.5t-12.5 26.5t-38.5 7.5h-255v68h292q39 0 66 -27.5t27 -72.5t-34 -78z" />
    <glyph glyph-name="U0C47" unicode="&#xc47;" horiz-adv-x="0" 
d="M154 344q-34 -35 -88 -35h-175v69h169q18 0 31 9.5t13 28.5t-11.5 26.5t-36.5 7.5h-256v69h244l-1 30q0 42 40 70q36 27 77 27q58 0 91 -34q32 -36 32 -103h-83v21q0 14 -7 26q-11 19 -31.5 19t-32 -12t-11.5 -32l1 -16q29 -10 46 -35q19 -25 19 -64t-30 -72z" />
    <glyph glyph-name="U0C48" unicode="&#xc48;" horiz-adv-x="587" 
d="M416 384q46 0 46 31q0 21 -12.5 29t-36.5 8h-369v68h405q38 0 65.5 -27.5t27.5 -72t-34.5 -74.5t-89.5 -30h-172v68h170zM158 -250q-45 0 -77 27q-34 31 -34 70.5t31.5 66t69 26.5t62.5 -23.5t25 -51.5t-8 -43h315v-72h-384zM125 -133q-6 -6 -6 -15.5t10 -17t19 -7.5
t13.5 7t4.5 17t-7 16t-16.5 6t-17.5 -6z" />
    <glyph glyph-name="U0C4A" unicode="&#xc4a;" horiz-adv-x="553" 
d="M306 327q33 31 80.5 31t67.5 -22q0 36 -25 60.5t-56 24.5t-55 -19q-24 -21 -24 -51h-84q0 47 -43 79.5t-95.5 32.5t-84.5 -13q-30 -14 -30 -30.5t8 -27t31 -14.5h21v-69h-29q-57 7 -88 46q-26 31 -26 62q0 48 54.5 81t130 33t130 -23t74.5 -63q16 26 46 40.5t62 14.5
q88 0 131 -78q30 -53 30 -122.5t-31 -114.5q-34 -52 -108 -52q-61 0 -90 34.5t-29 81.5t32 78zM395 295q-17 0 -28.5 -12.5t-11.5 -30t13.5 -28t32 -10.5t28 12t9 30t-13 28.5t-29.5 10.5z" />
    <glyph glyph-name="U0C4B" unicode="&#xc4b;" horiz-adv-x="578" 
d="M334 496q-15 17 -15 55t33 67q34 28 87 28t85.5 -31t32.5 -90h-84q0 22 -11 37q-12 14 -29.5 14t-28.5 -11.5t-11 -25.5q0 -19 12 -43q57 -15 91 -68q36 -51 36 -125.5t-38 -121.5q-36 -48 -100 -48q-50 0 -84.5 33.5t-34.5 80t33.5 79t82.5 32.5q20 0 37 -5
q16 -7 27 -17q0 35 -24 61q-24 24 -57 24t-56 -20.5t-23 -49.5h-85q0 47 -53 79q-52 33 -127 33q-32 0 -56 -13q-23 -14 -23 -29.5t11 -28.5q11 -11 28 -14h27v-69h-46q-45 6 -74 37t-29 75t46 77q48 33 112 33q88 0 152.5 -23t85.5 -63q11 18 29 31q17 14 41 20zM369 283
q-14 -12 -14 -29t13.5 -28.5t31 -11.5t28.5 11.5t10.5 29t-12.5 29t-29 11.5t-28 -12z" />
    <glyph glyph-name="U0C4C" unicode="&#xc4c;" horiz-adv-x="562" 
d="M70 378q12 0 21 9.5t9 25.5t-19 31h-251v80h542q80 0 128 -67q41 -56 41 -123.5t-35 -120.5t-102 -53t-101 39q-30 33 -30 78.5t37 73.5q33 27 85 27q51 0 71 -27q-9 42 -36 70q-29 28 -65 28h-204q9 -5 13 -21q6 -13 6 -30q0 -38 -25 -64q-27 -25 -63 -25h-216v69h194z
M443 283q-2 37 -43 37q-18 0 -29.5 -11t-11.5 -28.5t14 -28.5t32 -11t28 15q10 11 10 27z" />
    <glyph glyph-name="U0C4D" unicode="&#xc4d;" horiz-adv-x="1" 
d="M-113 453q-57 27 -57 78q0 40 27.5 69.5t69.5 29.5h288v-76h-263q-12 0 -23 -8.5t-11 -20.5t12 -21q10 -6 22 -6h164v-73h-152q-10 0 -18.5 -7t-8.5 -17.5t7 -17.5q8 -5 17 -5h144v-69h-173q-36 0 -61.5 24t-25.5 57q0 15 14 35q13 22 28 28z" />
    <glyph glyph-name="U0C55" unicode="&#xc55;" horiz-adv-x="207" 
d="M76 552q0 -23 8 -31l-67 -12q-15 21 -17 56q0 39 30.5 69.5t68 30.5t68.5 -15t40 -47l-53 -45q-2 12 -14 21q-11 10 -24 10q-40 0 -40 -37z" />
    <glyph glyph-name="U0C56" unicode="&#xc56;" horiz-adv-x="0" 
d="M162 -84q25 -22 25 -52.5t-8 -41.5h258v-72h-326q-46 0 -78.5 28.5t-32.5 68.5t31.5 66.5t69 26.5t61.5 -24zM114 -164q5 5 5 15t-7 16t-16.5 6t-18 -6t-8.5 -15.5t10.5 -17t20.5 -7.5t14 9zM88 -244z" />
    <glyph glyph-name="U0C58" unicode="&#xc58;" horiz-adv-x="593" 
d="M425 362q52 -4 95 -47q53 -50 53 -129.5t-45 -135t-118.5 -55.5t-87.5 41q-32 -42 -91 -42t-97.5 40.5t-38.5 94.5q0 38 18 55h-98v77h226v-61q-53 -12 -53 -59q0 -24 13 -45q15 -18 38 -18q44 0 44 61l-3 24h97l-3 -33q0 -59 45 -59q35 0 53.5 37t18.5 74q0 79 -66 101
q-36 10 -124 10h-13q-49 0 -83 30q-38 30 -38 94h85q-3 -4 -3 -12q0 -21 19 -32q9 -4 29 -8h15q28 3 50 32l47 59q32 31 77 31q19 0 39 -9v-77q-8 13 -39 13q-22 0 -45 -31zM491 662.5q29 -25.5 29 -61.5t-31.5 -62.5t-73.5 -26.5h-338v63h281q-12 16 -12 42t23.5 48.5
t58 22.5t63.5 -25.5zM458 606q0 25 -25 25t-25 -26.5t15.5 -26.5t24.5 9q10 6 10 19z" />
    <glyph glyph-name="U0C59" unicode="&#xc59;" horiz-adv-x="485" 
d="M436 596.5q29 -25.5 29 -61.5t-31.5 -62.5t-73.5 -26.5h-338v63h281q-12 16 -12 42t23.5 48.5t58 22.5t63.5 -25.5zM403 540q0 25 -25 25t-25 -26.5t15.5 -26.5t24.5 9q10 6 10 19zM290 111q0 -39 36 -43q16 0 30 12q12 13 12 29.5t-4 20.5l-7 12h91q4 -19 3 -36
q0 -44 -33 -77t-93 -33q-56 -6 -92 40q-35 -42 -83.5 -42t-86.5 34q-36 35 -36 86.5t41 74.5l72 26q40 13 40 45q0 35 -34 35q-42 0 -42 -55h-89q0 52 44.5 91.5t94 39.5t79.5 -33q3 -2 35 -58q19 -32 45 -32q17 0 30.5 10t13.5 26q0 32 -39 32q-15 0 -25 -3l-14 -7v80
q78 0 101 -8q65 -21 65 -89q0 -50 -43 -78q-36 -29 -79 -29t-82 18q-8 -18 -70 -40q-51 -19 -51 -49q0 -16 12.5 -26.5t29.5 -12.5q49 0 53 58h78z" />
    <glyph glyph-name="U0C60" unicode="&#xc60;" horiz-adv-x="1193" 
d="M1082 169q0 21 -7.5 29.5t-33.5 8.5q-33 0 -33 -41t33 -41q16 0 27.5 13.5t13.5 30.5zM864 47.5q-49 -53.5 -118 -53.5t-108 49q-47 -49 -114 -49t-102 44l-5 7q-48 -48 -121 -48q-21 0 -38 10q-3 1 -27 27q-42 -39 -98.5 -39t-85.5 34q-30 29 -30 77q0 83 92 113l39 11
q18 9 18 29q0 32 -35 32q-48 0 -48 -48h-68q0 119 121 119q46 0 74.5 -27.5t28.5 -74t-37 -72.5l-68 -30q-36 -17 -36 -47q0 -15 12.5 -27t34.5 -12q38 0 46 34q1 6 1 15t-2 18h80v-19q0 -22 18.5 -33.5t35.5 -13.5q31 0 52.5 35.5t21.5 73t-23.5 71.5t-60.5 34
q-13 0 -29 -7v80l33 2q64 0 107.5 -52t43.5 -135v-12l15 -46q19 -43 55 -43t58 35t22 73.5t-19 68.5q-24 40 -65 40l-29 -1v72l34 2q64 0 107 -54t43 -135v-9q13 -42 17 -49q19 -43 54.5 -43t58 35.5t22.5 72.5t-20 69q-24 40 -64 40h-30v73l305 1q72 0 112 -61
q28 -44 28 -89q0 -64 -38.5 -109.5t-95.5 -45.5q-38 0 -70 31t-32 75t30.5 73t74.5 29q19 0 36 -6q-11 21 -29 26l-49 3h-118q31 -51 31 -120.5t-49 -123z" />
    <glyph glyph-name="U0C61" unicode="&#xc61;" horiz-adv-x="852" 
d="M739 107q0 32 -34 32t-34 -34t33 -34q35 0 35 36zM546 235l1 -35q0 -86 -47 -146t-137.5 -60t-123.5 57q-22 36 -22 107q0 81 95 109q52 13 52 57.5t-43 44.5q-20 0 -41 -15q-18 -18 -20 -36v-27h-76l-1 41q0 10 -13.5 22t-31.5 14q-18 0 -34 -14q-14 -19 -14 -40
q0 -42 36 -42q19 0 28 4v-79q-82 0 -105 25q-34 36 -34 89.5t42 92.5t86 39q74 0 93 -45q1 16 26.5 31t67 15t78.5 -31t37 -84q0 -100 -87 -119q-29 -8 -46.5 -23.5t-17.5 -33.5q0 -33 7 -49q15 -35 66 -35t76 43q19 30 19 60v63l-3 71h127q131 0 153 -10q93 -36 93 -154
q0 -57 -40 -103t-99 -46q-39 0 -71 29.5t-32 75.5t31 76t87 30l39 -3q-20 23 -47.5 28.5t-102.5 5.5h-51z" />
    <glyph glyph-name="U0C62" unicode="&#xc62;" horiz-adv-x="3" 
d="M-39 -157q0 -56 -25.5 -93.5t-80 -37.5t-73.5 34q-13 21 -13 65.5t55 61.5q31 8 31 32q0 27 -26 27q-11 0 -24 -8q-4 -6 -7.5 -11t-3.5 -10v-17h-45v24q0 6 -8 13t-18 9q-11 0 -20 -8q-9 -11 -9 -24q0 -25 21 -25q11 0 16 2v-45q-47 0 -61 13q-20 22 -20 53.5t25 54
t50 22.5q44 0 55 -26q1 10 14 19q17 8 41 8t45.5 -18t21.5 -49q0 -58 -51 -70q-17 -5 -27 -14t-10 -24q0 -45 41 -45q32 0 46 26q11 17 11 35v26h49z" />
    <glyph glyph-name="U0C63" unicode="&#xc63;" horiz-adv-x="132" 
d="M70 -219q0 18 -18 18q-21 0 -21 -19.5t18 -19.5q21 0 21 21zM-42 -145l1 -21q0 -49 -26 -83q-29 -35 -81 -35t-72 33q-12 21 -12 61q0 48 55 64q29 8 29 33.5t-25 25.5q-20 0 -31 -19q-3 -5 -4 -10v-17h-44v24q0 6 -8 13q-20 16 -38 0q-9 -10 -9 -22q0 -26 22 -26
q10 0 15 2v-45q-47 0 -60 15q-20 21 -20 51.5t24 53t50 22.5q44 0 55 -25q0 9 13 18q16 8 40.5 8t46 -18t21.5 -48q0 -58 -51 -70q-17 -4 -27 -13t-10 -24q0 -44 40 -44q31 0 47 25q11 17 11 35v36l-1 41h72q76 0 89 -5q54 -21 54 -90q0 -33 -23 -59.5t-51.5 -26.5t-47.5 17
q-18 17 -18 44t18 44t51 17l22 -1q-11 13 -27 16t-60 3h-30z" />
    <glyph glyph-name="U0C66" unicode="&#xc66;" horiz-adv-x="417" 
d="M328 319q56 -56 56 -137t-55 -139.5t-137.5 -58.5t-137.5 58q-54 58 -54 139.5t56 137.5t136 56t136 -56zM308 183q0 47 -34.5 81.5t-81.5 34.5t-81 -34.5t-34 -81.5t33.5 -77.5t81.5 -30.5t82 30.5t34 77.5z" />
    <glyph glyph-name="U0C67" unicode="&#xc67;" horiz-adv-x="431" 
d="M399 172q0 -110 -75 -184l-60 49q58 59 58 135q0 50 -36.5 88.5t-86 38.5t-86 -38.5t-36.5 -88.5q0 -76 58 -135l-60 -49q-75 74 -75 184q0 85 57.5 144t142 59t142 -59t57.5 -144z" />
    <glyph glyph-name="U0C68" unicode="&#xc68;" horiz-adv-x="496" 
d="M400 316q55 -55 55 -134.5t-53.5 -136.5t-134.5 -57h-267v83h267q52 0 86 30.5t34 81.5t-30 76q-6 -29 -31 -51.5t-61 -22.5t-63.5 27.5t-27.5 66t27.5 65.5t65.5 27q78 0 133 -55zM305 293q-13 10 -30.5 10t-24.5 -7.5t-7 -17.5t7 -17t17 -7q33 0 38 39z" />
    <glyph glyph-name="U0C69" unicode="&#xc69;" horiz-adv-x="345" 
d="M278 183q27 -15 27 -74.5t-49 -92.5q-41 -28 -103 -28t-104 29q-49 33 -49 98h69q0 -44 83.5 -44t83.5 38.5t-36 38.5h-89v69h89q17 0 26.5 11t9.5 28q0 25 -29 37q-22 10 -54 10t-58 -11.5t-26 -40.5h-69q0 63 51 95q42 25 102 25t101 -25q51 -31 51 -87.5t-27 -75.5z
" />
    <glyph glyph-name="U0C6A" unicode="&#xc6a;" horiz-adv-x="464" 
d="M423 286q0 -56 -39 -102t-88 -59q8 -13 8 -37q0 -43 -25 -71.5t-68.5 -28.5t-67.5 27.5t-24 72.5q0 26 7 37q-48 13 -87 59t-39 102q0 35 25 60t66 25l10 -61q-15 0 -22.5 -7t-7.5 -17q0 -49 53 -79q45 -27 89 -27t88 27q51 30 51 79q0 10 -7 17t-22 7l10 61q40 0 65 -25
t25 -60zM236 88q0 10 -7 17t-17 7t-17.5 -7t-7.5 -17t7.5 -17t17.5 -7t17 7t7 17z" />
    <glyph glyph-name="U0C6B" unicode="&#xc6b;" horiz-adv-x="443" 
d="M316 233q11 15 11 44q0 50 -17 50q-11 0 -15 -9q-7 -9 -7 -25t7 -33.5t21 -26.5zM365 192q32 -38 32 -84t-36 -83q-37 -35 -85 -35h-6v55q23 -3 40 15q18 21 18 47q0 10 -2 19q2 -5 -8 8q-42 -64 -119.5 -103t-166.5 -39q-14 0 -23 6.5t-9 17.5t6.5 18.5t17.5 7.5
q99 8 99 143q0 59 -24.5 97.5t-67.5 33.5q-5 0 -9 1v57q8 4 18 4q71 0 121 -56.5t50 -136.5q0 -61 -17 -87q65 37 92 85q-32 22 -50 53q-19 31 -19 63t28 58t66 26t64 -28q28 -27 28 -67t-38 -96z" />
    <glyph glyph-name="U0C6C" unicode="&#xc6c;" horiz-adv-x="443" 
d="M403 -12h-293q-46 0 -78 35.5t-32 85t33 73.5q-33 31 -33 78t32 79t78 32h73v-68h-73q-18 0 -29.5 -12t-11.5 -30.5t11.5 -31t29.5 -12.5h116v-69h-116q-17 0 -29 -12.5t-12 -29t13 -25.5q12 -10 28 -10h293v-83z" />
    <glyph glyph-name="U0C6D" unicode="&#xc6d;" horiz-adv-x="377" 
d="M341 118q0 -72 -57 -106q-45 -26 -115 -26t-113 24q-56 33 -56 101t58 93q37 15 97 15t79 5q34 8 34 32q0 45 -98 45q-36 0 -62 -10q-35 -11 -35 -42h-73q0 68 59 100q47 24 112.5 24t110.5 -23q59 -31 59 -97t-58 -91q-37 -15 -97 -15t-79 -4q-34 -9 -34 -32
q0 -38 97.5 -38t97.5 45h73z" />
    <glyph glyph-name="U0C6E" unicode="&#xc6e;" horiz-adv-x="477" 
d="M440 301h-100q12 -10 26 -46t14 -72q0 -82 -54 -139.5t-136.5 -57.5t-136 57t-53.5 138t61 142l50 -53q-38 -39 -38 -87t34 -79t83 -31t83.5 31t34.5 79.5t-34.5 83t-90.5 34.5v72h257v-72z" />
    <glyph glyph-name="U0C6F" unicode="&#xc6f;" horiz-adv-x="439" 
d="M399 303h-289q-17 0 -29 -12.5t-12 -29.5t12 -30t29 -13h116v-69h-116q-18 0 -29.5 -12.5t-11.5 -30t12 -26.5t29 -9h73v-83h-73q-46 0 -78 35.5t-32 82.5t33 78q-33 24 -33 73.5t32 81.5t78 32h289v-68z" />
    <glyph glyph-name="U0C6F" unicode="&#x2122;" horiz-adv-x="439" 
d="M399 303h-289q-17 0 -29 -12.5t-12 -29.5t12 -30t29 -13h116v-69h-116q-18 0 -29.5 -12.5t-11.5 -30t12 -26.5t29 -9h73v-83h-73q-46 0 -78 35.5t-32 82.5t33 78q-33 24 -33 73.5t32 81.5t78 32h289v-68z" />
    <glyph glyph-name="U0C78" unicode="&#xc78;" horiz-adv-x="379" 
d="M117 19q32 10 73.5 30t59.5 31q37 22 37 40q0 15 -22 23q-13 5 -61 16q-4 -1 -8 -1h-10q-71 0 -119 50q-46 48 -46 118q0 67 47 113q50 48 118 48q70 0 118 -48q47 -47 47 -113q0 -41 -16 -75t-41 -54q23 -9 39 -24t22.5 -26.5t6.5 -28t-11 -33.5t-29.5 -32t-40 -28
t-43.5 -23t-42 -17.5t-39 -15.5zM277 326q0 42 -28 68q-28 27 -63 27q-36 0 -62 -27q-28 -27 -28 -68q0 -39 26 -64q26 -23 64 -23q61 0 84 51q7 16 7 36z" />
    <glyph glyph-name="U0C79" unicode="&#xc79;" horiz-adv-x="219" 
d="M80 480h75v-484h-75v484z" />
    <glyph glyph-name="U0C7A" unicode="&#xc7a;" horiz-adv-x="344" 
d="M166 246q32 0 60 14v220h75v-484h-75v192q-27 -9 -59 -9t-54 8.5t-39 24.5q-38 34 -38 89v179h75v-173q0 -47 35 -58q10 -3 20 -3z" />
    <glyph glyph-name="U0C7B" unicode="&#xc7b;" horiz-adv-x="534" 
d="M356 246q33 0 61 14v220h74v-484h-74v192q-36 -9 -74 -9t-80 28q-47 -28 -105 -28q-48 0 -84 33q-38 34 -38 89v179h75v-173q0 -47 35 -58q10 -3 19.5 -3t20 2.5t18.5 7.5q22 13 22 38v186h75v-184q0 -38 36 -48q9 -2 19 -2z" />
    <glyph glyph-name="U0C7C" unicode="&#xc7c;" horiz-adv-x="510" 
d="M29 201v67h468v-67h-468z" />
    <glyph glyph-name="U0C7D" unicode="&#xc7d;" horiz-adv-x="587" 
d="M140 98q0 -21 107 -21h333v-81h-332q-56 0 -79 4t-41.5 10.5t-32.5 17.5q-30 24 -30 65q0 49 47 75q23 12 54 21t62.5 17.5t48 14t25.5 9.5q18 9 18 25.5t-12.5 21.5t-38.5 5h-195v66h195q61 0 93.5 -24.5t32.5 -65.5q0 -47 -39 -76q-28 -22 -90 -34q-83 -17 -114 -34
q-12 -7 -12 -16z" />
    <glyph glyph-name="U0C7E" unicode="&#xc7e;" horiz-adv-x="638" 
d="M140 274q0 -13 70 -13q66 0 90.5 -11.5t34 -25.5t9.5 -34.5t-6.5 -34.5t-17.5 -23.5t-26 -15.5t-30 -9t-31 -4t-29 -2.5t-21.5 -2t-14.5 -2.5q-10 -2 -10 -5t3 -4.5t11 -3t18.5 -3t22.5 -2t23.5 -1t20.5 -0.5h374v-81h-373q-78 0 -106 8t-41 18q-28 22 -28 58q0 42 30 63
q28 20 105 25q38 2 44.5 5t6.5 7.5t-5 7t-14 4.5q-21 3 -41 3q-107 0 -136 41q-8 12 -8 30t6.5 32.5t18.5 25.5q27 23 104 26q38 1 47 4.5t9 9t-3.5 8t-10.5 4.5q-12 3 -44 3h-123v66h123q100 0 124 -38q9 -14 9 -37.5t-9.5 -39.5t-26.5 -26q-29 -16 -105 -21q-34 -2 -39 -4
t-5 -5z" />
    <glyph glyph-name="U0C7F" unicode="&#xc7f;" horiz-adv-x="678" 
d="M190.5 306q9.5 11 9.5 25t-2.5 22t-7.5 14q-13 16 -26 16q-23 0 -33 -29q-3 -9 -3 -22.5t10 -25t26.5 -11.5t26 11zM71 311q-4 -12 -4 -49.5t19.5 -78.5t51.5 -62q67 -43 177 -43q25 0 57 4q96 26 157 94q23 24 52 62l6 9l66 -32l-6 -15q-42 -76 -101 -121t-114.5 -63.5
t-119.5 -18.5t-108 14t-68.5 27.5t-56 38.5t-55.5 76.5t-24 115.5q0 112 88 159q30 13 63 13q56 0 90 -32q25 -27 25 -80q0 -22 -10 -41t-25 -30q-33 -24 -59.5 -24t-44.5 8q-36 14 -51 51q-4 10 -5 18z" />
    <glyph glyph-name="U200C" unicode="&#x200c;" horiz-adv-x="0" 
d="M0 -259v868h44v-868h-44z" />
    <glyph glyph-name="U200D" unicode="&#x200d;" horiz-adv-x="0" 
d="M0 -259v868h167v-37h-123v-831h-44z" />
    <glyph glyph-name="U2013" unicode="&#x2013;" horiz-adv-x="531" 
d="M17 217h473v-58h-473v58z" />
    <glyph glyph-name="U2014" unicode="&#x2014;" horiz-adv-x="1157" 
d="M3 217h1086v-58h-1086v58z" />
    <glyph glyph-name="U2018" unicode="&#x2018;" horiz-adv-x="230" 
d="M56 337v79q0 49 10.5 86.5t33.5 68.5h74q-25 -32 -39 -65.5t-14 -62.5h52v-106h-117z" />
    <glyph glyph-name="U2019" unicode="&#x2019;" horiz-adv-x="230" 
d="M174 571v-79q0 -49 -10.5 -86.5t-33.5 -68.5h-74q25 32 39 65.5t14 62.5h-51v106h116z" />
    <glyph glyph-name="U201C" unicode="&#x201c;" horiz-adv-x="415" 
d="M235 337v79q0 50 11 87t34 68h73q-25 -32 -39 -65.5t-14 -62.5h52v-106h-117zM61 337v79q0 49 10.5 86.5t33.5 68.5h74q-25 -32 -39 -65.5t-14 -62.5h52v-106h-117z" />
    <glyph glyph-name="U201D" unicode="&#x201d;" horiz-adv-x="415" 
d="M353 493q0 -49 -10 -86.5t-34 -69.5h-74q54 68 54 129h-52v105h116v-78zM179 493q0 -51 -10 -87t-34 -69h-74q53 68 53 129h-51v105h116v-78z" />
    <glyph glyph-name="U2022" unicode="&#x2022;" horiz-adv-x="290" 
d="M264 274q0 -49 -35.5 -84.5t-84.5 -35.5q-48 0 -83 35.5t-35 84.5t35 84t83 35q49 0 84.5 -35t35.5 -84z" />
    <glyph glyph-name="U2026" unicode="&#x2026;" horiz-adv-x="834" 
d="M17 20h151v-49h-151v49zM336 20h152v-49h-152v49zM643 20h151v-49h-151v49z" />
    <glyph glyph-name="U20B9" unicode="&#x20b9;" horiz-adv-x="448" 
d="M410 580l-35 -62h-95q12 -15 16.5 -30.5t10.5 -33.5h103l-35 -61h-65q-10 -46 -24.5 -69.5t-33 -38.5t-38.5 -26q-44 -24 -87 -24l187 -266h-90l-187 257v55l44 -2q50 0 90 19q42 20 53 67q6 22 9 28h-216l37 61h167q-5 16 -11 23.5t-16 18.5q-21 22 -69 22h-108l37 62
h356z" />
    <glyph glyph-name="U2103" unicode="&#x2103;" horiz-adv-x="816" 
d="M539 86q108 0 151 109l104 -40q-34 -83 -99 -123t-156 -40q-138 0 -213 78t-75 218q0 141 72.5 216.5t210.5 75.5q101 0 164 -40.5t88 -118.5l-105 -29q-13 43 -52.5 68.5t-92.5 25.5q-81 0 -123 -50.5t-42 -147.5q0 -98 43.5 -150t124.5 -52zM146 563q36 0 61.5 -25
t25.5 -60t-25.5 -60t-61 -25t-61 25t-25.5 60t25 60t61 25zM146 422q22 0 38 16.5t16 39.5t-16 39t-38 16t-37.5 -16t-15.5 -39t15.5 -39.5t37.5 -16.5z" />
    <glyph glyph-name="U2109" unicode="&#x2109;" horiz-adv-x="738" 
d="M407 479v-177h292v-92h-292v-210h-119v571h421v-92h-302zM146 563q36 0 61.5 -25t25.5 -60t-25.5 -60t-61 -25t-61 25t-25.5 60t25 60t61 25zM146 422q22 0 38 16.5t16 39.5t-16 39t-38 16t-37.5 -16t-15.5 -39t15.5 -39.5t37.5 -16.5z" />
    <glyph glyph-name="onethird" unicode="&#x2153;" horiz-adv-x="692" 
d="M213 0h-82l363 571h81zM38 281v49h75v190l-70 -44v50l73 47h71v-243h68v-49h-217zM661 81q0 -40 -30.5 -63t-86.5 -23q-55 0 -87 21t-37 64l76 4q4 -38 47 -37q41 0 41 39q0 38 -56 37h-23v51h21q26 0 38.5 9.5t12.5 27.5q0 16 -9.5 24.5t-26.5 8.5q-36 0 -40 -36l-75 5
q4 38 35 60.5t82 22.5q52 0 81 -21t29 -55q0 -26 -15 -44.5t-47 -25.5v0q34 -4 52 -22.5t18 -46.5z" />
    <glyph glyph-name="arrowleft" unicode="&#x2190;" horiz-adv-x="653" 
d="M175 251q21 -28 33 -53q16 -38 16 -80q-78 109 -200 154q120 42 200 152q0 -39 -16 -80q-14 -32 -31 -51h444v-42h-446z" />
    <glyph glyph-name="arrowup" unicode="&#x2191;" horiz-adv-x="362" 
d="M156 419q-27 -19 -58.5 -33.5t-71.5 -14.5q106 77 151 201q46 -125 152 -201q-40 0 -75.5 15t-54.5 32v-445h-43v446z" />
    <glyph glyph-name="arrowright" unicode="&#x2192;" horiz-adv-x="654" 
d="M423 118q0 71 47 133h-444v42h446q-49 66 -49 131q82 -110 200 -152q-120 -45 -200 -154z" />
    <glyph glyph-name="arrowdown" unicode="&#x2193;" horiz-adv-x="363" 
d="M159 569h43v-443q19 16 51 29q39 18 79 18q-106 -78 -152 -203q-45 124 -151 203q41 0 72 -15t58 -34v445z" />
    <glyph glyph-name="U2212" unicode="&#x2212;" horiz-adv-x="531" 
d="M17 217h473v-58h-473v58z" />
    <glyph glyph-name="U25CC" unicode="&#x25cc;" horiz-adv-x="704" 
d="M323 440.5q-11 10.5 -11 25t11 25t26.5 10.5t26 -10.5t10.5 -25t-10.5 -25t-26 -10.5t-26.5 10.5zM323 -74.5q-11 10.5 -11 25t11 25t26.5 10.5t26 -10.5t10.5 -25t-10.5 -25t-26 -10.5t-26.5 10.5zM65.5 182.5q-10.5 10.5 -10.5 25t10.5 25t26 10.5t26 -10.5t10.5 -25
t-10.5 -25t-26 -10.5t-26 10.5zM580.5 182.5q-10.5 10.5 -10.5 25t10.5 25t26 10.5t26 -10.5t10.5 -25t-10.5 -25t-26 -10.5t-26 10.5zM100.5 54.5q-10.5 10.5 -10.5 25t10.5 25t26 10.5t26 -10.5t10.5 -25t-10.5 -25t-26 -10.5t-26 10.5zM546.5 311.5q-10.5 10.5 -10.5 25
t10.5 25t26 10.5t26 -10.5t10.5 -25t-10.5 -25t-26 -10.5t-26 10.5zM451.5 406.5q-10.5 10.5 -10.5 25t10.5 25t26 10.5t26 -10.5t10.5 -25t-10.5 -25t-26 -10.5t-26 10.5zM194.5 -40q-10.5 11 -10.5 25.5t10.5 25t26 10.5t26 -10.5t10.5 -25t-10.5 -25.5t-26 -11t-26 11z
M100.5 311.5q-10.5 10.5 -10.5 25t10.5 25t26 10.5t26 -10.5t10.5 -25t-10.5 -25t-26 -10.5t-26 10.5zM546.5 54.5q-10.5 10.5 -10.5 25t10.5 25t26 10.5t26 -10.5t10.5 -25t-10.5 -25t-26 -10.5t-26 10.5zM194.5 406.5q-10.5 10.5 -10.5 25t10.5 25t26 10.5t26 -10.5
t10.5 -25t-10.5 -25t-26 -10.5t-26 10.5zM451.5 -40q-10.5 11 -10.5 25.5t10.5 25t26 10.5t26 -10.5t10.5 -25t-10.5 -25.5t-26 -11t-26 11z" />
    <glyph glyph-name="U0C15_0C3E" horiz-adv-x="666" 
d="M555 157q11 14 11 26.5t-10.5 25t-27.5 14.5q-15 0 -27 -12q-9 -11 -11 -27q0 -14 11 -26t26 -12t28 11zM357 312q12 -22 12 -49h-81q-8 20 -35 31q-11 7 -21 8t-28 1q-76 0 -76 -51q0 -33 67 -33l37 9q32 8 61 8q49 0 76 -31q21 -22 21 -57q0 -58 -57 -105.5t-129 -47.5
q-90 0 -141 50q-39 37 -39 83h85q0 -22 30 -41t73.5 -19t69.5 19t26 39q0 37 -43 37l-45 -7l-60 -6q-44 0 -80 27q-41 28 -41 74q0 29 29 61h-53v75h458q48 0 78 -14q45 -20 70 -66t25 -98.5t-33 -96t-84 -43.5t-83 32t-32 79t39 77t85 30q12 0 17 -3q-20 28 -65 28h-133z
" />
    <glyph glyph-name="U0C16_U0C3E" horiz-adv-x="825" 
d="M125 250q29 0 29 30.5t-29 30.5t-29 -30.5t29 -30.5zM711 173q0 31 -34.5 31t-34.5 -33q0 -35 32 -35q37 0 37 37zM198 90q-22 18 -59.5 18t-37.5 -19q0 -21 40.5 -21t56.5 22zM506 300q33 -48 33 -121t-51.5 -126.5t-127.5 -53.5q-38 0 -55.5 5t-50.5 37
q-19 -20 -48 -31q-46 -17 -85.5 -17t-70.5 21q-35 22 -35 63t39 69t85 28q71 0 114 -32l11 49q0 31 -9.5 56t-23.5 26q-8 -34 -33 -59q-7 -7 -26 -17q-27 -11 -43 -11q-51 0 -80.5 25.5t-29.5 69.5t61 81q32 21 88 21q78 0 131 -56q39 -43 39 -127q0 -20 -8 -53
q-9 -27 -22 -41q2 -15 18 -24t37 -11q37 0 68 25q39 33 39 87q0 69 -55 108q-7 5 -23 10h-41v70h207q130 0 153 -9q94 -37 94 -154q0 -58 -41 -104t-99 -46q-41 0 -74 29q-29 33 -29 77t29.5 75t87.5 31l38 -3q-17 22 -45.5 28t-102.5 6zM292 -94h-82v89h82v-89z" />
    <glyph glyph-name="U0C17_U0C3E" horiz-adv-x="677" 
d="M566 151q11 15 11 27.5t-10.5 24.5t-27.5 14q-15 0 -27 -12q-11 -13 -11 -28t11 -26t26 -11t28 11zM347 306q5 -5 8 -10t16 -24q32 -56 32 -116t-39 -113q-29 -38 -52 -46l-3 2l-40 63v5q54 42 54 100q0 46 -24 79q-29 41 -82 41t-84 -39.5t-31 -97.5q0 -43 13 -61
q5 -7 38 -36l2 -3q-5 -14 -48 -57h-4q-88 34 -88 169q0 78 57 137l7 7h-64v75h469q48 0 78 -13q44 -21 69.5 -66.5t25.5 -98.5t-33 -96.5t-84.5 -43.5t-83 32t-31.5 79.5t39 77t85 29.5q12 0 17 -2q-20 27 -65 27h-154z" />
    <glyph glyph-name="U0C18_U0C3E" horiz-adv-x="969" 
d="M858 169q0 21 -7.5 29.5t-33.5 8.5q-33 0 -33 -41t33 -41q15 0 26.5 13.5t14.5 30.5zM174 80q14 13 14 33t-15 33q-11 15 -33 15q-44 0 -44 -47t44 -47q20 0 34 13zM417 41q-46 -48 -103 -48t-90 36q-30 -36 -90.5 -36t-90.5 38q-28 32 -28 79.5t32 80.5q34 42 103 42
q49 0 84.5 -39t35.5 -88q11 -32 43 -32t52 30.5t20 68.5q0 109 -106 109v83q46 0 79 -13.5t61 -45.5q46 -56 46 -129v-5l18 -55q18 -43 59 -43q32 0 54 35.5t22 74t-20 67.5q-23 40 -64 40h-31v73l305 1q73 0 112 -61q29 -44 29 -89q0 -64 -37.5 -109.5t-96.5 -45.5
q-39 0 -71 31t-32 75t31.5 73t75.5 29q20 0 34 -6q-9 20 -28 26l-50 3h-116q30 -53 30 -121t-48 -122t-116.5 -54t-104.5 44zM341 424q-8 4 -23 4q-29 0 -53 -26l-48 -56q-41 -39 -106 -39q-42 0 -68 26q-27 23 -27 62h80q0 -26 30 -26t55 35l43 62q32 35 84 35q19 0 33 -9
v-68zM264 -94h-82v89h82v-89z" />
    <glyph glyph-name="U0C19_U0C3E" horiz-adv-x="736" 
d="M621 249q0 31 -34 31t-34 -33.5t32 -33.5q36 0 36 36zM354 377v-37h54v-74h-165q0 -71 -96 -97q-48 -13 -48 -57t44 -44q18 0 40 15q17 14 19 35v27h77l1 -41q0 -10 13.5 -21.5t31.5 -13.5q18 0 33 14q16 18 16 40q0 41 -38 41q-18 0 -27 -3v77q81 0 104 -23
q34 -36 34 -89.5t-41.5 -92.5t-84.5 -39q-76 0 -94 45q-2 -16 -25 -32q-27 -14 -68.5 -14t-79 30t-37.5 83q0 101 87 121q63 13 63 44q0 12 -9 27q-8 11 -20 13q-14 0 -25.5 -13.5t-11.5 -25.5l2 -11h-88q0 38 20 71q31 52 97 52t95 -46h52v39h-33v71h223q128 0 152 -11
q95 -35 95 -154q0 -55 -40.5 -101.5t-100.5 -46.5q-42 0 -73 29q-29 32 -29 75.5t29.5 74.5t86.5 31q26 0 39 -2q-20 22 -49 28t-100 6h-125z" />
    <glyph glyph-name="U0C1A_U0C3E" horiz-adv-x="853" 
d="M740.5 140q11.5 11 11.5 27t-12 27q-9 11 -24 11.5t-27.5 -11.5t-12.5 -26.5t11.5 -26.5t26.5 -12t26.5 11zM301 296h-129v85h487q47 0 79 -14q43 -21 71 -74q24 -48 24 -99.5t-33 -97t-84 -45.5t-83.5 32.5t-32.5 80t41 77.5q37 31 85 31l17 -2q-20 26 -67 26h-137
q34 -46 34 -117.5t-45 -127.5t-118.5 -56t-87.5 41q-32 -42 -91 -42t-97.5 41t-38.5 95q0 39 18 56h-98v79h226v-63q-53 -12 -53 -58q0 -26 13 -47q15 -18 38 -18q44 0 44 62l-3 25h97l-3 -35q0 -59 45 -59q35 0 53.5 37.5t18.5 74.5q0 81 -66 103q-36 9 -124 9z" />
    <glyph glyph-name="U0C1B_U0C3E" horiz-adv-x="853" 
d="M360 -95h-81v90h81v-90zM740.5 140q11.5 11 11.5 27t-12 27q-9 11 -24 11.5t-27.5 -11.5t-12.5 -26.5t11.5 -26.5t26.5 -12t26.5 11zM301 296h-129v85h487q47 0 79 -14q43 -21 71 -74q24 -48 24 -99.5t-33 -97t-84 -45.5t-83.5 32.5t-32.5 80t41 77.5q37 31 85 31l17 -2
q-20 26 -67 26h-137q34 -46 34 -117.5t-45 -127.5t-118.5 -56t-87.5 41q-32 -42 -91 -42t-97.5 41t-38.5 95q0 39 18 56h-98v79h226v-63q-53 -12 -53 -58q0 -26 13 -47q15 -18 38 -18q44 0 44 62l-3 25h97l-3 -35q0 -59 45 -59q35 0 53.5 37.5t18.5 74.5q0 81 -66 103
q-36 9 -124 9z" />
    <glyph glyph-name="U0C1C_U0C3E" horiz-adv-x="759" 
d="M645 179q0 33 -34 33t-34 -35.5t32 -35.5q36 0 36 38zM233 37q-38 -42 -90 -42q-57 0 -89 35q-39 35 -39 87.5t42 76.5l78 27q40 12 40 47t-36 35q-44 0 -44 -56h-80q0 56 37 93.5t91 37.5t82 -34l41 -61q21 -33 49 -33q18 0 36.5 11t18.5 23q0 19 -27 26h-61v71h210
q131 0 153 -9q94 -38 94 -157q0 -58 -39.5 -106t-100.5 -48q-39 0 -72 31q-31 33 -31 78t30 76.5t87 31.5l39 -4q-18 22 -46 29t-104 7h-52q4 -18 4 -26q0 -48 -42 -73.5t-84 -25.5t-90 19q-8 -20 -67.5 -39.5t-59.5 -48.5q0 -14 14 -29q13 -11 32 -13q46 0 51 61h83l-3 -18
q0 -20 10.5 -32.5t28.5 -14.5q20 0 33.5 12t15.5 31q0 15 -6 22l-8 12h95q5 -21 2 -36q0 -47 -40 -81q-35 -33 -81 -33t-70 12z" />
    <glyph glyph-name="U0C1D_U0C3E" horiz-adv-x="1161" 
d="M1048 167q0 30 -34 30t-34 -34t31 -34q37 0 37 38zM290.5 103.5q35.5 30.5 35.5 79.5t-33 77q-33 30 -80 30t-79 -31q-32 -29 -32 -76.5t29 -80.5q31 -29 77.5 -29t82 30.5zM832 293q32 -48 32 -120.5t-48.5 -125.5t-114.5 -53q-83 0 -119 60q-49 -60 -119 -60t-109 44
l-9 11q-63 -54 -146 -54t-133.5 55.5t-50.5 133t61 130.5q-41 32 -41 91h87q-4 -19 14.5 -30t40.5 -11l10 1q18 3 41 25l42 53q32 27 79 27q24 0 40 -13v-76q-19 14 -40 14q-34 0 -70 -37q43 -14 73 -45q55 -52 55 -133l-4 -38l14 -30q20 -38 56 -38t58 35.5t22 72.5
t-21.5 73t-62.5 36h-14l-15 -1v72h16l18 2q60 0 106.5 -54t46.5 -137q0 -22 -3 -32q17 -67 90 -67q30 0 55 35t25 72.5t-21 71.5t-56 40h-36v72h214q131 0 153 -9q93 -38 93 -156q0 -56 -40.5 -102.5t-98.5 -46.5q-41 0 -74 30q-30 33 -30 76.5t30 74.5t88 31l37 -3
q-16 22 -44 27.5t-103 5.5h-74zM626 -117h-83v112h83v-112z" />
    <glyph glyph-name="U0C1E_U0C3E" horiz-adv-x="965" 
d="M863 184q0 15 -11 26.5t-26.5 12t-26.5 -11.5t-11.5 -27t10.5 -26.5t26.5 -11.5t27 11.5t11.5 26.5zM307 87q-38 31 -79 31q-19 0 -30 -2l-25 -7q-12 -3 -16 -12l-2 -7q0 -11 17 -20t38.5 -9.5t25.5 -0.5q36 0 71 27zM371 43q-58 -49 -143.5 -49t-127 24t-41.5 67
q0 78 154 98l36 2q52 0 105 -30q20 26 20 60t-12 61q-15 30 -36 30t-33.5 -18.5t-12.5 -40.5l2 -19h-95q0 73 -53 73q-28 0 -28 -36q-3 -36 20 -49h-102q-9 27 -9 42q0 46 37.5 79.5t84.5 39.5q23 0 36 -1t22 -7l39 -24q22 21 36.5 27.5t30.5 6.5v8h469q49 0 79 -14
q65 -32 89 -112q7 -23 7 -45q0 -58 -34 -102.5t-85 -44.5t-83 32t-32 79t41 77q36 30 84 30l17 -3q-20 28 -66 28h-344q21 -34 21 -86h32v56h90v-54h99v-76h-90v-60h-97v60l-34 -6l-24 -41l54 -92l-69 -50z" />
    <glyph glyph-name="U0C1F_U0C3E" horiz-adv-x="792" 
d="M678 173q0 31 -34 31t-34 -34t32 -34q36 0 36 37zM191 276q0 13 -10 23t-23 12q-11 0 -21.5 -10.5t-10.5 -24.5q0 -37 32 -37q12 0 21.5 11t11.5 26zM469 301q37 -54 37 -127t-43.5 -126.5t-112 -53.5t-97.5 55q-29 -55 -91 -55t-104.5 57.5t-42.5 130.5t27 125.5
t76 59.5v116h66v-112q26 -4 49 -23q31 -28 31 -75t-35 -78t-84 -31t-62 31q0 -56 24.5 -89t53 -33t45 24.5t16.5 49.5h80l2 -14q3 -5 3 -13q0 -28 37 -43q7 -3 15 -4q32 0 56 36q19 36 19 75q0 71 -54 107q-10 7 -22 10h-42v70h209q131 0 153 -9q94 -37 94 -154
q0 -58 -39.5 -104t-100.5 -46q-39 0 -71 29q-31 31 -31 75.5t30 76t86 31.5l39 -3q-19 22 -46.5 28t-102.5 6h-67z" />
    <glyph glyph-name="U0C20_U0C3E" horiz-adv-x="697" 
d="M584 138.5q11 10.5 11 26.5t-11 27q-9 11 -24.5 11.5t-27.5 -11.5t-12 -26.5t11 -26t26.5 -11.5t26.5 10.5zM306 103.5q36 30.5 36 79.5t-33 77q-32 30 -79.5 30t-80 -30t-32.5 -77.5t30 -80.5q31 -29 77 -29t82 30.5zM228 145q-34 0 -34 37q0 10 5 18q9 17 32 17
q8 0 20.5 -7.5t12.5 -23.5q0 -41 -36 -41zM70 293h-55v84h486q48 0 85.5 -17.5t66.5 -69.5q24 -48 24 -99t-33 -96t-84 -45t-83.5 32.5t-32.5 79t41 76.5q37 31 84 31l17 -2q-19 26 -66 26h-134q37 -47 37 -118.5t-62.5 -125.5t-145.5 -54t-134 55.5t-51 138.5q0 60 40 104z
" />
    <glyph glyph-name="U0C21_U0C3E" horiz-adv-x="734" 
d="M619 203q0 32 -34 32t-34 -34t32 -34q36 0 36 36zM386 331v-32h-172q-59 0 -93 -38q-29 -35 -29 -83.5t17.5 -77t48.5 -28.5q15 0 32 20q13 23 13 45l-2 15h82l-2 -17q0 -56 46 -56q20 0 36 20t16 41t-14 34q-9 12 -24 15q-28 0 -39 -9v82q17 5 40 5t46 -16
q62 -37 62 -109t-44 -115q-40 -33 -89.5 -33t-82.5 42q-31 -43 -91 -43q-85 0 -118 111q-9 31 -9 64q0 87 47 138l29 26h-77v70h452q130 0 152 -10q51 -20 76 -74q19 -39 19 -80q0 -56 -40.5 -102.5t-100.5 -46.5q-41 0 -74 29q-30 32 -30 76t30 75.5t87 31.5l38 -5
q-16 24 -44.5 29.5t-103.5 5.5h-90z" />
    <glyph glyph-name="U0C22_U0C3E" horiz-adv-x="734" 
d="M619 203q0 32 -34 32t-34 -34t32 -34q36 0 36 36zM386 331v-32h-172q-59 0 -93 -38q-29 -35 -29 -83.5t17.5 -77t48.5 -28.5q15 0 32 20q13 23 13 45l-2 15h82l-2 -17q0 -56 46 -56q20 0 36 20t16 41t-14 34q-9 12 -24 15q-28 0 -39 -9v82q17 5 40 5t46 -16
q62 -37 62 -109t-44 -115q-40 -33 -89.5 -33t-82.5 42q-31 -43 -91 -43q-85 0 -118 111q-9 31 -9 64q0 87 47 138l29 26h-77v70h452q130 0 152 -10q51 -20 76 -74q19 -39 19 -80q0 -56 -40.5 -102.5t-100.5 -46.5q-41 0 -74 29q-30 32 -30 76t30 75.5t87 31.5l38 -5
q-16 24 -44.5 29.5t-103.5 5.5h-90zM277 -95h-83v90h83v-90z" />
    <glyph glyph-name="U0C23_U0C3E" horiz-adv-x="743" 
d="M630 173q0 31 -34 31t-34 -34t32 -34q36 0 36 37zM358 96q0 15 -11 28.5t-25.5 14t-28.5 -12.5q-11 -15 -11 -28q0 -39 40 -39q36 0 36 37zM428 301q29 -55 29 -120.5t-27 -120.5q-37 -66 -107 -66q-45 0 -77.5 25.5t-32.5 72t27.5 75.5t78 29t62.5 -19q0 24 -3 42.5
t-15 37.5q-17 35 -51 35q-37 0 -37 -42h-78q0 21 -19 39q-17 14 -33 14q-46 0 -46 -32q0 -14 11.5 -26t24 -12t20.5 4v-66l-9 1q-20 0 -36 -16q-16 -18 -16 -39.5t16.5 -33t33 -11.5t24.5 4v-75q-22 -6 -43 -6q-45 0 -78 28q-31 28 -31 72q0 76 41 98q-42 23 -42 71t39 75.5
t88.5 27.5t85.5 -35q9 10 27 19v20h222q131 0 153 -9q93 -37 93 -154q0 -58 -40.5 -104t-98.5 -46q-41 0 -72 30t-31 76t29.5 76t87.5 30l37 -3q-16 22 -44 28t-103 6h-60z" />
    <glyph glyph-name="U0C24_U0C3E" horiz-adv-x="772" 
d="M659 138q11 11 11 26.5t-11 26.5q-9 11 -25 11.5t-27 -11.5q-12 -10 -12 -26t11 -27t26.5 -11t26.5 11zM153 190q0 29 -32 29q-12 0 -25 -8q-18 -25 0 -39q10 -8 25 -9q32 0 32 27zM413 139q-42 -23 -73 -23t-56 23.5t-25 57t27 60.5q19 21 65 21q-18 11 -49 14h-211v84
h485q50 0 80 -14q62 -29 89 -118q7 -23 7 -48q0 -58 -33 -101q-33 -46 -84.5 -46t-83.5 32.5t-32 79.5t39 77t85 30l18 -1q-20 25 -66 25h-151l10 -23q41 -40 41 -92q0 -82 -79.5 -132t-173 -50t-159.5 48q-68 52 -68 127q0 41 25 69q31 39 91 39q39 0 63.5 -22t24.5 -57.5
t-23.5 -60t-48 -24.5t-43.5 13q5 -20 49.5 -43.5t97.5 -23.5t85 16q40 17 77 63zM395 208q0 11 -9.5 23t-21 12t-21.5 -9t-12 -23q0 -30 28 -30q36 0 36 27z" />
    <glyph glyph-name="U0C25_U0C3E" horiz-adv-x="736" 
d="M622 181q0 32 -34.5 32t-34.5 -34.5t32 -34.5q37 0 37 37zM313 76q28 0 44.5 35.5t16.5 63.5q0 51 -31 86q-39 41 -105 41q-49 0 -95.5 -42.5t-46.5 -106.5q0 -27 13 -50.5t39 -23.5q44 0 44 82h86l-7 -32q7 -53 42 -53zM395 309q55 -52 55 -142q0 -71 -43 -122t-111 -51
q-32 0 -66 42q-37 -43 -88.5 -43t-89 48.5t-37.5 116.5q0 93 65 151h-54v70h443q131 0 153 -10q51 -20 76 -74q18 -38 18 -86.5t-40.5 -95t-100.5 -46.5q-41 0 -74 28q-29 33 -29 77t29.5 75t86.5 31l39 -4q-19 22 -52 30q-37 5 -97 5h-83zM234 251q33 0 33 -35t-35 -35
t-35 36q0 10 7 22t30 12zM265 -94h-82v89h82v-89z" />
    <glyph glyph-name="U0C26_U0C3E" horiz-adv-x="736" 
d="M622 181q0 32 -34.5 32t-34.5 -34.5t32 -34.5q37 0 37 37zM313 76q28 0 44.5 35.5t16.5 63.5q0 51 -31 86q-39 41 -105 41q-49 0 -95.5 -42.5t-46.5 -106.5q0 -27 13 -50.5t39 -23.5q44 0 44 82h86l-7 -32q7 -53 42 -53zM395 309q55 -52 55 -142q0 -71 -43 -122t-111 -51
q-32 0 -66 42q-37 -43 -88.5 -43t-89 48.5t-37.5 116.5q0 93 65 151h-54v70h443q131 0 153 -10q51 -20 76 -74q18 -38 18 -86.5t-40.5 -95t-100.5 -46.5q-41 0 -74 28q-29 33 -29 77t29.5 75t86.5 31l39 -4q-19 22 -52 30q-37 5 -97 5h-83z" />
    <glyph glyph-name="U0C27_U0C3E" horiz-adv-x="736" 
d="M622 181q0 32 -34.5 32t-34.5 -34.5t32 -34.5q37 0 37 37zM313 76q28 0 44.5 35.5t16.5 63.5q0 51 -31 86q-39 41 -105 41q-49 0 -95.5 -42.5t-46.5 -106.5q0 -27 13 -50.5t39 -23.5q44 0 44 82h86l-7 -32q7 -53 42 -53zM395 309q55 -52 55 -142q0 -71 -43 -122t-111 -51
q-32 0 -66 42q-37 -43 -88.5 -43t-89 48.5t-37.5 116.5q0 93 65 151h-54v70h443q131 0 153 -10q51 -20 76 -74q18 -38 18 -86.5t-40.5 -95t-100.5 -46.5q-41 0 -74 28q-29 33 -29 77t29.5 75t86.5 31l39 -4q-19 22 -52 30q-37 5 -97 5h-83zM265 -95h-82v90h82v-90z" />
    <glyph glyph-name="U0C28_U0C3E" horiz-adv-x="746" 
d="M633 139q11 13 11 26.5t-11 27.5q-11 11 -26.5 11t-26.5 -11t-11 -26.5t11 -27.5q14 -11 27 -11t26 11zM425 294q44 -48 44 -112.5t-33 -117.5q-44 -72 -129 -72q-68 0 -97 44q-7 12 -27 82q-14 44 -45 44q-36 0 -36 -51q0 -38 21 -68l35 -48h-99q-44 56 -44 109.5
t32.5 94.5t105.5 41q55 0 85 -43l32 -79q17 -44 45.5 -44t53 30.5t24.5 68.5q0 82 -69 109q-29 10 -49 12h-210v83h486q48 0 79 -13q44 -21 70 -69.5t26 -102t-33.5 -98t-84 -44.5t-83.5 33t-33 78.5t40 76.5t86 31l16 -1q-19 26 -65 26h-144z" />
    <glyph glyph-name="U0C2A_U0C3E" horiz-adv-x="769" 
d="M667 170q0 13 -11 25.5t-26 14.5q-14 0 -26.5 -12.5t-12.5 -27.5t12 -26t26.5 -11t26 12t11.5 25zM174 80q14 13 14 33t-14 34t-34 14q-44 0 -44 -47t44 -47q20 0 34 13zM485 298q2 -11 2 -22v-24q0 -133 -47 -200q-43 -56 -110 -56q-80 0 -106 33q-32 -36 -92 -36
t-88.5 35t-28.5 83.5t31 79.5q36 42 103 42q45 0 82 -34q30 -29 30 -60q15 -60 65 -60q39 0 65 60q20 50 20 108q0 23 -5 51h-349v83h313l-6 7q-46 66 -100 66q-34 0 -49 -7l-6 75q18 4 45 4q104 0 172 -84q22 -32 36 -61h112q49 0 79 -14q41 -19 70 -73q26 -45 26 -98.5
t-33.5 -97.5t-85 -44t-83 33t-31.5 78.5t38.5 76.5t85.5 31q12 0 17 -2q-19 27 -66 27h-106z" />
    <glyph glyph-name="U0C2B_U0C3E" horiz-adv-x="769" 
d="M667 170q0 13 -11 25.5t-26 14.5q-14 0 -26.5 -12.5t-12.5 -27.5t12 -26t26.5 -11t26 12t11.5 25zM174 80q14 13 14 33t-14 34t-34 14q-44 0 -44 -47t44 -47q20 0 34 13zM485 298q2 -11 2 -22v-24q0 -133 -47 -200q-43 -56 -110 -56q-80 0 -106 33q-32 -36 -92 -36
t-88.5 35t-28.5 83.5t31 79.5q36 42 103 42q45 0 82 -34q30 -29 30 -60q15 -60 65 -60q39 0 65 60q20 50 20 108q0 23 -5 51h-349v83h313l-6 7q-46 66 -100 66q-34 0 -49 -7l-6 75q18 4 45 4q104 0 172 -84q22 -32 36 -61h112q49 0 79 -14q41 -19 70 -73q26 -45 26 -98.5
t-33.5 -97.5t-85 -44t-83 33t-31.5 78.5t38.5 76.5t85.5 31q12 0 17 -2q-19 27 -66 27h-106zM265 -95h-82v90h82v-90z" />
    <glyph glyph-name="U0C2C_U0C3E" horiz-adv-x="758" 
d="M644 173q0 31 -34 31t-34 -34t32 -34q36 0 36 37zM433 301q36 -52 36 -127.5t-49 -126t-124 -50.5q-21 0 -38 10q-3 1 -27 27q-42 -39 -98.5 -39t-85.5 34q-30 29 -30 77q0 83 92 113l39 11q18 9 18 29q0 32 -35 32q-48 0 -48 -48h-68q0 119 121 119q46 0 74.5 -27.5
t28.5 -74t-37 -72.5l-68 -30q-36 -17 -36 -47q0 -15 12.5 -27t34.5 -12q38 0 46 34q1 6 1 15t-2 18h80v-19q0 -22 18.5 -33.5t35.5 -13.5q31 0 52.5 35.5t21.5 75.5q0 71 -55 107l-20 10h-42v70h210q131 0 153 -9q94 -37 94 -154q0 -57 -39.5 -103.5t-100.5 -46.5
q-40 0 -73 29q-30 33 -30 77t29.5 75t87.5 31l39 -3q-18 22 -46 28t-104 6h-68z" />
    <glyph glyph-name="U0C2D_U0C3E" horiz-adv-x="758" 
d="M644 173q0 31 -34 31t-34 -34t32 -34q36 0 36 37zM433 301q36 -52 36 -127.5t-49 -126t-124 -50.5q-21 0 -38 10q-3 1 -27 27q-42 -39 -98.5 -39t-85.5 34q-30 29 -30 77q0 83 92 113l39 11q18 9 18 29q0 32 -35 32q-48 0 -48 -48h-68q0 119 121 119q46 0 74.5 -27.5
t28.5 -74t-37 -72.5l-68 -30q-36 -17 -36 -47q0 -15 12.5 -27t34.5 -12q38 0 46 34q1 6 1 15t-2 18h80v-19q0 -22 18.5 -33.5t35.5 -13.5q31 0 52.5 35.5t21.5 75.5q0 71 -55 107l-20 10h-42v70h210q131 0 153 -9q94 -37 94 -154q0 -57 -39.5 -103.5t-100.5 -46.5
q-40 0 -73 29q-30 33 -30 77t29.5 75t87.5 31l39 -3q-18 22 -46 28t-104 6h-68zM265 -95h-82v90h82v-90z" />
    <glyph glyph-name="U0C2E_U0C3E" horiz-adv-x="943" 
d="M831 169q0 21 -7 29.5t-32 8.5q-33 0 -33 -41t33 -41q15 0 26 13.5t13 30.5zM187 114q0 54 -42 54q-51 0 -51 -45q0 -52 43 -52q18 0 34 12.5t16 30.5zM398 32q-40 -40 -111 -40q-51 0 -77 37q-24 -35 -81 -35q-41 0 -72 30q-41 33 -41 89t37.5 90t89 34t88.5 -33
t37 -100q14 -28 31 -28q32 0 51.5 30t19.5 64q0 51 -34.5 85t-85.5 34q-19 0 -56.5 -6.5t-58.5 -6.5q-52 0 -87 34q-19 17 -26 39t-7 54h81q-2 -17 9 -33t38.5 -16t59.5 34l56 67q38 35 87 35q22 0 31 -4v-87q-24 14 -39 15q-45 0 -71 -52q181 0 181 -214v-9l8 -22
q20 -43 60 -43q30 0 52.5 35.5t22.5 72.5t-18 69q-26 40 -64 40h-31v73l304 1q73 0 113 -61q28 -44 28 -89q0 -64 -38 -109.5t-97 -45.5q-37 0 -69.5 31t-32.5 75t31.5 73t75.5 29q20 0 34 -6q-10 21 -28 26l-49 3h-118q31 -51 31 -120.5t-49 -123t-113.5 -53.5t-102.5 38z
" />
    <glyph glyph-name="U0C2F_U0C3E" horiz-adv-x="1181" 
d="M1070 169q0 21 -7 29.5t-33 8.5q-33 0 -33 -41t33 -41q15 0 28 14q10 13 12 30zM293 101q38 30 38 80.5t-35 81t-82 30.5t-81 -31.5t-34 -80t29 -81.5q33 -30 81.5 -30t83.5 31zM854.5 47q-48.5 -53 -118 -53t-108.5 49q-48 -49 -111 -49q-97 0 -146 87q-63 -86 -167 -86
q-88 0 -138.5 55.5t-50.5 133t62 130.5t139.5 53t131.5 -51q59 -55 59 -125q26 -62 45 -84q27 -33 67.5 -33t65.5 37q23 30 23 70.5t-20 69.5q-22 39 -65 39l-71 2h-7q-46 0 -82 29q-37 30 -37 95h84q-2 -4 -2 -13q0 -20 18.5 -30.5t37.5 -10.5q30 0 57 33l47 59
q30 32 76 32q19 0 40 -9v-77q-9 13 -36 13t-49 -32l-21 -27q33 -15 57 -45q44 -53 44 -134l-1 -27q5 -14 9.5 -20t7.5 -11q21 -43 56 -43t58 37q21 31 21 71t-19 69q-24 40 -63 40h-30v73l302 1q75 0 114 -61q27 -44 27 -89q0 -64 -36.5 -109.5t-96.5 -45.5
q-38 0 -70.5 31.5t-32.5 74t33 74.5q31 28 75 28q18 0 33 -6q-9 21 -28 26l-49 3h-118q32 -53 32 -122t-48.5 -122z" />
    <glyph glyph-name="U0C30_U0C3E" horiz-adv-x="697" 
d="M584 138.5q11 10.5 11 26.5t-11 27q-9 11 -24.5 11.5t-27.5 -11.5t-12 -26.5t11 -26t26.5 -11.5t26.5 10.5zM306 103.5q36 30.5 36 79.5t-33 77q-32 30 -79.5 30t-80 -30t-32.5 -77.5t30 -80.5q31 -29 77 -29t82 30.5zM70 293h-55v84h486q48 0 85.5 -17.5t66.5 -69.5
q24 -48 24 -99t-33 -96t-84 -45t-83.5 32.5t-32.5 79t41 76.5q37 31 84 31l17 -2q-19 26 -66 26h-134q37 -47 37 -118.5t-62.5 -125.5t-145.5 -54t-134 55.5t-51 138.5q0 60 40 104z" />
    <glyph glyph-name="U0C31_U0C3E" horiz-adv-x="778" 
d="M664 173q0 31 -34 31t-34 -34t32 -34q36 0 36 37zM146 240q27 0 27 31.5t-27 31.5q-29 0 -29 -31.5t29 -31.5zM465 301q29 -53 29 -126.5t-41.5 -126.5t-106.5 -53t-104 44q-14 -44 -100 -44q-55 0 -91 46t-36 119t30 134q36 75 105 75q32 0 58 -22.5t26 -53.5
q0 -49 -26 -80h50q-9 24 -9 45q0 46 30 76l10 9v28h223q129 0 152 -9q94 -37 94 -154q0 -58 -40 -104t-100 -46q-40 0 -73 29q-29 31 -29 75.5t28 75.5q32 32 88 32l39 -3q-25 29 -87 33q-24 1 -62 1h-57zM148 177q-8 -6 -20.5 -6t-22.5 7l-4 -29q0 -32 15.5 -60t47.5 -28
q45 0 45 58h89l-2 -16q0 -34 41 -34t61 36t20 79t-17 72q-19 36 -52 36q-30 0 -30 -32.5t37 -44.5v-76h-208v38z" />
    <glyph glyph-name="U0C32_U0C3E" horiz-adv-x="754" 
d="M641 173q0 31 -34 31t-34 -34t33 -34q35 0 35 37zM183 271q0 16 -11 28t-23 12q-33 0 -33 -39t33.5 -39t33.5 38zM432 301q40 -54 40 -128.5t-71 -126.5t-166.5 -52t-157.5 55t-62 140q0 70 36 124t97 54q42 0 73 -26.5t31 -69t-30 -75.5t-75 -33q-21 0 -32 6l-14 12
q4 -52 49 -81q37 -25 95 -25t100 28q46 33 46 89.5t-50 90.5q-16 9 -38 18h-22v70h207q131 0 153 -9q93 -37 93 -154q0 -58 -40 -104t-99 -46q-39 0 -72 29q-31 31 -31 77t30.5 76t87.5 30l36 -3q-16 22 -44 28t-103 6h-67z" />
    <glyph glyph-name="U0C33_U0C3E" horiz-adv-x="684" 
d="M571 173q0 31 -35 31t-35 -33q0 -35 33 -35q37 0 37 37zM302 118q0 38 -81 38q-21 0 -29.5 -1.5t-23.5 -8.5q-28 -12 -28 -37q0 -50 77 -50q32 0 54 15q31 16 31 44zM401 301l2 -21q0 -44 -62 -87q27 -20 27 -64.5t-22 -74.5q-45 -61 -136 -61q-62 0 -102 29t-40 82.5
t42 81.5q-38 7 -63 33q-32 28 -32 73q0 83 88 83q36 0 57 -19.5t21 -47.5t-5.5 -40.5t-32.5 -31.5q33 -20 75 -20t82.5 17.5t40.5 42.5q0 16 -11 25h-105v70h193q129 0 153 -9q93 -37 93 -154q0 -58 -39.5 -104t-100.5 -46q-39 0 -72 29q-30 31 -30 75.5t29 75.5
q32 32 88 32l38 -3q-25 29 -86 33q-25 1 -62 1h-28zM131 293q0 12 -8.5 20t-20.5 8q-26 -4 -26 -32q0 -24 29 -24q30 3 26 28z" />
    <glyph glyph-name="U0C35_U0C3E" horiz-adv-x="740" 
d="M628 139q11 11 11 25.5t-10.5 26.5t-26 12.5t-27 -11t-11.5 -27t11 -26.5t26.5 -11t26.5 11zM174 80q14 13 14 33t-14 34t-34 14q-44 0 -44 -47t44 -47q20 0 34 13zM421 293q43 -49 43 -118t-43 -125q-47 -57 -120 -57q-46 0 -77 36q-32 -36 -92 -36t-88.5 35t-28.5 83.5
t31 79.5q36 42 103 42q49 0 85 -39t36 -88q9 -27 40 -27h11q23 0 45 29t22 65q0 78 -70 109q-23 8 -54 11h-205v84h486q46 0 79 -15q42 -19 69 -68t27 -102.5t-33 -97.5t-84.5 -44t-83.5 33t-32 77.5t39 76.5t86 32q11 0 17 -2q-19 26 -65 26h-143z" />
    <glyph glyph-name="U0C36_U0C3E" horiz-adv-x="709" 
d="M596 180q0 31 -34 31t-34 -35t33 -35q35 0 35 39zM343 130q0 26 -21 45.5t-47 19.5t-44.5 -19t-18.5 -46.5t21 -46.5t46 -19q64 0 64 66zM298 267q18 -1 33 -9q14 4 14.5 24.5t-22.5 23.5h-239v72h359q128 0 153 -10q50 -19 77 -74q16 -38 16 -80q0 -58 -39.5 -104.5
t-100.5 -46.5q-39 0 -71 31t-32 75t30 75.5t88 31.5q24 0 38 -3q-20 21 -53 29q-18 4 -96 4h-36l3 -21q0 -16 -12 -35l-23 -27q10 -21 24 -37q15 -24 15 -56q0 -61 -43.5 -99t-112 -38t-109.5 41q-33 36 -33 80t29 86q-63 0 -63 -74q0 -29 13 -45h-82q-8 12 -8 41
q0 70 60 106.5t162 36.5l32 2h29z" />
    <glyph glyph-name="U0C37_U0C3E" horiz-adv-x="769" 
d="M666 170q0 15 -11 26q-10 12 -26 14q-13 0 -26 -13t-13 -27t11.5 -25.5t26.5 -11.5t26.5 11t11.5 26zM174 80q14 13 14 33t-15 33q-11 15 -33 15q-44 0 -44 -47t44 -47q20 0 34 13zM489 298l3 -43q0 -29 -8 -93l-8 -101q0 -118 62 -118l-73 -62q-63 17 -63 106l4 23l3 21
q-5 -16 -33.5 -27t-49.5 -11q-71 0 -102 36q-30 -36 -90.5 -36t-90.5 38q-28 32 -28 79.5t32 80.5q34 42 103 42q49 0 84.5 -39t35.5 -88q11 -32 46 -32q46 0 72 64q18 51 18 111q0 21 -2.5 32t-2.5 17h-344v83h309l-6 9q-42 64 -93 64t-56 -4l-3 77q12 5 45 5
q103 0 175 -87q22 -30 38 -64h107q50 0 80 -14q60 -30 89 -118q7 -23 7 -47q0 -57 -33.5 -102.5t-85 -45.5t-83 32.5t-31.5 79.5t40 77q37 30 84 30l17 -2q-19 27 -67 27h-101z" />
    <glyph glyph-name="U0C38_U0C3E" horiz-adv-x="737" 
d="M634 170q0 15 -11 26q-8 12 -26 14q-13 0 -25 -13t-12 -27t11 -25.5t26 -11.5t26 11t11 26zM456 298q1 -13 3.5 -23t2.5 -28q0 -95 -37 -168q-44 -87 -124 -87q-120 0 -120 128l-1 31q-8 20 -31.5 20t-36.5 -19t-13 -46.5t17 -57.5l39 -54h-100q-40 53 -40 108
q0 73 39.5 113t92 40t86 -36t33.5 -84.5t31 -48.5q44 0 66 60q18 48 18 105q0 21 -2 31.5t-2 15.5h-314v83h275l-2 2q-40 47 -103 47t-66 -8v86l65 5q98 0 163 -79q23 -30 36 -53h110q50 0 79 -14q44 -21 72 -73q25 -46 25 -97.5t-33 -97t-85 -45.5t-83.5 32.5t-31.5 79.5
t39 77t86 30l17 -2q-19 27 -66 27h-104z" />
    <glyph glyph-name="U0C39_U0C3E" horiz-adv-x="756" 
d="M638 168q0 29 -34.5 29t-34.5 -31q0 -36 33 -36q36 0 36 38zM174 80q14 13 14 33t-14 34t-34 14q-45 0 -45 -47t45 -47q20 0 34 13zM435 294q31 -57 31 -137q0 -57 -45.5 -110.5t-119.5 -53.5q-46 0 -77 36q-32 -36 -92 -36t-88.5 35t-28.5 83.5t31 79.5q36 42 103 42
q49 0 85 -39t36 -88q9 -27 40 -27h11q23 0 45 29t22 62.5t-21 74t-51 49.5h-40v72h229l-5 26q0 43 34.5 75t70.5 32q131 0 131 -118h-82l2 17q0 35 -43 35q-38 0 -38 -42q0 -18 8 -26q36 0 55 -9q93 -36 93 -155q0 -56 -40 -102.5t-100 -46.5q-41 0 -71.5 30t-30.5 75.5
t30.5 76.5t87.5 31l36 -4q-21 23 -46.5 28t-100.5 5h-61zM342 424q-8 4 -23 4q-29 0 -53 -26l-47 -56q-42 -39 -107 -39q-42 0 -68 26q-27 23 -27 62h81q0 -26 29.5 -26t54.5 35l43 62q32 35 84 35q20 0 33 -9v-68z" />
    <glyph glyph-name="U0C15_U0C4D_U0C37_U0C3E" horiz-adv-x="672" 
d="M561 157q11 14 11 26.5t-10.5 25t-28.5 14.5q-14 0 -26 -12q-9 -11 -11 -27q0 -14 11 -26t25.5 -12t28.5 11zM363 312q12 -22 12 -49h-82q-7 20 -35 31q-11 7 -21 8t-27 1q-76 0 -76 -51q0 -33 67 -33l36 9q32 8 62 8q48 0 76 -31q21 -22 21 -57q0 -58 -57.5 -105.5
t-128.5 -47.5q-90 0 -141 50q-40 37 -40 83h85q0 -22 30.5 -41t73.5 -19t69 19t26 39q0 37 -43 37l-45 -7l-59 -6q-44 0 -82.5 27.5t-38.5 73.5q0 29 28 61h-52v75h457q49 0 78 -14q45 -20 70.5 -66t25.5 -98.5t-33 -96t-84 -43.5t-83 32t-32 79t39 77t84 30q12 0 18 -3
q-20 28 -65 28h-133zM441 -207l-49 -32q-22 26 -22 57v37q-49 -23 -70 -23q-33 0 -76 37q-23 -40 -93 -40q-48 0 -82 38.5t-34 81.5q0 17 6 34l69 -2l-1 -12l-1 -14q0 -22 15 -38.5t40 -16.5q54 0 54 53l-3 12l-1 11h74l-1 -11l-2 -12q0 -49 43 -49q20 0 36 15
q13 18 13 39.5t-21 31.5l32 36q63 -28 63 -102l-2 -36l-3 -35q0 -48 16 -60z" />
    <glyph glyph-name="U0C15_U0C3F" horiz-adv-x="401" 
d="M192 494q-6 19 -43 14q-4 -3 -6 -19q0 -24 35 -24q14 0 14 29zM287 356q72 -24 72 -93h-80q-9 20 -35 31q-11 7 -21.5 8t-27.5 1q-77 0 -77 -51q0 -33 69 -33l35 9q32 8 63 8q48 0 74 -31q22 -22 22 -57q0 -58 -57.5 -105.5t-128.5 -47.5q-90 0 -140 50q-40 37 -40 83h85
q0 -22 29.5 -41t73.5 -19t70 19t26 39q0 37 -44 37l-45 -7l-59 -6q-44 0 -81 27q-41 28 -41 69t42 78l24 18q-21 13 -38 29l50 33q29 -32 84 -32q24 0 51 22.5t27 51.5t-26 44q0 -32 -31 -57q-26 -17 -53 -17q-86 0 -86 74q0 29 29 55t87.5 26t99.5 -36.5t41 -95.5
q0 -41 -38 -78z" />
    <glyph glyph-name="U0C16_U0C3F" horiz-adv-x="558" 
d="M538 184q0 -76 -51.5 -129.5t-126.5 -57.5q-34 1 -50 7q-27 9 -56 38q-19 -18 -62 -36q-37 -12 -61 -12q-49 0 -82.5 22t-33.5 64t41 68q37 27 84 27q71 0 113 -31l11 49q0 26 -9 51.5t-24 31.5q-10 -39 -33 -61q-31 -23 -67 -29q-53 0 -82 27q-30 23 -30 67.5t61 84.5
q34 19 88 19q78 0 130 -56q40 -44 40 -126q0 -21 -8.5 -52t-20.5 -42q0 -14 18 -24.5t36 -10.5q34 0 64 31t30 76t-18 71q-22 33 -61 33q-18 0 -26 -2v80q28 -3 53.5 16.5t25.5 47.5q0 13 -6 23q-38 -58 -89 -58q-98 0 -98 90q0 43 43 71q35 19 73 19q146 0 146 -132
q0 -52 -43 -95q81 -50 81 -160zM314 481q0 -23 26 -23t26 25.5t-26 25.5t-26 -28zM153 280q0 27 -27 27q-25 0 -25 -26t25 -26q27 0 27 25zM198 91q-20 20 -58.5 20t-38.5 -21t40.5 -21t56.5 22zM293 -95h-82v90h82v-90z" />
    <glyph glyph-name="U0C17_U0C3F" horiz-adv-x="489" 
d="M469 189q0 -135 -109 -194l-56 68q76 29 76 126q0 57 -41.5 92t-99 35t-97.5 -40q-39 -44 -39 -106q0 -78 65 -102l-51 -76q-102 61 -102 173t84 180l-31 26l63 52q18 -19 36.5 -25t55.5 -6t67 22q28 24 28 57.5t-33 33.5q-7 -27 -38 -45q-35 -23 -74 -23t-65 24.5
t-26 60t33 62.5q40 29 117.5 29t119 -45.5t41.5 -88.5t-17 -73l-28 -30q121 -70 121 -187zM161 518q0 -19 30.5 -19t30.5 20.5t-30.5 20.5t-30.5 -22z" />
    <glyph glyph-name="U0C18_U0C3F" horiz-adv-x="709" 
d="M82 425q0 -33 25.5 -33t25.5 28.5t-27 28.5q-24 0 -24 -24zM231 470q30 -38 30 -93t-57 -105l-51 33q51 56 51 78t-14 27q0 -30 -30.5 -53t-64.5 -23t-57 19t-23 52.5t30 66.5q36 36 94 36t92 -38zM174 80q14 13 14 33t-15 33q-11 15 -33 15q-44 0 -44 -47t44 -47
q20 0 34 13zM641 48q-48 -54 -118 -54t-106 48q-44 -49 -109 -49q-51 0 -84 36q-30 -36 -90.5 -36t-90.5 38q-28 32 -28 79.5t32 80.5q34 42 103 42q49 0 84.5 -39t35.5 -88q11 -32 43 -32t52 30.5t20 68.5q0 109 -106 109v83q46 0 79 -13.5t61 -45.5q46 -56 46 -129v-5
l18 -55q18 -43 59 -43q32 0 54 35.5t22 74t-20 67.5q-23 40 -64 40l-31 -1v72l35 2q64 0 107.5 -54t43.5 -131t-48 -131zM264 -96h-82v91h82v-91z" />
    <glyph glyph-name="U0C19_U0C3F" horiz-adv-x="468" 
d="M300 532q-6 14 -31 14h-12q-4 -2 -5 -20q0 -23 35 -23q13 0 13 29zM354 364v-24h54v-74h-165q0 -71 -96 -97q-48 -13 -48 -57t44 -44q18 0 40 15q17 14 19 35v27h77l1 -41q0 -10 13.5 -21.5t31.5 -13.5q18 0 33 14q16 18 16 40q0 41 -38 41q-18 0 -27 -3v77q81 0 104 -23
q34 -36 34 -89.5t-41.5 -92.5t-84.5 -39q-76 0 -94 45q-2 -16 -25 -32q-27 -14 -68.5 -14t-79 30t-37.5 83q0 101 87 121q63 13 63 44q0 12 -9 27q-8 11 -20 13q-14 0 -25.5 -13.5t-11.5 -25.5l2 -11h-88q0 38 20 71q31 52 97 52t95 -46h52v21q-59 8 -103 51l51 33
q27 -32 83 -32q23 0 51 21.5t28 50.5t-27 44q0 -33 -31 -56q-27 -16 -52 -16q-86 0 -86 72q0 27 24 53q33 30 91 30t99 -37t41 -96q0 -41 -37 -77q-25 -27 -57 -36z" />
    <glyph glyph-name="U0C1A_U0C3F" horiz-adv-x="569" 
d="M506 345q43 -63 43 -136t-32 -135q-44 -81 -132 -81q-29 0 -51.5 15.5t-22.5 30.5q-23 -45 -102 -45q-54 0 -92 38q-34 40 -34 97q0 10 22 71h-90v65h200v-57q-17 0 -32 -25q-15 -30 -15 -53.5t16 -45.5t41 -22q43 0 43 61l-1 35h84v-35q0 -18 17 -33q16 -12 35 -12
q32 0 54 44q19 35 19 82q0 66 -46 113q3 -24 -30.5 -51.5t-74 -27.5t-72.5 27.5t-32 66.5t38 70q39 28 74 28q117 0 173 -85zM353 334q4 28 -24 35q-29 6 -35 -20q-4 -28 20 -35q5 -1 8 -1h5q21 0 26 21z" />
    <glyph glyph-name="U0C1B_U0C3F" horiz-adv-x="569" 
d="M506 345q43 -63 43 -136t-32 -135q-44 -81 -132 -81q-29 0 -51.5 15.5t-22.5 30.5q-23 -45 -102 -45q-54 0 -92 38q-34 40 -34 97q0 10 22 71h-90v65h200v-57q-17 0 -32 -25q-15 -30 -15 -53.5t16 -45.5t41 -22q43 0 43 61l-1 35h84v-35q0 -18 17 -33q16 -12 35 -12
q32 0 54 44q19 35 19 82q0 66 -46 113q3 -24 -30.5 -51.5t-74 -27.5t-72.5 27.5t-32 66.5t38 70q39 28 74 28q117 0 173 -85zM353 334q4 28 -24 35q-29 6 -35 -20q-4 -28 20 -35q5 -1 8 -1h5q21 0 26 21zM345 -95h-82v90h82v-90z" />
    <glyph glyph-name="U0C1C_U0C3F" horiz-adv-x="482" 
d="M17 252l-2 15q0 53 48 79q37 23 80.5 23t65.5 -19q7 -10 25 -41q23 -51 70 -51q36 0 61.5 15t25.5 39.5t-6 30.5q2 -18 -22.5 -36t-53.5 -18t-51.5 20t-22.5 47q0 68 95 68q50 0 90 -34q35 -33 35 -77.5t-24 -76.5q-36 -50 -122 -50q-21 0 -48 9q-25 10 -34 23
q-22 -28 -65 -41q-56 -16 -56 -66q0 -14 11 -26q12 -16 34 -16q53 0 53 61v14h83q-2 -3 -5 -16q0 -25 15.5 -44.5t34.5 -19.5t34.5 13.5t15.5 32.5t-18 41h91q7 -72 -19.5 -101.5t-48.5 -36.5q-39 -16 -69 -16q-46 0 -83 43q-25 -45 -95 -45q-26 0 -58 15q-63 35 -63 101
q0 28 15.5 59.5t35.5 44.5l66 24q34 11 34 37q0 29 -32 29q-44 0 -44 -32l2 -21h-79zM315 371q-17 0 -17 -22q0 -17 23 -17q16 5 16 22t-22 17z" />
    <glyph glyph-name="U0C1D_U0C3F" horiz-adv-x="902" 
d="M314.5 111q36.5 38 36.5 87t-22 87t-59 44l-3 -14q0 -53 -43 -82t-100 -29q-18 -11 -18 -49.5t34.5 -60t86 -21.5t88 38zM161 278q32 0 32 36.5t-32 36.5q-14 0 -24 -12.5t-11 -24.5q0 -36 35 -36zM643 -96h-81v91h81v-91zM423 139l11 -27q21 -38 57 -38t58.5 35.5
t22.5 74t-20 67.5q-23 40 -64 40h-14l-17 -1v72h18l16 2q61 0 107 -53t46 -138q0 -22 -2 -32q18 -67 89 -67q33 0 56 37q24 33 24 70.5t-18 69.5q-26 40 -66 40h-13l-16 -1v72h17l16 2q64 0 107.5 -54t43.5 -131.5t-49 -131t-114 -53.5q-82 0 -119 60q-50 -60 -120 -60
t-106 44l-11 12q-55 -52 -141.5 -52t-145.5 41.5t-59 118.5q0 55 34 88q-36 87 21 137q46 41 129 41q103 0 169 -60.5t66 -145.5q0 -43 -13 -79z" />
    <glyph glyph-name="U0C1E_U0C3F" horiz-adv-x="705" 
d="M336 502q-3 13 -31 13l-11 -1q-4 -1 -5 -17q0 -25 34 -25q13 0 13 30zM307 87q-38 31 -79 31q-19 0 -30 -2l-25 -7q-12 -3 -16 -12l-2 -7q0 -11 17 -20t38.5 -9.5t25.5 -0.5q36 0 71 27zM444.5 542q41.5 -37 41.5 -93t-69 -106l9 -9q38 -42 38 -108h32v56h90v-54h99v-76
h-90v-60h-97v60l-34 -6l-24 -41l54 -92l-69 -50l-54 80q-58 -49 -143.5 -49t-127 24t-41.5 67q0 78 154 98l36 2q52 0 105 -30q20 26 20 60t-12 61q-15 30 -36 30t-33.5 -18.5t-12.5 -40.5l2 -19h-95q0 73 -53 73q-28 0 -28 -36q-3 -36 20 -49h-102q-9 27 -9 42
q0 46 37.5 79.5t84.5 39.5q23 0 36 -1t22 -7l39 -24l10 10q-15 10 -31 24l51 33q27 -32 83 -32q24 0 52 22q27 23 27 50.5t-27 45.5q0 -34 -31 -56q-24 -18 -53 -18q-84 0 -84 74q0 27 24 53q32 28 90 28t99.5 -37z" />
    <glyph glyph-name="U0C1F_U0C3F" horiz-adv-x="532" 
d="M363 486q-5 15 -30 15l-12 -1q-5 -1 -7 -20q0 -23 35 -23q14 0 14 29zM191 276q0 13 -10 23t-23 12q-11 0 -21.5 -10.5t-10.5 -24.5q0 -37 32 -37q12 0 21.5 11t11.5 26zM290 397q24 -32 84 -32q22 0 51 22q27 23 27 51t-27 43q0 -31 -32 -56q-24 -15 -51 -15
q-86 0 -86 71q0 28 25 55q31 28 90.5 28t100 -37t40.5 -95q0 -40 -37 -78q-11 -14 -32 -25l20 -19q43 -54 43 -131.5t-43.5 -131t-112 -53.5t-97.5 55q-29 -55 -91 -55t-104.5 57.5t-42.5 130.5t27 125.5t76 59.5v116h66v-112q26 -4 49 -23q31 -28 31 -75t-35 -78t-84 -31
t-62 31q0 -56 24.5 -89t53 -33t45 24.5t16.5 49.5h80l2 -14q3 -5 3 -13q0 -28 37 -43q7 -3 15 -4q32 0 56 36q19 36 19 75q0 71 -54 107q-16 11 -45 23q-55 10 -96 50z" />
    <glyph glyph-name="U0C20_U0C3F" horiz-adv-x="453" 
d="M211 145q-34 0 -34 37q0 10 5 18q9 17 31 17q9 0 21.5 -7.5t12.5 -23.5t-4 -25q-9 -16 -32 -16zM366.5 363.5q66.5 -60.5 66.5 -140t-40 -136.5q-61 -89 -174 -89q-87 0 -145.5 41.5t-58.5 118.5q0 55 33 88l1 3q-4 16 -10.5 27t-6.5 28q0 46 38 79q46 41 129 41
q101 0 167.5 -60.5zM159 278q32 0 32 36.5t-32 36.5q-14 0 -23.5 -11.5t-11.5 -25.5q0 -36 35 -36zM311 111q37 37 37 86.5t-22 87.5t-58 44h-4l1 -14q0 -53 -44 -82t-99 -29q-18 -10 -18 -48.5t35 -62.5q32 -20 85 -20t87 38z" />
    <glyph glyph-name="U0C21_U0C3F" horiz-adv-x="468" 
d="M234 500q-7 18 -33 18q-21 0 -21 -28q0 -22 35 -22q19 0 19 32zM15 168q0 135 112 183l-23 20l53 34q27 -32 86 -32q25 0 52.5 23t27.5 52.5t-26 45.5q-4 -36 -33 -59q-26 -16 -54 -16q-88 0 -88 75q0 29 24 53q27 31 72 31t74.5 -8t51.5 -29q41 -38 41 -98
q0 -43 -34 -78h34v-66h-172q-59 0 -93 -38q-29 -35 -29 -83.5t17.5 -77t48.5 -28.5q15 0 32 20q13 23 13 45l-2 15h82l-2 -17q0 -56 46 -56q20 0 36 20t16 41t-14 34q-9 12 -24 15q-28 0 -39 -9v82q17 5 40 5t46 -16q61 -37 61 -109t-44 -115q-39 -33 -88.5 -33t-82.5 42
q-31 -43 -91 -43q-85 0 -118 111q-9 31 -9 64z" />
    <glyph glyph-name="U0C22_U0C3F" horiz-adv-x="468" 
d="M234 500q-7 18 -33 18q-21 0 -21 -28q0 -22 35 -22q19 0 19 32zM15 168q0 135 112 183l-23 20l53 34q27 -32 86 -32q25 0 52.5 23t27.5 52.5t-26 45.5q-4 -36 -33 -59q-26 -16 -54 -16q-88 0 -88 75q0 29 24 53q27 31 72 31t74.5 -8t51.5 -29q41 -38 41 -98
q0 -43 -34 -78h34v-66h-172q-59 0 -93 -38q-29 -35 -29 -83.5t17.5 -77t48.5 -28.5q15 0 32 20q13 23 13 45l-2 15h82l-2 -17q0 -56 46 -56q20 0 36 20t16 41t-14 34q-9 12 -24 15q-28 0 -39 -9v82q17 5 40 5t46 -16q61 -37 61 -109t-44 -115q-39 -33 -88.5 -33t-82.5 42
q-31 -43 -91 -43q-85 0 -118 111q-9 31 -9 64zM276 -95h-83v90h83v-90z" />
    <glyph glyph-name="U0C23_U0C3F" horiz-adv-x="485" 
d="M315 494q-5 14 -29 14h-14q-4 -3 -5 -19q0 -24 35 -24q13 0 13 29zM358 96q0 15 -11 28.5t-25.5 14t-28.5 -12.5q-11 -15 -11 -28q0 -39 40 -39q36 0 36 37zM398 337q15 -13 30 -35q29 -55 29 -121t-27 -121q-37 -66 -107 -66q-45 0 -77.5 25.5t-32.5 72t27.5 75.5t78 29
t62.5 -19q0 24 -3 42.5t-15 37.5q-17 35 -51 35q-37 0 -37 -42h-78q0 21 -19 39q-17 14 -33 14q-46 0 -46 -32q0 -14 11.5 -26t24 -12t20.5 4v-66l-9 1q-20 0 -36 -16q-16 -18 -16 -39.5t16.5 -33t33 -11.5t24.5 4v-75q-22 -6 -43 -6q-45 0 -78 28q-31 28 -31 72q0 76 41 98
q-42 23 -42 71t39 75.5t88.5 27.5t85.5 -35l8 6q-23 13 -44 33l51 33q27 -32 83 -32q25 0 51.5 22.5t26.5 51.5t-26 44q0 -32 -31 -57q-26 -17 -53 -17q-85 0 -85 74q0 29 28.5 55t87.5 26t99.5 -36.5t40.5 -95.5q0 -41 -37 -78z" />
    <glyph glyph-name="U0C24_U0C3F" horiz-adv-x="489" 
d="M469 195q0 -56 -33 -103q-27 -41 -81.5 -70t-120.5 -29t-114 22q-105 46 -105 145q0 48 25 80q34 49 96 49q86 0 86 -87q0 -30 -23 -58t-59 -28q-24 0 -50 17q23 -71 147 -71q65 0 107.5 26.5t48.5 73.5q-49 -27 -78 -27q-78 0 -78 93q0 41 30 61.5t69 20.5q0 16 -20 39
t-38 24l-2 -23q-4 -13 -9 -17q-30 -29 -90 -29q-35 0 -57 17q-29 16 -29 54.5t36.5 61.5t71.5 23q80 0 113 -17t65 -58t32 -91q21 -6 38 -33q22 -29 22 -66zM215 378q0 19 -24 19t-24 -17.5t31 -17.5q17 0 17 16zM334 195q20 0 20 25t-21.5 25t-21.5 -19q0 -31 23 -31z
M140 180q16 0 16 25t-28 25q-17 0 -17 -23q0 -27 29 -27z" />
    <glyph glyph-name="U0C25_U0C3F" horiz-adv-x="476" 
d="M456 192q0 -77 -36 -129q-21 -27 -54 -48.5t-61 -21.5q-47 0 -82 36h-6q-47 -34 -80 -34q-55 0 -88.5 41.5t-33.5 96.5t61 112v4q-26 35 -26 66t30 64q47 47 143 47q57 0 98.5 -14.5t74.5 -50.5q60 -65 60 -169zM199 324q0 12 -11 21.5t-23 9.5q-31 0 -31 -31
q0 -12 8.5 -22t22.5 -10q34 0 34 32zM386 195q0 68 -34 111q-31 37 -82 37q0 -55 -45 -99q-32 -30 -86 -30q-37 -23 -37 -69q0 -62 44 -62q49 0 49 57q-1 1 -2 10h75q0 -24 3 -34q10 -35 43 -35q47 0 68 76q4 17 4 38zM261 -94h-81v89h81v-89zM259 174q-7 -16 -31 -16
q-11 0 -18 5q-17 9 -17 31q0 10 6 19q9 16 32 16q11 0 17 -5q16 -8 16 -32q0 -10 -5 -18z" />
    <glyph glyph-name="U0C26_U0C3F" horiz-adv-x="476" 
d="M456 192q0 -77 -36 -129q-21 -27 -54 -48.5t-61 -21.5q-47 0 -82 36h-6q-47 -34 -80 -34q-55 0 -88.5 41.5t-33.5 96.5t61 112v4q-26 35 -26 66t30 64q47 47 143 47q57 0 98.5 -14.5t74.5 -50.5q60 -65 60 -169zM199 324q0 12 -11 21.5t-23 9.5q-31 0 -31 -31
q0 -12 8.5 -22t22.5 -10q34 0 34 32zM386 195q0 68 -34 111q-31 37 -82 37q0 -55 -45 -99q-32 -30 -86 -30q-37 -23 -37 -69q0 -62 44 -62q49 0 49 57q-1 1 -2 10h75q0 -24 3 -34q10 -35 43 -35q47 0 68 76q4 17 4 38z" />
    <glyph glyph-name="U0C27_U0C3F" horiz-adv-x="476" 
d="M456 192q0 -77 -36 -129q-21 -27 -54 -48.5t-61 -21.5q-47 0 -82 36h-6q-47 -34 -80 -34q-55 0 -88.5 41.5t-33.5 96.5t61 112v4q-26 35 -26 66t30 64q47 47 143 47q57 0 98.5 -14.5t74.5 -50.5q60 -65 60 -169zM199 324q0 12 -11 21.5t-23 9.5q-31 0 -31 -31
q0 -12 8.5 -22t22.5 -10q34 0 34 32zM386 195q0 68 -34 111q-31 37 -82 37q0 -55 -45 -99q-32 -30 -86 -30q-37 -23 -37 -69q0 -62 44 -62q49 0 49 57q-1 1 -2 10h75q0 -24 3 -34q10 -35 43 -35q47 0 68 76q4 17 4 38zM261 -96h-81v91h81v-91z" />
    <glyph glyph-name="U0C28_U0C3F" horiz-adv-x="489" 
d="M469 214q0 -73 -35 -134q-47 -87 -142 -87q-49 0 -78.5 27.5t-32.5 66.5q0 48 -6 62q-10 29 -37 29q-42 0 -42 -61t74 -122h-99q-21 10 -38.5 48t-17.5 77q0 62 38.5 99t91.5 37q98 0 121 -96l15 -57q9 -23 33 -23q33 0 55 49q18 40 18 88t-40 95q-48 57 -104 57l2 -24
q-7 -31 -45 -53q-34 -16 -76 -16q-84 0 -84 78q0 70 131 90l43 3q124 0 193 -76q62 -68 62 -157zM164 349q0 21 -27.5 21t-27.5 -21q0 -23 27 -23q9 0 17 6.5t11 16.5z" />
    <glyph glyph-name="U0C2A_U0C3F" horiz-adv-x="485" 
d="M419 306q46 -56 46 -130t-44.5 -128.5t-112.5 -54.5q-51 0 -84 36q-30 -36 -90.5 -36t-90.5 38q-28 32 -28 79.5t32 80.5q34 42 103 42q49 0 84.5 -39t35.5 -88q11 -32 43 -32t52 30.5t20 68.5q0 109 -106 109v83q46 0 79 -13.5t61 -45.5zM174 80q14 13 14 33t-15 33
q-11 15 -33 15q-44 0 -44 -47t44 -47q20 0 34 13zM231 470q30 -38 30 -93t-57 -105l-51 33q51 56 51 78t-14 27q0 -30 -30.5 -53t-64.5 -23t-57 19t-23 52.5t30 66.5q36 36 94 36t92 -38zM93 425q0 -33 25.5 -33t25.5 28.5t-27 28.5q-24 0 -24 -24z" />
    <glyph glyph-name="U0C2B_U0C3F" horiz-adv-x="485" 
d="M419 306q46 -56 46 -130t-44.5 -128.5t-112.5 -54.5q-51 0 -84 36q-30 -36 -90.5 -36t-90.5 38q-28 32 -28 79.5t32 80.5q34 42 103 42q49 0 84.5 -39t35.5 -88q11 -32 43 -32t52 30.5t20 68.5q0 109 -106 109v83q46 0 79 -13.5t61 -45.5zM174 80q14 13 14 33t-15 33
q-11 15 -33 15q-44 0 -44 -47t44 -47q20 0 34 13zM264 -95h-82v90h82v-90zM231 470q30 -38 30 -93t-57 -105l-51 33q51 56 51 78t-14 27q0 -30 -30.5 -53t-64.5 -23t-57 19t-23 52.5t30 66.5q36 36 94 36t92 -38zM93 425q0 -33 25.5 -33t25.5 28.5t-27 28.5q-24 0 -24 -24z
" />
    <glyph glyph-name="U0C2C_U0C3F" horiz-adv-x="536" 
d="M516 202q0 -85 -43 -145q-48 -64 -121 -64q-41 0 -74 16.5t-37 36.5q-26 -52 -107 -52q-53 0 -86 38.5t-33 92.5q0 28 15.5 53.5t35.5 37.5l58 19q41 15 41 43q0 13 -11.5 23t-25.5 10q-32 0 -32 -61h-80q3 35 7 46q32 81 130 81q35 0 60 -26q24 -27 24 -58
q0 -66 -60 -102l-49 -19q-29 -15 -29 -52q0 -42 51 -42q67 0 67 70h68q-7 -69 64 -69q43 0 71 45q20 33 20 71.5t-12 54.5q-9 -16 -36 -32q-32 -17 -57 -17t-43 12q-43 26 -43 83q0 28 22 57q31 33 85 33q76 0 111 -46q23 -27 36 -63.5t13 -74.5zM376 284q0 11 -11 21.5
t-24 12.5q-19 0 -19 -19q0 -12 9 -22q10 -8 23 -10q22 0 22 17z" />
    <glyph glyph-name="U0C2D_U0C3F" horiz-adv-x="536" 
d="M516 202q0 -85 -43 -145q-48 -64 -121 -64q-41 0 -74 16.5t-37 36.5q-26 -52 -107 -52q-53 0 -86 38.5t-33 92.5q0 28 15.5 53.5t35.5 37.5l58 19q41 15 41 43q0 13 -11.5 23t-25.5 10q-32 0 -32 -61h-80q3 35 7 46q32 81 130 81q35 0 60 -26q24 -27 24 -58
q0 -66 -60 -102l-49 -19q-29 -15 -29 -52q0 -42 51 -42q67 0 67 70h68q-7 -69 64 -69q43 0 71 45q20 33 20 71.5t-12 54.5q-9 -16 -36 -32q-32 -17 -57 -17t-43 12q-43 26 -43 83q0 28 22 57q31 33 85 33q76 0 111 -46q23 -27 36 -63.5t13 -74.5zM376 284q0 11 -11 21.5
t-24 12.5q-19 0 -19 -19q0 -12 9 -22q10 -8 23 -10q22 0 22 17zM282 -95h-82v90h82v-90z" />
    <glyph glyph-name="U0C2E_U0C3F" horiz-adv-x="693" 
d="M174 80q15 13 15 33t-14 34t-33 14q-44 0 -44 -47t44 -47q17 0 32 13zM171 356q0 17 -29.5 17t-29.5 -22q0 -24 27 -24q12 0 21 8t11 21zM451 161l15 -44q20 -43 55.5 -43t58 35.5t22.5 72.5t-22 73t-62 36l-30 -1v72l34 2q63 0 107 -54t44 -131.5t-49 -131t-116 -53.5
t-105 44l-3 3q-41 -46 -108 -46q-14 0 -37 10q-20 11 -24 23q-32 -35 -103 -35q-55 0 -85 38q-28 32 -28 79.5t32 80.5q36 42 103 42q49 0 84.5 -38t35.5 -89q0 -19 33.5 -19t55.5 43q20 37 20 90.5t-42.5 99t-89.5 45.5q0 -47 -28 -73q-31 -27 -74 -27t-72 17
q-29 24 -29 56q0 100 134 100q113 0 163 -33q112 -78 112 -212q0 -21 -2 -32z" />
    <glyph glyph-name="U0C2F_U0C3F" horiz-adv-x="883" 
d="M290.5 103.5q35.5 30.5 35.5 79.5t-33 77q-33 30 -80 30t-79 -31q-32 -29 -32 -76.5t29 -80.5q31 -29 77.5 -29t82 30.5zM402 141l13 -29q22 -38 58 -38t57.5 35.5t21.5 74t-19 67.5q-23 40 -64 40h-15l-15 -1v72h16l18 2q60 0 106.5 -53t46.5 -138l-2 -32q16 -67 90 -67
q30 0 54.5 35t24.5 72.5t-20 69.5q-24 40 -64 40h-15l-16 -1v72h17l17 2q64 0 107.5 -53t43.5 -131.5t-49 -132t-114 -53.5q-82 0 -118 60q-51 -60 -121 -60t-107 44l-9 10q-63 -53 -146 -53t-133.5 55.5t-50.5 133t62 130.5t140.5 53t134 -53t55.5 -134q0 -22 -5 -39z" />
    <glyph glyph-name="U0C30_U0C3F" horiz-adv-x="453" 
d="M366.5 363.5q66.5 -60.5 66.5 -140t-40 -136.5q-61 -89 -174 -89q-87 0 -145.5 41.5t-58.5 118.5q0 55 33 88l1 3q-4 16 -10.5 27t-6.5 28q0 46 38 79q46 41 129 41q101 0 167.5 -60.5zM159 278q32 0 32 36.5t-32 36.5q-14 0 -23.5 -11.5t-11.5 -25.5q0 -36 35 -36z
M311 111q37 37 37 86.5t-22 87.5t-58 44h-4l1 -14q0 -53 -44 -82t-99 -29q-18 -10 -18 -48.5t35 -62.5q32 -20 85 -20t87 38z" />
    <glyph glyph-name="U0C31_U0C3F" horiz-adv-x="514" 
d="M340 494q-6 14 -31 14h-12q-5 -3 -6 -19q0 -24 35 -24q14 0 14 29zM146 240q27 0 27 31.5t-27 31.5q-29 0 -29 -31.5t29 -31.5zM428 342q66 -51 66 -169q0 -72 -41.5 -125t-106.5 -53t-104 44q-14 -44 -100 -44q-55 0 -91 46t-36 119t30 134q36 75 105 75q32 0 58 -22.5
t26 -53.5q0 -49 -26 -80h50q-9 24 -9 45q0 41 28 74q-17 5 -31 15t-31 24l51 33q28 -32 83 -32q25 0 52 23q28 22 28 50.5t-28 44.5q0 -32 -30 -57q-28 -17 -53 -17q-85 0 -85 74q0 29 25 53q32 28 90 28t99 -36.5t41 -95.5q0 -40 -37 -78zM148 177q-8 -6 -20.5 -6t-22.5 7
l-4 -29q0 -32 15.5 -60t47.5 -28q45 0 45 58h89l-2 -16q0 -34 41 -34t61 36t20 79t-17 72q-19 36 -52 36q-30 0 -30 -32.5t37 -44.5v-76h-208v38z" />
    <glyph glyph-name="U0C32_U0C3F" horiz-adv-x="454" 
d="M434 235.5q0 -93.5 -48 -157.5q-61 -84 -186 -84q-75 0 -130 46t-55 111q0 122 113 122q37 0 63 -26t26 -69q0 -54 -71 -95q31 -14 65 -14q60 0 101 38q46 46 46 131q0 61 -43 111q-35 39 -78 46q5 -9 5 -18q0 -29 -25 -53q-27 -31 -75.5 -31t-72 17t-23.5 56
q0 101 122 101q131 0 198.5 -69t67.5 -162.5zM171 381q0 22 -33 22q-23 0 -23 -32q0 -14 28 -14t28 24zM156 179q0 38 -38 38q-31 0 -31 -43q0 -33 37 -33q32 0 32 38z" />
    <glyph glyph-name="U0C33_U0C3F" horiz-adv-x="479" 
d="M459 340q0 -67 -88 -117q62 -31 62 -95t-60 -99t-136.5 -35t-121 33.5t-44.5 85t44 87.5q-100 39 -100 120q0 37 32.5 75t83 38t79 -27t28.5 -61q0 -52 -71 -80q5 -17 87 -17t82 25q-23 -3 -47 11q-37 28 -37 70q0 25 25 51q28 34 71 34t72 -19q39 -29 39 -80zM376 358
q0 26 -30 26q-24 0 -24 -26t27 -26t27 26zM160 349q0 29 -34 29t-34 -32q0 -29 43 -29q9 0 17.5 9t7.5 23zM351 124q0 26 -32 44q-28 12 -63.5 12t-65 -14.5t-29.5 -45.5q0 -19 29 -36q33 -14 60.5 -14t58.5 12q42 13 42 42z" />
    <glyph glyph-name="U0C35_U0C3F" horiz-adv-x="473" 
d="M453 193q0 -63 -29 -117q-44 -81 -132 -81q-14 0 -37 10q-20 11 -24 23q-32 -35 -103 -35q-55 0 -85 38q-28 32 -28 79.5t32 80.5q36 42 103 42q49 0 84.5 -38t35.5 -89q0 -19 33.5 -19t55.5 43q20 37 20 90.5t-42.5 99t-89.5 45.5q0 -47 -28 -73q-31 -27 -74 -27t-72 17
q-29 24 -29 56q0 100 134 100q113 0 163 -33q112 -78 112 -212zM171 356q0 17 -29.5 17t-29.5 -22q0 -24 27 -24q12 0 21 8t11 21zM174 80q15 13 15 33t-14 34t-33 14q-44 0 -44 -47t44 -47q17 0 32 13z" />
    <glyph glyph-name="U0C36_U0C3F" horiz-adv-x="512" 
d="M492 140q0 -58 -52 -102t-114.5 -44t-105.5 38t-43 101q0 46 26 84q-42 0 -70 -30.5t-28 -62.5l1 -13h-91q0 88 83 140q68 43 168 43l64 -2q68 39 68 79q0 33 -17 35q0 -42 -33 -68q-25 -18 -64 -18t-67.5 19t-28.5 62t41.5 71t105 28t102.5 -41q36 -35 36 -88
q0 -26 -19 -56l-36 -46q21 -3 47.5 -43.5t26.5 -85.5zM315 404q0 26 -28.5 26t-28.5 -26t28.5 -26t28.5 26zM382 86q22 23 22 51.5t-19.5 50.5t-49.5 22t-50.5 -21t-20.5 -52q0 -74 67 -74q29 0 51 23z" />
    <glyph glyph-name="U0C37_U0C3F" horiz-adv-x="515" 
d="M459 116q-9 -63 -9 -101q0 -79 45 -95q-63 -36 -89 -36q-32 26 -32 93v22q3 13 4 18l-31 -15q-21 -9 -49 -9q-61 0 -81 41q-29 -39 -81.5 -39t-86.5 38.5t-34 90t37 89t99 37.5q79 0 115 -98q9 -23 9 -46q14 -30 39.5 -30t48.5 30q22 31 22 67.5t-16 62.5q-20 35 -53 35
h-27v85q9 4 34 4q59 0 96 -47q40 -55 40 -158v-39zM186 127q0 47 -40 47q-44 0 -44 -47.5t44 -47.5q10 0 25 16t15 32zM233 470q31 -38 31 -93t-58 -105l-51 33q51 56 51 78t-14 27q0 -30 -30 -53t-64.5 -23t-57.5 19t-23 52.5t30 66.5q36 36 94 36t92 -38zM95 425
q0 -33 25.5 -33t25.5 28.5t-25.5 28.5t-25.5 -24z" />
    <glyph glyph-name="U0C38_U0C3F" horiz-adv-x="489" 
d="M421.5 310.5q47.5 -49.5 47.5 -121t-33 -122.5q-45 -75 -129 -75q-68 0 -97 44q-7 12 -27 82q-14 44 -45 44q-36 0 -36 -51q0 -38 21 -68l35 -48h-99q-44 56 -44 109.5t32.5 94.5t105.5 41q55 0 85 -43l32 -79q17 -44 45 -44t54 30q24 33 24 72t-25.5 70t-60.5 31l-20 -4
v87q87 0 134.5 -49.5zM231 470q30 -38 30 -93t-57 -105l-51 33q51 56 51 78t-14 27q0 -30 -30.5 -53t-64.5 -23t-57 19t-23 52.5t30 66.5q36 36 94 36t92 -38zM93 425q0 -33 25.5 -33t25.5 28.5t-27 28.5q-24 0 -24 -24z" />
    <glyph glyph-name="U0C39_U0C3F" horiz-adv-x="751" 
d="M232 470q31 -38 31 -93t-58 -105l-51 33q51 56 51 78t-14 27q0 -30 -30 -53t-64.5 -23t-57.5 19t-23 52.5t30 66.5q36 36 94 36t92 -38zM94 425q0 -33 25.5 -33t25.5 28.5t-27 28.5q-24 0 -24 -24zM638 168q0 29 -34.5 29t-34.5 -31q0 -36 33 -36q36 0 36 38zM174 80
q14 13 14 33t-14 34t-34 14q-45 0 -45 -47t45 -47q20 0 34 13zM433 294q33 -52 33 -137q0 -57 -45.5 -110.5t-119.5 -53.5q-46 0 -77 36q-32 -36 -92 -36t-88.5 35t-28.5 83.5t31 79.5q36 42 103 42q49 0 85 -39t36 -88q9 -27 40 -27h11q23 0 45 29t22 62.5t-20 74.5
q-26 49 -63 49h-28v72h208q127 0 153 -10q93 -36 93 -155q0 -56 -40 -102.5t-100 -46.5q-41 0 -71.5 30t-30.5 75.5t30.5 76.5t87.5 31l36 -4q-17 21 -47 27t-100 6h-63z" />
    <glyph glyph-name="U0C15_U0C4D_U0C37_U0C3F" 
d="M198 494q-7 14 -31 14h-12q-5 -3 -7 -19q0 -24 35 -24q15 0 15 29zM305.5 534.5q40.5 -36.5 40.5 -89.5t-43 -89q73 -24 73 -93h-80q-9 20 -36 31q-11 7 -21.5 8t-26.5 1q-77 0 -77 -51q0 -33 68 -33l35 9q32 8 63 8q48 0 75 -31q22 -22 22 -57q0 -58 -58 -105.5
t-128 -47.5q-90 0 -141 50q-39 37 -39 83h84q0 -22 30 -41t74 -19t69.5 19t25.5 39q0 37 -44 37l-45 -7l-58 -6q-44 0 -81 27q-41 28 -41 69t42 78l24 18q-21 13 -39 29l51 33q29 -32 84 -32q24 0 51 22.5t27 51.5t-27 44q0 -32 -31 -57q-26 -17 -52 -17q-86 0 -86 74
q0 29 28.5 55t87.5 26t99.5 -36.5zM441 -207l-49 -32q-22 26 -22 57v37q-49 -23 -70 -23q-33 0 -76 37q-23 -40 -93 -40q-48 0 -82 38.5t-34 81.5q0 17 6 34l69 -2l-1 -12l-1 -14q0 -22 15 -38.5t40 -16.5q54 0 54 53l-3 12l-1 11h74l-1 -11l-2 -12q0 -49 43 -49q20 0 36 15
q13 18 13 39.5t-21 31.5l32 36q63 -28 63 -102l-2 -36l-3 -35q0 -48 16 -60z" />
    <glyph glyph-name="U0C15_U0C40" horiz-adv-x="401" 
d="M181 496q-6 13 -31 13l-12 -1q-4 -3 -6 -19q0 -24 35 -24q14 0 14 31zM287 356q72 -24 72 -93h-80q-9 20 -35 31q-11 7 -21.5 8t-27.5 1q-77 0 -77 -51q0 -33 69 -33l35 9q32 8 63 8q48 0 74 -31q22 -22 22 -57q0 -58 -57.5 -105.5t-128.5 -47.5q-90 0 -140 50
q-40 37 -40 83h85q0 -22 29.5 -41t73.5 -19t70 19t26 39q0 37 -44 37l-45 -7l-59 -6q-44 0 -81 27q-41 28 -41 69t42 78l24 18q-6 3 -18 13t-20 16l52 34q25 -32 82 -32q23 0 50 22t27 51t-25 45q0 -34 -32 -57q-23 -17 -52 -17q-86 0 -86 74q0 42 50 68q-16 10 -19 36
q0 39 28.5 63.5t69 24.5t65 -27.5t21.5 -56.5h-61q-7 34 -28 34q-27 0 -27 -23t12 -39q68 0 107 -38q39 -34 39 -94q0 -41 -38 -78z" />
    <glyph glyph-name="U0C16_U0C40" horiz-adv-x="559" 
d="M539 184q0 -78 -51.5 -131.5t-127.5 -53.5q-38 0 -55.5 5t-50.5 37q-19 -20 -48 -31q-46 -17 -85.5 -17t-70.5 21q-35 22 -35 63t39 69t85 28q71 0 114 -32q17 75 4.5 102.5t-26.5 28.5q-8 -34 -33 -59q-7 -7 -26 -17q-27 -11 -43 -11q-51 0 -80.5 25.5t-29.5 69.5t61 81
q32 21 88 21q78 0 131 -56q39 -43 39 -127q0 -20 -8 -53q-9 -27 -22 -41q2 -15 19.5 -24.5t35.5 -9.5q34 0 63 28q32 35 32 77t-18 73q-22 33 -63 33l-25 -3v80q27 -3 53 17t26 48q0 9 -6 24q-37 -59 -89 -59q-40 0 -69 21.5t-29 68.5t54 76q-14 43 -14 51q0 45 41 76t85 31
q91 0 91 -110h-75q0 38 -30 38q-34 0 -34 -29t21 -43l13 3q41 0 74 -37q36 -44 36 -98t-42 -95q81 -51 81 -159zM313 481q0 -23 26 -23t26 25.5t-26 25.5t-26 -28zM151 281q0 26 -25.5 26t-25.5 -26t25.5 -26t25.5 26zM198 90q-22 18 -59.5 18t-37.5 -19q0 -21 40.5 -21
t56.5 22zM292 -94h-82v89h82v-89z" />
    <glyph glyph-name="U0C17_U0C40" horiz-adv-x="489" 
d="M155 597q-19 36 -19 72t33.5 64t87 28t86.5 -28q33 -31 33 -72l-1 -15l-77 -1q0 43 -50 43q-34 0 -34 -38q0 -18 21 -38l13 1q30 0 63.5 -16.5t61.5 -50.5q20 -34 20 -72t-17 -68l-28 -30q121 -70 121 -187q0 -135 -109 -194l-56 68q76 29 76 126q0 57 -41.5 92t-99 35
t-97.5 -40q-39 -44 -39 -106q0 -78 65 -102l-51 -76q-102 61 -102 173t84 180l-31 26l63 52q18 -19 36.5 -25t55.5 -6t67 22q28 24 28 57.5t-33 33.5q-7 -27 -38 -45q-35 -23 -74 -23t-65 24.5t-26 56t24.5 55.5t48.5 24zM222 521q0 17 -29 17t-32 -19q0 -18 30.5 -18
t30.5 20z" />
    <glyph glyph-name="U0C18_U0C40" horiz-adv-x="709" 
d="M93 425q0 -33 25.5 -33t25.5 28.5t-27 28.5q-24 0 -24 -24zM319 510h-91l3 19q0 49 -34 49q-38 0 -38 -37l5 -31q97 -33 97 -132q0 -56 -57 -106l-51 33q51 56 51 78t-14 27q0 -30 -30.5 -53t-64.5 -23t-57 19t-23 55q0 46 57 82q1 8 -3 24q-12 71 41 104q43 30 93 30
q64 0 94 -46q22 -37 22 -92zM174 80q14 13 14 33t-15 33q-11 15 -33 15q-44 0 -44 -47t44 -47q20 0 34 13zM641 48q-48 -54 -118 -54t-106 48q-44 -49 -109 -49q-51 0 -84 36q-30 -36 -90.5 -36t-90.5 38q-28 32 -28 79.5t32 80.5q34 42 103 42q49 0 84.5 -39t35.5 -88
q11 -32 43 -32t52 30.5t20 68.5q0 109 -106 109v83q46 0 79 -13.5t61 -45.5q46 -56 46 -129v-5l18 -55q18 -43 59 -43q32 0 54 35.5t22 74t-20 67.5q-23 40 -64 40l-31 -1v72l35 2q64 0 107.5 -54t43.5 -131t-48 -131zM264 -94h-82v89h82v-89z" />
    <glyph glyph-name="U0C19_U0C40" horiz-adv-x="470" 
d="M300 532q-3 14 -31 14l-11 -1q-5 -3 -5 -20q0 -23 34 -23q13 0 13 30zM354 362v-22h54v-74h-165q0 -71 -96 -97q-48 -13 -48 -57t44 -44q18 0 40 15q17 14 19 35v27h77l1 -41q0 -10 13.5 -21.5t31.5 -13.5q18 0 33 14q16 18 16 40q0 41 -38 41q-18 0 -27 -3v77
q81 0 104 -23q34 -36 34 -89.5t-41.5 -92.5t-84.5 -39q-76 0 -94 45q-2 -16 -25 -32q-27 -14 -68.5 -14t-79 30t-37.5 83q0 101 87 121q63 13 63 44q0 12 -9 27q-8 11 -20 13q-14 0 -25.5 -13.5t-11.5 -25.5l2 -11h-88q0 38 20 71q31 52 97 52t95 -46h52v20q-58 8 -103 52
l52 33q27 -32 82 -32q25 0 50 20q29 25 29 53t-26 43q-4 -34 -32 -56q-26 -16 -52 -16q-85 0 -85 72q0 44 50 70q-14 10 -21 35q0 38 29.5 62.5t70 24.5t64 -26.5t20.5 -56.5h-60q-6 33 -28 33q-27 0 -27 -22q0 -25 12 -38q67 0 106 -39q40 -36 40 -93q0 -42 -38 -78
q-25 -27 -58 -37z" />
    <glyph glyph-name="U0C1A_U0C40" horiz-adv-x="569" 
d="M513 339q36 -55 36 -129t-32 -136q-44 -81 -132 -81q-29 0 -51.5 15.5t-22.5 30.5q-23 -45 -102 -45q-54 0 -92 38q-34 40 -34 97q0 10 22 71h-90v65h200v-57q-17 0 -32 -25q-15 -30 -15 -53.5t16 -45.5t41 -22q43 0 43 61l-1 35h84v-35q0 -18 17 -33q16 -12 35 -12
q32 0 54 44q19 35 19 82q0 66 -46 113q3 -24 -30.5 -51.5t-74 -27.5t-72.5 27.5t-32 69t37 68.5q12 9 29 13q-11 21 -11 37q0 65 50 100q37 21 75 21l33 -4q49 -10 70 -41t21 -63l-1 -14l-8 -19l-77 14l2 23q0 27 -34 33l-15 2q-36 0 -46 -40q-3 -13 8 -35q102 0 159 -91z
M353 334q4 28 -24 35q-29 6 -35 -20q-4 -28 20 -35q5 -1 8 -1h5q21 0 26 21z" />
    <glyph glyph-name="U0C1B_U0C40" horiz-adv-x="569" 
d="M513 339q36 -55 36 -129t-32 -136q-44 -81 -132 -81q-29 0 -51.5 15.5t-22.5 30.5q-23 -45 -102 -45q-54 0 -92 38q-34 40 -34 97q0 10 22 71h-90v65h200v-57q-17 0 -32 -25q-15 -30 -15 -53.5t16 -45.5t41 -22q43 0 43 61l-1 35h84v-35q0 -18 17 -33q16 -12 35 -12
q32 0 54 44q19 35 19 82q0 66 -46 113q3 -24 -30.5 -51.5t-74 -27.5t-72.5 27.5t-32 69t37 68.5q12 9 29 13q-11 21 -11 37q0 65 50 100q37 21 75 21l33 -4q49 -10 70 -41t21 -63l-1 -14l-8 -19l-77 14l2 23q0 27 -34 33l-15 2q-36 0 -46 -40q-3 -13 8 -35q102 0 159 -91z
M353 334q4 28 -24 35q-29 6 -35 -20q-4 -28 20 -35q5 -1 8 -1h5q21 0 26 21zM345 -95h-82v90h82v-90z" />
    <glyph glyph-name="U0C1C_U0C40" horiz-adv-x="489" 
d="M17 252l-2 15q0 53 48 79q37 23 80.5 23t65.5 -19q7 -10 25 -41q23 -51 70 -51q36 0 61.5 15t25.5 39.5t-6 30.5q2 -18 -22.5 -36t-53.5 -18t-51.5 20t-22.5 43t14 38q15 13 26 16q-17 22 -17 50q0 44 33 73t80.5 29t75.5 -40q22 -31 20 -75h-68l2 13q0 14 -11.5 26
t-25.5 12q-30 0 -30 -36q0 -16 25 -37q40 0 71 -34q25 -31 25 -75t-24 -76q-36 -50 -122 -50q-19 0 -44.5 13.5t-33.5 26.5q-6 -31 -69 -49q-56 -16 -56 -66q0 -14 11 -26q12 -16 34 -16q53 0 53 61v14h83q-2 -3 -5 -16q0 -25 15.5 -44.5t34.5 -19.5t34.5 13.5t15.5 32.5
t-13 41h86q11 -68 -22 -102q-46 -52 -115 -52q-46 0 -83 43q-25 -45 -95 -45q-26 0 -58 15q-63 35 -63 101q0 28 15.5 59.5t35.5 44.5l66 24q34 11 34 37q0 29 -32 29q-44 0 -44 -32l2 -21h-79zM315 371q-17 0 -17 -22q0 -17 23 -17q16 5 16 22t-22 17z" />
    <glyph glyph-name="U0C1D_U0C40" horiz-adv-x="916" 
d="M327.5 111q36.5 38 36.5 87t-21.5 87t-57.5 44l-4 -14q0 -53 -43.5 -82t-99.5 -29q-18 -11 -18 -49.5t34.5 -60t85.5 -21.5t87.5 38zM175 278q31 0 31 36.5t-31 36.5q-15 0 -24 -12.5t-11 -24.5q0 -36 35 -36zM657 -94h-82v89h82v-89zM436 139l11 -27q22 -38 57.5 -38
t58 35.5t22.5 74t-19 67.5q-24 40 -65 40h-14l-15 -1v72h16l17 2q61 0 107.5 -53t46.5 -138q0 -22 -3 -32q17 -67 89 -67q32 0 56 35t24 72.5t-22 73.5t-63 36h-13l-16 -1v72h17l17 2q63 0 107 -54t44 -131.5t-49 -131t-115 -53.5q-81 0 -117 60q-51 -60 -121 -60t-107 44
l-10 12q-55 -52 -142 -52t-143 40q-62 43 -62 120q0 55 35 88q-50 124 63 159l1 7q-20 27 -20 77.5t34 83.5t78.5 33t73 -31.5t28.5 -75.5q0 -16 -2 -22l-72 1l1 8l2 11q0 13 -9 24t-27 13q-39 0 -39 -48q0 -34 26 -62l5 -1l6 1q107 0 171.5 -60.5t64.5 -145.5
q0 -43 -14 -79z" />
    <glyph glyph-name="U0C1E_U0C40" horiz-adv-x="705" 
d="M340 502q-6 13 -31 13l-12 -1q-5 -4 -5 -18q0 -25 34 -25q14 0 14 31zM307 87q-38 31 -79 31q-19 0 -30 -2l-25 -7q-12 -3 -16 -12l-2 -7q0 -11 17 -20t38.5 -9.5t25.5 -0.5q36 0 71 27zM371 43q-58 -49 -143.5 -49t-127 24t-41.5 67q0 78 154 98l36 2q52 0 105 -30
q20 26 20 60t-12 61q-15 30 -36 30t-33.5 -18.5t-12.5 -40.5l2 -19h-95q0 73 -53 73q-28 0 -28 -36q-3 -36 20 -49h-102q-9 27 -9 42q0 46 37.5 79.5t84.5 39.5q23 0 36 -1t22 -7l39 -24l11 11q-9 6 -16 10.5t-14 12.5l52 33q27 -32 82 -32q26 0 53 22.5t27 50t-27 45.5
q-3 -35 -32 -56q-23 -18 -52 -18q-84 0 -84 74q0 44 48 68q-14 11 -19 35q0 40 28 64t68.5 24t66.5 -27q24 -27 20 -56h-60q-7 34 -29 34q-25 0 -25 -23q0 -25 12 -39q66 0 105.5 -37t39.5 -94q0 -42 -38 -79q-14 -15 -32 -26l7 -8q38 -42 38 -108h32v56h90v-54h99v-76h-90
v-60h-97v60l-34 -6l-24 -41l54 -92l-69 -50z" />
    <glyph glyph-name="U0C1F_U0C40" horiz-adv-x="533" 
d="M363 487q-4 14 -30 14l-11 -1q-4 -1 -7 -20q0 -23 34 -23q14 0 14 30zM191 276q0 13 -10 23t-23 12q-11 0 -21.5 -10.5t-10.5 -24.5q0 -37 32 -37q12 0 21.5 11t11.5 26zM444 329l19 -19q43 -54 43 -131.5t-43.5 -131t-112 -53.5t-97.5 55q-29 -55 -91 -55t-104.5 57.5
t-42.5 130.5t27 125.5t76 59.5v116h66v-112q26 -4 49 -23q31 -28 31 -75t-35 -78t-84 -31t-62 31q0 -56 24.5 -89t53 -33t45 24.5t16.5 49.5h80l2 -14q3 -5 3 -13q0 -28 37 -43q7 -3 15 -4q32 0 56 36q19 36 19 75q0 71 -54 107l-44 23q-56 10 -97 51l52 33q28 -32 83 -32
q24 0 50 20q28 25 28 53t-26 43q0 -32 -33 -56q-24 -16 -50 -16q-86 0 -86 72q0 44 50 70q-15 10 -20 35q0 41 29 64t69.5 23t64.5 -26t20 -57h-60q-7 33 -28 33q-27 0 -27 -22q0 -25 13 -38q66 0 105.5 -37t39.5 -95q0 -40 -37 -78q-6 -8 -9.5 -11t-22.5 -14z" />
    <glyph glyph-name="U0C20_U0C40" horiz-adv-x="454" 
d="M212 145q-34 0 -34 37q0 10 5 18q9 17 31 17q9 0 21.5 -7.5t12.5 -23.5t-4 -25q-9 -16 -32 -16zM369 363.5q65 -60.5 65 -139.5t-41 -137q-61 -89 -174 -89q-87 0 -145.5 41.5t-58.5 118.5q0 55 34 88q-4 16 -10.5 30t-6.5 28q0 35 19 59t61 42l2 7q-21 27 -21 77.5
t34 84.5q34 32 78.5 32t73 -31.5t28.5 -75.5q0 -16 -3 -22l-70 1l1 8l1 11q0 13 -9.5 24t-25.5 13q-40 0 -40 -48q0 -34 27 -62l4 -1l7 1q105 0 170 -60.5zM159 278q32 0 32 36.5t-32 36.5q-14 0 -24 -12.5t-11 -24.5q0 -36 35 -36zM312 111q36 38 36 87t-22 87t-58 44
l-3 -14q0 -53 -43.5 -82t-99.5 -29q-18 -11 -18 -49.5t34 -60t86 -21.5t88 38z" />
    <glyph glyph-name="U0C21_U0C40" horiz-adv-x="468" 
d="M235 501q-7 17 -33 17q-8 0 -14.5 -3.5t-6.5 -19t13.5 -22.5t24.5 -7q16 0 16 35zM351 365h34v-66h-172q-59 0 -93 -38q-29 -35 -29 -83.5t17.5 -77t48.5 -28.5q15 0 32 20q13 23 13 45l-2 15h82l-2 -17q0 -56 46 -56q20 0 36 20t16 41t-14 34q-9 12 -24 15q-28 0 -39 -9
v82q17 5 40 5t46 -16q61 -37 61 -109t-44 -115q-39 -33 -88.5 -33t-82.5 42q-31 -43 -91 -43q-85 0 -118 111q-9 31 -9 64q0 87 47 138q27 30 65 45q-12 9 -23 20l53 34q27 -32 86 -32q22 0 54 24q27 23 27 51t-27 46q-4 -37 -33 -59q-26 -16 -54 -16q-88 0 -88 75
q0 47 50 70q-16 12 -19 37q0 40 29.5 65t70.5 25t69 -28q23 -28 20 -59h-62q-8 36 -30 36q-27 0 -27 -23v-20q1 -7 13 -19q67 0 108.5 -39.5t41.5 -96.5q0 -38 -35 -77z" />
    <glyph glyph-name="U0C22_U0C40" horiz-adv-x="468" 
d="M235 501q-7 17 -33 17q-8 0 -14.5 -3.5t-6.5 -19t13.5 -22.5t24.5 -7q16 0 16 35zM351 365h34v-66h-172q-59 0 -93 -38q-29 -35 -29 -83.5t17.5 -77t48.5 -28.5q15 0 32 20q13 23 13 45l-2 15h82l-2 -17q0 -56 46 -56q20 0 36 20t16 41t-14 34q-9 12 -24 15q-28 0 -39 -9
v82q17 5 40 5t46 -16q61 -37 61 -109t-44 -115q-39 -33 -88.5 -33t-82.5 42q-31 -43 -91 -43q-85 0 -118 111q-9 31 -9 64q0 87 47 138q27 30 65 45q-12 9 -23 20l53 34q27 -32 86 -32q22 0 54 24q27 23 27 51t-27 46q-4 -37 -33 -59q-26 -16 -54 -16q-88 0 -88 75
q0 47 50 70q-16 12 -19 37q0 40 29.5 65t70.5 25t69 -28q23 -28 20 -59h-62q-8 36 -30 36q-27 0 -27 -23v-20q1 -7 13 -19q67 0 108.5 -39.5t41.5 -96.5q0 -38 -35 -77zM276 -95h-83v90h83v-90z" />
    <glyph glyph-name="U0C23_U0C40" horiz-adv-x="486" 
d="M316 494q-5 14 -29 14l-12 -1q-5 -2 -7 -20q0 -23 34 -23q14 0 14 30zM358 96q0 15 -11 28.5t-25.5 14t-28.5 -12.5q-11 -15 -11 -28q0 -39 40 -39q36 0 36 37zM399 336q14 -13 29 -34q29 -55 29 -121t-27 -121q-37 -66 -107 -66q-45 0 -77.5 25.5t-32.5 72t27.5 75.5
t78 29t62.5 -19q0 24 -3 42.5t-15 37.5q-17 35 -51 35q-37 0 -37 -42h-78q0 21 -19 39q-17 14 -33 14q-46 0 -46 -32q0 -14 11.5 -26t24 -12t20.5 4v-66l-9 1q-20 0 -36 -16q-16 -18 -16 -39.5t16.5 -33t33 -11.5t24.5 4v-75q-22 -6 -43 -6q-45 0 -78 28q-31 28 -31 72
q0 76 41 98q-42 23 -42 71t39 75.5t88.5 27.5t85.5 -35l8 6q-14 7 -20 12.5t-24 20.5l52 33q27 -32 82 -32q25 0 51 20q27 25 27 54t-25 44q0 -33 -32 -57q-24 -17 -51 -17q-86 0 -86 74q0 43 49 68q-14 10 -20 35q0 42 29.5 65t69.5 23t64 -26.5t21 -56.5h-60q-7 34 -28 34
q-27 0 -27 -22.5t13 -39.5q66 0 105.5 -36.5t39.5 -95.5q0 -38 -37 -78q-16 -15 -30 -24z" />
    <glyph glyph-name="U0C24_U0C40" horiz-adv-x="490" 
d="M470 197q0 -53 -31 -99.5t-80 -70.5q-59 -32 -125.5 -32t-112.5 22q-106 45 -106 145q0 50 24 81q34 48 96 48q88 0 88 -87q0 -27 -24 -56.5t-54 -29.5t-55 17q23 -71 147 -71q66 0 109 28q46 26 46 72q-46 -27 -77 -27q-78 0 -78 93q0 41 30 61.5t69 20.5q-4 21 -23 42
q-17 21 -35 22q0 -16 -2 -22q0 -12 -9 -19q-30 -29 -90 -29q-34 0 -57 17q-29 16 -29 53q0 55 51 69l-7 44q0 53 40 86q38 29 84 29t77 -24q41 -28 41 -91h-78q0 16 -11 31.5t-30 15.5q-48 0 -48 -45q0 -27 26 -27q77 0 141 -76q32 -45 32 -92q36 -10 55 -64q6 -16 6 -35z
M219 380q0 20 -32 20q-22 0 -22 -19q0 -6 12 -11.5t25.5 -5.5t16.5 16zM334 195q22 0 22 27t-24 27t-24 -21q0 -33 26 -33zM140 180q18 0 18 27.5t-29 27.5q-20 0 -20 -25q0 -30 31 -30z" />
    <glyph glyph-name="U0C25_U0C40" horiz-adv-x="476" 
d="M194 421q30 5 52 5q90 0 150 -67t60 -167q0 -77 -36 -129q-21 -27 -54 -48.5t-61 -21.5q-47 0 -82 36h-6q-47 -34 -80 -34q-55 0 -88.5 41.5t-33.5 96.5t61 112v4q-26 35 -26 61t16 54q17 27 52 39q-26 30 -26 84.5t33 87t79 32.5t73.5 -31.5t27.5 -75.5q0 -14 -2 -21
h-70l1 10l1 9q0 13 -10 25.5t-25 12.5q-40 0 -40 -49q0 -37 34 -66zM199 324q0 12 -11 21.5t-23 9.5q-31 0 -31 -31q0 -12 8.5 -22t22.5 -10q34 0 34 32zM386 195q0 68 -34 111q-31 37 -82 37q0 -55 -45 -99q-32 -30 -86 -30q-37 -23 -37 -69q0 -62 44 -62q49 0 49 57
q-1 1 -2 10h75q0 -24 3 -34q10 -35 43 -35q47 0 68 76q4 17 4 38zM261 -95h-81v90h81v-90zM259 174q-7 -16 -31 -16q-11 0 -18 5q-17 9 -17 31q0 10 6 19q9 16 32 16q11 0 17 -5q16 -8 16 -32q0 -10 -5 -18z" />
    <glyph glyph-name="U0C26_U0C40" horiz-adv-x="476" 
d="M194 421q30 5 52 5q90 0 150 -67t60 -167q0 -77 -36 -129q-21 -27 -54 -48.5t-61 -21.5q-47 0 -82 36h-6q-47 -34 -80 -34q-55 0 -88.5 41.5t-33.5 96.5t61 112v4q-26 35 -26 61t16 54q17 27 52 39q-26 30 -26 84.5t33 87t79 32.5t73.5 -31.5t27.5 -75.5q0 -14 -2 -21
h-70l1 10l1 9q0 13 -10 25.5t-25 12.5q-40 0 -40 -49q0 -37 34 -66zM199 324q0 12 -11 21.5t-23 9.5q-31 0 -31 -31q0 -12 8.5 -22t22.5 -10q34 0 34 32zM386 195q0 68 -34 111q-31 37 -82 37q0 -55 -45 -99q-32 -30 -86 -30q-37 -23 -37 -69q0 -62 44 -62q49 0 49 57
q-1 1 -2 10h75q0 -24 3 -34q10 -35 43 -35q47 0 68 76q4 17 4 38z" />
    <glyph glyph-name="U0C27_U0C40" horiz-adv-x="476" 
d="M194 421q30 5 52 5q90 0 150 -67t60 -167q0 -77 -36 -129q-21 -27 -54 -48.5t-61 -21.5q-47 0 -82 36h-6q-47 -34 -80 -34q-55 0 -88.5 41.5t-33.5 96.5t61 112v4q-26 35 -26 61t16 54q17 27 52 39q-26 30 -26 84.5t33 87t79 32.5t73.5 -31.5t27.5 -75.5q0 -14 -2 -21
h-70l1 10l1 9q0 13 -10 25.5t-25 12.5q-40 0 -40 -49q0 -37 34 -66zM199 324q0 12 -11 21.5t-23 9.5q-31 0 -31 -31q0 -12 8.5 -22t22.5 -10q34 0 34 32zM386 195q0 68 -34 111q-31 37 -82 37q0 -55 -45 -99q-32 -30 -86 -30q-37 -23 -37 -69q0 -62 44 -62q49 0 49 57
q-1 1 -2 10h75q0 -24 3 -34q10 -35 43 -35q47 0 68 76q4 17 4 38zM261 -95h-81v90h81v-90z" />
    <glyph glyph-name="U0C28_U0C40" horiz-adv-x="489" 
d="M469 214q0 -70 -35 -132q-47 -85 -142 -85q-49 0 -78.5 25.5t-32.5 64.5q0 48 -6 62q-10 29 -37 29q-42 0 -42 -61t74 -122h-99q-21 10 -38.5 48t-17.5 77q0 62 38.5 99t91.5 37q98 0 121 -96l15 -55q9 -21 33 -21q32 0 52.5 42.5t20.5 90.5t-40 95q-48 57 -104 57l2 -24
q-7 -31 -45 -53q-34 -16 -76 -16q-84 0 -84 78q0 67 84 79q-11 25 -11 45q0 44 29.5 71t81.5 27q88 0 111 -100h-74q-8 34 -39 34q-14 0 -24 -10t-12 -23q0 -16 12 -38q8 4 18 4h16q109 0 173 -70t64 -159zM164 349q0 21 -27.5 21t-27.5 -21q0 -23 27 -23q9 0 17 6.5
t11 16.5z" />
    <glyph glyph-name="U0C2A_U0C40" horiz-adv-x="485" 
d="M419 306q46 -56 46 -130t-44.5 -128.5t-112.5 -54.5q-51 0 -84 36q-30 -36 -90.5 -36t-90.5 38q-28 32 -28 79.5t32 80.5q34 42 103 42q49 0 84.5 -39t35.5 -88q11 -32 43 -32t52 30.5t20 68.5q0 109 -106 109v83q46 0 79 -13.5t61 -45.5zM174 80q14 13 14 33t-15 33
q-11 15 -33 15q-44 0 -44 -47t44 -47q20 0 34 13zM319 510h-91l3 19q0 49 -34 49q-38 0 -38 -37l5 -31q97 -33 97 -132q0 -56 -57 -106l-51 33q51 56 51 78t-14 27q0 -30 -30.5 -53t-64.5 -23t-57 19t-23 55q0 46 57 82q1 8 -3 24l-6 26q0 42 47 78q43 30 93 30q64 0 94 -46
q22 -37 22 -92zM93 425q0 -33 25.5 -33t25.5 28.5t-27 28.5q-24 0 -24 -24z" />
    <glyph glyph-name="U0C2B_U0C40" horiz-adv-x="485" 
d="M419 306q46 -56 46 -130t-44.5 -128.5t-112.5 -54.5q-51 0 -84 36q-30 -36 -90.5 -36t-90.5 38q-28 32 -28 79.5t32 80.5q34 42 103 42q49 0 84.5 -39t35.5 -88q11 -32 43 -32t52 30.5t20 68.5q0 109 -106 109v83q46 0 79 -13.5t61 -45.5zM174 80q14 13 14 33t-15 33
q-11 15 -33 15q-44 0 -44 -47t44 -47q20 0 34 13zM264 -95h-82v90h82v-90zM319 510h-91l3 19q0 49 -34 49q-38 0 -38 -37l5 -31q97 -33 97 -132q0 -56 -57 -106l-51 33q51 56 51 78t-14 27q0 -30 -30.5 -53t-64.5 -23t-57 19t-23 55q0 46 57 82q1 8 -3 24l-6 26q0 42 47 78
q43 30 93 30q64 0 94 -46q22 -37 22 -92zM93 425q0 -33 25.5 -33t25.5 28.5t-27 28.5q-24 0 -24 -24z" />
    <glyph glyph-name="U0C2C_U0C40" horiz-adv-x="536" 
d="M376 284q0 11 -11 21.5t-24 12.5q-19 0 -19 -19q0 -12 9 -22q10 -8 23 -10q22 0 22 17zM279 359l-15 32q-8 21 -8 42q0 53 36.5 84t82.5 31t76 -35.5t30 -73.5q0 -13 -3 -22h-77l2 20q0 10 -9.5 22t-24.5 12q-34 0 -34 -43q0 -23 21 -41v-1q76 0 111 -46q23 -27 36 -63.5
t13 -74.5q0 -85 -43 -145q-48 -64 -121 -64q-41 0 -74 16.5t-37 36.5q-26 -52 -107 -52q-53 0 -86 38.5t-33 92.5q0 28 15.5 53.5t35.5 37.5l58 19q41 15 41 43q0 13 -11.5 23t-25.5 10q-32 0 -32 -61h-80q3 35 7 46q32 81 130 81q35 0 60 -26q24 -27 24 -58q0 -66 -60 -102
l-49 -19q-29 -15 -29 -52q0 -42 51 -42q67 0 67 70h68q-7 -69 64 -69q43 0 71 45q20 33 20 71.5t-12 54.5q-9 -16 -36 -32q-32 -17 -57 -17t-43 12q-43 26 -43 83q0 28 22 57z" />
    <glyph glyph-name="U0C2D_U0C40" horiz-adv-x="536" 
d="M376 284q0 11 -11 21.5t-24 12.5q-19 0 -19 -19q0 -12 9 -22q10 -8 23 -10q22 0 22 17zM279 359l-15 32q-8 21 -8 42q0 53 36.5 84t82.5 31t76 -35.5t30 -73.5q0 -13 -3 -22h-77l2 20q0 10 -9.5 22t-24.5 12q-34 0 -34 -43q0 -23 21 -41v-1q76 0 111 -46q23 -27 36 -63.5
t13 -74.5q0 -85 -43 -145q-48 -64 -121 -64q-41 0 -74 16.5t-37 36.5q-26 -52 -107 -52q-53 0 -86 38.5t-33 92.5q0 28 15.5 53.5t35.5 37.5l58 19q41 15 41 43q0 13 -11.5 23t-25.5 10q-32 0 -32 -61h-80q3 35 7 46q32 81 130 81q35 0 60 -26q24 -27 24 -58q0 -66 -60 -102
l-49 -19q-29 -15 -29 -52q0 -42 51 -42q67 0 67 70h68q-7 -69 64 -69q43 0 71 45q20 33 20 71.5t-12 54.5q-9 -16 -36 -32q-32 -17 -57 -17t-43 12q-43 26 -43 83q0 28 22 57zM282 -95h-82v90h82v-90z" />
    <glyph glyph-name="U0C2E_U0C40" horiz-adv-x="693" 
d="M174 80q15 13 15 33t-14 34t-33 14q-44 0 -44 -47t44 -47q17 0 32 13zM171 356q0 17 -29.5 17t-29.5 -22q0 -24 27 -24q12 0 21 8t11 21zM448 152q5 -13 7 -20.5t7 -14.5q24 -43 59.5 -43t58 35.5t22.5 72.5t-22 73t-62 36l-30 -1v72l34 2q63 0 107 -54t44 -131.5
t-49 -131t-116 -53.5t-105 44l-3 3q-41 -46 -108 -46q-14 0 -37 10q-20 11 -24 23q-32 -35 -103 -35q-55 0 -85 38q-28 32 -28 79.5t32 80.5q36 42 103 42q49 0 84.5 -38t35.5 -89q0 -19 33.5 -19t55.5 43q20 37 20 90.5t-42.5 99t-89.5 45.5q0 -47 -28 -73q-31 -27 -74 -27
t-72 17q-29 24 -29 56q0 65 59 92q-11 18 -11 53.5t35 66t83 30.5q67 0 102 -49q28 -35 28 -68h-86q0 46 -46 46q-38 0 -38 -40q0 -14 8 -31l30 1q80 0 133 -34q112 -78 112 -212z" />
    <glyph glyph-name="U0C2F_U0C40" horiz-adv-x="1154" 
d="M1042 169q0 21 -7 29.5t-33 8.5q-33 0 -33 -41t33 -41q14 0 28 14q10 13 12 30zM290.5 103.5q35.5 30.5 35.5 79.5t-33 77q-33 30 -80 30t-79 -31q-32 -29 -32 -76.5t29 -80.5q31 -29 77.5 -29t82 30.5zM346 50l-2 -2q-62 -53 -145 -53t-133.5 55.5t-50.5 133t62 130.5
t140.5 53t134 -53t55.5 -134l-4 -36l15 -32q21 -38 56.5 -38t57.5 37q21 31 21 71t-19 69q-23 40 -64 40h-15l-14 -1v72h16l17 2q60 0 106.5 -53t46.5 -138l-1 -32q15 -67 89 -67q30 0 54.5 35t24.5 70.5t-17 67.5t-51 42h-47v76h314q73 0 112 -61q29 -44 29 -89
q0 -64 -37.5 -109.5t-96.5 -45.5q-39 0 -71 31.5t-32 74t32 74.5q31 28 75 28q19 0 34 -6q-8 18 -29 25l-49 2h-125q30 -50 30 -119.5t-48 -122.5t-116 -53q-82 0 -118 60q-49 -60 -120 -60t-108 44z" />
    <glyph glyph-name="U0C30_U0C40" horiz-adv-x="454" 
d="M369 363.5q65 -60.5 65 -139.5t-41 -137q-61 -89 -174 -89q-87 0 -145.5 41.5t-58.5 118.5q0 55 34 88q-4 16 -10.5 30t-6.5 28q0 35 19 59t61 42l2 7q-21 27 -21 77.5t34 84.5q34 32 78.5 32t73 -31.5t28.5 -75.5q0 -16 -3 -22l-70 1l1 8l1 11q0 13 -9.5 24t-25.5 13
q-40 0 -40 -48q0 -34 27 -62l4 -1l7 1q105 0 170 -60.5zM159 278q32 0 32 36.5t-32 36.5q-14 0 -24 -12.5t-11 -24.5q0 -36 35 -36zM312 111q36 38 36 87t-22 87t-58 44l-3 -14q0 -53 -43.5 -82t-99.5 -29q-18 -11 -18 -49.5t34 -60t86 -21.5t88 38z" />
    <glyph glyph-name="U0C31_U0C40" horiz-adv-x="514" 
d="M340 496q-6 13 -31 13l-12 -1q-5 -3 -6 -19q0 -24 35 -24q14 0 14 31zM146 240q27 0 27 31.5t-27 31.5q-29 0 -29 -31.5t29 -31.5zM428 342q66 -51 66 -169q0 -72 -41.5 -125t-106.5 -53t-104 44q-14 -44 -100 -44q-55 0 -91 46t-36 119t30 134q36 75 105 75
q32 0 58 -22.5t26 -53.5q0 -49 -26 -80h50q-9 24 -9 45q0 41 28 74q-36 14 -62 39l52 34q25 -32 82 -32q25 0 50 20q29 26 29 54t-27 44q0 -33 -31 -57q-24 -17 -52 -17q-85 0 -85 74q0 43 49 68q-16 10 -19 36q0 39 29 63.5t68.5 24.5t63.5 -26.5t21 -57.5h-59
q-7 34 -29 34q-26 0 -26 -22.5t12 -39.5q65 0 105 -36t40 -96q0 -40 -37 -78zM148 177q-8 -6 -20.5 -6t-22.5 7l-4 -29q0 -32 15.5 -60t47.5 -28q45 0 45 58h89l-2 -16q0 -34 41 -34t61 36t20 79t-17 72q-19 36 -52 36q-30 0 -30 -32.5t37 -44.5v-76h-208v38z" />
    <glyph glyph-name="U0C32_U0C40" horiz-adv-x="454" 
d="M434 235q0 -93 -48 -157q-61 -84 -186 -84q-75 0 -130 46t-55 111q0 122 113 122q37 0 63 -26t26 -69q0 -54 -71 -95q31 -14 65 -14q60 0 101 38q46 46 46 131q0 61 -43 111q-35 39 -78 46q5 -9 5 -18q0 -29 -25 -53q-27 -31 -72 -31t-76.5 21t-31.5 59q0 52 64 80
q-18 28 -18 65.5t38.5 64t86 26.5t80.5 -31q34 -34 34 -80h-35l-41 1q0 48 -47 48q-16 0 -31 -13q-11 -13 -11 -29q0 -24 35 -41q111 0 176.5 -68t65.5 -161zM168 381q0 19 -29 19q-21 0 -21 -29q0 -13 25 -13t25 23zM161 179q0 38 -37 38q-32 0 -32 -43q0 -33 37 -33
q32 0 32 38z" />
    <glyph glyph-name="U0C33_U0C40" horiz-adv-x="492" 
d="M472 469h-74q0 13 -11 31q-12 13 -29 13q-31 0 -31 -34q0 -24 21 -34q22 0 36 -5t34 -19q41 -30 41 -81q0 -67 -88 -117q62 -31 62 -95t-60 -99t-136.5 -35t-121 33.5t-44.5 85t44 87.5q-100 39 -100 120q0 37 32.5 75t83 38t79 -27t28.5 -61q0 -52 -71 -80q5 -17 87 -17
t82 25q-23 -3 -47 11q-37 28 -37 65.5t30 61.5q-25 24 -25 75q0 32 27.5 62.5t77.5 30.5q110 0 110 -110zM376 358q0 26 -30 26q-24 0 -24 -26t27 -26t27 26zM160 349q0 29 -34 29t-34 -32q0 -29 43 -29q9 0 17.5 9t7.5 23zM351 124q0 26 -32 44q-28 12 -63.5 12t-65 -14.5
t-29.5 -45.5q0 -19 29 -36q33 -14 60.5 -14t58.5 12q42 13 42 42z" />
    <glyph glyph-name="U0C35_U0C40" horiz-adv-x="473" 
d="M453 193q0 -63 -29 -117q-44 -81 -132 -81q-14 0 -37 10q-20 11 -24 23q-32 -35 -103 -35q-55 0 -85 38q-28 32 -28 79.5t32 80.5q36 42 103 42q49 0 84.5 -38t35.5 -89q0 -19 33.5 -19t55.5 43q20 37 20 90.5t-42.5 99t-89.5 45.5q0 -47 -28 -73q-31 -27 -74 -27t-72 17
q-29 24 -29 56q0 65 59 92q-11 18 -11 53.5t35 66t83 30.5q67 0 102 -49q28 -35 28 -68h-86q0 46 -46 46q-38 0 -38 -40q0 -14 8 -31l30 1q80 0 133 -34q112 -78 112 -212zM171 356q0 17 -29.5 17t-29.5 -22q0 -24 27 -24q12 0 21 8t11 21zM174 80q15 13 15 33t-14 34
t-33 14q-44 0 -44 -47t44 -47q17 0 32 13z" />
    <glyph glyph-name="U0C36_U0C40" horiz-adv-x="512" 
d="M492 139q0 -59 -52.5 -102.5t-114.5 -43.5t-105 37t-43 101q0 47 26 85q-42 0 -70 -30.5t-28 -63.5l1 -14h-91q0 90 83 141q67 44 168 44l64 -2q67 37 67 80q0 33 -16 34q0 -45 -33 -68q-25 -19 -63 -19t-69 18q-28 23 -28 59q0 60 51 80l-6 49q0 43 39 74.5t88.5 31.5
t77.5 -28.5t28 -83.5h-76q1 18 -11 33q-16 12 -35 12q-45 0 -45 -37q0 -15 6 -27h43q52 0 87 -39q38 -37 38 -91q0 -26 -20 -55l-35 -45q22 -4 48 -44.5t26 -85.5zM321 404q0 26 -29 26t-29 -26t29 -26t29 26zM381.5 84.5q22.5 22.5 22.5 51t-19.5 50.5t-48 22t-51.5 -22
q-21 -22 -21 -50q0 -74 67 -74q28 0 50.5 22.5z" />
    <glyph glyph-name="U0C37_U0C40" horiz-adv-x="515" 
d="M459 116q-9 -63 -9 -101q0 -79 45 -95q-63 -36 -89 -36q-32 26 -32 93v22q3 13 4 18l-31 -15q-21 -9 -49 -9q-61 0 -81 41q-29 -39 -81.5 -39t-86.5 38.5t-34 90t37 89t99 37.5q79 0 115 -98q9 -23 9 -46q14 -30 39.5 -30t48.5 30q22 31 22 67.5t-16 62.5q-20 35 -53 35
h-27v85q9 4 34 4q59 0 96 -47q40 -55 40 -158v-39zM186 127q0 47 -40 47q-44 0 -44 -47.5t44 -47.5q10 0 25 16t15 32zM322 510h-91l2 19q0 49 -34 49q-38 0 -38 -37l5 -31q98 -33 98 -132q0 -56 -58 -106l-51 33q51 56 51 78t-14 27q0 -30 -30 -53t-64.5 -23t-57.5 19
t-23 55q0 46 57 82q2 8 -3 24l-5 26q0 42 46 78q43 30 93 30q64 0 94 -46q23 -37 23 -92zM95 425q0 -33 25.5 -33t25.5 28.5t-25.5 28.5t-25.5 -24z" />
    <glyph glyph-name="U0C38_U0C40" horiz-adv-x="489" 
d="M421.5 310.5q47.5 -49.5 47.5 -121t-33 -122.5q-45 -75 -129 -75q-68 0 -97 44q-7 12 -27 82q-14 44 -45 44q-36 0 -36 -51q0 -38 21 -68l35 -48h-99q-44 56 -44 109.5t32.5 94.5t105.5 41q55 0 85 -43l32 -79q17 -44 45 -44t54 30q24 33 24 72t-25.5 70t-60.5 31l-20 -4
v87q87 0 134.5 -49.5zM319 510h-91l3 19q0 49 -34 49q-38 0 -38 -37l5 -31q97 -33 97 -132q0 -56 -57 -106l-51 33q51 56 51 78t-14 27q0 -30 -30.5 -53t-64.5 -23t-57 19t-23 55q0 46 57 82q1 8 -3 24l-6 26q0 42 47 78q43 30 93 30q64 0 94 -46q22 -37 22 -92zM93 425
q0 -33 25.5 -33t25.5 28.5t-27 28.5q-24 0 -24 -24z" />
    <glyph glyph-name="U0C39_U0C40" horiz-adv-x="751" 
d="M321 510h-91l2 19q0 49 -34 49q-38 0 -38 -37l5 -31q98 -33 98 -132q0 -56 -58 -106l-51 33q51 56 51 78t-14 27q0 -30 -30 -53t-64.5 -23t-57.5 19t-23 55q0 46 57 82q1 8 -3 24l-5 26q0 42 46 78q43 30 93 30q64 0 94 -46q23 -37 23 -92zM94 425q0 -33 25.5 -33
t25.5 28.5t-27 28.5q-24 0 -24 -24zM638 168q0 29 -34.5 29t-34.5 -31q0 -36 33 -36q36 0 36 38zM174 80q14 13 14 33t-14 34t-34 14q-45 0 -45 -47t45 -47q20 0 34 13zM433 294q33 -52 33 -137q0 -57 -45.5 -110.5t-119.5 -53.5q-46 0 -77 36q-32 -36 -92 -36t-88.5 35
t-28.5 83.5t31 79.5q36 42 103 42q49 0 85 -39t36 -88q9 -27 40 -27h11q23 0 45 29t22 62.5t-20 74.5q-26 49 -63 49h-28v72h208q127 0 153 -10q93 -36 93 -155q0 -56 -40 -102.5t-100 -46.5q-41 0 -71.5 30t-30.5 75.5t30.5 76.5t87.5 31l36 -4q-17 21 -47 27t-100 6h-63z
" />
    <glyph glyph-name="U0C15_U0C4D_U0C37_U0C40" horiz-adv-x="435" 
d="M198 496q-7 13 -31 13l-12 -1q-5 -3 -7 -19q0 -24 35 -24q15 0 15 31zM346 439q0 -47 -43 -83q73 -24 73 -93h-80q-9 20 -36 31q-11 7 -21.5 8t-26.5 1q-77 0 -77 -51q0 -33 68 -33l35 9q32 8 63 8q48 0 75 -31q22 -22 22 -57q0 -58 -58 -105.5t-128 -47.5q-90 0 -141 50
q-39 37 -39 83h84q0 -22 30 -41t74 -19t69.5 19t25.5 39q0 37 -44 37l-45 -7l-58 -6q-44 0 -81 27q-41 28 -41 69t42 78l24 18q-7 3 -19 13t-20 16l52 34q25 -32 83 -32q23 0 50 22t27 51t-26 45q0 -34 -32 -57q-23 -17 -51 -17q-86 0 -86 74q0 42 49 68q-15 10 -18 36
q0 39 28.5 63.5t68.5 24.5t65 -27.5t21 -56.5h-60q-8 34 -29 34q-26 0 -26 -23t12 -39q67 0 107 -38q38 -34 38 -94zM441 -207l-49 -32q-22 26 -22 57v37q-49 -23 -70 -23q-33 0 -76 37q-23 -40 -93 -40q-48 0 -82 38.5t-34 81.5q0 17 6 34l69 -2l-1 -12l-1 -14
q0 -22 15 -38.5t40 -16.5q54 0 54 53l-3 12l-1 11h74l-1 -11l-2 -12q0 -49 43 -49q20 0 36 15q13 18 13 39.5t-21 31.5l32 36q63 -28 63 -102l-2 -36l-3 -35q0 -48 16 -60z" />
    <glyph glyph-name="U0C15_U0C46" horiz-adv-x="401" 
d="M326 336q33 -26 33 -73h-80q-9 20 -35 31q-11 7 -21.5 8t-27.5 1q-77 0 -77 -51q0 -33 69 -33l35 9q32 8 63 8q48 0 74 -31q22 -22 22 -57q0 -58 -57.5 -105.5t-128.5 -47.5q-90 0 -140 50q-40 37 -40 83h85q0 -22 29.5 -41t73.5 -19t70 19t26 39q0 37 -44 37l-45 -7
l-59 -6q-44 0 -81 27q-41 28 -41 69t42 78q9 9 47 30v18h130q46 0 46 31.5t-35 31.5h-243v67h266q88 0 88 -85q0 -38 -36 -74z" />
    <glyph glyph-name="U0C16_U0C46" horiz-adv-x="559" 
d="M125 250q29 0 29 30.5t-29 30.5t-29 -30.5t29 -30.5zM198 90q-22 18 -59.5 18t-37.5 -19q0 -21 40.5 -21t56.5 22zM400 365q45 0 45 30.5t-36 30.5h-271v67h291q92 0 92 -83q0 -40 -35 -72q-5 -3 -9 -6q10 -8 19 -19q43 -51 43 -129t-51.5 -131.5t-127.5 -53.5
q-38 0 -55.5 5t-50.5 37q-19 -20 -48 -31q-46 -17 -85.5 -17t-70.5 21q-35 22 -35 63t39 69t85 28q71 0 114 -32l11 49q0 31 -9.5 56t-23.5 26q-8 -34 -33 -59q-7 -7 -26 -17q-27 -11 -43 -11q-51 0 -80.5 25.5t-29.5 69.5t61 81q32 21 88 21q78 0 131 -56q39 -43 39 -127
q0 -20 -8 -53q-9 -27 -22 -41q2 -15 18 -24t37 -11q37 0 68 25q39 33 39 87q0 69 -55 108q-15 10 -55 16h-9v58h49zM292 -95h-82v90h82v-90z" />
    <glyph glyph-name="U0C17_U0C46" horiz-adv-x="428" 
d="M326 332q28 -21 50 -56q32 -58 32 -109q0 -70 -40 -124q-30 -38 -53 -46l-3 2l-40 64v5q54 43 54 101q0 46 -24 79q-28 42 -82 42t-85.5 -39.5t-31.5 -99.5q0 -41 13 -61q5 -7 38 -37l2 -3q-5 -14 -47 -57h-5q-89 34 -89 171q0 79 58 138q26 26 62 42v27h114
q48 0 48 31.5t-36 31.5h-246v68h270q89 0 89 -86q0 -38 -38 -76z" />
    <glyph glyph-name="U0C18_U0C46" horiz-adv-x="724" 
d="M187 80q14 13 14 33t-13 33q-12 15 -34 15q-44 0 -44 -47t44 -47q19 0 33 13zM655.5 48q-48.5 -54 -119 -54t-106.5 48q-44 -49 -102 -49t-90 36q-30 -36 -90 -36t-92 38q-28 32 -28 79.5t32 80.5q35 42 104 42q48 0 84.5 -39t36.5 -88q9 -32 41 -32t52 30.5t20 68.5
q0 109 -106 109v83q46 0 79 -13.5t61 -45.5q46 -56 46 -129v-5l18 -55q20 -43 60 -43q31 0 53 35.5t22 74t-19 67.5q-24 40 -65 40l-29 -1v72l33 2q65 0 109 -54t44 -131t-48.5 -131zM271 399q0 -108 -115 -108h-84v69h84q33 0 33 24q0 17 -33 17h-141v76h173q83 0 83 -78z
M278 -94h-83v89h83v-89z" />
    <glyph glyph-name="U0C19_U0C46" horiz-adv-x="467" 
d="M354 381v-41h54v-74h-165q0 -71 -96 -97q-48 -13 -48 -57t44 -44q18 0 40 15q17 14 19 35v27h77l1 -41q0 -10 13.5 -21.5t31.5 -13.5q18 0 33 14q16 18 16 40q0 41 -38 41q-18 0 -27 -3v77q81 0 104 -23q34 -36 34 -89.5t-41.5 -92.5t-84.5 -39q-76 0 -94 45
q-2 -16 -25 -32q-27 -14 -68.5 -14t-79 30t-37.5 83q0 101 87 121q63 13 63 44q0 12 -9 27q-8 11 -20 13q-14 0 -25.5 -13.5t-11.5 -25.5l2 -11h-88q0 38 20 71q31 52 97 52t95 -46h52v39h-16v56h63q26 0 26 27t-27 27h-246v72h256q38 0 65.5 -25.5t27.5 -69.5
q0 -26 -27 -52q-17 -22 -47 -31z" />
    <glyph glyph-name="U0C1A_U0C46" horiz-adv-x="593" 
d="M500 332l20 -17q53 -50 53 -129.5t-45 -135t-118.5 -55.5t-87.5 41q-32 -42 -91 -42t-97.5 40.5t-38.5 94.5q0 38 18 55h-98v77h226v-61q-53 -12 -53 -59q0 -24 13 -45q15 -18 38 -18q44 0 44 61l-3 24h97l-3 -33q0 -59 45 -59q35 0 53.5 37t18.5 74q0 79 -66 101
q-35 10 -113 10h-21v69h132q19 3 27 8t8 17q0 32 -35 32h-272v66h303q35 0 57.5 -21t22.5 -61.5t-34 -70.5z" />
    <glyph glyph-name="U0C1B_U0C46" horiz-adv-x="593" 
d="M500 332l20 -17q53 -50 53 -129.5t-45 -135t-118.5 -55.5t-87.5 41q-32 -42 -91 -42t-97.5 40.5t-38.5 94.5q0 38 18 55h-98v77h226v-61q-53 -12 -53 -59q0 -24 13 -45q15 -18 38 -18q44 0 44 61l-3 24h97l-3 -33q0 -59 45 -59q35 0 53.5 37t18.5 74q0 79 -66 101
q-35 10 -113 10h-21v69h132q19 3 27 8t8 17q0 32 -35 32h-272v66h303q35 0 57.5 -21t22.5 -61.5t-34 -70.5zM360 -95h-81v90h81v-90z" />
    <glyph glyph-name="U0C1C_U0C46" horiz-adv-x="482" 
d="M233 36q-39 -41 -90 -41q-57 0 -89 34q-39 35 -39 86.5t42 74.5l78 26q40 12 40 46t-36 34q-44 0 -44 -55h-80q0 55 37 92t91 37t82 -33l41 -59q21 -33 49 -33q18 0 36.5 11t18.5 23q0 17 -32 25l-45 3h-8v58h49q45 0 45 30.5t-35 30.5h-273v67h291q92 0 92 -83
q0 -40 -33 -71q33 -21 33 -64t-45 -71q-39 -22 -81 -22t-90 18q-8 -19 -67.5 -39t-59.5 -47q0 -14 14 -29q13 -10 32 -12q46 0 51 58h83l-3 -16q0 -20 10.5 -32t28.5 -14q20 0 33.5 11.5t15.5 30.5q0 15 -6 20l-8 13h95q5 -20 2 -36q0 -45 -40 -79q-35 -32 -81 -32t-70 12z
" />
    <glyph glyph-name="U0C1D_U0C46" horiz-adv-x="897" 
d="M308 103.5q36 30.5 36 79.5t-33 77q-32 30 -79.5 30t-79.5 -30t-32 -77.5t29 -80.5q32 -29 77.5 -29t81.5 30.5zM639 -96h-82v91h82v-91zM420 136l10 -24q21 -38 56.5 -38t58 35.5t22.5 72.5t-20 69q-24 40 -64 40h-15l-15 -1v72h17l17 2q60 0 106.5 -54t46.5 -137
q0 -22 -2 -32q17 -67 89 -67q31 0 56 37q23 30 23 70t-19 70q-24 40 -65 40h-14l-15 -1v72h17l17 2q64 0 107 -54t43 -132t-48 -131t-114 -53q-84 0 -120 60q-49 -60 -118.5 -60t-108.5 44l-8 9q-61 -52 -143 -52t-133 55.5t-51 133t61 130.5q16 16 40 26v32h113
q45 0 45 31.5t-35 31.5h-242v67h266q87 0 87 -85q0 -39 -35 -74q9 -7 18 -13.5t19 -16.5q55 -52 55 -133q0 -28 -5 -44z" />
    <glyph glyph-name="U0C1E_U0C46" horiz-adv-x="705" 
d="M307 87q-38 31 -79 31q-19 0 -30 -2l-25 -7q-12 -3 -16 -12l-2 -7q0 -11 17 -20t38.5 -9.5t25.5 -0.5q36 0 71 27zM371 43q-58 -49 -143.5 -49t-127 24t-41.5 67q0 78 154 98l36 2q52 0 105 -30q20 26 20 60t-12 61q-15 30 -36 30t-33.5 -18.5t-12.5 -40.5l2 -19h-95
q0 73 -53 73q-28 0 -28 -36q-3 -36 20 -49h-102q-9 27 -9 42q0 46 37.5 79.5t84.5 39.5q23 0 36 -1t22 -7l39 -24q22 21 38.5 28t49.5 7l22 -1h18q26 0 26 27t-28 27h-245v72h258q35 0 63 -25.5t28 -69.5q0 -26 -27 -52q-8 -12 -18 -18l7 -6q38 -42 38 -108h32v56h90v-54h99
v-76h-90v-60h-97v60l-34 -6l-24 -41l54 -92l-69 -50z" />
    <glyph glyph-name="U0C1F_U0C46" horiz-adv-x="527" 
d="M153 195q11 0 20 12t9 21.5t-9 20t-20 10.5t-20.5 -9.5t-9.5 -21.5q0 -33 30 -33zM444 331l20 -21q43 -54 43 -131.5t-43.5 -131t-112 -53.5t-97.5 55q-29 -55 -94.5 -55t-105 46t-39.5 109.5t27 110t74 53.5v89h61v-87q70 -17 70 -87q0 -44 -32 -72.5t-73.5 -28.5
t-49.5 28l-2 -18q0 -28 23 -50q26 -18 52 -18t46 23q19 25 19 55h73q7 -74 57 -74q32 0 57 36q18 36 18 75q0 71 -54 107q-16 11 -54 16h-8v58h50q44 0 44 30.5t-34 30.5h-273v67h292q91 0 91 -83q0 -40 -35 -72z" />
    <glyph glyph-name="U0C20_U0C46" horiz-adv-x="445" 
d="M308 103.5q36 30.5 36 79.5t-33 77q-32 30 -79.5 30t-79.5 -30t-32 -77.5t29 -80.5q32 -29 77.5 -29t81.5 30.5zM134 340v32h113q45 0 45 31.5t-35 31.5h-242v67h266q87 0 87 -85q0 -39 -35 -74q9 -7 18 -13.5t19 -16.5q55 -52 55 -131t-62.5 -133t-145 -54t-133.5 55.5
t-51 133t61 130.5q16 16 40 26zM197 182q0 10 4 18q9 17 32 17q9 0 21 -7.5t12 -23.5q0 -41 -34.5 -41t-34.5 37z" />
    <glyph glyph-name="U0C21_U0C46" horiz-adv-x="468" 
d="M398 405q0 -19 -13 -45v-61h-172q-59 0 -93 -38q-29 -35 -29 -83.5t17.5 -77t48.5 -28.5q15 0 32 20q13 23 13 45l-2 15h82l-2 -17q0 -56 46 -56q20 0 36 20t16 41t-14 34q-9 12 -24 15q-28 0 -39 -9v82q17 5 40 5t46 -16q61 -37 61 -109t-44 -115q-39 -33 -88.5 -33
t-82.5 42q-31 -43 -91 -43q-85 0 -118 111q-9 31 -9 64q0 87 45 136.5t117 57.5l32 3h68q46 0 46 25q0 32 -36 32h-272v67h303q31 0 55.5 -21.5t24.5 -62.5z" />
    <glyph glyph-name="U0C22_U0C46" horiz-adv-x="468" 
d="M398 405q0 -19 -13 -45v-61h-172q-59 0 -93 -38q-29 -35 -29 -83.5t17.5 -77t48.5 -28.5q15 0 32 20q13 23 13 45l-2 15h82l-2 -17q0 -56 46 -56q20 0 36 20t16 41t-14 34q-9 12 -24 15q-28 0 -39 -9v82q17 5 40 5t46 -16q61 -37 61 -109t-44 -115q-39 -33 -88.5 -33
t-82.5 42q-31 -43 -91 -43q-85 0 -118 111q-9 31 -9 64q0 87 45 136.5t117 57.5l32 3h68q46 0 46 25q0 32 -36 32h-272v67h303q31 0 55.5 -21.5t24.5 -62.5zM276 -95h-83v90h83v-90z" />
    <glyph glyph-name="U0C23_U0C46" horiz-adv-x="477" 
d="M358 96q0 15 -11 28.5t-25.5 14t-28.5 -12.5q-11 -15 -11 -28q0 -39 40 -39q36 0 36 37zM265 356v10h49q46 0 46 29q0 32 -35 32h-271v67h290q92 0 92 -84q0 -40 -36 -72q13 -14 28 -36q29 -55 29 -121t-27 -121q-37 -66 -107 -66q-45 0 -77.5 25.5t-32.5 72t27.5 75.5
t78 29t62.5 -19q0 24 -3 42.5t-15 37.5q-17 35 -51 35q-37 0 -37 -42h-78q0 21 -19 39q-17 14 -33 14q-46 0 -46 -32q0 -14 11.5 -26t24 -12t20.5 4v-66l-9 1q-20 0 -36 -16q-16 -18 -16 -39.5t16.5 -33t33 -11.5t24.5 4v-75q-22 -6 -43 -6q-45 0 -78 28q-31 28 -31 72
q0 76 41 98q-42 23 -42 71t39 75.5t88.5 27.5t85.5 -35q16 16 37 24z" />
    <glyph glyph-name="U0C24_U0C46" horiz-adv-x="515" 
d="M153 190q0 29 -32 29q-12 0 -25 -8q-18 -25 0 -39q10 -8 25 -9q32 0 32 27zM395 208q0 11 -9.5 23t-21 12t-21.5 -9t-12 -23q0 -30 28 -30q36 0 36 27zM413 139q-42 -23 -73 -23t-56 23.5t-25 57t27 60.5q19 21 65 21q-6 3 -21 13.5t-25 12.5l-89 -2v65h108q46 0 46 25
q0 32 -36 32h-272v67h302q33 0 56.5 -21t23.5 -61t-35 -75l2 -5q35 -28 43 -60q41 -40 41 -92q0 -82 -79.5 -132t-173 -50t-159.5 48q-68 52 -68 127q0 41 25 69q31 39 91 39q39 0 63.5 -22t24.5 -57.5t-23.5 -60t-48 -24.5t-43.5 13q5 -20 49.5 -43.5t97.5 -23.5t85 16
q40 17 77 63z" />
    <glyph glyph-name="U0C25_U0C46" horiz-adv-x="470" 
d="M313 76q28 0 44.5 35.5t16.5 63.5q0 51 -31 86q-39 41 -105 41q-49 0 -95.5 -42.5t-46.5 -106.5q0 -27 13 -50.5t39 -23.5q44 0 44 82h82l-3 -32q7 -53 42 -53zM276 360h16q45 0 45 31.5t-35 31.5h-272v67h303q35 0 57 -21.5t22 -61t-34 -73.5l-8 -7l23 -17
q57 -50 57 -143q0 -71 -43 -122t-111 -51q-32 0 -66 42q-37 -43 -88.5 -43t-89 48.5t-37.5 116.5q0 98 65.5 151t154.5 53zM234 251q33 0 33 -35t-35 -35t-35 36q0 10 7 22t30 12zM265 -95h-82v90h82v-90z" />
    <glyph glyph-name="U0C26_U0C46" horiz-adv-x="470" 
d="M313 76q28 0 44.5 35.5t16.5 63.5q0 51 -31 86q-39 41 -105 41q-49 0 -95.5 -42.5t-46.5 -106.5q0 -27 13 -50.5t39 -23.5q44 0 44 82h82l-3 -32q7 -53 42 -53zM276 360h16q45 0 45 31.5t-35 31.5h-272v67h303q35 0 57 -21.5t22 -61t-34 -73.5l-8 -7l23 -17
q57 -50 57 -143q0 -71 -43 -122t-111 -51q-32 0 -66 42q-37 -43 -88.5 -43t-89 48.5t-37.5 116.5q0 98 65.5 151t154.5 53z" />
    <glyph glyph-name="U0C27_U0C46" horiz-adv-x="470" 
d="M313 76q28 0 44.5 35.5t16.5 63.5q0 51 -31 86q-39 41 -105 41q-49 0 -95.5 -42.5t-46.5 -106.5q0 -27 13 -50.5t39 -23.5q44 0 44 82h82l-3 -32q7 -53 42 -53zM276 360h16q45 0 45 31.5t-35 31.5h-272v67h303q35 0 57 -21.5t22 -61t-34 -73.5l-8 -7l23 -17
q57 -50 57 -143q0 -71 -43 -122t-111 -51q-32 0 -66 42q-37 -43 -88.5 -43t-89 48.5t-37.5 116.5q0 98 65.5 151t154.5 53zM234 251q33 0 33 -35t-35 -35t-35 36q0 10 7 22t30 12zM265 -95h-82v90h82v-90z" />
    <glyph glyph-name="U0C28_U0C46" horiz-adv-x="489" 
d="M379 334q11 -7 29 -22q61 -54 61 -124.5t-33 -123.5q-44 -72 -129 -72q-68 0 -97 44q-7 12 -27 82q-14 44 -45 44q-36 0 -36 -51q0 -38 21 -68l35 -48h-99q-44 56 -44 109.5t32.5 94.5t105.5 41q55 0 85 -43l32 -79q17 -44 45.5 -44t53 30.5t24.5 68.5q0 82 -69 109
q-22 9 -48 12l-22 4h-63v66h100q45 0 45 24q0 27 -36 27h-272v71h304q34 0 56.5 -21t22.5 -60t-32 -71z" />
    <glyph glyph-name="U0C2A_U0C46" horiz-adv-x="498" 
d="M432 306q46 -56 46 -130t-44.5 -128.5t-111.5 -54.5q-52 0 -84 36q-30 -36 -90 -36t-92 38q-28 32 -28 79.5t32 80.5q35 42 104 42q48 0 84.5 -39t36.5 -88q9 -32 41 -32t52 30.5t20 68.5q0 109 -106 109v83q46 0 79 -13.5t61 -45.5zM187 80q14 13 14 33t-13 33
q-12 15 -34 15q-44 0 -44 -47t44 -47q19 0 33 13zM271 399q0 -108 -115 -108h-84v69h84q33 0 33 24q0 17 -33 17h-77q-57 0 -64 1v75h173q83 0 83 -78z" />
    <glyph glyph-name="U0C2B_U0C46" horiz-adv-x="498" 
d="M432 306q46 -56 46 -130t-44.5 -128.5t-111.5 -54.5q-52 0 -84 36q-30 -36 -90 -36t-92 38q-28 32 -28 79.5t32 80.5q35 42 104 42q48 0 84.5 -39t36.5 -88q9 -32 41 -32t52 30.5t20 68.5q0 109 -106 109v83q46 0 79 -13.5t61 -45.5zM187 80q14 13 14 33t-13 33
q-12 15 -34 15q-44 0 -44 -47t44 -47q19 0 33 13zM278 -94h-83v89h83v-89zM271 399q0 -108 -115 -108h-84v69h84q33 0 33 24q0 17 -33 17h-77q-57 0 -64 1v75h173q83 0 83 -78z" />
    <glyph glyph-name="U0C2C_U0C46" horiz-adv-x="489" 
d="M406 331l20 -21q43 -53 43 -132.5t-49 -130t-124 -50.5q-21 0 -38 10q-3 1 -27 27q-42 -39 -98.5 -39t-85.5 34q-30 29 -30 77q0 83 92 113l39 11q18 9 18 29q0 32 -35 32q-48 0 -48 -48h-68q0 119 121 119q46 0 74.5 -27.5t28.5 -74t-37 -72.5l-68 -30q-36 -17 -36 -47
q0 -15 12.5 -27t34.5 -12q38 0 46 34q1 6 1 15t-2 18h80v-19q0 -22 18.5 -33.5t35.5 -13.5q31 0 52.5 35.5t21.5 75.5q0 71 -55 107q-17 11 -53 16h-9v58h50q46 0 46 30.5t-36 30.5h-272v67h290q93 0 93 -83q0 -40 -35 -72z" />
    <glyph glyph-name="U0C2D_U0C46" horiz-adv-x="489" 
d="M406 331l20 -21q43 -53 43 -132.5t-49 -130t-124 -50.5q-21 0 -38 10q-3 1 -27 27q-42 -39 -98.5 -39t-85.5 34q-30 29 -30 77q0 83 92 113l39 11q18 9 18 29q0 32 -35 32q-48 0 -48 -48h-68q0 119 121 119q46 0 74.5 -27.5t28.5 -74t-37 -72.5l-68 -30q-36 -17 -36 -47
q0 -15 12.5 -27t34.5 -12q38 0 46 34q1 6 1 15t-2 18h80v-19q0 -22 18.5 -33.5t35.5 -13.5q31 0 52.5 35.5t21.5 75.5q0 71 -55 107q-17 11 -53 16h-9v58h50q46 0 46 30.5t-36 30.5h-272v67h290q93 0 93 -83q0 -40 -35 -72zM265 -95h-82v90h82v-90z" />
    <glyph glyph-name="U0C2E_U0C46" horiz-adv-x="698" 
d="M174 80q14 13 14 33t-14 34t-34 14q-44 0 -44 -47t44 -47q20 0 34 13zM462 148l10 -31q19 -43 55 -43t58 37q22 31 22 71t-20 69q-23 40 -64 40l-29 -1v72l33 2q63 0 107 -54t44 -132t-48 -131t-116.5 -53t-104.5 43q-43 -44 -108 -44q-46 0 -77 36q-32 -36 -92 -36
t-88.5 35t-28.5 83.5t31 79.5q36 42 103 42q49 0 85 -39t36 -88q9 -27 40 -27h11q23 0 45 29t22 65q0 78 -70 109q-44 14 -116 14h-46v69h137q45 0 45 23q0 32 -35 32h-271v66h302q32 0 55.5 -20.5t23.5 -60.5t-34 -76l23 -17q62 -55 62 -130z" />
    <glyph glyph-name="U0C2F_U0C46" horiz-adv-x="923" 
d="M293 101q38 30 38 80.5t-35 81t-82 30.5t-81 -31.5t-34 -80t29 -81.5q33 -30 81.5 -30t83.5 31zM854.5 47q-48.5 -53 -117.5 -53t-108 49q-47 -49 -112 -49q-97 0 -146 87q-63 -86 -167 -86q-88 0 -138.5 55.5t-50.5 133t62 130.5t139.5 53t131.5 -51q59 -55 59 -125
q26 -62 45 -84q27 -33 67.5 -33t65.5 37q23 30 23 70.5t-20 69.5q-11 20 -28 32.5t-37 12.5h-103v70h107q46 0 46 22q0 32 -37 32h-271v66h303q31 0 54.5 -20.5t23.5 -60.5t-33 -73q11 -8 22 -23q44 -53 44 -134l-1 -26q5 -13 11 -22t6 -10q21 -43 56 -43t58 37q21 31 21 71
t-19 69q-24 40 -63 40l-30 -1v72l33 2q64 0 108 -54t44 -132t-48.5 -131z" />
    <glyph glyph-name="U0C30_U0C46" horiz-adv-x="445" 
d="M308 103.5q36 30.5 36 79.5t-33 77q-32 30 -79.5 30t-79.5 -30t-32 -77.5t29 -80.5q32 -29 77.5 -29t81.5 30.5zM134 340v31l113 1q45 0 45 31.5t-35 31.5h-242v67h266q87 0 87 -85q0 -39 -35 -74q9 -7 18 -13.5t19 -16.5q55 -52 55 -131t-62.5 -133t-145 -54
t-133.5 55.5t-51 133t61 130.5q16 16 40 26z" />
    <glyph glyph-name="U0C31_U0C46" horiz-adv-x="514" 
d="M146 240q27 0 27 31.5t-27 31.5q-29 0 -29 -31.5t29 -31.5zM148 177q-8 -6 -20.5 -6t-22.5 7l-4 -29q0 -32 15.5 -60t47.5 -28q45 0 45 58h89l-2 -16q0 -34 41 -34t61 36t20 79t-17 72q-19 36 -52 36q-30 0 -30 -32.5t37 -44.5v-76h-208v38zM431 339q63 -51 63 -166
q0 -72 -41.5 -125t-106.5 -53t-104 44q-14 -44 -100 -44q-55 0 -91 46t-36 119t30 134q36 75 105 75q32 0 58 -22.5t26 -53.5q0 -49 -26 -80h50q-9 24 -9 45q0 46 30 76l15 14v17h50q45 0 45 30.5t-35 30.5h-273v67h293q91 0 91 -83q0 -41 -34 -71z" />
    <glyph glyph-name="U0C32_U0C46" horiz-adv-x="492" 
d="M183 271q0 16 -11 28t-23 12q-33 0 -33 -39t33.5 -39t33.5 38zM286 365h52q47 0 47 28q0 32 -37 32h-271v67h291q91 0 91 -83q0 -39 -35 -72l-15 -10l17 -18q46 -57 46 -134t-71 -129t-166.5 -52t-157.5 55t-62 140q0 70 36 124t97 54q42 0 73 -26.5t31 -69t-30 -75.5
t-75 -33q-21 0 -32 6l-14 12q4 -52 49 -81q37 -25 95 -25t100 28q46 33 46 89.5t-50 90.5q-27 18 -55 13v69z" />
    <glyph glyph-name="U0C33_U0C46" horiz-adv-x="423" 
d="M302 118q0 38 -81 38q-21 0 -29.5 -1.5t-23.5 -8.5q-28 -12 -28 -37q0 -50 77 -50q32 0 54 15q31 16 31 44zM131 293q0 12 -8.5 20t-20.5 8q-26 -4 -26 -32q0 -24 29 -24q30 3 26 28zM298 309h-73v56h69q21 3 21 26q0 28 -26 28h-246v72h256q36 0 64 -26.5t28 -69.5
q0 -18 -17 -41q5 -4 17 -23t12 -51q0 -44 -62 -87q27 -20 27 -64.5t-22 -74.5q-45 -61 -136 -61q-62 0 -102 29t-40 82.5t42 81.5q-38 7 -63 33q-32 28 -32 73q0 83 88 83q36 0 57 -19.5t21 -47.5t-5.5 -40.5t-32.5 -31.5q33 -20 75 -20t82.5 17.5t40.5 42.5q0 33 -43 33z
" />
    <glyph glyph-name="U0C35_U0C46" horiz-adv-x="484" 
d="M174 80q14 13 14 33t-14 34t-34 14q-44 0 -44 -47t44 -47q20 0 34 13zM202 296h-24v69h115q45 0 45 23q0 32 -35 32h-271v66h302q32 0 55.5 -20.5t23.5 -60.5t-34 -76l23 -17q62 -55 62 -130.5t-43 -131.5q-47 -57 -120 -57q-46 0 -77 36q-32 -36 -92 -36t-88.5 35
t-28.5 83.5t31 79.5q36 42 103 42q49 0 85 -39t36 -88q9 -27 40 -27h11q23 0 45 29t22 65q0 78 -70 109q-44 14 -116 14z" />
    <glyph glyph-name="U0C36_U0C46" horiz-adv-x="444" 
d="M343 130q0 26 -21 45.5t-47 19.5t-44.5 -19t-18.5 -46.5t21 -46.5t46 -19q64 0 64 66zM298 267q18 -1 33 -9q14 4 15 21q0 30 -38 30h-74v56h70q27 0 27 27t-28 27h-245v72h256q37 0 66 -26q26 -27 26 -70q0 -20 -21 -46l11 -11q24 -23 24 -53q0 -16 -12 -35l-23 -27
q10 -21 24 -37q15 -24 15 -56q0 -61 -43.5 -99t-112 -38t-109.5 41q-33 36 -33 80t29 86q-63 0 -63 -74q0 -29 13 -45h-82q-8 12 -8 41q0 70 60 106.5t162 36.5l32 2h29z" />
    <glyph glyph-name="U0C37_U0C46" horiz-adv-x="526" 
d="M472 116q-10 -52 -10 -101q0 -79 44 -95q-63 -36 -88 -36q-33 26 -33 93v22q3 13 4 18l-31 -15q-21 -9 -49 -9q-61 0 -79 41q-31 -39 -83 -39t-86.5 38.5t-34.5 90t37 89t99 37.5q79 0 116 -98q8 -23 8 -46q14 -30 39.5 -30t49.5 30q21 31 21 67.5t-16 62.5
q-20 35 -51 35h-29v85q9 4 34 4q59 0 96 -47q42 -55 42 -158v-39zM197 127q0 47 -40 47q-44 0 -44 -47.5t44 -47.5q10 0 25 16t15 32zM271 399q0 -108 -115 -108h-84v69h84q33 0 33 24q0 17 -33 17h-141v76h173q83 0 83 -78z" />
    <glyph glyph-name="U0C38_U0C46" horiz-adv-x="503" 
d="M435 310.5q48 -49.5 48 -121t-33 -122.5q-46 -75 -129 -75q-68 0 -98 44q-7 12 -26 82q-14 44 -46 44q-36 0 -36 -51q0 -38 22 -68l34 -48h-99q-44 56 -44 109.5t33 94.5t105 41q55 0 86 -43l33 -79q15 -44 45 -44q26 0 52 30q25 34 25 72.5t-26 69.5t-60 31l-21 -4v87
q87 0 135 -49.5zM271 399q0 -108 -115 -108h-84v69h84q33 0 33 24q0 17 -33 17h-141v76h173q83 0 83 -78z" />
    <glyph glyph-name="U0C39_U0C46" horiz-adv-x="764" 
d="M651 168q0 29 -34.5 29t-34.5 -31q0 -36 33 -36q36 0 36 38zM186 80q14 13 14 33t-14 34t-33 14q-46 0 -46 -47t46 -47q19 0 33 13zM445 294q33 -50 33 -137q0 -57 -45.5 -110.5t-119.5 -53.5q-46 0 -76 36q-33 -36 -93 -36t-90 38q-27 32 -27 80.5t31 79.5q37 42 103 42
q49 0 85.5 -39t36.5 -88q8 -27 40 -27h10q23 0 45 29t22 62.5t-20 74.5q-26 49 -62 49h-29v72h208q127 0 154 -10q93 -36 93 -155q0 -56 -40.5 -102.5t-98.5 -46.5q-42 0 -73 30t-31 75.5t31 76.5t87 31l37 -4q-18 21 -48 27t-99 6h-64zM271 399q0 -108 -115 -108h-84v69h84
q33 0 33 24q0 17 -33 17h-141v76h173q83 0 83 -78z" />
    <glyph glyph-name="U0C15_U0C4D_U0C37_U0C46" horiz-adv-x="440" 
d="M343 336q33 -26 33 -73h-80q-9 20 -36 31q-11 7 -21.5 8t-26.5 1q-77 0 -77 -51q0 -33 68 -33l35 9q32 8 63 8q48 0 75 -31q22 -22 22 -57q0 -58 -58 -105.5t-128 -47.5q-90 0 -141 50q-39 37 -39 83h84q0 -22 30 -41t74 -19t69.5 19t25.5 39q0 37 -44 37l-45 -7l-58 -6
q-44 0 -81 27q-41 28 -41 69t42 78q10 11 47 30v17l130 1q46 0 46 31.5t-35 31.5h-243v67h266q88 0 88 -85q0 -38 -36 -74zM441 -207l-49 -32q-22 26 -22 57v37q-49 -23 -70 -23q-33 0 -76 37q-23 -40 -93 -40q-48 0 -82 38.5t-34 81.5q0 17 6 34l69 -2l-1 -12l-1 -14
q0 -22 15 -38.5t40 -16.5q54 0 54 53l-3 12l-1 11h74l-1 -11l-2 -12q0 -49 43 -49q20 0 36 15q13 18 13 39.5t-21 31.5l32 36q63 -28 63 -102l-2 -36l-3 -35q0 -48 16 -60z" />
    <glyph glyph-name="U0C15_U0C47" horiz-adv-x="452" 
d="M326 336q33 -26 33 -73h-80q-9 20 -35 31q-11 7 -21.5 8t-27.5 1q-77 0 -77 -51q0 -33 69 -33l35 9q32 8 63 8q48 0 74 -31q22 -22 22 -57q0 -58 -57.5 -105.5t-128.5 -47.5q-90 0 -140 50q-40 37 -40 83h85q0 -22 29.5 -41t73.5 -19t70 19t26 39q0 37 -44 37l-45 -7
l-59 -6q-44 0 -81 27q-41 28 -41 69t42 78q9 9 47 30v18h130q46 0 46 31.5t-35 31.5h-243v66h221v35q0 39 35 70q37 26 74 26q54 0 87.5 -39t33.5 -104h-81l1 26q-8 45 -41 45q-38 0 -38 -40l-1 -16q63 -27 63 -87q0 -38 -36 -74z" />
    <glyph glyph-name="U0C16_U0C47" horiz-adv-x="603" 
d="M125 250q29 0 29 30.5t-29 30.5t-29 -30.5t29 -30.5zM198 90q-22 18 -59.5 18t-37.5 -19q0 -21 40.5 -21t56.5 22zM477 332q10 -8 19 -19q43 -51 43 -129t-51.5 -131.5t-127.5 -53.5q-38 0 -55.5 5t-50.5 37q-19 -20 -48 -31q-46 -17 -85.5 -17t-70.5 21q-35 22 -35 63
t39 69t85 28q71 0 114 -32l11 49q0 31 -9.5 56t-23.5 26q-8 -34 -33 -59q-7 -7 -26 -17q-27 -11 -43 -11q-51 0 -80.5 25.5t-29.5 69.5t61 81q32 21 88 21q78 0 131 -56q39 -43 39 -127q0 -20 -8 -53q-9 -27 -22 -41q2 -15 18 -24t37 -11q37 0 68 25q39 33 39 87
q0 69 -55 108q-15 10 -55 16h-9v58h49q45 0 45 30.5t-36 30.5h-271v67h250v34q0 40 35.5 67.5t74.5 27.5q55 0 87.5 -38t32.5 -105h-82l2 29q0 45 -40 45t-40 -42l-1 -14q64 -30 64 -87q0 -40 -35 -72q-5 -3 -9 -6zM292 -95h-82v90h82v-90z" />
    <glyph glyph-name="U0C17_U0C47" horiz-adv-x="452" 
d="M323 333q28 -20 48 -55q32 -56 32 -115t-39 -114q-29 -39 -52 -46l-4 2q-14 27 -40 63l1 4q54 43 54 100q0 46 -27.5 83t-79.5 37t-87 -41q-27 -35 -27 -86t12 -71q3 -4 16.5 -15t22.5 -20l1 -3q-4 -15 -48 -58q-91 33 -91 170q0 77 56 136q30 29 64 44v24h113
q46 0 46 31.5t-35 31.5h-243v66h221v35q0 39 35 70q37 26 74 26q54 0 87.5 -39t33.5 -104h-81l1 26q-8 45 -41 45q-38 0 -38 -40l-1 -16q63 -27 63 -87q0 -38 -36 -74z" />
    <glyph glyph-name="U0C18_U0C47" horiz-adv-x="724" 
d="M187 80q14 13 14 33t-13 33q-12 15 -34 15q-44 0 -44 -47t44 -47q19 0 33 13zM655.5 48q-48.5 -54 -119 -54t-106.5 48q-44 -49 -102 -49t-90 36q-30 -36 -90 -36t-92 38q-28 32 -28 79.5t32 80.5q35 42 104 42q48 0 84.5 -39t36.5 -88q9 -32 41 -32t52 30.5t20 68.5
q0 109 -106 109v83q46 0 79 -13.5t61 -45.5q46 -56 46 -129v-5l18 -55q20 -43 60 -43q31 0 53 35.5t22 74t-19 67.5q-24 40 -65 40l-29 -1v72l33 2q65 0 109 -54t44 -131t-48.5 -131zM343 465h-68l-5 25q0 36 -36 36q-34 0 -34 -40l-1 -9q72 0 72 -78q0 -108 -115 -108h-84
v69h84q33 0 33 24q0 17 -33 17h-141v76h121v25q0 36 32.5 62t65.5 26q52 0 80.5 -33t28.5 -92zM278 -95h-83v90h83v-90z" />
    <glyph glyph-name="U0C19_U0C47" horiz-adv-x="504" 
d="M358 568v-12q70 -15 70 -92q0 -26 -27 -52q-17 -22 -47 -31v-41h54v-74h-165q0 -71 -96 -97q-48 -13 -48 -57t44 -44q18 0 40 15q17 14 19 35v27h77l1 -41q0 -10 13.5 -21.5t31.5 -13.5q18 0 33 14q16 18 16 40q0 41 -38 41q-18 0 -27 -3v77q81 0 104 -23
q34 -36 34 -89.5t-41.5 -92.5t-84.5 -39q-76 0 -94 45q-2 -16 -25 -32q-27 -14 -68.5 -14t-79 30t-37.5 83q0 101 87 121q63 13 63 44q0 12 -9 27q-8 11 -20 13q-14 0 -25.5 -13.5t-11.5 -25.5l2 -11h-88q0 38 20 71q31 52 97 52t95 -46h52v39h-16v56h63q26 14 26 27
q0 27 -27 27h-246v72h210v27q0 39 35 66.5t74 27.5q54 0 88 -38q33 -44 33 -105h-83l3 27q0 45 -40.5 45t-40.5 -41z" />
    <glyph glyph-name="U0C1A_U0C47" horiz-adv-x="617" 
d="M402 485v35q0 40 37 70q35 25 73 25q54 0 87 -38.5t33 -104.5h-82l1 28q0 45 -39 45t-39 -42v-20q22 -5 37 -17q24 -23 24 -63.5t-34 -70.5l20 -17q53 -50 53 -129.5t-45 -135t-118.5 -55.5t-87.5 41q-32 -42 -91 -42t-97.5 40.5t-38.5 94.5q0 38 18 55h-98v77h226v-61
q-53 -12 -53 -59q0 -24 13 -45q15 -18 38 -18q44 0 44 61l-3 24h97l-3 -33q0 -59 45 -59q35 0 53.5 37t18.5 74q0 79 -66 101q-35 10 -113 10h-21v69h132q19 3 27 8t8 17q0 32 -35 32h-272v66h251z" />
    <glyph glyph-name="U0C1B_U0C47" horiz-adv-x="617" 
d="M402 485v35q0 40 37 70q35 25 73 25q54 0 87 -38.5t33 -104.5h-82l1 28q0 45 -39 45t-39 -42v-20q22 -5 37 -17q24 -23 24 -63.5t-34 -70.5l20 -17q53 -50 53 -129.5t-45 -135t-118.5 -55.5t-87.5 41q-32 -42 -91 -42t-97.5 40.5t-38.5 94.5q0 38 18 55h-98v77h226v-61
q-53 -12 -53 -59q0 -24 13 -45q15 -18 38 -18q44 0 44 61l-3 24h97l-3 -33q0 -59 45 -59q35 0 53.5 37t18.5 74q0 79 -66 101q-35 10 -113 10h-21v69h132q19 3 27 8t8 17q0 32 -35 32h-272v66h251zM360 -95h-81v90h81v-90z" />
    <glyph glyph-name="U0C1C_U0C47" horiz-adv-x="537" 
d="M233 36q-39 -41 -90 -41q-57 0 -89 34q-39 35 -39 86.5t42 74.5l78 26q40 12 40 46t-36 34q-44 0 -44 -55h-80q0 55 37 92t91 37t82 -33l41 -59q21 -33 49 -33q18 0 36.5 11t18.5 23q0 17 -32 25l-45 3h-8v58h49q45 0 45 30.5t-35 30.5h-273v67h252v34q0 41 35 68t74 27
q54 0 87 -38t33 -105h-82l2 29q0 45 -40 45t-40 -42l-1 -14q63 -30 63 -87q0 -40 -33 -71q33 -21 33 -64t-45 -71q-39 -22 -81 -22t-90 18q-8 -19 -67.5 -39t-59.5 -47q0 -14 14 -29q13 -10 32 -12q46 0 51 58h83l-3 -16q0 -20 10.5 -32t28.5 -14q20 0 33.5 11.5t15.5 30.5
q0 15 -6 20l-8 13h95q5 -20 2 -36q0 -45 -40 -79q-35 -32 -81 -32t-70 12z" />
    <glyph glyph-name="U0C1D_U0C47" horiz-adv-x="897" 
d="M308 103.5q36 30.5 36 79.5t-33 77q-32 30 -79.5 30t-79.5 -30t-32 -77.5t29 -80.5q32 -29 77.5 -29t81.5 30.5zM639 -96h-82v91h82v-91zM420 136l10 -24q21 -38 56.5 -38t58 35.5t22.5 72.5t-20 69q-24 40 -64 40h-15l-15 -1v72h17l17 2q60 0 106.5 -54t46.5 -137
q0 -22 -2 -32q17 -67 89 -67q31 0 56 37q23 30 23 70t-19 70q-24 40 -65 40h-14l-15 -1v72h17l17 2q64 0 107 -54t43 -132t-48 -131t-114 -53q-84 0 -120 60q-49 -60 -118.5 -60t-108.5 44l-8 9q-61 -52 -143 -52t-133 55.5t-51 133t61 130.5q16 16 40 26v32h113
q45 0 45 31.5t-35 31.5h-242v66h221v35q0 39 35 70q36 26 74 26q54 0 87.5 -39t33.5 -104h-82l2 26q-8 45 -41 45q-38 0 -38 -40l-2 -16q63 -27 63 -87q0 -39 -35 -74q9 -7 18 -13.5t19 -16.5q55 -52 55 -133q0 -28 -5 -44z" />
    <glyph glyph-name="U0C1E_U0C47" horiz-adv-x="705" 
d="M307 87q-38 31 -79 31q-19 0 -30 -2l-25 -7q-12 -3 -16 -12l-2 -7q0 -11 17 -20t38.5 -9.5t25.5 -0.5q36 0 71 27zM371 43q-58 -49 -143.5 -49t-127 24t-41.5 67q0 78 154 98l36 2q52 0 105 -30q20 26 20 60t-12 61q-15 30 -36 30t-33.5 -18.5t-12.5 -40.5l2 -19h-95
q0 73 -53 73q-28 0 -28 -36q-3 -36 20 -49h-102q-9 27 -9 42q0 46 37.5 79.5t84.5 39.5q23 0 36 -1t22 -7l39 -24q22 21 38.5 28t49.5 7l22 -1h18q26 13 26 27q0 27 -28 27h-245v72h210v26q0 40 35.5 67t73.5 27q54 0 87 -38.5t33 -104.5h-81l2 28q0 45 -41 45
q-39 0 -39 -41v-12q69 -16 69 -92q0 -26 -27 -52q-8 -12 -18 -18l7 -6q38 -42 38 -108h32v56h90v-54h99v-76h-90v-60h-97v60l-34 -6l-24 -41l54 -92l-69 -50z" />
    <glyph glyph-name="U0C1F_U0C47" horiz-adv-x="572" 
d="M153 195q11 0 20 12t9 21.5t-9 20t-20 10.5t-20.5 -9.5t-9.5 -21.5q0 -33 30 -33zM444 331l20 -21q43 -54 43 -131.5t-43.5 -131t-112 -53.5t-97.5 55q-29 -55 -94.5 -55t-105 46t-39.5 109.5t27 110t74 53.5v89h61v-87q70 -17 70 -87q0 -44 -32 -72.5t-73.5 -28.5
t-49.5 28l-2 -18q0 -28 23 -50q26 -18 52 -18t46 23q19 25 19 55h73q7 -74 57 -74q32 0 57 36q18 36 18 75q0 71 -54 107q-16 11 -54 16h-8v58h50q44 0 44 30.5t-34 30.5h-273v67h251v34q0 40 36 70q36 25 74 25q54 0 87 -38t33 -105h-82l1 29q0 45 -38.5 45t-38.5 -42
l-3 -14q63 -30 63 -87q0 -40 -35 -72z" />
    <glyph glyph-name="U0C20_U0C47" horiz-adv-x="451" 
d="M308 103.5q36 30.5 36 79.5t-33 77q-32 30 -79.5 30t-79.5 -30t-32 -77.5t29 -80.5q32 -29 77.5 -29t81.5 30.5zM134 340v32h113q45 0 45 31.5t-35 31.5h-242v66h221v35q0 39 35 70q36 26 74 26q54 0 87.5 -39t33.5 -104h-82l2 26q-8 45 -41 45q-38 0 -38 -40l-2 -16
q63 -27 63 -87q0 -39 -35 -74q9 -7 18 -13.5t19 -16.5q55 -52 55 -131t-62.5 -133t-145 -54t-133.5 55.5t-51 133t61 130.5q16 16 40 26zM197 182q0 10 4 18q9 17 32 17q9 0 21 -7.5t12 -23.5q0 -41 -34.5 -41t-34.5 37z" />
    <glyph glyph-name="U0C21_U0C47" horiz-adv-x="480" 
d="M398 405q0 -19 -13 -45v-61h-172q-59 0 -93 -38q-29 -35 -29 -83.5t17.5 -77t48.5 -28.5q15 0 32 20q13 23 13 45l-2 15h82l-2 -17q0 -56 46 -56q20 0 36 20t16 41t-14 34q-9 12 -24 15q-28 0 -39 -9v82q17 5 40 5t46 -16q61 -37 61 -109t-44 -115q-39 -33 -88.5 -33
t-82.5 42q-31 -43 -91 -43q-85 0 -118 111q-9 31 -9 64q0 87 45 136.5t117 57.5l32 3h68q46 0 46 25q0 32 -36 32h-272v67h250v34q0 40 36 69q36 26 74 26q54 0 87 -37t33 -106h-82v28q0 45 -38.5 45t-38.5 -41l-2 -15q64 -29 64 -87z" />
    <glyph glyph-name="U0C22_U0C47" horiz-adv-x="480" 
d="M398 405q0 -19 -13 -45v-61h-172q-59 0 -93 -38q-29 -35 -29 -83.5t17.5 -77t48.5 -28.5q15 0 32 20q13 23 13 45l-2 15h82l-2 -17q0 -56 46 -56q20 0 36 20t16 41t-14 34q-9 12 -24 15q-28 0 -39 -9v82q17 5 40 5t46 -16q61 -37 61 -109t-44 -115q-39 -33 -88.5 -33
t-82.5 42q-31 -43 -91 -43q-85 0 -118 111q-9 31 -9 64q0 87 45 136.5t117 57.5l32 3h68q46 0 46 25q0 32 -36 32h-272v67h250v34q0 40 36 69q36 26 74 26q54 0 87 -37t33 -106h-82v28q0 45 -38.5 45t-38.5 -41l-2 -15q64 -29 64 -87zM276 -95h-83v90h83v-90z" />
    <glyph glyph-name="U0C23_U0C47" horiz-adv-x="518" 
d="M358 96q0 15 -11 28.5t-25.5 14t-28.5 -12.5q-11 -15 -11 -28q0 -39 40 -39q36 0 36 37zM265 356v10h49q46 0 46 29q0 32 -35 32h-271v67h249v35q0 39 36.5 66.5t72.5 27.5q55 0 88 -38.5t33 -104.5h-81l1 28q-5 45 -41.5 45t-36.5 -41l-1 -15q62 -28 62 -87
q0 -40 -36 -72q13 -14 28 -36q29 -55 29 -121t-27 -121q-37 -66 -107 -66q-45 0 -77.5 25.5t-32.5 72t27.5 75.5t78 29t62.5 -19q0 24 -3 42.5t-15 37.5q-17 35 -51 35q-37 0 -37 -42h-78q0 21 -19 39q-17 14 -33 14q-46 0 -46 -32q0 -14 11.5 -26t24 -12t20.5 4v-66l-9 1
q-20 0 -36 -16q-16 -18 -16 -39.5t16.5 -33t33 -11.5t24.5 4v-75q-22 -6 -43 -6q-45 0 -78 28q-31 28 -31 72q0 76 41 98q-42 23 -42 71t39 75.5t88.5 27.5t85.5 -35q16 16 37 24z" />
    <glyph glyph-name="U0C24_U0C47" horiz-adv-x="527" 
d="M153 190q0 29 -32 29q-12 0 -25 -8q-18 -25 0 -39q10 -8 25 -9q32 0 32 27zM395 208q0 11 -9.5 23t-21 12t-21.5 -9t-12 -23q0 -30 28 -30q36 0 36 27zM413 139q-42 -23 -73 -23t-56 23.5t-25 57t27 60.5q19 21 65 21q-3 1 -18 11t-26 13h-91v65h108q46 0 46 25
q0 32 -36 32h-272v67h250v34q0 40 36 70q37 25 74 25q54 0 89 -38q31 -38 31 -105h-80v28q0 46 -40 46q-38 0 -38 -42l-3 -15q63 -29 63 -86q0 -39 -35 -74l2 -5q35 -28 43 -60q41 -40 41 -92q0 -82 -79.5 -132t-173 -50t-159.5 48q-68 52 -68 127q0 41 25 69q31 39 91 39
q39 0 63.5 -22t24.5 -57.5t-23.5 -60t-48 -24.5t-43.5 13q5 -20 49.5 -43.5t97.5 -23.5t85 16q40 17 77 63z" />
    <glyph glyph-name="U0C25_U0C47" horiz-adv-x="496" 
d="M313 76q28 0 44.5 35.5t16.5 63.5q0 51 -31 86q-39 41 -105 41q-49 0 -95.5 -42.5t-46.5 -106.5q0 -27 13 -50.5t39 -23.5q44 0 44 82h80l-1 -32q7 -53 42 -53zM282 359h10q21 0 33 9.5t12 22.5q0 32 -35 32h-272v67h251v34q0 40 35 71q37 25 74 25q54 0 87.5 -38.5
t33.5 -104.5h-81v27q0 45 -40 45q-38 0 -38 -41l-3 -15q63 -27 63 -87q0 -38 -34 -72l-8 -7l23 -17q57 -50 57 -143q0 -71 -43 -122t-111 -51q-32 0 -66 42q-37 -43 -88.5 -43t-89 48.5t-37.5 116.5q0 98 65.5 151t154.5 53zM234 251q33 0 33 -35t-35 -35t-35 36q0 10 7 22
t30 12zM265 -95h-82v90h82v-90z" />
    <glyph glyph-name="U0C26_U0C47" horiz-adv-x="496" 
d="M313 76q28 0 44.5 35.5t16.5 63.5q0 51 -31 86q-39 41 -105 41q-49 0 -95.5 -42.5t-46.5 -106.5q0 -27 13 -50.5t39 -23.5q44 0 44 82h80l-1 -32q7 -53 42 -53zM282 359h10q21 0 33 9.5t12 22.5q0 32 -35 32h-272v67h251v34q0 40 35 71q37 25 74 25q54 0 87.5 -38.5
t33.5 -104.5h-81v27q0 45 -40 45q-38 0 -38 -41l-3 -15q63 -27 63 -87q0 -38 -34 -72l-8 -7l23 -17q57 -50 57 -143q0 -71 -43 -122t-111 -51q-32 0 -66 42q-37 -43 -88.5 -43t-89 48.5t-37.5 116.5q0 98 65.5 151t154.5 53z" />
    <glyph glyph-name="U0C27_U0C47" horiz-adv-x="496" 
d="M313 76q28 0 44.5 35.5t16.5 63.5q0 51 -31 86q-39 41 -105 41q-49 0 -95.5 -42.5t-46.5 -106.5q0 -27 13 -50.5t39 -23.5q44 0 44 82h80l-1 -32q7 -53 42 -53zM282 359h10q21 0 33 9.5t12 22.5q0 32 -35 32h-272v67h251v34q0 40 35 71q37 25 74 25q54 0 87.5 -38.5
t33.5 -104.5h-81v27q0 45 -40 45q-38 0 -41 -56q63 -27 63 -87q0 -38 -34 -72l-8 -7l23 -17q57 -50 57 -143q0 -71 -43 -122t-111 -51q-32 0 -66 42q-37 -43 -88.5 -43t-89 48.5t-37.5 116.5q0 98 65.5 151t154.5 53zM265 -95h-82v90h82v-90z" />
    <glyph glyph-name="U0C28_U0C47" horiz-adv-x="495" 
d="M379 334q11 -7 29 -22q61 -54 61 -124.5t-33 -123.5q-44 -72 -129 -72q-68 0 -97 44q-7 12 -27 82q-14 44 -45 44q-36 0 -36 -51q0 -38 21 -68l35 -48h-99q-44 56 -44 109.5t32.5 94.5t105.5 41q55 0 85 -43l32 -79q17 -44 45.5 -44t53 30.5t24.5 68.5q0 82 -69 109
q-22 9 -48 12l-22 4h-63v66h100q45 0 45 24q0 33 -36 33h-272v65h251v36q0 38 36 69q36 26 74 26q54 0 87.5 -38.5t33.5 -104.5h-82l1 27q0 45 -40 45t-40 -41l-1 -15q63 -27 63 -87q0 -37 -32 -69z" />
    <glyph glyph-name="U0C2A_U0C47" horiz-adv-x="498" 
d="M432 306q46 -56 46 -130t-44.5 -128.5t-111.5 -54.5q-52 0 -84 36q-30 -36 -90 -36t-92 38q-28 32 -28 79.5t32 80.5q35 42 104 42q48 0 84.5 -39t36.5 -88q9 -32 41 -32t52 30.5t20 68.5q0 109 -106 109v83q46 0 79 -13.5t61 -45.5zM187 80q14 13 14 33t-13 33
q-12 15 -34 15q-44 0 -44 -47t44 -47q19 0 33 13zM343 465h-68l-5 25q0 36 -36 36q-34 0 -34 -40l-1 -9q72 0 72 -78q0 -108 -115 -108h-84v69h84q33 0 33 24q0 17 -33 17h-141v76h121v25q0 36 32.5 62t65.5 26q52 0 80.5 -33t28.5 -92z" />
    <glyph glyph-name="U0C2B_U0C47" horiz-adv-x="498" 
d="M432 306q46 -56 46 -130t-44.5 -128.5t-111.5 -54.5q-52 0 -84 36q-30 -36 -90 -36t-92 38q-28 32 -28 79.5t32 80.5q35 42 104 42q48 0 84.5 -39t36.5 -88q9 -32 41 -32t52 30.5t20 68.5q0 109 -106 109v83q46 0 79 -13.5t61 -45.5zM187 80q14 13 14 33t-13 33
q-12 15 -34 15q-44 0 -44 -47t44 -47q19 0 33 13zM278 -95h-83v90h83v-90zM343 465h-68l-5 25q0 36 -36 36q-34 0 -34 -40l-1 -9q72 0 72 -78q0 -108 -115 -108h-84v69h84q33 0 33 24q0 17 -33 17h-141v76h121v25q0 36 32.5 62t65.5 26q52 0 80.5 -33t28.5 -92z" />
    <glyph glyph-name="U0C2C_U0C47" horiz-adv-x="534" 
d="M406 331l20 -21q43 -53 43 -132.5t-49 -130t-124 -50.5q-21 0 -38 10q-3 1 -27 27q-42 -39 -98.5 -39t-85.5 34q-30 29 -30 77q0 83 92 113l39 11q18 9 18 29q0 32 -35 32q-48 0 -48 -48h-68q0 119 121 119q46 0 74.5 -27.5t28.5 -74t-37 -72.5l-68 -30q-36 -17 -36 -47
q0 -15 12.5 -27t34.5 -12q38 0 46 34q1 6 1 15t-2 18h80v-19q0 -22 18.5 -33.5t35.5 -13.5q31 0 52.5 35.5t21.5 75.5q0 71 -55 107q-17 11 -53 16h-9v58h50q46 0 46 30.5t-36 30.5h-272v67h250v34q0 40 36 67.5t75 27.5q55 0 87 -38t32 -105h-81l1 29q0 45 -39.5 45
t-39.5 -42l-1 -14q63 -30 63 -87q0 -40 -35 -72z" />
    <glyph glyph-name="U0C2D_U0C47" horiz-adv-x="534" 
d="M406 331l20 -21q43 -53 43 -132.5t-49 -130t-124 -50.5q-21 0 -38 10q-3 1 -27 27q-42 -39 -98.5 -39t-85.5 34q-30 29 -30 77q0 83 92 113l39 11q18 9 18 29q0 32 -35 32q-48 0 -48 -48h-68q0 119 121 119q46 0 74.5 -27.5t28.5 -74t-37 -72.5l-68 -30q-36 -17 -36 -47
q0 -15 12.5 -27t34.5 -12q38 0 46 34q1 6 1 15t-2 18h80v-19q0 -22 18.5 -33.5t35.5 -13.5q31 0 52.5 35.5t21.5 75.5q0 71 -55 107q-17 11 -53 16h-9v58h50q46 0 46 30.5t-36 30.5h-272v67h250v34q0 40 36 67.5t75 27.5q55 0 87 -38t32 -105h-81l1 29q0 45 -39.5 45
t-39.5 -42l-1 -14q63 -30 63 -87q0 -40 -35 -72zM265 -95h-82v90h82v-90z" />
    <glyph glyph-name="U0C2E_U0C47" horiz-adv-x="698" 
d="M174 80q14 13 14 33t-14 34t-34 14q-44 0 -44 -47t44 -47q20 0 34 13zM462 148l10 -31q19 -43 55 -43t58 37q22 31 22 71t-20 69q-23 40 -64 40l-29 -1v72l33 2q63 0 107 -54t44 -132t-48 -131t-116.5 -53t-104.5 43q-43 -44 -108 -44q-46 0 -77 36q-32 -36 -92 -36
t-88.5 35t-28.5 83.5t31 79.5q36 42 103 42q49 0 85 -39t36 -88q9 -27 40 -27h11q23 0 45 29t22 65q0 78 -70 109q-44 14 -116 14h-46v69h137q45 0 45 23q0 32 -35 32h-271v66h250v35q0 39 36 69q36 25 73 25q54 0 87.5 -37.5t33.5 -105.5h-81v29q0 45 -40 45q-38 0 -38 -42
l-2 -14q62 -30 62 -88q0 -37 -34 -73l23 -17q62 -55 62 -130z" />
    <glyph glyph-name="U0C2F_U0C47" horiz-adv-x="923" 
d="M293 101q38 30 38 80.5t-35 81t-82 30.5t-81 -31.5t-34 -80t29 -81.5q33 -30 81.5 -30t83.5 31zM854.5 47q-48.5 -53 -117.5 -53t-108 49q-47 -49 -112 -49q-97 0 -146 87q-63 -86 -167 -86q-88 0 -138.5 55.5t-50.5 133t62 130.5t139.5 53t131.5 -51q59 -55 59 -125
q26 -62 45 -84q27 -33 67.5 -33t65.5 37q23 30 23 70.5t-20 69.5q-13 22 -24.5 32t-30.5 13h-113v70h107q46 0 46 22q0 32 -37 32h-271v66h251v35q0 39 35 69q36 25 73 25q54 0 87.5 -36.5t33.5 -106.5h-81v29q0 45 -40 45q-38 0 -38 -42l-2 -14q62 -29 62 -88
q0 -37 -33 -70q11 -8 22 -23q44 -53 44 -134l-1 -26q5 -13 11 -22t6 -10q21 -43 56 -43t58 37q21 31 21 71t-19 69q-24 40 -63 40l-30 -1v72l33 2q64 0 108 -54t44 -132t-48.5 -131z" />
    <glyph glyph-name="U0C30_U0C47" horiz-adv-x="451" 
d="M308 103.5q36 30.5 36 79.5t-33 77q-32 30 -79.5 30t-79.5 -30t-32 -77.5t29 -80.5q32 -29 77.5 -29t81.5 30.5zM134 340v32h113q45 0 45 31.5t-35 31.5h-242v66h221v35q0 39 35 70q36 26 74 26q54 0 87.5 -39t33.5 -104h-82l2 26q-8 45 -41 45q-38 0 -38 -40l-2 -16
q63 -27 63 -87q0 -39 -35 -74q9 -7 18 -13.5t19 -16.5q55 -52 55 -131t-62.5 -133t-145 -54t-133.5 55.5t-51 133t61 130.5q16 16 40 26z" />
    <glyph glyph-name="U0C31_U0C47" horiz-adv-x="548" 
d="M146 240q27 0 27 31.5t-27 31.5q-29 0 -29 -31.5t29 -31.5zM148 177q-8 -6 -20.5 -6t-22.5 7l-4 -29q0 -32 15.5 -60t47.5 -28q45 0 45 58h89l-2 -16q0 -34 41 -34t61 36t20 79t-17 72q-19 36 -52 36q-30 0 -30 -32.5t37 -44.5v-76h-208v38zM431 339q63 -51 63 -166
q0 -72 -41.5 -125t-106.5 -53t-104 44q-14 -44 -100 -44q-55 0 -91 46t-36 119t30 134q36 75 105 75q32 0 58 -22.5t26 -53.5q0 -49 -26 -80h50q-9 24 -9 45q0 46 30 76l15 14v17h50q45 0 45 30.5t-35 30.5h-273v67h252v34q0 40 36 70q34 25 73 25q54 0 87.5 -38t33.5 -105
h-82v29q0 45 -39 45t-39 -42l-2 -14q64 -30 64 -87q0 -41 -34 -71z" />
    <glyph glyph-name="U0C32_U0C47" horiz-adv-x="542" 
d="M183 271q0 16 -11 28t-23 12q-33 0 -33 -39t33.5 -39t33.5 38zM409 327l17 -18q46 -57 46 -134t-71 -129t-166.5 -52t-157.5 55t-62 140q0 70 36 124t97 54q42 0 73 -26.5t31 -69t-30 -75.5t-75 -33q-21 0 -32 6l-14 12q4 -52 49 -81q37 -25 95 -25t100 28q46 33 46 89.5
t-50 90.5q-27 18 -55 13v69h52q47 0 47 30.5t-37 30.5h-271v67h250v34q0 40 36 70q36 25 73 25q54 0 87.5 -38t33.5 -105h-81v29q0 45 -40 45q-38 0 -38 -42l-1 -14q62 -30 62 -87q0 -39 -35 -72z" />
    <glyph glyph-name="U0C33_U0C47" horiz-adv-x="466" 
d="M302 118q0 38 -81 38q-21 0 -29.5 -1.5t-23.5 -8.5q-28 -12 -28 -37q0 -50 77 -50q32 0 54 15q31 16 31 44zM131 293q0 12 -8.5 20t-20.5 8q-26 -4 -26 -32q0 -24 29 -24q30 3 26 28zM298 309h-73v56h66q22 13 24 26q0 28 -26 28h-246v72h209v25q0 40 36 67.5t72 27.5
q58 0 89.5 -38.5t31.5 -104.5h-81l1 29q0 44 -41 44q-37 0 -37 -41l-1 -6v-7q69 -16 69 -92q0 -18 -17 -41q5 -4 17 -23t12 -51q0 -44 -62 -87q27 -20 27 -64.5t-22 -74.5q-45 -61 -136 -61q-62 0 -102 29t-40 82.5t42 81.5q-38 7 -63 33q-32 28 -32 73q0 83 88 83
q36 0 57 -19.5t21 -47.5t-5.5 -40.5t-32.5 -31.5q33 -20 75 -20t82.5 17.5t40.5 42.5q0 33 -43 33z" />
    <glyph glyph-name="U0C35_U0C47" horiz-adv-x="497" 
d="M174 80q14 13 14 33t-14 34t-34 14q-44 0 -44 -47t44 -47q20 0 34 13zM202 296h-24v69h115q45 0 45 23q0 32 -35 32h-271v66h250v35q0 39 36 69q36 25 73 25q54 0 87.5 -37.5t33.5 -105.5h-81v29q0 45 -40 45q-38 0 -38 -42l-2 -14q62 -30 62 -88q0 -37 -34 -73l23 -17
q62 -55 62 -130.5t-43 -131.5q-47 -57 -120 -57q-46 0 -77 36q-32 -36 -92 -36t-88.5 35t-28.5 83.5t31 79.5q36 42 103 42q49 0 85 -39t36 -88q9 -27 40 -27h11q23 0 45 29t22 65q0 78 -70 109q-44 14 -116 14z" />
    <glyph glyph-name="U0C36_U0C47" horiz-adv-x="482" 
d="M343 130q0 26 -21 45.5t-47 19.5t-44.5 -19t-18.5 -46.5t21 -46.5t46 -19q64 0 64 66zM298 267q18 -1 33 -9q14 4 15 21q0 30 -38 30h-74v56h70q27 0 27 27t-28 27h-245v72h209v25q0 41 35.5 68t74.5 27q54 0 87 -38.5t33 -104.5h-82l3 29q0 44 -40.5 44t-40.5 -41v-13
q69 -16 69 -92q0 -22 -21 -46l11 -11q24 -23 24 -53q0 -16 -12 -35l-23 -27q10 -21 24 -37q15 -24 15 -56q0 -61 -43.5 -99t-112 -38t-109.5 41q-33 36 -33 80t29 86q-63 0 -63 -74q0 -29 13 -45h-82q-8 12 -8 41q0 70 60 106.5t162 36.5l32 2h29z" />
    <glyph glyph-name="U0C37_U0C47" horiz-adv-x="506" 
d="M472 116q-10 -52 -10 -101q0 -79 44 -95q-63 -36 -88 -36q-33 26 -33 93v22q3 13 4 18l-31 -15q-21 -9 -49 -9q-61 0 -79 41q-31 -39 -83 -39t-86.5 38.5t-34.5 90t37 89t99 37.5q79 0 116 -98q8 -23 8 -46q14 -30 39.5 -30t49.5 30q21 31 21 67.5t-16 62.5
q-20 35 -51 35h-29v85q9 4 34 4q59 0 96 -47q42 -55 42 -158v-39zM197 127q0 47 -40 47q-44 0 -44 -47.5t44 -47.5q10 0 25 16t15 32zM343 465h-68l-5 25q0 36 -36 36q-34 0 -34 -40l-1 -9q72 0 72 -78q0 -108 -115 -108h-84v69h84q33 0 33 24q0 17 -33 17h-141v76h121v25
q0 36 32.5 62t65.5 26q52 0 80.5 -33t28.5 -92z" />
    <glyph glyph-name="U0C38_U0C47" horiz-adv-x="503" 
d="M435 310.5q48 -49.5 48 -121t-33 -122.5q-46 -75 -129 -75q-68 0 -98 44q-7 12 -26 82q-14 44 -46 44q-36 0 -36 -51q0 -38 22 -68l34 -48h-99q-44 56 -44 109.5t33 94.5t105 41q55 0 86 -43l33 -79q15 -44 45 -44q26 0 52 30q25 34 25 72.5t-26 69.5t-60 31l-21 -4v87
q87 0 135 -49.5zM343 465h-68l-5 25q0 36 -36 36q-34 0 -34 -40l-1 -9q72 0 72 -78q0 -108 -115 -108h-84v69h84q33 0 33 24q0 17 -33 17h-141v76h121v25q0 36 32.5 62t65.5 26q52 0 80.5 -33t28.5 -92z" />
    <glyph glyph-name="U0C39_U0C47" horiz-adv-x="764" 
d="M651 168q0 29 -34.5 29t-34.5 -31q0 -36 33 -36q36 0 36 38zM186 80q14 13 14 33t-14 34t-33 14q-46 0 -46 -47t46 -47q19 0 33 13zM445 294q33 -50 33 -137q0 -57 -45.5 -110.5t-119.5 -53.5q-46 0 -76 36q-33 -36 -93 -36t-90 38q-27 32 -27 80.5t31 79.5q37 42 103 42
q49 0 85.5 -39t36.5 -88q8 -27 40 -27h10q23 0 45 29t22 62.5t-20 74.5q-26 49 -62 49h-29v72h208q127 0 154 -10q93 -36 93 -155q0 -56 -40.5 -102.5t-98.5 -46.5q-42 0 -73 30t-31 75.5t31 76.5t87 31l37 -4q-18 21 -48 27t-99 6h-64zM343 465h-68l-5 25q0 36 -36 36
q-34 0 -34 -40l-1 -9q72 0 72 -78q0 -108 -115 -108h-84v69h84q33 0 33 24q0 17 -33 17h-141v76h121v25q0 36 32.5 62t65.5 26q52 0 80.5 -33t28.5 -92z" />
    <glyph glyph-name="U0C15_U0C4D_U0C37_U0C47" horiz-adv-x="469" 
d="M343 336q33 -26 33 -73h-80q-9 20 -36 31q-11 7 -21.5 8t-26.5 1q-77 0 -77 -51q0 -33 68 -33l35 9q32 8 63 8q48 0 75 -31q22 -22 22 -57q0 -58 -58 -105.5t-128 -47.5q-90 0 -141 50q-39 37 -39 83h84q0 -22 30 -41t74 -19t69.5 19t25.5 39q0 37 -44 37l-45 -7l-58 -6
q-44 0 -81 27q-41 28 -41 69t42 78q10 11 47 30v18h130q46 0 46 31.5t-35 31.5h-243v66h221v35q0 39 35 70q36 26 74 26q54 0 87.5 -39t33.5 -104h-82l1 26q-7 45 -40 45q-39 0 -39 -40l-1 -16q64 -27 64 -87q0 -38 -36 -74zM441 -207l-49 -32q-22 26 -22 57v37
q-49 -23 -70 -23q-33 0 -76 37q-23 -40 -93 -40q-48 0 -82 38.5t-34 81.5q0 17 6 34l69 -2l-1 -12l-1 -14q0 -22 15 -38.5t40 -16.5q54 0 54 53l-3 12l-1 11h74l-1 -11l-2 -12q0 -49 43 -49q20 0 36 15q13 18 13 39.5t-21 31.5l32 36q63 -28 63 -102l-2 -36l-3 -35
q0 -48 16 -60z" />
    <glyph glyph-name="U0C15_U0C4A" horiz-adv-x="657" 
d="M539 210q11 13 11 27.5t-10.5 26.5t-28.5 14q-14 0 -27.5 -13t-13.5 -28t11 -27.5t29 -12.5t29 13zM156 365q9 2 20 2h18q165 0 165 -104h-80q-9 20 -35 31q-11 7 -21.5 8t-27.5 1q-77 0 -77 -51q0 -33 69 -33l35 9q32 8 63 8q48 0 74 -31q22 -22 22 -57
q0 -58 -57.5 -105.5t-128.5 -47.5q-90 0 -140 50q-40 37 -40 83h85q0 -22 29.5 -41t73.5 -19t70 19t26 39q0 37 -44 37l-45 -7l-59 -6q-44 0 -81 27q-41 28 -41 74q0 32 36 66l-15 16q-18 25 -18 64.5t41 77.5q52 43 134 43t119 -19q29 -14 67 -62q28 34 91 34q84 0 125 -73
q28 -49 28 -116t-36.5 -110.5t-103.5 -43.5q-42 0 -67.5 32t-25.5 69t25 63q29 37 92 37q20 0 25 -3l14 -5q-10 36 -30.5 56t-43.5 20q-63 0 -63 -46h-81q0 57 -62 79q-37 13 -68.5 13t-40.5 -2.5t-22 -8.5q-28 -13 -29 -30q0 -31 36 -37z" />
    <glyph glyph-name="U0C16_U0C4A" horiz-adv-x="816" 
d="M668 211q37 0 41 38q0 14 -12 29q-14 11 -29.5 11t-27 -11t-11.5 -28t11.5 -28t27.5 -11zM198 90q-22 18 -59.5 18t-37.5 -19q0 -21 40.5 -21t56.5 22zM411 362l12 -2q42 -10 72 -47q44 -51 44 -129t-51.5 -131.5t-127.5 -53.5q-38 0 -55.5 5t-50.5 37q-19 -20 -48 -31
q-46 -17 -85.5 -17t-70.5 21q-35 22 -35 63t39 69t85 28q71 0 114 -32l11 49q0 31 -9.5 56t-23.5 26q-8 -34 -33 -59q-7 -7 -26 -17q-27 -11 -43 -11q-51 0 -80.5 25.5t-29.5 69.5t61 81q32 21 88 21q78 0 131 -56q39 -43 39 -127q0 -20 -8 -53q-9 -27 -22 -41q2 -15 18 -24
t37 -11q37 0 68 25q39 33 39 87q0 69 -55 108q-13 10 -36 13l-16 6q-28 8 -48 30q-25 32 -25 66q0 115 139 115q47 0 70 -16q30 -14 53 -61q8 13 35.5 26t53.5 13q85 0 125 -73q30 -50 30 -116.5t-37.5 -110.5t-103.5 -44q-40 0 -70 35q-23 33 -23 67.5t24 62.5q32 38 93 38
q19 0 26 -4l13 -5q-8 35 -33 57q-21 19 -42 19q-61 0 -61 -47h-73q0 90 -88 90q-62 0 -62 -40q0 -36 52 -50zM125 250q29 0 29 30.5t-29 30.5t-29 -30.5t29 -30.5zM292 -95h-82v90h82v-90z" />
    <glyph glyph-name="U0C17_U0C4A" horiz-adv-x="680" 
d="M573 237q0 13 -11.5 26t-29.5 15q-13 0 -26.5 -11.5t-13.5 -28.5t12 -29t28.5 -12t27.5 11t13 29zM87 317l-16 16q-17 25 -17 59q0 46 42 83q50 43 142 43q72 0 109 -19q27 -13 68 -62q29 34 90 34q83 0 126 -73q29 -52 29 -117t-37 -109t-104 -44q-41 0 -67 32t-26 67.5
t24 64.5q33 37 92 37q21 0 26 -3l14 -5q-10 37 -31 56.5t-44 19.5q-62 0 -62 -46h-82q0 57 -62 79q-37 13 -68.5 13t-40.5 -3q-49 -14 -50 -38q0 -34 34 -42q18 5 44 5q102 0 151 -87q32 -56 32 -116t-34 -106t-57 -53l-3 2l-40 63v4q54 43 54 100q0 46 -24 79
q-29 41 -82 41t-84 -39t-31 -97q0 -25 2.5 -38t9 -22t39.5 -37l2 -3q-5 -15 -48 -58h-4q-88 34 -88 170q0 78 57 136z" />
    <glyph glyph-name="U0C18_U0C4A" horiz-adv-x="967" 
d="M819 211q37 0 41 38q0 17 -13.5 28.5t-28 11.5t-26.5 -11t-12 -28t11.5 -28t27.5 -11zM174 80q14 13 14 33t-15 33q-11 15 -33 15q-44 0 -44 -47t44 -47q20 0 34 13zM641 48q-48 -54 -118 -54t-106 48q-44 -49 -109 -49q-51 0 -84 36q-30 -36 -90.5 -36t-90.5 38
q-28 32 -28 79.5t32 80.5q34 42 103 42q49 0 84.5 -39t35.5 -88q11 -32 43 -32t52 30.5t20 68.5q0 109 -106 109v83q46 0 79 -13.5t61 -45.5q46 -56 46 -129v-5l18 -55q18 -43 59 -43q32 0 54 35.5t22 74t-20 67.5q-8 15 -20.5 23t-78.5 41q-19 12 -32 25q-26 32 -26 66
q0 115 138 115q48 0 72 -16q28 -14 53 -61q8 14 34 26.5t55 12.5q83 0 124 -73q30 -50 30 -116.5t-37.5 -110.5t-103.5 -44q-41 0 -66.5 32.5t-25.5 61t4.5 42t18.5 29.5q32 38 93 38q19 0 25 -4l14 -5q-8 35 -33 57q-20 19 -41 19q-63 0 -63 -47h-72q0 90 -87 90
q-61 0 -61 -40q0 -29 35 -42q11 -3 36 -14q13 -7 29 -15.5t33 -31.5q44 -53 44 -130t-48 -131zM341 424q-8 4 -23 4q-29 0 -53 -26l-48 -56q-41 -39 -106 -39q-42 0 -68 26q-27 23 -27 62h80q0 -26 30 -26t55 35l43 62q32 35 84 35q19 0 33 -9v-68zM264 -95h-82v90h82v-90z
" />
    <glyph glyph-name="U0C19_U0C4A" horiz-adv-x="726" 
d="M619 280q0 13 -12 29q-13 11 -28.5 11.5t-27.5 -12t-12 -29t11.5 -28t28 -11.5t27.5 10.5t13 29.5zM326 395h28v-55h54v-74h-165q0 -71 -96 -97q-48 -13 -48 -57t44 -44q18 0 40 15q17 14 19 35v27h77l1 -41q0 -10 13.5 -21.5t31.5 -13.5q18 0 33 14q16 18 16 40
q0 41 -38 41q-18 0 -27 -3v77q81 0 104 -23q34 -36 34 -89.5t-41.5 -92.5t-84.5 -39q-76 0 -94 45q-2 -16 -25 -32q-27 -14 -68.5 -14t-79 30t-37.5 83q0 101 87 121q63 13 63 44q0 12 -9 27q-8 11 -20 13q-14 0 -25.5 -13.5t-11.5 -25.5l2 -11h-88q0 38 20 71q31 52 97 52
t95 -46h52q-30 7 -54 33q-26 33 -26 65q0 116 138 116q48 0 72 -16q30 -15 54 -62q6 13 33.5 26.5t54.5 13.5q84 0 125 -75q30 -49 30 -115t-37.5 -110t-103.5 -44q-61 0 -87 66q-6 16 -6 34q0 36 24 64q32 38 92 38q20 0 27 -3l13 -5q-10 37 -31 55.5t-44 18.5
q-62 0 -62 -46h-72q0 89 -88 89q-62 0 -62 -38q0 -34 57 -48z" />
    <glyph glyph-name="U0C1A_U0C4A" horiz-adv-x="853" 
d="M748 237q0 13 -11.5 26t-28.5 15q-15 0 -28 -11.5t-13 -28.5t11 -29t28 -12t28 11t14 29zM348 365l65 -3q61 0 110.5 -48.5t49.5 -128t-45 -135t-118.5 -55.5t-87.5 41q-32 -42 -91 -42t-97.5 40.5t-38.5 94.5q0 38 18 55h-98v77h226v-61q-53 -12 -53 -59q0 -24 13 -45
q15 -18 38 -18q44 0 44 61l-3 24h97l-3 -33q0 -59 45 -59q35 0 53.5 37t18.5 74q0 79 -66 101q-3 1 -47.5 4.5t-61.5 6.5q-47 7 -67.5 35.5t-20.5 62.5q0 46 42 83q51 43 133 43t119 -19q30 -15 67 -62q30 34 90 34q84 0 127 -73q27 -52 27 -117t-36 -109t-104 -44
q-40 0 -66.5 32t-26.5 68.5t26 63.5q30 37 91 37q21 0 26 -3l13 -5q-9 37 -30 56.5t-44 19.5q-62 0 -62 -46h-82q0 57 -62 79q-37 13 -68.5 13t-40.5 -2.5t-22 -8.5q-29 -13 -30 -30q0 -31 33 -37z" />
    <glyph glyph-name="U0C1B_U0C4A" horiz-adv-x="853" 
d="M748 237q0 13 -11.5 26t-28.5 15q-15 0 -28 -11.5t-13 -28.5t11 -29t28 -12t28 11t14 29zM348 365l65 -3q61 0 110.5 -48.5t49.5 -128t-45 -135t-118.5 -55.5t-87.5 41q-32 -42 -91 -42t-97.5 40.5t-38.5 94.5q0 38 18 55h-98v77h226v-61q-53 -12 -53 -59q0 -24 13 -45
q15 -18 38 -18q44 0 44 61l-3 24h97l-3 -33q0 -59 45 -59q35 0 53.5 37t18.5 74q0 79 -66 101q-3 1 -47.5 4.5t-61.5 6.5q-47 7 -67.5 35.5t-20.5 62.5q0 46 42 83q51 43 133 43t119 -19q30 -15 67 -62q30 34 90 34q84 0 127 -73q27 -52 27 -117t-36 -109t-104 -44
q-40 0 -66.5 32t-26.5 68.5t26 63.5q30 37 91 37q21 0 26 -3l13 -5q-9 37 -30 56.5t-44 19.5q-62 0 -62 -46h-82q0 57 -62 79q-37 13 -68.5 13t-40.5 -2.5t-22 -8.5q-29 -13 -30 -30q0 -31 33 -37zM360 -95h-81v90h81v-90z" />
    <glyph glyph-name="U0C1C_U0C4A" horiz-adv-x="756" 
d="M648 247q0 35 -39 41q-18 0 -29 -12q-11 -10 -11 -27t11 -29t26.5 -12t30.5 11q11 14 11 28zM233 36q-39 -41 -90 -41q-57 0 -89 34q-39 35 -39 86.5t42 74.5l78 26q40 12 40 46t-36 34q-44 0 -44 -55h-80q0 55 37 92t91 37t82 -33l41 -59q21 -33 49 -33q18 0 36.5 11
t18.5 23t-15 20q-6 2 -24 4q-45 5 -75 36q-26 31 -26 66q0 115 138 115q43 0 71.5 -15t52.5 -62q7 12 33.5 25t54.5 13q87 0 127 -72q29 -52 29 -116.5t-37.5 -109.5t-103.5 -45q-61 0 -87 68q-7 16 -7 32q0 36 26 65q33 37 92 37q19 0 24 -4l16 -4q-11 35 -32.5 55.5
t-43.5 20.5q-61 0 -61 -47h-74q0 89 -88 89q-60 0 -60 -40q0 -34 51 -46q38 -5 66 -21q37 -22 37 -66.5t-45 -72.5q-39 -22 -81 -22t-90 18q-8 -19 -67.5 -39t-59.5 -47q0 -14 14 -29q13 -10 32 -12q46 0 51 58h83l-3 -16q0 -20 10.5 -32t28.5 -14q20 0 33.5 11.5t15.5 30.5
q0 15 -6 20l-8 13h95q5 -20 2 -36q0 -45 -40 -79q-35 -32 -81 -32t-70 12z" />
    <glyph glyph-name="U0C1D_U0C4A" horiz-adv-x="1125" 
d="M1018 249q0 17 -11.5 28.5t-28 11.5t-28.5 -11q-11 -13 -11 -28t11 -27t28 -12t28.5 10.5t11.5 27.5zM290.5 103.5q35.5 30.5 35.5 79.5t-33 77q-33 30 -80 30t-79 -31q-32 -29 -32 -76.5t29 -80.5q31 -29 77.5 -29t82 30.5zM573 47q-50 -53 -117.5 -53t-104.5 44l-8 9
q-61 -52 -144 -52t-133.5 55.5t-50.5 133t61 130.5q-41 32 -41 91h87q-4 -19 14.5 -30t40.5 -11l10 1q18 3 41 25l42 53q32 27 79 27q24 0 40 -13v-76q-19 14 -40 14q-34 0 -70 -37q43 -14 73 -45q55 -52 55 -133q0 -27 -6 -43l11 -25q22 -38 57.5 -38t58.5 37q21 31 21 71
t-19 69q-24 40 -64 40h-15l-15 -1v72h17l16 2q61 0 107 -54t46 -133l19 -60q21 -43 56 -43t58 37q21 31 21 71q0 68 -46 96q-4 3 -70 37q-22 11 -33 25q-28 31 -28 66q0 115 139 115q47 0 71 -16q31 -15 54 -61q7 14 33.5 26.5t54.5 12.5q84 0 127 -73q27 -51 27 -117
t-37 -110t-104 -44q-39 0 -65.5 32.5t-26.5 67.5t24 65q31 38 94 38q17 0 24 -4l14 -5q-9 35 -31.5 55.5t-43.5 20.5q-61 0 -61 -47h-73q0 90 -88 90q-60 0 -60 -40q0 -29 36 -42q7 -2 31 -13.5t32 -14.5q17 -11 35 -33q44 -53 44 -131t-48.5 -131t-116.5 -53t-105 44z
M622 -94h-82v89h82v-89z" />
    <glyph glyph-name="U0C1E_U0C4A" horiz-adv-x="965" 
d="M858 249q0 17 -12.5 28.5t-28 11.5t-29.5 -11q-11 -13 -11 -28t11.5 -27t28 -12t29 10.5t12.5 27.5zM307 87q-38 31 -79 31q-19 0 -30 -2l-25 -7q-12 -3 -16 -12l-2 -7q0 -11 17 -20t38.5 -9.5t25.5 -0.5q36 0 71 27zM496 316q-57 35 -57 90q0 115 138 115q47 0 71 -16
q30 -15 55 -61q6 14 32.5 26.5t55.5 12.5q82 0 125 -73q29 -49 29 -116t-37.5 -111t-103.5 -44q-40 0 -70 35q-23 30 -23 66t25 64q30 38 92 38q19 0 25 -4l13 -5q-8 37 -30 56.5t-43 19.5q-63 0 -63 -47h-71q0 90 -88 90q-61 0 -61 -40q0 -19 22 -33.5t55 -20.5l-1 -130h99
v-76h-90v-60h-97v60l-34 -6l-24 -41l54 -92l-69 -50l-54 80q-58 -49 -143.5 -49t-127 24t-41.5 67q0 78 154 98l36 2q52 0 105 -30q20 26 20 60t-12 61q-15 30 -36 30t-33.5 -18.5t-12.5 -40.5l2 -19h-95q0 73 -53 73q-28 0 -28 -36q-3 -36 20 -49h-102q-9 27 -9 42
q0 46 37.5 79.5t84.5 39.5q23 0 36 -1t22 -7l39 -24q22 21 38.5 28t49.5 7q62 0 104 -46q38 -42 38 -108h32v90z" />
    <glyph glyph-name="U0C1F_U0C4A" horiz-adv-x="783" 
d="M662.5 216q12.5 12 12.5 28.5t-11 28.5q-13 11 -29 11t-27.5 -11t-11.5 -28t11 -29t27 -12t28.5 12zM191 276q0 13 -10 23t-23 12q-11 0 -21.5 -10.5t-10.5 -24.5q0 -37 32 -37q12 0 21.5 11t11.5 26zM341 303q-32 6 -58.5 35t-26.5 64q0 114 139 114q47 0 72 -15
q30 -16 53 -63q5 14 32 27.5t56 13.5q85 0 125 -74q30 -51 30 -115.5t-38 -109.5t-103 -45q-42 0 -70 35q-23 31 -23 66t24 63q32 38 92 38q19 0 26 -3l14 -6q-10 38 -32 58q-8 5 -15 11q-14 7 -28 7q-61 0 -61 -46h-73q0 89 -88 89q-61 0 -61 -39q0 -30 42 -43
q56 -7 96.5 -58t40.5 -128.5t-43.5 -131t-112 -53.5t-97.5 55q-29 -55 -91 -55t-104.5 57.5t-42.5 130.5t27 125.5t76 59.5v116h66v-112q26 -4 49 -23q31 -28 31 -75t-35 -78t-84 -31t-62 31q0 -56 24.5 -89t53 -33t45 24.5t16.5 49.5h80l2 -14q3 -5 3 -13q0 -28 37 -43
q7 -3 15 -4q32 0 56 36q19 36 19 75q0 71 -54 107q-4 3 -18 6.5t-21 5.5z" />
    <glyph glyph-name="U0C20_U0C4A" horiz-adv-x="682" 
d="M575 237q0 13 -11.5 26t-29.5 15q-13 0 -26 -11.5t-13 -28.5t11.5 -29t28 -12t27.5 11t13 29zM290.5 103.5q35.5 30.5 35.5 79.5t-33 77q-33 30 -80 30t-79 -31q-32 -29 -32 -76.5t29 -80.5q31 -29 77.5 -29t82 30.5zM212 145q-34 0 -34 37q0 10 5 18q9 17 31 17
q9 0 21.5 -7.5t12.5 -23.5t-4 -25q-9 -16 -32 -16zM177 362q21 5 40 5q79 0 134.5 -53t55.5 -132t-62.5 -133t-145.5 -54t-133.5 55.5t-50.5 133t61 130.5l7 7l-10 12q-17 25 -17 59q0 46 46 86t139 40q71 0 108 -19q25 -12 69 -62q28 34 89 34q83 0 126 -73q29 -52 29 -117
t-37 -109t-104 -44q-41 0 -66.5 32t-25.5 68.5t24 63.5q31 37 91 37q22 0 27 -3l13 -5q-10 37 -31 56.5t-43 19.5q-63 0 -63 -46h-82q0 57 -62 79q-37 13 -68.5 13t-39.5 -2.5t-29 -12t-22 -26.5q0 -31 33 -40z" />
    <glyph glyph-name="U0C21_U0C4A" horiz-adv-x="723" 
d="M616 237q0 13 -11.5 26t-28.5 15q-14 0 -27.5 -11.5t-13.5 -28.5t11.5 -29t28 -12t27.5 11t14 29zM15 168q0 125 94 174q-13 20 -13 50q0 46 43 83q52 43 133 43t118 -19q28 -13 68 -62q28 34 89 34q84 0 127 -73q29 -52 29 -117t-37 -109t-104 -44q-41 0 -67 32
t-26 68.5t25 63.5q30 37 91 37q22 0 26 -3l13 -5q-9 36 -30.5 56t-43.5 20q-62 0 -62 -46h-82q0 57 -62 79q-37 13 -80 13q-9 0 -19.5 -0.5t-34.5 -12t-26 -28.5q0 -27 30 -37h171v-66h-172q-59 0 -93 -38q-29 -35 -29 -83.5t17.5 -77t48.5 -28.5q15 0 32 20q13 23 13 45
l-2 15h82l-2 -17q0 -56 46 -56q20 0 36 20t16 41t-14 34q-9 12 -24 15q-28 0 -39 -9v82q17 5 40 5t46 -16q61 -37 61 -109t-44 -115q-39 -33 -88.5 -33t-82.5 42q-31 -43 -91 -43q-85 0 -118 111q-9 31 -9 64z" />
    <glyph glyph-name="U0C22_U0C4A" horiz-adv-x="723" 
d="M616 237q0 13 -11.5 26t-28.5 15q-14 0 -27.5 -11.5t-13.5 -28.5t11.5 -29t28 -12t27.5 11t14 29zM15 168q0 125 94 174q-13 20 -13 50q0 46 43 83q52 43 133 43t118 -19q28 -13 68 -62q28 34 89 34q84 0 127 -73q29 -52 29 -117t-37 -109t-104 -44q-41 0 -67 32
t-26 68.5t25 63.5q30 37 91 37q22 0 26 -3l13 -5q-9 36 -30.5 56t-43.5 20q-62 0 -62 -46h-82q0 57 -62 79q-37 13 -80 13q-9 0 -19.5 -0.5t-34.5 -12t-26 -28.5q0 -27 30 -37h171v-66h-172q-59 0 -93 -38q-29 -35 -29 -83.5t17.5 -77t48.5 -28.5q15 0 32 20q13 23 13 45
l-2 15h82l-2 -17q0 -56 46 -56q20 0 36 20t16 41t-14 34q-9 12 -24 15q-28 0 -39 -9v82q17 5 40 5t46 -16q61 -37 61 -109t-44 -115q-39 -33 -88.5 -33t-82.5 42q-31 -43 -91 -43q-85 0 -118 111q-9 31 -9 64zM276 -95h-83v90h83v-90z" />
    <glyph glyph-name="U0C23_U0C4A" horiz-adv-x="735" 
d="M587 211q37 0 41 38q0 17 -13 28.5t-28 11.5t-27.5 -11t-12.5 -28t12 -28t28 -11zM358 96q0 15 -11 28.5t-25.5 14t-28.5 -12.5q-11 -15 -11 -28q0 -39 40 -39q36 0 36 37zM333 365q54 0 95 -63q29 -55 29 -121t-27 -121q-37 -66 -107 -66q-45 0 -77.5 25.5t-32.5 72
t27.5 75.5t78 29t62.5 -19q0 24 -3 42.5t-15 37.5q-17 35 -51 35q-37 0 -37 -42h-78q0 21 -19 39q-17 14 -33 14q-46 0 -46 -32q0 -14 11.5 -26t24 -12t20.5 4v-66l-9 1q-20 0 -36 -16q-16 -18 -16 -39.5t16.5 -33t33 -11.5t24.5 4v-75q-22 -6 -43 -6q-45 0 -78 28
q-31 28 -31 72q0 76 41 98q-42 23 -42 71t39 75.5t88.5 27.5t85.5 -35l9 6l-2 2q-26 32 -26 66q0 115 138 115q48 0 72 -16q28 -14 53 -61q6 13 33.5 26t55.5 13q83 0 124 -73q30 -50 30 -116.5t-37.5 -110.5t-103.5 -44q-41 0 -71 35q-22 31 -22 59t5 41.5t19 29.5
q31 38 93 38q19 0 25 -4l14 -5q-12 51 -53 71q-9 5 -21 5q-63 0 -63 -47h-72q0 90 -87 90q-62 0 -62 -40q0 -34 54 -47z" />
    </font>
</defs>
</svg>
