<?xml version="1.0" standalone="no"?>
<!DOCTYPE svg PUBLIC "-//W3C//DTD SVG 1.1//EN" "http://www.w3.org/Graphics/SVG/1.1/DTD/svg11.dtd" >
<svg xmlns="http://www.w3.org/2000/svg" xmlns:xlink="http://www.w3.org/1999/xlink" version="1.1">
<metadata>
Created by FontForge 20201107 at Sat Dec  3 12:15:17 2016
 By 
Copyright 2016 The Saira Project Authors (omnibus.type@gmail.com), with reserved font name "Saira".
</metadata>
<defs>
<font id="SairaSemiCondensed-Light" horiz-adv-x="0" >
  <font-face 
    font-family="Saira SemiCondensed Light"
    font-weight="300"
    font-stretch="semi-condensed"
    units-per-em="1000"
    panose-1="0 0 4 6 0 0 0 0 0 0"
    ascent="800"
    descent="-200"
    x-height="510"
    cap-height="688"
    bbox="-542 -345 1069 1088"
    underline-thickness="50"
    underline-position="-100"
    unicode-range="U+000D-FB02"
  />
<missing-glyph horiz-adv-x="500" 
d="M0 0v700h500v-700h-500zM450 650h-400v-600h400v600zM229 278q0 29 13.5 48t40.5 41q28 23 42 43.5t14 54.5q0 31 -19 59t-70 28q-58 0 -78 -33.5t-20 -66.5v-28h-49q-4 12 -4 31q0 23 10.5 56t44 62t96.5 29t94.5 -28t40 -58t8.5 -49q0 -45 -18.5 -74t-48.5 -55
q-22 -18 -33 -33t-11 -37v-53h-53v63zM225 99v70h60v-70h-60z" />
    <glyph glyph-name="fi" unicode="fi" horiz-adv-x="533" 
d="M116 461h-91v49h91v98q0 60 17 89t52 37.5t102 8.5v-45q-48 0 -72 -6.5t-33.5 -23t-9.5 -50.5v-108h115v-49h-115v-461h-56v461zM393 668v75h62v-75h-62zM396 0v510h56v-510h-56z" />
    <glyph glyph-name="fl" unicode="fl" horiz-adv-x="533" 
d="M116 461h-91v49h91v98q0 60 17 89t52 37.5t102 8.5v-45q-48 0 -72 -6.5t-33.5 -23t-9.5 -50.5v-108h115v-49h-115v-461h-56v461zM396 0v743h56v-743h-56z" />
    <glyph glyph-name="f_f" unicode="ff" horiz-adv-x="630" 
d="M116 461h-91v49h91v98q0 60 17 89t52 37.5t102 8.5v-45q-48 0 -72 -6.5t-33.5 -23t-9.5 -50.5v-108h115v-49h-115v-461h-56v461zM431 461h-91v49h91v98q0 60 17 89t52 37.5t102 8.5v-45q-48 0 -72 -6.5t-33.5 -23t-9.5 -50.5v-108h115v-49h-115v-461h-56v461z" />
    <glyph glyph-name=".notdef" horiz-adv-x="500" 
d="M0 0v700h500v-700h-500zM450 650h-400v-600h400v600zM229 278q0 29 13.5 48t40.5 41q28 23 42 43.5t14 54.5q0 31 -19 59t-70 28q-58 0 -78 -33.5t-20 -66.5v-28h-49q-4 12 -4 31q0 23 10.5 56t44 62t96.5 29t94.5 -28t40 -58t8.5 -49q0 -45 -18.5 -74t-48.5 -55
q-22 -18 -33 -33t-11 -37v-53h-53v63zM225 99v70h60v-70h-60z" />
    <glyph glyph-name=".null" 
 />
    <glyph glyph-name="nonmarkingreturn" unicode="&#xd;" horiz-adv-x="209" 
 />
    <glyph glyph-name="NULL" 
 />
    <glyph glyph-name="NULL" 
 />
    <glyph glyph-name="space" unicode=" " horiz-adv-x="209" 
 />
    <glyph glyph-name="exclam" unicode="!" horiz-adv-x="207" 
d="M78 357q-6 162 -6 207v124h65v-124q0 -45 -6 -207l-5 -173h-43zM70 0v80h68v-80h-68z" />
    <glyph glyph-name="quotedbl" unicode="&#x22;" horiz-adv-x="288" 
d="M66 449l-9 157v82h57v-82l-10 -157h-38zM183 449l-9 157v82h57v-82l-10 -157h-38z" />
    <glyph glyph-name="numbersign" unicode="#" horiz-adv-x="682" 
d="M313 0l39 197h-160l-38 -197h-48l39 197h-85v47h94l38 192h-100v46h109l41 206h47l-40 -206h159l41 206h47l-40 -206h90v-46h-99l-39 -192h106v-47h-115l-38 -197h-48zM399 436h-160l-38 -192h160z" />
    <glyph glyph-name="dollar" unicode="$" horiz-adv-x="478" 
d="M398 132q-15 -32 -46.5 -46.5t-85.5 -17.5v-76h-48v76q-78 2 -139 12v50q75 -10 139 -11v204l-48 6q-42 5 -64.5 19.5t-31.5 42t-9 75.5q0 57 17 89.5t50 46.5t86 16v78h48v-77q79 -3 122 -13v-50q-52 8 -122 12v-196l48 -6q40 -5 60.5 -17.5t29.5 -42t9 -86.5
q0 -56 -15 -88zM218 377v191q-50 -3 -73 -22t-23 -75q0 -38 5 -55.5t17.5 -24.5t39.5 -10zM337.5 143.5q18.5 21.5 18.5 75.5q0 42 -5.5 61t-17 25t-37.5 9l-30 4v-199q53 3 71.5 24.5z" />
    <glyph glyph-name="percent" unicode="%" horiz-adv-x="721" 
d="M95.5 326q-25.5 15 -33 53t-7.5 124t8 124.5t33 53.5t82 15t82 -15t32.5 -53.5t7.5 -124.5t-7.5 -124t-32.5 -53t-82 -15t-82.5 15zM140 0l393 688h49l-394 -688h-48zM230.5 360q14.5 8 19.5 37.5t5 105.5q0 78 -4.5 107t-19 37t-53.5 8q-38 0 -52.5 -8t-19.5 -37.5
t-5 -106.5t5 -106t19 -37t53 -8q38 0 52.5 8zM461.5 7q-25.5 15 -33 53t-7.5 124t8 124.5t33 53.5t82 15t82 -15t32.5 -53.5t7.5 -124.5t-7.5 -124t-32.5 -53t-82 -15t-82.5 15zM597 41q14 8 19 37t5 106q0 79 -4 107.5t-18.5 36.5t-54.5 8q-38 0 -52.5 -8t-19.5 -38
t-5 -106t5 -105.5t19.5 -37.5t52.5 -8q39 0 53 8z" />
    <glyph glyph-name="ampersand" unicode="&#x26;" horiz-adv-x="634" 
d="M603 374v-51h-104v-314q-25 -5 -79 -11t-105 -6q-106 0 -160.5 21.5t-73 62t-18.5 108.5q0 79 26.5 114.5t83.5 50.5v4q-54 15 -79.5 52t-25.5 110q0 61 20 100t73.5 60t152.5 21q41 0 92.5 -5t89.5 -12v-48q-37 7 -83 11t-77 4q-92 0 -137 -13.5t-59.5 -41.5t-14.5 -83
q0 -39 8 -67t37.5 -47.5t87.5 -19.5h88v-51h-88q-61 0 -90.5 -16t-38.5 -45.5t-9 -80.5q0 -59 20.5 -89t62 -40.5t114.5 -10.5q76 0 126 10v323h160z" />
    <glyph glyph-name="quotesingle" unicode="'" horiz-adv-x="170" 
d="M66 449l-9 157v82h57v-82l-10 -157h-38z" />
    <glyph glyph-name="parenleft" unicode="(" horiz-adv-x="265" 
d="M123.5 -28.5q-24.5 48.5 -36 122t-11.5 203.5t11.5 203.5t36 122.5t77.5 120h47q-49 -71 -70.5 -114.5t-34 -120t-12.5 -211.5t12.5 -211.5t34 -120.5t70.5 -115h-47q-53 73 -77.5 121.5z" />
    <glyph glyph-name="parenright" unicode=")" horiz-adv-x="265" 
d="M87.5 -35q21.5 44 34 120.5t12.5 211.5t-12.5 211.5t-34 120t-70.5 114.5h47q53 -71 77.5 -120t36 -122.5t11.5 -203.5t-11.5 -203.5t-36 -122t-77.5 -121.5h-47q49 71 70.5 115z" />
    <glyph glyph-name="asterisk" unicode="*" horiz-adv-x="422" 
d="M227 485l7 -146h-46l6 146l-122 -79l-23 41l129 66l-129 68l23 40l122 -79l-6 146h46l-7 -146l123 79l23 -40l-129 -68l129 -66l-23 -41z" />
    <glyph glyph-name="plus" unicode="+" horiz-adv-x="512" 
d="M231 63v166h-165v48h165v166h49v-166h166v-48h-166v-166h-49z" />
    <glyph glyph-name="comma" unicode="," horiz-adv-x="188" 
d="M78 -68.5q9 12.5 9 51.5v17h-27v80h68v-78q0 -47 -7 -70.5t-26.5 -33t-58.5 -9.5v30q33 0 42 12.5z" />
    <glyph glyph-name="hyphen" unicode="-" horiz-adv-x="332" 
d="M60 259v54h212v-54h-212z" />
    <glyph glyph-name="period" unicode="." horiz-adv-x="188" 
d="M60 0v80h68v-80h-68z" />
    <glyph glyph-name="slash" unicode="/" horiz-adv-x="312" 
d="M8 -55l241 798h54l-241 -798h-54z" />
    <glyph glyph-name="zero" unicode="0" horiz-adv-x="581" 
d="M138 17q-44 25 -55.5 92t-11.5 235t11.5 235t55.5 92t153 25q110 0 153.5 -25t54.5 -91t11 -236q0 -168 -11.5 -235t-55.5 -92t-152 -25q-109 0 -153 25zM405 60.5q30 15.5 38.5 71.5t8.5 212t-8.5 212t-38.5 71.5t-114 15.5t-114.5 -15.5t-39 -71.5t-8.5 -212t8.5 -212
t39 -71.5t114.5 -15.5t114 15.5z" />
    <glyph glyph-name="one" unicode="1" horiz-adv-x="322" 
d="M162 0v616l-124 -64v57l138 79h44v-688h-58z" />
    <glyph glyph-name="two" unicode="2" horiz-adv-x="524" 
d="M120 53h341v-53h-398v75q0 87 4.5 123.5t24.5 60t70 47.5l167 83q45 22 59.5 48t14.5 80t-13 80.5t-44.5 36t-94.5 9.5q-71 0 -177 -11v49q35 7 89.5 11t102.5 4q65 0 105.5 -11t65 -48t24.5 -111q0 -56 -10 -90t-32.5 -55t-63.5 -42l-187 -91q-31 -16 -40 -40
q-5 -16 -6.5 -37.5t-1.5 -60.5v-57z" />
    <glyph glyph-name="three" unicode="3" horiz-adv-x="512" 
d="M134.5 -3.5q-48.5 4.5 -86.5 10.5v50q99 -12 169 -12q60 0 95.5 9.5t54.5 39t19 87.5q0 77 -28 109t-94 32h-115v53h115q51 0 83 29t32 104q0 58 -17.5 87t-53 38.5t-100.5 9.5q-33 0 -77.5 -3.5t-79.5 -8.5v50q38 6 86 10.5t85 4.5q83 0 129.5 -18.5t66.5 -57.5t20 -105
q0 -73 -26 -111t-77 -50v-4q54 -10 82 -48t28 -118q0 -67 -17.5 -108t-66.5 -62.5t-140 -21.5q-38 0 -86.5 4.5z" />
    <glyph glyph-name="four" unicode="4" horiz-adv-x="555" 
d="M362 0v168h-320v48l230 472h65l-231 -467h257l8 273h50v-273h90v-53h-90v-168h-59z" />
    <glyph glyph-name="five" unicode="5" horiz-adv-x="530" 
d="M241 45q71 0 106.5 14t49 46.5t13.5 94.5q0 67 -14.5 97.5t-52 41t-117.5 10.5q-58 0 -148 -14v353h347v-53h-290v-243q55 10 133 10q86 0 129.5 -21t57.5 -61.5t14 -111.5q0 -83 -18.5 -129t-66 -66.5t-138.5 -20.5q-40 0 -89 4t-85 11v50q101 -12 169 -12z" />
    <glyph glyph-name="six" unicode="6" horiz-adv-x="564" 
d="M192.5 0.5q-40.5 8.5 -67 34t-40.5 74.5q-8 28 -11 81t-3 146q0 89 3.5 144.5t14.5 91.5q21 71 71 97.5t151 26.5q32 0 79 -4.5t90 -11.5v-49q-87 12 -158 12q-89 0 -128 -21.5t-51.5 -79.5t-12.5 -189h5q17 23 55 37t118 14q82 0 123.5 -13t61 -53t19.5 -124
q0 -91 -16 -137t-60.5 -65.5t-134.5 -19.5q-68 0 -108.5 8.5zM396 55q32 10 45 40.5t13 99.5q0 75 -12 106.5t-43 40.5t-105 9q-73 0 -107 -11.5t-44.5 -36.5t-10.5 -76q0 -81 14 -119t47 -50.5t101 -12.5q70 0 102 10z" />
    <glyph glyph-name="seven" unicode="7" horiz-adv-x="483" 
d="M124 0l251 635h-340v53h404v-47l-251 -641h-64z" />
    <glyph glyph-name="eight" unicode="8" horiz-adv-x="588" 
d="M151 12.5q-49 20.5 -66.5 61t-17.5 110.5q0 58 12 91t35 49t62 25v4q-54 11 -79 49.5t-25 112.5q0 67 19.5 105.5t67.5 57t135 18.5t134.5 -18.5t67 -57t19.5 -105.5q0 -75 -24.5 -113t-78.5 -49v-4q39 -9 62 -25t35 -49t12 -91q0 -70 -17.5 -110.5t-66.5 -61t-143 -20.5
t-143 20.5zM395.5 385.5q34.5 11.5 48 39.5t13.5 83q0 56 -13 84t-47.5 39.5t-102.5 11.5t-102.5 -11.5t-47.5 -39.5t-13 -84q0 -55 13.5 -83t48 -39.5t101.5 -11.5t101.5 11.5zM397 55.5q35 10.5 50 39.5t15 87q0 62 -13.5 91t-48 39t-106.5 10t-106.5 -10t-48 -39
t-13.5 -91q0 -58 15 -87t50 -39.5t103 -10.5t103 10.5z" />
    <glyph glyph-name="nine" unicode="9" horiz-adv-x="564" 
d="M173 -3.5q-47 4.5 -88 11.5v49q84 -12 157 -12q89 0 128 21.5t52 79.5t13 189h-6q-16 -23 -54 -37t-118 -14q-82 0 -123.5 13t-61 53t-19.5 124q0 91 16 137t60.5 65.5t134.5 19.5q67 0 108 -8.5t66.5 -31.5t38.5 -69q10 -34 13 -88t3 -147q0 -95 -4 -152.5t-17 -95.5
q-22 -64 -71.5 -88t-146.5 -24q-34 0 -81 4.5zM378 348.5q34 11.5 44 36.5t10 76q0 81 -14 119t-46.5 50.5t-100.5 12.5q-70 0 -102 -10t-45 -40.5t-13 -99.5q0 -75 12 -106.5t43 -40.5t105 -9q73 0 107 11.5z" />
    <glyph glyph-name="colon" unicode=":" horiz-adv-x="188" 
d="M60 430v80h68v-80h-68zM60 0v80h68v-80h-68z" />
    <glyph glyph-name="semicolon" unicode=";" horiz-adv-x="188" 
d="M60 430v80h68v-80h-68zM78 -68.5q9 12.5 9 51.5v17h-27v80h68v-78q0 -47 -7 -70.5t-26.5 -33t-58.5 -9.5v30q33 0 42 12.5z" />
    <glyph glyph-name="less" unicode="&#x3c;" horiz-adv-x="513" 
d="M447 55l-380 166v63l380 167v-53l-332 -145l332 -145v-53z" />
    <glyph glyph-name="equal" unicode="=" horiz-adv-x="512" 
d="M66 324v48h380v-48h-380zM66 133v49h380v-49h-380z" />
    <glyph glyph-name="greater" unicode="&#x3e;" horiz-adv-x="513" 
d="M66 55v53l332 145l-332 145v53l380 -167v-63z" />
    <glyph glyph-name="question" unicode="?" horiz-adv-x="431" 
d="M132 269q0 37 7 56.5t21 29.5t43 22l25 10q35 15 51 28t22 36.5t6 70.5q0 52 -11.5 77.5t-39 34.5t-82.5 9q-50 0 -143 -11v49q36 7 81 11t78 4q66 0 104 -16t55 -52t17 -97q0 -73 -14.5 -113t-63.5 -61l-21 -8q-41 -17 -56.5 -27.5t-20 -23t-4.5 -39.5v-76h-54v86z
M125 0v80h68v-80h-68z" />
    <glyph glyph-name="at" unicode="@" horiz-adv-x="806" 
d="M172.5 -80.5q-64.5 27.5 -80.5 102t-16 272.5t16 272.5t80.5 102t230.5 27.5q167 0 231.5 -27.5t80.5 -102t16 -272.5q0 -104 -10.5 -150t-32 -57.5t-68.5 -11.5h-106l-4 64h-5q-13 -43 -46.5 -57t-80.5 -14q-48 0 -76 11t-42 38t-14 77q0 49 10 76.5t35 39.5t71 12
q49 0 145 -4v33q0 58 -8 82t-31 31.5t-77 7.5q-26 0 -63 -3t-56 -7v45q57 11 135 11q65 0 97 -14.5t43.5 -48t11.5 -101.5v-243h71q25 0 37 9t18 47.5t6 126.5q0 154 -7.5 220t-36 97.5t-96.5 40.5q-61 8 -149 8q-74 0 -141 -7q-71 -8 -101 -38.5t-37.5 -97t-7.5 -223.5
q0 -160 9 -226.5t43 -96.5t117 -38q48 -4 119 -4q120 0 156 3v-38q-32 -2 -156 -2q-166 0 -230.5 27.5zM459.5 125q25.5 12 36.5 41t11 84v31h-132q-34 0 -49.5 -6t-21.5 -23t-6 -55q0 -36 7 -53.5t25.5 -24t57.5 -6.5q46 0 71.5 12z" />
    <glyph glyph-name="A" unicode="A" horiz-adv-x="590" 
d="M500 0l-68 204h-276l-68 -204h-60l231 688h72l231 -688h-62zM297 615h-5l-119 -358h242z" />
    <glyph glyph-name="B" unicode="B" horiz-adv-x="590" 
d="M92 688h259q91 0 129 -44.5t38 -127.5q0 -69 -26 -109.5t-84 -52.5v-4q68 -12 92.5 -56t24.5 -113q0 -82 -38 -131.5t-142 -49.5h-253v688zM427.5 408q31.5 33 31.5 97q0 71 -26 100.5t-97 29.5h-186v-260h186q60 0 91.5 33zM438 83.5q28 31.5 28 103.5t-29.5 103.5
t-97.5 31.5h-189v-270h189q71 0 99 31.5z" />
    <glyph glyph-name="C" unicode="C" horiz-adv-x="490" 
d="M376.5 -5q-38.5 -3 -69.5 -3q-106 0 -154 25t-65 96.5t-17 230.5q0 158 17 229.5t65 97t154 25.5q32 0 69 -4t62 -9v-49q-65 9 -118 9q-92 0 -129 -18.5t-49 -77t-12 -203.5t12 -203.5t49 -77t129 -18.5q63 0 122 9v-51q-27 -5 -65.5 -8z" />
    <glyph glyph-name="D" unicode="D" horiz-adv-x="596" 
d="M92 688h185q120 0 170 -24.5t64 -91t14 -228.5t-14 -228.5t-64 -91t-170 -24.5h-185v688zM266 53q103 0 140 14.5t48.5 69.5t11.5 207q0 150 -12 206t-49 70.5t-139 14.5h-116v-582h116z" />
    <glyph glyph-name="E" unicode="E" horiz-adv-x="517" 
d="M92 0v688h377v-53h-318v-261h278v-52h-278v-269h318v-53h-377z" />
    <glyph glyph-name="F" unicode="F" horiz-adv-x="486" 
d="M92 0v688h360v-53h-301v-276h269v-52h-269v-307h-59z" />
    <glyph glyph-name="G" unicode="G" horiz-adv-x="584" 
d="M303 307v52h203v-349q-40 -8 -93 -13t-94 -5q-108 0 -158.5 25.5t-70 98t-19.5 228.5q0 155 19.5 227.5t70.5 98.5t159 26q45 0 97.5 -5.5t86.5 -13.5v-49q-36 6 -80.5 10.5t-72.5 4.5q-104 0 -145.5 -15t-58.5 -75.5t-17 -208.5q0 -138 12.5 -197.5t50.5 -81t126 -21.5
q28 0 66 3t64 7v253h-146z" />
    <glyph glyph-name="H" unicode="H" horiz-adv-x="634" 
d="M484 0v320h-334v-320h-58v688h58v-313h334v313h59v-688h-59z" />
    <glyph glyph-name="I" unicode="I" horiz-adv-x="245" 
d="M93 0v688h59v-688h-59z" />
    <glyph glyph-name="J" unicode="J" horiz-adv-x="290" 
d="M114 63q22 10 27.5 44t5.5 135v446h59v-426q0 -135 -9.5 -184t-42.5 -63t-126 -15v51q64 2 86 12z" />
    <glyph glyph-name="K" unicode="K" horiz-adv-x="575" 
d="M481 0l-208 323h-123v-323h-58v688h58v-313h123l208 313h65l-225 -337l227 -351h-67z" />
    <glyph glyph-name="L" unicode="L" horiz-adv-x="459" 
d="M92 0v688h59v-634h284v-54h-343z" />
    <glyph glyph-name="M" unicode="M" horiz-adv-x="793" 
d="M643 0v583h-4l-218 -583h-52l-217 583h-4v-583h-56v688h82l220 -591h5l221 591h81v-688h-58z" />
    <glyph glyph-name="N" unicode="N" horiz-adv-x="635" 
d="M485 0l-333 569h-4v-569h-56v688h60l330 -563h4v563h57v-688h-58z" />
    <glyph glyph-name="O" unicode="O" horiz-adv-x="623" 
d="M147 17q-48 25 -62 93.5t-14 233.5t14 233.5t62 93.5t164 25q117 0 165 -25t62 -93.5t14 -233.5t-14 -233.5t-62 -93.5t-165 -25q-116 0 -164 25zM437 60q34 15 45 73t11 211t-11 211t-45 73t-126 15q-91 0 -125 -15t-45 -73t-11 -211t11 -211t45 -73t125 -15
q92 0 126 15z" />
    <glyph glyph-name="P" unicode="P" horiz-adv-x="561" 
d="M92 688h247q77 0 115.5 -27t49 -71t10.5 -114q0 -68 -11 -112.5t-49 -72t-115 -27.5h-189v-264h-58v688zM327 316q58 0 85.5 18t35.5 50.5t8 91.5q0 60 -7.5 92t-35.5 49.5t-86 17.5h-177v-319h177z" />
    <glyph glyph-name="Q" unicode="Q" horiz-adv-x="623" 
d="M566 -113v-2h-66l-75 115q-40 -8 -114 -8q-116 0 -164 25t-62 93.5t-14 233.5t14 233.5t62 93.5t164 25q117 0 165 -25t62 -93.5t14 -233.5q0 -110 -5 -170t-20.5 -98t-48.5 -57zM394 48l-111 170h63l101 -152q20 14 29.5 45.5t13 84.5t3.5 148q0 153 -11 211t-45 73
t-126 15q-91 0 -125 -15t-45 -73t-11 -211t11 -211t45 -73t125 -15q61 0 83 3z" />
    <glyph glyph-name="R" unicode="R" horiz-adv-x="590" 
d="M468 0l-101 285q-10 -1 -26 -1h-191v-284h-58v688h259q75 0 112.5 -26.5t48 -68t10.5 -107.5q0 -76 -18.5 -124.5t-79.5 -66.5l107 -295h-63zM418.5 353q28.5 17 36.5 48t8 85q0 55 -7.5 85t-34 47t-82.5 17h-189v-299h182q58 0 86.5 17z" />
    <glyph glyph-name="S" unicode="S" horiz-adv-x="540" 
d="M174 -4.5q-56 3.5 -97 9.5v52q42 -5 95 -8.5t90 -3.5q48 0 76.5 5t50.5 19q20 14 26.5 42.5t6.5 74.5q0 60 -5 83.5t-24.5 33.5t-69.5 16l-149 19q-52 6 -77 27t-31.5 54t-6.5 90q0 73 22.5 114t68.5 57t122 16q49 0 98.5 -4t79.5 -10v-51q-81 12 -167 12q-53 0 -85 -6.5
t-50 -22.5q-18 -15 -24 -39.5t-6 -65.5q0 -48 5.5 -70t21.5 -32t52 -14l143 -18q59 -8 88 -21.5t42 -51.5q6 -17 8 -41.5t2 -67.5q0 -83 -21.5 -126.5t-64 -59t-115.5 -15.5q-49 0 -105 3.5z" />
    <glyph glyph-name="T" unicode="T" horiz-adv-x="499" 
d="M220 0v634h-192v54h443v-54h-192v-634h-59z" />
    <glyph glyph-name="U" unicode="U" horiz-adv-x="617" 
d="M533 688v-391q0 -133 -14 -193.5t-60 -86t-150 -25.5t-150.5 25.5t-60.5 86t-14 193.5v391h59v-424q0 -99 9.5 -141.5t43.5 -60t113 -17.5t112.5 17.5t43 60t9.5 141.5v424h59z" />
    <glyph glyph-name="V" unicode="V" horiz-adv-x="565" 
d="M247 0l-222 688h61l194 -609h6l194 609h60l-222 -688h-71z" />
    <glyph glyph-name="W" unicode="W" horiz-adv-x="840" 
d="M577 0l-154 587h-4l-154 -587h-69l-165 688h61l138 -598h6l154 598h64l155 -598h6l137 598h59l-165 -688h-69z" />
    <glyph glyph-name="X" unicode="X" horiz-adv-x="581" 
d="M485 0l-192 295h-7l-192 -295h-66l226 346l-223 342h68l189 -291h7l189 291h66l-222 -341l225 -347h-68z" />
    <glyph glyph-name="Y" unicode="Y" horiz-adv-x="518" 
d="M229 0v271l-218 417h63l183 -349h7l182 349h62l-220 -417v-271h-59z" />
    <glyph glyph-name="Z" unicode="Z" horiz-adv-x="514" 
d="M44 0v50l352 585h-342v53h413v-49l-352 -587h358v-52h-429z" />
    <glyph glyph-name="bracketleft" unicode="[" horiz-adv-x="283" 
d="M92 -150v893h157v-45l-103 -4v-795l103 -4v-45h-157z" />
    <glyph glyph-name="backslash" unicode="\" horiz-adv-x="312" 
d="M250 -55l-242 798h55l240 -798h-53z" />
    <glyph glyph-name="bracketright" unicode="]" horiz-adv-x="283" 
d="M34 -150v45l103 4v795l-103 4v45h157v-893h-157z" />
    <glyph glyph-name="asciicircum" unicode="^" horiz-adv-x="440" 
d="M332 460l-112 248l-112 -248h-52l133 289h62l132 -289h-51z" />
    <glyph glyph-name="underscore" unicode="_" horiz-adv-x="331" 
d="M0 -165v48h331v-48h-331z" />
    <glyph glyph-name="grave" unicode="`" horiz-adv-x="171" 
d="M115 603l-102 135v5h64l80 -135v-5h-42z" />
    <glyph glyph-name="a" unicode="a" horiz-adv-x="501" 
d="M116 4.5q-34 12.5 -50.5 44.5t-16.5 90t12.5 89.5t42.5 45.5t85 14q28 0 176 -5v40q0 69 -10.5 98.5t-39 38.5t-94.5 9q-29 0 -72 -3.5t-69 -8.5v48q65 13 159 13q77 0 115.5 -16.5t52.5 -56.5t14 -119v-326h-48l-4 76h-5q-17 -51 -59 -67.5t-99 -16.5q-56 0 -90 12.5z
M299.5 51q31.5 10 45.5 41q11 25 15.5 51.5t4.5 64.5v35h-162q-42 0 -62 -7.5t-28 -28.5t-8 -65q0 -42 9 -63t33 -29.5t72 -8.5q49 0 80.5 10z" />
    <glyph glyph-name="b" unicode="b" horiz-adv-x="524" 
d="M193 9q-39 17 -56 67h-4l-4 -76h-48v743h56v-300h4q16 40 53 57.5t97 17.5q73 0 109 -22t49.5 -77t13.5 -164t-14 -164t-50 -77t-109 -22q-58 0 -97 17zM361 57.5q27 14.5 36.5 57t9.5 140.5t-9.5 140.5t-36.5 57t-90 14.5q-50 0 -79.5 -15.5t-40.5 -49.5
q-9 -27 -11.5 -59.5t-2.5 -87.5q0 -52 2.5 -84.5t10.5 -59.5q11 -36 40.5 -52t80.5 -16q63 0 90 14.5z" />
    <glyph glyph-name="c" unicode="c" horiz-adv-x="405" 
d="M307.5 -4.5q-33.5 -3.5 -64.5 -3.5q-82 0 -120.5 26t-50 78.5t-11.5 157.5q0 107 14 162t52 78.5t113 23.5q30 0 63.5 -3.5t54.5 -8.5v-48q-55 11 -106 11q-60 0 -88 -17t-37.5 -60t-9.5 -136q0 -96 9.5 -139.5t37.5 -59.5t90 -16q26 0 56.5 3.5t51.5 8.5v-48
q-21 -6 -54.5 -9.5z" />
    <glyph glyph-name="d" unicode="d" horiz-adv-x="524" 
d="M125 14q-36 22 -50 76.5t-14 164.5q0 109 13.5 164t49.5 77t109 22q60 0 96.5 -17.5t52.5 -57.5h5v300h56v-743h-48l-4 76h-5q-16 -50 -55.5 -67t-97.5 -17q-72 0 -108 22zM333.5 59q29.5 16 39.5 50q9 29 11.5 62.5t2.5 93.5q0 43 -2 73t-9 52q-12 41 -42 59t-85 18
q-61 0 -87.5 -14.5t-35.5 -57t-9 -140.5t9.5 -140.5t36.5 -57t90 -14.5q51 0 80.5 16z" />
    <glyph glyph-name="e" unicode="e" horiz-adv-x="496" 
d="M435 236h-318q0 -87 9.5 -125.5t40.5 -54t102 -15.5q34 0 75.5 3.5t73.5 9.5v-48q-26 -6 -71 -10t-88 -4q-89 0 -130 22.5t-54.5 75.5t-13.5 164t11 163t52 76.5t134 24.5q83 0 120 -23.5t47 -75t10 -163.5v-20zM163 455.5q-28 -13.5 -37 -51t-9 -123.5h263v15
q0 79 -10.5 114.5t-35.5 47t-78 11.5q-65 0 -93 -13.5z" />
    <glyph glyph-name="f" unicode="f" horiz-adv-x="315" 
d="M116 461h-91v49h91v98q0 60 17 89t52 37.5t102 8.5v-45q-48 0 -72 -6.5t-33.5 -23t-9.5 -50.5v-108h115v-49h-115v-461h-56v461z" />
    <glyph glyph-name="g" unicode="g" horiz-adv-x="524" 
d="M80 -195v48q72 -6 150 -6q71 0 103.5 17t43 59t10.5 131v15h-5q-15 -41 -51.5 -58t-97.5 -17q-73 0 -109 21.5t-49.5 76t-13.5 163.5t14 164t50 77t108 22q58 0 97.5 -17t55.5 -67h5l3 76h49v-438q0 -110 -14 -166.5t-57 -82.5t-132 -26q-96 0 -160 8zM333.5 60.5
q29.5 16.5 40.5 53.5q8 26 10.5 58.5t2.5 82.5q0 51 -2 81.5t-9 53.5q-12 42 -41.5 59.5t-82.5 17.5q-62 0 -89 -14t-36.5 -57t-9.5 -141t9.5 -140t36.5 -56.5t89 -14.5q52 0 81.5 16.5z" />
    <glyph glyph-name="h" unicode="h" horiz-adv-x="529" 
d="M394 304q0 75 -9 108t-33.5 44t-80.5 11q-63 0 -91.5 -24.5t-35.5 -64t-7 -114.5v-264h-56v743h56v-301h4q13 34 47 55t103 21q68 0 102 -19.5t45.5 -60.5t11.5 -116v-322h-56v304z" />
    <glyph glyph-name="i" unicode="i" horiz-adv-x="218" 
d="M78 668v75h62v-75h-62zM81 0v510h56v-510h-56z" />
    <glyph glyph-name="j" unicode="j" horiz-adv-x="218" 
d="M78 668v75h62v-75h-62zM-5 -151q39 0 57 5t23.5 16t5.5 35v605h56v-589q0 -54 -14 -79t-42 -32t-86 -7v46z" />
    <glyph glyph-name="k" unicode="k" horiz-adv-x="466" 
d="M371 0l-167 233h-67v-233h-56v743h56v-459h67l166 226h64l-184 -247l187 -263h-66z" />
    <glyph glyph-name="l" unicode="l" horiz-adv-x="218" 
d="M81 0v743h56v-743h-56z" />
    <glyph glyph-name="m" unicode="m" horiz-adv-x="792" 
d="M656 304q0 75 -8 108t-29.5 44t-71.5 11q-58 0 -84 -23t-32.5 -62.5t-6.5 -117.5v-264h-56v304q0 75 -7.5 108t-29 44t-71.5 11q-57 0 -83.5 -24.5t-33 -64.5t-6.5 -114v-264h-56v510h48l4 -76h4q13 39 45 61.5t97 22.5q64 0 95 -19.5t42 -64.5h5q13 39 46.5 61.5
t98.5 22.5q62 0 93 -19.5t42 -60.5t11 -116v-322h-56v304z" />
    <glyph glyph-name="n" unicode="n" horiz-adv-x="529" 
d="M394 304q0 75 -9 108t-33.5 44t-80.5 11q-63 0 -91.5 -24.5t-35.5 -64t-7 -114.5v-264h-56v510h48l4 -76h4q14 40 48.5 62t105.5 22q68 0 102 -19.5t45.5 -60.5t11.5 -117v-321h-56v304z" />
    <glyph glyph-name="o" unicode="o" horiz-adv-x="511" 
d="M123 12.5q-40 20.5 -51 72t-11 169.5q0 119 11 170.5t51 72.5t132 21q93 0 132.5 -21t51 -72.5t11.5 -170.5q0 -118 -11.5 -169.5t-51 -72t-132.5 -20.5q-92 0 -132 20.5zM353 56q28 15 34.5 54.5t6.5 143.5t-6.5 144t-34.5 55.5t-98 15.5t-97.5 -15.5t-34 -55
t-6.5 -144.5q0 -104 6.5 -143.5t34 -54.5t97.5 -15t98 15z" />
    <glyph glyph-name="p" unicode="p" horiz-adv-x="524" 
d="M81 510h48l4 -76h4q17 50 56 67t97 17q73 0 109 -22t50 -76.5t14 -164.5q0 -109 -13.5 -164t-49.5 -77t-109 -22q-60 0 -97 17.5t-53 57.5h-4v-263h-56v706zM361 57.5q27 14.5 36.5 57t9.5 140.5t-9.5 140.5t-36.5 57t-90 14.5q-51 0 -81 -17t-41 -55q-8 -25 -10 -55
t-2 -85q0 -50 1.5 -80.5t7.5 -50.5q13 -44 42.5 -62.5t82.5 -18.5q63 0 90 14.5z" />
    <glyph glyph-name="q" unicode="q" horiz-adv-x="524" 
d="M387 67h-5q-16 -40 -52.5 -57.5t-96.5 -17.5q-73 0 -109 22t-49.5 76.5t-13.5 164.5q0 109 14 164t50 77t108 22q58 0 97.5 -17t55.5 -67h5l4 76h48v-706h-56v263zM334 60.5q29 17.5 42 57.5q7 23 9 54.5t2 82.5q0 52 -2.5 84.5t-11.5 61.5q-10 34 -40 50t-80 16
q-63 0 -90 -14.5t-36.5 -57t-9.5 -140.5t9.5 -140.5t36.5 -57t90 -14.5q52 0 81 17.5z" />
    <glyph glyph-name="r" unicode="r" horiz-adv-x="315" 
d="M81 510h48l4 -101h4q15 62 53.5 85.5t100.5 23.5v-57q-61 0 -94.5 -23.5t-46.5 -69t-13 -119.5v-249h-56v510z" />
    <glyph glyph-name="s" unicode="s" horiz-adv-x="440" 
d="M140 -4.5q-44 3.5 -75 8.5v48q85 -11 160 -11q46 0 69.5 10t31 29.5t7.5 55.5q0 41 -5 58.5t-17.5 23.5t-40.5 9l-122 14q-57 7 -77 35t-20 95q0 62 20.5 94t57.5 42.5t98 10.5q32 0 71 -4t66 -9v-48q-66 12 -144 12q-40 0 -63.5 -6t-37 -26.5t-13.5 -60.5
q0 -36 5.5 -52.5t18 -23t39.5 -9.5l120 -14q40 -4 60.5 -15.5t30 -40t9.5 -83.5q0 -58 -17.5 -89.5t-53.5 -44t-97 -12.5q-37 0 -81 3.5z" />
    <glyph glyph-name="t" unicode="t" horiz-adv-x="304" 
d="M116 0v461h-91v49h91v148h56v-148h107v-49h-107v-461h-56z" />
    <glyph glyph-name="u" unicode="u" horiz-adv-x="529" 
d="M397 76h-5q-14 -40 -48.5 -62t-105.5 -22q-68 0 -101.5 19.5t-45 60.5t-11.5 117v321h56v-304q0 -75 9 -108t33.5 -44t79.5 -11q63 0 92 24.5t36 64.5t7 114v264h56v-510h-49z" />
    <glyph glyph-name="v" unicode="v" horiz-adv-x="465" 
d="M200 0l-173 510h59l144 -438h6l144 438h58l-173 -510h-65z" />
    <glyph glyph-name="w" unicode="w" horiz-adv-x="711" 
d="M470 0l-112 412h-6l-112 -412h-64l-146 510h58l119 -431h6l114 431h58l116 -431h6l117 431h57l-146 -510h-65z" />
    <glyph glyph-name="x" unicode="x" horiz-adv-x="476" 
d="M382 0l-142 212h-5l-144 -212h-62l174 259l-168 251h65l136 -203h5l137 203h63l-168 -250l174 -260h-65z" />
    <glyph glyph-name="y" unicode="y" horiz-adv-x="529" 
d="M95 -196v48q77 -5 141 -5q71 0 104 19t43 59.5t10 120.5v24h-5q-12 -35 -46 -56t-104 -21q-68 0 -101.5 20t-45 62t-11.5 120v315h56v-304q0 -74 9 -107t33.5 -44t79.5 -11q63 0 92 24t36 64t7 114v264h56v-442q0 -106 -15 -162.5t-58 -82.5t-130 -26q-83 0 -151 7z" />
    <glyph glyph-name="z" unicode="z" horiz-adv-x="437" 
d="M45 0v45l275 416h-265v49h335v-44l-275 -417h277v-49h-347z" />
    <glyph glyph-name="braceleft" unicode="{" horiz-adv-x="282" 
d="M147.5 -75q-29.5 52 -29.5 110v116q0 53 -21 89.5t-71 37.5v36q49 1 70.5 37.5t21.5 90.5v116q0 58 29.5 110t68.5 75h49q-39 -32 -65.5 -80t-26.5 -96v-120q0 -124 -83 -148v-5q83 -24 83 -148v-120q0 -48 26.5 -96t65.5 -80h-49q-39 23 -68.5 75z" />
    <glyph glyph-name="bar" unicode="|" horiz-adv-x="247" 
d="M97 -161v904h53v-904h-53z" />
    <glyph glyph-name="braceright" unicode="}" horiz-adv-x="282" 
d="M82.5 -70.5q26.5 48.5 26.5 96.5v120q0 124 82 148v5q-82 24 -82 148v120q0 48 -26 96t-66 80h48q39 -22 69 -74.5t30 -110.5v-116q0 -54 21 -90.5t71 -37.5v-36q-50 -1 -71 -37.5t-21 -89.5v-116q0 -58 -30 -110.5t-69 -74.5h-48q39 31 65.5 79.5z" />
    <glyph glyph-name="asciitilde" unicode="~" horiz-adv-x="468" 
d="M388 278.5q-13 -22.5 -55 -22.5q-24 0 -48.5 6.5t-61.5 19.5q-29 10 -48 15.5t-38 5.5q-20 0 -26 -12.5t-6 -45.5h-37q0 40 4.5 61t19 31.5t43.5 10.5q25 0 48.5 -6.5t61.5 -19.5q6 -2 24.5 -8t34 -9t27.5 -3q21 0 27 12t6 45h37q0 -58 -13 -80.5z" />
    <glyph glyph-name="uni00A0" unicode="&#xa0;" horiz-adv-x="209" 
 />
    <glyph glyph-name="exclamdown" unicode="&#xa1;" horiz-adv-x="205" 
d="M68 430v80h68v-80h-68zM70 -54q0 45 6 207l5 173h43l5 -166q1 -43 3 -113.5t2 -100.5v-124h-64v124z" />
    <glyph glyph-name="cent" unicode="&#xa2;" horiz-adv-x="421" 
d="M371 81q-41 -11 -99 -14v-75h-48v76q-69 4 -103 30t-46.5 82t-12.5 162q0 109 15 167t49.5 82t97.5 27v78h48v-78q51 -1 95 -12v-50q-46 11 -95 11v-448q55 2 99 13v-51zM129 210q8 -45 29.5 -65t65.5 -24v444q-44 -4 -65.5 -23t-29.5 -64t-8 -134t8 -134z" />
    <glyph glyph-name="sterling" unicode="&#xa3;" horiz-adv-x="513" 
d="M466 53v-53h-416v53h65v278h-65v52h65v20q0 118 17.5 179.5t64 87.5t136.5 26q33 0 67.5 -3.5t55.5 -9.5v-50q-66 10 -108 10q-46 0 -75.5 -4.5t-48.5 -17.5q-30 -20 -40.5 -72.5t-10.5 -142.5v-23h219v-52h-219v-278h293z" />
    <glyph glyph-name="currency" unicode="&#xa4;" horiz-adv-x="659" 
d="M61 25l101 101q-17 28 -22.5 77t-5.5 142q0 91 5 139.5t22 76.5l-100 101l34 34l102 -102q20 13 51.5 18.5t80.5 5.5t80.5 -5.5t51.5 -19.5l103 103l34 -34l-101 -101q16 -29 21 -77.5t5 -138.5q0 -92 -5 -141t-21 -77l101 -102l-34 -34l-104 103q-19 -13 -50.5 -18
t-80.5 -5q-50 0 -81 5t-50 18l-103 -103zM426.5 136q27.5 16 34 57.5t6.5 151.5q0 109 -6.5 150t-34 57t-97.5 16t-98 -16t-34.5 -57.5t-6.5 -149.5q0 -109 6.5 -151t34.5 -58t98 -16t97.5 16z" />
    <glyph glyph-name="yen" unicode="&#xa5;" horiz-adv-x="550" 
d="M515 688l-120 -240h91v-44h-113l-54 -109h167v-43h-182v-252h-59v252h-182v43h167l-54 109h-113v44h91l-119 240h62l115 -240h127l115 240h61zM279 324l38 80h-83l38 -80h7z" />
    <glyph glyph-name="brokenbar" unicode="&#xa6;" horiz-adv-x="247" 
d="M97 390v353h53v-353h-53zM97 -161v353h53v-353h-53z" />
    <glyph glyph-name="section" unicode="&#xa7;" horiz-adv-x="605" 
d="M196 -167q-43 4 -65 9v50q66 -10 141 -10q53 0 83.5 6.5t46.5 27t16 61.5q0 37 -5.5 55.5t-18 28t-38.5 17.5l-154 46q-59 18 -88 33.5t-42.5 43.5t-13.5 79q0 68 20.5 111t76.5 48q-15 18 -20.5 43t-5.5 63q0 60 22.5 93t64 45.5t107.5 12.5q43 0 86 -4t65 -9v-50
q-26 4 -66.5 7t-74.5 3q-53 0 -83.5 -6.5t-46.5 -27t-16 -61.5q0 -37 6 -56t21 -28.5t48 -19.5l147 -45q56 -17 83.5 -32t41 -43t13.5 -79q0 -69 -20.5 -112t-76.5 -48q15 -18 20.5 -42.5t5.5 -62.5q0 -60 -22.5 -93t-64 -45.5t-107.5 -12.5q-43 0 -86 4zM472 147.5
q18 27.5 18 83.5q0 52 -10.5 71.5t-37.5 27.5l-206 61q-43 12 -54 12q-32 0 -50 -27t-18 -83q0 -36 5 -55.5t17 -29.5t36 -17l200 -59q9 -3 26 -7.5t25 -4.5q31 0 49 27.5z" />
    <glyph glyph-name="dieresis" unicode="&#xa8;" horiz-adv-x="277" 
d="M20 660v70h58v-70h-58zM199 660v70h58v-70h-58z" />
    <glyph glyph-name="copyright" unicode="&#xa9;" horiz-adv-x="650" 
d="M153.5 15.5q-48.5 23.5 -61 90t-12.5 238.5t12.5 238.5t61 90t171.5 23.5t171.5 -23.5t61 -90t12.5 -238.5t-12.5 -238.5t-61 -90t-171.5 -23.5t-171.5 23.5zM474 42q40 18 51 78t11 224t-11 224t-51 78t-149 18t-149 -18t-51 -78t-11 -224t11 -224t51 -78t149 -18
t149 18zM261 167.5q-26 13.5 -35 52t-9 124.5q0 84 9.5 122.5t35.5 52.5t83 14q52 0 73 -6v-36q-34 4 -66 4q-45 0 -63.5 -9.5t-24 -38.5t-5.5 -103t5.5 -103.5t24 -39t63.5 -9.5q40 0 68 5v-37q-27 -6 -75 -6q-58 0 -84 13.5z" />
    <glyph glyph-name="ordfeminine" unicode="&#xaa;" horiz-adv-x="366" 
d="M65 336.5q-26 22.5 -26 86.5q0 42 9 65t30.5 33t62.5 10l79 -2l43 -1v26q0 47 -7 67t-27 26.5t-67 6.5q-21 0 -51.5 -2.5t-51.5 -6.5v41q48 10 118 10q57 0 85 -12t38 -41.5t10 -87.5v-236h-41l-5 43h-4q-15 -28 -43.5 -38t-64.5 -10q-61 0 -87 22.5zM220.5 363
q22.5 8 31.5 31q11 24 11 76v23h-111q-28 0 -42.5 -5t-20 -19.5t-5.5 -43.5q0 -42 15.5 -56t62.5 -14q36 0 58.5 8z" />
    <glyph glyph-name="guillemotleft" unicode="&#xab;" horiz-adv-x="412" 
d="M159 101l-114 204l114 205h44l-100 -205l100 -204h-44zM303 101l-115 204l115 205h43l-100 -205l100 -204h-43z" />
    <glyph glyph-name="logicalnot" unicode="&#xac;" horiz-adv-x="511" 
d="M395 62v167h-329v50h379v-217h-50z" />
    <glyph glyph-name="uni00AD" unicode="&#xad;" horiz-adv-x="332" 
d="M60 259v54h212v-54h-212z" />
    <glyph glyph-name="registered" unicode="&#xae;" horiz-adv-x="650" 
d="M496.5 672.5q48.5 -23.5 61 -90t12.5 -238.5t-12.5 -238.5t-61 -90t-171.5 -23.5t-171.5 23.5t-61 90t-12.5 238.5t12.5 238.5t61 90t171.5 23.5t171.5 -23.5zM474 42.5q40 18.5 51 78t11 223.5t-11 223.5t-51 78t-149 18.5t-149 -18t-51 -78t-11 -224t11 -224t51 -78
t149 -18t149 18.5zM436 351.5q-10 -26.5 -39 -37.5l56 -157h-44l-53 149h-12h-91v-149h-41v372h140q42 0 62.5 -14.5t26 -37.5t5.5 -59q0 -40 -10 -66.5zM383 352.5q14 8.5 18 23.5t4 42t-3.5 41.5t-16.5 22.5t-40 8h-92v-146h87q29 0 43 8.5z" />
    <glyph glyph-name="macron" unicode="&#xaf;" horiz-adv-x="333" 
d="M60 689v53h212v-53h-212z" />
    <glyph glyph-name="degree" unicode="&#xb0;" horiz-adv-x="351" 
d="M97 409.5q-24 12.5 -30.5 41.5t-6.5 95t6.5 95.5t30.5 42t78 12.5q55 0 79 -12.5t30.5 -42t6.5 -95.5t-6.5 -95t-30.5 -41.5t-79 -12.5q-54 0 -78 12.5zM225 443.5q14 8.5 17.5 29t3.5 73.5t-3.5 73.5t-17.5 29t-50 8.5t-50 -8.5t-17.5 -29t-3.5 -73.5t3.5 -73.5
t17.5 -29t50 -8.5t50 8.5z" />
    <glyph glyph-name="plusminus" unicode="&#xb1;" horiz-adv-x="512" 
d="M231 189v166h-165v49h165v165h49v-165h166v-49h-166v-166h-49zM66 15v48h380v-48h-380z" />
    <glyph glyph-name="uni00B2" unicode="&#xb2;" horiz-adv-x="323" 
d="M93 361h181v-43h-224v45q0 45 2.5 64.5t11.5 32t32 23.5q54 28 95 47q22 11 29.5 24.5t7.5 40.5q0 36 -14 47t-58 11q-22 0 -101 -7v41q53 9 109 9q36 0 59 -6t37 -27t14 -63q0 -45 -13 -67t-47 -39l-95 -46q-17 -9 -21.5 -20t-4.5 -42v-25z" />
    <glyph glyph-name="uni00B3" unicode="&#xb3;" horiz-adv-x="317" 
d="M42 319v40q77 -7 97 -7q42 0 61.5 13t19.5 52q0 37 -13 52.5t-43 15.5h-68v40h68q53 0 53 64q0 39 -18.5 51.5t-64.5 12.5q-32 0 -90 -7v40q50 10 98 10q67 0 93.5 -23.5t26.5 -79.5q0 -33 -11 -52.5t-34 -31.5v-4q50 -21 50 -87q0 -38 -10 -61t-37.5 -35t-78.5 -12
q-41 0 -99 9z" />
    <glyph glyph-name="acute" unicode="&#xb4;" horiz-adv-x="171" 
d="M13 603v5l81 135h63v-5l-102 -135h-42z" />
    <glyph glyph-name="uni00B5" unicode="&#xb5;" horiz-adv-x="531" 
d="M450 510v-510h-48l-4 76h-5q-14 -40 -48 -62t-104 -22q-69 0 -104 29v-211h-56v700h56v-304q0 -75 9 -108t33.5 -44t79.5 -11q63 0 92 24.5t36 64t7 114.5v264h56z" />
    <glyph glyph-name="paragraph" unicode="&#xb6;" horiz-adv-x="499" 
d="M260 222q-101 0 -141.5 16t-51.5 60t-11 156t11 156.5t52 61t141 16.5h49v-832h-49v366zM367 -144v832h49v-832h-49z" />
    <glyph glyph-name="periodcentered" unicode="&#xb7;" horiz-adv-x="188" 
d="M60 259v80h68v-80h-68z" />
    <glyph glyph-name="cedilla" unicode="&#xb8;" horiz-adv-x="137" 
d="M19 -190v5l60 193h40v-5l-43 -193h-57z" />
    <glyph glyph-name="uni00B9" unicode="&#xb9;" horiz-adv-x="217" 
d="M104 318v314l-66 -33v44l78 45h33v-370h-45z" />
    <glyph glyph-name="ordmasculine" unicode="&#xba;" horiz-adv-x="378" 
d="M92 329q-29 15 -37.5 52t-8.5 123q0 85 8.5 123t37.5 53.5t97 15.5t97 -15.5t37.5 -53.5t8.5 -123q0 -86 -8.5 -123t-37.5 -52t-97 -15t-97 15zM257 365.5q19 10.5 23.5 38t4.5 100.5q0 72 -4.5 100t-24 39t-67.5 11t-67 -11t-23.5 -39t-4.5 -100q0 -73 4.5 -100.5
t23.5 -38t67 -10.5q49 0 68 10.5z" />
    <glyph glyph-name="guillemotright" unicode="&#xbb;" horiz-adv-x="412" 
d="M65 101l100 204l-100 205h44l114 -205l-114 -204h-44zM209 101l100 204l-100 205h43l115 -205l-115 -204h-43z" />
    <glyph glyph-name="onequarter" unicode="&#xbc;" horiz-adv-x="615" 
d="M104 318v314l-66 -33v44l78 45h33v-370h-45zM62 0l393 688h49l-393 -688h-49zM471 0v82h-171v35l120 254h48l-118 -247h122l6 144h39v-144h47v-42h-47v-82h-46z" />
    <glyph glyph-name="onehalf" unicode="&#xbd;" horiz-adv-x="688" 
d="M104 318v314l-66 -33v44l78 45h33v-370h-45zM455 688h49l-393 -688h-49zM442 43h181v-43h-225v45q0 44 2.5 64t12 32t32.5 24q32 17 95 47q22 11 29.5 24t7.5 40q0 37 -14.5 48t-57.5 11q-29 0 -101 -8v42q63 9 109 9q36 0 59 -6t37 -27t14 -64q0 -44 -13.5 -66
t-47.5 -39l-56 -28l-39 -19q-17 -8 -21 -20t-4 -41v-25z" />
    <glyph glyph-name="threequarters" unicode="&#xbe;" horiz-adv-x="702" 
d="M149 352q43 0 62.5 13t19.5 52q0 37 -13.5 52.5t-43.5 15.5h-67v40h67q53 0 53 64q0 39 -18 51.5t-64 12.5q-34 0 -90 -7v40q48 10 98 10q67 0 93.5 -23.5t26.5 -79.5q0 -32 -11.5 -52t-34.5 -32v-4q50 -21 50 -87q0 -38 -10 -61t-37 -35t-78 -12q-43 0 -99 9v40
q75 -7 96 -7zM152 0l392 688h49l-392 -688h-49zM557 0v82h-171v35l121 254h48l-119 -247h122l6 144h39v-144h47v-42h-47v-82h-46z" />
    <glyph glyph-name="questiondown" unicode="&#xbf;" horiz-adv-x="377" 
d="M231 430v80h68v-80h-68zM131.5 -170.5q-38.5 15.5 -56 51.5t-17.5 98q0 73 15 113.5t64 61.5l45 18q27 12 38 20t14.5 20t3.5 39v76h55v-86q0 -37 -7 -56.5t-20.5 -29.5t-42.5 -22l-23 -9q-37 -15 -53.5 -28.5t-23 -37t-6.5 -70.5q0 -52 11.5 -77.5t39.5 -34.5t83 -9
q49 0 143 11v-49q-36 -7 -81 -11t-78 -4q-65 0 -103.5 15.5z" />
    <glyph glyph-name="Agrave" unicode="&#xc0;" horiz-adv-x="590" 
d="M500 0l-68 204h-276l-68 -204h-60l231 688h72l231 -688h-62zM297 615h-5l-119 -358h242zM285 750l-102 135v5h64l80 -135v-5h-42z" />
    <glyph glyph-name="Aacute" unicode="&#xc1;" horiz-adv-x="590" 
d="M500 0l-68 204h-276l-68 -204h-60l231 688h72l231 -688h-62zM297 615h-5l-119 -358h242zM262 750v5l81 135h63v-5l-102 -135h-42z" />
    <glyph glyph-name="Acircumflex" unicode="&#xc2;" horiz-adv-x="590" 
d="M500 0l-68 204h-276l-68 -204h-60l231 688h72l231 -688h-62zM297 615h-5l-119 -358h242zM170 750v5l92 133h65l92 -133v-5h-41l-84 101l-83 -101h-41z" />
    <glyph glyph-name="Atilde" unicode="&#xc3;" horiz-adv-x="590" 
d="M500 0l-68 204h-276l-68 -204h-60l231 688h72l231 -688h-62zM297 615h-5l-119 -358h242zM440 783q-12 -22 -51 -22q-23 0 -46.5 6.5t-56.5 18.5q-28 10 -46.5 15.5t-35.5 5.5q-18 0 -23.5 -12t-5.5 -45h-37q0 59 12 81t51 22q23 0 45.5 -6.5t58.5 -19.5q28 -10 46 -15
t35 -5q19 0 24 11.5t5 45.5h37q0 -59 -12 -81z" />
    <glyph glyph-name="Adieresis" unicode="&#xc4;" horiz-adv-x="590" 
d="M500 0l-68 204h-276l-68 -204h-60l231 688h72l231 -688h-62zM297 615h-5l-119 -358h242zM176 772v70h58v-70h-58zM355 772v70h58v-70h-58z" />
    <glyph glyph-name="Aring" unicode="&#xc5;" horiz-adv-x="590" 
d="M562 0h-62l-68 204h-276l-68 -204h-60l225 673q-30 4 -44.5 14.5t-18.5 28t-4 50.5q0 40 6.5 59t29 28.5t72.5 9.5q51 0 74 -9.5t29.5 -28.5t6.5 -59q0 -33 -4 -50.5t-18.5 -28t-44.5 -14.5zM232 727.5q3 -11.5 16.5 -16.5t45.5 -5t46 5t17.5 16.5t3.5 38.5t-3.5 38.5
t-17.5 17t-46 5.5t-45.5 -5.5t-16.5 -17t-3 -38.5t3 -38.5zM173 257h242l-118 358h-5z" />
    <glyph glyph-name="AE" unicode="&#xc6;" horiz-adv-x="816" 
d="M469 0l-49 204h-276l-87 -204h-60l298 688h473v-53h-390l64 -261h286v-53h-275l65 -268h250v-53h-299zM325 614h-5l-154 -357h243z" />
    <glyph glyph-name="Ccedilla" unicode="&#xc7;" horiz-adv-x="490" 
d="M442 54v-51q-27 -5 -65.5 -8t-69.5 -3q-29 0 -42 1l-41 -183h-57v5l56 181q-65 9 -97 41.5t-43.5 102t-11.5 204.5q0 158 17 229.5t65 97t154 25.5q32 0 69 -4t62 -9v-49q-65 9 -118 9q-92 0 -129 -18.5t-49 -77t-12 -203.5t12 -203.5t49 -77t129 -18.5q63 0 122 9z" />
    <glyph glyph-name="Egrave" unicode="&#xc8;" horiz-adv-x="517" 
d="M92 0v688h377v-53h-318v-261h278v-52h-278v-269h318v-53h-377zM274 750l-102 135v5h64l80 -135v-5h-42z" />
    <glyph glyph-name="Eacute" unicode="&#xc9;" horiz-adv-x="517" 
d="M92 0v688h377v-53h-318v-261h278v-52h-278v-269h318v-53h-377zM254 750v5l81 135h63v-5l-102 -135h-42z" />
    <glyph glyph-name="Ecircumflex" unicode="&#xca;" horiz-adv-x="517" 
d="M92 0v688h377v-53h-318v-261h278v-52h-278v-269h318v-53h-377zM158 750v5l92 133h65l92 -133v-5h-41l-84 101l-83 -101h-41z" />
    <glyph glyph-name="Edieresis" unicode="&#xcb;" horiz-adv-x="517" 
d="M92 0v688h377v-53h-318v-261h278v-52h-278v-269h318v-53h-377zM166 772v70h58v-70h-58zM345 772v70h58v-70h-58z" />
    <glyph glyph-name="Igrave" unicode="&#xcc;" horiz-adv-x="245" 
d="M93 0v688h59v-688h-59zM115 750l-102 135v5h64l80 -135v-5h-42z" />
    <glyph glyph-name="Iacute" unicode="&#xcd;" horiz-adv-x="245" 
d="M93 0v688h59v-688h-59zM90 750v5l81 135h63v-5l-102 -135h-42z" />
    <glyph glyph-name="Icircumflex" unicode="&#xce;" horiz-adv-x="245" 
d="M93 0v688h59v-688h-59zM-2 750v5l92 133h65l92 -133v-5h-41l-84 101l-83 -101h-41z" />
    <glyph glyph-name="Idieresis" unicode="&#xcf;" horiz-adv-x="245" 
d="M93 0v688h59v-688h-59zM4 772v70h58v-70h-58zM183 772v70h58v-70h-58z" />
    <glyph glyph-name="Eth" unicode="&#xd0;" horiz-adv-x="596" 
d="M92 323h-64v52h64v313h185q120 0 170 -24.5t64 -91t14 -228.5t-14 -228.5t-64 -91t-170 -24.5h-185v323zM406 67.5q37 14.5 48.5 69.5t11.5 207q0 150 -12 206t-49 70.5t-139 14.5h-116v-260h115v-52h-115v-270h116q103 0 140 14.5z" />
    <glyph glyph-name="Ntilde" unicode="&#xd1;" horiz-adv-x="635" 
d="M485 0l-333 569h-4v-569h-56v688h60l330 -563h4v563h57v-688h-58zM464 784q-12 -22 -51 -22q-23 0 -46.5 6.5t-56.5 18.5q-28 10 -46.5 15.5t-35.5 5.5q-18 0 -23.5 -12t-5.5 -45h-37q0 59 12 81t51 22q23 0 45.5 -6.5t58.5 -19.5q28 -10 46 -15t35 -5q19 0 24 11.5
t5 45.5h37q0 -59 -12 -81z" />
    <glyph glyph-name="Ograve" unicode="&#xd2;" horiz-adv-x="623" 
d="M147 17q-48 25 -62 93.5t-14 233.5t14 233.5t62 93.5t164 25q117 0 165 -25t62 -93.5t14 -233.5t-14 -233.5t-62 -93.5t-165 -25q-116 0 -164 25zM437 60q34 15 45 73t11 211t-11 211t-45 73t-126 15q-91 0 -125 -15t-45 -73t-11 -211t11 -211t45 -73t125 -15
q92 0 126 15zM295 750l-102 135v5h64l80 -135v-5h-42z" />
    <glyph glyph-name="Oacute" unicode="&#xd3;" horiz-adv-x="623" 
d="M147 17q-48 25 -62 93.5t-14 233.5t14 233.5t62 93.5t164 25q117 0 165 -25t62 -93.5t14 -233.5t-14 -233.5t-62 -93.5t-165 -25q-116 0 -164 25zM437 60q34 15 45 73t11 211t-11 211t-45 73t-126 15q-91 0 -125 -15t-45 -73t-11 -211t11 -211t45 -73t125 -15
q92 0 126 15zM281 750v5l81 135h63v-5l-102 -135h-42z" />
    <glyph glyph-name="Ocircumflex" unicode="&#xd4;" horiz-adv-x="623" 
d="M147 17q-48 25 -62 93.5t-14 233.5t14 233.5t62 93.5t164 25q117 0 165 -25t62 -93.5t14 -233.5t-14 -233.5t-62 -93.5t-165 -25q-116 0 -164 25zM437 60q34 15 45 73t11 211t-11 211t-45 73t-126 15q-91 0 -125 -15t-45 -73t-11 -211t11 -211t45 -73t125 -15
q92 0 126 15zM187 750v5l92 133h65l92 -133v-5h-41l-84 101l-83 -101h-41z" />
    <glyph glyph-name="Otilde" unicode="&#xd5;" horiz-adv-x="623" 
d="M147 17q-48 25 -62 93.5t-14 233.5t14 233.5t62 93.5t164 25q117 0 165 -25t62 -93.5t14 -233.5t-14 -233.5t-62 -93.5t-165 -25q-116 0 -164 25zM437 60q34 15 45 73t11 211t-11 211t-45 73t-126 15q-91 0 -125 -15t-45 -73t-11 -211t11 -211t45 -73t125 -15
q92 0 126 15zM456 784q-12 -22 -51 -22q-23 0 -46.5 6.5t-56.5 18.5q-28 10 -46.5 15.5t-35.5 5.5q-18 0 -23.5 -12t-5.5 -45h-37q0 59 12 81t51 22q23 0 45.5 -6.5t58.5 -19.5q28 -10 46 -15t35 -5q19 0 24 11.5t5 45.5h37q0 -59 -12 -81z" />
    <glyph glyph-name="Odieresis" unicode="&#xd6;" horiz-adv-x="623" 
d="M147 17q-48 25 -62 93.5t-14 233.5t14 233.5t62 93.5t164 25q117 0 165 -25t62 -93.5t14 -233.5t-14 -233.5t-62 -93.5t-165 -25q-116 0 -164 25zM437 60q34 15 45 73t11 211t-11 211t-45 73t-126 15q-91 0 -125 -15t-45 -73t-11 -211t11 -211t45 -73t125 -15
q92 0 126 15zM193 772v70h58v-70h-58zM372 772v70h58v-70h-58z" />
    <glyph glyph-name="multiply" unicode="&#xd7;" horiz-adv-x="452" 
d="M226 218l-126 -125l-34 33l125 126l-126 126l35 35l126 -126l126 126l34 -34l-126 -127l126 -125l-35 -35z" />
    <glyph glyph-name="Oslash" unicode="&#xd8;" horiz-adv-x="622" 
d="M543 552.5q9 -66.5 9 -208.5q0 -165 -14 -233.5t-62 -93.5t-165 -25q-105 0 -152 19l-35 -66h-53l49 92q-31 33 -40 99.5t-9 207.5q0 165 14 233.5t62 93.5t164 25q54 0 90 -4t61 -15l35 66h54l-49 -92q32 -32 41 -98.5zM134 179.5q4 -55.5 17 -83.5l285 533
q-19 9 -46.5 11.5t-78.5 2.5q-91 0 -125 -15t-45 -73t-11 -211q0 -109 4 -164.5zM437 60q34 15 45 73t11 211q0 110 -4.5 165.5t-17.5 83.5l-286 -534q19 -9 47 -11.5t79 -2.5q92 0 126 15z" />
    <glyph glyph-name="Ugrave" unicode="&#xd9;" horiz-adv-x="617" 
d="M533 688v-391q0 -133 -14 -193.5t-60 -86t-150 -25.5t-150.5 25.5t-60.5 86t-14 193.5v391h59v-424q0 -99 9.5 -141.5t43.5 -60t113 -17.5t112.5 17.5t43 60t9.5 141.5v424h59zM308 750l-102 135v5h64l80 -135v-5h-42z" />
    <glyph glyph-name="Uacute" unicode="&#xda;" horiz-adv-x="617" 
d="M533 688v-391q0 -133 -14 -193.5t-60 -86t-150 -25.5t-150.5 25.5t-60.5 86t-14 193.5v391h59v-424q0 -99 9.5 -141.5t43.5 -60t113 -17.5t112.5 17.5t43 60t9.5 141.5v424h59zM279 750v5l81 135h63v-5l-102 -135h-42z" />
    <glyph glyph-name="Ucircumflex" unicode="&#xdb;" horiz-adv-x="617" 
d="M533 688v-391q0 -133 -14 -193.5t-60 -86t-150 -25.5t-150.5 25.5t-60.5 86t-14 193.5v391h59v-424q0 -99 9.5 -141.5t43.5 -60t113 -17.5t112.5 17.5t43 60t9.5 141.5v424h59zM185 750v5l92 133h65l92 -133v-5h-41l-84 101l-83 -101h-41z" />
    <glyph glyph-name="Udieresis" unicode="&#xdc;" horiz-adv-x="617" 
d="M533 688v-391q0 -133 -14 -193.5t-60 -86t-150 -25.5t-150.5 25.5t-60.5 86t-14 193.5v391h59v-424q0 -99 9.5 -141.5t43.5 -60t113 -17.5t112.5 17.5t43 60t9.5 141.5v424h59zM190 772v70h58v-70h-58zM369 772v70h58v-70h-58z" />
    <glyph glyph-name="Yacute" unicode="&#xdd;" horiz-adv-x="518" 
d="M229 0v271l-218 417h63l183 -349h7l182 349h62l-220 -417v-271h-59zM237 750v5l81 135h63v-5l-102 -135h-42z" />
    <glyph glyph-name="Thorn" unicode="&#xde;" horiz-adv-x="561" 
d="M92 688h58v-126h189q77 0 115.5 -27t49 -71t10.5 -114q0 -68 -11 -112.5t-49 -72t-115 -27.5h-189v-138h-58v688zM327 191q58 0 85.5 17.5t35.5 50t8 91.5q0 61 -7.5 93t-35 49.5t-86.5 17.5h-177v-319h177z" />
    <glyph glyph-name="germandbls" unicode="&#xdf;" horiz-adv-x="539" 
d="M227 0v49h52q68 0 96 11.5t37.5 48.5t9.5 128q0 71 -12 108.5t-40.5 52t-81.5 14.5h-32v50h32q70 0 98 26t28 90q0 48 -12.5 74.5t-42 37.5t-83.5 11q-52 0 -81.5 -13.5t-44 -48.5t-14.5 -101v-538h-55v542q0 75 19 120t62 66.5t118 21.5q72 0 113.5 -18t59 -54.5
t17.5 -97.5q0 -63 -25 -95.5t-79 -42.5v-4q58 -10 85 -54.5t27 -140.5t-13.5 -146.5t-52 -73.5t-116.5 -23h-69z" />
    <glyph glyph-name="agrave" unicode="&#xe0;" horiz-adv-x="501" 
d="M116 4.5q-34 12.5 -50.5 44.5t-16.5 90t12.5 89.5t42.5 45.5t85 14q28 0 176 -5v40q0 69 -10.5 98.5t-39 38.5t-94.5 9q-29 0 -72 -3.5t-69 -8.5v48q65 13 159 13q77 0 115.5 -16.5t52.5 -56.5t14 -119v-326h-48l-4 76h-5q-17 -51 -59 -67.5t-99 -16.5q-56 0 -90 12.5z
M299.5 51q31.5 10 45.5 41q11 25 15.5 51.5t4.5 64.5v35h-162q-42 0 -62 -7.5t-28 -28.5t-8 -65q0 -42 9 -63t33 -29.5t72 -8.5q49 0 80.5 10zM248 603l-102 135v5h64l80 -135v-5h-42z" />
    <glyph glyph-name="aacute" unicode="&#xe1;" horiz-adv-x="501" 
d="M116 4.5q-34 12.5 -50.5 44.5t-16.5 90t12.5 89.5t42.5 45.5t85 14q28 0 176 -5v40q0 69 -10.5 98.5t-39 38.5t-94.5 9q-29 0 -72 -3.5t-69 -8.5v48q65 13 159 13q77 0 115.5 -16.5t52.5 -56.5t14 -119v-326h-48l-4 76h-5q-17 -51 -59 -67.5t-99 -16.5q-56 0 -90 12.5z
M299.5 51q31.5 10 45.5 41q11 25 15.5 51.5t4.5 64.5v35h-162q-42 0 -62 -7.5t-28 -28.5t-8 -65q0 -42 9 -63t33 -29.5t72 -8.5q49 0 80.5 10zM216 603v5l81 135h63v-5l-102 -135h-42z" />
    <glyph glyph-name="acircumflex" unicode="&#xe2;" horiz-adv-x="501" 
d="M116 4.5q-34 12.5 -50.5 44.5t-16.5 90t12.5 89.5t42.5 45.5t85 14q28 0 176 -5v40q0 69 -10.5 98.5t-39 38.5t-94.5 9q-29 0 -72 -3.5t-69 -8.5v48q65 13 159 13q77 0 115.5 -16.5t52.5 -56.5t14 -119v-326h-48l-4 76h-5q-17 -51 -59 -67.5t-99 -16.5q-56 0 -90 12.5z
M299.5 51q31.5 10 45.5 41q11 25 15.5 51.5t4.5 64.5v35h-162q-42 0 -62 -7.5t-28 -28.5t-8 -65q0 -42 9 -63t33 -29.5t72 -8.5q49 0 80.5 10zM127 605v5l92 133h65l92 -133v-5h-41l-84 101l-83 -101h-41z" />
    <glyph glyph-name="atilde" unicode="&#xe3;" horiz-adv-x="501" 
d="M116 4.5q-34 12.5 -50.5 44.5t-16.5 90t12.5 89.5t42.5 45.5t85 14q28 0 176 -5v40q0 69 -10.5 98.5t-39 38.5t-94.5 9q-29 0 -72 -3.5t-69 -8.5v48q65 13 159 13q77 0 115.5 -16.5t52.5 -56.5t14 -119v-326h-48l-4 76h-5q-17 -51 -59 -67.5t-99 -16.5q-56 0 -90 12.5z
M299.5 51q31.5 10 45.5 41q11 25 15.5 51.5t4.5 64.5v35h-162q-42 0 -62 -7.5t-28 -28.5t-8 -65q0 -42 9 -63t33 -29.5t72 -8.5q49 0 80.5 10zM395 662q-12 -22 -51 -22q-23 0 -46.5 6.5t-56.5 18.5q-28 10 -46.5 15.5t-35.5 5.5q-18 0 -23.5 -12t-5.5 -45h-37q0 59 12 81
t51 22q23 0 45.5 -6.5t58.5 -19.5q28 -10 46 -15t35 -5q19 0 24 11.5t5 45.5h37q0 -59 -12 -81z" />
    <glyph glyph-name="adieresis" unicode="&#xe4;" horiz-adv-x="501" 
d="M116 4.5q-34 12.5 -50.5 44.5t-16.5 90t12.5 89.5t42.5 45.5t85 14q28 0 176 -5v40q0 69 -10.5 98.5t-39 38.5t-94.5 9q-29 0 -72 -3.5t-69 -8.5v48q65 13 159 13q77 0 115.5 -16.5t52.5 -56.5t14 -119v-326h-48l-4 76h-5q-17 -51 -59 -67.5t-99 -16.5q-56 0 -90 12.5z
M299.5 51q31.5 10 45.5 41q11 25 15.5 51.5t4.5 64.5v35h-162q-42 0 -62 -7.5t-28 -28.5t-8 -65q0 -42 9 -63t33 -29.5t72 -8.5q49 0 80.5 10zM134 659v70h58v-70h-58zM313 659v70h58v-70h-58z" />
    <glyph glyph-name="aring" unicode="&#xe5;" horiz-adv-x="501" 
d="M116 4.5q-34 12.5 -50.5 44.5t-16.5 90t12.5 89.5t42.5 45.5t85 14q28 0 176 -5v40q0 69 -10.5 98.5t-39 38.5t-94.5 9q-29 0 -72 -3.5t-69 -8.5v48q65 13 159 13q77 0 115.5 -16.5t52.5 -56.5t14 -119v-326h-48l-4 76h-5q-17 -51 -59 -67.5t-99 -16.5q-56 0 -90 12.5z
M299.5 51q31.5 10 45.5 41q11 25 15.5 51.5t4.5 64.5v35h-162q-42 0 -62 -7.5t-28 -28.5t-8 -65q0 -42 9 -63t33 -29.5t72 -8.5q49 0 80.5 10zM175.5 614q-22.5 9 -29 28t-6.5 59t6.5 59t29 28t73.5 9t74 -9t29.5 -28.5t6.5 -58.5t-6.5 -58.5t-29.5 -28.5t-74 -9t-73.5 9z
M295 646q14 5 17.5 16.5t3.5 38.5t-3.5 38.5t-17.5 17t-46 5.5t-45.5 -5.5t-17 -17t-3.5 -38.5t3.5 -38.5t17 -16.5t45.5 -5t46 5z" />
    <glyph glyph-name="ae" unicode="&#xe6;" horiz-adv-x="800" 
d="M740 239h-319q0 -88 9.5 -127.5t41 -55t102.5 -15.5q34 0 75.5 3.5t72.5 9.5v-48q-26 -6 -71 -10t-87 -4q-80 0 -119.5 19t-56.5 67q-23 -52 -67.5 -69t-108.5 -17q-59 0 -94 12.5t-52 44.5t-17 90q0 57 12.5 88t42.5 44.5t85 13.5l176 -1v39q0 69 -10.5 98.5t-39 38.5
t-95.5 9q-29 0 -71.5 -3.5t-68.5 -8.5v48q74 13 159 13q68 0 104.5 -13.5t52.5 -48.5q20 33 58.5 47.5t108.5 14.5q83 0 120 -23.5t47 -74.5t10 -162v-19zM467 456q-28 -13 -37 -50t-9 -122h264v12q0 78 -10.5 114t-36 47.5t-78.5 11.5q-65 0 -93 -13zM365 239h-162
q-42 0 -62 -7t-28.5 -27t-8.5 -63t9.5 -64t33 -29t72.5 -8q51 0 82.5 10.5t45.5 45.5q18 44 18 110v32z" />
    <glyph glyph-name="ccedilla" unicode="&#xe7;" horiz-adv-x="405" 
d="M310.5 44.5q30.5 3.5 51.5 8.5v-48q-21 -6 -54.5 -9.5t-64.5 -3.5h-20l-41 -182h-57v5l56 181q-53 9 -79 38.5t-33.5 79t-7.5 140.5q0 107 14 162t52 78.5t113 23.5q30 0 63.5 -3.5t54.5 -8.5v-48q-55 11 -106 11q-60 0 -88 -17t-37.5 -60t-9.5 -136q0 -96 9.5 -139.5
t37.5 -59.5t90 -16q26 0 56.5 3.5z" />
    <glyph glyph-name="egrave" unicode="&#xe8;" horiz-adv-x="496" 
d="M435 236h-318q0 -87 9.5 -125.5t40.5 -54t102 -15.5q34 0 75.5 3.5t73.5 9.5v-48q-26 -6 -71 -10t-88 -4q-89 0 -130 22.5t-54.5 75.5t-13.5 164t11 163t52 76.5t134 24.5q83 0 120 -23.5t47 -75t10 -163.5v-20zM163 455.5q-28 -13.5 -37 -51t-9 -123.5h263v15
q0 79 -10.5 114.5t-35.5 47t-78 11.5q-65 0 -93 -13.5zM243 603l-102 135v5h64l80 -135v-5h-42z" />
    <glyph glyph-name="eacute" unicode="&#xe9;" horiz-adv-x="496" 
d="M435 236h-318q0 -87 9.5 -125.5t40.5 -54t102 -15.5q34 0 75.5 3.5t73.5 9.5v-48q-26 -6 -71 -10t-88 -4q-89 0 -130 22.5t-54.5 75.5t-13.5 164t11 163t52 76.5t134 24.5q83 0 120 -23.5t47 -75t10 -163.5v-20zM163 455.5q-28 -13.5 -37 -51t-9 -123.5h263v15
q0 79 -10.5 114.5t-35.5 47t-78 11.5q-65 0 -93 -13.5zM223 603v5l81 135h63v-5l-102 -135h-42z" />
    <glyph glyph-name="ecircumflex" unicode="&#xea;" horiz-adv-x="496" 
d="M435 236h-318q0 -87 9.5 -125.5t40.5 -54t102 -15.5q34 0 75.5 3.5t73.5 9.5v-48q-26 -6 -71 -10t-88 -4q-89 0 -130 22.5t-54.5 75.5t-13.5 164t11 163t52 76.5t134 24.5q83 0 120 -23.5t47 -75t10 -163.5v-20zM163 455.5q-28 -13.5 -37 -51t-9 -123.5h263v15
q0 79 -10.5 114.5t-35.5 47t-78 11.5q-65 0 -93 -13.5zM125 605v5l92 133h65l92 -133v-5h-41l-84 101l-83 -101h-41z" />
    <glyph glyph-name="edieresis" unicode="&#xeb;" horiz-adv-x="496" 
d="M435 236h-318q0 -87 9.5 -125.5t40.5 -54t102 -15.5q34 0 75.5 3.5t73.5 9.5v-48q-26 -6 -71 -10t-88 -4q-89 0 -130 22.5t-54.5 75.5t-13.5 164t11 163t52 76.5t134 24.5q83 0 120 -23.5t47 -75t10 -163.5v-20zM163 455.5q-28 -13.5 -37 -51t-9 -123.5h263v15
q0 79 -10.5 114.5t-35.5 47t-78 11.5q-65 0 -93 -13.5zM132 659v70h58v-70h-58zM311 659v70h58v-70h-58z" />
    <glyph glyph-name="igrave" unicode="&#xec;" horiz-adv-x="218" 
d="M81 0v510h56v-510h-56zM96 603l-102 135v5h64l80 -135v-5h-42z" />
    <glyph glyph-name="iacute" unicode="&#xed;" horiz-adv-x="218" 
d="M81 0v510h56v-510h-56zM79 603v5l81 135h63v-5l-102 -135h-42z" />
    <glyph glyph-name="icircumflex" unicode="&#xee;" horiz-adv-x="218" 
d="M81 0v510h56v-510h-56zM-15 605v5l92 133h65l92 -133v-5h-41l-84 101l-83 -101h-41z" />
    <glyph glyph-name="idieresis" unicode="&#xef;" horiz-adv-x="218" 
d="M81 0v510h56v-510h-56zM-10 659v70h58v-70h-58zM169 659v70h58v-70h-58z" />
    <glyph glyph-name="eth" unicode="&#xf0;" horiz-adv-x="512" 
d="M123 13.5q-40 21.5 -51 72.5t-11 168q0 115 10.5 167t49 74.5t125.5 22.5q78 0 120 -31l5 2q-23 81 -63 145l-110 -18v42l84 14q-20 26 -39 44.5t-23 22.5v4h63q3 -3 20 -19.5t36 -41.5l92 15v-42l-67 -12q26 -45 46.5 -103t28.5 -117q11 -71 11 -148q0 -130 -10 -184
t-49.5 -76.5t-135.5 -22.5q-92 0 -132 21.5zM353.5 56.5q27.5 15.5 34 54.5t6.5 143q0 91 -6.5 131.5t-36 62t-96.5 21.5q-70 0 -97.5 -15.5t-34 -55t-6.5 -144.5q0 -104 6.5 -143t34 -54.5t97.5 -15.5q71 0 98.5 15.5z" />
    <glyph glyph-name="ntilde" unicode="&#xf1;" horiz-adv-x="529" 
d="M394 304q0 75 -9 108t-33.5 44t-80.5 11q-63 0 -91.5 -24.5t-35.5 -64t-7 -114.5v-264h-56v510h48l4 -76h4q14 40 48.5 62t105.5 22q68 0 102 -19.5t45.5 -60.5t11.5 -117v-321h-56v304zM412 662q-12 -22 -51 -22q-23 0 -46.5 6.5t-56.5 18.5q-28 10 -46.5 15.5
t-35.5 5.5q-18 0 -23.5 -12t-5.5 -45h-37q0 59 12 81t51 22q23 0 45.5 -6.5t58.5 -19.5q28 -10 46 -15t35 -5q19 0 24 11.5t5 45.5h37q0 -59 -12 -81z" />
    <glyph glyph-name="ograve" unicode="&#xf2;" horiz-adv-x="511" 
d="M123 12.5q-40 20.5 -51 72t-11 169.5q0 119 11 170.5t51 72.5t132 21q93 0 132.5 -21t51 -72.5t11.5 -170.5q0 -118 -11.5 -169.5t-51 -72t-132.5 -20.5q-92 0 -132 20.5zM353 56q28 15 34.5 54.5t6.5 143.5t-6.5 144t-34.5 55.5t-98 15.5t-97.5 -15.5t-34 -55
t-6.5 -144.5q0 -104 6.5 -143.5t34 -54.5t97.5 -15t98 15zM248 603l-102 135v5h64l80 -135v-5h-42z" />
    <glyph glyph-name="oacute" unicode="&#xf3;" horiz-adv-x="511" 
d="M123 12.5q-40 20.5 -51 72t-11 169.5q0 119 11 170.5t51 72.5t132 21q93 0 132.5 -21t51 -72.5t11.5 -170.5q0 -118 -11.5 -169.5t-51 -72t-132.5 -20.5q-92 0 -132 20.5zM353 56q28 15 34.5 54.5t6.5 143.5t-6.5 144t-34.5 55.5t-98 15.5t-97.5 -15.5t-34 -55
t-6.5 -144.5q0 -104 6.5 -143.5t34 -54.5t97.5 -15t98 15zM223 603v5l81 135h63v-5l-102 -135h-42z" />
    <glyph glyph-name="ocircumflex" unicode="&#xf4;" horiz-adv-x="511" 
d="M123 12.5q-40 20.5 -51 72t-11 169.5q0 119 11 170.5t51 72.5t132 21q93 0 132.5 -21t51 -72.5t11.5 -170.5q0 -118 -11.5 -169.5t-51 -72t-132.5 -20.5q-92 0 -132 20.5zM353 56q28 15 34.5 54.5t6.5 143.5t-6.5 144t-34.5 55.5t-98 15.5t-97.5 -15.5t-34 -55
t-6.5 -144.5q0 -104 6.5 -143.5t34 -54.5t97.5 -15t98 15zM131 605v5l92 133h65l92 -133v-5h-41l-84 101l-83 -101h-41z" />
    <glyph glyph-name="otilde" unicode="&#xf5;" horiz-adv-x="511" 
d="M123 12.5q-40 20.5 -51 72t-11 169.5q0 119 11 170.5t51 72.5t132 21q93 0 132.5 -21t51 -72.5t11.5 -170.5q0 -118 -11.5 -169.5t-51 -72t-132.5 -20.5q-92 0 -132 20.5zM353 56q28 15 34.5 54.5t6.5 143.5t-6.5 144t-34.5 55.5t-98 15.5t-97.5 -15.5t-34 -55
t-6.5 -144.5q0 -104 6.5 -143.5t34 -54.5t97.5 -15t98 15zM400 662q-12 -22 -51 -22q-23 0 -46.5 6.5t-56.5 18.5q-28 10 -46.5 15.5t-35.5 5.5q-18 0 -23.5 -12t-5.5 -45h-37q0 59 12 81t51 22q23 0 45.5 -6.5t58.5 -19.5q28 -10 46 -15t35 -5q19 0 24 11.5t5 45.5h37
q0 -59 -12 -81z" />
    <glyph glyph-name="odieresis" unicode="&#xf6;" horiz-adv-x="511" 
d="M123 12.5q-40 20.5 -51 72t-11 169.5q0 119 11 170.5t51 72.5t132 21q93 0 132.5 -21t51 -72.5t11.5 -170.5q0 -118 -11.5 -169.5t-51 -72t-132.5 -20.5q-92 0 -132 20.5zM353 56q28 15 34.5 54.5t6.5 143.5t-6.5 144t-34.5 55.5t-98 15.5t-97.5 -15.5t-34 -55
t-6.5 -144.5q0 -104 6.5 -143.5t34 -54.5t97.5 -15t98 15zM137 659v70h58v-70h-58zM316 659v70h58v-70h-58z" />
    <glyph glyph-name="divide" unicode="&#xf7;" horiz-adv-x="512" 
d="M227 399v67h58v-67h-58zM66 229v48h380v-48h-380zM227 40v66h58v-66h-58z" />
    <glyph glyph-name="oslash" unicode="&#xf8;" horiz-adv-x="511" 
d="M442 410q8 -50 8 -156q0 -118 -11.5 -169.5t-51 -72t-132.5 -20.5q-74 0 -110 12l-32 -59h-52l44 81q-28 24 -36 73.5t-8 154.5q0 119 11 170.5t51 72.5t132 21q74 0 110 -12l32 59h53l-44 -81q28 -24 36 -74zM119.5 136.5q2.5 -36.5 14.5 -57.5l206 381q-26 9 -85 9
q-70 0 -97.5 -15.5t-34 -55t-6.5 -144.5q0 -81 2.5 -117.5zM353 56q28 15 34.5 54.5t6.5 143.5q0 82 -2.5 118.5t-14.5 57.5l-207 -380q26 -9 85 -9q70 0 98 15z" />
    <glyph glyph-name="ugrave" unicode="&#xf9;" horiz-adv-x="529" 
d="M397 76h-5q-14 -40 -48.5 -62t-105.5 -22q-68 0 -101.5 19.5t-45 60.5t-11.5 117v321h56v-304q0 -75 9 -108t33.5 -44t79.5 -11q63 0 92 24.5t36 64.5t7 114v264h56v-510h-49zM255 603l-102 135v5h64l80 -135v-5h-42z" />
    <glyph glyph-name="uacute" unicode="&#xfa;" horiz-adv-x="529" 
d="M397 76h-5q-14 -40 -48.5 -62t-105.5 -22q-68 0 -101.5 19.5t-45 60.5t-11.5 117v321h56v-304q0 -75 9 -108t33.5 -44t79.5 -11q63 0 92 24.5t36 64.5t7 114v264h56v-510h-49zM239 603v5l81 135h63v-5l-102 -135h-42z" />
    <glyph glyph-name="ucircumflex" unicode="&#xfb;" horiz-adv-x="529" 
d="M397 76h-5q-14 -40 -48.5 -62t-105.5 -22q-68 0 -101.5 19.5t-45 60.5t-11.5 117v321h56v-304q0 -75 9 -108t33.5 -44t79.5 -11q63 0 92 24.5t36 64.5t7 114v264h56v-510h-49zM140 605v5l92 133h65l92 -133v-5h-41l-84 101l-83 -101h-41z" />
    <glyph glyph-name="udieresis" unicode="&#xfc;" horiz-adv-x="529" 
d="M397 76h-5q-14 -40 -48.5 -62t-105.5 -22q-68 0 -101.5 19.5t-45 60.5t-11.5 117v321h56v-304q0 -75 9 -108t33.5 -44t79.5 -11q63 0 92 24.5t36 64.5t7 114v264h56v-510h-49zM145 659v70h58v-70h-58zM324 659v70h58v-70h-58z" />
    <glyph glyph-name="yacute" unicode="&#xfd;" horiz-adv-x="529" 
d="M95 -196v48q77 -5 141 -5q71 0 104 19t43 59.5t10 120.5v24h-5q-12 -35 -46 -56t-104 -21q-68 0 -101.5 20t-45 62t-11.5 120v315h56v-304q0 -74 9 -107t33.5 -44t79.5 -11q63 0 92 24t36 64t7 114v264h56v-442q0 -106 -15 -162.5t-58 -82.5t-130 -26q-83 0 -151 7z
M240 603v5l81 135h63v-5l-102 -135h-42z" />
    <glyph glyph-name="thorn" unicode="&#xfe;" horiz-adv-x="524" 
d="M81 743h56v-302h4q16 42 52.5 59.5t96.5 17.5q73 0 109 -22t50 -76.5t14 -164.5q0 -109 -13.5 -164t-49.5 -77t-109 -22q-60 0 -97 17.5t-53 57.5h-4v-257h-56v933zM361 57.5q27 14.5 36.5 57t9.5 140.5t-9.5 140.5t-36.5 57t-90 14.5q-52 0 -81.5 -17.5t-41.5 -58.5
q-7 -23 -9 -52.5t-2 -83.5q0 -96 8 -126q13 -47 43 -66.5t83 -19.5q63 0 90 14.5z" />
    <glyph glyph-name="ydieresis" unicode="&#xff;" horiz-adv-x="529" 
d="M95 -196v48q77 -5 141 -5q71 0 104 19t43 59.5t10 120.5v24h-5q-12 -35 -46 -56t-104 -21q-68 0 -101.5 20t-45 62t-11.5 120v315h56v-304q0 -74 9 -107t33.5 -44t79.5 -11q63 0 92 24t36 64t7 114v264h56v-442q0 -106 -15 -162.5t-58 -82.5t-130 -26q-83 0 -151 7z
M146 659v70h58v-70h-58zM325 659v70h58v-70h-58z" />
    <glyph glyph-name="Amacron" unicode="&#x100;" horiz-adv-x="590" 
d="M500 0l-68 204h-276l-68 -204h-60l231 688h72l231 -688h-62zM297 615h-5l-119 -358h242zM188 834v53h212v-53h-212z" />
    <glyph glyph-name="amacron" unicode="&#x101;" horiz-adv-x="501" 
d="M116 4.5q-34 12.5 -50.5 44.5t-16.5 90t12.5 89.5t42.5 45.5t85 14q28 0 176 -5v40q0 69 -10.5 98.5t-39 38.5t-94.5 9q-29 0 -72 -3.5t-69 -8.5v48q65 13 159 13q77 0 115.5 -16.5t52.5 -56.5t14 -119v-326h-48l-4 76h-5q-17 -51 -59 -67.5t-99 -16.5q-56 0 -90 12.5z
M299.5 51q31.5 10 45.5 41q11 25 15.5 51.5t4.5 64.5v35h-162q-42 0 -62 -7.5t-28 -28.5t-8 -65q0 -42 9 -63t33 -29.5t72 -8.5q49 0 80.5 10zM144 689v53h212v-53h-212z" />
    <glyph glyph-name="Abreve" unicode="&#x102;" horiz-adv-x="590" 
d="M500 0l-68 204h-276l-68 -204h-60l231 688h72l231 -688h-62zM297 615h-5l-119 -358h242zM409.5 809.5q-6.5 -28.5 -33 -45.5t-82.5 -17t-82 17t-32.5 45t-6.5 79h42q0 -41 4 -61t21 -31t54 -11t54.5 11t21.5 31.5t4 60.5h42q0 -50 -6.5 -78.5z" />
    <glyph glyph-name="abreve" unicode="&#x103;" horiz-adv-x="501" 
d="M116 4.5q-34 12.5 -50.5 44.5t-16.5 90t12.5 89.5t42.5 45.5t85 14q28 0 176 -5v40q0 69 -10.5 98.5t-39 38.5t-94.5 9q-29 0 -72 -3.5t-69 -8.5v48q65 13 159 13q77 0 115.5 -16.5t52.5 -56.5t14 -119v-326h-48l-4 76h-5q-17 -51 -59 -67.5t-99 -16.5q-56 0 -90 12.5z
M299.5 51q31.5 10 45.5 41q11 25 15.5 51.5t4.5 64.5v35h-162q-42 0 -62 -7.5t-28 -28.5t-8 -65q0 -42 9 -63t33 -29.5t72 -8.5q49 0 80.5 10zM365.5 664.5q-6.5 -28.5 -33 -45.5t-82.5 -17t-82 17t-32.5 45t-6.5 79h42q0 -41 4 -61t21 -31t54 -11t54.5 11t21.5 31.5t4 60.5
h42q0 -50 -6.5 -78.5z" />
    <glyph glyph-name="Aogonek" unicode="&#x104;" horiz-adv-x="590" 
d="M537 -154q9 0 17 1v-41q-13 -2 -30 -2q-44 0 -63.5 20.5t-19.5 54.5q0 29 16.5 62.5t42.5 60.5l-68 202h-276l-68 -204h-60l231 688h72l231 -688h-13q-22 -21 -40 -53t-18 -58q0 -43 46 -43zM173 257h242l-118 358h-5z" />
    <glyph glyph-name="aogonek" unicode="&#x105;" horiz-adv-x="501" 
d="M424 -153v-41q-12 -2 -29 -2q-43 0 -63 20.5t-20 52.5q0 31 16.5 63t44.5 60l-4 76h-5q-17 -51 -59 -67.5t-99 -16.5q-56 0 -90 12.5t-50.5 44.5t-16.5 90t12.5 89.5t42.5 45.5t85 14q28 0 176 -5v40q0 69 -10.5 98.5t-39 38.5t-94.5 9q-29 0 -72 -3.5t-69 -8.5v48
q65 13 159 13q77 0 115.5 -16.5t52.5 -56.5t14 -119v-326q-21 -17 -40 -50t-19 -62q0 -42 46 -42q9 0 16 1zM365 243h-162q-42 0 -62 -7.5t-28 -28.5t-8 -65q0 -42 9 -63t33 -29.5t72 -8.5q49 0 80.5 10t45.5 41q11 25 15.5 51.5t4.5 64.5v35z" />
    <glyph glyph-name="Cacute" unicode="&#x106;" horiz-adv-x="490" 
d="M376.5 -5q-38.5 -3 -69.5 -3q-106 0 -154 25t-65 96.5t-17 230.5q0 158 17 229.5t65 97t154 25.5q32 0 69 -4t62 -9v-49q-65 9 -118 9q-92 0 -129 -18.5t-49 -77t-12 -203.5t12 -203.5t49 -77t129 -18.5q63 0 122 9v-51q-27 -5 -65.5 -8zM217 748v5l81 135h63v-5
l-102 -135h-42z" />
    <glyph glyph-name="cacute" unicode="&#x107;" horiz-adv-x="405" 
d="M307.5 -4.5q-33.5 -3.5 -64.5 -3.5q-82 0 -120.5 26t-50 78.5t-11.5 157.5q0 107 14 162t52 78.5t113 23.5q30 0 63.5 -3.5t54.5 -8.5v-48q-55 11 -106 11q-60 0 -88 -17t-37.5 -60t-9.5 -136q0 -96 9.5 -139.5t37.5 -59.5t90 -16q26 0 56.5 3.5t51.5 8.5v-48
q-21 -6 -54.5 -9.5zM177 603v5l81 135h63v-5l-102 -135h-42z" />
    <glyph glyph-name="Ccircumflex" unicode="&#x108;" horiz-adv-x="490" 
d="M376.5 -5q-38.5 -3 -69.5 -3q-106 0 -154 25t-65 96.5t-17 230.5q0 158 17 229.5t65 97t154 25.5q32 0 69 -4t62 -9v-49q-65 9 -118 9q-92 0 -129 -18.5t-49 -77t-12 -203.5t12 -203.5t49 -77t129 -18.5q63 0 122 9v-51q-27 -5 -65.5 -8zM120 750v5l92 133h65l92 -133v-5
h-41l-84 101l-83 -101h-41z" />
    <glyph glyph-name="ccircumflex" unicode="&#x109;" horiz-adv-x="405" 
d="M307.5 -4.5q-33.5 -3.5 -64.5 -3.5q-82 0 -120.5 26t-50 78.5t-11.5 157.5q0 107 14 162t52 78.5t113 23.5q30 0 63.5 -3.5t54.5 -8.5v-48q-55 11 -106 11q-60 0 -88 -17t-37.5 -60t-9.5 -136q0 -96 9.5 -139.5t37.5 -59.5t90 -16q26 0 56.5 3.5t51.5 8.5v-48
q-21 -6 -54.5 -9.5zM78 605v5l92 133h65l92 -133v-5h-41l-84 101l-83 -101h-41z" />
    <glyph glyph-name="Cdotaccent" unicode="&#x10a;" horiz-adv-x="490" 
d="M376.5 -5q-38.5 -3 -69.5 -3q-106 0 -154 25t-65 96.5t-17 230.5q0 158 17 229.5t65 97t154 25.5q32 0 69 -4t62 -9v-49q-65 9 -118 9q-92 0 -129 -18.5t-49 -77t-12 -203.5t12 -203.5t49 -77t129 -18.5q63 0 122 9v-51q-27 -5 -65.5 -8zM216 805v70h58v-70h-58z" />
    <glyph glyph-name="cdotaccent" unicode="&#x10b;" horiz-adv-x="405" 
d="M307.5 -4.5q-33.5 -3.5 -64.5 -3.5q-82 0 -120.5 26t-50 78.5t-11.5 157.5q0 107 14 162t52 78.5t113 23.5q30 0 63.5 -3.5t54.5 -8.5v-48q-55 11 -106 11q-60 0 -88 -17t-37.5 -60t-9.5 -136q0 -96 9.5 -139.5t37.5 -59.5t90 -16q26 0 56.5 3.5t51.5 8.5v-48
q-21 -6 -54.5 -9.5zM174 660v70h58v-70h-58z" />
    <glyph glyph-name="Ccaron" unicode="&#x10c;" horiz-adv-x="490" 
d="M376.5 -5q-38.5 -3 -69.5 -3q-106 0 -154 25t-65 96.5t-17 230.5q0 158 17 229.5t65 97t154 25.5q32 0 69 -4t62 -9v-49q-65 9 -118 9q-92 0 -129 -18.5t-49 -77t-12 -203.5t12 -203.5t49 -77t129 -18.5q63 0 122 9v-51q-27 -5 -65.5 -8zM213 750l-92 132v6h41l83 -102
l84 102h41v-6l-92 -132h-65z" />
    <glyph glyph-name="ccaron" unicode="&#x10d;" horiz-adv-x="405" 
d="M307.5 -4.5q-33.5 -3.5 -64.5 -3.5q-82 0 -120.5 26t-50 78.5t-11.5 157.5q0 107 14 162t52 78.5t113 23.5q30 0 63.5 -3.5t54.5 -8.5v-48q-55 11 -106 11q-60 0 -88 -17t-37.5 -60t-9.5 -136q0 -96 9.5 -139.5t37.5 -59.5t90 -16q26 0 56.5 3.5t51.5 8.5v-48
q-21 -6 -54.5 -9.5zM171 605l-92 132v6h41l83 -102l84 102h41v-6l-92 -132h-65z" />
    <glyph glyph-name="Dcaron" unicode="&#x10e;" horiz-adv-x="596" 
d="M92 688h185q120 0 170 -24.5t64 -91t14 -228.5t-14 -228.5t-64 -91t-170 -24.5h-185v688zM266 53q103 0 140 14.5t48.5 69.5t11.5 207q0 150 -12 206t-49 70.5t-139 14.5h-116v-582h116zM267 750l-92 132v6h41l83 -102l84 102h41v-6l-92 -132h-65z" />
    <glyph glyph-name="dcaron" unicode="&#x10f;" horiz-adv-x="529" 
d="M125 14q-36 22 -50 76.5t-14 164.5q0 109 13.5 164t49.5 77t109 22q60 0 96.5 -17.5t52.5 -57.5h5v300h56v-743h-48l-4 76h-5q-16 -50 -55.5 -67t-97.5 -17q-72 0 -108 22zM333.5 59q29.5 16 39.5 50q9 29 11.5 62.5t2.5 93.5q0 43 -2 73t-9 52q-12 41 -42 59t-85 18
q-61 0 -87.5 -14.5t-35.5 -57t-9 -140.5t9.5 -140.5t36.5 -57t90 -14.5q51 0 80.5 16zM485 449l14 157v82h57v-82l-32 -157h-39z" />
    <glyph glyph-name="Dcroat" unicode="&#x110;" horiz-adv-x="596" 
d="M92 323h-64v52h64v313h185q120 0 170 -24.5t64 -91t14 -228.5t-14 -228.5t-64 -91t-170 -24.5h-185v323zM406 67.5q37 14.5 48.5 69.5t11.5 207q0 150 -12 206t-49 70.5t-139 14.5h-116v-260h115v-52h-115v-270h116q103 0 140 14.5z" />
    <glyph glyph-name="dcroat" unicode="&#x111;" horiz-adv-x="524" 
d="M504 639h-61v-639h-48l-4 76h-5q-16 -50 -55.5 -67t-97.5 -17q-72 0 -108 22t-50 76.5t-14 164.5q0 109 13.5 164t49.5 77t109 22q60 0 96.5 -17.5t52.5 -57.5h5v196h-132v49h132v55h56v-55h61v-49zM384.5 171.5q2.5 33.5 2.5 93.5q0 43 -2 73t-9 52q-12 41 -42 59
t-85 18q-61 0 -87.5 -14.5t-35.5 -57t-9 -140.5t9.5 -140.5t36.5 -57t90 -14.5q51 0 80.5 16t39.5 50q9 29 11.5 62.5z" />
    <glyph glyph-name="Emacron" unicode="&#x112;" horiz-adv-x="517" 
d="M92 0v688h377v-53h-318v-261h278v-52h-278v-269h318v-53h-377zM173 834v53h212v-53h-212z" />
    <glyph glyph-name="emacron" unicode="&#x113;" horiz-adv-x="496" 
d="M435 236h-318q0 -87 9.5 -125.5t40.5 -54t102 -15.5q34 0 75.5 3.5t73.5 9.5v-48q-26 -6 -71 -10t-88 -4q-89 0 -130 22.5t-54.5 75.5t-13.5 164t11 163t52 76.5t134 24.5q83 0 120 -23.5t47 -75t10 -163.5v-20zM163 455.5q-28 -13.5 -37 -51t-9 -123.5h263v15
q0 79 -10.5 114.5t-35.5 47t-78 11.5q-65 0 -93 -13.5zM141 689v53h212v-53h-212z" />
    <glyph glyph-name="Ebreve" unicode="&#x114;" horiz-adv-x="517" 
d="M92 0v688h377v-53h-318v-261h278v-52h-278v-269h318v-53h-377zM394.5 809.5q-6.5 -28.5 -33 -45.5t-82.5 -17t-82 17t-32.5 45t-6.5 79h42q0 -41 4 -61t21 -31t54 -11t54.5 11t21.5 31.5t4 60.5h42q0 -50 -6.5 -78.5z" />
    <glyph glyph-name="ebreve" unicode="&#x115;" horiz-adv-x="496" 
d="M435 236h-318q0 -87 9.5 -125.5t40.5 -54t102 -15.5q34 0 75.5 3.5t73.5 9.5v-48q-26 -6 -71 -10t-88 -4q-89 0 -130 22.5t-54.5 75.5t-13.5 164t11 163t52 76.5t134 24.5q83 0 120 -23.5t47 -75t10 -163.5v-20zM163 455.5q-28 -13.5 -37 -51t-9 -123.5h263v15
q0 79 -10.5 114.5t-35.5 47t-78 11.5q-65 0 -93 -13.5zM362.5 664.5q-6.5 -28.5 -33 -45.5t-82.5 -17t-82 17t-32.5 45t-6.5 79h42q0 -41 4 -61t21 -31t54 -11t54.5 11t21.5 31.5t4 60.5h42q0 -50 -6.5 -78.5z" />
    <glyph glyph-name="Edotaccent" unicode="&#x116;" horiz-adv-x="517" 
d="M92 0v688h377v-53h-318v-261h278v-52h-278v-269h318v-53h-377zM251 805v70h58v-70h-58z" />
    <glyph glyph-name="edotaccent" unicode="&#x117;" horiz-adv-x="496" 
d="M435 236h-318q0 -87 9.5 -125.5t40.5 -54t102 -15.5q34 0 75.5 3.5t73.5 9.5v-48q-26 -6 -71 -10t-88 -4q-89 0 -130 22.5t-54.5 75.5t-13.5 164t11 163t52 76.5t134 24.5q83 0 120 -23.5t47 -75t10 -163.5v-20zM163 455.5q-28 -13.5 -37 -51t-9 -123.5h263v15
q0 79 -10.5 114.5t-35.5 47t-78 11.5q-65 0 -93 -13.5zM219 660v70h58v-70h-58z" />
    <glyph glyph-name="Eogonek" unicode="&#x118;" horiz-adv-x="517" 
d="M372.5 -176q-20.5 20 -20.5 52t18 64t48 60h-326v688h377v-53h-318v-261h278v-53h-278v-268h318v-53q-25 -19 -46 -51.5t-21 -60.5q0 -18 11 -30t35 -12q10 0 17 1v-41q-18 -2 -29 -2q-43 0 -63.5 20z" />
    <glyph glyph-name="eogonek" unicode="&#x119;" horiz-adv-x="496" 
d="M435 236h-318q0 -87 9.5 -125.5t40.5 -54t102 -15.5q34 0 75.5 3.5t73.5 9.5v-48q-26 -19 -49 -54t-23 -64q0 -18 11 -30t35 -12q10 0 17 1v-41q-18 -2 -29 -2q-43 0 -63.5 20t-20.5 52q0 30 16.5 61.5t45.5 59.5q-52 -5 -99 -5q-89 0 -130 22.5t-54.5 75.5t-13.5 164
t11 163t52 76.5t134 24.5q83 0 120 -23.5t47 -75t10 -163.5v-20zM163 455.5q-28 -13.5 -37 -51t-9 -123.5h263v15q0 79 -10.5 114.5t-35.5 47t-78 11.5q-65 0 -93 -13.5z" />
    <glyph glyph-name="Ecaron" unicode="&#x11a;" horiz-adv-x="517" 
d="M92 0v688h377v-53h-318v-261h278v-52h-278v-269h318v-53h-377zM248 750l-92 132v6h41l83 -102l84 102h41v-6l-92 -132h-65z" />
    <glyph glyph-name="ecaron" unicode="&#x11b;" horiz-adv-x="496" 
d="M435 236h-318q0 -87 9.5 -125.5t40.5 -54t102 -15.5q34 0 75.5 3.5t73.5 9.5v-48q-26 -6 -71 -10t-88 -4q-89 0 -130 22.5t-54.5 75.5t-13.5 164t11 163t52 76.5t134 24.5q83 0 120 -23.5t47 -75t10 -163.5v-20zM163 455.5q-28 -13.5 -37 -51t-9 -123.5h263v15
q0 79 -10.5 114.5t-35.5 47t-78 11.5q-65 0 -93 -13.5zM216 605l-92 132v6h41l83 -102l84 102h41v-6l-92 -132h-65z" />
    <glyph glyph-name="Gcircumflex" unicode="&#x11c;" horiz-adv-x="584" 
d="M303 307v52h203v-349q-40 -8 -93 -13t-94 -5q-108 0 -158.5 25.5t-70 98t-19.5 228.5q0 155 19.5 227.5t70.5 98.5t159 26q45 0 97.5 -5.5t86.5 -13.5v-49q-36 6 -80.5 10.5t-72.5 4.5q-104 0 -145.5 -15t-58.5 -75.5t-17 -208.5q0 -138 12.5 -197.5t50.5 -81t126 -21.5
q28 0 66 3t64 7v253h-146zM167 750v5l92 133h65l92 -133v-5h-41l-84 101l-83 -101h-41z" />
    <glyph glyph-name="gcircumflex" unicode="&#x11d;" horiz-adv-x="524" 
d="M80 -195v48q72 -6 150 -6q71 0 103.5 17t43 59t10.5 131v15h-5q-15 -41 -51.5 -58t-97.5 -17q-73 0 -109 21.5t-49.5 76t-13.5 163.5t14 164t50 77t108 22q58 0 97.5 -17t55.5 -67h5l3 76h49v-438q0 -110 -14 -166.5t-57 -82.5t-132 -26q-96 0 -160 8zM333.5 60.5
q29.5 16.5 40.5 53.5q8 26 10.5 58.5t2.5 82.5q0 51 -2 81.5t-9 53.5q-12 42 -41.5 59.5t-82.5 17.5q-62 0 -89 -14t-36.5 -57t-9.5 -141t9.5 -140t36.5 -56.5t89 -14.5q52 0 81.5 16.5zM137 605v5l92 133h65l92 -133v-5h-41l-84 101l-83 -101h-41z" />
    <glyph glyph-name="Gbreve" unicode="&#x11e;" horiz-adv-x="584" 
d="M303 307v52h203v-349q-40 -8 -93 -13t-94 -5q-108 0 -158.5 25.5t-70 98t-19.5 228.5q0 155 19.5 227.5t70.5 98.5t159 26q45 0 97.5 -5.5t86.5 -13.5v-49q-36 6 -80.5 10.5t-72.5 4.5q-104 0 -145.5 -15t-58.5 -75.5t-17 -208.5q0 -138 12.5 -197.5t50.5 -81t126 -21.5
q28 0 66 3t64 7v253h-146zM406.5 809.5q-6.5 -28.5 -33 -45.5t-82.5 -17t-82 17t-32.5 45t-6.5 79h42q0 -41 4 -61t21 -31t54 -11t54.5 11t21.5 31.5t4 60.5h42q0 -50 -6.5 -78.5z" />
    <glyph glyph-name="gbreve" unicode="&#x11f;" horiz-adv-x="524" 
d="M80 -195v48q72 -6 150 -6q71 0 103.5 17t43 59t10.5 131v15h-5q-15 -41 -51.5 -58t-97.5 -17q-73 0 -109 21.5t-49.5 76t-13.5 163.5t14 164t50 77t108 22q58 0 97.5 -17t55.5 -67h5l3 76h49v-438q0 -110 -14 -166.5t-57 -82.5t-132 -26q-96 0 -160 8zM333.5 60.5
q29.5 16.5 40.5 53.5q8 26 10.5 58.5t2.5 82.5q0 51 -2 81.5t-9 53.5q-12 42 -41.5 59.5t-82.5 17.5q-62 0 -89 -14t-36.5 -57t-9.5 -141t9.5 -140t36.5 -56.5t89 -14.5q52 0 81.5 16.5zM376.5 664.5q-6.5 -28.5 -33 -45.5t-82.5 -17t-82 17t-32.5 45t-6.5 79h42
q0 -41 4 -61t21 -31t54 -11t54.5 11t21.5 31.5t4 60.5h42q0 -50 -6.5 -78.5z" />
    <glyph glyph-name="Gdotaccent" unicode="&#x120;" horiz-adv-x="584" 
d="M303 307v52h203v-349q-40 -8 -93 -13t-94 -5q-108 0 -158.5 25.5t-70 98t-19.5 228.5q0 155 19.5 227.5t70.5 98.5t159 26q45 0 97.5 -5.5t86.5 -13.5v-49q-36 6 -80.5 10.5t-72.5 4.5q-104 0 -145.5 -15t-58.5 -75.5t-17 -208.5q0 -138 12.5 -197.5t50.5 -81t126 -21.5
q28 0 66 3t64 7v253h-146zM263 805v70h58v-70h-58z" />
    <glyph glyph-name="gdotaccent" unicode="&#x121;" horiz-adv-x="524" 
d="M80 -195v48q72 -6 150 -6q71 0 103.5 17t43 59t10.5 131v15h-5q-15 -41 -51.5 -58t-97.5 -17q-73 0 -109 21.5t-49.5 76t-13.5 163.5t14 164t50 77t108 22q58 0 97.5 -17t55.5 -67h5l3 76h49v-438q0 -110 -14 -166.5t-57 -82.5t-132 -26q-96 0 -160 8zM333.5 60.5
q29.5 16.5 40.5 53.5q8 26 10.5 58.5t2.5 82.5q0 51 -2 81.5t-9 53.5q-12 42 -41.5 59.5t-82.5 17.5q-62 0 -89 -14t-36.5 -57t-9.5 -141t9.5 -140t36.5 -56.5t89 -14.5q52 0 81.5 16.5zM233 660v70h58v-70h-58z" />
    <glyph glyph-name="Gcommaaccent" unicode="&#x122;" horiz-adv-x="584" 
d="M303 307v52h203v-349q-40 -8 -93 -13t-94 -5q-108 0 -158.5 25.5t-70 98t-19.5 228.5q0 155 19.5 227.5t70.5 98.5t159 26q45 0 97.5 -5.5t86.5 -13.5v-49q-36 6 -80.5 10.5t-72.5 4.5q-104 0 -145.5 -15t-58.5 -75.5t-17 -208.5q0 -138 12.5 -197.5t50.5 -81t126 -21.5
q28 0 66 3t64 7v253h-146zM289 -204.5q9 11.5 9 47.5v17h-28v78h67v-77q0 -44 -7 -66t-25.5 -31t-57.5 -9v29q33 0 42 11.5z" />
    <glyph glyph-name="gcommaaccent" unicode="&#x123;" horiz-adv-x="524" 
d="M80 -195v48q72 -6 150 -6q71 0 103.5 17t43 59t10.5 131v15h-5q-15 -41 -51.5 -58t-97.5 -17q-73 0 -109 21.5t-49.5 76t-13.5 163.5t14 164t50 77t108 22q58 0 97.5 -17t55.5 -67h5l3 76h49v-438q0 -110 -14 -166.5t-57 -82.5t-132 -26q-96 0 -160 8zM333.5 60.5
q29.5 16.5 40.5 53.5q8 26 10.5 58.5t2.5 82.5q0 51 -2 81.5t-9 53.5q-12 42 -41.5 59.5t-82.5 17.5q-62 0 -89 -14t-36.5 -57t-9.5 -141t9.5 -140t36.5 -56.5t89 -14.5q52 0 81.5 16.5zM277 747.5q-9 -11.5 -9 -47.5v-17h28v-78h-67v77q0 44 7 65.5t25.5 30.5t57.5 9v-28
q-33 0 -42 -11.5z" />
    <glyph glyph-name="Hcircumflex" unicode="&#x124;" horiz-adv-x="634" 
d="M484 0v320h-334v-320h-58v688h58v-313h334v313h59v-688h-59zM192 750v5l92 133h65l92 -133v-5h-41l-84 101l-83 -101h-41z" />
    <glyph glyph-name="hcircumflex" unicode="&#x125;" horiz-adv-x="529" 
d="M394 304q0 75 -9 108t-33.5 44t-80.5 11q-63 0 -91.5 -24.5t-35.5 -64t-7 -114.5v-264h-56v743h56v-301h4q13 34 47 55t103 21q68 0 102 -19.5t45.5 -60.5t11.5 -116v-322h-56v304zM-16 783v5l92 133h65l92 -133v-5h-41l-84 101l-83 -101h-41z" />
    <glyph glyph-name="Hbar" unicode="&#x126;" horiz-adv-x="634" 
d="M484 688h59v-688h-59v295h-334v-295h-58v688h58v-147h334v147zM150 349h334v139h-334v-139z" />
    <glyph glyph-name="hbar" unicode="&#x127;" horiz-adv-x="529" 
d="M393 498.5q34 -19.5 45.5 -60.5t11.5 -116v-322h-56v304q0 75 -9 108t-33.5 44t-80.5 11q-63 0 -91.5 -24.5t-35.5 -64t-7 -114.5v-264h-56v639h-62v49h62v55h56v-55h131v-49h-131v-197h4q13 34 47 55t103 21q68 0 102 -19.5z" />
    <glyph glyph-name="Itilde" unicode="&#x128;" horiz-adv-x="245" 
d="M93 0v688h59v-688h-59zM267 807q-12 -22 -51 -22q-23 0 -46.5 6.5t-56.5 18.5q-28 10 -46.5 15.5t-35.5 5.5q-18 0 -23.5 -12t-5.5 -45h-37q0 59 12 81t51 22q23 0 45.5 -6.5t58.5 -19.5q28 -10 46 -15t35 -5q19 0 24 11.5t5 45.5h37q0 -59 -12 -81z" />
    <glyph glyph-name="itilde" unicode="&#x129;" horiz-adv-x="218" 
d="M81 0v510h56v-510h-56zM253 662q-12 -22 -51 -22q-23 0 -46.5 6.5t-56.5 18.5q-28 10 -46.5 15.5t-35.5 5.5q-18 0 -23.5 -12t-5.5 -45h-37q0 59 12 81t51 22q23 0 45.5 -6.5t58.5 -19.5q28 -10 46 -15t35 -5q19 0 24 11.5t5 45.5h37q0 -59 -12 -81z" />
    <glyph glyph-name="Imacron" unicode="&#x12a;" horiz-adv-x="245" 
d="M93 0v688h59v-688h-59zM16 834v53h212v-53h-212z" />
    <glyph glyph-name="imacron" unicode="&#x12b;" horiz-adv-x="218" 
d="M81 0v510h56v-510h-56zM2 689v53h212v-53h-212z" />
    <glyph glyph-name="Ibreve" unicode="&#x12c;" horiz-adv-x="245" 
d="M93 0v688h59v-688h-59zM237.5 809.5q-6.5 -28.5 -33 -45.5t-82.5 -17t-82 17t-32.5 45t-6.5 79h42q0 -41 4 -61t21 -31t54 -11t54.5 11t21.5 31.5t4 60.5h42q0 -50 -6.5 -78.5z" />
    <glyph glyph-name="ibreve" unicode="&#x12d;" horiz-adv-x="218" 
d="M81 0v510h56v-510h-56zM223.5 664.5q-6.5 -28.5 -33 -45.5t-82.5 -17t-82 17t-32.5 45t-6.5 79h42q0 -41 4 -61t21 -31t54 -11t54.5 11t21.5 31.5t4 60.5h42q0 -50 -6.5 -78.5z" />
    <glyph glyph-name="Iogonek" unicode="&#x12e;" horiz-adv-x="245" 
d="M59.5 -175.5q-19.5 20.5 -19.5 54.5q0 28 17 61t44 60h-8v688h59v-688q-22 -19 -42 -52t-20 -59q0 -43 46 -43q10 0 17 1v-41q-18 -2 -30 -2q-44 0 -63.5 20.5z" />
    <glyph glyph-name="iogonek" unicode="&#x12f;" horiz-adv-x="218" 
d="M80 730h58v-70h-58v70zM121 -154q9 0 17 1v-41q-13 -2 -30 -2q-44 0 -63.5 20t-19.5 54q0 30 17 62.5t44 59.5h-5v510h56v-510q-22 -19 -42 -51.5t-20 -59.5q0 -43 46 -43z" />
    <glyph glyph-name="Idotaccent" unicode="&#x130;" horiz-adv-x="245" 
d="M93 0v688h59v-688h-59zM94 805v70h58v-70h-58z" />
    <glyph glyph-name="dotlessi" unicode="&#x131;" horiz-adv-x="218" 
d="M81 0v510h56v-510h-56z" />
    <glyph glyph-name="IJ" unicode="&#x132;" horiz-adv-x="535" 
d="M93 0v688h59v-688h-59zM359 63q22 10 27.5 44t5.5 135v446h59v-426q0 -135 -9.5 -184t-42.5 -63t-126 -15v51q64 2 86 12z" />
    <glyph glyph-name="ij" unicode="&#x133;" horiz-adv-x="436" 
d="M78 668v75h62v-75h-62zM81 0v510h56v-510h-56zM296 668v75h62v-75h-62zM213 -151q39 0 57 5t23.5 16t5.5 35v605h56v-589q0 -54 -14 -79t-42 -32t-86 -7v46z" />
    <glyph glyph-name="Jcircumflex" unicode="&#x134;" horiz-adv-x="290" 
d="M114 63q22 10 27.5 44t5.5 135v446h59v-426q0 -135 -9.5 -184t-42.5 -63t-126 -15v51q64 2 86 12zM52 750v5l92 133h65l92 -133v-5h-41l-84 101l-83 -101h-41z" />
    <glyph glyph-name="jcircumflex" unicode="&#x135;" horiz-adv-x="218" 
d="M-5 -151q39 0 57 5t23.5 16t5.5 35v605h56v-589q0 -54 -14 -79t-42 -32t-86 -7v46zM-16 605v5l92 133h65l92 -133v-5h-41l-84 101l-83 -101h-41z" />
    <glyph glyph-name="Kcommaaccent" unicode="&#x136;" horiz-adv-x="575" 
d="M481 0l-208 323h-123v-323h-58v688h58v-313h123l208 313h65l-225 -337l227 -351h-67zM285 -204.5q9 11.5 9 47.5v17h-28v78h67v-77q0 -44 -7 -66t-25.5 -31t-57.5 -9v29q33 0 42 11.5z" />
    <glyph glyph-name="kcommaaccent" unicode="&#x137;" horiz-adv-x="466" 
d="M371 0l-167 233h-67v-233h-56v743h56v-459h67l166 226h64l-184 -247l187 -263h-66zM230 -204.5q9 11.5 9 47.5v17h-28v78h67v-77q0 -44 -7 -66t-25.5 -31t-57.5 -9v29q33 0 42 11.5z" />
    <glyph glyph-name="kgreenlandic" unicode="&#x138;" horiz-adv-x="466" 
d="M371 0l-167 233h-67v-233h-56v510h56v-226h67l166 226h64l-184 -247l187 -263h-66z" />
    <glyph glyph-name="Lacute" unicode="&#x139;" horiz-adv-x="459" 
d="M92 0v688h59v-634h284v-54h-343zM100 748v5l81 135h63v-5l-102 -135h-42z" />
    <glyph glyph-name="lacute" unicode="&#x13a;" horiz-adv-x="218" 
d="M81 0v743h56v-743h-56zM83 781v5l81 135h63v-5l-102 -135h-42z" />
    <glyph glyph-name="Lcommaaccent" unicode="&#x13b;" horiz-adv-x="459" 
d="M92 0v688h59v-634h284v-54h-343zM242 -204.5q9 11.5 9 47.5v17h-28v78h67v-77q0 -44 -7 -66t-25.5 -31t-57.5 -9v29q33 0 42 11.5z" />
    <glyph glyph-name="lcommaaccent" unicode="&#x13c;" horiz-adv-x="218" 
d="M81 0v743h56v-743h-56zM106 -204.5q9 11.5 9 47.5v17h-28v78h67v-77q0 -44 -7 -66t-25.5 -31t-57.5 -9v29q33 0 42 11.5z" />
    <glyph glyph-name="Lcaron" unicode="&#x13d;" horiz-adv-x="459" 
d="M92 0v688h59v-634h284v-54h-343zM292 460l14 157v82h57v-82l-32 -157h-39z" />
    <glyph glyph-name="lcaron" unicode="&#x13e;" horiz-adv-x="225" 
d="M81 0v743h56v-743h-56zM180 449l14 157v82h57v-82l-32 -157h-39z" />
    <glyph glyph-name="Ldot" unicode="&#x13f;" horiz-adv-x="459" 
d="M92 0v688h59v-634h284v-54h-343zM324 319v80h68v-80h-68z" />
    <glyph glyph-name="ldot" unicode="&#x140;" horiz-adv-x="245" 
d="M81 0v743h56v-743h-56zM197 259v80h68v-80h-68z" />
    <glyph glyph-name="Lslash" unicode="&#x141;" horiz-adv-x="459" 
d="M151 54h284v-54h-343v295l-59 -22v50l59 22v343h59v-321l174 64v-51l-174 -64v-262z" />
    <glyph glyph-name="lslash" unicode="&#x142;" horiz-adv-x="221" 
d="M81 0v327l-56 -20v51l56 20v365h56v-344l60 21v-51l-60 -22v-347h-56z" />
    <glyph glyph-name="Nacute" unicode="&#x143;" horiz-adv-x="635" 
d="M485 0l-333 569h-4v-569h-56v688h60l330 -563h4v563h57v-688h-58zM289 748v5l81 135h63v-5l-102 -135h-42z" />
    <glyph glyph-name="nacute" unicode="&#x144;" horiz-adv-x="529" 
d="M394 304q0 75 -9 108t-33.5 44t-80.5 11q-63 0 -91.5 -24.5t-35.5 -64t-7 -114.5v-264h-56v510h48l4 -76h4q14 40 48.5 62t105.5 22q68 0 102 -19.5t45.5 -60.5t11.5 -117v-321h-56v304zM239 603v5l81 135h63v-5l-102 -135h-42z" />
    <glyph glyph-name="Ncommaaccent" unicode="&#x145;" horiz-adv-x="635" 
d="M485 0l-333 569h-4v-569h-56v688h60l330 -563h4v563h57v-688h-58zM314 -204.5q9 11.5 9 47.5v17h-28v78h67v-77q0 -44 -7 -66t-25.5 -31t-57.5 -9v29q33 0 42 11.5z" />
    <glyph glyph-name="ncommaaccent" unicode="&#x146;" horiz-adv-x="529" 
d="M394 304q0 75 -9 108t-33.5 44t-80.5 11q-63 0 -91.5 -24.5t-35.5 -64t-7 -114.5v-264h-56v510h48l4 -76h4q14 40 48.5 62t105.5 22q68 0 102 -19.5t45.5 -60.5t11.5 -117v-321h-56v304zM262 -204.5q9 11.5 9 47.5v17h-28v78h67v-77q0 -44 -7 -66t-25.5 -31t-57.5 -9v29
q33 0 42 11.5z" />
    <glyph glyph-name="Ncaron" unicode="&#x147;" horiz-adv-x="635" 
d="M485 0l-333 569h-4v-569h-56v688h60l330 -563h4v563h57v-688h-58zM285 750l-92 132v6h41l83 -102l84 102h41v-6l-92 -132h-65z" />
    <glyph glyph-name="ncaron" unicode="&#x148;" horiz-adv-x="529" 
d="M394 304q0 75 -9 108t-33.5 44t-80.5 11q-63 0 -91.5 -24.5t-35.5 -64t-7 -114.5v-264h-56v510h48l4 -76h4q14 40 48.5 62t105.5 22q68 0 102 -19.5t45.5 -60.5t11.5 -117v-321h-56v304zM233 605l-92 132v6h41l83 -102l84 102h41v-6l-92 -132h-65z" />
    <glyph glyph-name="napostrophe" unicode="&#x149;" horiz-adv-x="552" 
d="M48 603q9 12 9 51v17h-28v72h67v-71q0 -46 -7 -69t-25.5 -32t-57.5 -9v29q33 0 42 12zM417 304q0 75 -9 108t-33.5 44t-80.5 11q-63 0 -91.5 -24.5t-35.5 -64t-7 -114.5v-264h-56v510h48l4 -76h4q14 40 48.5 62t105.5 22q68 0 102 -19.5t45.5 -60.5t11.5 -117v-321h-56
v304z" />
    <glyph glyph-name="Eng" unicode="&#x14a;" horiz-adv-x="635" 
d="M543 688v-767q0 -54 -14 -79t-42 -32t-86 -7v46q39 0 56.5 5t23 16t5.5 35v96l-334 568h-4v-569h-56v688h60l330 -561h4v561h57z" />
    <glyph glyph-name="eng" unicode="&#x14b;" horiz-adv-x="529" 
d="M393 498.5q34 -19.5 45.5 -60.5t11.5 -117v-400q0 -54 -14 -79t-42 -32t-86 -7v46q39 0 57 5t23.5 16t5.5 35v399q0 75 -9 108t-33.5 44t-80.5 11q-63 0 -91.5 -24.5t-35.5 -64t-7 -114.5v-264h-56v510h48l4 -76h4q14 40 48.5 62t105.5 22q68 0 102 -19.5z" />
    <glyph glyph-name="Omacron" unicode="&#x14c;" horiz-adv-x="623" 
d="M147 17q-48 25 -62 93.5t-14 233.5t14 233.5t62 93.5t164 25q117 0 165 -25t62 -93.5t14 -233.5t-14 -233.5t-62 -93.5t-165 -25q-116 0 -164 25zM437 60q34 15 45 73t11 211t-11 211t-45 73t-126 15q-91 0 -125 -15t-45 -73t-11 -211t11 -211t45 -73t125 -15
q92 0 126 15zM205 834v53h212v-53h-212z" />
    <glyph glyph-name="omacron" unicode="&#x14d;" horiz-adv-x="511" 
d="M123 12.5q-40 20.5 -51 72t-11 169.5q0 119 11 170.5t51 72.5t132 21q93 0 132.5 -21t51 -72.5t11.5 -170.5q0 -118 -11.5 -169.5t-51 -72t-132.5 -20.5q-92 0 -132 20.5zM353 56q28 15 34.5 54.5t6.5 143.5t-6.5 144t-34.5 55.5t-98 15.5t-97.5 -15.5t-34 -55
t-6.5 -144.5q0 -104 6.5 -143.5t34 -54.5t97.5 -15t98 15zM148 689v53h212v-53h-212z" />
    <glyph glyph-name="Obreve" unicode="&#x14e;" horiz-adv-x="623" 
d="M147 17q-48 25 -62 93.5t-14 233.5t14 233.5t62 93.5t164 25q117 0 165 -25t62 -93.5t14 -233.5t-14 -233.5t-62 -93.5t-165 -25q-116 0 -164 25zM437 60q34 15 45 73t11 211t-11 211t-45 73t-126 15q-91 0 -125 -15t-45 -73t-11 -211t11 -211t45 -73t125 -15
q92 0 126 15zM426.5 809.5q-6.5 -28.5 -33 -45.5t-82.5 -17t-82 17t-32.5 45t-6.5 79h42q0 -41 4 -61t21 -31t54 -11t54.5 11t21.5 31.5t4 60.5h42q0 -50 -6.5 -78.5z" />
    <glyph glyph-name="obreve" unicode="&#x14f;" horiz-adv-x="511" 
d="M123 12.5q-40 20.5 -51 72t-11 169.5q0 119 11 170.5t51 72.5t132 21q93 0 132.5 -21t51 -72.5t11.5 -170.5q0 -118 -11.5 -169.5t-51 -72t-132.5 -20.5q-92 0 -132 20.5zM353 56q28 15 34.5 54.5t6.5 143.5t-6.5 144t-34.5 55.5t-98 15.5t-97.5 -15.5t-34 -55
t-6.5 -144.5q0 -104 6.5 -143.5t34 -54.5t97.5 -15t98 15zM369.5 664.5q-6.5 -28.5 -33 -45.5t-82.5 -17t-82 17t-32.5 45t-6.5 79h42q0 -41 4 -61t21 -31t54 -11t54.5 11t21.5 31.5t4 60.5h42q0 -50 -6.5 -78.5z" />
    <glyph glyph-name="Ohungarumlaut" unicode="&#x150;" horiz-adv-x="623" 
d="M147 17q-48 25 -62 93.5t-14 233.5t14 233.5t62 93.5t164 25q117 0 165 -25t62 -93.5t14 -233.5t-14 -233.5t-62 -93.5t-165 -25q-116 0 -164 25zM437 60q34 15 45 73t11 211t-11 211t-45 73t-126 15q-91 0 -125 -15t-45 -73t-11 -211t11 -211t45 -73t125 -15
q92 0 126 15zM210 752v5l78 126h59v-5l-98 -126h-39zM374 752v5l78 126h58v-5l-98 -126h-38z" />
    <glyph glyph-name="ohungarumlaut" unicode="&#x151;" horiz-adv-x="511" 
d="M123 12.5q-40 20.5 -51 72t-11 169.5q0 119 11 170.5t51 72.5t132 21q93 0 132.5 -21t51 -72.5t11.5 -170.5q0 -118 -11.5 -169.5t-51 -72t-132.5 -20.5q-92 0 -132 20.5zM353 56q28 15 34.5 54.5t6.5 143.5t-6.5 144t-34.5 55.5t-98 15.5t-97.5 -15.5t-34 -55
t-6.5 -144.5q0 -104 6.5 -143.5t34 -54.5t97.5 -15t98 15zM160 607v5l78 126h59v-5l-98 -126h-39zM324 607v5l78 126h58v-5l-98 -126h-38z" />
    <glyph glyph-name="OE" unicode="&#x152;" horiz-adv-x="907" 
d="M147 24.5q-48 24.5 -62 91.5t-14 228t14 228t62 91.5t164 24.5h548v-53h-298q-28 0 -66 5q34 -28 45 -87t12 -179h267v-53h-267q-1 -125 -11.5 -185t-45.5 -88q35 5 66 5h298v-53h-548q-116 0 -164 24.5zM437 67.5q34 14.5 45 71t11 205.5t-11 205.5t-45 71t-126 14.5
q-91 0 -125 -14.5t-45 -71t-11 -205.5t11 -205.5t45 -71t125 -14.5q92 0 126 14.5z" />
    <glyph glyph-name="oe" unicode="&#x153;" horiz-adv-x="830" 
d="M769 236h-319q0 -87 9.5 -125.5t41 -54t102.5 -15.5q34 0 75.5 3.5t73.5 9.5v-48q-27 -6 -72 -10t-87 -4q-72 0 -111 15.5t-59 55.5q-17 -41 -54.5 -56t-113.5 -15q-92 0 -132 20.5t-51 72t-11 169.5q0 119 11 170.5t51 72.5t132 21q75 0 113 -15t55 -54q18 37 57 53
t112 16q83 0 120 -23.5t47 -75t10 -164.5v-19zM353 56q28 15 34.5 54.5t6.5 143.5t-6.5 144t-34.5 55.5t-98 15.5t-97.5 -15.5t-34 -55t-6.5 -144.5q0 -104 6.5 -143.5t34 -54.5t97.5 -15t98 15zM497 455.5q-28 -13.5 -37 -51t-10 -123.5h264v15q0 78 -10.5 114t-36 47.5
t-78.5 11.5q-64 0 -92 -13.5z" />
    <glyph glyph-name="Racute" unicode="&#x154;" horiz-adv-x="590" 
d="M468 0l-101 285q-10 -1 -26 -1h-191v-284h-58v688h259q75 0 112.5 -26.5t48 -68t10.5 -107.5q0 -76 -18.5 -124.5t-79.5 -66.5l107 -295h-63zM418.5 353q28.5 17 36.5 48t8 85q0 55 -7.5 85t-34 47t-82.5 17h-189v-299h182q58 0 86.5 17zM268 748v5l81 135h63v-5
l-102 -135h-42z" />
    <glyph glyph-name="racute" unicode="&#x155;" horiz-adv-x="315" 
d="M81 510h48l4 -101h4q15 62 53.5 85.5t100.5 23.5v-57q-61 0 -94.5 -23.5t-46.5 -69t-13 -119.5v-249h-56v510zM132 603v5l81 135h63v-5l-102 -135h-42z" />
    <glyph glyph-name="Rcommaaccent" unicode="&#x156;" horiz-adv-x="590" 
d="M468 0l-101 285q-10 -1 -26 -1h-191v-284h-58v688h259q75 0 112.5 -26.5t48 -68t10.5 -107.5q0 -76 -18.5 -124.5t-79.5 -66.5l107 -295h-63zM418.5 353q28.5 17 36.5 48t8 85q0 55 -7.5 85t-34 47t-82.5 17h-189v-299h182q58 0 86.5 17zM293 -204.5q9 11.5 9 47.5v17
h-28v78h67v-77q0 -44 -7 -66t-25.5 -31t-57.5 -9v29q33 0 42 11.5z" />
    <glyph glyph-name="rcommaaccent" unicode="&#x157;" horiz-adv-x="315" 
d="M81 510h48l4 -101h4q15 62 53.5 85.5t100.5 23.5v-57q-61 0 -94.5 -23.5t-46.5 -69t-13 -119.5v-249h-56v510zM106 -204.5q9 11.5 9 47.5v17h-28v78h67v-77q0 -44 -7 -66t-25.5 -31t-57.5 -9v29q33 0 42 11.5z" />
    <glyph glyph-name="Rcaron" unicode="&#x158;" horiz-adv-x="590" 
d="M468 0l-101 285q-10 -1 -26 -1h-191v-284h-58v688h259q75 0 112.5 -26.5t48 -68t10.5 -107.5q0 -76 -18.5 -124.5t-79.5 -66.5l107 -295h-63zM418.5 353q28.5 17 36.5 48t8 85q0 55 -7.5 85t-34 47t-82.5 17h-189v-299h182q58 0 86.5 17zM264 750l-92 132v6h41l83 -102
l84 102h41v-6l-92 -132h-65z" />
    <glyph glyph-name="rcaron" unicode="&#x159;" horiz-adv-x="315" 
d="M81 510h48l4 -101h4q15 62 53.5 85.5t100.5 23.5v-57q-61 0 -94.5 -23.5t-46.5 -69t-13 -119.5v-249h-56v510zM126 605l-92 132v6h41l83 -102l84 102h41v-6l-92 -132h-65z" />
    <glyph glyph-name="Sacute" unicode="&#x15a;" horiz-adv-x="540" 
d="M174 -4.5q-56 3.5 -97 9.5v52q42 -5 95 -8.5t90 -3.5q48 0 76.5 5t50.5 19q20 14 26.5 42.5t6.5 74.5q0 60 -5 83.5t-24.5 33.5t-69.5 16l-149 19q-52 6 -77 27t-31.5 54t-6.5 90q0 73 22.5 114t68.5 57t122 16q49 0 98.5 -4t79.5 -10v-51q-81 12 -167 12q-53 0 -85 -6.5
t-50 -22.5q-18 -15 -24 -39.5t-6 -65.5q0 -48 5.5 -70t21.5 -32t52 -14l143 -18q59 -8 88 -21.5t42 -51.5q6 -17 8 -41.5t2 -67.5q0 -83 -21.5 -126.5t-64 -59t-115.5 -15.5q-49 0 -105 3.5zM242 748v5l81 135h63v-5l-102 -135h-42z" />
    <glyph glyph-name="sacute" unicode="&#x15b;" horiz-adv-x="440" 
d="M140 -4.5q-44 3.5 -75 8.5v48q85 -11 160 -11q46 0 69.5 10t31 29.5t7.5 55.5q0 41 -5 58.5t-17.5 23.5t-40.5 9l-122 14q-57 7 -77 35t-20 95q0 62 20.5 94t57.5 42.5t98 10.5q32 0 71 -4t66 -9v-48q-66 12 -144 12q-40 0 -63.5 -6t-37 -26.5t-13.5 -60.5
q0 -36 5.5 -52.5t18 -23t39.5 -9.5l120 -14q40 -4 60.5 -15.5t30 -40t9.5 -83.5q0 -58 -17.5 -89.5t-53.5 -44t-97 -12.5q-37 0 -81 3.5zM194 603v5l81 135h63v-5l-102 -135h-42z" />
    <glyph glyph-name="Scircumflex" unicode="&#x15c;" horiz-adv-x="540" 
d="M174 -4.5q-56 3.5 -97 9.5v52q42 -5 95 -8.5t90 -3.5q48 0 76.5 5t50.5 19q20 14 26.5 42.5t6.5 74.5q0 60 -5 83.5t-24.5 33.5t-69.5 16l-149 19q-52 6 -77 27t-31.5 54t-6.5 90q0 73 22.5 114t68.5 57t122 16q49 0 98.5 -4t79.5 -10v-51q-81 12 -167 12q-53 0 -85 -6.5
t-50 -22.5q-18 -15 -24 -39.5t-6 -65.5q0 -48 5.5 -70t21.5 -32t52 -14l143 -18q59 -8 88 -21.5t42 -51.5q6 -17 8 -41.5t2 -67.5q0 -83 -21.5 -126.5t-64 -59t-115.5 -15.5q-49 0 -105 3.5zM145 750v5l92 133h65l92 -133v-5h-41l-84 101l-83 -101h-41z" />
    <glyph glyph-name="scircumflex" unicode="&#x15d;" horiz-adv-x="440" 
d="M140 -4.5q-44 3.5 -75 8.5v48q85 -11 160 -11q46 0 69.5 10t31 29.5t7.5 55.5q0 41 -5 58.5t-17.5 23.5t-40.5 9l-122 14q-57 7 -77 35t-20 95q0 62 20.5 94t57.5 42.5t98 10.5q32 0 71 -4t66 -9v-48q-66 12 -144 12q-40 0 -63.5 -6t-37 -26.5t-13.5 -60.5
q0 -36 5.5 -52.5t18 -23t39.5 -9.5l120 -14q40 -4 60.5 -15.5t30 -40t9.5 -83.5q0 -58 -17.5 -89.5t-53.5 -44t-97 -12.5q-37 0 -81 3.5zM95 605v5l92 133h65l92 -133v-5h-41l-84 101l-83 -101h-41z" />
    <glyph glyph-name="Scedilla" unicode="&#x15e;" horiz-adv-x="540" 
d="M459.5 69q-20.5 -43 -61 -59.5t-108.5 -17.5l-41 -182h-57v5l55 177q-109 4 -170 13v52q42 -5 95 -8.5t90 -3.5q48 0 76.5 5t50.5 19q20 14 26.5 42.5t6.5 74.5q0 60 -5 83.5t-24.5 33.5t-69.5 16l-149 19q-52 6 -77 27t-31.5 54t-6.5 90q0 73 22.5 114t68.5 57t122 16
q49 0 98.5 -4t79.5 -10v-51q-81 12 -167 12q-53 0 -85 -6.5t-50 -22.5q-18 -15 -24 -39.5t-6 -65.5q0 -48 5.5 -70t21.5 -32t52 -14l143 -18q59 -8 88 -21.5t42 -51.5q6 -17 8 -41.5t2 -67.5q0 -81 -20.5 -124z" />
    <glyph glyph-name="scedilla" unicode="&#x15f;" horiz-adv-x="440" 
d="M373.5 52q-15.5 -31 -47.5 -44.5t-86 -15.5l-41 -182h-57v5l55 177q-84 4 -132 12v48q85 -11 160 -11q46 0 69.5 10t31 29.5t7.5 55.5q0 41 -5 58.5t-17.5 23.5t-40.5 9l-122 14q-57 7 -77 35t-20 95q0 62 20.5 94t57.5 42.5t98 10.5q32 0 71 -4t66 -9v-48
q-66 12 -144 12q-40 0 -63.5 -6t-37 -26.5t-13.5 -60.5q0 -36 5.5 -52.5t18 -23t39.5 -9.5l120 -14q40 -4 60.5 -15.5t30 -40t9.5 -83.5t-15.5 -86z" />
    <glyph glyph-name="Scaron" unicode="&#x160;" horiz-adv-x="541" 
d="M174 -4.5q-56 3.5 -97 9.5v52q42 -5 95 -8.5t90 -3.5q48 0 76.5 5t50.5 19q20 14 26.5 42.5t6.5 74.5q0 60 -5 83.5t-24.5 33.5t-69.5 16l-149 19q-52 6 -77 27t-31.5 54t-6.5 90q0 73 22.5 114t68.5 57t122 16q49 0 98.5 -4t79.5 -10v-51q-81 12 -167 12q-53 0 -85 -6.5
t-50 -22.5q-18 -15 -24 -39.5t-6 -65.5q0 -48 5.5 -70t21.5 -32t52 -14l143 -18q59 -8 88 -21.5t42 -51.5q6 -17 8 -41.5t2 -67.5q0 -83 -21.5 -126.5t-64 -59t-115.5 -15.5q-49 0 -105 3.5zM245 750l-92 132v6h41l83 -102l84 102h41v-6l-92 -132h-65z" />
    <glyph glyph-name="scaron" unicode="&#x161;" horiz-adv-x="440" 
d="M140 -4.5q-44 3.5 -75 8.5v48q85 -11 160 -11q46 0 69.5 10t31 29.5t7.5 55.5q0 41 -5 58.5t-17.5 23.5t-40.5 9l-122 14q-57 7 -77 35t-20 95q0 62 20.5 94t57.5 42.5t98 10.5q32 0 71 -4t66 -9v-48q-66 12 -144 12q-40 0 -63.5 -6t-37 -26.5t-13.5 -60.5
q0 -36 5.5 -52.5t18 -23t39.5 -9.5l120 -14q40 -4 60.5 -15.5t30 -40t9.5 -83.5q0 -58 -17.5 -89.5t-53.5 -44t-97 -12.5q-37 0 -81 3.5zM191 605l-92 132v6h41l83 -102l84 102h41v-6l-92 -132h-65z" />
    <glyph glyph-name="uni0162" unicode="&#x162;" horiz-adv-x="499" 
d="M28 688h443v-54h-192v-634h-9l-42 -190h-57v5l58 185h-9v634h-192v54z" />
    <glyph glyph-name="uni0163" unicode="&#x163;" horiz-adv-x="304" 
d="M172 510h107v-49h-107v-461h-7l-42 -190h-57v5l58 185h-8v461h-91v49h91v148h56v-148z" />
    <glyph glyph-name="Tcaron" unicode="&#x164;" horiz-adv-x="499" 
d="M220 0v634h-192v54h443v-54h-192v-634h-59zM217 750l-92 132v6h41l83 -102l84 102h41v-6l-92 -132h-65z" />
    <glyph glyph-name="tcaron" unicode="&#x165;" horiz-adv-x="321" 
d="M116 0v461h-91v49h91v148h56v-148h107v-49h-107v-461h-56zM313 449l14 157v82h57v-82l-32 -157h-39z" />
    <glyph glyph-name="Tbar" unicode="&#x166;" horiz-adv-x="499" 
d="M471 634h-192v-259h165v-49h-165v-326h-59v326h-165v49h165v259h-192v54h443v-54z" />
    <glyph glyph-name="tbar" unicode="&#x167;" horiz-adv-x="304" 
d="M279 461h-107v-176h105v-49h-105v-236h-56v236h-86v49h86v176h-91v49h91v148h56v-148h107v-49z" />
    <glyph glyph-name="Utilde" unicode="&#x168;" horiz-adv-x="617" 
d="M533 688v-391q0 -133 -14 -193.5t-60 -86t-150 -25.5t-150.5 25.5t-60.5 86t-14 193.5v391h59v-424q0 -99 9.5 -141.5t43.5 -60t113 -17.5t112.5 17.5t43 60t9.5 141.5v424h59zM453 807q-12 -22 -51 -22q-23 0 -46.5 6.5t-56.5 18.5q-28 10 -46.5 15.5t-35.5 5.5
q-18 0 -23.5 -12t-5.5 -45h-37q0 59 12 81t51 22q23 0 45.5 -6.5t58.5 -19.5q28 -10 46 -15t35 -5q19 0 24 11.5t5 45.5h37q0 -59 -12 -81z" />
    <glyph glyph-name="utilde" unicode="&#x169;" horiz-adv-x="529" 
d="M397 76h-5q-14 -40 -48.5 -62t-105.5 -22q-68 0 -101.5 19.5t-45 60.5t-11.5 117v321h56v-304q0 -75 9 -108t33.5 -44t79.5 -11q63 0 92 24.5t36 64.5t7 114v264h56v-510h-49zM409 662q-12 -22 -51 -22q-23 0 -46.5 6.5t-56.5 18.5q-28 10 -46.5 15.5t-35.5 5.5
q-18 0 -23.5 -12t-5.5 -45h-37q0 59 12 81t51 22q23 0 45.5 -6.5t58.5 -19.5q28 -10 46 -15t35 -5q19 0 24 11.5t5 45.5h37q0 -59 -12 -81z" />
    <glyph glyph-name="Umacron" unicode="&#x16a;" horiz-adv-x="617" 
d="M533 688v-391q0 -133 -14 -193.5t-60 -86t-150 -25.5t-150.5 25.5t-60.5 86t-14 193.5v391h59v-424q0 -99 9.5 -141.5t43.5 -60t113 -17.5t112.5 17.5t43 60t9.5 141.5v424h59zM202 834v53h212v-53h-212z" />
    <glyph glyph-name="umacron" unicode="&#x16b;" horiz-adv-x="529" 
d="M397 76h-5q-14 -40 -48.5 -62t-105.5 -22q-68 0 -101.5 19.5t-45 60.5t-11.5 117v321h56v-304q0 -75 9 -108t33.5 -44t79.5 -11q63 0 92 24.5t36 64.5t7 114v264h56v-510h-49zM158 689v53h212v-53h-212z" />
    <glyph glyph-name="Ubreve" unicode="&#x16c;" horiz-adv-x="617" 
d="M533 688v-391q0 -133 -14 -193.5t-60 -86t-150 -25.5t-150.5 25.5t-60.5 86t-14 193.5v391h59v-424q0 -99 9.5 -141.5t43.5 -60t113 -17.5t112.5 17.5t43 60t9.5 141.5v424h59zM423.5 809.5q-6.5 -28.5 -33 -45.5t-82.5 -17t-82 17t-32.5 45t-6.5 79h42q0 -41 4 -61
t21 -31t54 -11t54.5 11t21.5 31.5t4 60.5h42q0 -50 -6.5 -78.5z" />
    <glyph glyph-name="ubreve" unicode="&#x16d;" horiz-adv-x="529" 
d="M397 76h-5q-14 -40 -48.5 -62t-105.5 -22q-68 0 -101.5 19.5t-45 60.5t-11.5 117v321h56v-304q0 -75 9 -108t33.5 -44t79.5 -11q63 0 92 24.5t36 64.5t7 114v264h56v-510h-49zM379.5 664.5q-6.5 -28.5 -33 -45.5t-82.5 -17t-82 17t-32.5 45t-6.5 79h42q0 -41 4 -61
t21 -31t54 -11t54.5 11t21.5 31.5t4 60.5h42q0 -50 -6.5 -78.5z" />
    <glyph glyph-name="Uring" unicode="&#x16e;" horiz-adv-x="617" 
d="M533 688v-391q0 -133 -14 -193.5t-60 -86t-150 -25.5t-150.5 25.5t-60.5 86t-14 193.5v391h59v-424q0 -99 9.5 -141.5t43.5 -60t113 -17.5t112.5 17.5t43 60t9.5 141.5v424h59zM234.5 735q-22.5 9 -29 28t-6.5 59t6.5 59t29 28t73.5 9t74 -9t29.5 -28.5t6.5 -58.5
t-6.5 -58.5t-29.5 -28.5t-74 -9t-73.5 9zM354 767q14 5 17.5 16.5t3.5 38.5t-3.5 38.5t-17.5 17t-46 5.5t-45.5 -5.5t-17 -17t-3.5 -38.5t3.5 -38.5t17 -16.5t45.5 -5t46 5z" />
    <glyph glyph-name="uring" unicode="&#x16f;" horiz-adv-x="529" 
d="M397 76h-5q-14 -40 -48.5 -62t-105.5 -22q-68 0 -101.5 19.5t-45 60.5t-11.5 117v321h56v-304q0 -75 9 -108t33.5 -44t79.5 -11q63 0 92 24.5t36 64.5t7 114v264h56v-510h-49zM190.5 620q-22.5 9 -29 28t-6.5 59t6.5 59t29 28t73.5 9t74 -9t29.5 -28.5t6.5 -58.5
t-6.5 -58.5t-29.5 -28.5t-74 -9t-73.5 9zM310 652q14 5 17.5 16.5t3.5 38.5t-3.5 38.5t-17.5 17t-46 5.5t-45.5 -5.5t-17 -17t-3.5 -38.5t3.5 -38.5t17 -16.5t45.5 -5t46 5z" />
    <glyph glyph-name="Uhungarumlaut" unicode="&#x170;" horiz-adv-x="617" 
d="M533 688v-391q0 -133 -14 -193.5t-60 -86t-150 -25.5t-150.5 25.5t-60.5 86t-14 193.5v391h59v-424q0 -99 9.5 -141.5t43.5 -60t113 -17.5t112.5 17.5t43 60t9.5 141.5v424h59zM207 752v5l78 126h59v-5l-98 -126h-39zM371 752v5l78 126h58v-5l-98 -126h-38z" />
    <glyph glyph-name="uhungarumlaut" unicode="&#x171;" horiz-adv-x="529" 
d="M397 76h-5q-14 -40 -48.5 -62t-105.5 -22q-68 0 -101.5 19.5t-45 60.5t-11.5 117v321h56v-304q0 -75 9 -108t33.5 -44t79.5 -11q63 0 92 24.5t36 64.5t7 114v264h56v-510h-49zM170 607v5l78 126h59v-5l-98 -126h-39zM334 607v5l78 126h58v-5l-98 -126h-38z" />
    <glyph glyph-name="Uogonek" unicode="&#x172;" horiz-adv-x="617" 
d="M533 688v-391q0 -87 -5 -139t-20 -86t-45 -52q-34 -21 -59.5 -57.5t-25.5 -73.5q0 -43 47 -43q9 0 16 1v-41q-12 -2 -29 -2q-44 0 -64 20.5t-20 54.5q0 27 16.5 58.5t43.5 60.5q-28 -6 -79 -6q-104 0 -150.5 25.5t-60.5 86t-14 193.5v391h59v-424q0 -99 9.5 -141.5
t43.5 -60t113 -17.5t112.5 17.5t43 60t9.5 141.5v424h59z" />
    <glyph glyph-name="uogonek" unicode="&#x173;" horiz-adv-x="529" 
d="M450 -153v-41q-11 -2 -29 -2q-44 0 -64 20.5t-20 53.5q0 31 17.5 64.5t46.5 60.5l-4 73h-5q-14 -40 -48.5 -62t-105.5 -22q-68 0 -101.5 19.5t-45 60.5t-11.5 117v321h56v-304q0 -75 9 -108t33.5 -44t79.5 -11q63 0 92 24.5t36 64.5t7 114v264h56v-510q-23 -18 -42.5 -51
t-19.5 -60q0 -43 46 -43q10 0 17 1z" />
    <glyph glyph-name="Wcircumflex" unicode="&#x174;" horiz-adv-x="840" 
d="M577 0l-154 587h-4l-154 -587h-69l-165 688h61l138 -598h6l154 598h64l155 -598h6l137 598h59l-165 -688h-69zM295 750v5l92 133h65l92 -133v-5h-41l-84 101l-83 -101h-41z" />
    <glyph glyph-name="wcircumflex" unicode="&#x175;" horiz-adv-x="711" 
d="M470 0l-112 412h-6l-112 -412h-64l-146 510h58l119 -431h6l114 431h58l116 -431h6l117 431h57l-146 -510h-65zM231 605v5l92 133h65l92 -133v-5h-41l-84 101l-83 -101h-41z" />
    <glyph glyph-name="Ycircumflex" unicode="&#x176;" horiz-adv-x="518" 
d="M229 0v271l-218 417h63l183 -349h7l182 349h62l-220 -417v-271h-59zM135 750v5l92 133h65l92 -133v-5h-41l-84 101l-83 -101h-41z" />
    <glyph glyph-name="ycircumflex" unicode="&#x177;" horiz-adv-x="529" 
d="M95 -196v48q77 -5 141 -5q71 0 104 19t43 59.5t10 120.5v24h-5q-12 -35 -46 -56t-104 -21q-68 0 -101.5 20t-45 62t-11.5 120v315h56v-304q0 -74 9 -107t33.5 -44t79.5 -11q63 0 92 24t36 64t7 114v264h56v-442q0 -106 -15 -162.5t-58 -82.5t-130 -26q-83 0 -151 7z
M140 605v5l92 133h65l92 -133v-5h-41l-84 101l-83 -101h-41z" />
    <glyph glyph-name="Ydieresis" unicode="&#x178;" horiz-adv-x="518" 
d="M229 0v271l-218 417h63l183 -349h7l182 349h62l-220 -417v-271h-59zM143 772v70h58v-70h-58zM322 772v70h58v-70h-58z" />
    <glyph glyph-name="Zacute" unicode="&#x179;" horiz-adv-x="514" 
d="M44 0v50l352 585h-342v53h413v-49l-352 -587h358v-52h-429zM229 748v5l81 135h63v-5l-102 -135h-42z" />
    <glyph glyph-name="zacute" unicode="&#x17a;" horiz-adv-x="437" 
d="M45 0v45l275 416h-265v49h335v-44l-275 -417h277v-49h-347zM192 603v5l81 135h63v-5l-102 -135h-42z" />
    <glyph glyph-name="Zdotaccent" unicode="&#x17b;" horiz-adv-x="514" 
d="M44 0v50l352 585h-342v53h413v-49l-352 -587h358v-52h-429zM228 805v70h58v-70h-58z" />
    <glyph glyph-name="zdotaccent" unicode="&#x17c;" horiz-adv-x="437" 
d="M45 0v45l275 416h-265v49h335v-44l-275 -417h277v-49h-347zM189 660v70h58v-70h-58z" />
    <glyph glyph-name="Zcaron" unicode="&#x17d;" horiz-adv-x="515" 
d="M44 0v50l352 585h-342v53h413v-49l-352 -587h358v-52h-429zM232 750l-92 132v6h41l83 -102l84 102h41v-6l-92 -132h-65z" />
    <glyph glyph-name="zcaron" unicode="&#x17e;" horiz-adv-x="437" 
d="M45 0v45l275 416h-265v49h335v-44l-275 -417h277v-49h-347zM191 605l-92 132v6h41l83 -102l84 102h41v-6l-92 -132h-65z" />
    <glyph glyph-name="longs" unicode="&#x17f;" horiz-adv-x="289" 
d="M116 461h-91v49h91v98q0 60 17 89t52 37.5t102 8.5v-45q-48 0 -72 -6.5t-33.5 -23t-9.5 -50.5v-618h-56v461z" />
    <glyph glyph-name="uni018F" unicode="&#x18f;" horiz-adv-x="610" 
d="M453 671q50 -25 68 -96.5t18 -230.5q0 -165 -13.5 -233.5t-60.5 -93.5t-160 -25t-160 25t-60.5 93.5t-13.5 233.5v30h409q-1 128 -14.5 181.5t-53.5 70.5t-135 17q-33 0 -73 -4t-68 -11v51q30 8 73.5 12.5t82.5 4.5q111 0 161 -25zM423.5 58q32.5 14 44 68.5t12.5 195.5
h-350q1 -141 12.5 -195.5t44 -68.5t118.5 -14t118.5 14z" />
    <glyph glyph-name="florin" unicode="&#x192;" horiz-adv-x="329" 
d="M263.5 686.5q-24.5 -10.5 -40.5 -45t-33 -116.5l-3 -15h115l-11 -49h-115l-96 -451q-20 -94 -45 -136.5t-61 -53.5t-106 -11l10 46q48 0 72.5 6.5t38 25.5t22.5 59l109 515h-91l11 49h91l1 8q23 106 49 153t62 59.5t108 12.5l-10 -46q-53 0 -77.5 -10.5z" />
    <glyph glyph-name="uni019D" unicode="&#x19d;" horiz-adv-x="635" 
d="M543 688v-688h-58l-333 569h-4v-648q0 -54 -13.5 -79t-42 -32t-86.5 -7v46q39 0 57 5t23.5 16t5.5 35v783h60l330 -563h4v563h57z" />
    <glyph glyph-name="Ohorn" unicode="&#x1a0;" horiz-adv-x="623" 
d="M573 785v-30q0 -55 -14.5 -76t-59.5 -24q34 -32 43.5 -99t9.5 -212q0 -165 -14 -233.5t-62 -93.5t-165 -25q-116 0 -164 25t-62 93.5t-14 233.5t14 233.5t62 93.5t164 25q74 0 114 -8h51q34 0 43.5 11.5t9.5 45.5v40h44zM437 60q34 15 45 73t11 211t-11 211t-45 73
t-126 15q-91 0 -125 -15t-45 -73t-11 -211t11 -211t45 -73t125 -15q92 0 126 15z" />
    <glyph glyph-name="ohorn" unicode="&#x1a1;" horiz-adv-x="511" 
d="M498 607v-30q0 -40 -6.5 -60.5t-24 -29.5t-53.5 -11q22 -26 29 -75t7 -147q0 -118 -11.5 -169.5t-51 -72t-132.5 -20.5q-92 0 -132 20.5t-51 72t-11 169.5q0 119 11 170.5t51 72.5t132 21q63 0 96 -8h50q34 0 43.5 11.5t9.5 45.5v40h44zM353 56q28 15 34.5 54.5
t6.5 143.5t-6.5 144t-34.5 55.5t-98 15.5t-97.5 -15.5t-34 -55t-6.5 -144.5q0 -104 6.5 -143.5t34 -54.5t97.5 -15t98 15z" />
    <glyph glyph-name="Uhorn" unicode="&#x1af;" horiz-adv-x="617" 
d="M633 785v-30q0 -42 -7.5 -63t-28 -29.5t-61.5 -8.5h-3v-357q0 -133 -14 -193.5t-60 -86t-150 -25.5t-150.5 25.5t-60.5 86t-14 193.5v391h59v-424q0 -99 9.5 -141.5t43.5 -60t113 -17.5t112.5 17.5t43 60t9.5 141.5v424h62q34 0 43.5 11.5t9.5 45.5v40h44z" />
    <glyph glyph-name="uhorn" unicode="&#x1b0;" horiz-adv-x="529" 
d="M545 607v-30q0 -42 -7.5 -63t-27.5 -29.5t-61 -8.5v-476h-49l-3 76h-5q-14 -40 -48.5 -62t-105.5 -22q-68 0 -101.5 19.5t-45 60.5t-11.5 117v321h56v-304q0 -75 9 -108t33.5 -44t79.5 -11q63 0 92 24.5t36 64.5t7 114v264h55q34 0 43.5 11.5t9.5 45.5v40h44z" />
    <glyph glyph-name="uni01C4" unicode="&#x1c4;" horiz-adv-x="1110" 
d="M92 688h185q120 0 170 -24.5t64 -91t14 -228.5t-14 -228.5t-64 -91t-170 -24.5h-185v688zM266 53q103 0 140 14.5t48.5 69.5t11.5 207q0 150 -12 206t-49 70.5t-139 14.5h-116v-582h116zM640 0v50l352 585h-342v53h413v-49l-352 -587h358v-52h-429zM822 750l-92 132v6h41
l83 -102l84 102h41v-6l-92 -132h-65z" />
    <glyph glyph-name="uni01C5" unicode="&#x1c5;" horiz-adv-x="1033" 
d="M92 688h185q120 0 170 -24.5t64 -91t14 -228.5t-14 -228.5t-64 -91t-170 -24.5h-185v688zM266 53q103 0 140 14.5t48.5 69.5t11.5 207q0 150 -12 206t-49 70.5t-139 14.5h-116v-582h116zM641 0v45l275 416h-265v49h335v-44l-275 -417h277v-49h-347zM793 605l-92 132v6h41
l83 -102l84 102h41v-6l-92 -132h-65z" />
    <glyph glyph-name="uni01C6" unicode="&#x1c6;" horiz-adv-x="961" 
d="M125 14q-36 22 -50 76.5t-14 164.5q0 109 13.5 164t49.5 77t109 22q60 0 96.5 -17.5t52.5 -57.5h5v300h56v-743h-48l-4 76h-5q-16 -50 -55.5 -67t-97.5 -17q-72 0 -108 22zM333.5 59q29.5 16 39.5 50q9 29 11.5 62.5t2.5 93.5q0 43 -2 73t-9 52q-12 41 -42 59t-85 18
q-61 0 -87.5 -14.5t-35.5 -57t-9 -140.5t9.5 -140.5t36.5 -57t90 -14.5q51 0 80.5 16zM569 0v45l275 416h-265v49h335v-44l-275 -417h277v-49h-347zM711 605l-92 132v6h41l83 -102l84 102h41v-6l-92 -132h-65z" />
    <glyph glyph-name="uni01C7" unicode="&#x1c7;" horiz-adv-x="749" 
d="M92 0v688h59v-634h284v-54h-343zM573 63q22 10 27.5 44t5.5 135v446h59v-426q0 -135 -9.5 -184t-42.5 -63t-126 -15v51q64 2 86 12z" />
    <glyph glyph-name="uni01C8" unicode="&#x1c8;" horiz-adv-x="677" 
d="M92 0v688h59v-634h284v-54h-343zM537 668v75h62v-75h-62zM454 -151q39 0 57 5t23.5 16t5.5 35v605h56v-589q0 -54 -14 -79t-42 -32t-86 -7v46z" />
    <glyph glyph-name="uni01C9" unicode="&#x1c9;" horiz-adv-x="436" 
d="M81 0v743h56v-743h-56zM296 668v75h62v-75h-62zM213 -151q39 0 57 5t23.5 16t5.5 35v605h56v-589q0 -54 -14 -79t-42 -32t-86 -7v46z" />
    <glyph glyph-name="uni01CA" unicode="&#x1ca;" horiz-adv-x="925" 
d="M485 0l-333 569h-4v-569h-56v688h60l330 -563h4v563h57v-688h-58zM749 63q22 10 27.5 44t5.5 135v446h59v-426q0 -135 -9.5 -184t-42.5 -63t-126 -15v51q64 2 86 12z" />
    <glyph glyph-name="uni01CB" unicode="&#x1cb;" horiz-adv-x="853" 
d="M485 0l-333 569h-4v-569h-56v688h60l330 -563h4v563h57v-688h-58zM713 668v75h62v-75h-62zM630 -151q39 0 57 5t23.5 16t5.5 35v605h56v-589q0 -54 -14 -79t-42 -32t-86 -7v46z" />
    <glyph glyph-name="uni01CC" unicode="&#x1cc;" horiz-adv-x="747" 
d="M394 304q0 75 -9 108t-33.5 44t-80.5 11q-63 0 -91.5 -24.5t-35.5 -64t-7 -114.5v-264h-56v510h48l4 -76h4q14 40 48.5 62t105.5 22q68 0 102 -19.5t45.5 -60.5t11.5 -117v-321h-56v304zM607 668v75h62v-75h-62zM524 -151q39 0 57 5t23.5 16t5.5 35v605h56v-589
q0 -54 -14 -79t-42 -32t-86 -7v46z" />
    <glyph glyph-name="uni01CD" unicode="&#x1cd;" horiz-adv-x="590" 
d="M500 0l-68 204h-276l-68 -204h-60l231 688h72l231 -688h-62zM297 615h-5l-119 -358h242zM263 750l-92 132v6h41l83 -102l84 102h41v-6l-92 -132h-65z" />
    <glyph glyph-name="uni01CE" unicode="&#x1ce;" horiz-adv-x="501" 
d="M116 4.5q-34 12.5 -50.5 44.5t-16.5 90t12.5 89.5t42.5 45.5t85 14q28 0 176 -5v40q0 69 -10.5 98.5t-39 38.5t-94.5 9q-29 0 -72 -3.5t-69 -8.5v48q65 13 159 13q77 0 115.5 -16.5t52.5 -56.5t14 -119v-326h-48l-4 76h-5q-17 -51 -59 -67.5t-99 -16.5q-56 0 -90 12.5z
M299.5 51q31.5 10 45.5 41q11 25 15.5 51.5t4.5 64.5v35h-162q-42 0 -62 -7.5t-28 -28.5t-8 -65q0 -42 9 -63t33 -29.5t72 -8.5q49 0 80.5 10zM219 605l-92 132v6h41l83 -102l84 102h41v-6l-92 -132h-65z" />
    <glyph glyph-name="uni01CF" unicode="&#x1cf;" horiz-adv-x="245" 
d="M93 0v688h59v-688h-59zM91 750l-92 132v6h41l83 -102l84 102h41v-6l-92 -132h-65z" />
    <glyph glyph-name="uni01D0" unicode="&#x1d0;" horiz-adv-x="218" 
d="M81 0v510h56v-510h-56zM77 605l-92 132v6h41l83 -102l84 102h41v-6l-92 -132h-65z" />
    <glyph glyph-name="uni01D1" unicode="&#x1d1;" horiz-adv-x="623" 
d="M147 17q-48 25 -62 93.5t-14 233.5t14 233.5t62 93.5t164 25q117 0 165 -25t62 -93.5t14 -233.5t-14 -233.5t-62 -93.5t-165 -25q-116 0 -164 25zM437 60q34 15 45 73t11 211t-11 211t-45 73t-126 15q-91 0 -125 -15t-45 -73t-11 -211t11 -211t45 -73t125 -15
q92 0 126 15zM280 750l-92 132v6h41l83 -102l84 102h41v-6l-92 -132h-65z" />
    <glyph glyph-name="uni01D2" unicode="&#x1d2;" horiz-adv-x="511" 
d="M123 12.5q-40 20.5 -51 72t-11 169.5q0 119 11 170.5t51 72.5t132 21q93 0 132.5 -21t51 -72.5t11.5 -170.5q0 -118 -11.5 -169.5t-51 -72t-132.5 -20.5q-92 0 -132 20.5zM353 56q28 15 34.5 54.5t6.5 143.5t-6.5 144t-34.5 55.5t-98 15.5t-97.5 -15.5t-34 -55
t-6.5 -144.5q0 -104 6.5 -143.5t34 -54.5t97.5 -15t98 15zM223 605l-92 132v6h41l83 -102l84 102h41v-6l-92 -132h-65z" />
    <glyph glyph-name="uni01D3" unicode="&#x1d3;" horiz-adv-x="617" 
d="M533 688v-391q0 -133 -14 -193.5t-60 -86t-150 -25.5t-150.5 25.5t-60.5 86t-14 193.5v391h59v-424q0 -99 9.5 -141.5t43.5 -60t113 -17.5t112.5 17.5t43 60t9.5 141.5v424h59zM277 750l-92 132v6h41l83 -102l84 102h41v-6l-92 -132h-65z" />
    <glyph glyph-name="uni01D4" unicode="&#x1d4;" horiz-adv-x="529" 
d="M397 76h-5q-14 -40 -48.5 -62t-105.5 -22q-68 0 -101.5 19.5t-45 60.5t-11.5 117v321h56v-304q0 -75 9 -108t33.5 -44t79.5 -11q63 0 92 24.5t36 64.5t7 114v264h56v-510h-49zM233 605l-92 132v6h41l83 -102l84 102h41v-6l-92 -132h-65z" />
    <glyph glyph-name="uni01D5" unicode="&#x1d5;" horiz-adv-x="617" 
d="M533 688v-391q0 -133 -14 -193.5t-60 -86t-150 -25.5t-150.5 25.5t-60.5 86t-14 193.5v391h59v-424q0 -99 9.5 -141.5t43.5 -60t113 -17.5t112.5 17.5t43 60t9.5 141.5v424h59zM190 805v70h58v-70h-58zM369 805v70h58v-70h-58zM204 961v53h212v-53h-212z" />
    <glyph glyph-name="uni01D6" unicode="&#x1d6;" horiz-adv-x="529" 
d="M397 76h-5q-14 -40 -48.5 -62t-105.5 -22q-68 0 -101.5 19.5t-45 60.5t-11.5 117v321h56v-304q0 -75 9 -108t33.5 -44t79.5 -11q63 0 92 24.5t36 64.5t7 114v264h56v-510h-49zM146 660v70h58v-70h-58zM325 660v70h58v-70h-58zM160 849v53h212v-53h-212z" />
    <glyph glyph-name="uni01D7" unicode="&#x1d7;" horiz-adv-x="617" 
d="M533 688v-391q0 -133 -14 -193.5t-60 -86t-150 -25.5t-150.5 25.5t-60.5 86t-14 193.5v391h59v-424q0 -99 9.5 -141.5t43.5 -60t113 -17.5t112.5 17.5t43 60t9.5 141.5v424h59zM190 805v70h58v-70h-58zM369 805v70h58v-70h-58zM283 875v5l81 135h63v-5l-102 -135h-42z
" />
    <glyph glyph-name="uni01D8" unicode="&#x1d8;" horiz-adv-x="529" 
d="M397 76h-5q-14 -40 -48.5 -62t-105.5 -22q-68 0 -101.5 19.5t-45 60.5t-11.5 117v321h56v-304q0 -75 9 -108t33.5 -44t79.5 -11q63 0 92 24.5t36 64.5t7 114v264h56v-510h-49zM146 660v70h58v-70h-58zM325 660v70h58v-70h-58zM241 763v5l81 135h63v-5l-102 -135h-42z" />
    <glyph glyph-name="uni01D9" unicode="&#x1d9;" horiz-adv-x="617" 
d="M533 688v-391q0 -133 -14 -193.5t-60 -86t-150 -25.5t-150.5 25.5t-60.5 86t-14 193.5v391h59v-424q0 -99 9.5 -141.5t43.5 -60t113 -17.5t112.5 17.5t43 60t9.5 141.5v424h59zM190 805v70h58v-70h-58zM369 805v70h58v-70h-58zM279 877l-92 132v6h41l83 -102l84 102h41
v-6l-92 -132h-65z" />
    <glyph glyph-name="uni01DA" unicode="&#x1da;" horiz-adv-x="529" 
d="M397 76h-5q-14 -40 -48.5 -62t-105.5 -22q-68 0 -101.5 19.5t-45 60.5t-11.5 117v321h56v-304q0 -75 9 -108t33.5 -44t79.5 -11q63 0 92 24.5t36 64.5t7 114v264h56v-510h-49zM146 660v70h58v-70h-58zM325 660v70h58v-70h-58zM235 765l-92 132v6h41l83 -102l84 102h41v-6
l-92 -132h-65z" />
    <glyph glyph-name="uni01DB" unicode="&#x1db;" horiz-adv-x="617" 
d="M533 688v-391q0 -133 -14 -193.5t-60 -86t-150 -25.5t-150.5 25.5t-60.5 86t-14 193.5v391h59v-424q0 -99 9.5 -141.5t43.5 -60t113 -17.5t112.5 17.5t43 60t9.5 141.5v424h59zM190 805v70h58v-70h-58zM369 805v70h58v-70h-58zM298 875l-102 135v5h64l80 -135v-5h-42z
" />
    <glyph glyph-name="uni01DC" unicode="&#x1dc;" horiz-adv-x="529" 
d="M397 76h-5q-14 -40 -48.5 -62t-105.5 -22q-68 0 -101.5 19.5t-45 60.5t-11.5 117v321h56v-304q0 -75 9 -108t33.5 -44t79.5 -11q63 0 92 24.5t36 64.5t7 114v264h56v-510h-49zM146 660v70h58v-70h-58zM325 660v70h58v-70h-58zM253 763l-102 135v5h64l80 -135v-5h-42z" />
    <glyph glyph-name="Gcaron" unicode="&#x1e6;" horiz-adv-x="584" 
d="M303 307v52h203v-349q-40 -8 -93 -13t-94 -5q-108 0 -158.5 25.5t-70 98t-19.5 228.5q0 155 19.5 227.5t70.5 98.5t159 26q45 0 97.5 -5.5t86.5 -13.5v-49q-36 6 -80.5 10.5t-72.5 4.5q-104 0 -145.5 -15t-58.5 -75.5t-17 -208.5q0 -138 12.5 -197.5t50.5 -81t126 -21.5
q28 0 66 3t64 7v253h-146zM260 750l-92 132v6h41l83 -102l84 102h41v-6l-92 -132h-65z" />
    <glyph glyph-name="gcaron" unicode="&#x1e7;" horiz-adv-x="524" 
d="M80 -195v48q72 -6 150 -6q71 0 103.5 17t43 59t10.5 131v15h-5q-15 -41 -51.5 -58t-97.5 -17q-73 0 -109 21.5t-49.5 76t-13.5 163.5t14 164t50 77t108 22q58 0 97.5 -17t55.5 -67h5l3 76h49v-438q0 -110 -14 -166.5t-57 -82.5t-132 -26q-96 0 -160 8zM333.5 60.5
q29.5 16.5 40.5 53.5q8 26 10.5 58.5t2.5 82.5q0 51 -2 81.5t-9 53.5q-12 42 -41.5 59.5t-82.5 17.5q-62 0 -89 -14t-36.5 -57t-9.5 -141t9.5 -140t36.5 -56.5t89 -14.5q52 0 81.5 16.5zM230 605l-92 132v6h41l83 -102l84 102h41v-6l-92 -132h-65z" />
    <glyph glyph-name="uni01EA" unicode="&#x1ea;" horiz-adv-x="623" 
d="M366 -176q-20 20 -20 52q0 29 16 61t45 61q-31 -6 -96 -6q-116 0 -164 25t-62 93.5t-14 233.5t14 233.5t62 93.5t164 25q117 0 165 -25t62 -93.5t14 -233.5q0 -110 -4.5 -170t-19.5 -98t-47 -57q-35 -21 -60 -58.5t-25 -72.5q0 -42 46 -42q9 0 17 1v-41q-13 -2 -30 -2
q-43 0 -63 20zM437 60q34 15 45 73t11 211t-11 211t-45 73t-126 15q-91 0 -125 -15t-45 -73t-11 -211t11 -211t45 -73t125 -15q92 0 126 15z" />
    <glyph glyph-name="uni01EB" unicode="&#x1eb;" horiz-adv-x="511" 
d="M387.5 497q39.5 -21 51 -72.5t11.5 -170.5q0 -109 -9 -159.5t-41 -73.5q-27 -20 -49.5 -59.5t-22.5 -72.5q0 -43 45 -43q10 0 17 1v-41q-18 -2 -29 -2q-44 0 -63.5 20t-19.5 54q0 28 13.5 59t36.5 59q-27 -4 -73 -4q-92 0 -132 20.5t-51 72t-11 169.5q0 119 11 170.5
t51 72.5t132 21q93 0 132.5 -21zM353 56q28 15 34.5 54.5t6.5 143.5t-6.5 144t-34.5 55.5t-98 15.5t-97.5 -15.5t-34 -55t-6.5 -144.5q0 -104 6.5 -143.5t34 -54.5t97.5 -15t98 15z" />
    <glyph glyph-name="uni01F1" unicode="&#x1f1;" horiz-adv-x="1110" 
d="M92 688h185q120 0 170 -24.5t64 -91t14 -228.5t-14 -228.5t-64 -91t-170 -24.5h-185v688zM266 53q103 0 140 14.5t48.5 69.5t11.5 207q0 150 -12 206t-49 70.5t-139 14.5h-116v-582h116zM640 0v50l352 585h-342v53h413v-49l-352 -587h358v-52h-429z" />
    <glyph glyph-name="uni01F2" unicode="&#x1f2;" horiz-adv-x="1033" 
d="M92 688h185q120 0 170 -24.5t64 -91t14 -228.5t-14 -228.5t-64 -91t-170 -24.5h-185v688zM266 53q103 0 140 14.5t48.5 69.5t11.5 207q0 150 -12 206t-49 70.5t-139 14.5h-116v-582h116zM641 0v45l275 416h-265v49h335v-44l-275 -417h277v-49h-347z" />
    <glyph glyph-name="uni01F3" unicode="&#x1f3;" horiz-adv-x="961" 
d="M125 14q-36 22 -50 76.5t-14 164.5q0 109 13.5 164t49.5 77t109 22q60 0 96.5 -17.5t52.5 -57.5h5v300h56v-743h-48l-4 76h-5q-16 -50 -55.5 -67t-97.5 -17q-72 0 -108 22zM333.5 59q29.5 16 39.5 50q9 29 11.5 62.5t2.5 93.5q0 43 -2 73t-9 52q-12 41 -42 59t-85 18
q-61 0 -87.5 -14.5t-35.5 -57t-9 -140.5t9.5 -140.5t36.5 -57t90 -14.5q51 0 80.5 16zM569 0v45l275 416h-265v49h335v-44l-275 -417h277v-49h-347z" />
    <glyph glyph-name="uni01F4" unicode="&#x1f4;" horiz-adv-x="584" 
d="M303 307v52h203v-349q-40 -8 -93 -13t-94 -5q-108 0 -158.5 25.5t-70 98t-19.5 228.5q0 155 19.5 227.5t70.5 98.5t159 26q45 0 97.5 -5.5t86.5 -13.5v-49q-36 6 -80.5 10.5t-72.5 4.5q-104 0 -145.5 -15t-58.5 -75.5t-17 -208.5q0 -138 12.5 -197.5t50.5 -81t126 -21.5
q28 0 66 3t64 7v253h-146zM264 748v5l81 135h63v-5l-102 -135h-42z" />
    <glyph glyph-name="uni01F5" unicode="&#x1f5;" horiz-adv-x="524" 
d="M80 -195v48q72 -6 150 -6q71 0 103.5 17t43 59t10.5 131v15h-5q-15 -41 -51.5 -58t-97.5 -17q-73 0 -109 21.5t-49.5 76t-13.5 163.5t14 164t50 77t108 22q58 0 97.5 -17t55.5 -67h5l3 76h49v-438q0 -110 -14 -166.5t-57 -82.5t-132 -26q-96 0 -160 8zM333.5 60.5
q29.5 16.5 40.5 53.5q8 26 10.5 58.5t2.5 82.5q0 51 -2 81.5t-9 53.5q-12 42 -41.5 59.5t-82.5 17.5q-62 0 -89 -14t-36.5 -57t-9.5 -141t9.5 -140t36.5 -56.5t89 -14.5q52 0 81.5 16.5zM236 603v5l81 135h63v-5l-102 -135h-42z" />
    <glyph glyph-name="Aringacute" unicode="&#x1fa;" horiz-adv-x="590" 
d="M562 0h-62l-68 204h-276l-68 -204h-60l225 673q-30 4 -44.5 14.5t-18.5 28t-4 50.5q0 40 6.5 59t29 28.5t72.5 9.5q51 0 74 -9.5t29.5 -28.5t6.5 -59q0 -33 -4 -50.5t-18.5 -28t-44.5 -14.5zM232 727.5q3 -11.5 16.5 -16.5t45.5 -5t46 5t17.5 16.5t3.5 38.5t-3.5 38.5
t-17.5 17t-46 5.5t-45.5 -5.5t-16.5 -17t-3 -38.5t3 -38.5zM173 257h242l-118 358h-5zM266 923v5l81 135h63v-5l-102 -135h-42z" />
    <glyph glyph-name="aringacute" unicode="&#x1fb;" horiz-adv-x="501" 
d="M116 4.5q-34 12.5 -50.5 44.5t-16.5 90t12.5 89.5t42.5 45.5t85 14q28 0 176 -5v40q0 69 -10.5 98.5t-39 38.5t-94.5 9q-29 0 -72 -3.5t-69 -8.5v48q65 13 159 13q77 0 115.5 -16.5t52.5 -56.5t14 -119v-326h-48l-4 76h-5q-17 -51 -59 -67.5t-99 -16.5q-56 0 -90 12.5z
M299.5 51q31.5 10 45.5 41q11 25 15.5 51.5t4.5 64.5v35h-162q-42 0 -62 -7.5t-28 -28.5t-8 -65q0 -42 9 -63t33 -29.5t72 -8.5q49 0 80.5 10zM176.5 620q-22.5 9 -29 28t-6.5 59t6.5 59t29 28t73.5 9t74 -9t29.5 -28.5t6.5 -58.5t-6.5 -58.5t-29.5 -28.5t-74 -9t-73.5 9z
M296 652q14 5 17.5 16.5t3.5 38.5t-3.5 38.5t-17.5 17t-46 5.5t-45.5 -5.5t-17 -17t-3.5 -38.5t3.5 -38.5t17 -16.5t45.5 -5t46 5zM227 836v5l81 135h63v-5l-102 -135h-42z" />
    <glyph glyph-name="AEacute" unicode="&#x1fc;" horiz-adv-x="816" 
d="M469 0l-49 204h-276l-87 -204h-60l298 688h473v-53h-390l64 -261h286v-53h-275l65 -268h250v-53h-299zM325 614h-5l-154 -357h243zM378 748v5l81 135h63v-5l-102 -135h-42z" />
    <glyph glyph-name="aeacute" unicode="&#x1fd;" horiz-adv-x="800" 
d="M740 239h-319q0 -88 9.5 -127.5t41 -55t102.5 -15.5q34 0 75.5 3.5t72.5 9.5v-48q-26 -6 -71 -10t-87 -4q-80 0 -119.5 19t-56.5 67q-23 -52 -67.5 -69t-108.5 -17q-59 0 -94 12.5t-52 44.5t-17 90q0 57 12.5 88t42.5 44.5t85 13.5l176 -1v39q0 69 -10.5 98.5t-39 38.5
t-95.5 9q-29 0 -71.5 -3.5t-68.5 -8.5v48q74 13 159 13q68 0 104.5 -13.5t52.5 -48.5q20 33 58.5 47.5t108.5 14.5q83 0 120 -23.5t47 -74.5t10 -162v-19zM467 456q-28 -13 -37 -50t-9 -122h264v12q0 78 -10.5 114t-36 47.5t-78.5 11.5q-65 0 -93 -13zM365 239h-162
q-42 0 -62 -7t-28.5 -27t-8.5 -63t9.5 -64t33 -29t72.5 -8q51 0 82.5 10.5t45.5 45.5q18 44 18 110v32zM374 603v5l81 135h63v-5l-102 -135h-42z" />
    <glyph glyph-name="Oslashacute" unicode="&#x1fe;" horiz-adv-x="622" 
d="M543 552.5q9 -66.5 9 -208.5q0 -165 -14 -233.5t-62 -93.5t-165 -25q-105 0 -152 19l-35 -66h-53l49 92q-31 33 -40 99.5t-9 207.5q0 165 14 233.5t62 93.5t164 25q54 0 90 -4t61 -15l35 66h54l-49 -92q32 -32 41 -98.5zM134 179.5q4 -55.5 17 -83.5l285 533
q-19 9 -46.5 11.5t-78.5 2.5q-91 0 -125 -15t-45 -73t-11 -211q0 -109 4 -164.5zM437 60q34 15 45 73t11 211q0 110 -4.5 165.5t-17.5 83.5l-286 -534q19 -9 47 -11.5t79 -2.5q92 0 126 15zM283 748v5l81 135h63v-5l-102 -135h-42z" />
    <glyph glyph-name="oslashacute" unicode="&#x1ff;" horiz-adv-x="511" 
d="M442 410q8 -50 8 -156q0 -118 -11.5 -169.5t-51 -72t-132.5 -20.5q-74 0 -110 12l-32 -59h-52l44 81q-28 24 -36 73.5t-8 154.5q0 119 11 170.5t51 72.5t132 21q74 0 110 -12l32 59h53l-44 -81q28 -24 36 -74zM119.5 136.5q2.5 -36.5 14.5 -57.5l206 381q-26 9 -85 9
q-70 0 -97.5 -15.5t-34 -55t-6.5 -144.5q0 -81 2.5 -117.5zM353 56q28 15 34.5 54.5t6.5 143.5q0 82 -2.5 118.5t-14.5 57.5l-207 -380q26 -9 85 -9q70 0 98 15zM229 603v5l81 135h63v-5l-102 -135h-42z" />
    <glyph glyph-name="uni0200" unicode="&#x200;" horiz-adv-x="590" 
d="M500 0l-68 204h-276l-68 -204h-60l231 688h72l231 -688h-62zM297 615h-5l-119 -358h242zM241 752h-38l-98 126v5h58l78 -126v-5zM405 752h-39l-98 126v5h59l78 -126v-5z" />
    <glyph glyph-name="uni0201" unicode="&#x201;" horiz-adv-x="501" 
d="M116 4.5q-34 12.5 -50.5 44.5t-16.5 90t12.5 89.5t42.5 45.5t85 14q28 0 176 -5v40q0 69 -10.5 98.5t-39 38.5t-94.5 9q-29 0 -72 -3.5t-69 -8.5v48q65 13 159 13q77 0 115.5 -16.5t52.5 -56.5t14 -119v-326h-48l-4 76h-5q-17 -51 -59 -67.5t-99 -16.5q-56 0 -90 12.5z
M299.5 51q31.5 10 45.5 41q11 25 15.5 51.5t4.5 64.5v35h-162q-42 0 -62 -7.5t-28 -28.5t-8 -65q0 -42 9 -63t33 -29.5t72 -8.5q49 0 80.5 10zM197 607h-38l-98 126v5h58l78 -126v-5zM361 607h-39l-98 126v5h59l78 -126v-5z" />
    <glyph glyph-name="uni0202" unicode="&#x202;" horiz-adv-x="590" 
d="M500 0l-68 204h-276l-68 -204h-60l231 688h72l231 -688h-62zM297 615h-5l-119 -358h242zM179.5 831.5q6.5 28.5 33 45.5t82.5 17t82 -17t32.5 -45t6.5 -79h-42q0 41 -4 61t-21 31t-54 11t-54.5 -11t-21.5 -31.5t-4 -60.5h-42q0 50 6.5 78.5z" />
    <glyph glyph-name="uni0203" unicode="&#x203;" horiz-adv-x="501" 
d="M116 4.5q-34 12.5 -50.5 44.5t-16.5 90t12.5 89.5t42.5 45.5t85 14q28 0 176 -5v40q0 69 -10.5 98.5t-39 38.5t-94.5 9q-29 0 -72 -3.5t-69 -8.5v48q65 13 159 13q77 0 115.5 -16.5t52.5 -56.5t14 -119v-326h-48l-4 76h-5q-17 -51 -59 -67.5t-99 -16.5q-56 0 -90 12.5z
M299.5 51q31.5 10 45.5 41q11 25 15.5 51.5t4.5 64.5v35h-162q-42 0 -62 -7.5t-28 -28.5t-8 -65q0 -42 9 -63t33 -29.5t72 -8.5q49 0 80.5 10zM135.5 686.5q6.5 28.5 33 45.5t82.5 17t82 -17t32.5 -45t6.5 -79h-42q0 41 -4 61t-21 31t-54 11t-54.5 -11t-21.5 -31.5t-4 -60.5
h-42q0 50 6.5 78.5z" />
    <glyph glyph-name="uni0204" unicode="&#x204;" horiz-adv-x="517" 
d="M92 0v688h377v-53h-318v-261h278v-52h-278v-269h318v-53h-377zM226 752h-38l-98 126v5h58l78 -126v-5zM390 752h-39l-98 126v5h59l78 -126v-5z" />
    <glyph glyph-name="uni0205" unicode="&#x205;" horiz-adv-x="496" 
d="M435 236h-318q0 -87 9.5 -125.5t40.5 -54t102 -15.5q34 0 75.5 3.5t73.5 9.5v-48q-26 -6 -71 -10t-88 -4q-89 0 -130 22.5t-54.5 75.5t-13.5 164t11 163t52 76.5t134 24.5q83 0 120 -23.5t47 -75t10 -163.5v-20zM163 455.5q-28 -13.5 -37 -51t-9 -123.5h263v15
q0 79 -10.5 114.5t-35.5 47t-78 11.5q-65 0 -93 -13.5zM194 607h-38l-98 126v5h58l78 -126v-5zM358 607h-39l-98 126v5h59l78 -126v-5z" />
    <glyph glyph-name="uni0206" unicode="&#x206;" horiz-adv-x="517" 
d="M92 0v688h377v-53h-318v-261h278v-52h-278v-269h318v-53h-377zM164.5 831.5q6.5 28.5 33 45.5t82.5 17t82 -17t32.5 -45t6.5 -79h-42q0 41 -4 61t-21 31t-54 11t-54.5 -11t-21.5 -31.5t-4 -60.5h-42q0 50 6.5 78.5z" />
    <glyph glyph-name="uni0207" unicode="&#x207;" horiz-adv-x="496" 
d="M435 236h-318q0 -87 9.5 -125.5t40.5 -54t102 -15.5q34 0 75.5 3.5t73.5 9.5v-48q-26 -6 -71 -10t-88 -4q-89 0 -130 22.5t-54.5 75.5t-13.5 164t11 163t52 76.5t134 24.5q83 0 120 -23.5t47 -75t10 -163.5v-20zM163 455.5q-28 -13.5 -37 -51t-9 -123.5h263v15
q0 79 -10.5 114.5t-35.5 47t-78 11.5q-65 0 -93 -13.5zM132.5 686.5q6.5 28.5 33 45.5t82.5 17t82 -17t32.5 -45t6.5 -79h-42q0 41 -4 61t-21 31t-54 11t-54.5 -11t-21.5 -31.5t-4 -60.5h-42q0 50 6.5 78.5z" />
    <glyph glyph-name="uni0208" unicode="&#x208;" horiz-adv-x="245" 
d="M93 0v688h59v-688h-59zM69 752h-38l-98 126v5h58l78 -126v-5zM233 752h-39l-98 126v5h59l78 -126v-5z" />
    <glyph glyph-name="uni0209" unicode="&#x209;" horiz-adv-x="218" 
d="M81 0v510h56v-510h-56zM55 607h-38l-98 126v5h58l78 -126v-5zM219 607h-39l-98 126v5h59l78 -126v-5z" />
    <glyph glyph-name="uni020A" unicode="&#x20a;" horiz-adv-x="245" 
d="M93 0v688h59v-688h-59zM7.5 831.5q6.5 28.5 33 45.5t82.5 17t82 -17t32.5 -45t6.5 -79h-42q0 41 -4 61t-21 31t-54 11t-54.5 -11t-21.5 -31.5t-4 -60.5h-42q0 50 6.5 78.5z" />
    <glyph glyph-name="uni020B" unicode="&#x20b;" horiz-adv-x="218" 
d="M81 0v510h56v-510h-56zM-6.5 686.5q6.5 28.5 33 45.5t82.5 17t82 -17t32.5 -45t6.5 -79h-42q0 41 -4 61t-21 31t-54 11t-54.5 -11t-21.5 -31.5t-4 -60.5h-42q0 50 6.5 78.5z" />
    <glyph glyph-name="uni020C" unicode="&#x20c;" horiz-adv-x="623" 
d="M147 17q-48 25 -62 93.5t-14 233.5t14 233.5t62 93.5t164 25q117 0 165 -25t62 -93.5t14 -233.5t-14 -233.5t-62 -93.5t-165 -25q-116 0 -164 25zM437 60q34 15 45 73t11 211t-11 211t-45 73t-126 15q-91 0 -125 -15t-45 -73t-11 -211t11 -211t45 -73t125 -15
q92 0 126 15zM258 752h-38l-98 126v5h58l78 -126v-5zM422 752h-39l-98 126v5h59l78 -126v-5z" />
    <glyph glyph-name="uni020D" unicode="&#x20d;" horiz-adv-x="511" 
d="M123 12.5q-40 20.5 -51 72t-11 169.5q0 119 11 170.5t51 72.5t132 21q93 0 132.5 -21t51 -72.5t11.5 -170.5q0 -118 -11.5 -169.5t-51 -72t-132.5 -20.5q-92 0 -132 20.5zM353 56q28 15 34.5 54.5t6.5 143.5t-6.5 144t-34.5 55.5t-98 15.5t-97.5 -15.5t-34 -55
t-6.5 -144.5q0 -104 6.5 -143.5t34 -54.5t97.5 -15t98 15zM201 607h-38l-98 126v5h58l78 -126v-5zM365 607h-39l-98 126v5h59l78 -126v-5z" />
    <glyph glyph-name="uni020E" unicode="&#x20e;" horiz-adv-x="623" 
d="M147 17q-48 25 -62 93.5t-14 233.5t14 233.5t62 93.5t164 25q117 0 165 -25t62 -93.5t14 -233.5t-14 -233.5t-62 -93.5t-165 -25q-116 0 -164 25zM437 60q34 15 45 73t11 211t-11 211t-45 73t-126 15q-91 0 -125 -15t-45 -73t-11 -211t11 -211t45 -73t125 -15
q92 0 126 15zM196.5 831.5q6.5 28.5 33 45.5t82.5 17t82 -17t32.5 -45t6.5 -79h-42q0 41 -4 61t-21 31t-54 11t-54.5 -11t-21.5 -31.5t-4 -60.5h-42q0 50 6.5 78.5z" />
    <glyph glyph-name="uni020F" unicode="&#x20f;" horiz-adv-x="511" 
d="M123 12.5q-40 20.5 -51 72t-11 169.5q0 119 11 170.5t51 72.5t132 21q93 0 132.5 -21t51 -72.5t11.5 -170.5q0 -118 -11.5 -169.5t-51 -72t-132.5 -20.5q-92 0 -132 20.5zM353 56q28 15 34.5 54.5t6.5 143.5t-6.5 144t-34.5 55.5t-98 15.5t-97.5 -15.5t-34 -55
t-6.5 -144.5q0 -104 6.5 -143.5t34 -54.5t97.5 -15t98 15zM139.5 686.5q6.5 28.5 33 45.5t82.5 17t82 -17t32.5 -45t6.5 -79h-42q0 41 -4 61t-21 31t-54 11t-54.5 -11t-21.5 -31.5t-4 -60.5h-42q0 50 6.5 78.5z" />
    <glyph glyph-name="uni0210" unicode="&#x210;" horiz-adv-x="590" 
d="M468 0l-101 285q-10 -1 -26 -1h-191v-284h-58v688h259q75 0 112.5 -26.5t48 -68t10.5 -107.5q0 -76 -18.5 -124.5t-79.5 -66.5l107 -295h-63zM418.5 353q28.5 17 36.5 48t8 85q0 55 -7.5 85t-34 47t-82.5 17h-189v-299h182q58 0 86.5 17zM242 752h-38l-98 126v5h58
l78 -126v-5zM406 752h-39l-98 126v5h59l78 -126v-5z" />
    <glyph glyph-name="uni0211" unicode="&#x211;" horiz-adv-x="315" 
d="M81 510h48l4 -101h4q15 62 53.5 85.5t100.5 23.5v-57q-61 0 -94.5 -23.5t-46.5 -69t-13 -119.5v-249h-56v510zM104 607h-38l-98 126v5h58l78 -126v-5zM268 607h-39l-98 126v5h59l78 -126v-5z" />
    <glyph glyph-name="uni0212" unicode="&#x212;" horiz-adv-x="590" 
d="M468 0l-101 285q-10 -1 -26 -1h-191v-284h-58v688h259q75 0 112.5 -26.5t48 -68t10.5 -107.5q0 -76 -18.5 -124.5t-79.5 -66.5l107 -295h-63zM418.5 353q28.5 17 36.5 48t8 85q0 55 -7.5 85t-34 47t-82.5 17h-189v-299h182q58 0 86.5 17zM180.5 831.5q6.5 28.5 33 45.5
t82.5 17t82 -17t32.5 -45t6.5 -79h-42q0 41 -4 61t-21 31t-54 11t-54.5 -11t-21.5 -31.5t-4 -60.5h-42q0 50 6.5 78.5z" />
    <glyph glyph-name="uni0213" unicode="&#x213;" horiz-adv-x="315" 
d="M81 510h48l4 -101h4q15 62 53.5 85.5t100.5 23.5v-57q-61 0 -94.5 -23.5t-46.5 -69t-13 -119.5v-249h-56v510zM42.5 686.5q6.5 28.5 33 45.5t82.5 17t82 -17t32.5 -45t6.5 -79h-42q0 41 -4 61t-21 31t-54 11t-54.5 -11t-21.5 -31.5t-4 -60.5h-42q0 50 6.5 78.5z" />
    <glyph glyph-name="uni0214" unicode="&#x214;" horiz-adv-x="617" 
d="M533 688v-391q0 -133 -14 -193.5t-60 -86t-150 -25.5t-150.5 25.5t-60.5 86t-14 193.5v391h59v-424q0 -99 9.5 -141.5t43.5 -60t113 -17.5t112.5 17.5t43 60t9.5 141.5v424h59zM255 752h-38l-98 126v5h58l78 -126v-5zM419 752h-39l-98 126v5h59l78 -126v-5z" />
    <glyph glyph-name="uni0215" unicode="&#x215;" horiz-adv-x="529" 
d="M397 76h-5q-14 -40 -48.5 -62t-105.5 -22q-68 0 -101.5 19.5t-45 60.5t-11.5 117v321h56v-304q0 -75 9 -108t33.5 -44t79.5 -11q63 0 92 24.5t36 64.5t7 114v264h56v-510h-49zM211 607h-38l-98 126v5h58l78 -126v-5zM375 607h-39l-98 126v5h59l78 -126v-5z" />
    <glyph glyph-name="uni0216" unicode="&#x216;" horiz-adv-x="617" 
d="M533 688v-391q0 -133 -14 -193.5t-60 -86t-150 -25.5t-150.5 25.5t-60.5 86t-14 193.5v391h59v-424q0 -99 9.5 -141.5t43.5 -60t113 -17.5t112.5 17.5t43 60t9.5 141.5v424h59zM193.5 831.5q6.5 28.5 33 45.5t82.5 17t82 -17t32.5 -45t6.5 -79h-42q0 41 -4 61t-21 31
t-54 11t-54.5 -11t-21.5 -31.5t-4 -60.5h-42q0 50 6.5 78.5z" />
    <glyph glyph-name="uni0217" unicode="&#x217;" horiz-adv-x="529" 
d="M397 76h-5q-14 -40 -48.5 -62t-105.5 -22q-68 0 -101.5 19.5t-45 60.5t-11.5 117v321h56v-304q0 -75 9 -108t33.5 -44t79.5 -11q63 0 92 24.5t36 64.5t7 114v264h56v-510h-49zM149.5 686.5q6.5 28.5 33 45.5t82.5 17t82 -17t32.5 -45t6.5 -79h-42q0 41 -4 61t-21 31
t-54 11t-54.5 -11t-21.5 -31.5t-4 -60.5h-42q0 50 6.5 78.5z" />
    <glyph glyph-name="Scommaaccent" unicode="&#x218;" horiz-adv-x="540" 
d="M174 -4.5q-56 3.5 -97 9.5v52q42 -5 95 -8.5t90 -3.5q48 0 76.5 5t50.5 19q20 14 26.5 42.5t6.5 74.5q0 60 -5 83.5t-24.5 33.5t-69.5 16l-149 19q-52 6 -77 27t-31.5 54t-6.5 90q0 73 22.5 114t68.5 57t122 16q49 0 98.5 -4t79.5 -10v-51q-81 12 -167 12q-53 0 -85 -6.5
t-50 -22.5q-18 -15 -24 -39.5t-6 -65.5q0 -48 5.5 -70t21.5 -32t52 -14l143 -18q59 -8 88 -21.5t42 -51.5q6 -17 8 -41.5t2 -67.5q0 -83 -21.5 -126.5t-64 -59t-115.5 -15.5q-49 0 -105 3.5zM267 -204.5q9 11.5 9 47.5v17h-28v78h67v-77q0 -44 -7 -66t-25.5 -31t-57.5 -9v29
q33 0 42 11.5z" />
    <glyph glyph-name="scommaaccent" unicode="&#x219;" horiz-adv-x="440" 
d="M140 -4.5q-44 3.5 -75 8.5v48q85 -11 160 -11q46 0 69.5 10t31 29.5t7.5 55.5q0 41 -5 58.5t-17.5 23.5t-40.5 9l-122 14q-57 7 -77 35t-20 95q0 62 20.5 94t57.5 42.5t98 10.5q32 0 71 -4t66 -9v-48q-66 12 -144 12q-40 0 -63.5 -6t-37 -26.5t-13.5 -60.5
q0 -36 5.5 -52.5t18 -23t39.5 -9.5l120 -14q40 -4 60.5 -15.5t30 -40t9.5 -83.5q0 -58 -17.5 -89.5t-53.5 -44t-97 -12.5q-37 0 -81 3.5zM217 -204.5q9 11.5 9 47.5v17h-28v78h67v-77q0 -44 -7 -66t-25.5 -31t-57.5 -9v29q33 0 42 11.5z" />
    <glyph glyph-name="uni021A" unicode="&#x21a;" horiz-adv-x="499" 
d="M220 0v634h-192v54h443v-54h-192v-634h-59zM246 -204.5q9 11.5 9 47.5v17h-28v78h67v-77q0 -44 -7 -66t-25.5 -31t-57.5 -9v29q33 0 42 11.5z" />
    <glyph glyph-name="uni021B" unicode="&#x21b;" horiz-adv-x="304" 
d="M116 0v461h-91v49h91v148h56v-148h107v-49h-107v-461h-56zM141 -204.5q9 11.5 9 47.5v17h-28v78h67v-77q0 -44 -7 -66t-25.5 -31t-57.5 -9v29q33 0 42 11.5z" />
    <glyph glyph-name="uni0232" unicode="&#x232;" horiz-adv-x="518" 
d="M229 0v271l-218 417h63l183 -349h7l182 349h62l-220 -417v-271h-59zM153 834v53h212v-53h-212z" />
    <glyph glyph-name="uni0233" unicode="&#x233;" horiz-adv-x="529" 
d="M95 -196v48q77 -5 141 -5q71 0 104 19t43 59.5t10 120.5v24h-5q-12 -35 -46 -56t-104 -21q-68 0 -101.5 20t-45 62t-11.5 120v315h56v-304q0 -74 9 -107t33.5 -44t79.5 -11q63 0 92 24t36 64t7 114v264h56v-442q0 -106 -15 -162.5t-58 -82.5t-130 -26q-83 0 -151 7z
M158 689v53h212v-53h-212z" />
    <glyph glyph-name="uni0237" unicode="&#x237;" horiz-adv-x="218" 
d="M-5 -151q39 0 57 5t23.5 16t5.5 35v605h56v-589q0 -54 -14 -79t-42 -32t-86 -7v46z" />
    <glyph glyph-name="uni0259" unicode="&#x259;" horiz-adv-x="496" 
d="M367 495.5q41 -22.5 54.5 -75.5t13.5 -164t-11 -163t-52 -76.5t-134 -24.5q-83 0 -120 23.5t-47 75t-10 163.5v20h318q0 87 -9.5 125.5t-40.5 54t-102 15.5q-34 0 -75.5 -3.5t-73.5 -9.5v48q26 6 71 10t88 4q89 0 130 -22.5zM333 54.5q28 13.5 37 51t9 123.5h-263v-15
q0 -79 10.5 -114.5t35.5 -47t78 -11.5q65 0 93 13.5z" />
    <glyph glyph-name="uni0272" unicode="&#x272;" horiz-adv-x="529" 
d="M-5 -151q39 0 57 5t23.5 16t5.5 35v605h48l4 -76h4q14 40 48.5 62t105.5 22q68 0 102 -19.5t45.5 -60.5t11.5 -117v-321h-56v304q0 75 -9 108t-33.5 44t-80.5 11q-63 0 -91.5 -24t-35.5 -64t-7 -114v-344q0 -54 -14 -79t-42 -32t-86 -7v46z" />
    <glyph glyph-name="uni02BC" unicode="&#x2bc;" horiz-adv-x="109" 
d="M48 603q9 12 9 51v17h-28v72h67v-71q0 -46 -7 -69t-25.5 -32t-57.5 -9v29q33 0 42 12z" />
    <glyph glyph-name="circumflex" unicode="&#x2c6;" horiz-adv-x="275" 
d="M13 605v5l92 133h65l92 -133v-5h-41l-84 101l-83 -101h-41z" />
    <glyph glyph-name="caron" unicode="&#x2c7;" horiz-adv-x="275" 
d="M105 605l-92 132v6h41l83 -102l84 102h41v-6l-92 -132h-65z" />
    <glyph glyph-name="uni02C9" unicode="&#x2c9;" horiz-adv-x="333" 
d="M60 689v53h212v-53h-212z" />
    <glyph glyph-name="breve" unicode="&#x2d8;" horiz-adv-x="269" 
d="M249.5 664.5q-6.5 -28.5 -33 -45.5t-82.5 -17t-82 17t-32.5 45t-6.5 79h42q0 -41 4 -61t21 -31t54 -11t54.5 11t21.5 31.5t4 60.5h42q0 -50 -6.5 -78.5z" />
    <glyph glyph-name="dotaccent" unicode="&#x2d9;" horiz-adv-x="96" 
d="M19 660v70h58v-70h-58z" />
    <glyph glyph-name="ring" unicode="&#x2da;" horiz-adv-x="255" 
d="M53.5 620q-22.5 9 -29 28t-6.5 59t6.5 59t29 28t73.5 9t74 -9t29.5 -28.5t6.5 -58.5t-6.5 -58.5t-29.5 -28.5t-74 -9t-73.5 9zM173 652q14 5 17.5 16.5t3.5 38.5t-3.5 38.5t-17.5 17t-46 5.5t-45.5 -5.5t-17 -17t-3.5 -38.5t3.5 -38.5t17 -16.5t45.5 -5t46 5z" />
    <glyph glyph-name="ogonek" unicode="&#x2db;" horiz-adv-x="113" 
d="M83 -196q-44 0 -63.5 20.5t-19.5 54.5q0 29 17 63t44 62h51q-22 -19 -42 -53.5t-20 -61.5q0 -43 46 -43q9 0 17 1v-41q-11 -2 -30 -2z" />
    <glyph glyph-name="tilde" unicode="&#x2dc;" horiz-adv-x="341" 
d="M315 662q-12 -22 -51 -22q-23 0 -46.5 6.5t-56.5 18.5q-28 10 -46.5 15.5t-35.5 5.5q-18 0 -23.5 -12t-5.5 -45h-37q0 59 12 81t51 22q23 0 45.5 -6.5t58.5 -19.5q28 -10 46 -15t35 -5q19 0 24 11.5t5 45.5h37q0 -59 -12 -81z" />
    <glyph glyph-name="hungarumlaut" unicode="&#x2dd;" horiz-adv-x="339" 
d="M19 607v5l78 126h59v-5l-98 -126h-39zM183 607v5l78 126h58v-5l-98 -126h-38z" />
    <glyph glyph-name="gravecomb" unicode="&#x300;" 
d="M-56 603l-102 135v5h64l80 -135v-5h-42z" />
    <glyph glyph-name="acutecomb" unicode="&#x301;" 
d="M-158 603v5l81 135h63v-5l-102 -135h-42z" />
    <glyph glyph-name="uni0302" unicode="&#x302;" 
d="M-262 605v5l92 133h65l92 -133v-5h-41l-84 101l-83 -101h-41z" />
    <glyph glyph-name="tildecomb" unicode="&#x303;" 
d="M-26 662q-12 -22 -51 -22q-23 0 -46.5 6.5t-56.5 18.5q-28 10 -46.5 15.5t-35.5 5.5q-18 0 -23.5 -12t-5.5 -45h-37q0 59 12 81t51 22q23 0 45.5 -6.5t58.5 -19.5q28 -10 46 -15t35 -5q19 0 24 11.5t5 45.5h37q0 -59 -12 -81z" />
    <glyph glyph-name="uni0304" unicode="&#x304;" 
d="M-273 689v53h212v-53h-212z" />
    <glyph glyph-name="uni0306" unicode="&#x306;" 
d="M-19.5 664.5q-6.5 -28.5 -33 -45.5t-82.5 -17t-82 17t-32.5 45t-6.5 79h42q0 -41 4 -61t21 -31t54 -11t54.5 11t21.5 31.5t4 60.5h42q0 -50 -6.5 -78.5z" />
    <glyph glyph-name="uni0307" unicode="&#x307;" 
d="M-77 660v70h58v-70h-58z" />
    <glyph glyph-name="uni0308" unicode="&#x308;" 
d="M-257 660v70h58v-70h-58zM-78 660v70h58v-70h-58z" />
    <glyph glyph-name="hookabovecomb" unicode="&#x309;" 
d="M-176 619q0 23 8.5 32.5t32.5 17.5l20 6q31 8 40 15.5t9 26.5q0 17 -7 25t-22.5 10t-49.5 2q-38 0 -95 -5v37q54 7 102 7q65 0 90.5 -14.5t25.5 -56.5q0 -30 -9.5 -45t-42.5 -26l-22 -7q-21 -6 -28.5 -10t-9.5 -9t-2 -17h-40v11z" />
    <glyph glyph-name="uni030A" unicode="&#x30a;" 
d="M-201.5 620q-22.5 9 -29 28t-6.5 59t6.5 59t29 28t73.5 9t74 -9t29.5 -28.5t6.5 -58.5t-6.5 -58.5t-29.5 -28.5t-74 -9t-73.5 9zM-82 652q14 5 17.5 16.5t3.5 38.5t-3.5 38.5t-17.5 17t-46 5.5t-45.5 -5.5t-17 -17t-3.5 -38.5t3.5 -38.5t17 -16.5t45.5 -5t46 5z" />
    <glyph glyph-name="uni030B" unicode="&#x30b;" 
d="M-320 607v5l78 126h59v-5l-98 -126h-39zM-156 607v5l78 126h58v-5l-98 -126h-38z" />
    <glyph glyph-name="uni030C" unicode="&#x30c;" 
d="M-170 605l-92 132v6h41l83 -102l84 102h41v-6l-92 -132h-65z" />
    <glyph glyph-name="uni030F" unicode="&#x30f;" 
d="M-183 607h-38l-98 126v5h58l78 -126v-5zM-19 607h-39l-98 126v5h59l78 -126v-5z" />
    <glyph glyph-name="uni0311" unicode="&#x311;" 
d="M-249.5 686.5q6.5 28.5 33 45.5t82.5 17t82 -17t32.5 -45t6.5 -79h-42q0 41 -4 61t-21 31t-54 11t-54.5 -11t-21.5 -31.5t-4 -60.5h-42q0 50 6.5 78.5z" />
    <glyph glyph-name="uni0312" unicode="&#x312;" 
d="M-341 747.5q-9 -11.5 -9 -47.5v-17h28v-78h-67v77q0 44 7 65.5t25.5 30.5t57.5 9v-28q-33 0 -42 -11.5z" />
    <glyph glyph-name="uni031B" unicode="&#x31b;" 
d="M-132.5 521.5q9.5 11.5 9.5 45.5v40h44v-30q0 -42 -7.5 -63t-28 -29.5t-61.5 -8.5h-55v34h55q34 0 43.5 11.5z" />
    <glyph glyph-name="dotbelowcomb" unicode="&#x323;" 
d="M-128 -142v80h68v-80h-68z" />
    <glyph glyph-name="uni0326" unicode="&#x326;" 
d="M-103 -204.5q9 11.5 9 47.5v17h-28v78h67v-77q0 -44 -7 -66t-25.5 -31t-57.5 -9v29q33 0 42 11.5z" />
    <glyph glyph-name="uni0327" unicode="&#x327;" 
d="M-118 -190v5l60 193h40v-5l-43 -193h-57z" />
    <glyph glyph-name="uni0328" unicode="&#x328;" 
d="M-30 -196q-44 0 -63.5 20.5t-19.5 54.5q0 29 17 63t44 62h51q-22 -19 -42 -53.5t-20 -61.5q0 -43 46 -43q9 0 17 1v-41q-11 -2 -30 -2z" />
    <glyph glyph-name="uni0335" unicode="&#x335;" 
d="M-263 322v53h235v-53h-235z" />
    <glyph glyph-name="uni0336" unicode="&#x336;" 
d="M-91 488h-451v53h451v-53z" />
    <glyph glyph-name="uni0394" unicode="&#x394;" horiz-adv-x="591" 
d="M28 0l231 688h72l231 -688h-534zM297 616h-5l-189 -564h382z" />
    <glyph glyph-name="uni03A9" unicode="&#x3a9;" horiz-adv-x="627" 
d="M75 52h4q24 -2 70 -8l33 -4v6q-47 17 -70.5 56.5t-31 100t-7.5 159.5q0 146 14 211.5t63.5 94t162.5 28.5t163 -28.5t64 -94t14 -211.5q0 -99 -8 -159.5t-31.5 -100t-70.5 -56.5v-6q13 1 37 5l66 7h5v-52h-192v48q62 11 90 40t36.5 88t8.5 183q0 137 -11 192t-47 73.5
t-124 18.5t-123.5 -18.5t-46.5 -73.5t-11 -192q0 -124 8.5 -183t36.5 -88t90 -40v-48h-192v52z" />
    <glyph glyph-name="uni03BC" unicode="&#x3bc;" horiz-adv-x="531" 
d="M450 510v-510h-48l-4 76h-5q-14 -40 -48 -62t-104 -22q-69 0 -104 29v-211h-56v700h56v-304q0 -75 9 -108t33.5 -44t79.5 -11q63 0 92 24.5t36 64t7 114.5v264h56z" />
    <glyph glyph-name="pi" unicode="&#x3c0;" horiz-adv-x="523" 
d="M386 0v461h-249v-461h-56v510h361v-510h-56z" />
    <glyph glyph-name="uni1E0C" unicode="&#x1e0c;" horiz-adv-x="596" 
d="M92 688h185q120 0 170 -24.5t64 -91t14 -228.5t-14 -228.5t-64 -91t-170 -24.5h-185v688zM266 53q103 0 140 14.5t48.5 69.5t11.5 207q0 150 -12 206t-49 70.5t-139 14.5h-116v-582h116zM265 -142v80h68v-80h-68z" />
    <glyph glyph-name="uni1E0D" unicode="&#x1e0d;" horiz-adv-x="524" 
d="M125 14q-36 22 -50 76.5t-14 164.5q0 109 13.5 164t49.5 77t109 22q60 0 96.5 -17.5t52.5 -57.5h5v300h56v-743h-48l-4 76h-5q-16 -50 -55.5 -67t-97.5 -17q-72 0 -108 22zM333.5 59q29.5 16 39.5 50q9 29 11.5 62.5t2.5 93.5q0 43 -2 73t-9 52q-12 41 -42 59t-85 18
q-61 0 -87.5 -14.5t-35.5 -57t-9 -140.5t9.5 -140.5t36.5 -57t90 -14.5q51 0 80.5 16zM228 -142v80h68v-80h-68z" />
    <glyph glyph-name="uni1E24" unicode="&#x1e24;" horiz-adv-x="634" 
d="M484 0v320h-334v-320h-58v688h58v-313h334v313h59v-688h-59zM283 -142v80h68v-80h-68z" />
    <glyph glyph-name="uni1E25" unicode="&#x1e25;" horiz-adv-x="529" 
d="M394 304q0 75 -9 108t-33.5 44t-80.5 11q-63 0 -91.5 -24.5t-35.5 -64t-7 -114.5v-264h-56v743h56v-301h4q13 34 47 55t103 21q68 0 102 -19.5t45.5 -60.5t11.5 -116v-322h-56v304zM231 -142v80h68v-80h-68z" />
    <glyph glyph-name="uni1E44" unicode="&#x1e44;" horiz-adv-x="635" 
d="M485 0l-333 569h-4v-569h-56v688h60l330 -563h4v563h57v-688h-58zM288 805v70h58v-70h-58z" />
    <glyph glyph-name="uni1E45" unicode="&#x1e45;" horiz-adv-x="529" 
d="M394 304q0 75 -9 108t-33.5 44t-80.5 11q-63 0 -91.5 -24.5t-35.5 -64t-7 -114.5v-264h-56v510h48l4 -76h4q14 40 48.5 62t105.5 22q68 0 102 -19.5t45.5 -60.5t11.5 -117v-321h-56v304zM236 660v70h58v-70h-58z" />
    <glyph glyph-name="uni1E5A" unicode="&#x1e5a;" horiz-adv-x="590" 
d="M468 0l-101 285q-10 -1 -26 -1h-191v-284h-58v688h259q75 0 112.5 -26.5t48 -68t10.5 -107.5q0 -76 -18.5 -124.5t-79.5 -66.5l107 -295h-63zM418.5 353q28.5 17 36.5 48t8 85q0 55 -7.5 85t-34 47t-82.5 17h-189v-299h182q58 0 86.5 17zM262 -142v80h68v-80h-68z" />
    <glyph glyph-name="uni1E5B" unicode="&#x1e5b;" horiz-adv-x="315" 
d="M81 510h48l4 -101h4q15 62 53.5 85.5t100.5 23.5v-57q-61 0 -94.5 -23.5t-46.5 -69t-13 -119.5v-249h-56v510zM75 -142v80h68v-80h-68z" />
    <glyph glyph-name="uni1E62" unicode="&#x1e62;" horiz-adv-x="540" 
d="M174 -4.5q-56 3.5 -97 9.5v52q42 -5 95 -8.5t90 -3.5q48 0 76.5 5t50.5 19q20 14 26.5 42.5t6.5 74.5q0 60 -5 83.5t-24.5 33.5t-69.5 16l-149 19q-52 6 -77 27t-31.5 54t-6.5 90q0 73 22.5 114t68.5 57t122 16q49 0 98.5 -4t79.5 -10v-51q-81 12 -167 12q-53 0 -85 -6.5
t-50 -22.5q-18 -15 -24 -39.5t-6 -65.5q0 -48 5.5 -70t21.5 -32t52 -14l143 -18q59 -8 88 -21.5t42 -51.5q6 -17 8 -41.5t2 -67.5q0 -83 -21.5 -126.5t-64 -59t-115.5 -15.5q-49 0 -105 3.5zM236 -142v80h68v-80h-68z" />
    <glyph glyph-name="uni1E63" unicode="&#x1e63;" horiz-adv-x="440" 
d="M140 -4.5q-44 3.5 -75 8.5v48q85 -11 160 -11q46 0 69.5 10t31 29.5t7.5 55.5q0 41 -5 58.5t-17.5 23.5t-40.5 9l-122 14q-57 7 -77 35t-20 95q0 62 20.5 94t57.5 42.5t98 10.5q32 0 71 -4t66 -9v-48q-66 12 -144 12q-40 0 -63.5 -6t-37 -26.5t-13.5 -60.5
q0 -36 5.5 -52.5t18 -23t39.5 -9.5l120 -14q40 -4 60.5 -15.5t30 -40t9.5 -83.5q0 -58 -17.5 -89.5t-53.5 -44t-97 -12.5q-37 0 -81 3.5zM186 -142v80h68v-80h-68z" />
    <glyph glyph-name="uni1E6C" unicode="&#x1e6c;" horiz-adv-x="499" 
d="M220 0v634h-192v54h443v-54h-192v-634h-59zM215 -142v80h68v-80h-68z" />
    <glyph glyph-name="uni1E6D" unicode="&#x1e6d;" horiz-adv-x="304" 
d="M116 0v461h-91v49h91v148h56v-148h107v-49h-107v-461h-56zM110 -142v80h68v-80h-68z" />
    <glyph glyph-name="Wgrave" unicode="&#x1e80;" horiz-adv-x="840" 
d="M577 0l-154 587h-4l-154 -587h-69l-165 688h61l138 -598h6l154 598h64l155 -598h6l137 598h59l-165 -688h-69zM407 748l-102 135v5h64l80 -135v-5h-42z" />
    <glyph glyph-name="wgrave" unicode="&#x1e81;" horiz-adv-x="711" 
d="M470 0l-112 412h-6l-112 -412h-64l-146 510h58l119 -431h6l114 431h58l116 -431h6l117 431h57l-146 -510h-65zM342 603l-102 135v5h64l80 -135v-5h-42z" />
    <glyph glyph-name="Wacute" unicode="&#x1e82;" horiz-adv-x="840" 
d="M577 0l-154 587h-4l-154 -587h-69l-165 688h61l138 -598h6l154 598h64l155 -598h6l137 598h59l-165 -688h-69zM392 748v5l81 135h63v-5l-102 -135h-42z" />
    <glyph glyph-name="wacute" unicode="&#x1e83;" horiz-adv-x="711" 
d="M470 0l-112 412h-6l-112 -412h-64l-146 510h58l119 -431h6l114 431h58l116 -431h6l117 431h57l-146 -510h-65zM330 603v5l81 135h63v-5l-102 -135h-42z" />
    <glyph glyph-name="Wdieresis" unicode="&#x1e84;" horiz-adv-x="840" 
d="M577 0l-154 587h-4l-154 -587h-69l-165 688h61l138 -598h6l154 598h64l155 -598h6l137 598h59l-165 -688h-69zM301 805v70h58v-70h-58zM480 805v70h58v-70h-58z" />
    <glyph glyph-name="wdieresis" unicode="&#x1e85;" horiz-adv-x="711" 
d="M470 0l-112 412h-6l-112 -412h-64l-146 510h58l119 -431h6l114 431h58l116 -431h6l117 431h57l-146 -510h-65zM237 660v70h58v-70h-58zM416 660v70h58v-70h-58z" />
    <glyph glyph-name="uni1E92" unicode="&#x1e92;" horiz-adv-x="514" 
d="M44 0v50l352 585h-342v53h413v-49l-352 -587h358v-52h-429zM223 -142v80h68v-80h-68z" />
    <glyph glyph-name="uni1E93" unicode="&#x1e93;" horiz-adv-x="437" 
d="M45 0v45l275 416h-265v49h335v-44l-275 -417h277v-49h-347zM184 -142v80h68v-80h-68z" />
    <glyph glyph-name="uni1E9E" unicode="&#x1e9e;" horiz-adv-x="636" 
d="M529 325.5q42 -44.5 42 -144.5q0 -98 -45.5 -143.5t-156.5 -45.5q-32 0 -71.5 4.5t-71.5 10.5v50q81 -12 141 -12q54 0 85 12t45.5 41.5t14.5 84.5q0 76 -26 107.5t-88 31.5h-103v42l170 256q-80 23 -164 23q-76 0 -107 -19t-41 -74.5t-10 -190.5v-359h-59v359
q0 144 16 213.5t58.5 96.5t132.5 27q66 0 127.5 -11t107.5 -28v-45l-161 -242h33q89 0 131 -44.5z" />
    <glyph glyph-name="uni1EA0" unicode="&#x1ea0;" horiz-adv-x="590" 
d="M500 0l-68 204h-276l-68 -204h-60l231 688h72l231 -688h-62zM297 615h-5l-119 -358h242zM261 -142v80h68v-80h-68z" />
    <glyph glyph-name="uni1EA1" unicode="&#x1ea1;" horiz-adv-x="501" 
d="M116 4.5q-34 12.5 -50.5 44.5t-16.5 90t12.5 89.5t42.5 45.5t85 14q28 0 176 -5v40q0 69 -10.5 98.5t-39 38.5t-94.5 9q-29 0 -72 -3.5t-69 -8.5v48q65 13 159 13q77 0 115.5 -16.5t52.5 -56.5t14 -119v-326h-48l-4 76h-5q-17 -51 -59 -67.5t-99 -16.5q-56 0 -90 12.5z
M299.5 51q31.5 10 45.5 41q11 25 15.5 51.5t4.5 64.5v35h-162q-42 0 -62 -7.5t-28 -28.5t-8 -65q0 -42 9 -63t33 -29.5t72 -8.5q49 0 80.5 10zM217 -142v80h68v-80h-68z" />
    <glyph glyph-name="uni1EA2" unicode="&#x1ea2;" horiz-adv-x="590" 
d="M500 0l-68 204h-276l-68 -204h-60l231 688h72l231 -688h-62zM297 615h-5l-119 -358h242zM249 742q0 23 8.5 32.5t32.5 17.5l20 6q31 8 40 16t9 27q0 17 -7 24.5t-22.5 9.5t-49.5 2q-27 0 -95 -4v36q54 7 102 7q65 0 90.5 -14.5t25.5 -55.5q0 -31 -9.5 -46t-42.5 -26
l-22 -6q-20 -6 -28 -10t-10 -9.5t-2 -17.5h-40v11z" />
    <glyph glyph-name="uni1EA3" unicode="&#x1ea3;" horiz-adv-x="501" 
d="M116 4.5q-34 12.5 -50.5 44.5t-16.5 90t12.5 89.5t42.5 45.5t85 14q28 0 176 -5v40q0 69 -10.5 98.5t-39 38.5t-94.5 9q-29 0 -72 -3.5t-69 -8.5v48q65 13 159 13q77 0 115.5 -16.5t52.5 -56.5t14 -119v-326h-48l-4 76h-5q-17 -51 -59 -67.5t-99 -16.5q-56 0 -90 12.5z
M299.5 51q31.5 10 45.5 41q11 25 15.5 51.5t4.5 64.5v35h-162q-42 0 -62 -7.5t-28 -28.5t-8 -65q0 -42 9 -63t33 -29.5t72 -8.5q49 0 80.5 10zM205 619q0 23 8.5 32.5t32.5 17.5l20 6q31 8 40 15.5t9 26.5q0 17 -7 25t-22.5 10t-49.5 2q-38 0 -95 -5v37q54 7 102 7
q65 0 90.5 -14.5t25.5 -56.5q0 -30 -9.5 -45t-42.5 -26l-22 -7q-21 -6 -28.5 -10t-9.5 -9t-2 -17h-40v11z" />
    <glyph glyph-name="uni1EA4" unicode="&#x1ea4;" horiz-adv-x="590" 
d="M500 0l-68 204h-276l-68 -204h-60l231 688h72l231 -688h-62zM297 615h-5l-119 -358h242zM168 746v5l92 133h65l92 -133v-5h-41l-84 101l-83 -101h-41zM351 892v5l81 135h63v-5l-102 -135h-42z" />
    <glyph glyph-name="uni1EA5" unicode="&#x1ea5;" horiz-adv-x="501" 
d="M116 4.5q-34 12.5 -50.5 44.5t-16.5 90t12.5 89.5t42.5 45.5t85 14q28 0 176 -5v40q0 69 -10.5 98.5t-39 38.5t-94.5 9q-29 0 -72 -3.5t-69 -8.5v48q65 13 159 13q77 0 115.5 -16.5t52.5 -56.5t14 -119v-326h-48l-4 76h-5q-17 -51 -59 -67.5t-99 -16.5q-56 0 -90 12.5z
M299.5 51q31.5 10 45.5 41q11 25 15.5 51.5t4.5 64.5v35h-162q-42 0 -62 -7.5t-28 -28.5t-8 -65q0 -42 9 -63t33 -29.5t72 -8.5q49 0 80.5 10zM124 605v5l92 133h65l92 -133v-5h-41l-84 101l-83 -101h-41zM307 750v5l81 135h63v-5l-102 -135h-42z" />
    <glyph glyph-name="uni1EA6" unicode="&#x1ea6;" horiz-adv-x="590" 
d="M500 0l-68 204h-276l-68 -204h-60l231 688h72l231 -688h-62zM297 615h-5l-119 -358h242zM167 744v5l92 133h65l92 -133v-5h-41l-84 101l-83 -101h-41zM378 889l-102 135v5h64l80 -135v-5h-42z" />
    <glyph glyph-name="uni1EA7" unicode="&#x1ea7;" horiz-adv-x="501" 
d="M116 4.5q-34 12.5 -50.5 44.5t-16.5 90t12.5 89.5t42.5 45.5t85 14q28 0 176 -5v40q0 69 -10.5 98.5t-39 38.5t-94.5 9q-29 0 -72 -3.5t-69 -8.5v48q65 13 159 13q77 0 115.5 -16.5t52.5 -56.5t14 -119v-326h-48l-4 76h-5q-17 -51 -59 -67.5t-99 -16.5q-56 0 -90 12.5z
M299.5 51q31.5 10 45.5 41q11 25 15.5 51.5t4.5 64.5v35h-162q-42 0 -62 -7.5t-28 -28.5t-8 -65q0 -42 9 -63t33 -29.5t72 -8.5q49 0 80.5 10zM123 605v5l92 133h65l92 -133v-5h-41l-84 101l-83 -101h-41zM334 750l-102 135v5h64l80 -135v-5h-42z" />
    <glyph glyph-name="uni1EA8" unicode="&#x1ea8;" horiz-adv-x="590" 
d="M500 0l-68 204h-276l-68 -204h-60l231 688h72l231 -688h-62zM297 615h-5l-119 -358h242zM170 744v5l92 133h65l92 -133v-5h-41l-84 101l-83 -101h-41zM334 898q0 23 8.5 32.5t32.5 17.5l20 6q31 8 40 15.5t9 26.5q0 17 -7 25t-22.5 10t-49.5 2q-38 0 -95 -5v37
q54 7 102 7q65 0 90.5 -14.5t25.5 -56.5q0 -30 -9.5 -45t-42.5 -26l-22 -7q-21 -6 -28.5 -10t-9.5 -9t-2 -17h-40v11z" />
    <glyph glyph-name="uni1EA9" unicode="&#x1ea9;" horiz-adv-x="501" 
d="M116 4.5q-34 12.5 -50.5 44.5t-16.5 90t12.5 89.5t42.5 45.5t85 14q28 0 176 -5v40q0 69 -10.5 98.5t-39 38.5t-94.5 9q-29 0 -72 -3.5t-69 -8.5v48q65 13 159 13q77 0 115.5 -16.5t52.5 -56.5t14 -119v-326h-48l-4 76h-5q-17 -51 -59 -67.5t-99 -16.5q-56 0 -90 12.5z
M299.5 51q31.5 10 45.5 41q11 25 15.5 51.5t4.5 64.5v35h-162q-42 0 -62 -7.5t-28 -28.5t-8 -65q0 -42 9 -63t33 -29.5t72 -8.5q49 0 80.5 10zM126 605v5l92 133h65l92 -133v-5h-41l-84 101l-83 -101h-41zM290 759q0 23 8.5 32.5t32.5 17.5l20 6q31 8 40 15.5t9 26.5
q0 17 -7 25t-22.5 10t-49.5 2q-38 0 -95 -5v37q54 7 102 7q65 0 90.5 -14.5t25.5 -56.5q0 -30 -9.5 -45t-42.5 -26l-22 -7q-21 -6 -28.5 -10t-9.5 -9t-2 -17h-40v11z" />
    <glyph glyph-name="uni1EAA" unicode="&#x1eaa;" horiz-adv-x="590" 
d="M500 0l-68 204h-276l-68 -204h-60l231 688h72l231 -688h-62zM297 615h-5l-119 -358h242zM168 744v5l92 133h65l92 -133v-5h-41l-84 101l-83 -101h-41zM439 974q-12 -22 -51 -22q-23 0 -46.5 6.5t-56.5 18.5q-28 10 -46.5 15.5t-35.5 5.5q-18 0 -23.5 -12t-5.5 -45h-37
q0 59 12 81t51 22q23 0 45.5 -6.5t58.5 -19.5q28 -10 46 -15t35 -5q19 0 24 11.5t5 45.5h37q0 -59 -12 -81z" />
    <glyph glyph-name="uni1EAB" unicode="&#x1eab;" horiz-adv-x="501" 
d="M116 4.5q-34 12.5 -50.5 44.5t-16.5 90t12.5 89.5t42.5 45.5t85 14q28 0 176 -5v40q0 69 -10.5 98.5t-39 38.5t-94.5 9q-29 0 -72 -3.5t-69 -8.5v48q65 13 159 13q77 0 115.5 -16.5t52.5 -56.5t14 -119v-326h-48l-4 76h-5q-17 -51 -59 -67.5t-99 -16.5q-56 0 -90 12.5z
M299.5 51q31.5 10 45.5 41q11 25 15.5 51.5t4.5 64.5v35h-162q-42 0 -62 -7.5t-28 -28.5t-8 -65q0 -42 9 -63t33 -29.5t72 -8.5q49 0 80.5 10zM124 605v5l92 133h65l92 -133v-5h-41l-84 101l-83 -101h-41zM395 835q-12 -22 -51 -22q-23 0 -46.5 6.5t-56.5 18.5
q-28 10 -46.5 15.5t-35.5 5.5q-18 0 -23.5 -12t-5.5 -45h-37q0 59 12 81t51 22q23 0 45.5 -6.5t58.5 -19.5q28 -10 46 -15t35 -5q19 0 24 11.5t5 45.5h37q0 -59 -12 -81z" />
    <glyph glyph-name="uni1EAC" unicode="&#x1eac;" horiz-adv-x="590" 
d="M500 0l-68 204h-276l-68 -204h-60l231 688h72l231 -688h-62zM297 615h-5l-119 -358h242zM261 -142v80h68v-80h-68zM170 750v5l92 133h65l92 -133v-5h-41l-84 101l-83 -101h-41z" />
    <glyph glyph-name="uni1EAD" unicode="&#x1ead;" horiz-adv-x="501" 
d="M116 4.5q-34 12.5 -50.5 44.5t-16.5 90t12.5 89.5t42.5 45.5t85 14q28 0 176 -5v40q0 69 -10.5 98.5t-39 38.5t-94.5 9q-29 0 -72 -3.5t-69 -8.5v48q65 13 159 13q77 0 115.5 -16.5t52.5 -56.5t14 -119v-326h-48l-4 76h-5q-17 -51 -59 -67.5t-99 -16.5q-56 0 -90 12.5z
M299.5 51q31.5 10 45.5 41q11 25 15.5 51.5t4.5 64.5v35h-162q-42 0 -62 -7.5t-28 -28.5t-8 -65q0 -42 9 -63t33 -29.5t72 -8.5q49 0 80.5 10zM217 -142v80h68v-80h-68zM126 605v5l92 133h65l92 -133v-5h-41l-84 101l-83 -101h-41z" />
    <glyph glyph-name="uni1EAE" unicode="&#x1eae;" horiz-adv-x="590" 
d="M500 0l-68 204h-276l-68 -204h-60l231 688h72l231 -688h-62zM297 615h-5l-119 -358h242zM407.5 809.5q-6.5 -28.5 -33 -45.5t-82.5 -17t-82 17t-32.5 45t-6.5 79h42q0 -41 4 -61t21 -31t54 -11t54.5 11t21.5 31.5t4 60.5h42q0 -50 -6.5 -78.5zM269 921v5l81 135h63v-5
l-102 -135h-42z" />
    <glyph glyph-name="uni1EAF" unicode="&#x1eaf;" horiz-adv-x="501" 
d="M116 4.5q-34 12.5 -50.5 44.5t-16.5 90t12.5 89.5t42.5 45.5t85 14q28 0 176 -5v40q0 69 -10.5 98.5t-39 38.5t-94.5 9q-29 0 -72 -3.5t-69 -8.5v48q65 13 159 13q77 0 115.5 -16.5t52.5 -56.5t14 -119v-326h-48l-4 76h-5q-17 -51 -59 -67.5t-99 -16.5q-56 0 -90 12.5z
M299.5 51q31.5 10 45.5 41q11 25 15.5 51.5t4.5 64.5v35h-162q-42 0 -62 -7.5t-28 -28.5t-8 -65q0 -42 9 -63t33 -29.5t72 -8.5q49 0 80.5 10zM362.5 664.5q-6.5 -28.5 -33 -45.5t-82.5 -17t-82 17t-32.5 45t-6.5 79h42q0 -41 4 -61t21 -31t54 -11t54.5 11t21.5 31.5t4 60.5
h42q0 -50 -6.5 -78.5zM224 776v5l81 135h63v-5l-102 -135h-42z" />
    <glyph glyph-name="uni1EB0" unicode="&#x1eb0;" horiz-adv-x="590" 
d="M500 0l-68 204h-276l-68 -204h-60l231 688h72l231 -688h-62zM297 615h-5l-119 -358h242zM410.5 809.5q-6.5 -28.5 -33 -45.5t-82.5 -17t-82 17t-32.5 45t-6.5 79h42q0 -41 4 -61t21 -31t54 -11t54.5 11t21.5 31.5t4 60.5h42q0 -50 -6.5 -78.5zM284 921l-102 135v5h64
l80 -135v-5h-42z" />
    <glyph glyph-name="uni1EB1" unicode="&#x1eb1;" horiz-adv-x="501" 
d="M116 4.5q-34 12.5 -50.5 44.5t-16.5 90t12.5 89.5t42.5 45.5t85 14q28 0 176 -5v40q0 69 -10.5 98.5t-39 38.5t-94.5 9q-29 0 -72 -3.5t-69 -8.5v48q65 13 159 13q77 0 115.5 -16.5t52.5 -56.5t14 -119v-326h-48l-4 76h-5q-17 -51 -59 -67.5t-99 -16.5q-56 0 -90 12.5z
M299.5 51q31.5 10 45.5 41q11 25 15.5 51.5t4.5 64.5v35h-162q-42 0 -62 -7.5t-28 -28.5t-8 -65q0 -42 9 -63t33 -29.5t72 -8.5q49 0 80.5 10zM366.5 664.5q-6.5 -28.5 -33 -45.5t-82.5 -17t-82 17t-32.5 45t-6.5 79h42q0 -41 4 -61t21 -31t54 -11t54.5 11t21.5 31.5t4 60.5
h42q0 -50 -6.5 -78.5zM240 776l-102 135v5h64l80 -135v-5h-42z" />
    <glyph glyph-name="uni1EB2" unicode="&#x1eb2;" horiz-adv-x="590" 
d="M500 0l-68 204h-276l-68 -204h-60l231 688h72l231 -688h-62zM297 615h-5l-119 -358h242zM409.5 809.5q-6.5 -28.5 -33 -45.5t-82.5 -17t-82 17t-32.5 45t-6.5 79h42q0 -41 4 -61t21 -31t54 -11t54.5 11t21.5 31.5t4 60.5h42q0 -50 -6.5 -78.5zM254 899q0 23 8.5 32.5
t32.5 17.5l20 6q31 8 40 15.5t9 26.5q0 17 -7 25t-22.5 10t-49.5 2q-38 0 -95 -5v37q54 7 102 7q65 0 90.5 -14.5t25.5 -56.5q0 -30 -9.5 -45t-42.5 -26l-22 -7q-21 -6 -28.5 -10t-9.5 -9t-2 -17h-40v11z" />
    <glyph glyph-name="uni1EB3" unicode="&#x1eb3;" horiz-adv-x="501" 
d="M116 4.5q-34 12.5 -50.5 44.5t-16.5 90t12.5 89.5t42.5 45.5t85 14q28 0 176 -5v40q0 69 -10.5 98.5t-39 38.5t-94.5 9q-29 0 -72 -3.5t-69 -8.5v48q65 13 159 13q77 0 115.5 -16.5t52.5 -56.5t14 -119v-326h-48l-4 76h-5q-17 -51 -59 -67.5t-99 -16.5q-56 0 -90 12.5z
M299.5 51q31.5 10 45.5 41q11 25 15.5 51.5t4.5 64.5v35h-162q-42 0 -62 -7.5t-28 -28.5t-8 -65q0 -42 9 -63t33 -29.5t72 -8.5q49 0 80.5 10zM365.5 664.5q-6.5 -28.5 -33 -45.5t-82.5 -17t-82 17t-32.5 45t-6.5 79h42q0 -41 4 -61t21 -31t54 -11t54.5 11t21.5 31.5t4 60.5
h42q0 -50 -6.5 -78.5zM210 754q0 23 8.5 32.5t32.5 17.5l20 6q31 8 40 15.5t9 26.5q0 17 -7 25t-22.5 10t-49.5 2q-38 0 -95 -5v37q54 7 102 7q65 0 90.5 -14.5t25.5 -56.5q0 -30 -9.5 -45t-42.5 -26l-22 -7q-21 -6 -28.5 -10t-9.5 -9t-2 -17h-40v11z" />
    <glyph glyph-name="uni1EB4" unicode="&#x1eb4;" horiz-adv-x="590" 
d="M500 0l-68 204h-276l-68 -204h-60l231 688h72l231 -688h-62zM297 615h-5l-119 -358h242zM407.5 809.5q-6.5 -28.5 -33 -45.5t-82.5 -17t-82 17t-32.5 45t-6.5 79h42q0 -41 4 -61t21 -31t54 -11t54.5 11t21.5 31.5t4 60.5h42q0 -50 -6.5 -78.5zM440 982q-12 -22 -51 -22
q-23 0 -46.5 6.5t-56.5 18.5q-28 10 -46.5 15.5t-35.5 5.5q-18 0 -23.5 -12t-5.5 -45h-37q0 59 12 81t51 22q23 0 45.5 -6.5t58.5 -19.5q28 -10 46 -15t35 -5q19 0 24 11.5t5 45.5h37q0 -59 -12 -81z" />
    <glyph glyph-name="uni1EB5" unicode="&#x1eb5;" horiz-adv-x="501" 
d="M116 4.5q-34 12.5 -50.5 44.5t-16.5 90t12.5 89.5t42.5 45.5t85 14q28 0 176 -5v40q0 69 -10.5 98.5t-39 38.5t-94.5 9q-29 0 -72 -3.5t-69 -8.5v48q65 13 159 13q77 0 115.5 -16.5t52.5 -56.5t14 -119v-326h-48l-4 76h-5q-17 -51 -59 -67.5t-99 -16.5q-56 0 -90 12.5z
M299.5 51q31.5 10 45.5 41q11 25 15.5 51.5t4.5 64.5v35h-162q-42 0 -62 -7.5t-28 -28.5t-8 -65q0 -42 9 -63t33 -29.5t72 -8.5q49 0 80.5 10zM363.5 664.5q-6.5 -28.5 -33 -45.5t-82.5 -17t-82 17t-32.5 45t-6.5 79h42q0 -41 4 -61t21 -31t54 -11t54.5 11t21.5 31.5t4 60.5
h42q0 -50 -6.5 -78.5zM396 837q-12 -22 -51 -22q-23 0 -46.5 6.5t-56.5 18.5q-28 10 -46.5 15.5t-35.5 5.5q-18 0 -23.5 -12t-5.5 -45h-37q0 59 12 81t51 22q23 0 45.5 -6.5t58.5 -19.5q28 -10 46 -15t35 -5q19 0 24 11.5t5 45.5h37q0 -59 -12 -81z" />
    <glyph glyph-name="uni1EB6" unicode="&#x1eb6;" horiz-adv-x="590" 
d="M500 0l-68 204h-276l-68 -204h-60l231 688h72l231 -688h-62zM297 615h-5l-119 -358h242zM261 -142v80h68v-80h-68zM409.5 809.5q-6.5 -28.5 -33 -45.5t-82.5 -17t-82 17t-32.5 45t-6.5 79h42q0 -41 4 -61t21 -31t54 -11t54.5 11t21.5 31.5t4 60.5h42q0 -50 -6.5 -78.5z
" />
    <glyph glyph-name="uni1EB7" unicode="&#x1eb7;" horiz-adv-x="501" 
d="M116 4.5q-34 12.5 -50.5 44.5t-16.5 90t12.5 89.5t42.5 45.5t85 14q28 0 176 -5v40q0 69 -10.5 98.5t-39 38.5t-94.5 9q-29 0 -72 -3.5t-69 -8.5v48q65 13 159 13q77 0 115.5 -16.5t52.5 -56.5t14 -119v-326h-48l-4 76h-5q-17 -51 -59 -67.5t-99 -16.5q-56 0 -90 12.5z
M299.5 51q31.5 10 45.5 41q11 25 15.5 51.5t4.5 64.5v35h-162q-42 0 -62 -7.5t-28 -28.5t-8 -65q0 -42 9 -63t33 -29.5t72 -8.5q49 0 80.5 10zM217 -142v80h68v-80h-68zM365.5 664.5q-6.5 -28.5 -33 -45.5t-82.5 -17t-82 17t-32.5 45t-6.5 79h42q0 -41 4 -61t21 -31t54 -11
t54.5 11t21.5 31.5t4 60.5h42q0 -50 -6.5 -78.5z" />
    <glyph glyph-name="uni1EB8" unicode="&#x1eb8;" horiz-adv-x="517" 
d="M92 0v688h377v-53h-318v-261h278v-52h-278v-269h318v-53h-377zM246 -142v80h68v-80h-68z" />
    <glyph glyph-name="uni1EB9" unicode="&#x1eb9;" horiz-adv-x="496" 
d="M435 236h-318q0 -87 9.5 -125.5t40.5 -54t102 -15.5q34 0 75.5 3.5t73.5 9.5v-48q-26 -6 -71 -10t-88 -4q-89 0 -130 22.5t-54.5 75.5t-13.5 164t11 163t52 76.5t134 24.5q83 0 120 -23.5t47 -75t10 -163.5v-20zM163 455.5q-28 -13.5 -37 -51t-9 -123.5h263v15
q0 79 -10.5 114.5t-35.5 47t-78 11.5q-65 0 -93 -13.5zM214 -142v80h68v-80h-68z" />
    <glyph glyph-name="uni1EBA" unicode="&#x1eba;" horiz-adv-x="517" 
d="M92 0v688h377v-53h-318v-261h278v-52h-278v-269h318v-53h-377zM234 742q0 23 8.5 32.5t32.5 17.5l20 6q31 8 40 16t9 27q0 17 -7 24.5t-22.5 9.5t-49.5 2q-27 0 -95 -4v36q54 7 102 7q65 0 90.5 -14.5t25.5 -55.5q0 -31 -9.5 -46t-42.5 -26l-22 -6q-20 -6 -28 -10
t-10 -9.5t-2 -17.5h-40v11z" />
    <glyph glyph-name="uni1EBB" unicode="&#x1ebb;" horiz-adv-x="496" 
d="M435 236h-318q0 -87 9.5 -125.5t40.5 -54t102 -15.5q34 0 75.5 3.5t73.5 9.5v-48q-26 -6 -71 -10t-88 -4q-89 0 -130 22.5t-54.5 75.5t-13.5 164t11 163t52 76.5t134 24.5q83 0 120 -23.5t47 -75t10 -163.5v-20zM163 455.5q-28 -13.5 -37 -51t-9 -123.5h263v15
q0 79 -10.5 114.5t-35.5 47t-78 11.5q-65 0 -93 -13.5zM202 619q0 23 8.5 32.5t32.5 17.5l20 6q31 8 40 15.5t9 26.5q0 17 -7 25t-22.5 10t-49.5 2q-38 0 -95 -5v37q54 7 102 7q65 0 90.5 -14.5t25.5 -56.5q0 -30 -9.5 -45t-42.5 -26l-22 -7q-21 -6 -28.5 -10t-9.5 -9
t-2 -17h-40v11z" />
    <glyph glyph-name="uni1EBC" unicode="&#x1ebc;" horiz-adv-x="517" 
d="M92 0v688h377v-53h-318v-261h278v-52h-278v-269h318v-53h-377zM424 807q-12 -22 -51 -22q-23 0 -46.5 6.5t-56.5 18.5q-28 10 -46.5 15.5t-35.5 5.5q-18 0 -23.5 -12t-5.5 -45h-37q0 59 12 81t51 22q23 0 45.5 -6.5t58.5 -19.5q28 -10 46 -15t35 -5q19 0 24 11.5t5 45.5
h37q0 -59 -12 -81z" />
    <glyph glyph-name="uni1EBD" unicode="&#x1ebd;" horiz-adv-x="496" 
d="M435 236h-318q0 -87 9.5 -125.5t40.5 -54t102 -15.5q34 0 75.5 3.5t73.5 9.5v-48q-26 -6 -71 -10t-88 -4q-89 0 -130 22.5t-54.5 75.5t-13.5 164t11 163t52 76.5t134 24.5q83 0 120 -23.5t47 -75t10 -163.5v-20zM163 455.5q-28 -13.5 -37 -51t-9 -123.5h263v15
q0 79 -10.5 114.5t-35.5 47t-78 11.5q-65 0 -93 -13.5zM392 662q-12 -22 -51 -22q-23 0 -46.5 6.5t-56.5 18.5q-28 10 -46.5 15.5t-35.5 5.5q-18 0 -23.5 -12t-5.5 -45h-37q0 59 12 81t51 22q23 0 45.5 -6.5t58.5 -19.5q28 -10 46 -15t35 -5q19 0 24 11.5t5 45.5h37
q0 -59 -12 -81z" />
    <glyph glyph-name="uni1EBE" unicode="&#x1ebe;" horiz-adv-x="517" 
d="M92 0v688h377v-53h-318v-261h278v-52h-278v-269h318v-53h-377zM153 746v5l92 133h65l92 -133v-5h-41l-84 101l-83 -101h-41zM336 892v5l81 135h63v-5l-102 -135h-42z" />
    <glyph glyph-name="uni1EBF" unicode="&#x1ebf;" horiz-adv-x="496" 
d="M435 236h-318q0 -87 9.5 -125.5t40.5 -54t102 -15.5q34 0 75.5 3.5t73.5 9.5v-48q-26 -6 -71 -10t-88 -4q-89 0 -130 22.5t-54.5 75.5t-13.5 164t11 163t52 76.5t134 24.5q83 0 120 -23.5t47 -75t10 -163.5v-20zM163 455.5q-28 -13.5 -37 -51t-9 -123.5h263v15
q0 79 -10.5 114.5t-35.5 47t-78 11.5q-65 0 -93 -13.5zM121 605v5l92 133h65l92 -133v-5h-41l-84 101l-83 -101h-41zM304 750v5l81 135h63v-5l-102 -135h-42z" />
    <glyph glyph-name="uni1EC0" unicode="&#x1ec0;" horiz-adv-x="517" 
d="M92 0v688h377v-53h-318v-261h278v-52h-278v-269h318v-53h-377zM152 744v5l92 133h65l92 -133v-5h-41l-84 101l-83 -101h-41zM363 889l-102 135v5h64l80 -135v-5h-42z" />
    <glyph glyph-name="uni1EC1" unicode="&#x1ec1;" horiz-adv-x="496" 
d="M435 236h-318q0 -87 9.5 -125.5t40.5 -54t102 -15.5q34 0 75.5 3.5t73.5 9.5v-48q-26 -6 -71 -10t-88 -4q-89 0 -130 22.5t-54.5 75.5t-13.5 164t11 163t52 76.5t134 24.5q83 0 120 -23.5t47 -75t10 -163.5v-20zM163 455.5q-28 -13.5 -37 -51t-9 -123.5h263v15
q0 79 -10.5 114.5t-35.5 47t-78 11.5q-65 0 -93 -13.5zM120 605v5l92 133h65l92 -133v-5h-41l-84 101l-83 -101h-41zM331 750l-102 135v5h64l80 -135v-5h-42z" />
    <glyph glyph-name="uni1EC2" unicode="&#x1ec2;" horiz-adv-x="517" 
d="M92 0v688h377v-53h-318v-261h278v-52h-278v-269h318v-53h-377zM155 744v5l92 133h65l92 -133v-5h-41l-84 101l-83 -101h-41zM319 898q0 23 8.5 32.5t32.5 17.5l20 6q31 8 40 15.5t9 26.5q0 17 -7 25t-22.5 10t-49.5 2q-38 0 -95 -5v37q54 7 102 7q65 0 90.5 -14.5
t25.5 -56.5q0 -30 -9.5 -45t-42.5 -26l-22 -7q-21 -6 -28.5 -10t-9.5 -9t-2 -17h-40v11z" />
    <glyph glyph-name="uni1EC3" unicode="&#x1ec3;" horiz-adv-x="496" 
d="M435 236h-318q0 -87 9.5 -125.5t40.5 -54t102 -15.5q34 0 75.5 3.5t73.5 9.5v-48q-26 -6 -71 -10t-88 -4q-89 0 -130 22.5t-54.5 75.5t-13.5 164t11 163t52 76.5t134 24.5q83 0 120 -23.5t47 -75t10 -163.5v-20zM163 455.5q-28 -13.5 -37 -51t-9 -123.5h263v15
q0 79 -10.5 114.5t-35.5 47t-78 11.5q-65 0 -93 -13.5zM123 605v5l92 133h65l92 -133v-5h-41l-84 101l-83 -101h-41zM287 759q0 23 8.5 32.5t32.5 17.5l20 6q31 8 40 15.5t9 26.5q0 17 -7 25t-22.5 10t-49.5 2q-38 0 -95 -5v37q54 7 102 7q65 0 90.5 -14.5t25.5 -56.5
q0 -30 -9.5 -45t-42.5 -26l-22 -7q-21 -6 -28.5 -10t-9.5 -9t-2 -17h-40v11z" />
    <glyph glyph-name="uni1EC4" unicode="&#x1ec4;" horiz-adv-x="517" 
d="M92 0v688h377v-53h-318v-261h278v-52h-278v-269h318v-53h-377zM153 744v5l92 133h65l92 -133v-5h-41l-84 101l-83 -101h-41zM424 974q-12 -22 -51 -22q-23 0 -46.5 6.5t-56.5 18.5q-28 10 -46.5 15.5t-35.5 5.5q-18 0 -23.5 -12t-5.5 -45h-37q0 59 12 81t51 22
q23 0 45.5 -6.5t58.5 -19.5q28 -10 46 -15t35 -5q19 0 24 11.5t5 45.5h37q0 -59 -12 -81z" />
    <glyph glyph-name="uni1EC5" unicode="&#x1ec5;" horiz-adv-x="496" 
d="M435 236h-318q0 -87 9.5 -125.5t40.5 -54t102 -15.5q34 0 75.5 3.5t73.5 9.5v-48q-26 -6 -71 -10t-88 -4q-89 0 -130 22.5t-54.5 75.5t-13.5 164t11 163t52 76.5t134 24.5q83 0 120 -23.5t47 -75t10 -163.5v-20zM163 455.5q-28 -13.5 -37 -51t-9 -123.5h263v15
q0 79 -10.5 114.5t-35.5 47t-78 11.5q-65 0 -93 -13.5zM121 605v5l92 133h65l92 -133v-5h-41l-84 101l-83 -101h-41zM392 835q-12 -22 -51 -22q-23 0 -46.5 6.5t-56.5 18.5q-28 10 -46.5 15.5t-35.5 5.5q-18 0 -23.5 -12t-5.5 -45h-37q0 59 12 81t51 22q23 0 45.5 -6.5
t58.5 -19.5q28 -10 46 -15t35 -5q19 0 24 11.5t5 45.5h37q0 -59 -12 -81z" />
    <glyph glyph-name="uni1EC6" unicode="&#x1ec6;" horiz-adv-x="517" 
d="M92 0v688h377v-53h-318v-261h278v-52h-278v-269h318v-53h-377zM246 -142v80h68v-80h-68zM155 750v5l92 133h65l92 -133v-5h-41l-84 101l-83 -101h-41z" />
    <glyph glyph-name="uni1EC7" unicode="&#x1ec7;" horiz-adv-x="496" 
d="M435 236h-318q0 -87 9.5 -125.5t40.5 -54t102 -15.5q34 0 75.5 3.5t73.5 9.5v-48q-26 -6 -71 -10t-88 -4q-89 0 -130 22.5t-54.5 75.5t-13.5 164t11 163t52 76.5t134 24.5q83 0 120 -23.5t47 -75t10 -163.5v-20zM163 455.5q-28 -13.5 -37 -51t-9 -123.5h263v15
q0 79 -10.5 114.5t-35.5 47t-78 11.5q-65 0 -93 -13.5zM214 -142v80h68v-80h-68zM123 605v5l92 133h65l92 -133v-5h-41l-84 101l-83 -101h-41z" />
    <glyph glyph-name="uni1EC8" unicode="&#x1ec8;" horiz-adv-x="245" 
d="M93 0v688h59v-688h-59zM77 742q0 23 8.5 32.5t32.5 17.5l20 6q31 8 40 16t9 27q0 17 -7 24.5t-22.5 9.5t-49.5 2q-27 0 -95 -4v36q54 7 102 7q65 0 90.5 -14.5t25.5 -55.5q0 -31 -9.5 -46t-42.5 -26l-22 -6q-20 -6 -28 -10t-10 -9.5t-2 -17.5h-40v11z" />
    <glyph glyph-name="uni1EC9" unicode="&#x1ec9;" horiz-adv-x="218" 
d="M81 0v510h56v-510h-56zM63 619q0 23 8.5 32.5t32.5 17.5l20 6q31 8 40 15.5t9 26.5q0 17 -7 25t-22.5 10t-49.5 2q-38 0 -95 -5v37q54 7 102 7q65 0 90.5 -14.5t25.5 -56.5q0 -30 -9.5 -45t-42.5 -26l-22 -7q-21 -6 -28.5 -10t-9.5 -9t-2 -17h-40v11z" />
    <glyph glyph-name="uni1ECA" unicode="&#x1eca;" horiz-adv-x="245" 
d="M93 0v688h59v-688h-59zM89 -142v80h68v-80h-68z" />
    <glyph glyph-name="uni1ECB" unicode="&#x1ecb;" horiz-adv-x="218" 
d="M78 668v75h62v-75h-62zM81 0v510h56v-510h-56zM60 -142v80h68v-80h-68z" />
    <glyph glyph-name="uni1ECC" unicode="&#x1ecc;" horiz-adv-x="623" 
d="M147 17q-48 25 -62 93.5t-14 233.5t14 233.5t62 93.5t164 25q117 0 165 -25t62 -93.5t14 -233.5t-14 -233.5t-62 -93.5t-165 -25q-116 0 -164 25zM437 60q34 15 45 73t11 211t-11 211t-45 73t-126 15q-91 0 -125 -15t-45 -73t-11 -211t11 -211t45 -73t125 -15
q92 0 126 15zM278 -142v80h68v-80h-68z" />
    <glyph glyph-name="uni1ECD" unicode="&#x1ecd;" horiz-adv-x="511" 
d="M123 12.5q-40 20.5 -51 72t-11 169.5q0 119 11 170.5t51 72.5t132 21q93 0 132.5 -21t51 -72.5t11.5 -170.5q0 -118 -11.5 -169.5t-51 -72t-132.5 -20.5q-92 0 -132 20.5zM353 56q28 15 34.5 54.5t6.5 143.5t-6.5 144t-34.5 55.5t-98 15.5t-97.5 -15.5t-34 -55
t-6.5 -144.5q0 -104 6.5 -143.5t34 -54.5t97.5 -15t98 15zM221 -142v80h68v-80h-68z" />
    <glyph glyph-name="uni1ECE" unicode="&#x1ece;" horiz-adv-x="623" 
d="M147 17q-48 25 -62 93.5t-14 233.5t14 233.5t62 93.5t164 25q117 0 165 -25t62 -93.5t14 -233.5t-14 -233.5t-62 -93.5t-165 -25q-116 0 -164 25zM437 60q34 15 45 73t11 211t-11 211t-45 73t-126 15q-91 0 -125 -15t-45 -73t-11 -211t11 -211t45 -73t125 -15
q92 0 126 15zM266 742q0 23 8.5 32.5t32.5 17.5l20 6q31 8 40 16t9 27q0 17 -7 24.5t-22.5 9.5t-49.5 2q-27 0 -95 -4v36q54 7 102 7q65 0 90.5 -14.5t25.5 -55.5q0 -31 -9.5 -46t-42.5 -26l-22 -6q-20 -6 -28 -10t-10 -9.5t-2 -17.5h-40v11z" />
    <glyph glyph-name="uni1ECF" unicode="&#x1ecf;" horiz-adv-x="511" 
d="M123 12.5q-40 20.5 -51 72t-11 169.5q0 119 11 170.5t51 72.5t132 21q93 0 132.5 -21t51 -72.5t11.5 -170.5q0 -118 -11.5 -169.5t-51 -72t-132.5 -20.5q-92 0 -132 20.5zM353 56q28 15 34.5 54.5t6.5 143.5t-6.5 144t-34.5 55.5t-98 15.5t-97.5 -15.5t-34 -55
t-6.5 -144.5q0 -104 6.5 -143.5t34 -54.5t97.5 -15t98 15zM209 619q0 23 8.5 32.5t32.5 17.5l20 6q31 8 40 15.5t9 26.5q0 17 -7 25t-22.5 10t-49.5 2q-38 0 -95 -5v37q54 7 102 7q65 0 90.5 -14.5t25.5 -56.5q0 -30 -9.5 -45t-42.5 -26l-22 -7q-21 -6 -28.5 -10t-9.5 -9
t-2 -17h-40v11z" />
    <glyph glyph-name="uni1ED0" unicode="&#x1ed0;" horiz-adv-x="623" 
d="M147 17q-48 25 -62 93.5t-14 233.5t14 233.5t62 93.5t164 25q117 0 165 -25t62 -93.5t14 -233.5t-14 -233.5t-62 -93.5t-165 -25q-116 0 -164 25zM437 60q34 15 45 73t11 211t-11 211t-45 73t-126 15q-91 0 -125 -15t-45 -73t-11 -211t11 -211t45 -73t125 -15
q92 0 126 15zM185 746v5l92 133h65l92 -133v-5h-41l-84 101l-83 -101h-41zM368 892v5l81 135h63v-5l-102 -135h-42z" />
    <glyph glyph-name="uni1ED1" unicode="&#x1ed1;" horiz-adv-x="511" 
d="M123 12.5q-40 20.5 -51 72t-11 169.5q0 119 11 170.5t51 72.5t132 21q93 0 132.5 -21t51 -72.5t11.5 -170.5q0 -118 -11.5 -169.5t-51 -72t-132.5 -20.5q-92 0 -132 20.5zM353 56q28 15 34.5 54.5t6.5 143.5t-6.5 144t-34.5 55.5t-98 15.5t-97.5 -15.5t-34 -55
t-6.5 -144.5q0 -104 6.5 -143.5t34 -54.5t97.5 -15t98 15zM128 605v5l92 133h65l92 -133v-5h-41l-84 101l-83 -101h-41zM311 750v5l81 135h63v-5l-102 -135h-42z" />
    <glyph glyph-name="uni1ED2" unicode="&#x1ed2;" horiz-adv-x="623" 
d="M147 17q-48 25 -62 93.5t-14 233.5t14 233.5t62 93.5t164 25q117 0 165 -25t62 -93.5t14 -233.5t-14 -233.5t-62 -93.5t-165 -25q-116 0 -164 25zM437 60q34 15 45 73t11 211t-11 211t-45 73t-126 15q-91 0 -125 -15t-45 -73t-11 -211t11 -211t45 -73t125 -15
q92 0 126 15zM184 744v5l92 133h65l92 -133v-5h-41l-84 101l-83 -101h-41zM395 889l-102 135v5h64l80 -135v-5h-42z" />
    <glyph glyph-name="uni1ED3" unicode="&#x1ed3;" horiz-adv-x="511" 
d="M123 12.5q-40 20.5 -51 72t-11 169.5q0 119 11 170.5t51 72.5t132 21q93 0 132.5 -21t51 -72.5t11.5 -170.5q0 -118 -11.5 -169.5t-51 -72t-132.5 -20.5q-92 0 -132 20.5zM353 56q28 15 34.5 54.5t6.5 143.5t-6.5 144t-34.5 55.5t-98 15.5t-97.5 -15.5t-34 -55
t-6.5 -144.5q0 -104 6.5 -143.5t34 -54.5t97.5 -15t98 15zM127 605v5l92 133h65l92 -133v-5h-41l-84 101l-83 -101h-41zM338 750l-102 135v5h64l80 -135v-5h-42z" />
    <glyph glyph-name="uni1ED4" unicode="&#x1ed4;" horiz-adv-x="623" 
d="M147 17q-48 25 -62 93.5t-14 233.5t14 233.5t62 93.5t164 25q117 0 165 -25t62 -93.5t14 -233.5t-14 -233.5t-62 -93.5t-165 -25q-116 0 -164 25zM437 60q34 15 45 73t11 211t-11 211t-45 73t-126 15q-91 0 -125 -15t-45 -73t-11 -211t11 -211t45 -73t125 -15
q92 0 126 15zM187 744v5l92 133h65l92 -133v-5h-41l-84 101l-83 -101h-41zM351 898q0 23 8.5 32.5t32.5 17.5l20 6q31 8 40 15.5t9 26.5q0 17 -7 25t-22.5 10t-49.5 2q-38 0 -95 -5v37q54 7 102 7q65 0 90.5 -14.5t25.5 -56.5q0 -30 -9.5 -45t-42.5 -26l-22 -7
q-21 -6 -28.5 -10t-9.5 -9t-2 -17h-40v11z" />
    <glyph glyph-name="uni1ED5" unicode="&#x1ed5;" horiz-adv-x="511" 
d="M123 12.5q-40 20.5 -51 72t-11 169.5q0 119 11 170.5t51 72.5t132 21q93 0 132.5 -21t51 -72.5t11.5 -170.5q0 -118 -11.5 -169.5t-51 -72t-132.5 -20.5q-92 0 -132 20.5zM353 56q28 15 34.5 54.5t6.5 143.5t-6.5 144t-34.5 55.5t-98 15.5t-97.5 -15.5t-34 -55
t-6.5 -144.5q0 -104 6.5 -143.5t34 -54.5t97.5 -15t98 15zM130 605v5l92 133h65l92 -133v-5h-41l-84 101l-83 -101h-41zM294 759q0 23 8.5 32.5t32.5 17.5l20 6q31 8 40 15.5t9 26.5q0 17 -7 25t-22.5 10t-49.5 2q-38 0 -95 -5v37q54 7 102 7q65 0 90.5 -14.5t25.5 -56.5
q0 -30 -9.5 -45t-42.5 -26l-22 -7q-21 -6 -28.5 -10t-9.5 -9t-2 -17h-40v11z" />
    <glyph glyph-name="uni1ED6" unicode="&#x1ed6;" horiz-adv-x="623" 
d="M147 17q-48 25 -62 93.5t-14 233.5t14 233.5t62 93.5t164 25q117 0 165 -25t62 -93.5t14 -233.5t-14 -233.5t-62 -93.5t-165 -25q-116 0 -164 25zM437 60q34 15 45 73t11 211t-11 211t-45 73t-126 15q-91 0 -125 -15t-45 -73t-11 -211t11 -211t45 -73t125 -15
q92 0 126 15zM185 744v5l92 133h65l92 -133v-5h-41l-84 101l-83 -101h-41zM456 974q-12 -22 -51 -22q-23 0 -46.5 6.5t-56.5 18.5q-28 10 -46.5 15.5t-35.5 5.5q-18 0 -23.5 -12t-5.5 -45h-37q0 59 12 81t51 22q23 0 45.5 -6.5t58.5 -19.5q28 -10 46 -15t35 -5q19 0 24 11.5
t5 45.5h37q0 -59 -12 -81z" />
    <glyph glyph-name="uni1ED7" unicode="&#x1ed7;" horiz-adv-x="511" 
d="M123 12.5q-40 20.5 -51 72t-11 169.5q0 119 11 170.5t51 72.5t132 21q93 0 132.5 -21t51 -72.5t11.5 -170.5q0 -118 -11.5 -169.5t-51 -72t-132.5 -20.5q-92 0 -132 20.5zM353 56q28 15 34.5 54.5t6.5 143.5t-6.5 144t-34.5 55.5t-98 15.5t-97.5 -15.5t-34 -55
t-6.5 -144.5q0 -104 6.5 -143.5t34 -54.5t97.5 -15t98 15zM128 605v5l92 133h65l92 -133v-5h-41l-84 101l-83 -101h-41zM399 835q-12 -22 -51 -22q-23 0 -46.5 6.5t-56.5 18.5q-28 10 -46.5 15.5t-35.5 5.5q-18 0 -23.5 -12t-5.5 -45h-37q0 59 12 81t51 22q23 0 45.5 -6.5
t58.5 -19.5q28 -10 46 -15t35 -5q19 0 24 11.5t5 45.5h37q0 -59 -12 -81z" />
    <glyph glyph-name="uni1ED8" unicode="&#x1ed8;" horiz-adv-x="623" 
d="M147 17q-48 25 -62 93.5t-14 233.5t14 233.5t62 93.5t164 25q117 0 165 -25t62 -93.5t14 -233.5t-14 -233.5t-62 -93.5t-165 -25q-116 0 -164 25zM437 60q34 15 45 73t11 211t-11 211t-45 73t-126 15q-91 0 -125 -15t-45 -73t-11 -211t11 -211t45 -73t125 -15
q92 0 126 15zM278 -142v80h68v-80h-68zM187 750v5l92 133h65l92 -133v-5h-41l-84 101l-83 -101h-41z" />
    <glyph glyph-name="uni1ED9" unicode="&#x1ed9;" horiz-adv-x="511" 
d="M123 12.5q-40 20.5 -51 72t-11 169.5q0 119 11 170.5t51 72.5t132 21q93 0 132.5 -21t51 -72.5t11.5 -170.5q0 -118 -11.5 -169.5t-51 -72t-132.5 -20.5q-92 0 -132 20.5zM353 56q28 15 34.5 54.5t6.5 143.5t-6.5 144t-34.5 55.5t-98 15.5t-97.5 -15.5t-34 -55
t-6.5 -144.5q0 -104 6.5 -143.5t34 -54.5t97.5 -15t98 15zM221 -142v80h68v-80h-68zM130 605v5l92 133h65l92 -133v-5h-41l-84 101l-83 -101h-41z" />
    <glyph glyph-name="uni1EDA" unicode="&#x1eda;" horiz-adv-x="623" 
d="M573 785v-30q0 -55 -14.5 -76t-59.5 -24q34 -32 43.5 -99t9.5 -212q0 -165 -14 -233.5t-62 -93.5t-165 -25q-116 0 -164 25t-62 93.5t-14 233.5t14 233.5t62 93.5t164 25q74 0 114 -8h51q34 0 43.5 11.5t9.5 45.5v40h44zM437 60q34 15 45 73t11 211t-11 211t-45 73
t-126 15q-91 0 -125 -15t-45 -73t-11 -211t11 -211t45 -73t125 -15q92 0 126 15zM284 748v5l81 135h63v-5l-102 -135h-42z" />
    <glyph glyph-name="uni1EDB" unicode="&#x1edb;" horiz-adv-x="511" 
d="M498 607v-30q0 -40 -6.5 -60.5t-24 -29.5t-53.5 -11q22 -26 29 -75t7 -147q0 -118 -11.5 -169.5t-51 -72t-132.5 -20.5q-92 0 -132 20.5t-51 72t-11 169.5q0 119 11 170.5t51 72.5t132 21q63 0 96 -8h50q34 0 43.5 11.5t9.5 45.5v40h44zM353 56q28 15 34.5 54.5
t6.5 143.5t-6.5 144t-34.5 55.5t-98 15.5t-97.5 -15.5t-34 -55t-6.5 -144.5q0 -104 6.5 -143.5t34 -54.5t97.5 -15t98 15zM229 603v5l81 135h63v-5l-102 -135h-42z" />
    <glyph glyph-name="uni1EDC" unicode="&#x1edc;" horiz-adv-x="623" 
d="M573 785v-30q0 -55 -14.5 -76t-59.5 -24q34 -32 43.5 -99t9.5 -212q0 -165 -14 -233.5t-62 -93.5t-165 -25q-116 0 -164 25t-62 93.5t-14 233.5t14 233.5t62 93.5t164 25q74 0 114 -8h51q34 0 43.5 11.5t9.5 45.5v40h44zM437 60q34 15 45 73t11 211t-11 211t-45 73
t-126 15q-91 0 -125 -15t-45 -73t-11 -211t11 -211t45 -73t125 -15q92 0 126 15zM299 748l-102 135v5h64l80 -135v-5h-42z" />
    <glyph glyph-name="uni1EDD" unicode="&#x1edd;" horiz-adv-x="511" 
d="M498 607v-30q0 -40 -6.5 -60.5t-24 -29.5t-53.5 -11q22 -26 29 -75t7 -147q0 -118 -11.5 -169.5t-51 -72t-132.5 -20.5q-92 0 -132 20.5t-51 72t-11 169.5q0 119 11 170.5t51 72.5t132 21q63 0 96 -8h50q34 0 43.5 11.5t9.5 45.5v40h44zM353 56q28 15 34.5 54.5
t6.5 143.5t-6.5 144t-34.5 55.5t-98 15.5t-97.5 -15.5t-34 -55t-6.5 -144.5q0 -104 6.5 -143.5t34 -54.5t97.5 -15t98 15zM241 603l-102 135v5h64l80 -135v-5h-42z" />
    <glyph glyph-name="uni1EDE" unicode="&#x1ede;" horiz-adv-x="623" 
d="M573 785v-30q0 -55 -14.5 -76t-59.5 -24q34 -32 43.5 -99t9.5 -212q0 -165 -14 -233.5t-62 -93.5t-165 -25q-116 0 -164 25t-62 93.5t-14 233.5t14 233.5t62 93.5t164 25q74 0 114 -8h51q34 0 43.5 11.5t9.5 45.5v40h44zM437 60q34 15 45 73t11 211t-11 211t-45 73
t-126 15q-91 0 -125 -15t-45 -73t-11 -211t11 -211t45 -73t125 -15q92 0 126 15zM266 742q0 23 8.5 32.5t32.5 17.5l20 6q31 8 40 16t9 27q0 17 -7 24.5t-22.5 9.5t-49.5 2q-27 0 -95 -4v36q54 7 102 7q65 0 90.5 -14.5t25.5 -55.5q0 -31 -9.5 -46t-42.5 -26l-22 -6
q-20 -6 -28 -10t-10 -9.5t-2 -17.5h-40v11z" />
    <glyph glyph-name="uni1EDF" unicode="&#x1edf;" horiz-adv-x="511" 
d="M498 607v-30q0 -40 -6.5 -60.5t-24 -29.5t-53.5 -11q22 -26 29 -75t7 -147q0 -118 -11.5 -169.5t-51 -72t-132.5 -20.5q-92 0 -132 20.5t-51 72t-11 169.5q0 119 11 170.5t51 72.5t132 21q63 0 96 -8h50q34 0 43.5 11.5t9.5 45.5v40h44zM353 56q28 15 34.5 54.5
t6.5 143.5t-6.5 144t-34.5 55.5t-98 15.5t-97.5 -15.5t-34 -55t-6.5 -144.5q0 -104 6.5 -143.5t34 -54.5t97.5 -15t98 15zM209 619q0 23 8.5 32.5t32.5 17.5l20 6q31 8 40 15.5t9 26.5q0 17 -7 25t-22.5 10t-49.5 2q-38 0 -95 -5v37q54 7 102 7q65 0 90.5 -14.5t25.5 -56.5
q0 -30 -9.5 -45t-42.5 -26l-22 -7q-21 -6 -28.5 -10t-9.5 -9t-2 -17h-40v11z" />
    <glyph glyph-name="uni1EE0" unicode="&#x1ee0;" horiz-adv-x="623" 
d="M573 785v-30q0 -55 -14.5 -76t-59.5 -24q34 -32 43.5 -99t9.5 -212q0 -165 -14 -233.5t-62 -93.5t-165 -25q-116 0 -164 25t-62 93.5t-14 233.5t14 233.5t62 93.5t164 25q74 0 114 -8h51q34 0 43.5 11.5t9.5 45.5v40h44zM437 60q34 15 45 73t11 211t-11 211t-45 73
t-126 15q-91 0 -125 -15t-45 -73t-11 -211t11 -211t45 -73t125 -15q92 0 126 15zM456 807q-12 -22 -51 -22q-23 0 -46.5 6.5t-56.5 18.5q-28 10 -46.5 15.5t-35.5 5.5q-18 0 -23.5 -12t-5.5 -45h-37q0 59 12 81t51 22q23 0 45.5 -6.5t58.5 -19.5q28 -10 46 -15t35 -5
q19 0 24 11.5t5 45.5h37q0 -59 -12 -81z" />
    <glyph glyph-name="uni1EE1" unicode="&#x1ee1;" horiz-adv-x="511" 
d="M498 607v-30q0 -40 -6.5 -60.5t-24 -29.5t-53.5 -11q22 -26 29 -75t7 -147q0 -118 -11.5 -169.5t-51 -72t-132.5 -20.5q-92 0 -132 20.5t-51 72t-11 169.5q0 119 11 170.5t51 72.5t132 21q63 0 96 -8h50q34 0 43.5 11.5t9.5 45.5v40h44zM353 56q28 15 34.5 54.5
t6.5 143.5t-6.5 144t-34.5 55.5t-98 15.5t-97.5 -15.5t-34 -55t-6.5 -144.5q0 -104 6.5 -143.5t34 -54.5t97.5 -15t98 15zM399 662q-12 -22 -51 -22q-23 0 -46.5 6.5t-56.5 18.5q-28 10 -46.5 15.5t-35.5 5.5q-18 0 -23.5 -12t-5.5 -45h-37q0 59 12 81t51 22q23 0 45.5 -6.5
t58.5 -19.5q28 -10 46 -15t35 -5q19 0 24 11.5t5 45.5h37q0 -59 -12 -81z" />
    <glyph glyph-name="uni1EE2" unicode="&#x1ee2;" horiz-adv-x="623" 
d="M573 785v-30q0 -55 -14.5 -76t-59.5 -24q34 -32 43.5 -99t9.5 -212q0 -165 -14 -233.5t-62 -93.5t-165 -25q-116 0 -164 25t-62 93.5t-14 233.5t14 233.5t62 93.5t164 25q74 0 114 -8h51q34 0 43.5 11.5t9.5 45.5v40h44zM437 60q34 15 45 73t11 211t-11 211t-45 73
t-126 15q-91 0 -125 -15t-45 -73t-11 -211t11 -211t45 -73t125 -15q92 0 126 15zM278 -142v80h68v-80h-68z" />
    <glyph glyph-name="uni1EE3" unicode="&#x1ee3;" horiz-adv-x="511" 
d="M498 607v-30q0 -40 -6.5 -60.5t-24 -29.5t-53.5 -11q22 -26 29 -75t7 -147q0 -118 -11.5 -169.5t-51 -72t-132.5 -20.5q-92 0 -132 20.5t-51 72t-11 169.5q0 119 11 170.5t51 72.5t132 21q63 0 96 -8h50q34 0 43.5 11.5t9.5 45.5v40h44zM353 56q28 15 34.5 54.5
t6.5 143.5t-6.5 144t-34.5 55.5t-98 15.5t-97.5 -15.5t-34 -55t-6.5 -144.5q0 -104 6.5 -143.5t34 -54.5t97.5 -15t98 15zM221 -142v80h68v-80h-68z" />
    <glyph glyph-name="uni1EE4" unicode="&#x1ee4;" horiz-adv-x="617" 
d="M533 688v-391q0 -133 -14 -193.5t-60 -86t-150 -25.5t-150.5 25.5t-60.5 86t-14 193.5v391h59v-424q0 -99 9.5 -141.5t43.5 -60t113 -17.5t112.5 17.5t43 60t9.5 141.5v424h59zM275 -142v80h68v-80h-68z" />
    <glyph glyph-name="uni1EE5" unicode="&#x1ee5;" horiz-adv-x="529" 
d="M397 76h-5q-14 -40 -48.5 -62t-105.5 -22q-68 0 -101.5 19.5t-45 60.5t-11.5 117v321h56v-304q0 -75 9 -108t33.5 -44t79.5 -11q63 0 92 24.5t36 64.5t7 114v264h56v-510h-49zM219 -142v80h68v-80h-68z" />
    <glyph glyph-name="uni1EE6" unicode="&#x1ee6;" horiz-adv-x="617" 
d="M533 688v-391q0 -133 -14 -193.5t-60 -86t-150 -25.5t-150.5 25.5t-60.5 86t-14 193.5v391h59v-424q0 -99 9.5 -141.5t43.5 -60t113 -17.5t112.5 17.5t43 60t9.5 141.5v424h59zM263 742q0 23 8.5 32.5t32.5 17.5l20 6q31 8 40 16t9 27q0 17 -7 24.5t-22.5 9.5t-49.5 2
q-27 0 -95 -4v36q54 7 102 7q65 0 90.5 -14.5t25.5 -55.5q0 -31 -9.5 -46t-42.5 -26l-22 -6q-20 -6 -28 -10t-10 -9.5t-2 -17.5h-40v11z" />
    <glyph glyph-name="uni1EE7" unicode="&#x1ee7;" horiz-adv-x="529" 
d="M397 76h-5q-14 -40 -48.5 -62t-105.5 -22q-68 0 -101.5 19.5t-45 60.5t-11.5 117v321h56v-304q0 -75 9 -108t33.5 -44t79.5 -11q63 0 92 24.5t36 64.5t7 114v264h56v-510h-49zM219 619q0 23 8.5 32.5t32.5 17.5l20 6q31 8 40 15.5t9 26.5q0 17 -7 25t-22.5 10t-49.5 2
q-38 0 -95 -5v37q54 7 102 7q65 0 90.5 -14.5t25.5 -56.5q0 -30 -9.5 -45t-42.5 -26l-22 -7q-21 -6 -28.5 -10t-9.5 -9t-2 -17h-40v11z" />
    <glyph glyph-name="uni1EE8" unicode="&#x1ee8;" horiz-adv-x="617" 
d="M633 785v-30q0 -42 -7.5 -63t-28 -29.5t-61.5 -8.5h-3v-357q0 -133 -14 -193.5t-60 -86t-150 -25.5t-150.5 25.5t-60.5 86t-14 193.5v391h59v-424q0 -99 9.5 -141.5t43.5 -60t113 -17.5t112.5 17.5t43 60t9.5 141.5v424h62q34 0 43.5 11.5t9.5 45.5v40h44zM281 748v5
l81 135h63v-5l-102 -135h-42z" />
    <glyph glyph-name="uni1EE9" unicode="&#x1ee9;" horiz-adv-x="529" 
d="M545 607v-30q0 -42 -7.5 -63t-27.5 -29.5t-61 -8.5v-476h-49l-3 76h-5q-14 -40 -48.5 -62t-105.5 -22q-68 0 -101.5 19.5t-45 60.5t-11.5 117v321h56v-304q0 -75 9 -108t33.5 -44t79.5 -11q63 0 92 24.5t36 64.5t7 114v264h55q34 0 43.5 11.5t9.5 45.5v40h44zM239 603v5
l81 135h63v-5l-102 -135h-42z" />
    <glyph glyph-name="uni1EEA" unicode="&#x1eea;" horiz-adv-x="617" 
d="M633 785v-30q0 -42 -7.5 -63t-28 -29.5t-61.5 -8.5h-3v-357q0 -133 -14 -193.5t-60 -86t-150 -25.5t-150.5 25.5t-60.5 86t-14 193.5v391h59v-424q0 -99 9.5 -141.5t43.5 -60t113 -17.5t112.5 17.5t43 60t9.5 141.5v424h62q34 0 43.5 11.5t9.5 45.5v40h44zM296 748
l-102 135v5h64l80 -135v-5h-42z" />
    <glyph glyph-name="uni1EEB" unicode="&#x1eeb;" horiz-adv-x="529" 
d="M545 607v-30q0 -42 -7.5 -63t-27.5 -29.5t-61 -8.5v-476h-49l-3 76h-5q-14 -40 -48.5 -62t-105.5 -22q-68 0 -101.5 19.5t-45 60.5t-11.5 117v321h56v-304q0 -75 9 -108t33.5 -44t79.5 -11q63 0 92 24.5t36 64.5t7 114v264h55q34 0 43.5 11.5t9.5 45.5v40h44zM251 603
l-102 135v5h64l80 -135v-5h-42z" />
    <glyph glyph-name="uni1EEC" unicode="&#x1eec;" horiz-adv-x="617" 
d="M633 785v-30q0 -42 -7.5 -63t-28 -29.5t-61.5 -8.5h-3v-357q0 -133 -14 -193.5t-60 -86t-150 -25.5t-150.5 25.5t-60.5 86t-14 193.5v391h59v-424q0 -99 9.5 -141.5t43.5 -60t113 -17.5t112.5 17.5t43 60t9.5 141.5v424h62q34 0 43.5 11.5t9.5 45.5v40h44zM263 742
q0 23 8.5 32.5t32.5 17.5l20 6q31 8 40 16t9 27q0 17 -7 24.5t-22.5 9.5t-49.5 2q-27 0 -95 -4v36q54 7 102 7q65 0 90.5 -14.5t25.5 -55.5q0 -31 -9.5 -46t-42.5 -26l-22 -6q-20 -6 -28 -10t-10 -9.5t-2 -17.5h-40v11z" />
    <glyph glyph-name="uni1EED" unicode="&#x1eed;" horiz-adv-x="529" 
d="M545 607v-30q0 -42 -7.5 -63t-27.5 -29.5t-61 -8.5v-476h-49l-3 76h-5q-14 -40 -48.5 -62t-105.5 -22q-68 0 -101.5 19.5t-45 60.5t-11.5 117v321h56v-304q0 -75 9 -108t33.5 -44t79.5 -11q63 0 92 24.5t36 64.5t7 114v264h55q34 0 43.5 11.5t9.5 45.5v40h44zM219 619
q0 23 8.5 32.5t32.5 17.5l20 6q31 8 40 15.5t9 26.5q0 17 -7 25t-22.5 10t-49.5 2q-38 0 -95 -5v37q54 7 102 7q65 0 90.5 -14.5t25.5 -56.5q0 -30 -9.5 -45t-42.5 -26l-22 -7q-21 -6 -28.5 -10t-9.5 -9t-2 -17h-40v11z" />
    <glyph glyph-name="uni1EEE" unicode="&#x1eee;" horiz-adv-x="617" 
d="M633 785v-30q0 -42 -7.5 -63t-28 -29.5t-61.5 -8.5h-3v-357q0 -133 -14 -193.5t-60 -86t-150 -25.5t-150.5 25.5t-60.5 86t-14 193.5v391h59v-424q0 -99 9.5 -141.5t43.5 -60t113 -17.5t112.5 17.5t43 60t9.5 141.5v424h62q34 0 43.5 11.5t9.5 45.5v40h44zM453 807
q-12 -22 -51 -22q-23 0 -46.5 6.5t-56.5 18.5q-28 10 -46.5 15.5t-35.5 5.5q-18 0 -23.5 -12t-5.5 -45h-37q0 59 12 81t51 22q23 0 45.5 -6.5t58.5 -19.5q28 -10 46 -15t35 -5q19 0 24 11.5t5 45.5h37q0 -59 -12 -81z" />
    <glyph glyph-name="uni1EEF" unicode="&#x1eef;" horiz-adv-x="529" 
d="M545 607v-30q0 -42 -7.5 -63t-27.5 -29.5t-61 -8.5v-476h-49l-3 76h-5q-14 -40 -48.5 -62t-105.5 -22q-68 0 -101.5 19.5t-45 60.5t-11.5 117v321h56v-304q0 -75 9 -108t33.5 -44t79.5 -11q63 0 92 24.5t36 64.5t7 114v264h55q34 0 43.5 11.5t9.5 45.5v40h44zM409 662
q-12 -22 -51 -22q-23 0 -46.5 6.5t-56.5 18.5q-28 10 -46.5 15.5t-35.5 5.5q-18 0 -23.5 -12t-5.5 -45h-37q0 59 12 81t51 22q23 0 45.5 -6.5t58.5 -19.5q28 -10 46 -15t35 -5q19 0 24 11.5t5 45.5h37q0 -59 -12 -81z" />
    <glyph glyph-name="uni1EF0" unicode="&#x1ef0;" horiz-adv-x="617" 
d="M633 785v-30q0 -42 -7.5 -63t-28 -29.5t-61.5 -8.5h-3v-357q0 -133 -14 -193.5t-60 -86t-150 -25.5t-150.5 25.5t-60.5 86t-14 193.5v391h59v-424q0 -99 9.5 -141.5t43.5 -60t113 -17.5t112.5 17.5t43 60t9.5 141.5v424h62q34 0 43.5 11.5t9.5 45.5v40h44zM275 -142v80
h68v-80h-68z" />
    <glyph glyph-name="uni1EF1" unicode="&#x1ef1;" horiz-adv-x="529" 
d="M545 607v-30q0 -42 -7.5 -63t-27.5 -29.5t-61 -8.5v-476h-49l-3 76h-5q-14 -40 -48.5 -62t-105.5 -22q-68 0 -101.5 19.5t-45 60.5t-11.5 117v321h56v-304q0 -75 9 -108t33.5 -44t79.5 -11q63 0 92 24.5t36 64.5t7 114v264h55q34 0 43.5 11.5t9.5 45.5v40h44zM219 -142
v80h68v-80h-68z" />
    <glyph glyph-name="Ygrave" unicode="&#x1ef2;" horiz-adv-x="518" 
d="M229 0v271l-218 417h63l183 -349h7l182 349h62l-220 -417v-271h-59zM247 748l-102 135v5h64l80 -135v-5h-42z" />
    <glyph glyph-name="ygrave" unicode="&#x1ef3;" horiz-adv-x="529" 
d="M95 -196v48q77 -5 141 -5q71 0 104 19t43 59.5t10 120.5v24h-5q-12 -35 -46 -56t-104 -21q-68 0 -101.5 20t-45 62t-11.5 120v315h56v-304q0 -74 9 -107t33.5 -44t79.5 -11q63 0 92 24t36 64t7 114v264h56v-442q0 -106 -15 -162.5t-58 -82.5t-130 -26q-83 0 -151 7z
M251 603l-102 135v5h64l80 -135v-5h-42z" />
    <glyph glyph-name="uni1EF4" unicode="&#x1ef4;" horiz-adv-x="518" 
d="M229 0v271l-218 417h63l183 -349h7l182 349h62l-220 -417v-271h-59zM226 -142v80h68v-80h-68z" />
    <glyph glyph-name="uni1EF5" unicode="&#x1ef5;" horiz-adv-x="529" 
d="M95 -196v48q77 -5 141 -5q71 0 104 19t43 59.5t10 120.5v24h-5q-12 -35 -46 -56t-104 -21q-68 0 -101.5 20t-45 62t-11.5 120v315h56v-304q0 -74 9 -107t33.5 -44t79.5 -11q63 0 92 24t36 64t7 114v264h56v-442q0 -106 -15 -162.5t-58 -82.5t-130 -26q-83 0 -151 7z
M212 -345v80h68v-80h-68z" />
    <glyph glyph-name="uni1EF6" unicode="&#x1ef6;" horiz-adv-x="518" 
d="M229 0v271l-218 417h63l183 -349h7l182 349h62l-220 -417v-271h-59zM214 742q0 23 8.5 32.5t32.5 17.5l20 6q31 8 40 16t9 27q0 17 -7 24.5t-22.5 9.5t-49.5 2q-27 0 -95 -4v36q54 7 102 7q65 0 90.5 -14.5t25.5 -55.5q0 -31 -9.5 -46t-42.5 -26l-22 -6q-20 -6 -28 -10
t-10 -9.5t-2 -17.5h-40v11z" />
    <glyph glyph-name="uni1EF7" unicode="&#x1ef7;" horiz-adv-x="529" 
d="M95 -196v48q77 -5 141 -5q71 0 104 19t43 59.5t10 120.5v24h-5q-12 -35 -46 -56t-104 -21q-68 0 -101.5 20t-45 62t-11.5 120v315h56v-304q0 -74 9 -107t33.5 -44t79.5 -11q63 0 92 24t36 64t7 114v264h56v-442q0 -106 -15 -162.5t-58 -82.5t-130 -26q-83 0 -151 7z
M219 619q0 23 8.5 32.5t32.5 17.5l20 6q31 8 40 15.5t9 26.5q0 17 -7 25t-22.5 10t-49.5 2q-38 0 -95 -5v37q54 7 102 7q65 0 90.5 -14.5t25.5 -56.5q0 -30 -9.5 -45t-42.5 -26l-22 -7q-21 -6 -28.5 -10t-9.5 -9t-2 -17h-40v11z" />
    <glyph glyph-name="uni1EF8" unicode="&#x1ef8;" horiz-adv-x="518" 
d="M229 0v271l-218 417h63l183 -349h7l182 349h62l-220 -417v-271h-59zM404 807q-12 -22 -51 -22q-23 0 -46.5 6.5t-56.5 18.5q-28 10 -46.5 15.5t-35.5 5.5q-18 0 -23.5 -12t-5.5 -45h-37q0 59 12 81t51 22q23 0 45.5 -6.5t58.5 -19.5q28 -10 46 -15t35 -5q19 0 24 11.5
t5 45.5h37q0 -59 -12 -81z" />
    <glyph glyph-name="uni1EF9" unicode="&#x1ef9;" horiz-adv-x="529" 
d="M95 -196v48q77 -5 141 -5q71 0 104 19t43 59.5t10 120.5v24h-5q-12 -35 -46 -56t-104 -21q-68 0 -101.5 20t-45 62t-11.5 120v315h56v-304q0 -74 9 -107t33.5 -44t79.5 -11q63 0 92 24t36 64t7 114v264h56v-442q0 -106 -15 -162.5t-58 -82.5t-130 -26q-83 0 -151 7z
M409 662q-12 -22 -51 -22q-23 0 -46.5 6.5t-56.5 18.5q-28 10 -46.5 15.5t-35.5 5.5q-18 0 -23.5 -12t-5.5 -45h-37q0 59 12 81t51 22q23 0 45.5 -6.5t58.5 -19.5q28 -10 46 -15t35 -5q19 0 24 11.5t5 45.5h37q0 -59 -12 -81z" />
    <glyph glyph-name="uni2002" unicode="&#x2002;" horiz-adv-x="300" 
 />
    <glyph glyph-name="endash" unicode="&#x2013;" horiz-adv-x="450" 
d="M59 279v50h331v-50h-331z" />
    <glyph glyph-name="emdash" unicode="&#x2014;" horiz-adv-x="848" 
d="M59 279v50h729v-50h-729z" />
    <glyph glyph-name="underscoredbl" unicode="&#x2017;" horiz-adv-x="331" 
d="M0 -260v48h331v-48h-331zM0 -159v48h331v-48h-331z" />
    <glyph glyph-name="quoteleft" unicode="&#x2018;" horiz-adv-x="179" 
d="M55 578q0 46 7 68.5t25.5 32t57.5 9.5v-29q-33 0 -42 -12.5t-9 -50.5v-17h28v-79h-67v78z" />
    <glyph glyph-name="quoteright" unicode="&#x2019;" horiz-adv-x="179" 
d="M76 541.5q9 12.5 9 51.5v17h-28v78h67v-77q0 -46 -7 -69t-25.5 -32.5t-57.5 -9.5v29q33 0 42 12.5z" />
    <glyph glyph-name="quotesinglbase" unicode="&#x201a;" horiz-adv-x="187" 
d="M78 -68q9 12 9 51v17h-27v78h67v-77q0 -46 -7 -69t-26 -32t-58 -9v29q33 0 42 12z" />
    <glyph glyph-name="quotedblleft" unicode="&#x201c;" horiz-adv-x="314" 
d="M55 578q0 46 7 68.5t25.5 32t57.5 9.5v-29q-33 0 -42 -12.5t-9 -50.5v-17h28v-79h-67v78zM189 578q0 45 7 68t26 32.5t58 9.5v-29q-33 0 -42 -12.5t-9 -50.5v-17h27v-79h-67v78z" />
    <glyph glyph-name="quotedblright" unicode="&#x201d;" horiz-adv-x="314" 
d="M76 541.5q9 12.5 9 51.5v17h-28v78h67v-77q0 -46 -7 -69t-25.5 -32.5t-57.5 -9.5v29q33 0 42 12.5zM210 541.5q9 12.5 9 51.5v17h-27v78h67v-77q0 -46 -7 -69t-26 -32.5t-58 -9.5v29q33 0 42 12.5z" />
    <glyph glyph-name="quotedblbase" unicode="&#x201e;" horiz-adv-x="321" 
d="M78 -68q9 12 9 51v17h-27v78h67v-77q0 -46 -7 -69t-26 -32t-58 -9v29q33 0 42 12zM213 -68q9 12 9 51v17h-28v78h67v-77q0 -46 -7 -69t-25.5 -32t-57.5 -9v29q33 0 42 12z" />
    <glyph glyph-name="dagger" unicode="&#x2020;" horiz-adv-x="382" 
d="M171 0l-7 457l-116 7v37l116 7l7 180h38l7 -180l118 -7v-37l-118 -7l-7 -457h-38z" />
    <glyph glyph-name="daggerdbl" unicode="&#x2021;" horiz-adv-x="382" 
d="M171 0l-7 180l-116 6v38l116 7v226l-116 7v37l116 7l7 180h38l7 -180l118 -7v-37l-118 -7v-226l118 -7v-38l-118 -6l-7 -180h-38z" />
    <glyph glyph-name="bullet" unicode="&#x2022;" horiz-adv-x="327" 
d="M255.5 278q-5.5 -18 -25 -25t-68.5 -7q-47 0 -66 7t-24 25t-5 64q0 47 5 66t24 26t66 7q49 0 68.5 -7t25 -26t5.5 -66q0 -46 -5.5 -64z" />
    <glyph glyph-name="ellipsis" unicode="&#x2026;" horiz-adv-x="564" 
d="M60 0v80h68v-80h-68zM248 0v80h68v-80h-68zM436 0v80h68v-80h-68z" />
    <glyph glyph-name="perthousand" unicode="&#x2030;" horiz-adv-x="850" 
d="M91 373q-22 13 -29 46.5t-7 108.5t7 108.5t29 46.5t72 13t72 -13t28.5 -46.5t6.5 -108.5t-6.5 -108.5t-28.5 -46.5t-72 -13t-72 13zM73 0l401 688h48l-401 -688h-48zM207 405.5q12 6.5 16 31.5t4 91q0 68 -3.5 92t-15.5 30.5t-45 6.5t-45 -6.5t-16 -31.5t-4 -91t4 -91
t16 -31.5t45 -6.5q32 0 44 6.5zM361 5q-22 13 -29 46.5t-7 108.5t7 108.5t29 46.5t72 13t72 -13t28.5 -46.5t6.5 -108.5t-6.5 -108.5t-28.5 -46.5t-72 -13t-72 13zM616 5q-22 13 -29 46.5t-7 108.5t7 108.5t29 46.5t72 13t72 -13t28.5 -46.5t6.5 -108.5t-6.5 -108.5
t-28.5 -46.5t-72 -13t-72 13zM477 37.5q12 6.5 16 31.5t4 91q0 68 -3.5 92t-15 30.5t-45.5 6.5q-32 0 -44.5 -6.5t-16.5 -31.5t-4 -91q0 -65 4 -90.5t16.5 -32t44.5 -6.5t44 6.5zM732.5 37.5q12.5 6.5 16.5 32t4 90.5q0 67 -3.5 91.5t-15.5 31t-46 6.5q-32 0 -44.5 -6.5
t-16.5 -32t-4 -90.5t4 -90.5t16.5 -32t44.5 -6.5t44.5 6.5z" />
    <glyph glyph-name="minute" unicode="&#x2032;" horiz-adv-x="170" 
d="M47 389l19 299h57l-9 -142l-29 -157h-38z" />
    <glyph glyph-name="second" unicode="&#x2033;" horiz-adv-x="299" 
d="M175 389l19 299h57l-9 -142l-29 -157h-38zM47 389l19 299h57l-9 -142l-29 -157h-38z" />
    <glyph glyph-name="guilsinglleft" unicode="&#x2039;" horiz-adv-x="268" 
d="M159 101l-114 204l114 205h43l-100 -205l100 -204h-43z" />
    <glyph glyph-name="guilsinglright" unicode="&#x203a;" horiz-adv-x="268" 
d="M65 101l100 204l-100 205h44l115 -205l-115 -204h-44z" />
    <glyph glyph-name="exclamdbl" unicode="&#x203c;" horiz-adv-x="389" 
d="M260 357q-6 162 -6 207v124h65v-124q0 -45 -6 -207l-5 -173h-43zM252 0v80h68v-80h-68zM78 357q-6 162 -6 207v124h65v-124q0 -45 -6 -207l-5 -173h-43zM70 0v80h68v-80h-68z" />
    <glyph glyph-name="fraction" unicode="&#x2044;" horiz-adv-x="124" 
d="M-158 0l392 688h49l-393 -688h-48z" />
    <glyph glyph-name="Euro" unicode="&#x20ac;" horiz-adv-x="537" 
d="M207.5 10.5q-46.5 18.5 -67.5 71.5t-25 165h-77v44h76v109h-76v43h77q5 109 26 161.5t68 72t140 19.5q35 0 71.5 -4t59.5 -9v-50q-60 10 -118 10q-80 0 -117 -13t-52.5 -54t-18.5 -133h262v-43h-263v-109h263v-44h-262q3 -94 18.5 -135t52 -54t117.5 -13q65 0 121 10v-52
q-66 -11 -134 -11q-95 0 -141.5 18.5z" />
    <glyph glyph-name="uni20B2" unicode="&#x20b2;" horiz-adv-x="547" 
d="M476 368v-69q0 -98 -10 -142t-45 -63.5t-116 -21.5v-80h-48v80q-80 2 -118 23.5t-53 77.5t-15 171q0 114 15 169.5t53.5 77.5t117.5 25v80h48v-80q86 -3 151 -18v-50q-38 7 -80.5 11t-70.5 4v-195h171zM139 203.5q9 -43.5 34.5 -60t83.5 -18.5v437q-57 -2 -82.5 -17
t-35 -59t-9.5 -142q0 -97 9 -140.5zM418 316h-113v-191q54 2 77 14.5t29.5 45t6.5 109.5v22z" />
    <glyph glyph-name="uni2113" unicode="&#x2113;" horiz-adv-x="411" 
d="M175 80q19 -34 59 -34q25 0 53 13.5t66 44.5v-61q-33 -25 -63 -37.5t-62 -12.5q-61 0 -92.5 42t-41.5 141q-25 -10 -65 -17v54q34 6 61 19q-2 56 -2 92q0 129 14 209.5t47.5 121t91.5 40.5q56 0 84 -35t28 -98q0 -62 -24.5 -130.5t-71 -129t-108.5 -98.5q7 -90 26 -124z
M183.5 608.5q-20.5 -33.5 -29 -102t-8.5 -179.5q0 -43 1 -62q70 53 110.5 136.5t40.5 160.5q0 80 -58 80q-36 0 -56.5 -33.5z" />
    <glyph glyph-name="uni2116" unicode="&#x2116;" horiz-adv-x="936" 
d="M669 409.5q-24 12.5 -30.5 41.5t-6.5 95t6.5 95.5t30.5 42t78 12.5q55 0 79 -12.5t30.5 -42t6.5 -95.5t-6.5 -95t-30.5 -41.5t-79 -12.5q-54 0 -78 12.5zM485 0l-333 569h-4v-569h-56v688h60l330 -563h4v563h57v-688h-58zM797 443.5q14 8.5 17.5 29t3.5 73.5t-3.5 73.5
t-17.5 29t-50 8.5t-50 -8.5t-17.5 -29t-3.5 -73.5t3.5 -73.5t17.5 -29t50 -8.5t50 8.5zM637 229v48h219v-48h-219z" />
    <glyph glyph-name="trademark" unicode="&#x2122;" horiz-adv-x="639" 
d="M122 385v273h-84v30h201v-30h-84v-273h-33zM290 385v303h42l93 -250h4l91 250h43v-303h-32v240h-4l-88 -240h-26l-89 239h-4v-239h-30z" />
    <glyph glyph-name="uni2126" unicode="&#x2126;" horiz-adv-x="627" 
d="M75 52h4q24 -2 70 -8l33 -4v6q-47 17 -70.5 56.5t-31 100t-7.5 159.5q0 146 14 211.5t63.5 94t162.5 28.5t163 -28.5t64 -94t14 -211.5q0 -99 -8 -159.5t-31.5 -100t-70.5 -56.5v-6q13 1 37 5l66 7h5v-52h-192v48q62 11 90 40t36.5 88t8.5 183q0 137 -11 192t-47 73.5
t-124 18.5t-123.5 -18.5t-46.5 -73.5t-11 -192q0 -124 8.5 -183t36.5 -88t90 -40v-48h-192v52z" />
    <glyph glyph-name="estimated" unicode="&#x212e;" horiz-adv-x="623" 
d="M142.5 114q11.5 -58 46 -73t125.5 -15q83 0 119.5 9.5t54.5 45t23 119.5h36q-5 -90 -25.5 -133.5t-67.5 -59t-143 -15.5q-116 0 -164 25t-62 93.5t-14 233.5t14 233.5t62 93.5t164 25q117 0 165 -25t62 -93.5t14 -233.5v-21h-422q1 -151 12.5 -209zM187 646.5
q-34 -15.5 -45.5 -75t-11.5 -214.5h363q0 155 -11.5 214.5t-45.5 75t-125 15.5q-90 0 -124 -15.5z" />
    <glyph glyph-name="uni2153" unicode="&#x2153;" horiz-adv-x="691" 
d="M104 318v314l-66 -33v44l78 45h33v-370h-45zM62 0l393 688h49l-393 -688h-49zM498 34q43 0 62.5 13t19.5 52q0 37 -13.5 53t-43.5 16h-67v40h67q53 0 53 64q0 39 -18.5 51.5t-63.5 12.5q-39 0 -90 -8v41q52 9 98 9q67 0 93.5 -23.5t26.5 -79.5q0 -33 -11.5 -52.5
t-34.5 -30.5v-4q50 -20 50 -88q0 -37 -10 -60.5t-37 -35.5t-78 -12q-43 0 -99 9v40q77 -7 96 -7z" />
    <glyph glyph-name="uni2154" unicode="&#x2154;" horiz-adv-x="754" 
d="M277 318h-224v45q0 45 2.5 64.5t11.5 32t32 23.5q54 28 95 47q22 11 29.5 24.5t7.5 40.5q0 36 -14 47t-58 11q-22 0 -101 -7v41q53 9 109 9q36 0 59 -6t37 -27t14 -63q0 -45 -13 -67t-47 -39l-95 -46q-17 -9 -21.5 -20t-4.5 -42v-25h181v-43zM547 688h49l-392 -688h-49z
M689 100q0 -37 -10 -60.5t-37 -35.5t-78 -12q-43 0 -99 9v40q77 -7 96 -7q43 0 62.5 13t19.5 52q0 37 -13.5 53t-43.5 16h-67v40h67q53 0 53 64q0 39 -18.5 51.5t-63.5 12.5q-39 0 -90 -8v41q52 9 98 9q67 0 93.5 -23.5t26.5 -79.5q0 -33 -11.5 -52.5t-34.5 -30.5v-4
q50 -20 50 -88z" />
    <glyph glyph-name="oneeighth" unicode="&#x215b;" horiz-adv-x="711" 
d="M104 318v314l-66 -33v44l78 45h33v-370h-45zM62 0l393 688h49l-393 -688h-49zM426.5 7q-28.5 11 -39.5 33t-11 60q0 46 15 65t49 27v2q-32 6 -47 27t-15 62q0 54 28.5 76.5t103.5 22.5t103.5 -22.5t28.5 -76.5q0 -41 -14.5 -62t-46.5 -27v-2q35 -8 50 -27t15 -65
q0 -38 -11 -60t-40.5 -33t-84.5 -11t-83.5 11zM564.5 216.5q17.5 5.5 24.5 19t7 40.5q0 28 -7 41.5t-24.5 19t-53.5 5.5t-54.5 -5.5t-25.5 -19.5t-7 -41t7.5 -40.5t25.5 -19t54 -5.5t53.5 5.5zM565.5 41q18.5 5 26.5 19t8 43q0 30 -7.5 44t-25.5 19t-56 5t-56 -5t-25.5 -19
t-7.5 -44q0 -29 8 -43t26.5 -19t54.5 -5t54.5 5z" />
    <glyph glyph-name="threeeighths" unicode="&#x215c;" horiz-adv-x="779" 
d="M28 312v39q51 -6 99 -6q51 0 72.5 12t21.5 53q0 39 -15.5 54t-52.5 15h-68v40h68q30 0 47 13.5t17 51.5q0 28 -9.5 41.5t-29 18t-56.5 4.5q-44 0 -92 -5v38q50 9 104 9q72 0 100.5 -22.5t28.5 -76.5q0 -40 -15.5 -61t-45.5 -28v-2q32 -6 48.5 -27t16.5 -65q0 -37 -11 -59
t-40.5 -33.5t-82.5 -11.5q-55 0 -105 8zM148 0l392 688h49l-393 -688h-48zM520.5 7q-28.5 11 -39.5 33t-11 60q0 46 15 65t49 27v2q-32 6 -47 27t-15 62q0 54 28.5 76.5t103.5 22.5t103.5 -22.5t28.5 -76.5q0 -41 -14.5 -62t-46.5 -27v-2q35 -8 50 -27t15 -65q0 -38 -11 -60
t-40.5 -33t-84.5 -11t-83.5 11zM658.5 216.5q17.5 5.5 24.5 19t7 40.5q0 28 -7 41.5t-24.5 19t-53.5 5.5t-54.5 -5.5t-25.5 -19.5t-7 -41t7.5 -40.5t25.5 -19t54 -5.5t53.5 5.5zM659.5 41q18.5 5 26.5 19t8 43q0 30 -7.5 44t-25.5 19t-56 5t-56 -5t-25.5 -19t-7.5 -44
q0 -29 8 -43t26.5 -19t54.5 -5t54.5 5z" />
    <glyph glyph-name="fiveeighths" unicode="&#x215d;" horiz-adv-x="791" 
d="M140 345q40 0 60.5 6.5t28 22t7.5 46.5q0 33 -8.5 48t-29 20t-65.5 5q-40 0 -86 -6v198h210v-41h-167v-115q30 5 75 5q49 0 74.5 -12t34 -35t8.5 -62q0 -45 -11 -71t-40 -38t-83 -12q-57 0 -105 8v39q49 -6 97 -6zM160 0l392 688h49l-393 -688h-48zM532.5 7
q-28.5 11 -39.5 33t-11 60q0 46 15 65t49 27v2q-32 6 -47 27t-15 62q0 54 28.5 76.5t103.5 22.5t103.5 -22.5t28.5 -76.5q0 -41 -14.5 -62t-46.5 -27v-2q35 -8 50 -27t15 -65q0 -38 -11 -60t-40.5 -33t-84.5 -11t-83.5 11zM670.5 216.5q17.5 5.5 24.5 19t7 40.5
q0 28 -7 41.5t-24.5 19t-53.5 5.5t-54.5 -5.5t-25.5 -19.5t-7 -41t7.5 -40.5t25.5 -19t54 -5.5t53.5 5.5zM671.5 41q18.5 5 26.5 19t8 43q0 30 -7.5 44t-25.5 19t-56 5t-56 -5t-25.5 -19t-7.5 -44q0 -29 8 -43t26.5 -19t54.5 -5t54.5 5z" />
    <glyph glyph-name="seveneighths" unicode="&#x215e;" horiz-adv-x="721" 
d="M70 308l145 336h-194v41h243v-36l-144 -341h-50zM90 0l392 688h49l-393 -688h-48zM462.5 7q-28.5 11 -39.5 33t-11 60q0 46 15 65t49 27v2q-32 6 -47 27t-15 62q0 54 28.5 76.5t103.5 22.5t103.5 -22.5t28.5 -76.5q0 -41 -14.5 -62t-46.5 -27v-2q35 -8 50 -27t15 -65
q0 -38 -11 -60t-40.5 -33t-84.5 -11t-83.5 11zM600.5 216.5q17.5 5.5 24.5 19t7 40.5q0 28 -7 41.5t-24.5 19t-53.5 5.5t-54.5 -5.5t-25.5 -19.5t-7 -41t7.5 -40.5t25.5 -19t54 -5.5t53.5 5.5zM601.5 41q18.5 5 26.5 19t8 43q0 30 -7.5 44t-25.5 19t-56 5t-56 -5t-25.5 -19
t-7.5 -44q0 -29 8 -43t26.5 -19t54.5 -5t54.5 5z" />
    <glyph glyph-name="arrowleft" unicode="&#x2190;" horiz-adv-x="883" 
d="M271 279l40 -95l-256 120l256 121l-40 -96h557v-50h-557z" />
    <glyph glyph-name="arrowup" unicode="&#x2191;" horiz-adv-x="395" 
d="M173 -81v548l-96 -39l121 263l120 -263l-95 39v-548h-50z" />
    <glyph glyph-name="arrowright" unicode="&#x2192;" horiz-adv-x="883" 
d="M565 184l39 95h-549v50h549l-39 96l263 -121z" />
    <glyph glyph-name="arrowdown" unicode="&#x2193;" horiz-adv-x="395" 
d="M198 -85l-121 263l96 -40v550h50v-550l95 40z" />
    <glyph glyph-name="arrowboth" unicode="&#x2194;" horiz-adv-x="883" 
d="M318 184l-263 120l263 121l-40 -96h326l-39 96l263 -121l-263 -120l39 95h-326z" />
    <glyph glyph-name="arrowupdn" unicode="&#x2195;" horiz-adv-x="395" 
d="M198 -85l-121 263l96 -40v334l-96 -39l121 263l120 -263l-95 39v-334l95 40z" />
    <glyph glyph-name="arrowupdnbse" unicode="&#x21a8;" horiz-adv-x="395" 
d="M198 -85l-121 263l96 -40v334l-96 -39l121 263l120 -263l-95 39v-334l95 40zM55 -173v47h285v-47h-285z" />
    <glyph glyph-name="partialdiff" unicode="&#x2202;" horiz-adv-x="511" 
d="M123 13.5q-40 21.5 -51 72.5t-11 168q0 115 10.5 167t48.5 74.5t124 22.5q79 0 122 -31l5 2q-23 77 -58.5 138t-92.5 112v4h63q59 -51 100.5 -135.5t53.5 -169.5q13 -86 13 -163q0 -130 -10 -184t-49.5 -76.5t-135.5 -22.5q-92 0 -132 21.5zM353.5 56.5
q27.5 15.5 34 54.5t6.5 143q0 91 -6.5 131.5t-35.5 62t-97 21.5q-70 0 -97.5 -15.5t-34 -54.5t-6.5 -145q0 -104 6.5 -143t34 -54.5t97.5 -15.5q71 0 98.5 15.5z" />
    <glyph glyph-name="uni2206" unicode="&#x2206;" horiz-adv-x="591" 
d="M28 0l231 688h72l231 -688h-534zM297 616h-5l-189 -564h382z" />
    <glyph glyph-name="product" unicode="&#x220f;" horiz-adv-x="634" 
d="M484 -190v825h-334v-825h-58v878h451v-878h-59z" />
    <glyph glyph-name="summation" unicode="&#x2211;" horiz-adv-x="616" 
d="M83 -190v49l274 390l-274 390v49h450v-53h-379l273 -386l-273 -386h379v-53h-450z" />
    <glyph glyph-name="minus" unicode="&#x2212;" horiz-adv-x="512" 
d="M66 229v48h380v-48h-380z" />
    <glyph glyph-name="radical" unicode="&#x221a;" horiz-adv-x="531" 
d="M249 -106l-158 367l-53 -23l-15 39l102 46l153 -362l180 809h55l-197 -876h-67z" />
    <glyph glyph-name="infinity" unicode="&#x221e;" horiz-adv-x="916" 
d="M134.5 76q-41.5 23 -57.5 67t-16 113t16 113t57.5 67t116.5 23q86 0 132 -37t75 -103q29 66 75.5 103t132.5 37q75 0 116 -23t57 -67t16 -113q0 -70 -16 -113.5t-57 -66.5t-116 -23q-86 0 -132.5 37t-75.5 103q-29 -67 -75 -103.5t-132 -36.5q-75 0 -116.5 23zM370 141.5
q39 41.5 62 114.5q-23 73 -62 114.5t-117 41.5q-57 0 -88 -18t-42.5 -51t-11.5 -87t11.5 -87t42.5 -51t88 -18q78 0 117 41.5zM752.5 118q30.5 18 41.5 51t11 87t-11 87t-41.5 51t-87.5 18q-79 0 -119 -42t-61 -114q21 -72 61 -114t119 -42q57 0 87.5 18z" />
    <glyph glyph-name="integral" unicode="&#x222b;" horiz-adv-x="360" 
d="M62 -145q42 0 64 4.5t31 16.5t9 34l-4 79l-36 563q-1 19 -1 41q0 46 17.5 68t50 28.5t92.5 6.5v-45q-41 0 -63 -4.5t-31 -16.5t-9 -35l2 -43l35 -563q3 -61 3 -76q0 -47 -17.5 -69t-50 -28t-92.5 -6v45z" />
    <glyph glyph-name="approxequal" unicode="&#x2248;" horiz-adv-x="468" 
d="M72.5 349.5q4.5 21.5 19 32t43.5 10.5q25 0 48.5 -6.5t61.5 -19.5q32 -11 50 -16t36 -5q21 0 27 12.5t6 45.5h37q0 -59 -13 -81.5t-55 -22.5q-24 0 -49 6.5t-60 19.5q-32 11 -50.5 16t-36.5 5q-20 0 -26 -12t-6 -46h-37q0 40 4.5 61.5zM72.5 167.5q4.5 21.5 19 32
t43.5 10.5q21 0 42 -5t40.5 -11.5t27.5 -9.5q32 -11 50 -16t36 -5q21 0 27 12t6 46h37q0 -59 -13 -81.5t-55 -22.5q-24 0 -48.5 6.5t-61.5 19.5q-29 10 -48 15.5t-38 5.5q-20 0 -26 -12.5t-6 -45.5h-37q0 40 4.5 61.5z" />
    <glyph glyph-name="notequal" unicode="&#x2260;" horiz-adv-x="512" 
d="M219 134l-59 -124h-48l59 124h-105v48h128l69 142h-197v48h220l62 128h47l-61 -128h112v-48h-136l-68 -142h204v-48h-227z" />
    <glyph glyph-name="lessequal" unicode="&#x2264;" horiz-adv-x="513" 
d="M447 180l-380 166v63l380 167v-53l-332 -145l332 -145v-53zM67 15v48h380v-48h-380z" />
    <glyph glyph-name="greaterequal" unicode="&#x2265;" horiz-adv-x="513" 
d="M66 180v53l332 145l-332 145v53l380 -167v-63zM66 15v48h380v-48h-380z" />
    <glyph glyph-name="house" unicode="&#x2302;" horiz-adv-x="635" 
d="M46 0v392l246 303h51l246 -303v-392h-543zM98 45h439v334l-219 269l-220 -269v-334z" />
    <glyph glyph-name="lozenge" unicode="&#x25ca;" horiz-adv-x="488" 
d="M214 0l-161 344l161 345h60l161 -345l-161 -344h-60zM244 45l139 299l-139 300l-139 -300z" />
    <glyph glyph-name="uniA78B" unicode="&#xa78b;" horiz-adv-x="115" 
d="M29 289v399h57v-177l-19 -222h-38z" />
    <glyph glyph-name="uniA78C" unicode="&#xa78c;" horiz-adv-x="115" 
d="M29 289v454h57v-232l-19 -222h-38z" />
    <glyph glyph-name="uniF8FF" unicode="&#xf8ff;" horiz-adv-x="841" 
d="M72 0v698h697v-698h-697zM594.5 473.5q-23.5 41.5 -68 65.5t-104.5 24q-61 0 -105.5 -24t-68.5 -65.5t-24 -91.5v-66q0 -50 24 -91.5t68.5 -65.5t105.5 -24q60 0 104.5 24t68 65.5t23.5 91.5v66q0 50 -23.5 91.5zM465 247.5q-18 -17.5 -43 -17.5q-26 0 -44 17.5t-18 42.5
v118q0 25 18 42.5t44 17.5q25 0 43 -17.5t18 -42.5v-118q0 -25 -18 -42.5z" />
    <glyph glyph-name="Iacute_J.loclNLD" horiz-adv-x="535" 
d="M93 0v688h59v-688h-59zM95 748v5l81 135h63v-5l-102 -135h-42zM359 63q22 10 27.5 44t5.5 135v446h59v-426q0 -135 -9.5 -184t-42.5 -63t-126 -15v51q64 2 86 12zM394 748v5l81 135h63v-5l-102 -135h-42z" />
    <glyph glyph-name="G_tilde.loclGUA" horiz-adv-x="584" 
d="M303 307v52h203v-349q-40 -8 -93 -13t-94 -5q-108 0 -158.5 25.5t-70 98t-19.5 228.5q0 155 19.5 227.5t70.5 98.5t159 26q45 0 97.5 -5.5t86.5 -13.5v-49q-36 6 -80.5 10.5t-72.5 4.5q-104 0 -145.5 -15t-58.5 -75.5t-17 -208.5q0 -138 12.5 -197.5t50.5 -81t126 -21.5
q28 0 66 3t64 7v253h-146zM436 807q-12 -22 -51 -22q-23 0 -46.5 6.5t-56.5 18.5q-28 10 -46.5 15.5t-35.5 5.5q-18 0 -23.5 -12t-5.5 -45h-37q0 59 12 81t51 22q23 0 45.5 -6.5t58.5 -19.5q28 -10 46 -15t35 -5q19 0 24 11.5t5 45.5h37q0 -59 -12 -81z" />
    <glyph glyph-name="Y.loclGUA" horiz-adv-x="518" 
d="M483 688v-184q0 -127 -12 -186.5t-52.5 -87t-130.5 -31.5v-199h-59v200q-89 3 -129 30.5t-52.5 87.5t-12.5 186v184h59v-216q0 -99 9.5 -142t43 -60.5t112.5 -17.5t113 17.5t43.5 60.5t9.5 142v216h58z" />
    <glyph glyph-name="Yacute.loclGUA" horiz-adv-x="518" 
d="M483 688v-184q0 -127 -12 -186.5t-52.5 -87t-130.5 -31.5v-199h-59v200q-89 3 -129 30.5t-52.5 87.5t-12.5 186v184h59v-216q0 -99 9.5 -142t43 -60.5t112.5 -17.5t113 17.5t43.5 60.5t9.5 142v216h58zM231 748v5l81 135h63v-5l-102 -135h-42z" />
    <glyph glyph-name="Ycircumflex.loclGUA" horiz-adv-x="518" 
d="M483 688v-184q0 -127 -12 -186.5t-52.5 -87t-130.5 -31.5v-199h-59v200q-89 3 -129 30.5t-52.5 87.5t-12.5 186v184h59v-216q0 -99 9.5 -142t43 -60.5t112.5 -17.5t113 17.5t43.5 60.5t9.5 142v216h58zM134 750v5l92 133h65l92 -133v-5h-41l-84 101l-83 -101h-41z" />
    <glyph glyph-name="Ydieresis.loclGUA" horiz-adv-x="518" 
d="M483 688v-184q0 -127 -12 -186.5t-52.5 -87t-130.5 -31.5v-199h-59v200q-89 3 -129 30.5t-52.5 87.5t-12.5 186v184h59v-216q0 -99 9.5 -142t43 -60.5t112.5 -17.5t113 17.5t43.5 60.5t9.5 142v216h58zM140 805v70h58v-70h-58zM319 805v70h58v-70h-58z" />
    <glyph glyph-name="uni1EF4.loclGUA" horiz-adv-x="518" 
d="M483 688v-184q0 -127 -12 -186.5t-52.5 -87t-130.5 -31.5v-199h-59v200q-89 3 -129 30.5t-52.5 87.5t-12.5 186v184h59v-216q0 -99 9.5 -142t43 -60.5t112.5 -17.5t113 17.5t43.5 60.5t9.5 142v216h58zM225 -142v80h68v-80h-68z" />
    <glyph glyph-name="Ygrave.loclGUA" horiz-adv-x="518" 
d="M483 688v-184q0 -127 -12 -186.5t-52.5 -87t-130.5 -31.5v-199h-59v200q-89 3 -129 30.5t-52.5 87.5t-12.5 186v184h59v-216q0 -99 9.5 -142t43 -60.5t112.5 -17.5t113 17.5t43.5 60.5t9.5 142v216h58zM246 748l-102 135v5h64l80 -135v-5h-42z" />
    <glyph glyph-name="uni1EF6.loclGUA" horiz-adv-x="518" 
d="M483 688v-184q0 -127 -12 -186.5t-52.5 -87t-130.5 -31.5v-199h-59v200q-89 3 -129 30.5t-52.5 87.5t-12.5 186v184h59v-216q0 -99 9.5 -142t43 -60.5t112.5 -17.5t113 17.5t43.5 60.5t9.5 142v216h58zM213 742q0 23 8.5 32.5t32.5 17.5l20 6q31 8 40 16t9 27
q0 17 -7 24.5t-22.5 9.5t-49.5 2q-27 0 -95 -4v36q54 7 102 7q65 0 90.5 -14.5t25.5 -55.5q0 -31 -9.5 -46t-42.5 -26l-22 -6q-20 -6 -28 -10t-10 -9.5t-2 -17.5h-40v11z" />
    <glyph glyph-name="uni0232.loclGUA" horiz-adv-x="518" 
d="M483 688v-184q0 -127 -12 -186.5t-52.5 -87t-130.5 -31.5v-199h-59v200q-89 3 -129 30.5t-52.5 87.5t-12.5 186v184h59v-216q0 -99 9.5 -142t43 -60.5t112.5 -17.5t113 17.5t43.5 60.5t9.5 142v216h58zM152 834v53h212v-53h-212z" />
    <glyph glyph-name="uni1EF8.loclGUA" horiz-adv-x="518" 
d="M483 688v-184q0 -127 -12 -186.5t-52.5 -87t-130.5 -31.5v-199h-59v200q-89 3 -129 30.5t-52.5 87.5t-12.5 186v184h59v-216q0 -99 9.5 -142t43 -60.5t112.5 -17.5t113 17.5t43.5 60.5t9.5 142v216h58zM403 807q-12 -22 -51 -22q-23 0 -46.5 6.5t-56.5 18.5
q-28 10 -46.5 15.5t-35.5 5.5q-18 0 -23.5 -12t-5.5 -45h-37q0 59 12 81t51 22q23 0 45.5 -6.5t58.5 -19.5q28 -10 46 -15t35 -5q19 0 24 11.5t5 45.5h37q0 -59 -12 -81z" />
    <glyph glyph-name="Cacute.loclPLK" horiz-adv-x="490" 
d="M376.5 -5q-38.5 -3 -69.5 -3q-106 0 -154 25t-65 96.5t-17 230.5q0 158 17 229.5t65 97t154 25.5q32 0 69 -4t62 -9v-49q-65 9 -118 9q-92 0 -129 -18.5t-49 -77t-12 -203.5t12 -203.5t49 -77t129 -18.5q63 0 122 9v-51q-27 -5 -65.5 -8zM217 748v5l41 135h63v-5
l-62 -135h-42z" />
    <glyph glyph-name="Nacute.loclPLK" horiz-adv-x="635" 
d="M485 0l-333 569h-4v-569h-56v688h60l330 -563h4v563h57v-688h-58zM289 748v5l41 135h63v-5l-62 -135h-42z" />
    <glyph glyph-name="Oacute.loclPLK" horiz-adv-x="623" 
d="M147 17q-48 25 -62 93.5t-14 233.5t14 233.5t62 93.5t164 25q117 0 165 -25t62 -93.5t14 -233.5t-14 -233.5t-62 -93.5t-165 -25q-116 0 -164 25zM437 60q34 15 45 73t11 211t-11 211t-45 73t-126 15q-91 0 -125 -15t-45 -73t-11 -211t11 -211t45 -73t125 -15
q92 0 126 15zM284 748v5l41 135h63v-5l-62 -135h-42z" />
    <glyph glyph-name="Sacute.loclPLK" horiz-adv-x="540" 
d="M174 -4.5q-56 3.5 -97 9.5v52q42 -5 95 -8.5t90 -3.5q48 0 76.5 5t50.5 19q20 14 26.5 42.5t6.5 74.5q0 60 -5 83.5t-24.5 33.5t-69.5 16l-149 19q-52 6 -77 27t-31.5 54t-6.5 90q0 73 22.5 114t68.5 57t122 16q49 0 98.5 -4t79.5 -10v-51q-81 12 -167 12q-53 0 -85 -6.5
t-50 -22.5q-18 -15 -24 -39.5t-6 -65.5q0 -48 5.5 -70t21.5 -32t52 -14l143 -18q59 -8 88 -21.5t42 -51.5q6 -17 8 -41.5t2 -67.5q0 -83 -21.5 -126.5t-64 -59t-115.5 -15.5q-49 0 -105 3.5zM242 748v5l41 135h63v-5l-62 -135h-42z" />
    <glyph glyph-name="Zacute.loclPLK" horiz-adv-x="514" 
d="M44 0v50l352 585h-342v53h413v-49l-352 -587h358v-52h-429zM229 748v5l41 135h63v-5l-62 -135h-42z" />
    <glyph glyph-name="A.ss01" horiz-adv-x="617" 
d="M474 257h-331v-257h-59v391q0 133 14 193.5t60 86t150 25.5t150.5 -25.5t60.5 -86.5t14 -193v-391h-59v257zM464.5 565.5q-9.5 42.5 -43.5 60t-113 17.5t-112.5 -17.5t-43 -60t-9.5 -141.5v-113h331v113q0 99 -9.5 141.5z" />
    <glyph glyph-name="Aacute.ss01" horiz-adv-x="617" 
d="M474 257h-331v-257h-59v391q0 133 14 193.5t60 86t150 25.5t150.5 -25.5t60.5 -86.5t14 -193v-391h-59v257zM464.5 565.5q-9.5 42.5 -43.5 60t-113 17.5t-112.5 -17.5t-43 -60t-9.5 -141.5v-113h331v113q0 99 -9.5 141.5zM275 749v5l81 135h63v-5l-102 -135h-42z" />
    <glyph glyph-name="Abreve.ss01" horiz-adv-x="617" 
d="M474 257h-331v-257h-59v391q0 133 14 193.5t60 86t150 25.5t150.5 -25.5t60.5 -86.5t14 -193v-391h-59v257zM464.5 565.5q-9.5 42.5 -43.5 60t-113 17.5t-112.5 -17.5t-43 -60t-9.5 -141.5v-113h331v113q0 99 -9.5 141.5zM423.5 809.5q-6.5 -28.5 -33 -45.5t-82.5 -17
t-82 17t-32.5 45t-6.5 79h42q0 -41 4 -61t21 -31t54 -11t54.5 11t21.5 31.5t4 60.5h42q0 -50 -6.5 -78.5z" />
    <glyph glyph-name="uni1EAE.ss01" horiz-adv-x="617" 
d="M474 257h-331v-257h-59v391q0 133 14 193.5t60 86t150 25.5t150.5 -25.5t60.5 -86.5t14 -193v-391h-59v257zM464.5 565.5q-9.5 42.5 -43.5 60t-113 17.5t-112.5 -17.5t-43 -60t-9.5 -141.5v-113h331v113q0 99 -9.5 141.5zM421.5 809.5q-6.5 -28.5 -33 -45.5t-82.5 -17
t-82 17t-32.5 45t-6.5 79h42q0 -41 4 -61t21 -31t54 -11t54.5 11t21.5 31.5t4 60.5h42q0 -50 -6.5 -78.5zM283 921v5l81 135h63v-5l-102 -135h-42z" />
    <glyph glyph-name="uni1EB6.ss01" horiz-adv-x="617" 
d="M474 257h-331v-257h-59v391q0 133 14 193.5t60 86t150 25.5t150.5 -25.5t60.5 -86.5t14 -193v-391h-59v257zM464.5 565.5q-9.5 42.5 -43.5 60t-113 17.5t-112.5 -17.5t-43 -60t-9.5 -141.5v-113h331v113q0 99 -9.5 141.5zM423.5 809.5q-6.5 -28.5 -33 -45.5t-82.5 -17
t-82 17t-32.5 45t-6.5 79h42q0 -41 4 -61t21 -31t54 -11t54.5 11t21.5 31.5t4 60.5h42q0 -50 -6.5 -78.5zM275 -142v80h68v-80h-68z" />
    <glyph glyph-name="uni1EB0.ss01" horiz-adv-x="617" 
d="M474 257h-331v-257h-59v391q0 133 14 193.5t60 86t150 25.5t150.5 -25.5t60.5 -86.5t14 -193v-391h-59v257zM464.5 565.5q-9.5 42.5 -43.5 60t-113 17.5t-112.5 -17.5t-43 -60t-9.5 -141.5v-113h331v113q0 99 -9.5 141.5zM424.5 809.5q-6.5 -28.5 -33 -45.5t-82.5 -17
t-82 17t-32.5 45t-6.5 79h42q0 -41 4 -61t21 -31t54 -11t54.5 11t21.5 31.5t4 60.5h42q0 -50 -6.5 -78.5zM298 921l-102 135v5h64l80 -135v-5h-42z" />
    <glyph glyph-name="uni1EB2.ss01" horiz-adv-x="617" 
d="M474 257h-331v-257h-59v391q0 133 14 193.5t60 86t150 25.5t150.5 -25.5t60.5 -86.5t14 -193v-391h-59v257zM464.5 565.5q-9.5 42.5 -43.5 60t-113 17.5t-112.5 -17.5t-43 -60t-9.5 -141.5v-113h331v113q0 99 -9.5 141.5zM423.5 809.5q-6.5 -28.5 -33 -45.5t-82.5 -17
t-82 17t-32.5 45t-6.5 79h42q0 -41 4 -61t21 -31t54 -11t54.5 11t21.5 31.5t4 60.5h42q0 -50 -6.5 -78.5zM265 882q0 23 8.5 32.5t32.5 17.5l20 6q31 8 40 16t9 27q0 17 -7 24.5t-22.5 9.5t-49.5 2q-27 0 -95 -4v36q54 7 102 7q65 0 90.5 -14.5t25.5 -55.5q0 -31 -9.5 -46
t-42.5 -26l-22 -6q-20 -6 -28 -10t-10 -9.5t-2 -17.5h-40v11z" />
    <glyph glyph-name="uni1EB4.ss01" horiz-adv-x="617" 
d="M474 257h-331v-257h-59v391q0 133 14 193.5t60 86t150 25.5t150.5 -25.5t60.5 -86.5t14 -193v-391h-59v257zM464.5 565.5q-9.5 42.5 -43.5 60t-113 17.5t-112.5 -17.5t-43 -60t-9.5 -141.5v-113h331v113q0 99 -9.5 141.5zM421.5 809.5q-6.5 -28.5 -33 -45.5t-82.5 -17
t-82 17t-32.5 45t-6.5 79h42q0 -41 4 -61t21 -31t54 -11t54.5 11t21.5 31.5t4 60.5h42q0 -50 -6.5 -78.5zM454 982q-12 -22 -51 -22q-23 0 -46.5 6.5t-56.5 18.5q-28 10 -46.5 15.5t-35.5 5.5q-18 0 -23.5 -12t-5.5 -45h-37q0 59 12 81t51 22q23 0 45.5 -6.5t58.5 -19.5
q28 -10 46 -15t35 -5q19 0 24 11.5t5 45.5h37q0 -59 -12 -81z" />
    </font>
</defs>
</svg>
