<?xml version="1.0" standalone="no"?>
<!DOCTYPE svg PUBLIC "-//W3C//DTD SVG 1.1//EN" "http://www.w3.org/Graphics/SVG/1.1/DTD/svg11.dtd" >
<svg xmlns="http://www.w3.org/2000/svg" xmlns:xlink="http://www.w3.org/1999/xlink" version="1.1">
<metadata>
Created by FontForge 20201107 at Sat Dec  3 12:15:17 2016
 By 
Copyright 2016 The Saira Project Authors (omnibus.type@gmail.com), with reserved font name "Saira".
</metadata>
<defs>
<font id="SairaSemiCondensed-Thin" horiz-adv-x="0" >
  <font-face 
    font-family="Saira SemiCondensed Thin"
    font-weight="250"
    font-stretch="semi-condensed"
    units-per-em="1000"
    panose-1="0 0 3 6 0 0 0 0 0 0"
    ascent="800"
    descent="-200"
    x-height="510"
    cap-height="688"
    bbox="-539 -330 1068 1081"
    underline-thickness="50"
    underline-position="-100"
    unicode-range="U+000D-FB02"
  />
<missing-glyph horiz-adv-x="500" 
d="M0 0v700h500v-700h-500zM450 650h-400v-600h400v600zM229 278q0 29 13.5 48t40.5 41q28 23 42 43.5t14 54.5q0 31 -19 59t-70 28q-58 0 -78 -33.5t-20 -66.5v-28h-49q-4 14 -4 31q0 23 10.5 56t44 62t96.5 29t94.5 -28t40 -58t8.5 -49q0 -45 -18.5 -74t-48.5 -55
q-22 -18 -33 -33t-11 -37v-53h-53v63zM225 99v70h60v-70h-60z" />
    <glyph glyph-name="fi" unicode="fi" horiz-adv-x="513" 
d="M121 478h-94v32h94v115q0 51 17 76.5t48.5 33.5t87.5 8v-30q-48 0 -72.5 -6.5t-35 -24t-10.5 -51.5v-121h118v-32h-118v-478h-35v478zM388 682v61h41v-61h-41zM391 0v510h35v-510h-35z" />
    <glyph glyph-name="fl" unicode="fl" horiz-adv-x="513" 
d="M121 478h-94v32h94v115q0 51 17 76.5t48.5 33.5t87.5 8v-30q-48 0 -72.5 -6.5t-35 -24t-10.5 -51.5v-121h118v-32h-118v-478h-35v478zM391 0v743h35v-743h-35z" />
    <glyph glyph-name="f_f" unicode="ff" horiz-adv-x="608" 
d="M121 478h-94v32h94v115q0 51 17 76.5t48.5 33.5t87.5 8v-30q-48 0 -72.5 -6.5t-35 -24t-10.5 -51.5v-121h118v-32h-118v-478h-35v478zM425 478h-94v32h94v115q0 51 17 76.5t48.5 33.5t87.5 8v-30q-48 0 -72.5 -6.5t-35 -24t-10.5 -51.5v-121h118v-32h-118v-478h-35v478z
" />
    <glyph glyph-name=".notdef" horiz-adv-x="500" 
d="M0 0v700h500v-700h-500zM450 650h-400v-600h400v600zM229 278q0 29 13.5 48t40.5 41q28 23 42 43.5t14 54.5q0 31 -19 59t-70 28q-58 0 -78 -33.5t-20 -66.5v-28h-49q-4 14 -4 31q0 23 10.5 56t44 62t96.5 29t94.5 -28t40 -58t8.5 -49q0 -45 -18.5 -74t-48.5 -55
q-22 -18 -33 -33t-11 -37v-53h-53v63zM225 99v70h60v-70h-60z" />
    <glyph glyph-name=".null" 
 />
    <glyph glyph-name="nonmarkingreturn" unicode="&#xd;" horiz-adv-x="206" 
 />
    <glyph glyph-name="NULL" 
 />
    <glyph glyph-name="NULL" 
 />
    <glyph glyph-name="space" unicode=" " horiz-adv-x="206" 
 />
    <glyph glyph-name="exclam" unicode="!" horiz-adv-x="186" 
d="M74 541v147h38v-147q0 -125 -5 -368h-28q-5 243 -5 368zM69 0v65h47v-65h-47z" />
    <glyph glyph-name="quotedbl" unicode="&#x22;" horiz-adv-x="254" 
d="M65 454l-8 145v89h39v-89l-8 -145h-23zM166 454l-8 145v89h39v-89l-8 -145h-23z" />
    <glyph glyph-name="numbersign" unicode="#" horiz-adv-x="690" 
d="M315 0l41 202h-173l-39 -202h-35l40 202h-86v34h93l42 206h-103v34h110l43 212h34l-43 -212h172l43 212h34l-43 -212h93v-34h-100l-41 -206h109v-34h-116l-40 -202h-35zM404 442h-172l-42 -206h173z" />
    <glyph glyph-name="dollar" unicode="$" horiz-adv-x="480" 
d="M394.5 127.5q-15.5 -31.5 -47.5 -44.5t-87 -15v-76h-34v76q-86 2 -142 11v34q75 -12 142 -12v231l-55 6q-40 5 -61.5 18.5t-30.5 39.5t-9 72q0 59 17 91.5t50.5 45t88.5 14.5v77h34v-77q69 -2 125 -12v-34q-47 9 -125 13v-222l55 -6q40 -5 59.5 -17.5t27.5 -41t8 -84.5
t-15.5 -87.5zM226 368v218q-41 -1 -66 -8.5t-39.5 -31.5t-14.5 -71q0 -43 6 -63t20 -28t43 -11zM330.5 112.5q24.5 10.5 34 34.5t9.5 68q0 47 -6 68.5t-19 29t-40 10.5l-49 5v-227q46 1 70.5 11.5z" />
    <glyph glyph-name="percent" unicode="%" horiz-adv-x="701" 
d="M96.5 325.5q-24.5 14.5 -32 52.5t-7.5 125t7.5 125.5t32 53t79.5 14.5t79 -14.5t31.5 -53t7.5 -125.5t-7.5 -125t-31.5 -52.5t-79 -14.5t-79.5 14.5zM136 0l390 688h39l-390 -688h-39zM233 352.5q16 8.5 21.5 40t5.5 110.5q0 83 -4.5 113t-20.5 38.5t-59 8.5
q-42 0 -58 -8.5t-21.5 -40t-5.5 -111.5t5.5 -111t22 -39.5t57.5 -8.5t57 8.5zM447 6.5q-24 14.5 -31.5 52.5t-7.5 125t7.5 125.5t31.5 53t79 14.5t79 -14.5t31.5 -53t7.5 -125.5t-7.5 -125t-31.5 -52.5t-79 -14.5t-79 14.5zM583.5 33.5q16.5 8.5 22 39.5t5.5 111
q0 83 -4.5 113t-20.5 38.5t-60 8.5q-41 0 -57 -8.5t-21.5 -40t-5.5 -111.5q0 -79 5.5 -110.5t21.5 -40t57 -8.5t57.5 8.5z" />
    <glyph glyph-name="ampersand" unicode="&#x26;" horiz-adv-x="632" 
d="M598 366v-34h-106v-324q-14 -4 -68.5 -10t-108.5 -6q-105 0 -159 21.5t-72 61.5t-18 109q0 79 26.5 114.5t84.5 50.5v4q-55 15 -80 52t-25 110q0 62 19 100.5t71.5 59.5t151.5 21q39 0 89 -4.5t86 -11.5v-32q-40 7 -84 11.5t-73 4.5q-98 0 -146 -15.5t-63.5 -46.5
t-15.5 -89q0 -39 9 -70.5t41 -54t96 -22.5h98v-34h-98q-66 0 -99 -18.5t-43 -51t-10 -85.5q0 -64 23 -97t68 -44.5t123 -11.5q87 0 142 11v331h141z" />
    <glyph glyph-name="quotesingle" unicode="'" horiz-adv-x="153" 
d="M65 454l-8 145v89h39v-89l-8 -145h-23z" />
    <glyph glyph-name="parenleft" unicode="(" horiz-adv-x="251" 
d="M126 -30q-24 49 -35 123t-11 204q0 129 11 202.5t35 123t75 120.5h34q-50 -73 -72 -117t-35 -120t-13 -209t13 -209.5t35 -121t72 -116.5h-34q-51 71 -75 120z" />
    <glyph glyph-name="parenright" unicode=")" horiz-adv-x="251" 
d="M88.5 -33.5q22.5 44.5 35 120.5t12.5 210t-12.5 210t-35 120t-71.5 116h33q51 -71 75 -120t35 -122.5t11 -203.5t-11 -204t-35 -123t-75 -120h-33q49 72 71.5 116.5z" />
    <glyph glyph-name="asterisk" unicode="*" horiz-adv-x="421" 
d="M224 490l5 -151h-38l6 151l-128 -81l-19 33l133 71l-133 72l19 32l128 -81l-6 152h38l-6 -152l129 82l19 -33l-134 -72l134 -71l-19 -32z" />
    <glyph glyph-name="plus" unicode="+" horiz-adv-x="514" 
d="M240 63v174h-173v32h173v174h32v-174h175v-32h-175v-174h-32z" />
    <glyph glyph-name="comma" unicode="," horiz-adv-x="168" 
d="M64 -74.5q10 5.5 13 18t3 39.5v17h-20v65h47v-75q0 -37 -6 -56t-22 -27t-47 -8v21q22 0 32 5.5z" />
    <glyph glyph-name="hyphen" unicode="-" horiz-adv-x="332" 
d="M63 268v36h206v-36h-206z" />
    <glyph glyph-name="period" unicode="." horiz-adv-x="168" 
d="M61 0v65h46v-65h-46z" />
    <glyph glyph-name="slash" unicode="/" horiz-adv-x="298" 
d="M10 -55l241 798h37l-242 -798h-36z" />
    <glyph glyph-name="zero" unicode="0" horiz-adv-x="585" 
d="M141.5 15.5q-42.5 23.5 -53.5 90t-11 238.5t11 238.5t53.5 90t150.5 23.5q110 0 152.5 -23.5t53 -89t10.5 -239.5q0 -172 -11.5 -238.5t-54 -90t-150.5 -23.5t-150.5 23.5zM419 42.5q34 16.5 43.5 76t9.5 225.5t-9.5 225.5t-43.5 76t-127 16.5t-126.5 -16.5t-43 -76
t-9.5 -225.5t9.5 -225.5t43 -76t126.5 -16.5t127 16.5z" />
    <glyph glyph-name="one" unicode="1" horiz-adv-x="314" 
d="M168 0v640l-125 -67v37l133 78h28v-688h-36z" />
    <glyph glyph-name="two" unicode="2" horiz-adv-x="523" 
d="M103 34h353v-34h-389v71q0 86 4.5 120t24 56.5t69.5 47.5l40 20q74 36 137 69q47 23 62.5 52t15.5 87q0 59 -13.5 88t-46.5 40t-100 11q-34 0 -86 -3t-95 -8v32q34 6 87 9.5t101 3.5q64 0 103 -10t62.5 -45.5t23.5 -108.5q0 -56 -10 -88.5t-32.5 -53.5t-66.5 -43
l-197 -98q-32 -15 -41 -45q-4 -17 -5 -43.5t-1 -60.5v-66z" />
    <glyph glyph-name="three" unicode="3" horiz-adv-x="510" 
d="M133.5 -4q-47.5 4 -83.5 10v32q101 -12 169 -12q63 0 102 11t60 44t21 96q0 83 -30.5 119t-100.5 36h-117v34h117q52 0 88 33t36 114q0 63 -19.5 95t-58 43t-107.5 11q-33 0 -77 -3.5t-79 -8.5v32q36 6 82.5 10t83.5 4q81 0 126.5 -18t65 -57t19.5 -106
q0 -72 -26.5 -110.5t-76.5 -50.5v-4q53 -10 81.5 -48t28.5 -118q0 -67 -17 -108t-64.5 -62.5t-137.5 -21.5q-38 0 -85.5 4z" />
    <glyph glyph-name="four" unicode="4" horiz-adv-x="554" 
d="M375 0v176h-329v31l238 481h41l-239 -478h290v300h35v-300h95v-34h-95v-176h-36z" />
    <glyph glyph-name="five" unicode="5" horiz-adv-x="528" 
d="M244 26q76 0 115 16t53.5 51.5t14.5 103.5q0 73 -15 106.5t-55.5 45t-129.5 11.5q-42 0 -145 -15v343h336v-34h-300v-271q57 11 142 11q89 0 132.5 -20t57 -59t13.5 -111q0 -83 -18 -127.5t-64.5 -64.5t-136.5 -20q-38 0 -85.5 4t-83.5 10v32q101 -12 169 -12z" />
    <glyph glyph-name="six" unicode="6" horiz-adv-x="563" 
d="M196.5 0.5q-40.5 8.5 -67 33t-40.5 73.5q-8 26 -10 77t-2 150q0 94 3.5 149.5t13.5 90.5q20 70 69.5 96t148.5 26q66 0 164 -14v-32q-82 12 -157 12q-95 0 -137 -23.5t-55.5 -87t-13.5 -206.5h5q18 25 57.5 38.5t124.5 13.5q86 0 128.5 -12.5t61.5 -51.5t19 -123
q0 -90 -15.5 -135t-58.5 -64t-132 -19q-66 0 -106.5 8.5zM409 37q36 11 50.5 45.5t14.5 108.5q0 83 -13.5 117.5t-48 44.5t-116.5 10q-81 0 -119.5 -13t-50 -40.5t-11.5 -81.5q0 -89 15.5 -131.5t52.5 -56.5t113 -14q77 0 113 11z" />
    <glyph glyph-name="seven" unicode="7" horiz-adv-x="479" 
d="M134 0l258 654h-355v34h395v-29l-259 -659h-39z" />
    <glyph glyph-name="eight" unicode="8" horiz-adv-x="589" 
d="M153 12.5q-48 20.5 -64.5 60.5t-16.5 111q0 59 12 91.5t34.5 48.5t61.5 25v4q-54 11 -78.5 49t-24.5 113q0 67 18.5 105.5t65.5 57t133 18.5t133.5 -18.5t66 -57t18.5 -105.5q0 -75 -25 -113t-79 -49v-4q39 -9 62 -25t35 -48.5t12 -91.5q0 -71 -17 -111t-65 -60.5
t-141 -20.5t-141 20.5zM406.5 378q38.5 13 54 44.5t15.5 90.5q0 60 -14.5 91t-53 44.5t-114.5 13.5q-75 0 -113.5 -13.5t-53 -44.5t-14.5 -91q0 -59 15 -90.5t53.5 -44.5t112.5 -13t112.5 13zM408 38q39 12 56 44t17 95q0 67 -15.5 99t-53.5 43.5t-118 11.5t-118 -11.5
t-53 -43t-15 -99.5q0 -63 17 -95t56 -44t113 -12q75 0 114 12z" />
    <glyph glyph-name="nine" unicode="9" horiz-adv-x="563" 
d="M171.5 -4q-46.5 4 -85.5 10v32q82 -12 158 -12q95 0 136.5 23.5t55.5 87t14 206.5h-5q-18 -25 -57.5 -38.5t-124.5 -13.5q-86 0 -129 12.5t-62 51.5t-19 123q0 90 15.5 135t59 64t132.5 19q66 0 106.5 -8t66.5 -31.5t38 -67.5q9 -34 12 -88t3 -147q0 -99 -4 -156t-16 -94
q-20 -64 -69.5 -88t-145.5 -24q-33 0 -79.5 4zM386 338q38 13 49.5 40t11.5 82q0 89 -15.5 131.5t-52.5 56.5t-112 14q-77 0 -113 -11t-50.5 -45.5t-14.5 -108.5q0 -83 13.5 -117.5t48 -44.5t116.5 -10q81 0 119 13z" />
    <glyph glyph-name="colon" unicode=":" horiz-adv-x="168" 
d="M61 445v65h46v-65h-46zM61 0v65h46v-65h-46z" />
    <glyph glyph-name="semicolon" unicode=";" horiz-adv-x="168" 
d="M61 445v65h46v-65h-46zM64 -74.5q10 5.5 13 18t3 39.5v17h-20v65h47v-75q0 -37 -6 -56t-22 -27t-47 -8v21q22 0 32 5.5z" />
    <glyph glyph-name="less" unicode="&#x3c;" horiz-adv-x="515" 
d="M448 55l-380 173v50l380 173v-37l-354 -161l354 -161v-37z" />
    <glyph glyph-name="equal" unicode="=" horiz-adv-x="514" 
d="M67 332v32h380v-32h-380zM67 142v32h380v-32h-380z" />
    <glyph glyph-name="greater" unicode="&#x3e;" horiz-adv-x="515" 
d="M67 55v37l353 161l-353 161v37l380 -173v-50z" />
    <glyph glyph-name="question" unicode="?" horiz-adv-x="425" 
d="M136 260q0 37 7 56t21 28.5t45 21.5l23 10q40 16 57.5 30t24.5 40.5t7 79.5q0 57 -12 85.5t-42 39.5t-88 11q-53 0 -149 -12v32q87 14 153 14q65 0 102.5 -15t54.5 -49t17 -95q0 -51 -4 -82t-21 -56.5t-53 -40.5l-19 -7q-44 -19 -61.5 -30.5t-22 -23.5t-4.5 -39v-85h-36
v87zM130 0v65h47v-65h-47z" />
    <glyph glyph-name="at" unicode="@" horiz-adv-x="803" 
d="M174 -80q-64 28 -79.5 102t-15.5 272t15.5 272t79.5 102t228 28t228 -28t79.5 -102.5t15.5 -271.5q0 -103 -10 -149t-31 -58t-67 -12h-92l-3 68h-4q-13 -45 -48.5 -60t-84.5 -15q-50 0 -79 10t-43 37t-14 78q0 48 10 75t34.5 39t69.5 12q53 0 155 -4v37q0 63 -8.5 90
t-33 35.5t-80.5 8.5q-28 0 -64 -3.5t-56 -7.5v33q53 10 131 10q62 0 92.5 -13.5t42 -46.5t11.5 -100v-253h74q26 0 38.5 9.5t19 49.5t6.5 130q0 157 -8 225t-38.5 99.5t-102.5 39.5q-59 8 -141 8q-71 0 -137 -7q-74 -7 -105 -38t-39 -99t-8 -228q0 -159 9 -226.5t42.5 -99
t114.5 -40.5q37 -5 124 -5q112 0 151 3v-32q-27 -2 -151 -2q-164 0 -228 28zM463.5 113.5q28.5 13.5 41.5 46.5t13 94v33h-148q-37 0 -54.5 -6.5t-24.5 -26t-7 -61.5q0 -40 8 -59t28.5 -26.5t63.5 -7.5q51 0 79.5 13.5z" />
    <glyph glyph-name="A" unicode="A" horiz-adv-x="590" 
d="M519 0l-78 220h-293l-77 -220h-38l244 688h37l243 -688h-38zM297 630h-5l-132 -376h269z" />
    <glyph glyph-name="B" unicode="B" horiz-adv-x="594" 
d="M99 688h253q91 0 127 -45t36 -127q0 -140 -110 -162v-4q70 -12 93.5 -57.5t23.5 -112.5q0 -80 -36.5 -130t-141.5 -50h-245v688zM444 403.5q35 37.5 35 106.5q0 76 -29.5 110t-104.5 34h-210v-288h210q64 0 99 37.5zM455 69.5q31 35.5 31 113.5q0 77 -33 113t-105 36
h-213v-298h213q76 0 107 35.5z" />
    <glyph glyph-name="C" unicode="C" horiz-adv-x="493" 
d="M309 -8q-106 0 -152 23t-63 94.5t-17 234.5q0 161 17 232.5t63.5 95.5t151.5 24q32 0 68.5 -3.5t59.5 -8.5v-32q-55 10 -120 10q-99 0 -138.5 -19.5t-52.5 -82t-13 -216.5t13 -216.5t52.5 -82t138.5 -19.5q67 0 124 10v-34q-58 -10 -132 -10z" />
    <glyph glyph-name="D" unicode="D" horiz-adv-x="599" 
d="M99 688h179q118 0 166.5 -23t63 -90t14.5 -231t-14.5 -231t-63 -90t-166.5 -23h-179v688zM265 34q113 0 154.5 15.5t54 75t12.5 219.5q0 159 -13 219t-54.5 75.5t-153.5 15.5h-130v-620h130z" />
    <glyph glyph-name="E" unicode="E" horiz-adv-x="517" 
d="M99 0v688h370v-34h-334v-289h293v-34h-293v-297h334v-34h-370z" />
    <glyph glyph-name="F" unicode="F" horiz-adv-x="486" 
d="M99 0v688h352v-34h-316v-303h284v-34h-284v-317h-36z" />
    <glyph glyph-name="G" unicode="G" horiz-adv-x="587" 
d="M305 315v34h200v-340q-42 -8 -93 -12.5t-90 -4.5q-108 0 -157.5 24t-68.5 96.5t-19 231.5q0 158 19 230.5t68.5 97t157.5 24.5q43 0 94.5 -5t86.5 -13v-32q-39 7 -83 11.5t-72 4.5q-110 0 -154 -16t-62.5 -80.5t-18.5 -221.5q0 -146 13.5 -209.5t55.5 -86t139 -22.5
q31 0 75 3.5t73 8.5v277h-164z" />
    <glyph glyph-name="H" unicode="H" horiz-adv-x="638" 
d="M504 0v331h-369v-331h-36v688h36v-323h369v323h36v-688h-36z" />
    <glyph glyph-name="I" unicode="I" horiz-adv-x="236" 
d="M100 0v688h36v-688h-36z" />
    <glyph glyph-name="J" unicode="J" horiz-adv-x="276" 
d="M116 46.5q22 10.5 28 47.5t6 145v449h36v-437q0 -129 -8.5 -175.5t-37.5 -60t-110 -15.5v34q64 2 86 12.5z" />
    <glyph glyph-name="K" unicode="K" horiz-adv-x="573" 
d="M500 0l-222 332h-143v-332h-36v688h36v-322h143l220 322h41l-230 -339l233 -349h-42z" />
    <glyph glyph-name="L" unicode="L" horiz-adv-x="459" 
d="M99 0v688h36v-654h299v-34h-335z" />
    <glyph glyph-name="M" unicode="M" horiz-adv-x="792" 
d="M658 0v610h-4l-241 -610h-35l-240 610h-4v-610h-35v688h48l247 -628h5l248 628h47v-688h-36z" />
    <glyph glyph-name="N" unicode="N" horiz-adv-x="638" 
d="M502 0l-364 613h-4v-613h-35v688h37l365 -613h4v613h35v-688h-38z" />
    <glyph glyph-name="O" unicode="O" horiz-adv-x="628" 
d="M152 15.5q-47 23.5 -61 92t-14 236.5t14 236.5t61 92t162 23.5t162 -23.5t61 -92t14 -236.5t-14 -236.5t-61 -92t-162 -23.5t-162 23.5zM452.5 42q37.5 16 50 78t12.5 224t-12.5 224t-50 78t-138.5 16q-100 0 -138 -16t-50.5 -78t-12.5 -224t12.5 -224t50.5 -78t138 -16
q101 0 138.5 16z" />
    <glyph glyph-name="P" unicode="P" horiz-adv-x="563" 
d="M99 688h242q77 0 114 -27.5t46.5 -69.5t9.5 -110q0 -67 -10 -109.5t-47 -70t-113 -27.5h-206v-274h-36v688zM339 308q61 0 90 20t37.5 55.5t8.5 97.5q0 63 -7.5 98t-37 55t-91.5 20h-204v-346h204z" />
    <glyph glyph-name="Q" unicode="Q" horiz-adv-x="628" 
d="M562 -113v-2h-42l-78 118q-40 -11 -128 -11q-115 0 -162 23.5t-61 92t-14 236.5t14 236.5t61 92t162 23.5t162 -23.5t61 -92t14 -236.5q0 -114 -5 -175.5t-21 -98.5t-49 -55zM375 27q29 1 47 5l-124 186h41l117 -174q25 14 37.5 46.5t17 90.5t4.5 163q0 162 -12.5 224
t-50 78t-138.5 16q-100 0 -138 -16t-50.5 -78t-12.5 -224t12.5 -224t50.5 -78t138 -16q32 0 61 1z" />
    <glyph glyph-name="R" unicode="R" horiz-adv-x="593" 
d="M487 0l-106 296q-12 -2 -36 -2h-210v-294h-36v688h256q73 0 109 -26.5t45 -67t9 -103.5q0 -51 -6.5 -86t-28.5 -63t-66 -40l109 -302h-39zM435 347.5q30 19.5 38.5 53t8.5 90.5q0 58 -7.5 91t-35 52.5t-86.5 19.5h-218v-326h208q62 0 92 19.5z" />
    <glyph glyph-name="S" unicode="S" horiz-adv-x="544" 
d="M179 -4.5q-56 3.5 -96 8.5v35q43 -5 97.5 -9t90.5 -4q50 0 79.5 5t53.5 21q23 14 31 46.5t8 84.5q0 69 -5.5 94t-26.5 36t-79 18l-157 19q-52 6 -75.5 26.5t-29 50.5t-5.5 88q0 70 21 109.5t66 55.5t122 16q50 0 99 -3.5t75 -9.5v-33q-35 5 -83 8.5t-87 3.5
q-55 0 -89.5 -8t-54.5 -25q-19 -17 -26 -45t-7 -71q0 -53 6 -77.5t23.5 -35.5t55.5 -16l148 -18q44 -5 69 -11.5t42.5 -20.5t25.5 -41q5 -16 6.5 -38t1.5 -67q0 -80 -21 -122.5t-62.5 -58t-113.5 -15.5q-47 0 -103 3.5z" />
    <glyph glyph-name="T" unicode="T" horiz-adv-x="500" 
d="M232 0v654h-200v34h436v-34h-200v-654h-36z" />
    <glyph glyph-name="U" unicode="U" horiz-adv-x="621" 
d="M531 688v-394q0 -132 -13.5 -192t-59 -85t-147.5 -25t-148 25t-59.5 85.5t-13.5 191.5v394h36v-424q0 -106 11 -152.5t49 -66t125 -19.5t125 19.5t48.5 66t10.5 152.5v424h36z" />
    <glyph glyph-name="V" unicode="V" horiz-adv-x="563" 
d="M263 0l-234 688h38l212 -628h5l214 628h37l-235 -688h-37z" />
    <glyph glyph-name="W" unicode="W" horiz-adv-x="838" 
d="M592 0l-171 618h-4l-171 -618h-37l-174 688h38l153 -618h5l169 618h39l169 -618h6l152 618h37l-174 -688h-37z" />
    <glyph glyph-name="X" unicode="X" horiz-adv-x="579" 
d="M505 0l-212 311h-7l-212 -311h-42l235 346l-232 342h43l209 -308h6l210 308h42l-233 -341l236 -347h-43z" />
    <glyph glyph-name="Y" unicode="Y" horiz-adv-x="512" 
d="M238 0v281l-225 407h41l199 -364h7l200 364h39l-225 -407v-281h-36z" />
    <glyph glyph-name="Z" unicode="Z" horiz-adv-x="513" 
d="M47 0v32l372 622h-362v34h405v-32l-371 -622h378v-34h-422z" />
    <glyph glyph-name="bracketleft" unicode="[" horiz-adv-x="269" 
d="M99 -150v893h137v-33l-102 -4v-819l102 -4v-33h-137z" />
    <glyph glyph-name="backslash" unicode="\" horiz-adv-x="298" 
d="M252 -55l-242 798h37l241 -798h-36z" />
    <glyph glyph-name="bracketright" unicode="]" horiz-adv-x="269" 
d="M33 -150v33l103 4v819l-103 4v33h138v-893h-138z" />
    <glyph glyph-name="asciicircum" unicode="^" horiz-adv-x="447" 
d="M343 459l-119 265l-120 -265h-37l132 290h49l132 -290h-37z" />
    <glyph glyph-name="underscore" unicode="_" horiz-adv-x="320" 
d="M0 -160v32h320v-32h-320z" />
    <glyph glyph-name="grave" unicode="`" horiz-adv-x="154" 
d="M114 605l-101 133v5h44l83 -133v-5h-26z" />
    <glyph glyph-name="a" unicode="a" horiz-adv-x="503" 
d="M123 3.5q-35 11.5 -52 43t-17 91.5q0 57 12 88t41.5 44t84.5 13q31 0 191 -5v46q0 76 -11.5 108.5t-42 43t-100.5 10.5q-32 0 -75.5 -4t-68.5 -9v33q60 12 156 12q75 0 112 -15.5t51 -54.5t14 -118v-330h-28l-3 80h-4q-17 -53 -60.5 -70.5t-104.5 -17.5q-60 0 -95 11.5z
M311 35q36 11 51 49q12 29 16.5 58t4.5 68v41h-183q-47 0 -70 -8t-32 -31.5t-9 -73.5q0 -48 10.5 -72t37 -33t80.5 -9q58 0 94 11z" />
    <glyph glyph-name="b" unicode="b" horiz-adv-x="527" 
d="M179 9.5q-41 17.5 -57 70.5h-4l-3 -80h-28v743h35v-304h4q15 43 53 61t104 18q77 0 114.5 -21.5t51 -75.5t13.5 -166t-13.5 -166t-51 -75.5t-114.5 -21.5q-63 0 -104 17.5zM375 40q31 16 41.5 62.5t10.5 152.5t-10.5 152.5t-41.5 62.5t-101 16q-58 0 -92 -19t-46 -58
q-9 -31 -11.5 -65t-2.5 -89q0 -57 2 -89.5t11 -62.5q12 -41 46 -60t93 -19q70 0 101 16z" />
    <glyph glyph-name="c" unicode="c" horiz-adv-x="407" 
d="M308.5 -4.5q-32.5 -3.5 -62.5 -3.5q-82 0 -120 25t-49.5 78t-11.5 159q0 109 14.5 164.5t51.5 77.5t110 22q29 0 61.5 -3t55.5 -8v-33q-55 12 -111 12q-65 0 -95 -18.5t-41 -66t-11 -145.5q0 -102 11 -149.5t41.5 -65t97.5 -17.5q28 0 59.5 4t52.5 9v-33
q-21 -5 -53.5 -8.5z" />
    <glyph glyph-name="d" unicode="d" horiz-adv-x="527" 
d="M130 13.5q-37 21.5 -51 75.5t-14 166t13.5 166t51 75.5t114.5 21.5q66 0 104 -18t53 -61h4v304h35v-743h-27l-4 80h-4q-16 -53 -57 -70.5t-104 -17.5q-77 0 -114 21.5zM346 42.5q34 18.5 45 57.5q10 33 12 67.5t2 101.5q0 44 -2.5 75.5t-9.5 55.5q-13 46 -48 66t-97 20
q-67 0 -97 -16t-40.5 -62.5t-10.5 -152.5t10.5 -152.5t41.5 -62.5t101 -16q59 0 93 18.5z" />
    <glyph glyph-name="e" unicode="e" horiz-adv-x="498" 
d="M432 243h-332q0 -96 10.5 -139.5t44 -61.5t108.5 -18q36 0 78.5 4t73.5 10v-33q-25 -6 -68.5 -9.5t-87.5 -3.5q-86 0 -126.5 21.5t-54 75t-13.5 165.5q0 114 10.5 165t51 75t133.5 24q81 0 116.5 -22.5t45.5 -74t10 -165.5v-13zM152 471q-32 -15 -42 -57t-10 -139h297v21
q0 86 -12 125.5t-40 52t-87 12.5q-74 0 -106 -15z" />
    <glyph glyph-name="f" unicode="f" horiz-adv-x="304" 
d="M121 478h-94v32h94v115q0 51 17 76.5t48.5 33.5t87.5 8v-30q-48 0 -72.5 -6.5t-35 -24t-10.5 -51.5v-121h118v-32h-118v-478h-35v478z" />
    <glyph glyph-name="g" unicode="g" horiz-adv-x="527" 
d="M80 -197v33q82 -7 158 -7q75 0 109.5 20t46 67t11.5 145v10h-4q-15 -43 -53 -61t-104 -18q-77 0 -114.5 21.5t-51 75.5t-13.5 166t13.5 166t51 75.5t114.5 21.5q63 0 104 -17.5t57 -70.5h4l4 80h27v-435q0 -113 -14 -170t-56 -82.5t-128 -25.5q-78 0 -162 6zM345 43.5
q34 19.5 47 61.5q8 28 10.5 61.5t2.5 88.5q0 57 -2 88t-9 55q-13 47 -47 67.5t-94 20.5q-70 0 -101 -16t-41.5 -62.5t-10.5 -152.5t10.5 -152.5t41.5 -62.5t101 -16q58 0 92 19.5z" />
    <glyph glyph-name="h" unicode="h" horiz-adv-x="532" 
d="M412 315q0 77 -10.5 112t-38.5 47t-89 12q-72 0 -104.5 -28t-40 -71.5t-7.5 -122.5v-264h-35v743h35v-303h4q28 78 156 78q71 0 106 -19t47 -60t12 -119v-320h-35v315z" />
    <glyph glyph-name="i" unicode="i" horiz-adv-x="209" 
d="M84 682v61h41v-61h-41zM87 0v510h35v-510h-35z" />
    <glyph glyph-name="j" unicode="j" horiz-adv-x="209" 
d="M84 682v61h41v-61h-41zM-2 -167q41 0 59.5 5t24 16t5.5 36v620h35v-610q0 -45 -13 -65.5t-37.5 -26t-73.5 -5.5v30z" />
    <glyph glyph-name="k" unicode="k" horiz-adv-x="459" 
d="M382 0l-183 243h-77v-243h-35v743h35v-466h77l181 233h42l-194 -248l198 -262h-44z" />
    <glyph glyph-name="l" unicode="l" horiz-adv-x="209" 
d="M87 0v743h35v-743h-35z" />
    <glyph glyph-name="m" unicode="m" horiz-adv-x="799" 
d="M679 315q0 77 -9 112t-34 47t-80 12q-66 0 -95.5 -26t-36 -69t-6.5 -127v-264h-35v315q0 77 -9 112t-33.5 47t-79.5 12q-65 0 -95 -28t-37 -71.5t-7 -122.5v-264h-35v510h28l3 -80h4q11 40 43 64t102 24q68 0 99.5 -20t42.5 -68h5q11 40 44.5 64t103.5 24q65 0 97.5 -19
t43.5 -60.5t11 -118.5v-320h-35v315z" />
    <glyph glyph-name="n" unicode="n" horiz-adv-x="532" 
d="M412 315q0 77 -10.5 112t-38.5 47t-89 12q-72 0 -104.5 -28t-40 -71.5t-7.5 -122.5v-264h-35v510h28l3 -80h4q13 40 48 64t112 24q71 0 106 -19t47 -60t12 -119v-320h-35v315z" />
    <glyph glyph-name="o" unicode="o" horiz-adv-x="513" 
d="M126 12q-39 20 -50 71.5t-11 170.5q0 120 11 171.5t50.5 72t130.5 20.5t130 -20.5t50 -72t11 -171.5q0 -119 -11 -170.5t-50 -71.5t-130 -20q-92 0 -131 20zM367 41q31 17 38.5 59.5t7.5 153.5t-7.5 154.5t-39 60.5t-109.5 17q-79 0 -110.5 -17t-39 -60.5t-7.5 -154.5
t7.5 -153.5t39 -59.5t110.5 -17t110 17z" />
    <glyph glyph-name="p" unicode="p" horiz-adv-x="527" 
d="M87 510h28l3 -80h4q16 53 57 70.5t104 17.5q77 0 114.5 -21.5t51 -75.5t13.5 -166t-13.5 -166t-51 -75.5t-114.5 -21.5q-66 0 -104 18t-53 61h-4v-268h-35v707zM375 40q31 16 41.5 62.5t10.5 152.5t-10.5 152.5t-41.5 62.5t-101 16q-59 0 -93.5 -19.5t-46.5 -62.5
q-8 -28 -10 -60t-2 -89q0 -54 2 -86.5t8 -53.5q15 -49 49 -70t93 -21q70 0 101 16z" />
    <glyph glyph-name="q" unicode="q" horiz-adv-x="527" 
d="M405 71h-4q-15 -43 -53 -61t-104 -18q-77 0 -114.5 21.5t-51 75.5t-13.5 166t14 166t51 75.5t114 21.5q63 0 104 -17.5t57 -70.5h4l4 80h27v-707h-35v268zM346 44q34 20 47 65q8 25 10 58t2 88q0 57 -2.5 90t-11.5 65q-11 39 -45 57.5t-93 18.5q-70 0 -101 -16
t-41.5 -62.5t-10.5 -152.5t10.5 -152.5t41.5 -62.5t101 -16q59 0 93 20z" />
    <glyph glyph-name="r" unicode="r" horiz-adv-x="305" 
d="M87 510h27l4 -106h4q15 65 54.5 89.5t102.5 24.5v-36q-63 0 -97 -25.5t-47 -73t-13 -124.5v-259h-35v510z" />
    <glyph glyph-name="s" unicode="s" horiz-adv-x="441" 
d="M142 -5q-43 3 -73 8v33q54 -7 87 -9.5t77 -2.5q50 0 75.5 11.5t34 34.5t8.5 63q0 46 -6 66t-19 26.5t-43 9.5l-130 14q-57 7 -77.5 33.5t-20.5 90.5q0 63 20 94t56 41t98 10q31 0 68.5 -3.5t63.5 -8.5v-33q-66 13 -147 13q-42 0 -68 -7t-41 -30t-15 -69q0 -40 6 -59.5
t20 -26.5t44 -10l125 -14q43 -5 63.5 -16t29 -38.5t8.5 -82.5q0 -56 -16.5 -86.5t-52 -42.5t-96.5 -12q-36 0 -79 3z" />
    <glyph glyph-name="t" unicode="t" horiz-adv-x="292" 
d="M121 0v478h-94v32h94v148h35v-148h109v-32h-109v-478h-35z" />
    <glyph glyph-name="u" unicode="u" horiz-adv-x="532" 
d="M415 80h-4q-12 -40 -47.5 -64t-112.5 -24q-71 0 -106 19t-47 60t-12 119v320h35v-315q0 -77 10.5 -112t38.5 -47t89 -12q72 0 104.5 28t40 71.5t7.5 122.5v264h35v-510h-28z" />
    <glyph glyph-name="v" unicode="v" horiz-adv-x="461" 
d="M214 0l-184 510h38l160 -454h6l160 454h37l-184 -510h-33z" />
    <glyph glyph-name="w" unicode="w" horiz-adv-x="704" 
d="M480 0l-126 448h-5l-125 -448h-37l-154 510h37l133 -451h6l123 451h40l125 -451h6l132 451h36l-154 -510h-37z" />
    <glyph glyph-name="x" unicode="x" horiz-adv-x="472" 
d="M396 0l-158 226h-5l-158 -226h-42l181 259l-175 251h43l152 -217h4l153 217h42l-175 -249l181 -261h-43z" />
    <glyph glyph-name="y" unicode="y" horiz-adv-x="532" 
d="M96 -197v33q77 -7 146 -7q75 0 111 22.5t47 67.5t11 132v21h-4q-12 -35 -46 -57.5t-111 -22.5q-70 0 -105 19t-47 60t-12 119v320h35v-315q0 -77 10.5 -112t38.5 -47t89 -12q72 0 104.5 28t40 71.5t7.5 122.5v264h35v-440q0 -108 -15.5 -165t-58 -82.5t-126.5 -25.5
q-72 0 -150 6z" />
    <glyph glyph-name="z" unicode="z" horiz-adv-x="431" 
d="M45 0v28l294 450h-283v32h328v-28l-293 -450h295v-32h-341z" />
    <glyph glyph-name="braceleft" unicode="{" horiz-adv-x="268" 
d="M148.5 -74q-26.5 53 -26.5 111v115q0 55 -22.5 92.5t-72.5 37.5v29q50 0 72.5 38t22.5 92v115q0 58 26.5 111t66.5 76h37q-41 -29 -68 -78t-27 -97v-121q0 -61 -17.5 -98.5t-57.5 -49.5v-5q40 -12 57.5 -49.5t17.5 -98.5v-121q0 -48 27 -97t68 -78h-37q-40 23 -66.5 76z
" />
    <glyph glyph-name="bar" unicode="|" horiz-adv-x="242" 
d="M104 -161v904h35v-904h-35z" />
    <glyph glyph-name="braceright" unicode="}" horiz-adv-x="268" 
d="M84.5 -72.5q26.5 49.5 26.5 97.5v121q0 125 76 148v5q-76 23 -76 148v121q0 48 -26.5 97.5t-67.5 77.5h36q40 -23 66.5 -76t26.5 -111v-115q0 -54 23 -92t73 -38v-29q-50 0 -73 -38t-23 -92v-115q0 -58 -26.5 -111t-66.5 -76h-36q41 28 67.5 77.5z" />
    <glyph glyph-name="asciitilde" unicode="~" horiz-adv-x="466" 
d="M383 280q-12 -20 -50 -20q-24 0 -46.5 6.5t-63.5 21.5q-28 11 -49 17t-41 6q-21 0 -28 -13.5t-7 -48.5h-27q0 55 12 75t50 20q21 0 42.5 -5.5t41 -12.5t26.5 -10q29 -11 50 -17t40 -6q21 0 28 13.5t7 48.5h27q0 -55 -12 -75z" />
    <glyph glyph-name="uni00A0" unicode="&#xa0;" horiz-adv-x="206" 
 />
    <glyph glyph-name="exclamdown" unicode="&#xa1;" horiz-adv-x="186" 
d="M69 445v65h47v-65h-47zM74 -31q0 125 5 368h28q5 -243 5 -368v-147h-38v147z" />
    <glyph glyph-name="cent" unicode="&#xa2;" horiz-adv-x="423" 
d="M372 80q-49 -12 -104 -13v-75h-34v75q-73 4 -108 29t-47 80.5t-12 165.5q0 114 15.5 172.5t50 80.5t101.5 24v77h34v-77q49 -3 99 -12v-34q-43 12 -99 12v-484q61 2 104 14v-35zM114 193q10 -49 37 -68.5t83 -22.5v483q-55 -3 -82 -22.5t-37.5 -68.5t-10.5 -150
q0 -102 10 -151z" />
    <glyph glyph-name="sterling" unicode="&#xa3;" horiz-adv-x="511" 
d="M463 34v-34h-410v34h65v307h-65v34h65v28q0 121 17 182t62.5 86t135.5 25q32 0 65.5 -3.5t53.5 -9.5v-32q-24 5 -56 8t-54 3q-49 0 -80.5 -5t-51.5 -18q-33 -22 -44.5 -79.5t-11.5 -153.5v-31h233v-34h-233v-307h309z" />
    <glyph glyph-name="currency" unicode="&#xa4;" horiz-adv-x="681" 
d="M65 10l113 112q-18 27 -23.5 76.5t-5.5 146.5q0 94 5.5 143t22.5 77l-112 112l23 23l110 -110q21 15 54.5 21.5t87.5 6.5t88 -6.5t54 -22.5l111 110l22 -22l-112 -111q17 -29 22.5 -78t5.5 -143q0 -96 -5.5 -145.5t-22.5 -77.5l112 -112l-23 -23l-111 111
q-20 -15 -53.5 -21.5t-87.5 -6.5t-87.5 6.5t-53.5 22.5l-111 -111zM450 119.5q31 17.5 38.5 63t7.5 162.5q0 115 -7.5 160t-39 63t-109.5 18t-109.5 -18t-39 -63t-7.5 -160q0 -117 7.5 -162.5t38.5 -63t110 -17.5t110 17.5z" />
    <glyph glyph-name="yen" unicode="&#xa5;" horiz-adv-x="545" 
d="M509 688l-125 -240h95v-34h-112l-62 -119h174v-34h-189v-261h-36v261h-188v34h173l-61 119h-112v34h94l-123 240h40l121 -240h150l122 240h39zM276 305l55 109h-116l55 -109h6z" />
    <glyph glyph-name="brokenbar" unicode="&#xa6;" horiz-adv-x="242" 
d="M104 390v353h35v-353h-35zM104 -161v353h35v-353h-35z" />
    <glyph glyph-name="section" unicode="&#xa7;" horiz-adv-x="608" 
d="M203 -167.5q-41 3.5 -66 8.5v33q29 -5 70.5 -8t75.5 -3q54 0 86 7t50.5 30.5t18.5 70.5q0 42 -6 63.5t-20.5 32.5t-42.5 19l-155 45q-64 18 -94 33.5t-43.5 42.5t-13.5 77q0 67 21 109.5t79 47.5q-17 18 -23 43.5t-6 64.5q0 60 21.5 92t62.5 43.5t108 11.5
q38 0 79.5 -3.5t66.5 -8.5v-33q-71 11 -147 11q-53 0 -85 -7t-50.5 -30.5t-18.5 -70.5q0 -43 6.5 -64.5t24 -33t54.5 -21.5l147 -43q59 -17 87.5 -32t41.5 -42t13 -77q0 -67 -21 -110t-79 -47q17 -19 23 -44t6 -64q0 -60 -21.5 -92t-62.5 -43.5t-107 -11.5q-39 0 -80 3.5z
M488 138q21 29 21 91q0 41 -5 62.5t-15.5 31.5t-31.5 16l-222 63q-6 2 -26.5 7.5t-30.5 5.5q-36 0 -57.5 -29.5t-21.5 -91.5q0 -41 5.5 -62.5t19 -32t39.5 -18.5l214 -60q4 -1 23.5 -6.5t30.5 -5.5q36 0 57 29z" />
    <glyph glyph-name="dieresis" unicode="&#xa8;" horiz-adv-x="263" 
d="M22 670v61h42v-61h-42zM199 670v61h42v-61h-42z" />
    <glyph glyph-name="copyright" unicode="&#xa9;" horiz-adv-x="647" 
d="M155 15.5q-47 23.5 -59.5 89.5t-12.5 239t12.5 239t59.5 89.5t169 23.5q121 0 168.5 -23.5t59.5 -89.5t12 -239t-12 -239t-59.5 -89.5t-168.5 -23.5q-122 0 -169 23.5zM472.5 37.5q40.5 19.5 51.5 80.5t11 226t-11 226t-51.5 80.5t-148.5 19.5t-149 -19.5t-52 -80.5
t-11 -226t11 -226t52 -80.5t149 -19.5t148.5 19.5zM261 166.5q-25 12.5 -34 50.5t-9 127q0 88 9 126t34 51t83 13q51 0 72 -6v-29q-30 5 -68 5q-48 0 -67.5 -10t-26 -41.5t-6.5 -108.5t6.5 -108.5t26 -41.5t67.5 -10q41 0 69 5v-30q-30 -5 -73 -5q-58 0 -83 12.5z" />
    <glyph glyph-name="ordfeminine" unicode="&#xaa;" horiz-adv-x="365" 
d="M90 323.5q-25 8.5 -37.5 31.5t-12.5 68q0 42 8.5 64.5t30.5 32t63 9.5l131 -3v29q0 52 -7.5 74t-28.5 29t-70 7q-24 0 -55.5 -2.5t-50.5 -6.5v31q40 9 115 9q56 0 83 -11t37 -39.5t10 -86.5v-239h-27l-5 44h-4q-15 -30 -44 -39.5t-67 -9.5q-44 0 -69 8.5zM223.5 354.5
q26.5 9.5 37.5 34.5q12 26 12 84v25h-125q-32 0 -48 -5.5t-22.5 -21t-6.5 -48.5q0 -32 7.5 -48.5t26 -23t54.5 -6.5q38 0 64.5 9.5z" />
    <glyph glyph-name="guillemotleft" unicode="&#xab;" horiz-adv-x="400" 
d="M164 99l-115 205l115 206h31l-104 -206l104 -205h-31zM300 99l-116 205l116 206h30l-103 -206l103 -205h-30z" />
    <glyph glyph-name="logicalnot" unicode="&#xac;" horiz-adv-x="513" 
d="M412 63v175h-345v34h379v-209h-34z" />
    <glyph glyph-name="uni00AD" unicode="&#xad;" horiz-adv-x="332" 
d="M63 268v36h206v-36h-206z" />
    <glyph glyph-name="registered" unicode="&#xae;" horiz-adv-x="647" 
d="M492.5 672.5q47.5 -23.5 59.5 -89.5t12 -239t-12 -239t-59.5 -89.5t-168.5 -23.5q-122 0 -169 23.5t-59.5 89.5t-12.5 239t12.5 239t59.5 89.5t169 23.5q121 0 168.5 -23.5zM472.5 37.5q40.5 19.5 51.5 80.5t11 226t-11 226t-51.5 80.5t-148.5 19.5t-149 -19.5t-52 -80.5
t-11 -226t11 -226t52 -80.5t149 -19.5t148.5 19.5zM432.5 354.5q-10.5 -26.5 -40.5 -37.5l58 -160h-35l-54 155q-4 -1 -12 -1h-105v-154h-30v372h138q41 0 60.5 -15t25 -37t5.5 -56q0 -40 -10.5 -66.5zM389.5 350.5q14.5 9.5 18.5 26t4 44.5t-3.5 44t-17 25t-41.5 9h-106
v-158h100q31 0 45.5 9.5z" />
    <glyph glyph-name="macron" unicode="&#xaf;" horiz-adv-x="332" 
d="M63 706v36h206v-36h-206z" />
    <glyph glyph-name="degree" unicode="&#xb0;" horiz-adv-x="349" 
d="M99 409q-23 12 -29.5 41.5t-6.5 95.5q0 67 6.5 96.5t29.5 41.5t76 12q52 0 74.5 -12t29 -41.5t6.5 -96.5t-6.5 -96t-29 -41t-74.5 -12q-53 0 -76 12zM228.5 437q15.5 9 19 31t3.5 78t-3.5 78t-19 31.5t-53.5 9.5q-39 0 -55 -9.5t-19.5 -31.5t-3.5 -78t3.5 -78t19.5 -31
t55 -9q38 0 53.5 9z" />
    <glyph glyph-name="plusminus" unicode="&#xb1;" horiz-adv-x="514" 
d="M240 189v174h-173v32h173v175h32v-175h175v-32h-175v-174h-32zM67 15v32h380v-32h-380z" />
    <glyph glyph-name="uni00B2" unicode="&#xb2;" horiz-adv-x="320" 
d="M82 352h187v-33h-218v39q0 47 2 66t12 31t34 24l99 49q22 11 29.5 26t7.5 44q0 28 -6.5 41.5t-22 18.5t-47.5 5q-18 0 -102 -7v32q54 8 106 8q36 0 57.5 -6t35 -26t13.5 -61q0 -45 -13 -66t-49 -39l-12 -6t-11 -5q-15 -8 -34.5 -17.5t-41.5 -21.5q-18 -9 -22 -21t-4 -49
v-26z" />
    <glyph glyph-name="uni00B3" unicode="&#xb3;" horiz-adv-x="312" 
d="M43 319v31q79 -7 95 -7q46 0 67.5 14.5t21.5 57.5q0 40 -14.5 58t-46.5 18h-68v31h68q23 0 40 15.5t17 54.5q0 43 -20.5 57t-68.5 14q-35 0 -89 -7v31q50 9 94 9q67 0 92.5 -23t25.5 -80q0 -32 -11.5 -51.5t-33.5 -31.5v-4q49 -21 49 -87q0 -38 -9.5 -61t-36 -35
t-76.5 -12q-48 0 -96 8z" />
    <glyph glyph-name="acute" unicode="&#xb4;" horiz-adv-x="154" 
d="M13 605v5l83 133h44v-5l-101 -133h-26z" />
    <glyph glyph-name="uni00B5" unicode="&#xb5;" horiz-adv-x="534" 
d="M447 510v-510h-28l-3 80h-4q-13 -40 -47.5 -64t-110.5 -24q-47 0 -77.5 9.5t-48.5 30.5h-6v-222h-35v700h35v-315q0 -77 10.5 -112t38.5 -47t89 -12q72 0 104.5 28t40 71.5t7.5 122.5v264h35z" />
    <glyph glyph-name="paragraph" unicode="&#xb6;" horiz-adv-x="484" 
d="M267 222q-102 0 -143 16t-52.5 60t-11.5 156t11.5 156.5t52.5 61t143 16.5h36v-832h-36v366zM361 -144v832h36v-832h-36z" />
    <glyph glyph-name="periodcentered" unicode="&#xb7;" horiz-adv-x="168" 
d="M61 267v65h46v-65h-46z" />
    <glyph glyph-name="cedilla" unicode="&#xb8;" horiz-adv-x="124" 
d="M20 -190v5l58 193h26v-5l-44 -193h-40z" />
    <glyph glyph-name="uni00B9" unicode="&#xb9;" horiz-adv-x="208" 
d="M104 319v326l-67 -35v33l75 45h25v-369h-33z" />
    <glyph glyph-name="ordmasculine" unicode="&#xba;" horiz-adv-x="377" 
d="M93 329.5q-29 14.5 -37 51t-8 123.5t8 124.5t37 52.5t96 15t95.5 -15t36.5 -52.5t8 -124.5t-8 -123.5t-36.5 -51t-95.5 -14.5t-96 14.5zM264.5 356q21.5 12 26.5 41.5t5 106.5t-5 107t-26.5 42t-75.5 12t-75.5 -12t-27 -42t-5.5 -107t5.5 -106.5t27 -41.5t75.5 -12
t75.5 12z" />
    <glyph glyph-name="guillemotright" unicode="&#xbb;" horiz-adv-x="400" 
d="M70 99l103 205l-103 206h30l116 -206l-116 -205h-30zM205 99l104 205l-104 206h31l116 -206l-116 -205h-31z" />
    <glyph glyph-name="onequarter" unicode="&#xbc;" horiz-adv-x="598" 
d="M104 319v326l-66 -35v33l74 45h25v-369h-33zM58 0l390 688h39l-391 -688h-38zM460 0v85h-176v27l124 257h35l-122 -252h139v158h34v-158h49v-32h-49v-85h-34z" />
    <glyph glyph-name="onehalf" unicode="&#xbd;" horiz-adv-x="679" 
d="M104 319v326l-66 -35v33l74 45h25v-369h-33zM448 688h39l-391 -688h-38zM422 33h187v-33h-219v39q0 46 2.5 65.5t12 31.5t33.5 24l34 17l65 31q23 12 30.5 27t7.5 43q0 40 -15.5 53t-60.5 13q-26 0 -103 -8v33q56 8 106 8q36 0 58 -6t35.5 -26.5t13.5 -61.5
q0 -45 -13.5 -66t-49.5 -39q-66 -32 -100 -50q-17 -8 -20.5 -21.5t-3.5 -48.5v-25z" />
    <glyph glyph-name="threequarters" unicode="&#xbe;" horiz-adv-x="693" 
d="M153 343q45 0 66.5 14.5t21.5 57.5q0 40 -14.5 58t-46.5 18h-68v31h68q23 0 40 15.5t17 54.5q0 43 -20.5 57t-68.5 14q-35 0 -89 -7v31q50 9 95 9q66 0 91.5 -23t25.5 -80q0 -32 -11.5 -51.5t-33.5 -31.5v-4q49 -21 49 -87q0 -38 -9.5 -61t-36 -35t-76.5 -12q-48 0 -96 8
v31q79 -7 96 -7zM157 0l391 688h38l-390 -688h-39zM555 0v85h-176v27l124 257h35l-121 -252h139v158h33v-158h49v-32h-49v-85h-34z" />
    <glyph glyph-name="questiondown" unicode="&#xbf;" horiz-adv-x="369" 
d="M242 445v65h46v-65h-46zM133.5 -171.5q-37.5 14.5 -54.5 49t-17 95.5q0 51 4.5 82.5t21.5 57t54 40.5l47 20q29 12 40.5 20.5t14.5 20.5t3 38v85h36v-87q0 -37 -6.5 -56t-20.5 -28.5t-45 -21.5l-22 -9q-40 -16 -58.5 -30.5t-25.5 -41t-7 -79.5q0 -57 12 -85.5t42 -39.5
t88 -11q55 0 149 12v-32q-36 -6 -79.5 -10t-73.5 -4q-65 0 -102.5 14.5z" />
    <glyph glyph-name="Agrave" unicode="&#xc0;" horiz-adv-x="590" 
d="M519 0l-78 220h-293l-77 -220h-38l244 688h37l243 -688h-38zM297 630h-5l-132 -376h269zM290 750l-101 133v5h44l83 -133v-5h-26z" />
    <glyph glyph-name="Aacute" unicode="&#xc1;" horiz-adv-x="590" 
d="M519 0l-78 220h-293l-77 -220h-38l244 688h37l243 -688h-38zM297 630h-5l-132 -376h269zM273 750v5l83 133h44v-5l-101 -133h-26z" />
    <glyph glyph-name="Acircumflex" unicode="&#xc2;" horiz-adv-x="590" 
d="M519 0l-78 220h-293l-77 -220h-38l244 688h37l243 -688h-38zM297 630h-5l-132 -376h269zM177 750v5l94 133h46l94 -133v-5h-27l-90 108l-90 -108h-27z" />
    <glyph glyph-name="Atilde" unicode="&#xc3;" horiz-adv-x="590" 
d="M519 0l-78 220h-293l-77 -220h-38l244 688h37l243 -688h-38zM297 630h-5l-132 -376h269zM436 781q-11 -20 -46 -20q-23 0 -46.5 7t-56.5 20q-56 24 -87 24q-19 0 -25 -13.5t-6 -48.5h-27q0 54 11.5 74.5t46.5 20.5q23 0 45.5 -7t58.5 -21q28 -11 48 -17t38 -6
q19 0 24.5 13t5.5 49h27q0 -55 -11 -75z" />
    <glyph glyph-name="Adieresis" unicode="&#xc4;" horiz-adv-x="590" 
d="M519 0l-78 220h-293l-77 -220h-38l244 688h37l243 -688h-38zM297 630h-5l-132 -376h269zM186 770v61h42v-61h-42zM363 770v61h42v-61h-42z" />
    <glyph glyph-name="Aring" unicode="&#xc5;" horiz-adv-x="590" 
d="M557 0h-38l-78 220h-293l-77 -220h-38l236 669q-35 2 -51 11.5t-20.5 27t-4.5 51.5q0 38 6 56.5t27.5 27t68.5 8.5t68.5 -8.5t27.5 -27t6 -56.5q0 -34 -4.5 -51.5t-20.5 -27t-50 -11.5zM229.5 719q3.5 -12 18 -17t47.5 -5t47.5 5t18 17t3.5 40t-3.5 40.5t-18 18
t-47.5 5.5t-47.5 -5.5t-18 -18t-3.5 -40.5t3.5 -40zM160 254h269l-132 376h-5z" />
    <glyph glyph-name="AE" unicode="&#xc6;" horiz-adv-x="815" 
d="M485 0l-56 220h-294l-98 -220h-37l308 688h459v-34h-413l75 -289h297v-34h-288l77 -297h252v-34h-282zM324 630h-5l-168 -376h269z" />
    <glyph glyph-name="Ccedilla" unicode="&#xc7;" horiz-adv-x="493" 
d="M441 36v-34q-58 -10 -132 -10q-36 0 -51 1l-42 -183h-40v5l54 180q-66 7 -97.5 38t-43.5 101t-12 210q0 161 17 232.5t63.5 95.5t151.5 24q32 0 68.5 -3.5t59.5 -8.5v-32q-55 10 -120 10q-99 0 -138.5 -19.5t-52.5 -82t-13 -216.5t13 -216.5t52.5 -82t138.5 -19.5
q67 0 124 10z" />
    <glyph glyph-name="Egrave" unicode="&#xc8;" horiz-adv-x="517" 
d="M99 0v688h370v-34h-334v-289h293v-34h-293v-297h334v-34h-370zM285 750l-101 133v5h44l83 -133v-5h-26z" />
    <glyph glyph-name="Eacute" unicode="&#xc9;" horiz-adv-x="517" 
d="M99 0v688h370v-34h-334v-289h293v-34h-293v-297h334v-34h-370zM262 750v5l83 133h44v-5l-101 -133h-26z" />
    <glyph glyph-name="Ecircumflex" unicode="&#xca;" horiz-adv-x="517" 
d="M99 0v688h370v-34h-334v-289h293v-34h-293v-297h334v-34h-370zM170 750v5l94 133h46l94 -133v-5h-27l-90 108l-90 -108h-27z" />
    <glyph glyph-name="Edieresis" unicode="&#xcb;" horiz-adv-x="517" 
d="M99 0v688h370v-34h-334v-289h293v-34h-293v-297h334v-34h-370zM180 770v61h42v-61h-42zM357 770v61h42v-61h-42z" />
    <glyph glyph-name="Igrave" unicode="&#xcc;" horiz-adv-x="236" 
d="M100 0v688h36v-688h-36zM117 750l-101 133v5h44l83 -133v-5h-26z" />
    <glyph glyph-name="Iacute" unicode="&#xcd;" horiz-adv-x="236" 
d="M100 0v688h36v-688h-36zM94 750v5l83 133h44v-5l-101 -133h-26z" />
    <glyph glyph-name="Icircumflex" unicode="&#xce;" horiz-adv-x="236" 
d="M100 0v688h36v-688h-36zM1 750v5l94 133h46l94 -133v-5h-27l-90 108l-90 -108h-27z" />
    <glyph glyph-name="Idieresis" unicode="&#xcf;" horiz-adv-x="236" 
d="M100 0v688h36v-688h-36zM9 770v61h42v-61h-42zM186 770v61h42v-61h-42z" />
    <glyph glyph-name="Eth" unicode="&#xd0;" horiz-adv-x="599" 
d="M99 331h-65v36h65v321h179q118 0 166.5 -23t63 -90t14.5 -231t-14.5 -231t-63 -90t-166.5 -23h-179v331zM419.5 49.5q41.5 15.5 54 75t12.5 219.5q0 159 -13 219t-54.5 75.5t-153.5 15.5h-130v-287h124v-36h-124v-297h130q113 0 154.5 15.5z" />
    <glyph glyph-name="Ntilde" unicode="&#xd1;" horiz-adv-x="638" 
d="M502 0l-364 613h-4v-613h-35v688h37l365 -613h4v613h35v-688h-38zM463 781q-11 -20 -46 -20q-23 0 -46.5 7t-56.5 20q-56 24 -87 24q-19 0 -25 -13.5t-6 -48.5h-27q0 54 11.5 74.5t46.5 20.5q23 0 45.5 -7t58.5 -21q28 -11 48 -17t38 -6q19 0 24.5 13t5.5 49h27
q0 -55 -11 -75z" />
    <glyph glyph-name="Ograve" unicode="&#xd2;" horiz-adv-x="628" 
d="M152 15.5q-47 23.5 -61 92t-14 236.5t14 236.5t61 92t162 23.5t162 -23.5t61 -92t14 -236.5t-14 -236.5t-61 -92t-162 -23.5t-162 23.5zM452.5 42q37.5 16 50 78t12.5 224t-12.5 224t-50 78t-138.5 16q-100 0 -138 -16t-50.5 -78t-12.5 -224t12.5 -224t50.5 -78t138 -16
q101 0 138.5 16zM305 750l-101 133v5h44l83 -133v-5h-26z" />
    <glyph glyph-name="Oacute" unicode="&#xd3;" horiz-adv-x="628" 
d="M152 15.5q-47 23.5 -61 92t-14 236.5t14 236.5t61 92t162 23.5t162 -23.5t61 -92t14 -236.5t-14 -236.5t-61 -92t-162 -23.5t-162 23.5zM452.5 42q37.5 16 50 78t12.5 224t-12.5 224t-50 78t-138.5 16q-100 0 -138 -16t-50.5 -78t-12.5 -224t12.5 -224t50.5 -78t138 -16
q101 0 138.5 16zM293 750v5l83 133h44v-5l-101 -133h-26z" />
    <glyph glyph-name="Ocircumflex" unicode="&#xd4;" horiz-adv-x="628" 
d="M152 15.5q-47 23.5 -61 92t-14 236.5t14 236.5t61 92t162 23.5t162 -23.5t61 -92t14 -236.5t-14 -236.5t-61 -92t-162 -23.5t-162 23.5zM452.5 42q37.5 16 50 78t12.5 224t-12.5 224t-50 78t-138.5 16q-100 0 -138 -16t-50.5 -78t-12.5 -224t12.5 -224t50.5 -78t138 -16
q101 0 138.5 16zM197 750v5l94 133h46l94 -133v-5h-27l-90 108l-90 -108h-27z" />
    <glyph glyph-name="Otilde" unicode="&#xd5;" horiz-adv-x="628" 
d="M152 15.5q-47 23.5 -61 92t-14 236.5t14 236.5t61 92t162 23.5t162 -23.5t61 -92t14 -236.5t-14 -236.5t-61 -92t-162 -23.5t-162 23.5zM452.5 42q37.5 16 50 78t12.5 224t-12.5 224t-50 78t-138.5 16q-100 0 -138 -16t-50.5 -78t-12.5 -224t12.5 -224t50.5 -78t138 -16
q101 0 138.5 16zM455 781q-11 -20 -46 -20q-23 0 -46.5 7t-56.5 20q-56 24 -87 24q-19 0 -25 -13.5t-6 -48.5h-27q0 54 11.5 74.5t46.5 20.5q23 0 45.5 -7t58.5 -21q28 -11 48 -17t38 -6q19 0 24.5 13t5.5 49h27q0 -55 -11 -75z" />
    <glyph glyph-name="Odieresis" unicode="&#xd6;" horiz-adv-x="628" 
d="M152 15.5q-47 23.5 -61 92t-14 236.5t14 236.5t61 92t162 23.5t162 -23.5t61 -92t14 -236.5t-14 -236.5t-61 -92t-162 -23.5t-162 23.5zM452.5 42q37.5 16 50 78t12.5 224t-12.5 224t-50 78t-138.5 16q-100 0 -138 -16t-50.5 -78t-12.5 -224t12.5 -224t50.5 -78t138 -16
q101 0 138.5 16zM204 770v61h42v-61h-42zM381 770v61h42v-61h-42z" />
    <glyph glyph-name="multiply" unicode="&#xd7;" horiz-adv-x="446" 
d="M223 230l-133 -133l-22 22l132 133l-133 134l23 23l133 -134l134 133l22 -22l-134 -133l134 -133l-23 -23z" />
    <glyph glyph-name="Oslash" unicode="&#xd8;" horiz-adv-x="628" 
d="M502 653q31 -32 40 -98.5t9 -210.5q0 -168 -14 -236.5t-61 -92t-162 -23.5q-60 0 -98.5 5t-63.5 19l-39 -71h-36l49 90q-31 32 -40 98.5t-9 210.5q0 168 14 236.5t61 92t162 23.5q60 0 98 -5t63 -18l39 70h37zM119 156.5q6 -60.5 25 -88.5l315 575q-20 12 -51.5 15.5
t-93.5 3.5q-100 0 -138 -16t-50.5 -78t-12.5 -224q0 -127 6 -187.5zM509 531.5q-6 60.5 -25 88.5l-316 -575q21 -12 52.5 -15.5t93.5 -3.5q101 0 138.5 16t50 78t12.5 224q0 127 -6 187.5z" />
    <glyph glyph-name="Ugrave" unicode="&#xd9;" horiz-adv-x="621" 
d="M531 688v-394q0 -132 -13.5 -192t-59 -85t-147.5 -25t-148 25t-59.5 85.5t-13.5 191.5v394h36v-424q0 -106 11 -152.5t49 -66t125 -19.5t125 19.5t48.5 66t10.5 152.5v424h36zM321 750l-101 133v5h44l83 -133v-5h-26z" />
    <glyph glyph-name="Uacute" unicode="&#xda;" horiz-adv-x="621" 
d="M531 688v-394q0 -132 -13.5 -192t-59 -85t-147.5 -25t-148 25t-59.5 85.5t-13.5 191.5v394h36v-424q0 -106 11 -152.5t49 -66t125 -19.5t125 19.5t48.5 66t10.5 152.5v424h36zM286 750v5l83 133h44v-5l-101 -133h-26z" />
    <glyph glyph-name="Ucircumflex" unicode="&#xdb;" horiz-adv-x="621" 
d="M531 688v-394q0 -132 -13.5 -192t-59 -85t-147.5 -25t-148 25t-59.5 85.5t-13.5 191.5v394h36v-424q0 -106 11 -152.5t49 -66t125 -19.5t125 19.5t48.5 66t10.5 152.5v424h36zM193 750v5l94 133h46l94 -133v-5h-27l-90 108l-90 -108h-27z" />
    <glyph glyph-name="Udieresis" unicode="&#xdc;" horiz-adv-x="621" 
d="M531 688v-394q0 -132 -13.5 -192t-59 -85t-147.5 -25t-148 25t-59.5 85.5t-13.5 191.5v394h36v-424q0 -106 11 -152.5t49 -66t125 -19.5t125 19.5t48.5 66t10.5 152.5v424h36zM201 770v61h42v-61h-42zM378 770v61h42v-61h-42z" />
    <glyph glyph-name="Yacute" unicode="&#xdd;" horiz-adv-x="512" 
d="M238 0v281l-225 407h41l199 -364h7l200 364h39l-225 -407v-281h-36zM241 750v5l83 133h44v-5l-101 -133h-26z" />
    <glyph glyph-name="Thorn" unicode="&#xde;" horiz-adv-x="563" 
d="M99 688h36v-131h206q77 0 114 -27.5t46.5 -69.5t9.5 -110q0 -67 -10 -109.5t-47 -70t-113 -27.5h-206v-143h-36v688zM339 177q61 0 90 20t37.5 55.5t8.5 97.5q0 63 -7.5 98t-37 55t-91.5 20h-204v-346h204z" />
    <glyph glyph-name="germandbls" unicode="&#xdf;" horiz-adv-x="542" 
d="M222 0v32h60q75 0 106.5 13t42 53t10.5 137q0 75 -13.5 115t-45 57t-89.5 17h-36v32h36q76 0 108.5 29.5t32.5 98.5q0 51 -14 79.5t-47.5 41.5t-93.5 13q-58 0 -91.5 -15t-50 -54t-16.5 -111v-538h-34v539q0 77 19 122.5t62 67t116 21.5q70 0 110 -17.5t57.5 -54
t17.5 -98.5t-25 -94t-80 -41v-4q58 -10 85 -55t27 -142q0 -98 -13 -148.5t-50 -73t-113 -22.5h-78z" />
    <glyph glyph-name="agrave" unicode="&#xe0;" horiz-adv-x="503" 
d="M123 3.5q-35 11.5 -52 43t-17 91.5q0 57 12 88t41.5 44t84.5 13q31 0 191 -5v46q0 76 -11.5 108.5t-42 43t-100.5 10.5q-32 0 -75.5 -4t-68.5 -9v33q60 12 156 12q75 0 112 -15.5t51 -54.5t14 -118v-330h-28l-3 80h-4q-17 -53 -60.5 -70.5t-104.5 -17.5q-60 0 -95 11.5z
M311 35q36 11 51 49q12 29 16.5 58t4.5 68v41h-183q-47 0 -70 -8t-32 -31.5t-9 -73.5q0 -48 10.5 -72t37 -33t80.5 -9q58 0 94 11zM261 605l-101 133v5h44l83 -133v-5h-26z" />
    <glyph glyph-name="aacute" unicode="&#xe1;" horiz-adv-x="503" 
d="M123 3.5q-35 11.5 -52 43t-17 91.5q0 57 12 88t41.5 44t84.5 13q31 0 191 -5v46q0 76 -11.5 108.5t-42 43t-100.5 10.5q-32 0 -75.5 -4t-68.5 -9v33q60 12 156 12q75 0 112 -15.5t51 -54.5t14 -118v-330h-28l-3 80h-4q-17 -53 -60.5 -70.5t-104.5 -17.5q-60 0 -95 11.5z
M311 35q36 11 51 49q12 29 16.5 58t4.5 68v41h-183q-47 0 -70 -8t-32 -31.5t-9 -73.5q0 -48 10.5 -72t37 -33t80.5 -9q58 0 94 11zM223 605v5l83 133h44v-5l-101 -133h-26z" />
    <glyph glyph-name="acircumflex" unicode="&#xe2;" horiz-adv-x="503" 
d="M123 3.5q-35 11.5 -52 43t-17 91.5q0 57 12 88t41.5 44t84.5 13q31 0 191 -5v46q0 76 -11.5 108.5t-42 43t-100.5 10.5q-32 0 -75.5 -4t-68.5 -9v33q60 12 156 12q75 0 112 -15.5t51 -54.5t14 -118v-330h-28l-3 80h-4q-17 -53 -60.5 -70.5t-104.5 -17.5q-60 0 -95 11.5z
M311 35q36 11 51 49q12 29 16.5 58t4.5 68v41h-183q-47 0 -70 -8t-32 -31.5t-9 -73.5q0 -48 10.5 -72t37 -33t80.5 -9q58 0 94 11zM137 605v5l94 133h46l94 -133v-5h-27l-90 108l-90 -108h-27z" />
    <glyph glyph-name="atilde" unicode="&#xe3;" horiz-adv-x="503" 
d="M123 3.5q-35 11.5 -52 43t-17 91.5q0 57 12 88t41.5 44t84.5 13q31 0 191 -5v46q0 76 -11.5 108.5t-42 43t-100.5 10.5q-32 0 -75.5 -4t-68.5 -9v33q60 12 156 12q75 0 112 -15.5t51 -54.5t14 -118v-330h-28l-3 80h-4q-17 -53 -60.5 -70.5t-104.5 -17.5q-60 0 -95 11.5z
M311 35q36 11 51 49q12 29 16.5 58t4.5 68v41h-183q-47 0 -70 -8t-32 -31.5t-9 -73.5q0 -48 10.5 -72t37 -33t80.5 -9q58 0 94 11zM392 668q-11 -20 -46 -20q-23 0 -46.5 7t-56.5 20q-56 24 -87 24q-19 0 -25 -13.5t-6 -48.5h-27q0 54 11.5 74.5t46.5 20.5q23 0 45.5 -7
t58.5 -21q28 -11 48 -17t38 -6q19 0 24.5 13t5.5 49h27q0 -55 -11 -75z" />
    <glyph glyph-name="adieresis" unicode="&#xe4;" horiz-adv-x="503" 
d="M123 3.5q-35 11.5 -52 43t-17 91.5q0 57 12 88t41.5 44t84.5 13q31 0 191 -5v46q0 76 -11.5 108.5t-42 43t-100.5 10.5q-32 0 -75.5 -4t-68.5 -9v33q60 12 156 12q75 0 112 -15.5t51 -54.5t14 -118v-330h-28l-3 80h-4q-17 -53 -60.5 -70.5t-104.5 -17.5q-60 0 -95 11.5z
M311 35q36 11 51 49q12 29 16.5 58t4.5 68v41h-183q-47 0 -70 -8t-32 -31.5t-9 -73.5q0 -48 10.5 -72t37 -33t80.5 -9q58 0 94 11zM145 670v61h42v-61h-42zM322 670v61h42v-61h-42z" />
    <glyph glyph-name="aring" unicode="&#xe5;" horiz-adv-x="503" 
d="M123 3.5q-35 11.5 -52 43t-17 91.5q0 57 12 88t41.5 44t84.5 13q31 0 191 -5v46q0 76 -11.5 108.5t-42 43t-100.5 10.5q-32 0 -75.5 -4t-68.5 -9v33q60 12 156 12q75 0 112 -15.5t51 -54.5t14 -118v-330h-28l-3 80h-4q-17 -53 -60.5 -70.5t-104.5 -17.5q-60 0 -95 11.5z
M311 35q36 11 51 49q12 29 16.5 58t4.5 68v41h-183q-47 0 -70 -8t-32 -31.5t-9 -73.5q0 -48 10.5 -72t37 -33t80.5 -9q58 0 94 11zM182.5 623q-21.5 8 -27.5 26t-6 56t6 56t27.5 26.5t68.5 8.5t68.5 -8.5t27.5 -26.5t6 -56t-6 -56t-27.5 -26t-68.5 -8t-68.5 8zM298.5 648
q14.5 5 18 17t3.5 40t-3.5 40t-18 17.5t-47.5 5.5t-47.5 -5.5t-18 -17.5t-3.5 -40t3.5 -40t18 -17t47.5 -5t47.5 5z" />
    <glyph glyph-name="ae" unicode="&#xe6;" horiz-adv-x="815" 
d="M750 247h-332q0 -97 10.5 -142t44 -63t108.5 -18q36 0 78.5 4t73.5 10v-33q-26 -6 -69.5 -9.5t-86.5 -3.5q-85 0 -124.5 21t-55.5 77q-21 -61 -66 -79.5t-113 -18.5q-60 0 -95 11.5t-52 43t-17 91.5q0 55 12 85t41.5 43t84.5 13h191v45q0 76 -11.5 108.5t-42 43
t-100.5 10.5q-32 0 -75.5 -4t-68.5 -9v33q60 12 156 12q73 0 110 -15t52 -55q18 38 58 54t117 16q81 0 116.5 -22t45.5 -73t10 -163v-13zM469.5 471.5q-31.5 -14.5 -41.5 -55.5t-10 -137h297v17q0 86 -12 125.5t-40 52t-88 12.5q-74 0 -105.5 -14.5zM383 247h-183
q-47 0 -70 -7.5t-32 -30.5t-9 -71t10.5 -72t37 -33t80.5 -9q58 0 94 11.5t52 51.5q11 27 15.5 55.5t4.5 67.5v37z" />
    <glyph glyph-name="ccedilla" unicode="&#xe7;" horiz-adv-x="407" 
d="M309.5 28q31.5 4 52.5 9v-33q-21 -5 -53.5 -8.5t-62.5 -3.5q-22 0 -31 1l-42 -183h-40v5l54 181q-54 8 -80 36.5t-34 78.5t-8 143q0 109 14.5 164.5t51.5 77.5t110 22q29 0 61.5 -3t55.5 -8v-33q-55 12 -111 12q-65 0 -95 -18.5t-41 -66t-11 -145.5q0 -102 11 -149.5
t41.5 -65t97.5 -17.5q28 0 59.5 4z" />
    <glyph glyph-name="egrave" unicode="&#xe8;" horiz-adv-x="498" 
d="M432 243h-332q0 -96 10.5 -139.5t44 -61.5t108.5 -18q36 0 78.5 4t73.5 10v-33q-25 -6 -68.5 -9.5t-87.5 -3.5q-86 0 -126.5 21.5t-54 75t-13.5 165.5q0 114 10.5 165t51 75t133.5 24q81 0 116.5 -22.5t45.5 -74t10 -165.5v-13zM152 471q-32 -15 -42 -57t-10 -139h297v21
q0 86 -12 125.5t-40 52t-87 12.5q-74 0 -106 -15zM251 605l-101 133v5h44l83 -133v-5h-26z" />
    <glyph glyph-name="eacute" unicode="&#xe9;" horiz-adv-x="498" 
d="M432 243h-332q0 -96 10.5 -139.5t44 -61.5t108.5 -18q36 0 78.5 4t73.5 10v-33q-25 -6 -68.5 -9.5t-87.5 -3.5q-86 0 -126.5 21.5t-54 75t-13.5 165.5q0 114 10.5 165t51 75t133.5 24q81 0 116.5 -22.5t45.5 -74t10 -165.5v-13zM152 471q-32 -15 -42 -57t-10 -139h297v21
q0 86 -12 125.5t-40 52t-87 12.5q-74 0 -106 -15zM232 605v5l83 133h44v-5l-101 -133h-26z" />
    <glyph glyph-name="ecircumflex" unicode="&#xea;" horiz-adv-x="498" 
d="M432 243h-332q0 -96 10.5 -139.5t44 -61.5t108.5 -18q36 0 78.5 4t73.5 10v-33q-25 -6 -68.5 -9.5t-87.5 -3.5q-86 0 -126.5 21.5t-54 75t-13.5 165.5q0 114 10.5 165t51 75t133.5 24q81 0 116.5 -22.5t45.5 -74t10 -165.5v-13zM152 471q-32 -15 -42 -57t-10 -139h297v21
q0 86 -12 125.5t-40 52t-87 12.5q-74 0 -106 -15zM133 605v5l94 133h46l94 -133v-5h-27l-90 108l-90 -108h-27z" />
    <glyph glyph-name="edieresis" unicode="&#xeb;" horiz-adv-x="498" 
d="M432 243h-332q0 -96 10.5 -139.5t44 -61.5t108.5 -18q36 0 78.5 4t73.5 10v-33q-25 -6 -68.5 -9.5t-87.5 -3.5q-86 0 -126.5 21.5t-54 75t-13.5 165.5q0 114 10.5 165t51 75t133.5 24q81 0 116.5 -22.5t45.5 -74t10 -165.5v-13zM152 471q-32 -15 -42 -57t-10 -139h297v21
q0 86 -12 125.5t-40 52t-87 12.5q-74 0 -106 -15zM141 670v61h42v-61h-42zM318 670v61h42v-61h-42z" />
    <glyph glyph-name="igrave" unicode="&#xec;" horiz-adv-x="209" 
d="M87 0v510h35v-510h-35zM98 605l-101 133v5h44l83 -133v-5h-26z" />
    <glyph glyph-name="iacute" unicode="&#xed;" horiz-adv-x="209" 
d="M87 0v510h35v-510h-35zM84 605v5l83 133h44v-5l-101 -133h-26z" />
    <glyph glyph-name="icircumflex" unicode="&#xee;" horiz-adv-x="209" 
d="M87 0v510h35v-510h-35zM-12 605v5l94 133h46l94 -133v-5h-27l-90 108l-90 -108h-27z" />
    <glyph glyph-name="idieresis" unicode="&#xef;" horiz-adv-x="209" 
d="M87 0v510h35v-510h-35zM-5 670v61h42v-61h-42zM172 670v61h42v-61h-42z" />
    <glyph glyph-name="eth" unicode="&#xf0;" horiz-adv-x="513" 
d="M126 12.5q-39 20.5 -50 71.5t-11 170q0 120 11 171.5t50 72t131 20.5q86 0 129 -36l5 2q-26 91 -71 160l-112 -19v32l92 16q-20 25 -39.5 43.5t-23.5 22.5v4h42q36 -33 59 -64l89 16v-32l-70 -12q29 -49 52 -115t31 -128q8 -61 8 -129q0 -134 -9.5 -188t-48 -76.5
t-133.5 -22.5q-92 0 -131 20.5zM367.5 41.5q31.5 17.5 38.5 60t7 152.5q0 95 -7.5 139t-40.5 68.5t-108 24.5q-80 0 -111.5 -17t-38.5 -60t-7 -155q0 -110 7 -152.5t39 -60t111 -17.5t110.5 17.5z" />
    <glyph glyph-name="ntilde" unicode="&#xf1;" horiz-adv-x="532" 
d="M412 315q0 77 -10.5 112t-38.5 47t-89 12q-72 0 -104.5 -28t-40 -71.5t-7.5 -122.5v-264h-35v510h28l3 -80h4q13 40 48 64t112 24q71 0 106 -19t47 -60t12 -119v-320h-35v315zM409 668q-11 -20 -46 -20q-23 0 -46.5 7t-56.5 20q-56 24 -87 24q-19 0 -25 -13.5t-6 -48.5
h-27q0 54 11.5 74.5t46.5 20.5q23 0 45.5 -7t58.5 -21q28 -11 48 -17t38 -6q19 0 24.5 13t5.5 49h27q0 -55 -11 -75z" />
    <glyph glyph-name="ograve" unicode="&#xf2;" horiz-adv-x="513" 
d="M126 12q-39 20 -50 71.5t-11 170.5q0 120 11 171.5t50.5 72t130.5 20.5t130 -20.5t50 -72t11 -171.5q0 -119 -11 -170.5t-50 -71.5t-130 -20q-92 0 -131 20zM367 41q31 17 38.5 59.5t7.5 153.5t-7.5 154.5t-39 60.5t-109.5 17q-79 0 -110.5 -17t-39 -60.5t-7.5 -154.5
t7.5 -153.5t39 -59.5t110.5 -17t110 17zM259 605l-101 133v5h44l83 -133v-5h-26z" />
    <glyph glyph-name="oacute" unicode="&#xf3;" horiz-adv-x="513" 
d="M126 12q-39 20 -50 71.5t-11 170.5q0 120 11 171.5t50.5 72t130.5 20.5t130 -20.5t50 -72t11 -171.5q0 -119 -11 -170.5t-50 -71.5t-130 -20q-92 0 -131 20zM367 41q31 17 38.5 59.5t7.5 153.5t-7.5 154.5t-39 60.5t-109.5 17q-79 0 -110.5 -17t-39 -60.5t-7.5 -154.5
t7.5 -153.5t39 -59.5t110.5 -17t110 17zM231 605v5l83 133h44v-5l-101 -133h-26z" />
    <glyph glyph-name="ocircumflex" unicode="&#xf4;" horiz-adv-x="513" 
d="M126 12q-39 20 -50 71.5t-11 170.5q0 120 11 171.5t50.5 72t130.5 20.5t130 -20.5t50 -72t11 -171.5q0 -119 -11 -170.5t-50 -71.5t-130 -20q-92 0 -131 20zM367 41q31 17 38.5 59.5t7.5 153.5t-7.5 154.5t-39 60.5t-109.5 17q-79 0 -110.5 -17t-39 -60.5t-7.5 -154.5
t7.5 -153.5t39 -59.5t110.5 -17t110 17zM140 605v5l94 133h46l94 -133v-5h-27l-90 108l-90 -108h-27z" />
    <glyph glyph-name="otilde" unicode="&#xf5;" horiz-adv-x="513" 
d="M126 12q-39 20 -50 71.5t-11 170.5q0 120 11 171.5t50.5 72t130.5 20.5t130 -20.5t50 -72t11 -171.5q0 -119 -11 -170.5t-50 -71.5t-130 -20q-92 0 -131 20zM367 41q31 17 38.5 59.5t7.5 153.5t-7.5 154.5t-39 60.5t-109.5 17q-79 0 -110.5 -17t-39 -60.5t-7.5 -154.5
t7.5 -153.5t39 -59.5t110.5 -17t110 17zM397 668q-11 -20 -46 -20q-23 0 -46.5 7t-56.5 20q-56 24 -87 24q-19 0 -25 -13.5t-6 -48.5h-27q0 54 11.5 74.5t46.5 20.5q23 0 45.5 -7t58.5 -21q28 -11 48 -17t38 -6q19 0 24.5 13t5.5 49h27q0 -55 -11 -75z" />
    <glyph glyph-name="odieresis" unicode="&#xf6;" horiz-adv-x="513" 
d="M126 12q-39 20 -50 71.5t-11 170.5q0 120 11 171.5t50.5 72t130.5 20.5t130 -20.5t50 -72t11 -171.5q0 -119 -11 -170.5t-50 -71.5t-130 -20q-92 0 -131 20zM367 41q31 17 38.5 59.5t7.5 153.5t-7.5 154.5t-39 60.5t-109.5 17q-79 0 -110.5 -17t-39 -60.5t-7.5 -154.5
t7.5 -153.5t39 -59.5t110.5 -17t110 17zM147 670v61h42v-61h-42zM324 670v61h42v-61h-42z" />
    <glyph glyph-name="divide" unicode="&#xf7;" horiz-adv-x="514" 
d="M235 405v58h44v-58h-44zM67 237v32h380v-32h-380zM235 43v58h44v-58h-44z" />
    <glyph glyph-name="oslash" unicode="&#xf8;" horiz-adv-x="513" 
d="M440 412q8 -50 8 -158q0 -119 -11 -170.5t-50 -71.5t-130 -20q-82 0 -120 15l-35 -62h-36l44 78q-29 24 -37 74t-8 157q0 120 11 171.5t50.5 72t130.5 20.5q81 0 118 -15l35 62h37l-44 -79q29 -24 37 -74zM104 116.5q4 -40.5 23 -61.5l232 418q-30 13 -102 13
q-79 0 -110.5 -17t-39 -60.5t-7.5 -154.5q0 -97 4 -137.5zM367 41q31 17 38.5 59.5t7.5 153.5q0 97 -4 138t-23 63l-233 -419q31 -12 104 -12q79 0 110 17z" />
    <glyph glyph-name="ugrave" unicode="&#xf9;" horiz-adv-x="532" 
d="M415 80h-4q-12 -40 -47.5 -64t-112.5 -24q-71 0 -106 19t-47 60t-12 119v320h35v-315q0 -77 10.5 -112t38.5 -47t89 -12q72 0 104.5 28t40 71.5t7.5 122.5v264h35v-510h-28zM265 605l-101 133v5h44l83 -133v-5h-26z" />
    <glyph glyph-name="uacute" unicode="&#xfa;" horiz-adv-x="532" 
d="M415 80h-4q-12 -40 -47.5 -64t-112.5 -24q-71 0 -106 19t-47 60t-12 119v320h35v-315q0 -77 10.5 -112t38.5 -47t89 -12q72 0 104.5 28t40 71.5t7.5 122.5v264h35v-510h-28zM248 605v5l83 133h44v-5l-101 -133h-26z" />
    <glyph glyph-name="ucircumflex" unicode="&#xfb;" horiz-adv-x="532" 
d="M415 80h-4q-12 -40 -47.5 -64t-112.5 -24q-71 0 -106 19t-47 60t-12 119v320h35v-315q0 -77 10.5 -112t38.5 -47t89 -12q72 0 104.5 28t40 71.5t7.5 122.5v264h35v-510h-28zM149 605v5l94 133h46l94 -133v-5h-27l-90 108l-90 -108h-27z" />
    <glyph glyph-name="udieresis" unicode="&#xfc;" horiz-adv-x="532" 
d="M415 80h-4q-12 -40 -47.5 -64t-112.5 -24q-71 0 -106 19t-47 60t-12 119v320h35v-315q0 -77 10.5 -112t38.5 -47t89 -12q72 0 104.5 28t40 71.5t7.5 122.5v264h35v-510h-28zM156 670v61h42v-61h-42zM333 670v61h42v-61h-42z" />
    <glyph glyph-name="yacute" unicode="&#xfd;" horiz-adv-x="532" 
d="M96 -197v33q77 -7 146 -7q75 0 111 22.5t47 67.5t11 132v21h-4q-12 -35 -46 -57.5t-111 -22.5q-70 0 -105 19t-47 60t-12 119v320h35v-315q0 -77 10.5 -112t38.5 -47t89 -12q72 0 104.5 28t40 71.5t7.5 122.5v264h35v-440q0 -108 -15.5 -165t-58 -82.5t-126.5 -25.5
q-72 0 -150 6zM249 605v5l83 133h44v-5l-101 -133h-26z" />
    <glyph glyph-name="thorn" unicode="&#xfe;" horiz-adv-x="527" 
d="M87 743h35v-304h4q15 43 53 61t104 18q77 0 114.5 -21.5t51 -75.5t13.5 -166t-13.5 -166t-51 -75.5t-114.5 -21.5q-66 0 -104 18t-53 61h-4v-261h-35v933zM375 40q31 16 41.5 62.5t10.5 152.5t-10.5 152.5t-41.5 62.5t-101 16q-59 0 -93.5 -20t-47.5 -67q-7 -25 -9 -56
t-2 -88q0 -54 1.5 -85.5t7.5 -50.5q15 -52 49 -73.5t94 -21.5q70 0 101 16z" />
    <glyph glyph-name="ydieresis" unicode="&#xff;" horiz-adv-x="532" 
d="M96 -197v33q77 -7 146 -7q75 0 111 22.5t47 67.5t11 132v21h-4q-12 -35 -46 -57.5t-111 -22.5q-70 0 -105 19t-47 60t-12 119v320h35v-315q0 -77 10.5 -112t38.5 -47t89 -12q72 0 104.5 28t40 71.5t7.5 122.5v264h35v-440q0 -108 -15.5 -165t-58 -82.5t-126.5 -25.5
q-72 0 -150 6zM158 670v61h42v-61h-42zM335 670v61h42v-61h-42z" />
    <glyph glyph-name="Amacron" unicode="&#x100;" horiz-adv-x="590" 
d="M519 0l-78 220h-293l-77 -220h-38l244 688h37l243 -688h-38zM297 630h-5l-132 -376h269zM192 851v36h206v-36h-206z" />
    <glyph glyph-name="amacron" unicode="&#x101;" horiz-adv-x="503" 
d="M123 3.5q-35 11.5 -52 43t-17 91.5q0 57 12 88t41.5 44t84.5 13q31 0 191 -5v46q0 76 -11.5 108.5t-42 43t-100.5 10.5q-32 0 -75.5 -4t-68.5 -9v33q60 12 156 12q75 0 112 -15.5t51 -54.5t14 -118v-330h-28l-3 80h-4q-17 -53 -60.5 -70.5t-104.5 -17.5q-60 0 -95 11.5z
M311 35q36 11 51 49q12 29 16.5 58t4.5 68v41h-183q-47 0 -70 -8t-32 -31.5t-9 -73.5q0 -48 10.5 -72t37 -33t80.5 -9q58 0 94 11zM148 706v36h206v-36h-206z" />
    <glyph glyph-name="Abreve" unicode="&#x102;" horiz-adv-x="590" 
d="M519 0l-78 220h-293l-77 -220h-38l244 688h37l243 -688h-38zM297 630h-5l-132 -376h269zM406 808.5q-6 -27.5 -31 -44.5t-80 -17t-80 17t-30.5 44.5t-5.5 79.5h32q0 -45 4 -67t22 -34t58 -12t58.5 12t22.5 34t4 67h32q0 -52 -6 -79.5z" />
    <glyph glyph-name="abreve" unicode="&#x103;" horiz-adv-x="503" 
d="M123 3.5q-35 11.5 -52 43t-17 91.5q0 57 12 88t41.5 44t84.5 13q31 0 191 -5v46q0 76 -11.5 108.5t-42 43t-100.5 10.5q-32 0 -75.5 -4t-68.5 -9v33q60 12 156 12q75 0 112 -15.5t51 -54.5t14 -118v-330h-28l-3 80h-4q-17 -53 -60.5 -70.5t-104.5 -17.5q-60 0 -95 11.5z
M311 35q36 11 51 49q12 29 16.5 58t4.5 68v41h-183q-47 0 -70 -8t-32 -31.5t-9 -73.5q0 -48 10.5 -72t37 -33t80.5 -9q58 0 94 11zM362 663.5q-6 -27.5 -31 -44.5t-80 -17t-80 17t-30.5 44.5t-5.5 79.5h32q0 -45 4 -67t22 -34t58 -12t58.5 12t22.5 34t4 67h32
q0 -52 -6 -79.5z" />
    <glyph glyph-name="Aogonek" unicode="&#x104;" horiz-adv-x="590" 
d="M539 -164l17 1v-32q-9 -1 -22 -1q-39 0 -57.5 19.5t-18.5 52.5q0 30 16.5 64.5t43.5 61.5l-77 218h-293l-77 -220h-38l244 688h37l243 -688h-6q-22 -21 -40.5 -56t-18.5 -62q0 -46 47 -46zM160 254h269l-132 376h-5z" />
    <glyph glyph-name="aogonek" unicode="&#x105;" horiz-adv-x="503" 
d="M422 -163v-32q-9 -1 -22 -1q-39 0 -57.5 19.5t-18.5 50.5q0 32 18.5 67t47.5 63l-3 76h-4q-17 -53 -60.5 -70.5t-104.5 -17.5q-60 0 -95 11.5t-52 43t-17 91.5q0 57 12 88t41.5 44t84.5 13q31 0 191 -5v46q0 76 -11.5 108.5t-42 43t-100.5 10.5q-32 0 -75.5 -4t-68.5 -9
v33q60 12 156 12q75 0 112 -15.5t51 -54.5t14 -118v-330q-21 -18 -40.5 -53.5t-19.5 -65.5q0 -45 47 -45zM383 251h-183q-47 0 -70 -8t-32 -31.5t-9 -73.5q0 -48 10.5 -72t37 -33t80.5 -9q58 0 94 11t51 49q12 29 16.5 58t4.5 68v41z" />
    <glyph glyph-name="Cacute" unicode="&#x106;" horiz-adv-x="493" 
d="M309 -8q-106 0 -152 23t-63 94.5t-17 234.5q0 161 17 232.5t63.5 95.5t151.5 24q32 0 68.5 -3.5t59.5 -8.5v-32q-55 10 -120 10q-99 0 -138.5 -19.5t-52.5 -82t-13 -216.5t13 -216.5t52.5 -82t138.5 -19.5q67 0 124 10v-34q-58 -10 -132 -10zM228 750v5l83 133h44v-5
l-101 -133h-26z" />
    <glyph glyph-name="cacute" unicode="&#x107;" horiz-adv-x="407" 
d="M308.5 -4.5q-32.5 -3.5 -62.5 -3.5q-82 0 -120 25t-49.5 78t-11.5 159q0 109 14.5 164.5t51.5 77.5t110 22q29 0 61.5 -3t55.5 -8v-33q-55 12 -111 12q-65 0 -95 -18.5t-41 -66t-11 -145.5q0 -102 11 -149.5t41.5 -65t97.5 -17.5q28 0 59.5 4t52.5 9v-33
q-21 -5 -53.5 -8.5zM186 605v5l83 133h44v-5l-101 -133h-26z" />
    <glyph glyph-name="Ccircumflex" unicode="&#x108;" horiz-adv-x="493" 
d="M309 -8q-106 0 -152 23t-63 94.5t-17 234.5q0 161 17 232.5t63.5 95.5t151.5 24q32 0 68.5 -3.5t59.5 -8.5v-32q-55 10 -120 10q-99 0 -138.5 -19.5t-52.5 -82t-13 -216.5t13 -216.5t52.5 -82t138.5 -19.5q67 0 124 10v-34q-58 -10 -132 -10zM129 750v5l94 133h46
l94 -133v-5h-27l-90 108l-90 -108h-27z" />
    <glyph glyph-name="ccircumflex" unicode="&#x109;" horiz-adv-x="407" 
d="M308.5 -4.5q-32.5 -3.5 -62.5 -3.5q-82 0 -120 25t-49.5 78t-11.5 159q0 109 14.5 164.5t51.5 77.5t110 22q29 0 61.5 -3t55.5 -8v-33q-55 12 -111 12q-65 0 -95 -18.5t-41 -66t-11 -145.5q0 -102 11 -149.5t41.5 -65t97.5 -17.5q28 0 59.5 4t52.5 9v-33
q-21 -5 -53.5 -8.5zM86 605v5l94 133h46l94 -133v-5h-27l-90 108l-90 -108h-27z" />
    <glyph glyph-name="Cdotaccent" unicode="&#x10a;" horiz-adv-x="493" 
d="M309 -8q-106 0 -152 23t-63 94.5t-17 234.5q0 161 17 232.5t63.5 95.5t151.5 24q32 0 68.5 -3.5t59.5 -8.5v-32q-55 10 -120 10q-99 0 -138.5 -19.5t-52.5 -82t-13 -216.5t13 -216.5t52.5 -82t138.5 -19.5q67 0 124 10v-34q-58 -10 -132 -10zM224 815v61h43v-61h-43z" />
    <glyph glyph-name="cdotaccent" unicode="&#x10b;" horiz-adv-x="407" 
d="M308.5 -4.5q-32.5 -3.5 -62.5 -3.5q-82 0 -120 25t-49.5 78t-11.5 159q0 109 14.5 164.5t51.5 77.5t110 22q29 0 61.5 -3t55.5 -8v-33q-55 12 -111 12q-65 0 -95 -18.5t-41 -66t-11 -145.5q0 -102 11 -149.5t41.5 -65t97.5 -17.5q28 0 59.5 4t52.5 9v-33
q-21 -5 -53.5 -8.5zM181 670v61h43v-61h-43z" />
    <glyph glyph-name="Ccaron" unicode="&#x10c;" horiz-adv-x="493" 
d="M309 -8q-106 0 -152 23t-63 94.5t-17 234.5q0 161 17 232.5t63.5 95.5t151.5 24q32 0 68.5 -3.5t59.5 -8.5v-32q-55 10 -120 10q-99 0 -138.5 -19.5t-52.5 -82t-13 -216.5t13 -216.5t52.5 -82t138.5 -19.5q67 0 124 10v-34q-58 -10 -132 -10zM223 750l-94 133v5h27
l90 -108l90 108h27v-5l-94 -133h-46z" />
    <glyph glyph-name="ccaron" unicode="&#x10d;" horiz-adv-x="407" 
d="M308.5 -4.5q-32.5 -3.5 -62.5 -3.5q-82 0 -120 25t-49.5 78t-11.5 159q0 109 14.5 164.5t51.5 77.5t110 22q29 0 61.5 -3t55.5 -8v-33q-55 12 -111 12q-65 0 -95 -18.5t-41 -66t-11 -145.5q0 -102 11 -149.5t41.5 -65t97.5 -17.5q28 0 59.5 4t52.5 9v-33
q-21 -5 -53.5 -8.5zM180 605l-94 133v5h27l90 -108l90 108h27v-5l-94 -133h-46z" />
    <glyph glyph-name="Dcaron" unicode="&#x10e;" horiz-adv-x="599" 
d="M99 688h179q118 0 166.5 -23t63 -90t14.5 -231t-14.5 -231t-63 -90t-166.5 -23h-179v688zM265 34q113 0 154.5 15.5t54 75t12.5 219.5q0 159 -13 219t-54.5 75.5t-153.5 15.5h-130v-620h130zM277 750l-94 133v5h27l90 -108l90 108h27v-5l-94 -133h-46z" />
    <glyph glyph-name="dcaron" unicode="&#x10f;" horiz-adv-x="527" 
d="M130 13.5q-37 21.5 -51 75.5t-14 166t13.5 166t51 75.5t114.5 21.5q66 0 104 -18t53 -61h4v304h35v-743h-27l-4 80h-4q-16 -53 -57 -70.5t-104 -17.5q-77 0 -114 21.5zM346 42.5q34 18.5 45 57.5q10 33 12 67.5t2 101.5q0 44 -2.5 75.5t-9.5 55.5q-13 46 -48 66t-97 20
q-67 0 -97 -16t-40.5 -62.5t-10.5 -152.5t10.5 -152.5t41.5 -62.5t101 -16q59 0 93 18.5zM487 454l12 145v89h39v-89l-28 -145h-23z" />
    <glyph glyph-name="Dcroat" unicode="&#x110;" horiz-adv-x="599" 
d="M99 331h-65v36h65v321h179q118 0 166.5 -23t63 -90t14.5 -231t-14.5 -231t-63 -90t-166.5 -23h-179v331zM419.5 49.5q41.5 15.5 54 75t12.5 219.5q0 159 -13 219t-54.5 75.5t-153.5 15.5h-130v-287h124v-36h-124v-297h130q113 0 154.5 15.5z" />
    <glyph glyph-name="dcroat" unicode="&#x111;" horiz-adv-x="527" 
d="M504 656h-64v-656h-27l-4 80h-4q-16 -53 -57 -70.5t-104 -17.5q-77 0 -114 21.5t-51 75.5t-14 166t13.5 166t51 75.5t114.5 21.5q66 0 104 -18t53 -61h4v217h-139v32h139v55h35v-55h64v-32zM403 167.5q2 34.5 2 101.5q0 44 -2.5 75.5t-9.5 55.5q-13 46 -48 66t-97 20
q-67 0 -97 -16t-40.5 -62.5t-10.5 -152.5t10.5 -152.5t41.5 -62.5t101 -16q59 0 93 18.5t45 57.5q10 33 12 67.5z" />
    <glyph glyph-name="Emacron" unicode="&#x112;" horiz-adv-x="517" 
d="M99 0v688h370v-34h-334v-289h293v-34h-293v-297h334v-34h-370zM180 851v36h206v-36h-206z" />
    <glyph glyph-name="emacron" unicode="&#x113;" horiz-adv-x="498" 
d="M432 243h-332q0 -96 10.5 -139.5t44 -61.5t108.5 -18q36 0 78.5 4t73.5 10v-33q-25 -6 -68.5 -9.5t-87.5 -3.5q-86 0 -126.5 21.5t-54 75t-13.5 165.5q0 114 10.5 165t51 75t133.5 24q81 0 116.5 -22.5t45.5 -74t10 -165.5v-13zM152 471q-32 -15 -42 -57t-10 -139h297v21
q0 86 -12 125.5t-40 52t-87 12.5q-74 0 -106 -15zM145 706v36h206v-36h-206z" />
    <glyph glyph-name="Ebreve" unicode="&#x114;" horiz-adv-x="517" 
d="M99 0v688h370v-34h-334v-289h293v-34h-293v-297h334v-34h-370zM394 808.5q-6 -27.5 -31 -44.5t-80 -17t-80 17t-30.5 44.5t-5.5 79.5h32q0 -45 4 -67t22 -34t58 -12t58.5 12t22.5 34t4 67h32q0 -52 -6 -79.5z" />
    <glyph glyph-name="ebreve" unicode="&#x115;" horiz-adv-x="498" 
d="M432 243h-332q0 -96 10.5 -139.5t44 -61.5t108.5 -18q36 0 78.5 4t73.5 10v-33q-25 -6 -68.5 -9.5t-87.5 -3.5q-86 0 -126.5 21.5t-54 75t-13.5 165.5q0 114 10.5 165t51 75t133.5 24q81 0 116.5 -22.5t45.5 -74t10 -165.5v-13zM152 471q-32 -15 -42 -57t-10 -139h297v21
q0 86 -12 125.5t-40 52t-87 12.5q-74 0 -106 -15zM359 663.5q-6 -27.5 -31 -44.5t-80 -17t-80 17t-30.5 44.5t-5.5 79.5h32q0 -45 4 -67t22 -34t58 -12t58.5 12t22.5 34t4 67h32q0 -52 -6 -79.5z" />
    <glyph glyph-name="Edotaccent" unicode="&#x116;" horiz-adv-x="517" 
d="M99 0v688h370v-34h-334v-289h293v-34h-293v-297h334v-34h-370zM262 815v61h43v-61h-43z" />
    <glyph glyph-name="edotaccent" unicode="&#x117;" horiz-adv-x="498" 
d="M432 243h-332q0 -96 10.5 -139.5t44 -61.5t108.5 -18q36 0 78.5 4t73.5 10v-33q-25 -6 -68.5 -9.5t-87.5 -3.5q-86 0 -126.5 21.5t-54 75t-13.5 165.5q0 114 10.5 165t51 75t133.5 24q81 0 116.5 -22.5t45.5 -74t10 -165.5v-13zM152 471q-32 -15 -42 -57t-10 -139h297v21
q0 86 -12 125.5t-40 52t-87 12.5q-74 0 -106 -15zM227 670v61h43v-61h-43z" />
    <glyph glyph-name="Eogonek" unicode="&#x118;" horiz-adv-x="517" 
d="M385.5 -176.5q-18.5 19.5 -18.5 50.5t18.5 65t48.5 61h-335v688h370v-34h-334v-289h293v-34h-293v-297h334v-34q-25 -19 -46.5 -54.5t-21.5 -64.5q0 -20 11 -32.5t36 -12.5l17 1v-32q-9 -1 -22 -1q-39 0 -57.5 19.5z" />
    <glyph glyph-name="eogonek" unicode="&#x119;" horiz-adv-x="498" 
d="M432 243h-332q0 -96 10.5 -139.5t44 -61.5t108.5 -18q36 0 78.5 4t73.5 10v-33q-25 -20 -47 -57t-22 -67q0 -20 11 -32.5t36 -12.5l17 1v-32q-9 -1 -22 -1q-39 0 -57.5 19.5t-18.5 50.5t16.5 64t44.5 60q-51 -6 -114 -6q-86 0 -126.5 21.5t-54 75t-13.5 165.5
q0 114 10.5 165t51 75t133.5 24q81 0 116.5 -22.5t45.5 -74t10 -165.5v-13zM152 471q-32 -15 -42 -57t-10 -139h297v21q0 86 -12 125.5t-40 52t-87 12.5q-74 0 -106 -15z" />
    <glyph glyph-name="Ecaron" unicode="&#x11a;" horiz-adv-x="517" 
d="M99 0v688h370v-34h-334v-289h293v-34h-293v-297h334v-34h-370zM261 750l-94 133v5h27l90 -108l90 108h27v-5l-94 -133h-46z" />
    <glyph glyph-name="ecaron" unicode="&#x11b;" horiz-adv-x="498" 
d="M432 243h-332q0 -96 10.5 -139.5t44 -61.5t108.5 -18q36 0 78.5 4t73.5 10v-33q-25 -6 -68.5 -9.5t-87.5 -3.5q-86 0 -126.5 21.5t-54 75t-13.5 165.5q0 114 10.5 165t51 75t133.5 24q81 0 116.5 -22.5t45.5 -74t10 -165.5v-13zM152 471q-32 -15 -42 -57t-10 -139h297v21
q0 86 -12 125.5t-40 52t-87 12.5q-74 0 -106 -15zM226 605l-94 133v5h27l90 -108l90 108h27v-5l-94 -133h-46z" />
    <glyph glyph-name="Gcircumflex" unicode="&#x11c;" horiz-adv-x="587" 
d="M305 315v34h200v-340q-42 -8 -93 -12.5t-90 -4.5q-108 0 -157.5 24t-68.5 96.5t-19 231.5q0 158 19 230.5t68.5 97t157.5 24.5q43 0 94.5 -5t86.5 -13v-32q-39 7 -83 11.5t-72 4.5q-110 0 -154 -16t-62.5 -80.5t-18.5 -221.5q0 -146 13.5 -209.5t55.5 -86t139 -22.5
q31 0 75 3.5t73 8.5v277h-164zM177 750v5l94 133h46l94 -133v-5h-27l-90 108l-90 -108h-27z" />
    <glyph glyph-name="gcircumflex" unicode="&#x11d;" horiz-adv-x="527" 
d="M80 -197v33q82 -7 158 -7q75 0 109.5 20t46 67t11.5 145v10h-4q-15 -43 -53 -61t-104 -18q-77 0 -114.5 21.5t-51 75.5t-13.5 166t13.5 166t51 75.5t114.5 21.5q63 0 104 -17.5t57 -70.5h4l4 80h27v-435q0 -113 -14 -170t-56 -82.5t-128 -25.5q-78 0 -162 6zM345 43.5
q34 19.5 47 61.5q8 28 10.5 61.5t2.5 88.5q0 57 -2 88t-9 55q-13 47 -47 67.5t-94 20.5q-70 0 -101 -16t-41.5 -62.5t-10.5 -152.5t10.5 -152.5t41.5 -62.5t101 -16q58 0 92 19.5zM147 605v5l94 133h46l94 -133v-5h-27l-90 108l-90 -108h-27z" />
    <glyph glyph-name="Gbreve" unicode="&#x11e;" horiz-adv-x="587" 
d="M305 315v34h200v-340q-42 -8 -93 -12.5t-90 -4.5q-108 0 -157.5 24t-68.5 96.5t-19 231.5q0 158 19 230.5t68.5 97t157.5 24.5q43 0 94.5 -5t86.5 -13v-32q-39 7 -83 11.5t-72 4.5q-110 0 -154 -16t-62.5 -80.5t-18.5 -221.5q0 -146 13.5 -209.5t55.5 -86t139 -22.5
q31 0 75 3.5t73 8.5v277h-164zM404 808.5q-6 -27.5 -31 -44.5t-80 -17t-80 17t-30.5 44.5t-5.5 79.5h32q0 -45 4 -67t22 -34t58 -12t58.5 12t22.5 34t4 67h32q0 -52 -6 -79.5z" />
    <glyph glyph-name="gbreve" unicode="&#x11f;" horiz-adv-x="527" 
d="M80 -197v33q82 -7 158 -7q75 0 109.5 20t46 67t11.5 145v10h-4q-15 -43 -53 -61t-104 -18q-77 0 -114.5 21.5t-51 75.5t-13.5 166t13.5 166t51 75.5t114.5 21.5q63 0 104 -17.5t57 -70.5h4l4 80h27v-435q0 -113 -14 -170t-56 -82.5t-128 -25.5q-78 0 -162 6zM345 43.5
q34 19.5 47 61.5q8 28 10.5 61.5t2.5 88.5q0 57 -2 88t-9 55q-13 47 -47 67.5t-94 20.5q-70 0 -101 -16t-41.5 -62.5t-10.5 -152.5t10.5 -152.5t41.5 -62.5t101 -16q58 0 92 19.5zM374 663.5q-6 -27.5 -31 -44.5t-80 -17t-80 17t-30.5 44.5t-5.5 79.5h32q0 -45 4 -67t22 -34
t58 -12t58.5 12t22.5 34t4 67h32q0 -52 -6 -79.5z" />
    <glyph glyph-name="Gdotaccent" unicode="&#x120;" horiz-adv-x="587" 
d="M305 315v34h200v-340q-42 -8 -93 -12.5t-90 -4.5q-108 0 -157.5 24t-68.5 96.5t-19 231.5q0 158 19 230.5t68.5 97t157.5 24.5q43 0 94.5 -5t86.5 -13v-32q-39 7 -83 11.5t-72 4.5q-110 0 -154 -16t-62.5 -80.5t-18.5 -221.5q0 -146 13.5 -209.5t55.5 -86t139 -22.5
q31 0 75 3.5t73 8.5v277h-164zM272 815v61h43v-61h-43z" />
    <glyph glyph-name="gdotaccent" unicode="&#x121;" horiz-adv-x="527" 
d="M80 -197v33q82 -7 158 -7q75 0 109.5 20t46 67t11.5 145v10h-4q-15 -43 -53 -61t-104 -18q-77 0 -114.5 21.5t-51 75.5t-13.5 166t13.5 166t51 75.5t114.5 21.5q63 0 104 -17.5t57 -70.5h4l4 80h27v-435q0 -113 -14 -170t-56 -82.5t-128 -25.5q-78 0 -162 6zM345 43.5
q34 19.5 47 61.5q8 28 10.5 61.5t2.5 88.5q0 57 -2 88t-9 55q-13 47 -47 67.5t-94 20.5q-70 0 -101 -16t-41.5 -62.5t-10.5 -152.5t10.5 -152.5t41.5 -62.5t101 -16q58 0 92 19.5zM242 670v61h43v-61h-43z" />
    <glyph glyph-name="Gcommaaccent" unicode="&#x122;" horiz-adv-x="587" 
d="M305 315v34h200v-340q-42 -8 -93 -12.5t-90 -4.5q-108 0 -157.5 24t-68.5 96.5t-19 231.5q0 158 19 230.5t68.5 97t157.5 24.5q43 0 94.5 -5t86.5 -13v-32q-39 7 -83 11.5t-72 4.5q-110 0 -154 -16t-62.5 -80.5t-18.5 -221.5q0 -146 13.5 -209.5t55.5 -86t139 -22.5
q31 0 75 3.5t73 8.5v277h-164zM288 -201.5q10 5.5 13 18t3 39.5v17h-20v65h48v-75q0 -37 -6.5 -56t-22.5 -27t-47 -8v21q22 0 32 5.5z" />
    <glyph glyph-name="gcommaaccent" unicode="&#x123;" horiz-adv-x="527" 
d="M80 -197v33q82 -7 158 -7q75 0 109.5 20t46 67t11.5 145v10h-4q-15 -43 -53 -61t-104 -18q-77 0 -114.5 21.5t-51 75.5t-13.5 166t13.5 166t51 75.5t114.5 21.5q63 0 104 -17.5t57 -70.5h4l4 80h27v-435q0 -113 -14 -170t-56 -82.5t-128 -25.5q-78 0 -162 6zM345 43.5
q34 19.5 47 61.5q8 28 10.5 61.5t2.5 88.5q0 57 -2 88t-9 55q-13 47 -47 67.5t-94 20.5q-70 0 -101 -16t-41.5 -62.5t-10.5 -152.5t10.5 -152.5t41.5 -62.5t101 -16q58 0 92 19.5zM284 746.5q-10 -5.5 -13 -18t-3 -39.5v-17h20v-65h-48v75q0 37 6.5 56t22.5 27t47 8v-21
q-22 0 -32 -5.5z" />
    <glyph glyph-name="Hcircumflex" unicode="&#x124;" horiz-adv-x="638" 
d="M504 0v331h-369v-331h-36v688h36v-323h369v323h36v-688h-36zM202 750v5l94 133h46l94 -133v-5h-27l-90 108l-90 -108h-27z" />
    <glyph glyph-name="hcircumflex" unicode="&#x125;" horiz-adv-x="532" 
d="M412 315q0 77 -10.5 112t-38.5 47t-89 12q-72 0 -104.5 -28t-40 -71.5t-7.5 -122.5v-264h-35v743h35v-303h4q28 78 156 78q71 0 106 -19t47 -60t12 -119v-320h-35v315zM-12 783v5l94 133h46l94 -133v-5h-27l-90 108l-90 -108h-27z" />
    <glyph glyph-name="Hbar" unicode="&#x126;" horiz-adv-x="638" 
d="M504 688h36v-688h-36v311h-369v-311h-36v688h36v-158h369v158zM135 345h369v149h-369v-149z" />
    <glyph glyph-name="hbar" unicode="&#x127;" horiz-adv-x="532" 
d="M388 499q35 -19 47 -60t12 -119v-320h-35v315q0 77 -10.5 112t-38.5 47t-89 12q-72 0 -104.5 -28t-40 -71.5t-7.5 -122.5v-264h-35v656h-64v32h64v55h35v-55h139v-32h-139v-216h4q28 78 156 78q71 0 106 -19z" />
    <glyph glyph-name="Itilde" unicode="&#x128;" horiz-adv-x="236" 
d="M100 0v688h36v-688h-36zM259 813q-11 -20 -46 -20q-23 0 -46.5 7t-56.5 20q-56 24 -87 24q-19 0 -25 -13.5t-6 -48.5h-27q0 54 11.5 74.5t46.5 20.5q23 0 45.5 -7t58.5 -21q28 -11 48 -17t38 -6q19 0 24.5 13t5.5 49h27q0 -55 -11 -75z" />
    <glyph glyph-name="itilde" unicode="&#x129;" horiz-adv-x="209" 
d="M87 0v510h35v-510h-35zM246 668q-11 -20 -46 -20q-23 0 -46.5 7t-56.5 20q-56 24 -87 24q-19 0 -25 -13.5t-6 -48.5h-27q0 54 11.5 74.5t46.5 20.5q23 0 45.5 -7t58.5 -21q28 -11 48 -17t38 -6q19 0 24.5 13t5.5 49h27q0 -55 -11 -75z" />
    <glyph glyph-name="Imacron" unicode="&#x12a;" horiz-adv-x="236" 
d="M100 0v688h36v-688h-36zM14 851v36h206v-36h-206z" />
    <glyph glyph-name="imacron" unicode="&#x12b;" horiz-adv-x="209" 
d="M87 0v510h35v-510h-35zM1 706v36h206v-36h-206z" />
    <glyph glyph-name="Ibreve" unicode="&#x12c;" horiz-adv-x="236" 
d="M100 0v688h36v-688h-36zM228 808.5q-6 -27.5 -31 -44.5t-80 -17t-80 17t-30.5 44.5t-5.5 79.5h32q0 -45 4 -67t22 -34t58 -12t58.5 12t22.5 34t4 67h32q0 -52 -6 -79.5z" />
    <glyph glyph-name="ibreve" unicode="&#x12d;" horiz-adv-x="209" 
d="M87 0v510h35v-510h-35zM215 663.5q-6 -27.5 -31 -44.5t-80 -17t-80 17t-30.5 44.5t-5.5 79.5h32q0 -45 4 -67t22 -34t58 -12t58.5 12t22.5 34t4 67h32q0 -52 -6 -79.5z" />
    <glyph glyph-name="Iogonek" unicode="&#x12e;" horiz-adv-x="236" 
d="M57.5 -176.5q-18.5 19.5 -18.5 52.5q0 29 17 63t45 61h-1v688h36v-688q-22 -19 -42.5 -54.5t-20.5 -63.5q0 -46 47 -46l17 1v-32q-9 -1 -22 -1q-39 0 -57.5 19.5z" />
    <glyph glyph-name="iogonek" unicode="&#x12f;" horiz-adv-x="209" 
d="M83 731h43v-61h-43v61zM106 -164l17 1v-32q-9 -1 -22 -1q-39 0 -57.5 19.5t-18.5 52.5q0 29 17 63t45 61v510h35v-510q-22 -19 -42.5 -54.5t-20.5 -63.5q0 -46 47 -46z" />
    <glyph glyph-name="Idotaccent" unicode="&#x130;" horiz-adv-x="236" 
d="M100 0v688h36v-688h-36zM96 815v61h43v-61h-43z" />
    <glyph glyph-name="dotlessi" unicode="&#x131;" horiz-adv-x="209" 
d="M87 0v510h35v-510h-35z" />
    <glyph glyph-name="IJ" unicode="&#x132;" horiz-adv-x="512" 
d="M100 0v688h36v-688h-36zM352 46.5q22 10.5 28 47.5t6 145v449h36v-437q0 -129 -8.5 -175.5t-37.5 -60t-110 -15.5v34q64 2 86 12.5z" />
    <glyph glyph-name="ij" unicode="&#x133;" horiz-adv-x="418" 
d="M84 682v61h41v-61h-41zM87 0v510h35v-510h-35zM293 682v61h41v-61h-41zM207 -167q41 0 59.5 5t24 16t5.5 36v620h35v-610q0 -45 -13 -65.5t-37.5 -26t-73.5 -5.5v30z" />
    <glyph glyph-name="Jcircumflex" unicode="&#x134;" horiz-adv-x="276" 
d="M116 46.5q22 10.5 28 47.5t6 145v449h36v-437q0 -129 -8.5 -175.5t-37.5 -60t-110 -15.5v34q64 2 86 12.5zM51 750v5l94 133h46l94 -133v-5h-27l-90 108l-90 -108h-27z" />
    <glyph glyph-name="jcircumflex" unicode="&#x135;" horiz-adv-x="209" 
d="M-2 -167q41 0 59.5 5t24 16t5.5 36v620h35v-610q0 -45 -13 -65.5t-37.5 -26t-73.5 -5.5v30zM-12 605v5l94 133h46l94 -133v-5h-27l-90 108l-90 -108h-27z" />
    <glyph glyph-name="Kcommaaccent" unicode="&#x136;" horiz-adv-x="573" 
d="M500 0l-222 332h-143v-332h-36v688h36v-322h143l220 322h41l-230 -339l233 -349h-42zM281 -201.5q10 5.5 13 18t3 39.5v17h-20v65h48v-75q0 -37 -6.5 -56t-22.5 -27t-47 -8v21q22 0 32 5.5z" />
    <glyph glyph-name="kcommaaccent" unicode="&#x137;" horiz-adv-x="459" 
d="M382 0l-183 243h-77v-243h-35v743h35v-466h77l181 233h42l-194 -248l198 -262h-44zM223 -201.5q10 5.5 13 18t3 39.5v17h-20v65h48v-75q0 -37 -6.5 -56t-22.5 -27t-47 -8v21q22 0 32 5.5z" />
    <glyph glyph-name="kgreenlandic" unicode="&#x138;" horiz-adv-x="459" 
d="M382 0l-183 243h-77v-243h-35v510h35v-233h77l181 233h42l-194 -248l198 -262h-44z" />
    <glyph glyph-name="Lacute" unicode="&#x139;" horiz-adv-x="459" 
d="M99 0v688h36v-654h299v-34h-335zM99 750v5l83 133h44v-5l-101 -133h-26z" />
    <glyph glyph-name="lacute" unicode="&#x13a;" horiz-adv-x="209" 
d="M87 0v743h35v-743h-35zM88 783v5l83 133h44v-5l-101 -133h-26z" />
    <glyph glyph-name="Lcommaaccent" unicode="&#x13b;" horiz-adv-x="459" 
d="M99 0v688h36v-654h299v-34h-335zM240 -201.5q10 5.5 13 18t3 39.5v17h-20v65h48v-75q0 -37 -6.5 -56t-22.5 -27t-47 -8v21q22 0 32 5.5z" />
    <glyph glyph-name="lcommaaccent" unicode="&#x13c;" horiz-adv-x="209" 
d="M87 0v743h35v-743h-35zM99 -201.5q10 5.5 13 18t3 39.5v17h-20v65h48v-75q0 -37 -6.5 -56t-22.5 -27t-47 -8v21q22 0 32 5.5z" />
    <glyph glyph-name="Lcaron" unicode="&#x13d;" horiz-adv-x="459" 
d="M99 0v688h36v-654h299v-34h-335zM275 454l12 145v89h39v-89l-28 -145h-23z" />
    <glyph glyph-name="lcaron" unicode="&#x13e;" horiz-adv-x="209" 
d="M87 0v743h35v-743h-35zM171 454l12 145v89h39v-89l-28 -145h-23z" />
    <glyph glyph-name="Ldot" unicode="&#x13f;" horiz-adv-x="459" 
d="M99 0v688h36v-654h299v-34h-335zM331 327v65h46v-65h-46z" />
    <glyph glyph-name="ldot" unicode="&#x140;" horiz-adv-x="222" 
d="M87 0v743h35v-743h-35zM192 267v65h46v-65h-46z" />
    <glyph glyph-name="Lslash" unicode="&#x141;" horiz-adv-x="459" 
d="M135 34h299v-34h-335v304l-62 -23v34l62 23v350h36v-337l186 68v-34l-186 -68v-283z" />
    <glyph glyph-name="lslash" unicode="&#x142;" horiz-adv-x="210" 
d="M87 0v338l-60 -21v35l60 21v370h35v-358l64 23v-35l-64 -23v-350h-35z" />
    <glyph glyph-name="Nacute" unicode="&#x143;" horiz-adv-x="638" 
d="M502 0l-364 613h-4v-613h-35v688h37l365 -613h4v613h35v-688h-38zM301 750v5l83 133h44v-5l-101 -133h-26z" />
    <glyph glyph-name="nacute" unicode="&#x144;" horiz-adv-x="532" 
d="M412 315q0 77 -10.5 112t-38.5 47t-89 12q-72 0 -104.5 -28t-40 -71.5t-7.5 -122.5v-264h-35v510h28l3 -80h4q13 40 48 64t112 24q71 0 106 -19t47 -60t12 -119v-320h-35v315zM249 605v5l83 133h44v-5l-101 -133h-26z" />
    <glyph glyph-name="Ncommaaccent" unicode="&#x145;" horiz-adv-x="638" 
d="M502 0l-364 613h-4v-613h-35v688h37l365 -613h4v613h35v-688h-38zM313 -201.5q10 5.5 13 18t3 39.5v17h-20v65h48v-75q0 -37 -6.5 -56t-22.5 -27t-47 -8v21q22 0 32 5.5z" />
    <glyph glyph-name="ncommaaccent" unicode="&#x146;" horiz-adv-x="532" 
d="M412 315q0 77 -10.5 112t-38.5 47t-89 12q-72 0 -104.5 -28t-40 -71.5t-7.5 -122.5v-264h-35v510h28l3 -80h4q13 40 48 64t112 24q71 0 106 -19t47 -60t12 -119v-320h-35v315zM260 -201.5q10 5.5 13 18t3 39.5v17h-20v65h48v-75q0 -37 -6.5 -56t-22.5 -27t-47 -8v21
q22 0 32 5.5z" />
    <glyph glyph-name="Ncaron" unicode="&#x147;" horiz-adv-x="638" 
d="M502 0l-364 613h-4v-613h-35v688h37l365 -613h4v613h35v-688h-38zM296 750l-94 133v5h27l90 -108l90 108h27v-5l-94 -133h-46z" />
    <glyph glyph-name="ncaron" unicode="&#x148;" horiz-adv-x="532" 
d="M412 315q0 77 -10.5 112t-38.5 47t-89 12q-72 0 -104.5 -28t-40 -71.5t-7.5 -122.5v-264h-35v510h28l3 -80h4q13 40 48 64t112 24q71 0 106 -19t47 -60t12 -119v-320h-35v315zM243 605l-94 133v5h27l90 -108l90 108h27v-5l-94 -133h-46z" />
    <glyph glyph-name="napostrophe" unicode="&#x149;" horiz-adv-x="532" 
d="M36 603.5q10 5.5 13 18t3 39.5v17h-20v65h47v-75q0 -37 -6 -56t-22 -27t-47 -8v21q22 0 32 5.5zM412 315q0 77 -10.5 112t-38.5 47t-89 12q-72 0 -104.5 -28t-40 -71.5t-7.5 -122.5v-264h-35v510h28l3 -80h4q13 40 48 64t112 24q71 0 106 -19t47 -60t12 -119v-320h-35
v315z" />
    <glyph glyph-name="Eng" unicode="&#x14a;" horiz-adv-x="638" 
d="M540 688v-788q0 -45 -13 -65.5t-37.5 -26t-73.5 -5.5v30q41 0 59.5 5t24 16t5.5 36v110l-367 613h-4v-613h-35v688h37l365 -611h4v611h35z" />
    <glyph glyph-name="eng" unicode="&#x14b;" horiz-adv-x="532" 
d="M388 499q35 -19 47 -60t12 -119v-420q0 -45 -13 -65.5t-37.5 -26t-73.5 -5.5v30q41 0 59.5 5t24 16t5.5 36v425q0 77 -10.5 112t-38.5 47t-89 12q-72 0 -104.5 -28t-40 -71.5t-7.5 -122.5v-264h-35v510h28l3 -80h4q13 40 48 64t112 24q71 0 106 -19z" />
    <glyph glyph-name="Omacron" unicode="&#x14c;" horiz-adv-x="628" 
d="M152 15.5q-47 23.5 -61 92t-14 236.5t14 236.5t61 92t162 23.5t162 -23.5t61 -92t14 -236.5t-14 -236.5t-61 -92t-162 -23.5t-162 23.5zM452.5 42q37.5 16 50 78t12.5 224t-12.5 224t-50 78t-138.5 16q-100 0 -138 -16t-50.5 -78t-12.5 -224t12.5 -224t50.5 -78t138 -16
q101 0 138.5 16zM210 851v36h206v-36h-206z" />
    <glyph glyph-name="omacron" unicode="&#x14d;" horiz-adv-x="513" 
d="M126 12q-39 20 -50 71.5t-11 170.5q0 120 11 171.5t50.5 72t130.5 20.5t130 -20.5t50 -72t11 -171.5q0 -119 -11 -170.5t-50 -71.5t-130 -20q-92 0 -131 20zM367 41q31 17 38.5 59.5t7.5 153.5t-7.5 154.5t-39 60.5t-109.5 17q-79 0 -110.5 -17t-39 -60.5t-7.5 -154.5
t7.5 -153.5t39 -59.5t110.5 -17t110 17zM153 706v36h206v-36h-206z" />
    <glyph glyph-name="Obreve" unicode="&#x14e;" horiz-adv-x="628" 
d="M152 15.5q-47 23.5 -61 92t-14 236.5t14 236.5t61 92t162 23.5t162 -23.5t61 -92t14 -236.5t-14 -236.5t-61 -92t-162 -23.5t-162 23.5zM452.5 42q37.5 16 50 78t12.5 224t-12.5 224t-50 78t-138.5 16q-100 0 -138 -16t-50.5 -78t-12.5 -224t12.5 -224t50.5 -78t138 -16
q101 0 138.5 16zM424 808.5q-6 -27.5 -31 -44.5t-80 -17t-80 17t-30.5 44.5t-5.5 79.5h32q0 -45 4 -67t22 -34t58 -12t58.5 12t22.5 34t4 67h32q0 -52 -6 -79.5z" />
    <glyph glyph-name="obreve" unicode="&#x14f;" horiz-adv-x="513" 
d="M126 12q-39 20 -50 71.5t-11 170.5q0 120 11 171.5t50.5 72t130.5 20.5t130 -20.5t50 -72t11 -171.5q0 -119 -11 -170.5t-50 -71.5t-130 -20q-92 0 -131 20zM367 41q31 17 38.5 59.5t7.5 153.5t-7.5 154.5t-39 60.5t-109.5 17q-79 0 -110.5 -17t-39 -60.5t-7.5 -154.5
t7.5 -153.5t39 -59.5t110.5 -17t110 17zM367 663.5q-6 -27.5 -31 -44.5t-80 -17t-80 17t-30.5 44.5t-5.5 79.5h32q0 -45 4 -67t22 -34t58 -12t58.5 12t22.5 34t4 67h32q0 -52 -6 -79.5z" />
    <glyph glyph-name="Ohungarumlaut" unicode="&#x150;" horiz-adv-x="628" 
d="M152 15.5q-47 23.5 -61 92t-14 236.5t14 236.5t61 92t162 23.5t162 -23.5t61 -92t14 -236.5t-14 -236.5t-61 -92t-162 -23.5t-162 23.5zM452.5 42q37.5 16 50 78t12.5 224t-12.5 224t-50 78t-138.5 16q-100 0 -138 -16t-50.5 -78t-12.5 -224t12.5 -224t50.5 -78t138 -16
q101 0 138.5 16zM220 752v5l82 127h44v-5l-100 -127h-26zM382 752v5l82 127h45v-5l-101 -127h-26z" />
    <glyph glyph-name="ohungarumlaut" unicode="&#x151;" horiz-adv-x="513" 
d="M126 12q-39 20 -50 71.5t-11 170.5q0 120 11 171.5t50.5 72t130.5 20.5t130 -20.5t50 -72t11 -171.5q0 -119 -11 -170.5t-50 -71.5t-130 -20q-92 0 -131 20zM367 41q31 17 38.5 59.5t7.5 153.5t-7.5 154.5t-39 60.5t-109.5 17q-79 0 -110.5 -17t-39 -60.5t-7.5 -154.5
t7.5 -153.5t39 -59.5t110.5 -17t110 17zM170 607v5l82 127h44v-5l-100 -127h-26zM332 607v5l82 127h45v-5l-101 -127h-26z" />
    <glyph glyph-name="OE" unicode="&#x152;" horiz-adv-x="920" 
d="M152 23q-47 23 -61 90t-14 231t14 231t61 90t162 23h558v-34h-321q-40 0 -66 4q28 -19 42 -54.5t18.5 -90.5t5.5 -148h280v-34h-280q-1 -98 -5.5 -153.5t-18.5 -92t-42 -55.5q26 4 66 4h321v-34h-558q-115 0 -162 23zM452.5 49.5q37.5 15.5 50 76t12.5 218.5t-12.5 218.5
t-50 76t-138.5 15.5q-100 0 -138 -16t-50.5 -76t-12.5 -218t12.5 -218t50.5 -76t138 -16q101 0 138.5 15.5z" />
    <glyph glyph-name="oe" unicode="&#x153;" horiz-adv-x="845" 
d="M780 243h-332q0 -96 10.5 -139.5t44 -61.5t108.5 -18q36 0 78.5 4t73.5 10v-33q-26 -6 -69.5 -9.5t-86.5 -3.5q-78 0 -117.5 18t-57.5 64q-15 -48 -53.5 -65t-121.5 -17q-92 0 -131 20t-50 71.5t-11 170.5q0 120 11 171.5t50.5 72t130.5 20.5q80 0 119.5 -17t54.5 -62
q17 42 57 60.5t120 18.5q81 0 116.5 -22.5t45.5 -74t10 -165.5v-13zM367 41q31 17 38.5 59.5t7.5 153.5t-7.5 154.5t-39 60.5t-109.5 17q-79 0 -110.5 -17t-39 -60.5t-7.5 -154.5t7.5 -153.5t39 -59.5t110.5 -17t110 17zM500 471q-32 -15 -42 -57t-10 -139h297v21
q0 86 -12 125.5t-40 52t-88 12.5q-73 0 -105 -15z" />
    <glyph glyph-name="Racute" unicode="&#x154;" horiz-adv-x="593" 
d="M487 0l-106 296q-12 -2 -36 -2h-210v-294h-36v688h256q73 0 109 -26.5t45 -67t9 -103.5q0 -51 -6.5 -86t-28.5 -63t-66 -40l109 -302h-39zM435 347.5q30 19.5 38.5 53t8.5 90.5q0 58 -7.5 91t-35 52.5t-86.5 19.5h-218v-326h208q62 0 92 19.5zM279 750v5l83 133h44v-5
l-101 -133h-26z" />
    <glyph glyph-name="racute" unicode="&#x155;" horiz-adv-x="305" 
d="M87 510h27l4 -106h4q15 65 54.5 89.5t102.5 24.5v-36q-63 0 -97 -25.5t-47 -73t-13 -124.5v-259h-35v510zM136 605v5l83 133h44v-5l-101 -133h-26z" />
    <glyph glyph-name="Rcommaaccent" unicode="&#x156;" horiz-adv-x="593" 
d="M487 0l-106 296q-12 -2 -36 -2h-210v-294h-36v688h256q73 0 109 -26.5t45 -67t9 -103.5q0 -51 -6.5 -86t-28.5 -63t-66 -40l109 -302h-39zM435 347.5q30 19.5 38.5 53t8.5 90.5q0 58 -7.5 91t-35 52.5t-86.5 19.5h-218v-326h208q62 0 92 19.5zM291 -201.5q10 5.5 13 18
t3 39.5v17h-20v65h48v-75q0 -37 -6.5 -56t-22.5 -27t-47 -8v21q22 0 32 5.5z" />
    <glyph glyph-name="rcommaaccent" unicode="&#x157;" horiz-adv-x="305" 
d="M87 510h27l4 -106h4q15 65 54.5 89.5t102.5 24.5v-36q-63 0 -97 -25.5t-47 -73t-13 -124.5v-259h-35v510zM99 -201.5q10 5.5 13 18t3 39.5v17h-20v65h48v-75q0 -37 -6.5 -56t-22.5 -27t-47 -8v21q22 0 32 5.5z" />
    <glyph glyph-name="Rcaron" unicode="&#x158;" horiz-adv-x="593" 
d="M487 0l-106 296q-12 -2 -36 -2h-210v-294h-36v688h256q73 0 109 -26.5t45 -67t9 -103.5q0 -51 -6.5 -86t-28.5 -63t-66 -40l109 -302h-39zM435 347.5q30 19.5 38.5 53t8.5 90.5q0 58 -7.5 91t-35 52.5t-86.5 19.5h-218v-326h208q62 0 92 19.5zM274 750l-94 133v5h27
l90 -108l90 108h27v-5l-94 -133h-46z" />
    <glyph glyph-name="rcaron" unicode="&#x159;" horiz-adv-x="305" 
d="M87 510h27l4 -106h4q15 65 54.5 89.5t102.5 24.5v-36q-63 0 -97 -25.5t-47 -73t-13 -124.5v-259h-35v510zM130 605l-94 133v5h27l90 -108l90 108h27v-5l-94 -133h-46z" />
    <glyph glyph-name="Sacute" unicode="&#x15a;" horiz-adv-x="544" 
d="M179 -4.5q-56 3.5 -96 8.5v35q43 -5 97.5 -9t90.5 -4q50 0 79.5 5t53.5 21q23 14 31 46.5t8 84.5q0 69 -5.5 94t-26.5 36t-79 18l-157 19q-52 6 -75.5 26.5t-29 50.5t-5.5 88q0 70 21 109.5t66 55.5t122 16q50 0 99 -3.5t75 -9.5v-33q-35 5 -83 8.5t-87 3.5
q-55 0 -89.5 -8t-54.5 -25q-19 -17 -26 -45t-7 -71q0 -53 6 -77.5t23.5 -35.5t55.5 -16l148 -18q44 -5 69 -11.5t42.5 -20.5t25.5 -41q5 -16 6.5 -38t1.5 -67q0 -80 -21 -122.5t-62.5 -58t-113.5 -15.5q-47 0 -103 3.5zM254 750v5l83 133h44v-5l-101 -133h-26z" />
    <glyph glyph-name="sacute" unicode="&#x15b;" horiz-adv-x="441" 
d="M142 -5q-43 3 -73 8v33q54 -7 87 -9.5t77 -2.5q50 0 75.5 11.5t34 34.5t8.5 63q0 46 -6 66t-19 26.5t-43 9.5l-130 14q-57 7 -77.5 33.5t-20.5 90.5q0 63 20 94t56 41t98 10q31 0 68.5 -3.5t63.5 -8.5v-33q-66 13 -147 13q-42 0 -68 -7t-41 -30t-15 -69q0 -40 6 -59.5
t20 -26.5t44 -10l125 -14q43 -5 63.5 -16t29 -38.5t8.5 -82.5q0 -56 -16.5 -86.5t-52 -42.5t-96.5 -12q-36 0 -79 3zM203 605v5l83 133h44v-5l-101 -133h-26z" />
    <glyph glyph-name="Scircumflex" unicode="&#x15c;" horiz-adv-x="544" 
d="M179 -4.5q-56 3.5 -96 8.5v35q43 -5 97.5 -9t90.5 -4q50 0 79.5 5t53.5 21q23 14 31 46.5t8 84.5q0 69 -5.5 94t-26.5 36t-79 18l-157 19q-52 6 -75.5 26.5t-29 50.5t-5.5 88q0 70 21 109.5t66 55.5t122 16q50 0 99 -3.5t75 -9.5v-33q-35 5 -83 8.5t-87 3.5
q-55 0 -89.5 -8t-54.5 -25q-19 -17 -26 -45t-7 -71q0 -53 6 -77.5t23.5 -35.5t55.5 -16l148 -18q44 -5 69 -11.5t42.5 -20.5t25.5 -41q5 -16 6.5 -38t1.5 -67q0 -80 -21 -122.5t-62.5 -58t-113.5 -15.5q-47 0 -103 3.5zM155 750v5l94 133h46l94 -133v-5h-27l-90 108
l-90 -108h-27z" />
    <glyph glyph-name="scircumflex" unicode="&#x15d;" horiz-adv-x="441" 
d="M142 -5q-43 3 -73 8v33q54 -7 87 -9.5t77 -2.5q50 0 75.5 11.5t34 34.5t8.5 63q0 46 -6 66t-19 26.5t-43 9.5l-130 14q-57 7 -77.5 33.5t-20.5 90.5q0 63 20 94t56 41t98 10q31 0 68.5 -3.5t63.5 -8.5v-33q-66 13 -147 13q-42 0 -68 -7t-41 -30t-15 -69q0 -40 6 -59.5
t20 -26.5t44 -10l125 -14q43 -5 63.5 -16t29 -38.5t8.5 -82.5q0 -56 -16.5 -86.5t-52 -42.5t-96.5 -12q-36 0 -79 3zM103 605v5l94 133h46l94 -133v-5h-27l-90 108l-90 -108h-27z" />
    <glyph glyph-name="Scedilla" unicode="&#x15e;" horiz-adv-x="544" 
d="M458 65.5q-21 -42.5 -62.5 -58t-112.5 -15.5l-41 -182h-40v5l53 177q-92 2 -172 12v35q43 -5 97.5 -9t90.5 -4q50 0 79.5 5t53.5 21q23 14 31 46.5t8 84.5q0 69 -5.5 94t-26.5 36t-79 18l-157 19q-52 6 -75.5 26.5t-29 50.5t-5.5 88q0 70 21 109.5t66 55.5t122 16
q50 0 99 -3.5t75 -9.5v-33q-35 5 -83 8.5t-87 3.5q-55 0 -89.5 -8t-54.5 -25q-19 -17 -26 -45t-7 -71q0 -53 6 -77.5t23.5 -35.5t55.5 -16l148 -18q44 -5 69 -11.5t42.5 -20.5t25.5 -41q5 -16 6.5 -38t1.5 -67q0 -80 -21 -122.5z" />
    <glyph glyph-name="scedilla" unicode="&#x15f;" horiz-adv-x="441" 
d="M370.5 48.5q-15.5 -30.5 -48.5 -43t-90 -13.5l-42 -182h-40v5l53 177q-69 2 -134 11v33q54 -7 87 -9.5t77 -2.5q50 0 75.5 11.5t34 34.5t8.5 63q0 46 -6 66t-19 26.5t-43 9.5l-130 14q-57 7 -77.5 33.5t-20.5 90.5q0 63 20 94t56 41t98 10q31 0 68.5 -3.5t63.5 -8.5v-33
q-66 13 -147 13q-42 0 -68 -7t-41 -30t-15 -69q0 -40 6 -59.5t20 -26.5t44 -10l125 -14q43 -5 63.5 -16t29 -38.5t8.5 -82.5q0 -54 -15.5 -84.5z" />
    <glyph glyph-name="Scaron" unicode="&#x160;" horiz-adv-x="544" 
d="M179 -4.5q-56 3.5 -96 8.5v35q43 -5 97.5 -9t90.5 -4q50 0 79.5 5t53.5 21q23 14 31 46.5t8 84.5q0 69 -5.5 94t-26.5 36t-79 18l-157 19q-52 6 -75.5 26.5t-29 50.5t-5.5 88q0 70 21 109.5t66 55.5t122 16q50 0 99 -3.5t75 -9.5v-33q-35 5 -83 8.5t-87 3.5
q-55 0 -89.5 -8t-54.5 -25q-19 -17 -26 -45t-7 -71q0 -53 6 -77.5t23.5 -35.5t55.5 -16l148 -18q44 -5 69 -11.5t42.5 -20.5t25.5 -41q5 -16 6.5 -38t1.5 -67q0 -80 -21 -122.5t-62.5 -58t-113.5 -15.5q-47 0 -103 3.5zM256 750l-94 133v5h27l90 -108l90 108h27v-5l-94 -133
h-46z" />
    <glyph glyph-name="scaron" unicode="&#x161;" horiz-adv-x="441" 
d="M142 -5q-43 3 -73 8v33q54 -7 87 -9.5t77 -2.5q50 0 75.5 11.5t34 34.5t8.5 63q0 46 -6 66t-19 26.5t-43 9.5l-130 14q-57 7 -77.5 33.5t-20.5 90.5q0 63 20 94t56 41t98 10q31 0 68.5 -3.5t63.5 -8.5v-33q-66 13 -147 13q-42 0 -68 -7t-41 -30t-15 -69q0 -40 6 -59.5
t20 -26.5t44 -10l125 -14q43 -5 63.5 -16t29 -38.5t8.5 -82.5q0 -56 -16.5 -86.5t-52 -42.5t-96.5 -12q-36 0 -79 3zM200 605l-94 133v5h27l90 -108l90 108h27v-5l-94 -133h-46z" />
    <glyph glyph-name="uni0162" unicode="&#x162;" horiz-adv-x="500" 
d="M32 688h436v-34h-200v-654h-5l-43 -190h-40v5l56 185h-4v654h-200v34z" />
    <glyph glyph-name="uni0163" unicode="&#x163;" horiz-adv-x="292" 
d="M156 510h109v-32h-109v-478h-4l-43 -190h-40v5l56 185h-4v478h-94v32h94v148h35v-148z" />
    <glyph glyph-name="Tcaron" unicode="&#x164;" horiz-adv-x="500" 
d="M232 0v654h-200v34h436v-34h-200v-654h-36zM227 750l-94 133v5h27l90 -108l90 108h27v-5l-94 -133h-46z" />
    <glyph glyph-name="tcaron" unicode="&#x165;" horiz-adv-x="292" 
d="M121 0v478h-94v32h94v148h35v-148h109v-32h-109v-478h-35zM301 454l12 145v89h39v-89l-28 -145h-23z" />
    <glyph glyph-name="Tbar" unicode="&#x166;" horiz-adv-x="500" 
d="M468 654h-200v-281h169v-32h-169v-341h-36v341h-169v32h169v281h-200v34h436v-34z" />
    <glyph glyph-name="tbar" unicode="&#x167;" horiz-adv-x="292" 
d="M265 478h-109v-195h107v-32h-107v-251h-35v251h-88v32h88v195h-94v32h94v148h35v-148h109v-32z" />
    <glyph glyph-name="Utilde" unicode="&#x168;" horiz-adv-x="621" 
d="M531 688v-394q0 -132 -13.5 -192t-59 -85t-147.5 -25t-148 25t-59.5 85.5t-13.5 191.5v394h36v-424q0 -106 11 -152.5t49 -66t125 -19.5t125 19.5t48.5 66t10.5 152.5v424h36zM452 813q-11 -20 -46 -20q-23 0 -46.5 7t-56.5 20q-56 24 -87 24q-19 0 -25 -13.5t-6 -48.5
h-27q0 54 11.5 74.5t46.5 20.5q23 0 45.5 -7t58.5 -21q28 -11 48 -17t38 -6q19 0 24.5 13t5.5 49h27q0 -55 -11 -75z" />
    <glyph glyph-name="utilde" unicode="&#x169;" horiz-adv-x="532" 
d="M415 80h-4q-12 -40 -47.5 -64t-112.5 -24q-71 0 -106 19t-47 60t-12 119v320h35v-315q0 -77 10.5 -112t38.5 -47t89 -12q72 0 104.5 28t40 71.5t7.5 122.5v264h35v-510h-28zM407 668q-11 -20 -46 -20q-23 0 -46.5 7t-56.5 20q-56 24 -87 24q-19 0 -25 -13.5t-6 -48.5h-27
q0 54 11.5 74.5t46.5 20.5q23 0 45.5 -7t58.5 -21q28 -11 48 -17t38 -6q19 0 24.5 13t5.5 49h27q0 -55 -11 -75z" />
    <glyph glyph-name="Umacron" unicode="&#x16a;" horiz-adv-x="621" 
d="M531 688v-394q0 -132 -13.5 -192t-59 -85t-147.5 -25t-148 25t-59.5 85.5t-13.5 191.5v394h36v-424q0 -106 11 -152.5t49 -66t125 -19.5t125 19.5t48.5 66t10.5 152.5v424h36zM207 851v36h206v-36h-206z" />
    <glyph glyph-name="umacron" unicode="&#x16b;" horiz-adv-x="532" 
d="M415 80h-4q-12 -40 -47.5 -64t-112.5 -24q-71 0 -106 19t-47 60t-12 119v320h35v-315q0 -77 10.5 -112t38.5 -47t89 -12q72 0 104.5 28t40 71.5t7.5 122.5v264h35v-510h-28zM162 706v36h206v-36h-206z" />
    <glyph glyph-name="Ubreve" unicode="&#x16c;" horiz-adv-x="621" 
d="M531 688v-394q0 -132 -13.5 -192t-59 -85t-147.5 -25t-148 25t-59.5 85.5t-13.5 191.5v394h36v-424q0 -106 11 -152.5t49 -66t125 -19.5t125 19.5t48.5 66t10.5 152.5v424h36zM421 808.5q-6 -27.5 -31 -44.5t-80 -17t-80 17t-30.5 44.5t-5.5 79.5h32q0 -45 4 -67t22 -34
t58 -12t58.5 12t22.5 34t4 67h32q0 -52 -6 -79.5z" />
    <glyph glyph-name="ubreve" unicode="&#x16d;" horiz-adv-x="532" 
d="M415 80h-4q-12 -40 -47.5 -64t-112.5 -24q-71 0 -106 19t-47 60t-12 119v320h35v-315q0 -77 10.5 -112t38.5 -47t89 -12q72 0 104.5 28t40 71.5t7.5 122.5v264h35v-510h-28zM376 663.5q-6 -27.5 -31 -44.5t-80 -17t-80 17t-30.5 44.5t-5.5 79.5h32q0 -45 4 -67t22 -34
t58 -12t58.5 12t22.5 34t4 67h32q0 -52 -6 -79.5z" />
    <glyph glyph-name="Uring" unicode="&#x16e;" horiz-adv-x="621" 
d="M531 688v-394q0 -132 -13.5 -192t-59 -85t-147.5 -25t-148 25t-59.5 85.5t-13.5 191.5v394h36v-424q0 -106 11 -152.5t49 -66t125 -19.5t125 19.5t48.5 66t10.5 152.5v424h36zM241.5 738q-21.5 8 -27.5 26t-6 56t6 56t27.5 26.5t68.5 8.5t68.5 -8.5t27.5 -26.5t6 -56
t-6 -56t-27.5 -26t-68.5 -8t-68.5 8zM357.5 763q14.5 5 18 17t3.5 40t-3.5 40t-18 17.5t-47.5 5.5t-47.5 -5.5t-18 -17.5t-3.5 -40t3.5 -40t18 -17t47.5 -5t47.5 5z" />
    <glyph glyph-name="uring" unicode="&#x16f;" horiz-adv-x="532" 
d="M415 80h-4q-12 -40 -47.5 -64t-112.5 -24q-71 0 -106 19t-47 60t-12 119v320h35v-315q0 -77 10.5 -112t38.5 -47t89 -12q72 0 104.5 28t40 71.5t7.5 122.5v264h35v-510h-28zM196.5 623q-21.5 8 -27.5 26t-6 56t6 56t27.5 26.5t68.5 8.5t68.5 -8.5t27.5 -26.5t6 -56
t-6 -56t-27.5 -26t-68.5 -8t-68.5 8zM312.5 648q14.5 5 18 17t3.5 40t-3.5 40t-18 17.5t-47.5 5.5t-47.5 -5.5t-18 -17.5t-3.5 -40t3.5 -40t18 -17t47.5 -5t47.5 5z" />
    <glyph glyph-name="Uhungarumlaut" unicode="&#x170;" horiz-adv-x="621" 
d="M531 688v-394q0 -132 -13.5 -192t-59 -85t-147.5 -25t-148 25t-59.5 85.5t-13.5 191.5v394h36v-424q0 -106 11 -152.5t49 -66t125 -19.5t125 19.5t48.5 66t10.5 152.5v424h36zM217 752v5l82 127h44v-5l-100 -127h-26zM379 752v5l82 127h45v-5l-101 -127h-26z" />
    <glyph glyph-name="uhungarumlaut" unicode="&#x171;" horiz-adv-x="532" 
d="M415 80h-4q-12 -40 -47.5 -64t-112.5 -24q-71 0 -106 19t-47 60t-12 119v320h35v-315q0 -77 10.5 -112t38.5 -47t89 -12q72 0 104.5 28t40 71.5t7.5 122.5v264h35v-510h-28zM179 607v5l82 127h44v-5l-100 -127h-26zM341 607v5l82 127h45v-5l-101 -127h-26z" />
    <glyph glyph-name="Uogonek" unicode="&#x172;" horiz-adv-x="621" 
d="M531 688v-394q0 -88 -4.5 -139t-19.5 -84.5t-45 -51.5q-32 -19 -59 -59t-27 -78q0 -46 47 -46l17 1v-32q-9 -1 -22 -1q-39 0 -57.5 19.5t-18.5 52.5q0 28 17.5 61t46.5 62q-36 -7 -95 -7q-102 0 -148 25t-59.5 85.5t-13.5 191.5v394h36v-424q0 -106 11 -152.5t49 -66
t125 -19.5t125 19.5t48.5 66t10.5 152.5v424h36z" />
    <glyph glyph-name="uogonek" unicode="&#x173;" horiz-adv-x="532" 
d="M447 -163v-32q-9 -1 -22 -1q-39 0 -57.5 19.5t-18.5 52.5q0 32 19.5 68t50.5 64l-4 72h-4q-12 -40 -47.5 -64t-112.5 -24q-71 0 -106 19t-47 60t-12 119v320h35v-315q0 -77 10.5 -112t38.5 -47t89 -12q72 0 104.5 28t40 71.5t7.5 122.5v264h35v-510q-22 -19 -42.5 -54.5
t-20.5 -63.5q0 -46 47 -46z" />
    <glyph glyph-name="Wcircumflex" unicode="&#x174;" horiz-adv-x="838" 
d="M592 0l-171 618h-4l-171 -618h-37l-174 688h38l153 -618h5l169 618h39l169 -618h6l152 618h37l-174 -688h-37zM302 750v5l94 133h46l94 -133v-5h-27l-90 108l-90 -108h-27z" />
    <glyph glyph-name="wcircumflex" unicode="&#x175;" horiz-adv-x="704" 
d="M480 0l-126 448h-5l-125 -448h-37l-154 510h37l133 -451h6l123 451h40l125 -451h6l132 451h36l-154 -510h-37zM235 605v5l94 133h46l94 -133v-5h-27l-90 108l-90 -108h-27z" />
    <glyph glyph-name="Ycircumflex" unicode="&#x176;" horiz-adv-x="512" 
d="M238 0v281l-225 407h41l199 -364h7l200 364h39l-225 -407v-281h-36zM140 750v5l94 133h46l94 -133v-5h-27l-90 108l-90 -108h-27z" />
    <glyph glyph-name="ycircumflex" unicode="&#x177;" horiz-adv-x="532" 
d="M96 -197v33q77 -7 146 -7q75 0 111 22.5t47 67.5t11 132v21h-4q-12 -35 -46 -57.5t-111 -22.5q-70 0 -105 19t-47 60t-12 119v320h35v-315q0 -77 10.5 -112t38.5 -47t89 -12q72 0 104.5 28t40 71.5t7.5 122.5v264h35v-440q0 -108 -15.5 -165t-58 -82.5t-126.5 -25.5
q-72 0 -150 6zM149 605v5l94 133h46l94 -133v-5h-27l-90 108l-90 -108h-27z" />
    <glyph glyph-name="Ydieresis" unicode="&#x178;" horiz-adv-x="512" 
d="M238 0v281l-225 407h41l199 -364h7l200 364h39l-225 -407v-281h-36zM148 770v61h42v-61h-42zM325 770v61h42v-61h-42z" />
    <glyph glyph-name="Zacute" unicode="&#x179;" horiz-adv-x="513" 
d="M47 0v32l372 622h-362v34h405v-32l-371 -622h378v-34h-422zM239 750v5l83 133h44v-5l-101 -133h-26z" />
    <glyph glyph-name="zacute" unicode="&#x17a;" horiz-adv-x="431" 
d="M45 0v28l294 450h-283v32h328v-28l-293 -450h295v-32h-341zM198 605v5l83 133h44v-5l-101 -133h-26z" />
    <glyph glyph-name="Zdotaccent" unicode="&#x17b;" horiz-adv-x="513" 
d="M47 0v32l372 622h-362v34h405v-32l-371 -622h378v-34h-422zM235 815v61h43v-61h-43z" />
    <glyph glyph-name="zdotaccent" unicode="&#x17c;" horiz-adv-x="431" 
d="M45 0v28l294 450h-283v32h328v-28l-293 -450h295v-32h-341zM193 670v61h43v-61h-43z" />
    <glyph glyph-name="Zcaron" unicode="&#x17d;" horiz-adv-x="513" 
d="M47 0v32l372 622h-362v34h405v-32l-371 -622h378v-34h-422zM239 749l-94 133v5h27l90 -108l90 108h27v-5l-94 -133h-46z" />
    <glyph glyph-name="zcaron" unicode="&#x17e;" horiz-adv-x="431" 
d="M45 0v28l294 450h-283v32h328v-28l-293 -450h295v-32h-341zM197 605l-94 133v5h27l90 -108l90 108h27v-5l-94 -133h-46z" />
    <glyph glyph-name="longs" unicode="&#x17f;" horiz-adv-x="273" 
d="M121 478h-94v32h94v115q0 51 17 76.5t48.5 33.5t87.5 8v-30q-48 0 -72.5 -6.5t-35 -24t-10.5 -51.5v-631h-35v478z" />
    <glyph glyph-name="uni018F" unicode="&#x18f;" horiz-adv-x="615" 
d="M453.5 673q48.5 -23 66.5 -94.5t18 -234.5q0 -168 -13.5 -236.5t-59.5 -92t-158 -23.5t-157.5 23.5t-59 92t-13.5 236.5v21h425q-1 142 -15.5 201t-57 77.5t-145.5 18.5q-34 0 -74.5 -5t-68.5 -12v34q29 7 72.5 12t81.5 5q110 0 158.5 -23zM439.5 41.5q36.5 15.5 49 75.5
t13.5 214h-389q1 -154 13.5 -214t48.5 -75.5t132 -15.5t132.5 15.5z" />
    <glyph glyph-name="florin" unicode="&#x192;" horiz-adv-x="299" 
d="M243.5 701.5q-25.5 -11.5 -43.5 -49t-36 -121.5l-4 -21h117l-7 -32h-118l-99 -468q-20 -93 -45.5 -135.5t-58 -53.5t-91.5 -11l7 30q48 0 74 7.5t40.5 28t23.5 62.5l114 540h-94l7 32h95l2 11q22 104 48.5 151t59.5 59t92 12l-7 -30q-51 0 -76.5 -11.5z" />
    <glyph glyph-name="uni019D" unicode="&#x19d;" horiz-adv-x="638" 
d="M540 688v-688h-38l-364 613h-4v-713q0 -45 -13 -65.5t-37.5 -26t-73.5 -5.5v30q41 0 59.5 5t24 16t5.5 36v798h37l365 -613h4v613h35z" />
    <glyph glyph-name="Ohorn" unicode="&#x1a0;" horiz-adv-x="628" 
d="M545 683q-13 -20 -51 -23q25 -21 37 -58.5t16 -96t4 -161.5q0 -168 -14 -236.5t-61 -92t-162 -23.5t-162 23.5t-61 92t-14 236.5t14 236.5t61 92t162 23.5q75 0 116 -8h48q31 0 39.5 12t8.5 49v37h32v-30q0 -53 -13 -73zM502.5 568q-12.5 62 -50 78t-138.5 16
q-100 0 -138 -16t-50.5 -78t-12.5 -224t12.5 -224t50.5 -78t138 -16q101 0 138.5 16t50 78t12.5 224t-12.5 224z" />
    <glyph glyph-name="ohorn" unicode="&#x1a1;" horiz-adv-x="513" 
d="M486 608v-30q0 -39 -6.5 -59t-23 -28.5t-48.5 -8.5q25 -25 32.5 -75t7.5 -153q0 -119 -11 -170.5t-50 -71.5t-130 -20q-92 0 -131 20t-50 71.5t-11 170.5q0 120 11 171.5t50.5 72t130.5 20.5q63 0 96 -8h53q31 0 39.5 12t8.5 49v37h32zM405.5 408.5q-7.5 43.5 -39 60.5
t-109.5 17q-79 0 -110.5 -17t-39 -60.5t-7.5 -154.5t7.5 -153.5t39 -59.5t110.5 -17t110 17t38.5 59.5t7.5 153.5t-7.5 154.5z" />
    <glyph glyph-name="Uhorn" unicode="&#x1af;" horiz-adv-x="621" 
d="M633 786v-30q0 -39 -6.5 -59.5t-23.5 -28.5t-50 -8h-22v-366q0 -132 -13.5 -192t-59 -85t-147.5 -25t-148 25t-59.5 85.5t-13.5 191.5v394h36v-424q0 -106 11 -152.5t49 -66t125 -19.5t125 19.5t48.5 66t10.5 152.5v424h58q31 0 39.5 12t8.5 49v37h32z" />
    <glyph glyph-name="uhorn" unicode="&#x1b0;" horiz-adv-x="532" 
d="M544 608v-30q0 -39 -6.5 -59.5t-23.5 -28.5t-50 -8h-18v-482h-28l-3 80h-4q-12 -40 -47.5 -64t-112.5 -24q-71 0 -106 19t-47 60t-12 119v320h35v-315q0 -77 10.5 -112t38.5 -47t89 -12q72 0 104.5 28t40 71.5t7.5 122.5v264h53q31 0 39.5 12t8.5 49v37h32z" />
    <glyph glyph-name="uni01C4" unicode="&#x1c4;" horiz-adv-x="1112" 
d="M99 688h179q118 0 166.5 -23t63 -90t14.5 -231t-14.5 -231t-63 -90t-166.5 -23h-179v688zM265 34q113 0 154.5 15.5t54 75t12.5 219.5q0 159 -13 219t-54.5 75.5t-153.5 15.5h-130v-620h130zM646 0v32l372 622h-362v34h405v-32l-371 -622h378v-34h-422zM833 750l-94 133
v5h27l90 -108l90 108h27v-5l-94 -133h-46z" />
    <glyph glyph-name="uni01C5" unicode="&#x1c5;" horiz-adv-x="1030" 
d="M99 688h179q118 0 166.5 -23t63 -90t14.5 -231t-14.5 -231t-63 -90t-166.5 -23h-179v688zM265 34q113 0 154.5 15.5t54 75t12.5 219.5q0 159 -13 219t-54.5 75.5t-153.5 15.5h-130v-620h130zM644 0v28l294 450h-283v32h328v-28l-293 -450h295v-32h-341zM802 605l-94 133
v5h27l90 -108l90 108h27v-5l-94 -133h-46z" />
    <glyph glyph-name="uni01C6" unicode="&#x1c6;" horiz-adv-x="958" 
d="M130 13.5q-37 21.5 -51 75.5t-14 166t13.5 166t51 75.5t114.5 21.5q66 0 104 -18t53 -61h4v304h35v-743h-27l-4 80h-4q-16 -53 -57 -70.5t-104 -17.5q-77 0 -114 21.5zM346 42.5q34 18.5 45 57.5q10 33 12 67.5t2 101.5q0 44 -2.5 75.5t-9.5 55.5q-13 46 -48 66t-97 20
q-67 0 -97 -16t-40.5 -62.5t-10.5 -152.5t10.5 -152.5t41.5 -62.5t101 -16q59 0 93 18.5zM572 0v28l294 450h-283v32h328v-28l-293 -450h295v-32h-341zM721 605l-94 133v5h27l90 -108l90 108h27v-5l-94 -133h-46z" />
    <glyph glyph-name="uni01C7" unicode="&#x1c7;" horiz-adv-x="735" 
d="M99 0v688h36v-654h299v-34h-335zM575 46.5q22 10.5 28 47.5t6 145v449h36v-437q0 -129 -8.5 -175.5t-37.5 -60t-110 -15.5v34q64 2 86 12.5z" />
    <glyph glyph-name="uni01C8" unicode="&#x1c8;" horiz-adv-x="668" 
d="M99 0v688h36v-654h299v-34h-335zM543 682v61h41v-61h-41zM457 -167q41 0 59.5 5t24 16t5.5 36v620h35v-610q0 -45 -13 -65.5t-37.5 -26t-73.5 -5.5v30z" />
    <glyph glyph-name="uni01C9" unicode="&#x1c9;" horiz-adv-x="418" 
d="M87 0v743h35v-743h-35zM293 682v61h41v-61h-41zM207 -167q41 0 59.5 5t24 16t5.5 36v620h35v-610q0 -45 -13 -65.5t-37.5 -26t-73.5 -5.5v30z" />
    <glyph glyph-name="uni01CA" unicode="&#x1ca;" horiz-adv-x="914" 
d="M502 0l-364 613h-4v-613h-35v688h37l365 -613h4v613h35v-688h-38zM754 46.5q22 10.5 28 47.5t6 145v449h36v-437q0 -129 -8.5 -175.5t-37.5 -60t-110 -15.5v34q64 2 86 12.5z" />
    <glyph glyph-name="uni01CB" unicode="&#x1cb;" horiz-adv-x="847" 
d="M502 0l-364 613h-4v-613h-35v688h37l365 -613h4v613h35v-688h-38zM722 682v61h41v-61h-41zM636 -167q41 0 59.5 5t24 16t5.5 36v620h35v-610q0 -45 -13 -65.5t-37.5 -26t-73.5 -5.5v30z" />
    <glyph glyph-name="uni01CC" unicode="&#x1cc;" horiz-adv-x="741" 
d="M412 315q0 77 -10.5 112t-38.5 47t-89 12q-72 0 -104.5 -28t-40 -71.5t-7.5 -122.5v-264h-35v510h28l3 -80h4q13 40 48 64t112 24q71 0 106 -19t47 -60t12 -119v-320h-35v315zM616 682v61h41v-61h-41zM530 -167q41 0 59.5 5t24 16t5.5 36v620h35v-610q0 -45 -13 -65.5
t-37.5 -26t-73.5 -5.5v30z" />
    <glyph glyph-name="uni01CD" unicode="&#x1cd;" horiz-adv-x="590" 
d="M519 0l-78 220h-293l-77 -220h-38l244 688h37l243 -688h-38zM297 630h-5l-132 -376h269zM273 750l-94 133v5h27l90 -108l90 108h27v-5l-94 -133h-46z" />
    <glyph glyph-name="uni01CE" unicode="&#x1ce;" horiz-adv-x="503" 
d="M123 3.5q-35 11.5 -52 43t-17 91.5q0 57 12 88t41.5 44t84.5 13q31 0 191 -5v46q0 76 -11.5 108.5t-42 43t-100.5 10.5q-32 0 -75.5 -4t-68.5 -9v33q60 12 156 12q75 0 112 -15.5t51 -54.5t14 -118v-330h-28l-3 80h-4q-17 -53 -60.5 -70.5t-104.5 -17.5q-60 0 -95 11.5z
M311 35q36 11 51 49q12 29 16.5 58t4.5 68v41h-183q-47 0 -70 -8t-32 -31.5t-9 -73.5q0 -48 10.5 -72t37 -33t80.5 -9q58 0 94 11zM229 605l-94 133v5h27l90 -108l90 108h27v-5l-94 -133h-46z" />
    <glyph glyph-name="uni01CF" unicode="&#x1cf;" horiz-adv-x="236" 
d="M100 0v688h36v-688h-36zM95 750l-94 133v5h27l90 -108l90 108h27v-5l-94 -133h-46z" />
    <glyph glyph-name="uni01D0" unicode="&#x1d0;" horiz-adv-x="209" 
d="M87 0v510h35v-510h-35zM82 605l-94 133v5h27l90 -108l90 108h27v-5l-94 -133h-46z" />
    <glyph glyph-name="uni01D1" unicode="&#x1d1;" horiz-adv-x="628" 
d="M152 15.5q-47 23.5 -61 92t-14 236.5t14 236.5t61 92t162 23.5t162 -23.5t61 -92t14 -236.5t-14 -236.5t-61 -92t-162 -23.5t-162 23.5zM452.5 42q37.5 16 50 78t12.5 224t-12.5 224t-50 78t-138.5 16q-100 0 -138 -16t-50.5 -78t-12.5 -224t12.5 -224t50.5 -78t138 -16
q101 0 138.5 16zM291 750l-94 133v5h27l90 -108l90 108h27v-5l-94 -133h-46z" />
    <glyph glyph-name="uni01D2" unicode="&#x1d2;" horiz-adv-x="513" 
d="M126 12q-39 20 -50 71.5t-11 170.5q0 120 11 171.5t50.5 72t130.5 20.5t130 -20.5t50 -72t11 -171.5q0 -119 -11 -170.5t-50 -71.5t-130 -20q-92 0 -131 20zM367 41q31 17 38.5 59.5t7.5 153.5t-7.5 154.5t-39 60.5t-109.5 17q-79 0 -110.5 -17t-39 -60.5t-7.5 -154.5
t7.5 -153.5t39 -59.5t110.5 -17t110 17zM234 605l-94 133v5h27l90 -108l90 108h27v-5l-94 -133h-46z" />
    <glyph glyph-name="uni01D3" unicode="&#x1d3;" horiz-adv-x="621" 
d="M531 688v-394q0 -132 -13.5 -192t-59 -85t-147.5 -25t-148 25t-59.5 85.5t-13.5 191.5v394h36v-424q0 -106 11 -152.5t49 -66t125 -19.5t125 19.5t48.5 66t10.5 152.5v424h36zM288 750l-94 133v5h27l90 -108l90 108h27v-5l-94 -133h-46z" />
    <glyph glyph-name="uni01D4" unicode="&#x1d4;" horiz-adv-x="532" 
d="M415 80h-4q-12 -40 -47.5 -64t-112.5 -24q-71 0 -106 19t-47 60t-12 119v320h35v-315q0 -77 10.5 -112t38.5 -47t89 -12q72 0 104.5 28t40 71.5t7.5 122.5v264h35v-510h-28zM243 605l-94 133v5h27l90 -108l90 108h27v-5l-94 -133h-46z" />
    <glyph glyph-name="uni01D5" unicode="&#x1d5;" horiz-adv-x="621" 
d="M531 688v-394q0 -132 -13.5 -192t-59 -85t-147.5 -25t-148 25t-59.5 85.5t-13.5 191.5v394h36v-424q0 -106 11 -152.5t49 -66t125 -19.5t125 19.5t48.5 66t10.5 152.5v424h36zM201 815v61h42v-61h-42zM378 815v61h42v-61h-42zM209 979v36h206v-36h-206z" />
    <glyph glyph-name="uni01D6" unicode="&#x1d6;" horiz-adv-x="532" 
d="M415 80h-4q-12 -40 -47.5 -64t-112.5 -24q-71 0 -106 19t-47 60t-12 119v320h35v-315q0 -77 10.5 -112t38.5 -47t89 -12q72 0 104.5 28t40 71.5t7.5 122.5v264h35v-510h-28zM156 670v61h42v-61h-42zM333 670v61h42v-61h-42zM164 867v36h206v-36h-206z" />
    <glyph glyph-name="uni01D7" unicode="&#x1d7;" horiz-adv-x="621" 
d="M531 688v-394q0 -132 -13.5 -192t-59 -85t-147.5 -25t-148 25t-59.5 85.5t-13.5 191.5v394h36v-424q0 -106 11 -152.5t49 -66t125 -19.5t125 19.5t48.5 66t10.5 152.5v424h36zM201 815v61h42v-61h-42zM378 815v61h42v-61h-42zM295 878v5l83 133h44v-5l-101 -133h-26z" />
    <glyph glyph-name="uni01D8" unicode="&#x1d8;" horiz-adv-x="532" 
d="M415 80h-4q-12 -40 -47.5 -64t-112.5 -24q-71 0 -106 19t-47 60t-12 119v320h35v-315q0 -77 10.5 -112t38.5 -47t89 -12q72 0 104.5 28t40 71.5t7.5 122.5v264h35v-510h-28zM156 670v61h42v-61h-42zM333 670v61h42v-61h-42zM251 766v5l83 133h44v-5l-101 -133h-26z" />
    <glyph glyph-name="uni01D9" unicode="&#x1d9;" horiz-adv-x="621" 
d="M531 688v-394q0 -132 -13.5 -192t-59 -85t-147.5 -25t-148 25t-59.5 85.5t-13.5 191.5v394h36v-424q0 -106 11 -152.5t49 -66t125 -19.5t125 19.5t48.5 66t10.5 152.5v424h36zM201 815v61h42v-61h-42zM378 815v61h42v-61h-42zM290 878l-94 133v5h27l90 -108l90 108h27v-5
l-94 -133h-46z" />
    <glyph glyph-name="uni01DA" unicode="&#x1da;" horiz-adv-x="532" 
d="M415 80h-4q-12 -40 -47.5 -64t-112.5 -24q-71 0 -106 19t-47 60t-12 119v320h35v-315q0 -77 10.5 -112t38.5 -47t89 -12q72 0 104.5 28t40 71.5t7.5 122.5v264h35v-510h-28zM156 670v61h42v-61h-42zM333 670v61h42v-61h-42zM245 766l-94 133v5h27l90 -108l90 108h27v-5
l-94 -133h-46z" />
    <glyph glyph-name="uni01DB" unicode="&#x1db;" horiz-adv-x="621" 
d="M531 688v-394q0 -132 -13.5 -192t-59 -85t-147.5 -25t-148 25t-59.5 85.5t-13.5 191.5v394h36v-424q0 -106 11 -152.5t49 -66t125 -19.5t125 19.5t48.5 66t10.5 152.5v424h36zM201 815v61h42v-61h-42zM378 815v61h42v-61h-42zM309 878l-101 133v5h44l83 -133v-5h-26z" />
    <glyph glyph-name="uni01DC" unicode="&#x1dc;" horiz-adv-x="532" 
d="M415 80h-4q-12 -40 -47.5 -64t-112.5 -24q-71 0 -106 19t-47 60t-12 119v320h35v-315q0 -77 10.5 -112t38.5 -47t89 -12q72 0 104.5 28t40 71.5t7.5 122.5v264h35v-510h-28zM156 670v61h42v-61h-42zM333 670v61h42v-61h-42zM264 766l-101 133v5h44l83 -133v-5h-26z" />
    <glyph glyph-name="Gcaron" unicode="&#x1e6;" horiz-adv-x="587" 
d="M305 315v34h200v-340q-42 -8 -93 -12.5t-90 -4.5q-108 0 -157.5 24t-68.5 96.5t-19 231.5q0 158 19 230.5t68.5 97t157.5 24.5q43 0 94.5 -5t86.5 -13v-32q-39 7 -83 11.5t-72 4.5q-110 0 -154 -16t-62.5 -80.5t-18.5 -221.5q0 -146 13.5 -209.5t55.5 -86t139 -22.5
q31 0 75 3.5t73 8.5v277h-164zM271 750l-94 133v5h27l90 -108l90 108h27v-5l-94 -133h-46z" />
    <glyph glyph-name="gcaron" unicode="&#x1e7;" horiz-adv-x="527" 
d="M80 -197v33q82 -7 158 -7q75 0 109.5 20t46 67t11.5 145v10h-4q-15 -43 -53 -61t-104 -18q-77 0 -114.5 21.5t-51 75.5t-13.5 166t13.5 166t51 75.5t114.5 21.5q63 0 104 -17.5t57 -70.5h4l4 80h27v-435q0 -113 -14 -170t-56 -82.5t-128 -25.5q-78 0 -162 6zM345 43.5
q34 19.5 47 61.5q8 28 10.5 61.5t2.5 88.5q0 57 -2 88t-9 55q-13 47 -47 67.5t-94 20.5q-70 0 -101 -16t-41.5 -62.5t-10.5 -152.5t10.5 -152.5t41.5 -62.5t101 -16q58 0 92 19.5zM241 605l-94 133v5h27l90 -108l90 108h27v-5l-94 -133h-46z" />
    <glyph glyph-name="uni01EA" unicode="&#x1ea;" horiz-adv-x="628" 
d="M377.5 -176.5q-18.5 19.5 -18.5 49.5q0 31 17.5 63.5t48.5 62.5q-41 -7 -111 -7q-115 0 -162 23.5t-61 92t-14 236.5t14 236.5t61 92t162 23.5t162 -23.5t61 -92t14 -236.5q0 -112 -4.5 -172.5t-19 -97.5t-45.5 -56q-35 -21 -62 -62t-27 -76q0 -19 11.5 -31.5t35.5 -12.5
l17 1v-32q-9 -1 -22 -1q-39 0 -57.5 19.5zM452.5 42q37.5 16 50 78t12.5 224t-12.5 224t-50 78t-138.5 16q-100 0 -138 -16t-50.5 -78t-12.5 -224t12.5 -224t50.5 -78t138 -16q101 0 138.5 16z" />
    <glyph glyph-name="uni01EB" unicode="&#x1eb;" horiz-adv-x="513" 
d="M387 497.5q39 -20.5 50 -72t11 -171.5q0 -109 -9 -159.5t-39 -73.5q-26 -21 -49.5 -63t-23.5 -76q0 -46 47 -46l17 1v-32q-9 -1 -22 -1q-39 0 -57.5 19.5t-18.5 51.5q0 29 14.5 62t38.5 61q-36 -6 -89 -6q-92 0 -131 20t-50 71.5t-11 170.5q0 120 11 171.5t50.5 72
t130.5 20.5t130 -20.5zM367 41q31 17 38.5 59.5t7.5 153.5t-7.5 154.5t-39 60.5t-109.5 17q-79 0 -110.5 -17t-39 -60.5t-7.5 -154.5t7.5 -153.5t39 -59.5t110.5 -17t110 17z" />
    <glyph glyph-name="uni01F1" unicode="&#x1f1;" horiz-adv-x="1112" 
d="M99 688h179q118 0 166.5 -23t63 -90t14.5 -231t-14.5 -231t-63 -90t-166.5 -23h-179v688zM265 34q113 0 154.5 15.5t54 75t12.5 219.5q0 159 -13 219t-54.5 75.5t-153.5 15.5h-130v-620h130zM646 0v32l372 622h-362v34h405v-32l-371 -622h378v-34h-422z" />
    <glyph glyph-name="uni01F2" unicode="&#x1f2;" horiz-adv-x="1030" 
d="M99 688h179q118 0 166.5 -23t63 -90t14.5 -231t-14.5 -231t-63 -90t-166.5 -23h-179v688zM265 34q113 0 154.5 15.5t54 75t12.5 219.5q0 159 -13 219t-54.5 75.5t-153.5 15.5h-130v-620h130zM644 0v28l294 450h-283v32h328v-28l-293 -450h295v-32h-341z" />
    <glyph glyph-name="uni01F3" unicode="&#x1f3;" horiz-adv-x="958" 
d="M130 13.5q-37 21.5 -51 75.5t-14 166t13.5 166t51 75.5t114.5 21.5q66 0 104 -18t53 -61h4v304h35v-743h-27l-4 80h-4q-16 -53 -57 -70.5t-104 -17.5q-77 0 -114 21.5zM346 42.5q34 18.5 45 57.5q10 33 12 67.5t2 101.5q0 44 -2.5 75.5t-9.5 55.5q-13 46 -48 66t-97 20
q-67 0 -97 -16t-40.5 -62.5t-10.5 -152.5t10.5 -152.5t41.5 -62.5t101 -16q59 0 93 18.5zM572 0v28l294 450h-283v32h328v-28l-293 -450h295v-32h-341z" />
    <glyph glyph-name="uni01F4" unicode="&#x1f4;" horiz-adv-x="587" 
d="M305 315v34h200v-340q-42 -8 -93 -12.5t-90 -4.5q-108 0 -157.5 24t-68.5 96.5t-19 231.5q0 158 19 230.5t68.5 97t157.5 24.5q43 0 94.5 -5t86.5 -13v-32q-39 7 -83 11.5t-72 4.5q-110 0 -154 -16t-62.5 -80.5t-18.5 -221.5q0 -146 13.5 -209.5t55.5 -86t139 -22.5
q31 0 75 3.5t73 8.5v277h-164zM276 750v5l83 133h44v-5l-101 -133h-26z" />
    <glyph glyph-name="uni01F5" unicode="&#x1f5;" horiz-adv-x="527" 
d="M80 -197v33q82 -7 158 -7q75 0 109.5 20t46 67t11.5 145v10h-4q-15 -43 -53 -61t-104 -18q-77 0 -114.5 21.5t-51 75.5t-13.5 166t13.5 166t51 75.5t114.5 21.5q63 0 104 -17.5t57 -70.5h4l4 80h27v-435q0 -113 -14 -170t-56 -82.5t-128 -25.5q-78 0 -162 6zM345 43.5
q34 19.5 47 61.5q8 28 10.5 61.5t2.5 88.5q0 57 -2 88t-9 55q-13 47 -47 67.5t-94 20.5q-70 0 -101 -16t-41.5 -62.5t-10.5 -152.5t10.5 -152.5t41.5 -62.5t101 -16q58 0 92 19.5zM247 605v5l83 133h44v-5l-101 -133h-26z" />
    <glyph glyph-name="Aringacute" unicode="&#x1fa;" horiz-adv-x="590" 
d="M557 0h-38l-78 220h-293l-77 -220h-38l236 669q-35 2 -51 11.5t-20.5 27t-4.5 51.5q0 38 6 56.5t27.5 27t68.5 8.5t68.5 -8.5t27.5 -27t6 -56.5q0 -34 -4.5 -51.5t-20.5 -27t-50 -11.5zM229.5 719q3.5 -12 18 -17t47.5 -5t47.5 5t18 17t3.5 40t-3.5 40.5t-18 18
t-47.5 5.5t-47.5 -5.5t-18 -18t-3.5 -40.5t3.5 -40zM160 254h269l-132 376h-5zM277 913v5l83 133h44v-5l-101 -133h-26z" />
    <glyph glyph-name="aringacute" unicode="&#x1fb;" horiz-adv-x="503" 
d="M123 3.5q-35 11.5 -52 43t-17 91.5q0 57 12 88t41.5 44t84.5 13q31 0 191 -5v46q0 76 -11.5 108.5t-42 43t-100.5 10.5q-32 0 -75.5 -4t-68.5 -9v33q60 12 156 12q75 0 112 -15.5t51 -54.5t14 -118v-330h-28l-3 80h-4q-17 -53 -60.5 -70.5t-104.5 -17.5q-60 0 -95 11.5z
M311 35q36 11 51 49q12 29 16.5 58t4.5 68v41h-183q-47 0 -70 -8t-32 -31.5t-9 -73.5q0 -48 10.5 -72t37 -33t80.5 -9q58 0 94 11zM182.5 623q-21.5 8 -27.5 26t-6 56t6 56t27.5 26.5t68.5 8.5t68.5 -8.5t27.5 -26.5t6 -56t-6 -56t-27.5 -26t-68.5 -8t-68.5 8zM298.5 648
q14.5 5 18 17t3.5 40t-3.5 40t-18 17.5t-47.5 5.5t-47.5 -5.5t-18 -17.5t-3.5 -40t3.5 -40t18 -17t47.5 -5t47.5 5zM237 831v5l83 133h44v-5l-101 -133h-26z" />
    <glyph glyph-name="AEacute" unicode="&#x1fc;" horiz-adv-x="815" 
d="M485 0l-56 220h-294l-98 -220h-37l308 688h459v-34h-413l75 -289h297v-34h-288l77 -297h252v-34h-282zM324 630h-5l-168 -376h269zM386 750v5l83 133h44v-5l-101 -133h-26z" />
    <glyph glyph-name="aeacute" unicode="&#x1fd;" horiz-adv-x="815" 
d="M750 247h-332q0 -97 10.5 -142t44 -63t108.5 -18q36 0 78.5 4t73.5 10v-33q-26 -6 -69.5 -9.5t-86.5 -3.5q-85 0 -124.5 21t-55.5 77q-21 -61 -66 -79.5t-113 -18.5q-60 0 -95 11.5t-52 43t-17 91.5q0 55 12 85t41.5 43t84.5 13h191v45q0 76 -11.5 108.5t-42 43
t-100.5 10.5q-32 0 -75.5 -4t-68.5 -9v33q60 12 156 12q73 0 110 -15t52 -55q18 38 58 54t117 16q81 0 116.5 -22t45.5 -73t10 -163v-13zM469.5 471.5q-31.5 -14.5 -41.5 -55.5t-10 -137h297v17q0 86 -12 125.5t-40 52t-88 12.5q-74 0 -105.5 -14.5zM383 247h-183
q-47 0 -70 -7.5t-32 -30.5t-9 -71t10.5 -72t37 -33t80.5 -9q58 0 94 11.5t52 51.5q11 27 15.5 55.5t4.5 67.5v37zM391 605v5l83 133h44v-5l-101 -133h-26z" />
    <glyph glyph-name="Oslashacute" unicode="&#x1fe;" horiz-adv-x="628" 
d="M502 653q31 -32 40 -98.5t9 -210.5q0 -168 -14 -236.5t-61 -92t-162 -23.5q-60 0 -98.5 5t-63.5 19l-39 -71h-36l49 90q-31 32 -40 98.5t-9 210.5q0 168 14 236.5t61 92t162 23.5q60 0 98 -5t63 -18l39 70h37zM119 156.5q6 -60.5 25 -88.5l315 575q-20 12 -51.5 15.5
t-93.5 3.5q-100 0 -138 -16t-50.5 -78t-12.5 -224q0 -127 6 -187.5zM509 531.5q-6 60.5 -25 88.5l-316 -575q21 -12 52.5 -15.5t93.5 -3.5q101 0 138.5 16t50 78t12.5 224q0 127 -6 187.5zM296 750v5l83 133h44v-5l-101 -133h-26z" />
    <glyph glyph-name="oslashacute" unicode="&#x1ff;" horiz-adv-x="513" 
d="M440 412q8 -50 8 -158q0 -119 -11 -170.5t-50 -71.5t-130 -20q-82 0 -120 15l-35 -62h-36l44 78q-29 24 -37 74t-8 157q0 120 11 171.5t50.5 72t130.5 20.5q81 0 118 -15l35 62h37l-44 -79q29 -24 37 -74zM104 116.5q4 -40.5 23 -61.5l232 418q-30 13 -102 13
q-79 0 -110.5 -17t-39 -60.5t-7.5 -154.5q0 -97 4 -137.5zM367 41q31 17 38.5 59.5t7.5 153.5q0 97 -4 138t-23 63l-233 -419q31 -12 104 -12q79 0 110 17zM240 605v5l83 133h44v-5l-101 -133h-26z" />
    <glyph glyph-name="uni0200" unicode="&#x200;" horiz-adv-x="590" 
d="M519 0l-78 220h-293l-77 -220h-38l244 688h37l243 -688h-38zM297 630h-5l-132 -376h269zM236 752h-26l-101 127v5h45l82 -127v-5zM398 752h-26l-100 127v5h44l82 -127v-5z" />
    <glyph glyph-name="uni0201" unicode="&#x201;" horiz-adv-x="503" 
d="M123 3.5q-35 11.5 -52 43t-17 91.5q0 57 12 88t41.5 44t84.5 13q31 0 191 -5v46q0 76 -11.5 108.5t-42 43t-100.5 10.5q-32 0 -75.5 -4t-68.5 -9v33q60 12 156 12q75 0 112 -15.5t51 -54.5t14 -118v-330h-28l-3 80h-4q-17 -53 -60.5 -70.5t-104.5 -17.5q-60 0 -95 11.5z
M311 35q36 11 51 49q12 29 16.5 58t4.5 68v41h-183q-47 0 -70 -8t-32 -31.5t-9 -73.5q0 -48 10.5 -72t37 -33t80.5 -9q58 0 94 11zM192 607h-26l-101 127v5h45l82 -127v-5zM354 607h-26l-100 127v5h44l82 -127v-5z" />
    <glyph glyph-name="uni0202" unicode="&#x202;" horiz-adv-x="590" 
d="M519 0l-78 220h-293l-77 -220h-38l244 688h37l243 -688h-38zM297 630h-5l-132 -376h269zM186 832.5q6 27.5 31 44.5t80 17t80 -17t30.5 -44.5t5.5 -79.5h-32q0 45 -4 67t-22 34t-58 12t-58.5 -12t-22.5 -34t-4 -67h-32q0 52 6 79.5z" />
    <glyph glyph-name="uni0203" unicode="&#x203;" horiz-adv-x="503" 
d="M123 3.5q-35 11.5 -52 43t-17 91.5q0 57 12 88t41.5 44t84.5 13q31 0 191 -5v46q0 76 -11.5 108.5t-42 43t-100.5 10.5q-32 0 -75.5 -4t-68.5 -9v33q60 12 156 12q75 0 112 -15.5t51 -54.5t14 -118v-330h-28l-3 80h-4q-17 -53 -60.5 -70.5t-104.5 -17.5q-60 0 -95 11.5z
M311 35q36 11 51 49q12 29 16.5 58t4.5 68v41h-183q-47 0 -70 -8t-32 -31.5t-9 -73.5q0 -48 10.5 -72t37 -33t80.5 -9q58 0 94 11zM142 687.5q6 27.5 31 44.5t80 17t80 -17t30.5 -44.5t5.5 -79.5h-32q0 45 -4 67t-22 34t-58 12t-58.5 -12t-22.5 -34t-4 -67h-32q0 52 6 79.5z
" />
    <glyph glyph-name="uni0204" unicode="&#x204;" horiz-adv-x="517" 
d="M99 0v688h370v-34h-334v-289h293v-34h-293v-297h334v-34h-370zM224 752h-26l-101 127v5h45l82 -127v-5zM386 752h-26l-100 127v5h44l82 -127v-5z" />
    <glyph glyph-name="uni0205" unicode="&#x205;" horiz-adv-x="498" 
d="M432 243h-332q0 -96 10.5 -139.5t44 -61.5t108.5 -18q36 0 78.5 4t73.5 10v-33q-25 -6 -68.5 -9.5t-87.5 -3.5q-86 0 -126.5 21.5t-54 75t-13.5 165.5q0 114 10.5 165t51 75t133.5 24q81 0 116.5 -22.5t45.5 -74t10 -165.5v-13zM152 471q-32 -15 -42 -57t-10 -139h297v21
q0 86 -12 125.5t-40 52t-87 12.5q-74 0 -106 -15zM189 607h-26l-101 127v5h45l82 -127v-5zM351 607h-26l-100 127v5h44l82 -127v-5z" />
    <glyph glyph-name="uni0206" unicode="&#x206;" horiz-adv-x="517" 
d="M99 0v688h370v-34h-334v-289h293v-34h-293v-297h334v-34h-370zM174 832.5q6 27.5 31 44.5t80 17t80 -17t30.5 -44.5t5.5 -79.5h-32q0 45 -4 67t-22 34t-58 12t-58.5 -12t-22.5 -34t-4 -67h-32q0 52 6 79.5z" />
    <glyph glyph-name="uni0207" unicode="&#x207;" horiz-adv-x="498" 
d="M432 243h-332q0 -96 10.5 -139.5t44 -61.5t108.5 -18q36 0 78.5 4t73.5 10v-33q-25 -6 -68.5 -9.5t-87.5 -3.5q-86 0 -126.5 21.5t-54 75t-13.5 165.5q0 114 10.5 165t51 75t133.5 24q81 0 116.5 -22.5t45.5 -74t10 -165.5v-13zM152 471q-32 -15 -42 -57t-10 -139h297v21
q0 86 -12 125.5t-40 52t-87 12.5q-74 0 -106 -15zM139 687.5q6 27.5 31 44.5t80 17t80 -17t30.5 -44.5t5.5 -79.5h-32q0 45 -4 67t-22 34t-58 12t-58.5 -12t-22.5 -34t-4 -67h-32q0 52 6 79.5z" />
    <glyph glyph-name="uni0208" unicode="&#x208;" horiz-adv-x="236" 
d="M100 0v688h36v-688h-36zM58 752h-26l-101 127v5h45l82 -127v-5zM220 752h-26l-100 127v5h44l82 -127v-5z" />
    <glyph glyph-name="uni0209" unicode="&#x209;" horiz-adv-x="209" 
d="M87 0v510h35v-510h-35zM45 607h-26l-101 127v5h45l82 -127v-5zM207 607h-26l-100 127v5h44l82 -127v-5z" />
    <glyph glyph-name="uni020A" unicode="&#x20a;" horiz-adv-x="236" 
d="M100 0v688h36v-688h-36zM8 832.5q6 27.5 31 44.5t80 17t80 -17t30.5 -44.5t5.5 -79.5h-32q0 45 -4 67t-22 34t-58 12t-58.5 -12t-22.5 -34t-4 -67h-32q0 52 6 79.5z" />
    <glyph glyph-name="uni020B" unicode="&#x20b;" horiz-adv-x="209" 
d="M87 0v510h35v-510h-35zM-5 687.5q6 27.5 31 44.5t80 17t80 -17t30.5 -44.5t5.5 -79.5h-32q0 45 -4 67t-22 34t-58 12t-58.5 -12t-22.5 -34t-4 -67h-32q0 52 6 79.5z" />
    <glyph glyph-name="uni020C" unicode="&#x20c;" horiz-adv-x="628" 
d="M152 15.5q-47 23.5 -61 92t-14 236.5t14 236.5t61 92t162 23.5t162 -23.5t61 -92t14 -236.5t-14 -236.5t-61 -92t-162 -23.5t-162 23.5zM452.5 42q37.5 16 50 78t12.5 224t-12.5 224t-50 78t-138.5 16q-100 0 -138 -16t-50.5 -78t-12.5 -224t12.5 -224t50.5 -78t138 -16
q101 0 138.5 16zM254 752h-26l-101 127v5h45l82 -127v-5zM416 752h-26l-100 127v5h44l82 -127v-5z" />
    <glyph glyph-name="uni020D" unicode="&#x20d;" horiz-adv-x="513" 
d="M126 12q-39 20 -50 71.5t-11 170.5q0 120 11 171.5t50.5 72t130.5 20.5t130 -20.5t50 -72t11 -171.5q0 -119 -11 -170.5t-50 -71.5t-130 -20q-92 0 -131 20zM367 41q31 17 38.5 59.5t7.5 153.5t-7.5 154.5t-39 60.5t-109.5 17q-79 0 -110.5 -17t-39 -60.5t-7.5 -154.5
t7.5 -153.5t39 -59.5t110.5 -17t110 17zM197 607h-26l-101 127v5h45l82 -127v-5zM359 607h-26l-100 127v5h44l82 -127v-5z" />
    <glyph glyph-name="uni020E" unicode="&#x20e;" horiz-adv-x="628" 
d="M152 15.5q-47 23.5 -61 92t-14 236.5t14 236.5t61 92t162 23.5t162 -23.5t61 -92t14 -236.5t-14 -236.5t-61 -92t-162 -23.5t-162 23.5zM452.5 42q37.5 16 50 78t12.5 224t-12.5 224t-50 78t-138.5 16q-100 0 -138 -16t-50.5 -78t-12.5 -224t12.5 -224t50.5 -78t138 -16
q101 0 138.5 16zM204 832.5q6 27.5 31 44.5t80 17t80 -17t30.5 -44.5t5.5 -79.5h-32q0 45 -4 67t-22 34t-58 12t-58.5 -12t-22.5 -34t-4 -67h-32q0 52 6 79.5z" />
    <glyph glyph-name="uni020F" unicode="&#x20f;" horiz-adv-x="513" 
d="M126 12q-39 20 -50 71.5t-11 170.5q0 120 11 171.5t50.5 72t130.5 20.5t130 -20.5t50 -72t11 -171.5q0 -119 -11 -170.5t-50 -71.5t-130 -20q-92 0 -131 20zM367 41q31 17 38.5 59.5t7.5 153.5t-7.5 154.5t-39 60.5t-109.5 17q-79 0 -110.5 -17t-39 -60.5t-7.5 -154.5
t7.5 -153.5t39 -59.5t110.5 -17t110 17zM147 687.5q6 27.5 31 44.5t80 17t80 -17t30.5 -44.5t5.5 -79.5h-32q0 45 -4 67t-22 34t-58 12t-58.5 -12t-22.5 -34t-4 -67h-32q0 52 6 79.5z" />
    <glyph glyph-name="uni0210" unicode="&#x210;" horiz-adv-x="593" 
d="M487 0l-106 296q-12 -2 -36 -2h-210v-294h-36v688h256q73 0 109 -26.5t45 -67t9 -103.5q0 -51 -6.5 -86t-28.5 -63t-66 -40l109 -302h-39zM435 347.5q30 19.5 38.5 53t8.5 90.5q0 58 -7.5 91t-35 52.5t-86.5 19.5h-218v-326h208q62 0 92 19.5zM237 752h-26l-101 127v5h45
l82 -127v-5zM399 752h-26l-100 127v5h44l82 -127v-5z" />
    <glyph glyph-name="uni0211" unicode="&#x211;" horiz-adv-x="305" 
d="M87 510h27l4 -106h4q15 65 54.5 89.5t102.5 24.5v-36q-63 0 -97 -25.5t-47 -73t-13 -124.5v-259h-35v510zM93 607h-26l-101 127v5h45l82 -127v-5zM255 607h-26l-100 127v5h44l82 -127v-5z" />
    <glyph glyph-name="uni0212" unicode="&#x212;" horiz-adv-x="593" 
d="M487 0l-106 296q-12 -2 -36 -2h-210v-294h-36v688h256q73 0 109 -26.5t45 -67t9 -103.5q0 -51 -6.5 -86t-28.5 -63t-66 -40l109 -302h-39zM435 347.5q30 19.5 38.5 53t8.5 90.5q0 58 -7.5 91t-35 52.5t-86.5 19.5h-218v-326h208q62 0 92 19.5zM187 832.5q6 27.5 31 44.5
t80 17t80 -17t30.5 -44.5t5.5 -79.5h-32q0 45 -4 67t-22 34t-58 12t-58.5 -12t-22.5 -34t-4 -67h-32q0 52 6 79.5z" />
    <glyph glyph-name="uni0213" unicode="&#x213;" horiz-adv-x="305" 
d="M87 510h27l4 -106h4q15 65 54.5 89.5t102.5 24.5v-36q-63 0 -97 -25.5t-47 -73t-13 -124.5v-259h-35v510zM43 687.5q6 27.5 31 44.5t80 17t80 -17t30.5 -44.5t5.5 -79.5h-32q0 45 -4 67t-22 34t-58 12t-58.5 -12t-22.5 -34t-4 -67h-32q0 52 6 79.5z" />
    <glyph glyph-name="uni0214" unicode="&#x214;" horiz-adv-x="621" 
d="M531 688v-394q0 -132 -13.5 -192t-59 -85t-147.5 -25t-148 25t-59.5 85.5t-13.5 191.5v394h36v-424q0 -106 11 -152.5t49 -66t125 -19.5t125 19.5t48.5 66t10.5 152.5v424h36zM251 752h-26l-101 127v5h45l82 -127v-5zM413 752h-26l-100 127v5h44l82 -127v-5z" />
    <glyph glyph-name="uni0215" unicode="&#x215;" horiz-adv-x="532" 
d="M415 80h-4q-12 -40 -47.5 -64t-112.5 -24q-71 0 -106 19t-47 60t-12 119v320h35v-315q0 -77 10.5 -112t38.5 -47t89 -12q72 0 104.5 28t40 71.5t7.5 122.5v264h35v-510h-28zM206 607h-26l-101 127v5h45l82 -127v-5zM368 607h-26l-100 127v5h44l82 -127v-5z" />
    <glyph glyph-name="uni0216" unicode="&#x216;" horiz-adv-x="621" 
d="M531 688v-394q0 -132 -13.5 -192t-59 -85t-147.5 -25t-148 25t-59.5 85.5t-13.5 191.5v394h36v-424q0 -106 11 -152.5t49 -66t125 -19.5t125 19.5t48.5 66t10.5 152.5v424h36zM201 832.5q6 27.5 31 44.5t80 17t80 -17t30.5 -44.5t5.5 -79.5h-32q0 45 -4 67t-22 34t-58 12
t-58.5 -12t-22.5 -34t-4 -67h-32q0 52 6 79.5z" />
    <glyph glyph-name="uni0217" unicode="&#x217;" horiz-adv-x="532" 
d="M415 80h-4q-12 -40 -47.5 -64t-112.5 -24q-71 0 -106 19t-47 60t-12 119v320h35v-315q0 -77 10.5 -112t38.5 -47t89 -12q72 0 104.5 28t40 71.5t7.5 122.5v264h35v-510h-28zM156 687.5q6 27.5 31 44.5t80 17t80 -17t30.5 -44.5t5.5 -79.5h-32q0 45 -4 67t-22 34t-58 12
t-58.5 -12t-22.5 -34t-4 -67h-32q0 52 6 79.5z" />
    <glyph glyph-name="Scommaaccent" unicode="&#x218;" horiz-adv-x="544" 
d="M179 -4.5q-56 3.5 -96 8.5v35q43 -5 97.5 -9t90.5 -4q50 0 79.5 5t53.5 21q23 14 31 46.5t8 84.5q0 69 -5.5 94t-26.5 36t-79 18l-157 19q-52 6 -75.5 26.5t-29 50.5t-5.5 88q0 70 21 109.5t66 55.5t122 16q50 0 99 -3.5t75 -9.5v-33q-35 5 -83 8.5t-87 3.5
q-55 0 -89.5 -8t-54.5 -25q-19 -17 -26 -45t-7 -71q0 -53 6 -77.5t23.5 -35.5t55.5 -16l148 -18q44 -5 69 -11.5t42.5 -20.5t25.5 -41q5 -16 6.5 -38t1.5 -67q0 -80 -21 -122.5t-62.5 -58t-113.5 -15.5q-47 0 -103 3.5zM266 -201.5q10 5.5 13 18t3 39.5v17h-20v65h48v-75
q0 -37 -6.5 -56t-22.5 -27t-47 -8v21q22 0 32 5.5z" />
    <glyph glyph-name="scommaaccent" unicode="&#x219;" horiz-adv-x="441" 
d="M142 -5q-43 3 -73 8v33q54 -7 87 -9.5t77 -2.5q50 0 75.5 11.5t34 34.5t8.5 63q0 46 -6 66t-19 26.5t-43 9.5l-130 14q-57 7 -77.5 33.5t-20.5 90.5q0 63 20 94t56 41t98 10q31 0 68.5 -3.5t63.5 -8.5v-33q-66 13 -147 13q-42 0 -68 -7t-41 -30t-15 -69q0 -40 6 -59.5
t20 -26.5t44 -10l125 -14q43 -5 63.5 -16t29 -38.5t8.5 -82.5q0 -56 -16.5 -86.5t-52 -42.5t-96.5 -12q-36 0 -79 3zM214 -201.5q10 5.5 13 18t3 39.5v17h-20v65h48v-75q0 -37 -6.5 -56t-22.5 -27t-47 -8v21q22 0 32 5.5z" />
    <glyph glyph-name="uni021A" unicode="&#x21a;" horiz-adv-x="500" 
d="M232 0v654h-200v34h436v-34h-200v-654h-36zM244 -201.5q10 5.5 13 18t3 39.5v17h-20v65h48v-75q0 -37 -6.5 -56t-22.5 -27t-47 -8v21q22 0 32 5.5z" />
    <glyph glyph-name="uni021B" unicode="&#x21b;" horiz-adv-x="292" 
d="M121 0v478h-94v32h94v148h35v-148h109v-32h-109v-478h-35zM133 -201.5q10 5.5 13 18t3 39.5v17h-20v65h48v-75q0 -37 -6.5 -56t-22.5 -27t-47 -8v21q22 0 32 5.5z" />
    <glyph glyph-name="uni0232" unicode="&#x232;" horiz-adv-x="512" 
d="M238 0v281l-225 407h41l199 -364h7l200 364h39l-225 -407v-281h-36zM153 851v36h206v-36h-206z" />
    <glyph glyph-name="uni0233" unicode="&#x233;" horiz-adv-x="532" 
d="M96 -197v33q77 -7 146 -7q75 0 111 22.5t47 67.5t11 132v21h-4q-12 -35 -46 -57.5t-111 -22.5q-70 0 -105 19t-47 60t-12 119v320h35v-315q0 -77 10.5 -112t38.5 -47t89 -12q72 0 104.5 28t40 71.5t7.5 122.5v264h35v-440q0 -108 -15.5 -165t-58 -82.5t-126.5 -25.5
q-72 0 -150 6zM162 706v36h206v-36h-206z" />
    <glyph glyph-name="uni0237" unicode="&#x237;" horiz-adv-x="209" 
d="M-2 -167q41 0 59.5 5t24 16t5.5 36v620h35v-610q0 -45 -13 -65.5t-37.5 -26t-73.5 -5.5v30z" />
    <glyph glyph-name="uni0259" unicode="&#x259;" horiz-adv-x="498" 
d="M365.5 496.5q40.5 -21.5 54 -75t13.5 -165.5q0 -114 -10.5 -165t-51 -75t-133.5 -24q-81 0 -116.5 22.5t-45.5 74t-10 165.5v13h332q0 96 -10.5 139.5t-44 61.5t-108.5 18q-36 0 -78.5 -4t-73.5 -10v33q25 6 68.5 9.5t87.5 3.5q86 0 126.5 -21.5zM346 39q32 15 42 57
t10 139h-297v-21q0 -86 12 -125.5t40 -52t87 -12.5q74 0 106 15z" />
    <glyph glyph-name="uni0272" unicode="&#x272;" horiz-adv-x="532" 
d="M-2 -167q41 0 59.5 5t24 16t5.5 36v620h28l3 -80h4q13 40 48 64t112 24q71 0 106 -19t47 -60t12 -119v-320h-35v315q0 77 -10.5 112t-38.5 47t-89 12q-72 0 -104.5 -28t-40 -71t-7.5 -122v-365q0 -45 -13 -65.5t-37.5 -26t-73.5 -5.5v30z" />
    <glyph glyph-name="uni02BC" unicode="&#x2bc;" horiz-adv-x="91" 
d="M36 603.5q10 5.5 13 18t3 39.5v17h-20v65h47v-75q0 -37 -6 -56t-22 -27t-47 -8v21q22 0 32 5.5z" />
    <glyph glyph-name="circumflex" unicode="&#x2c6;" horiz-adv-x="261" 
d="M13 605v5l94 133h46l94 -133v-5h-27l-90 108l-90 -108h-27z" />
    <glyph glyph-name="caron" unicode="&#x2c7;" horiz-adv-x="261" 
d="M107 605l-94 133v5h27l90 -108l90 108h27v-5l-94 -133h-46z" />
    <glyph glyph-name="uni02C9" unicode="&#x2c9;" horiz-adv-x="332" 
d="M63 706v36h206v-36h-206z" />
    <glyph glyph-name="breve" unicode="&#x2d8;" horiz-adv-x="260" 
d="M240 663.5q-6 -27.5 -31 -44.5t-80 -17t-80 17t-30.5 44.5t-5.5 79.5h32q0 -45 4 -67t22 -34t58 -12t58.5 12t22.5 34t4 67h32q0 -52 -6 -79.5z" />
    <glyph glyph-name="dotaccent" unicode="&#x2d9;" horiz-adv-x="83" 
d="M20 670v61h43v-61h-43z" />
    <glyph glyph-name="ring" unicode="&#x2da;" horiz-adv-x="244" 
d="M53.5 623q-21.5 8 -27.5 26t-6 56t6 56t27.5 26.5t68.5 8.5t68.5 -8.5t27.5 -26.5t6 -56t-6 -56t-27.5 -26t-68.5 -8t-68.5 8zM169.5 648q14.5 5 18 17t3.5 40t-3.5 40t-18 17.5t-47.5 5.5t-47.5 -5.5t-18 -17.5t-3.5 -40t3.5 -40t18 -17t47.5 -5t47.5 5z" />
    <glyph glyph-name="ogonek" unicode="&#x2db;" horiz-adv-x="98" 
d="M76 -196q-39 0 -57.5 19.5t-18.5 52.5q0 30 17.5 65.5t44.5 62.5h35q-22 -20 -42.5 -56.5t-20.5 -65.5q0 -46 47 -46l17 1v-32q-9 -1 -22 -1z" />
    <glyph glyph-name="tilde" unicode="&#x2dc;" horiz-adv-x="332" 
d="M307 668q-11 -20 -46 -20q-23 0 -46.5 7t-56.5 20q-56 24 -87 24q-19 0 -25 -13.5t-6 -48.5h-27q0 54 11.5 74.5t46.5 20.5q23 0 45.5 -7t58.5 -21q28 -11 48 -17t38 -6q19 0 24.5 13t5.5 49h27q0 -55 -11 -75z" />
    <glyph glyph-name="hungarumlaut" unicode="&#x2dd;" horiz-adv-x="331" 
d="M21 607v5l82 127h44v-5l-100 -127h-26zM183 607v5l82 127h45v-5l-101 -127h-26z" />
    <glyph glyph-name="gravecomb" unicode="&#x300;" 
d="M-40 605l-101 133v5h44l83 -133v-5h-26z" />
    <glyph glyph-name="acutecomb" unicode="&#x301;" 
d="M-141 605v5l83 133h44v-5l-101 -133h-26z" />
    <glyph glyph-name="uni0302" unicode="&#x302;" 
d="M-248 605v5l94 133h46l94 -133v-5h-27l-90 108l-90 -108h-27z" />
    <glyph glyph-name="tildecomb" unicode="&#x303;" 
d="M-25 668q-11 -20 -46 -20q-23 0 -46.5 7t-56.5 20q-56 24 -87 24q-19 0 -25 -13.5t-6 -48.5h-27q0 54 11.5 74.5t46.5 20.5q23 0 45.5 -7t58.5 -21q28 -11 48 -17t38 -6q19 0 24.5 13t5.5 49h27q0 -55 -11 -75z" />
    <glyph glyph-name="uni0304" unicode="&#x304;" 
d="M-269 706v36h206v-36h-206z" />
    <glyph glyph-name="uni0306" unicode="&#x306;" 
d="M-20 663.5q-6 -27.5 -31 -44.5t-80 -17t-80 17t-30.5 44.5t-5.5 79.5h32q0 -45 4 -67t22 -34t58 -12t58.5 12t22.5 34t4 67h32q0 -52 -6 -79.5z" />
    <glyph glyph-name="uni0307" unicode="&#x307;" 
d="M-63 670v61h43v-61h-43z" />
    <glyph glyph-name="uni0308" unicode="&#x308;" 
d="M-241 670v61h42v-61h-42zM-64 670v61h42v-61h-42z" />
    <glyph glyph-name="hookabovecomb" unicode="&#x309;" 
d="M-166 618q0 21 8.5 30t31.5 15l21 6q34 9 44 17.5t10 29.5q0 19 -7.5 27.5t-25 11t-56.5 2.5q-35 0 -92 -5v26q47 6 99 6q44 0 67.5 -5.5t34 -19t10.5 -39.5q0 -31 -8.5 -45t-41.5 -23l-23 -7q-23 -6 -31 -10t-10 -9t-2 -18h-29v10z" />
    <glyph glyph-name="uni030A" unicode="&#x30a;" 
d="M-190.5 623q-21.5 8 -27.5 26t-6 56t6 56t27.5 26.5t68.5 8.5t68.5 -8.5t27.5 -26.5t6 -56t-6 -56t-27.5 -26t-68.5 -8t-68.5 8zM-74.5 648q14.5 5 18 17t3.5 40t-3.5 40t-18 17.5t-47.5 5.5t-47.5 -5.5t-18 -17.5t-3.5 -40t3.5 -40t18 -17t47.5 -5t47.5 5z" />
    <glyph glyph-name="uni030B" unicode="&#x30b;" 
d="M-310 607v5l82 127h44v-5l-100 -127h-26zM-148 607v5l82 127h45v-5l-101 -127h-26z" />
    <glyph glyph-name="uni030C" unicode="&#x30c;" 
d="M-154 605l-94 133v5h27l90 -108l90 108h27v-5l-94 -133h-46z" />
    <glyph glyph-name="uni030F" unicode="&#x30f;" 
d="M-183 607h-26l-101 127v5h45l82 -127v-5zM-21 607h-26l-100 127v5h44l82 -127v-5z" />
    <glyph glyph-name="uni0311" unicode="&#x311;" 
d="M-240 687.5q6 27.5 31 44.5t80 17t80 -17t30.5 -44.5t5.5 -79.5h-32q0 45 -4 67t-22 34t-58 12t-58.5 -12t-22.5 -34t-4 -67h-32q0 52 6 79.5z" />
    <glyph glyph-name="uni0312" unicode="&#x312;" 
d="M-326 746.5q-10 -5.5 -13 -18t-3 -39.5v-17h20v-65h-48v75q0 37 6.5 56t22.5 27t47 8v-21q-22 0 -32 -5.5z" />
    <glyph glyph-name="uni031B" unicode="&#x31b;" 
d="M-116.5 522q8.5 12 8.5 49v37h32v-30q0 -39 -6.5 -59.5t-23.5 -28.5t-50 -8h-53v28h53q31 0 39.5 12z" />
    <glyph glyph-name="dotbelowcomb" unicode="&#x323;" 
d="M-107 -127v65h46v-65h-46z" />
    <glyph glyph-name="uni0326" unicode="&#x326;" 
d="M-98 -201.5q10 5.5 13 18t3 39.5v17h-20v65h48v-75q0 -37 -6.5 -56t-22.5 -27t-47 -8v21q22 0 32 5.5z" />
    <glyph glyph-name="uni0327" unicode="&#x327;" 
d="M-104 -190v5l58 193h26v-5l-44 -193h-40z" />
    <glyph glyph-name="uni0328" unicode="&#x328;" 
d="M-22 -196q-39 0 -57.5 19.5t-18.5 52.5q0 30 17.5 65.5t44.5 62.5h35q-22 -20 -42.5 -56.5t-20.5 -65.5q0 -46 47 -46l17 1v-32q-9 -1 -22 -1z" />
    <glyph glyph-name="uni0335" unicode="&#x335;" 
d="M-259 331v36h225v-36h-225z" />
    <glyph glyph-name="uni0336" unicode="&#x336;" 
d="M-98 494h-441v36h441v-36z" />
    <glyph glyph-name="uni0394" unicode="&#x394;" horiz-adv-x="590" 
d="M33 0l244 688h37l243 -688h-524zM298 630h-5l-210 -596h424z" />
    <glyph glyph-name="uni03A9" unicode="&#x3a9;" horiz-adv-x="631" 
d="M81 34h3l104 -8v6q-49 16 -72 56t-30 101t-7 169q0 151 13.5 217t62 93.5t161.5 27.5t161.5 -27.5t62 -93.5t13.5 -217q0 -107 -7 -168.5t-30.5 -101.5t-72.5 -56v-6l104 8h3v-34h-186v29q70 13 101.5 43.5t41.5 92.5t10 193q0 146 -12.5 205.5t-52 79t-136.5 19.5
t-136.5 -19.5t-52 -79t-12.5 -205.5q0 -131 9.5 -192.5t41 -92.5t101.5 -44v-29h-186v34z" />
    <glyph glyph-name="uni03BC" unicode="&#x3bc;" horiz-adv-x="534" 
d="M447 510v-510h-28l-3 80h-4q-13 -40 -47.5 -64t-110.5 -24q-47 0 -77.5 9.5t-48.5 30.5h-6v-222h-35v700h35v-315q0 -77 10.5 -112t38.5 -47t89 -12q72 0 104.5 28t40 71.5t7.5 122.5v264h35z" />
    <glyph glyph-name="pi" unicode="&#x3c0;" horiz-adv-x="525" 
d="M403 0v478h-281v-478h-35v510h351v-510h-35z" />
    <glyph glyph-name="uni1E0C" unicode="&#x1e0c;" horiz-adv-x="599" 
d="M99 688h179q118 0 166.5 -23t63 -90t14.5 -231t-14.5 -231t-63 -90t-166.5 -23h-179v688zM265 34q113 0 154.5 15.5t54 75t12.5 219.5q0 159 -13 219t-54.5 75.5t-153.5 15.5h-130v-620h130zM277 -127v65h46v-65h-46z" />
    <glyph glyph-name="uni1E0D" unicode="&#x1e0d;" horiz-adv-x="527" 
d="M130 13.5q-37 21.5 -51 75.5t-14 166t13.5 166t51 75.5t114.5 21.5q66 0 104 -18t53 -61h4v304h35v-743h-27l-4 80h-4q-16 -53 -57 -70.5t-104 -17.5q-77 0 -114 21.5zM346 42.5q34 18.5 45 57.5q10 33 12 67.5t2 101.5q0 44 -2.5 75.5t-9.5 55.5q-13 46 -48 66t-97 20
q-67 0 -97 -16t-40.5 -62.5t-10.5 -152.5t10.5 -152.5t41.5 -62.5t101 -16q59 0 93 18.5zM241 -127v65h46v-65h-46z" />
    <glyph glyph-name="uni1E24" unicode="&#x1e24;" horiz-adv-x="638" 
d="M504 0v331h-369v-331h-36v688h36v-323h369v323h36v-688h-36zM296 -127v65h46v-65h-46z" />
    <glyph glyph-name="uni1E25" unicode="&#x1e25;" horiz-adv-x="532" 
d="M412 315q0 77 -10.5 112t-38.5 47t-89 12q-72 0 -104.5 -28t-40 -71.5t-7.5 -122.5v-264h-35v743h35v-303h4q28 78 156 78q71 0 106 -19t47 -60t12 -119v-320h-35v315zM243 -127v65h46v-65h-46z" />
    <glyph glyph-name="uni1E44" unicode="&#x1e44;" horiz-adv-x="638" 
d="M502 0l-364 613h-4v-613h-35v688h37l365 -613h4v613h35v-688h-38zM297 815v61h43v-61h-43z" />
    <glyph glyph-name="uni1E45" unicode="&#x1e45;" horiz-adv-x="532" 
d="M412 315q0 77 -10.5 112t-38.5 47t-89 12q-72 0 -104.5 -28t-40 -71.5t-7.5 -122.5v-264h-35v510h28l3 -80h4q13 40 48 64t112 24q71 0 106 -19t47 -60t12 -119v-320h-35v315zM244 670v61h43v-61h-43z" />
    <glyph glyph-name="uni1E5A" unicode="&#x1e5a;" horiz-adv-x="593" 
d="M487 0l-106 296q-12 -2 -36 -2h-210v-294h-36v688h256q73 0 109 -26.5t45 -67t9 -103.5q0 -51 -6.5 -86t-28.5 -63t-66 -40l109 -302h-39zM435 347.5q30 19.5 38.5 53t8.5 90.5q0 58 -7.5 91t-35 52.5t-86.5 19.5h-218v-326h208q62 0 92 19.5zM274 -127v65h46v-65h-46z
" />
    <glyph glyph-name="uni1E5B" unicode="&#x1e5b;" horiz-adv-x="305" 
d="M87 510h27l4 -106h4q15 65 54.5 89.5t102.5 24.5v-36q-63 0 -97 -25.5t-47 -73t-13 -124.5v-259h-35v510zM82 -127v65h46v-65h-46z" />
    <glyph glyph-name="uni1E62" unicode="&#x1e62;" horiz-adv-x="544" 
d="M179 -4.5q-56 3.5 -96 8.5v35q43 -5 97.5 -9t90.5 -4q50 0 79.5 5t53.5 21q23 14 31 46.5t8 84.5q0 69 -5.5 94t-26.5 36t-79 18l-157 19q-52 6 -75.5 26.5t-29 50.5t-5.5 88q0 70 21 109.5t66 55.5t122 16q50 0 99 -3.5t75 -9.5v-33q-35 5 -83 8.5t-87 3.5
q-55 0 -89.5 -8t-54.5 -25q-19 -17 -26 -45t-7 -71q0 -53 6 -77.5t23.5 -35.5t55.5 -16l148 -18q44 -5 69 -11.5t42.5 -20.5t25.5 -41q5 -16 6.5 -38t1.5 -67q0 -80 -21 -122.5t-62.5 -58t-113.5 -15.5q-47 0 -103 3.5zM249 -127v65h46v-65h-46z" />
    <glyph glyph-name="uni1E63" unicode="&#x1e63;" horiz-adv-x="441" 
d="M142 -5q-43 3 -73 8v33q54 -7 87 -9.5t77 -2.5q50 0 75.5 11.5t34 34.5t8.5 63q0 46 -6 66t-19 26.5t-43 9.5l-130 14q-57 7 -77.5 33.5t-20.5 90.5q0 63 20 94t56 41t98 10q31 0 68.5 -3.5t63.5 -8.5v-33q-66 13 -147 13q-42 0 -68 -7t-41 -30t-15 -69q0 -40 6 -59.5
t20 -26.5t44 -10l125 -14q43 -5 63.5 -16t29 -38.5t8.5 -82.5q0 -56 -16.5 -86.5t-52 -42.5t-96.5 -12q-36 0 -79 3zM197 -127v65h46v-65h-46z" />
    <glyph glyph-name="uni1E6C" unicode="&#x1e6c;" horiz-adv-x="500" 
d="M232 0v654h-200v34h436v-34h-200v-654h-36zM227 -127v65h46v-65h-46z" />
    <glyph glyph-name="uni1E6D" unicode="&#x1e6d;" horiz-adv-x="292" 
d="M121 0v478h-94v32h94v148h35v-148h109v-32h-109v-478h-35zM116 -127v65h46v-65h-46z" />
    <glyph glyph-name="Wgrave" unicode="&#x1e80;" horiz-adv-x="838" 
d="M592 0l-171 618h-4l-171 -618h-37l-174 688h38l153 -618h5l169 618h39l169 -618h6l152 618h37l-174 -688h-37zM415 750l-101 133v5h44l83 -133v-5h-26z" />
    <glyph glyph-name="wgrave" unicode="&#x1e81;" horiz-adv-x="704" 
d="M480 0l-126 448h-5l-125 -448h-37l-154 510h37l133 -451h6l123 451h40l125 -451h6l132 451h36l-154 -510h-37zM348 605l-101 133v5h44l83 -133v-5h-26z" />
    <glyph glyph-name="Wacute" unicode="&#x1e82;" horiz-adv-x="838" 
d="M592 0l-171 618h-4l-171 -618h-37l-174 688h38l153 -618h5l169 618h39l169 -618h6l152 618h37l-174 -688h-37zM401 750v5l83 133h44v-5l-101 -133h-26z" />
    <glyph glyph-name="wacute" unicode="&#x1e83;" horiz-adv-x="704" 
d="M480 0l-126 448h-5l-125 -448h-37l-154 510h37l133 -451h6l123 451h40l125 -451h6l132 451h36l-154 -510h-37zM335 605v5l83 133h44v-5l-101 -133h-26z" />
    <glyph glyph-name="Wdieresis" unicode="&#x1e84;" horiz-adv-x="838" 
d="M592 0l-171 618h-4l-171 -618h-37l-174 688h38l153 -618h5l169 618h39l169 -618h6l152 618h37l-174 -688h-37zM309 815v61h42v-61h-42zM486 815v61h42v-61h-42z" />
    <glyph glyph-name="wdieresis" unicode="&#x1e85;" horiz-adv-x="704" 
d="M480 0l-126 448h-5l-125 -448h-37l-154 510h37l133 -451h6l123 451h40l125 -451h6l132 451h36l-154 -510h-37zM242 670v61h42v-61h-42zM419 670v61h42v-61h-42z" />
    <glyph glyph-name="uni1E92" unicode="&#x1e92;" horiz-adv-x="513" 
d="M47 0v32l372 622h-362v34h405v-32l-371 -622h378v-34h-422zM234 -127v65h46v-65h-46z" />
    <glyph glyph-name="uni1E93" unicode="&#x1e93;" horiz-adv-x="431" 
d="M45 0v28l294 450h-283v32h328v-28l-293 -450h295v-32h-341zM192 -127v65h46v-65h-46z" />
    <glyph glyph-name="uni1E9E" unicode="&#x1e9e;" horiz-adv-x="635" 
d="M522 320.5q41 -44.5 41 -139.5q0 -98 -44 -143.5t-154 -45.5q-33 0 -74.5 4t-71.5 10v32q86 -12 150 -12q58 0 92 13.5t50 46.5t16 93q0 81 -29 117t-96 36h-103v24l179 275q-48 17 -92 24t-98 7q-76 0 -108.5 -20.5t-43 -80.5t-10.5 -201v-360h-36v360q0 145 14.5 214
t54 95.5t121.5 26.5q69 0 130 -12.5t105 -31.5v-28l-170 -259h52q84 0 125 -44.5z" />
    <glyph glyph-name="uni1EA0" unicode="&#x1ea0;" horiz-adv-x="590" 
d="M519 0l-78 220h-293l-77 -220h-38l244 688h37l243 -688h-38zM297 630h-5l-132 -376h269zM273 -127v65h46v-65h-46z" />
    <glyph glyph-name="uni1EA1" unicode="&#x1ea1;" horiz-adv-x="503" 
d="M123 3.5q-35 11.5 -52 43t-17 91.5q0 57 12 88t41.5 44t84.5 13q31 0 191 -5v46q0 76 -11.5 108.5t-42 43t-100.5 10.5q-32 0 -75.5 -4t-68.5 -9v33q60 12 156 12q75 0 112 -15.5t51 -54.5t14 -118v-330h-28l-3 80h-4q-17 -53 -60.5 -70.5t-104.5 -17.5q-60 0 -95 11.5z
M311 35q36 11 51 49q12 29 16.5 58t4.5 68v41h-183q-47 0 -70 -8t-32 -31.5t-9 -73.5q0 -48 10.5 -72t37 -33t80.5 -9q58 0 94 11zM229 -127v65h46v-65h-46z" />
    <glyph glyph-name="uni1EA2" unicode="&#x1ea2;" horiz-adv-x="590" 
d="M519 0l-78 220h-293l-77 -220h-38l244 688h37l243 -688h-38zM297 630h-5l-132 -376h269zM256 743q0 21 8.5 30t31.5 16l21 5q34 9 44 17.5t10 29.5q0 19 -7.5 27.5t-25 11t-56.5 2.5q-24 0 -92 -4v26q62 6 99 6q44 0 67.5 -5.5t34 -19.5t10.5 -40q0 -30 -8.5 -44
t-41.5 -24l-23 -6q-22 -6 -30.5 -10t-10.5 -9.5t-2 -18.5h-29v10z" />
    <glyph glyph-name="uni1EA3" unicode="&#x1ea3;" horiz-adv-x="503" 
d="M123 3.5q-35 11.5 -52 43t-17 91.5q0 57 12 88t41.5 44t84.5 13q31 0 191 -5v46q0 76 -11.5 108.5t-42 43t-100.5 10.5q-32 0 -75.5 -4t-68.5 -9v33q60 12 156 12q75 0 112 -15.5t51 -54.5t14 -118v-330h-28l-3 80h-4q-17 -53 -60.5 -70.5t-104.5 -17.5q-60 0 -95 11.5z
M311 35q36 11 51 49q12 29 16.5 58t4.5 68v41h-183q-47 0 -70 -8t-32 -31.5t-9 -73.5q0 -48 10.5 -72t37 -33t80.5 -9q58 0 94 11zM212 618q0 21 8.5 30t31.5 15l21 6q34 9 44 17.5t10 29.5q0 19 -7.5 27.5t-25 11t-56.5 2.5q-35 0 -92 -5v26q47 6 99 6q44 0 67.5 -5.5
t34 -19t10.5 -39.5q0 -31 -8.5 -45t-41.5 -23l-23 -7q-23 -6 -31 -10t-10 -9t-2 -18h-29v10z" />
    <glyph glyph-name="uni1EA4" unicode="&#x1ea4;" horiz-adv-x="590" 
d="M519 0l-78 220h-293l-77 -220h-38l244 688h37l243 -688h-38zM297 630h-5l-132 -376h269zM176 747v5l94 133h46l94 -133v-5h-27l-90 108l-90 -108h-27zM366 885v5l83 133h44v-5l-101 -133h-26z" />
    <glyph glyph-name="uni1EA5" unicode="&#x1ea5;" horiz-adv-x="503" 
d="M123 3.5q-35 11.5 -52 43t-17 91.5q0 57 12 88t41.5 44t84.5 13q31 0 191 -5v46q0 76 -11.5 108.5t-42 43t-100.5 10.5q-32 0 -75.5 -4t-68.5 -9v33q60 12 156 12q75 0 112 -15.5t51 -54.5t14 -118v-330h-28l-3 80h-4q-17 -53 -60.5 -70.5t-104.5 -17.5q-60 0 -95 11.5z
M311 35q36 11 51 49q12 29 16.5 58t4.5 68v41h-183q-47 0 -70 -8t-32 -31.5t-9 -73.5q0 -48 10.5 -72t37 -33t80.5 -9q58 0 94 11zM132 605v5l94 133h46l94 -133v-5h-27l-90 108l-90 -108h-27zM322 743v5l83 133h44v-5l-101 -133h-26z" />
    <glyph glyph-name="uni1EA6" unicode="&#x1ea6;" horiz-adv-x="590" 
d="M519 0l-78 220h-293l-77 -220h-38l244 688h37l243 -688h-38zM297 630h-5l-132 -376h269zM175 747v5l94 133h46l94 -133v-5h-27l-90 108l-90 -108h-27zM388 885l-101 133v5h44l83 -133v-5h-26z" />
    <glyph glyph-name="uni1EA7" unicode="&#x1ea7;" horiz-adv-x="503" 
d="M123 3.5q-35 11.5 -52 43t-17 91.5q0 57 12 88t41.5 44t84.5 13q31 0 191 -5v46q0 76 -11.5 108.5t-42 43t-100.5 10.5q-32 0 -75.5 -4t-68.5 -9v33q60 12 156 12q75 0 112 -15.5t51 -54.5t14 -118v-330h-28l-3 80h-4q-17 -53 -60.5 -70.5t-104.5 -17.5q-60 0 -95 11.5z
M311 35q36 11 51 49q12 29 16.5 58t4.5 68v41h-183q-47 0 -70 -8t-32 -31.5t-9 -73.5q0 -48 10.5 -72t37 -33t80.5 -9q58 0 94 11zM131 605v5l94 133h46l94 -133v-5h-27l-90 108l-90 -108h-27zM344 743l-101 133v5h44l83 -133v-5h-26z" />
    <glyph glyph-name="uni1EA8" unicode="&#x1ea8;" horiz-adv-x="590" 
d="M519 0l-78 220h-293l-77 -220h-38l244 688h37l243 -688h-38zM297 630h-5l-132 -376h269zM179 747v5l94 133h46l94 -133v-5h-27l-90 108l-90 -108h-27zM340 896q0 21 8.5 30t31.5 15l21 6q34 9 44 17.5t10 29.5q0 19 -7.5 27.5t-25 11t-56.5 2.5q-35 0 -92 -5v26
q47 6 99 6q44 0 67.5 -5.5t34 -19t10.5 -39.5q0 -31 -8.5 -45t-41.5 -23l-23 -7q-23 -6 -31 -10t-10 -9t-2 -18h-29v10z" />
    <glyph glyph-name="uni1EA9" unicode="&#x1ea9;" horiz-adv-x="503" 
d="M123 3.5q-35 11.5 -52 43t-17 91.5q0 57 12 88t41.5 44t84.5 13q31 0 191 -5v46q0 76 -11.5 108.5t-42 43t-100.5 10.5q-32 0 -75.5 -4t-68.5 -9v33q60 12 156 12q75 0 112 -15.5t51 -54.5t14 -118v-330h-28l-3 80h-4q-17 -53 -60.5 -70.5t-104.5 -17.5q-60 0 -95 11.5z
M311 35q36 11 51 49q12 29 16.5 58t4.5 68v41h-183q-47 0 -70 -8t-32 -31.5t-9 -73.5q0 -48 10.5 -72t37 -33t80.5 -9q58 0 94 11zM135 605v5l94 133h46l94 -133v-5h-27l-90 108l-90 -108h-27zM296 753q0 21 8.5 30t31.5 15l21 6q34 9 44 17.5t10 29.5q0 19 -7.5 27.5
t-25 11t-56.5 2.5q-35 0 -92 -5v26q47 6 99 6q44 0 67.5 -5.5t34 -19t10.5 -39.5q0 -31 -8.5 -45t-41.5 -23l-23 -7q-23 -6 -31 -10t-10 -9t-2 -18h-29v10z" />
    <glyph glyph-name="uni1EAA" unicode="&#x1eaa;" horiz-adv-x="590" 
d="M519 0l-78 220h-293l-77 -220h-38l244 688h37l243 -688h-38zM297 630h-5l-132 -376h269zM177 748v5l94 133h46l94 -133v-5h-27l-90 108l-90 -108h-27zM437 984q-11 -20 -46 -20q-23 0 -46.5 7t-56.5 20q-56 24 -87 24q-19 0 -25 -13.5t-6 -48.5h-27q0 54 11.5 74.5
t46.5 20.5q23 0 45.5 -7t58.5 -21q28 -11 48 -17t38 -6q19 0 24.5 13t5.5 49h27q0 -55 -11 -75z" />
    <glyph glyph-name="uni1EAB" unicode="&#x1eab;" horiz-adv-x="503" 
d="M123 3.5q-35 11.5 -52 43t-17 91.5q0 57 12 88t41.5 44t84.5 13q31 0 191 -5v46q0 76 -11.5 108.5t-42 43t-100.5 10.5q-32 0 -75.5 -4t-68.5 -9v33q60 12 156 12q75 0 112 -15.5t51 -54.5t14 -118v-330h-28l-3 80h-4q-17 -53 -60.5 -70.5t-104.5 -17.5q-60 0 -95 11.5z
M311 35q36 11 51 49q12 29 16.5 58t4.5 68v41h-183q-47 0 -70 -8t-32 -31.5t-9 -73.5q0 -48 10.5 -72t37 -33t80.5 -9q58 0 94 11zM133 605v5l94 133h46l94 -133v-5h-27l-90 108l-90 -108h-27zM393 841q-11 -20 -46 -20q-23 0 -46.5 7t-56.5 20q-56 24 -87 24
q-19 0 -25 -13.5t-6 -48.5h-27q0 54 11.5 74.5t46.5 20.5q23 0 45.5 -7t58.5 -21q28 -11 48 -17t38 -6q19 0 24.5 13t5.5 49h27q0 -55 -11 -75z" />
    <glyph glyph-name="uni1EAC" unicode="&#x1eac;" horiz-adv-x="590" 
d="M519 0l-78 220h-293l-77 -220h-38l244 688h37l243 -688h-38zM297 630h-5l-132 -376h269zM273 -127v65h46v-65h-46zM179 750v5l94 133h46l94 -133v-5h-27l-90 108l-90 -108h-27z" />
    <glyph glyph-name="uni1EAD" unicode="&#x1ead;" horiz-adv-x="503" 
d="M123 3.5q-35 11.5 -52 43t-17 91.5q0 57 12 88t41.5 44t84.5 13q31 0 191 -5v46q0 76 -11.5 108.5t-42 43t-100.5 10.5q-32 0 -75.5 -4t-68.5 -9v33q60 12 156 12q75 0 112 -15.5t51 -54.5t14 -118v-330h-28l-3 80h-4q-17 -53 -60.5 -70.5t-104.5 -17.5q-60 0 -95 11.5z
M311 35q36 11 51 49q12 29 16.5 58t4.5 68v41h-183q-47 0 -70 -8t-32 -31.5t-9 -73.5q0 -48 10.5 -72t37 -33t80.5 -9q58 0 94 11zM229 -127v65h46v-65h-46zM135 605v5l94 133h46l94 -133v-5h-27l-90 108l-90 -108h-27z" />
    <glyph glyph-name="uni1EAE" unicode="&#x1eae;" horiz-adv-x="590" 
d="M519 0l-78 220h-293l-77 -220h-38l244 688h37l243 -688h-38zM297 630h-5l-132 -376h269zM403 808.5q-6 -27.5 -31 -44.5t-80 -17t-80 17t-30.5 44.5t-5.5 79.5h32q0 -45 4 -67t22 -34t58 -12t58.5 12t22.5 34t4 67h32q0 -52 -6 -79.5zM278 923v5l83 133h44v-5l-101 -133
h-26z" />
    <glyph glyph-name="uni1EAF" unicode="&#x1eaf;" horiz-adv-x="503" 
d="M123 3.5q-35 11.5 -52 43t-17 91.5q0 57 12 88t41.5 44t84.5 13q31 0 191 -5v46q0 76 -11.5 108.5t-42 43t-100.5 10.5q-32 0 -75.5 -4t-68.5 -9v33q60 12 156 12q75 0 112 -15.5t51 -54.5t14 -118v-330h-28l-3 80h-4q-17 -53 -60.5 -70.5t-104.5 -17.5q-60 0 -95 11.5z
M311 35q36 11 51 49q12 29 16.5 58t4.5 68v41h-183q-47 0 -70 -8t-32 -31.5t-9 -73.5q0 -48 10.5 -72t37 -33t80.5 -9q58 0 94 11zM359 663.5q-6 -27.5 -31 -44.5t-80 -17t-80 17t-30.5 44.5t-5.5 79.5h32q0 -45 4 -67t22 -34t58 -12t58.5 12t22.5 34t4 67h32
q0 -52 -6 -79.5zM234 778v5l83 133h44v-5l-101 -133h-26z" />
    <glyph glyph-name="uni1EB0" unicode="&#x1eb0;" horiz-adv-x="590" 
d="M519 0l-78 220h-293l-77 -220h-38l244 688h37l243 -688h-38zM297 630h-5l-132 -376h269zM406 808.5q-6 -27.5 -31 -44.5t-80 -17t-80 17t-30.5 44.5t-5.5 79.5h32q0 -45 4 -67t22 -34t58 -12t58.5 12t22.5 34t4 67h32q0 -52 -6 -79.5zM294 923l-101 133v5h44l83 -133v-5
h-26z" />
    <glyph glyph-name="uni1EB1" unicode="&#x1eb1;" horiz-adv-x="503" 
d="M123 3.5q-35 11.5 -52 43t-17 91.5q0 57 12 88t41.5 44t84.5 13q31 0 191 -5v46q0 76 -11.5 108.5t-42 43t-100.5 10.5q-32 0 -75.5 -4t-68.5 -9v33q60 12 156 12q75 0 112 -15.5t51 -54.5t14 -118v-330h-28l-3 80h-4q-17 -53 -60.5 -70.5t-104.5 -17.5q-60 0 -95 11.5z
M311 35q36 11 51 49q12 29 16.5 58t4.5 68v41h-183q-47 0 -70 -8t-32 -31.5t-9 -73.5q0 -48 10.5 -72t37 -33t80.5 -9q58 0 94 11zM362 663.5q-6 -27.5 -31 -44.5t-80 -17t-80 17t-30.5 44.5t-5.5 79.5h32q0 -45 4 -67t22 -34t58 -12t58.5 12t22.5 34t4 67h32
q0 -52 -6 -79.5zM250 778l-101 133v5h44l83 -133v-5h-26z" />
    <glyph glyph-name="uni1EB2" unicode="&#x1eb2;" horiz-adv-x="590" 
d="M519 0l-78 220h-293l-77 -220h-38l244 688h37l243 -688h-38zM297 630h-5l-132 -376h269zM406 808.5q-6 -27.5 -31 -44.5t-80 -17t-80 17t-30.5 44.5t-5.5 79.5h32q0 -45 4 -67t22 -34t58 -12t58.5 12t22.5 34t4 67h32q0 -52 -6 -79.5zM258 898q0 21 8.5 30t31.5 15l21 6
q34 9 44 17.5t10 29.5q0 19 -7.5 27.5t-25 11t-56.5 2.5q-35 0 -92 -5v26q47 6 99 6q44 0 67.5 -5.5t34 -19t10.5 -39.5q0 -31 -8.5 -45t-41.5 -23l-23 -7q-23 -6 -31 -10t-10 -9t-2 -18h-29v10z" />
    <glyph glyph-name="uni1EB3" unicode="&#x1eb3;" horiz-adv-x="503" 
d="M123 3.5q-35 11.5 -52 43t-17 91.5q0 57 12 88t41.5 44t84.5 13q31 0 191 -5v46q0 76 -11.5 108.5t-42 43t-100.5 10.5q-32 0 -75.5 -4t-68.5 -9v33q60 12 156 12q75 0 112 -15.5t51 -54.5t14 -118v-330h-28l-3 80h-4q-17 -53 -60.5 -70.5t-104.5 -17.5q-60 0 -95 11.5z
M311 35q36 11 51 49q12 29 16.5 58t4.5 68v41h-183q-47 0 -70 -8t-32 -31.5t-9 -73.5q0 -48 10.5 -72t37 -33t80.5 -9q58 0 94 11zM362 663.5q-6 -27.5 -31 -44.5t-80 -17t-80 17t-30.5 44.5t-5.5 79.5h32q0 -45 4 -67t22 -34t58 -12t58.5 12t22.5 34t4 67h32
q0 -52 -6 -79.5zM214 753q0 21 8.5 30t31.5 15l21 6q34 9 44 17.5t10 29.5q0 19 -7.5 27.5t-25 11t-56.5 2.5q-35 0 -92 -5v26q47 6 99 6q44 0 67.5 -5.5t34 -19t10.5 -39.5q0 -31 -8.5 -45t-41.5 -23l-23 -7q-23 -6 -31 -10t-10 -9t-2 -18h-29v10z" />
    <glyph glyph-name="uni1EB4" unicode="&#x1eb4;" horiz-adv-x="590" 
d="M519 0l-78 220h-293l-77 -220h-38l244 688h37l243 -688h-38zM297 630h-5l-132 -376h269zM404 808.5q-6 -27.5 -31 -44.5t-80 -17t-80 17t-30.5 44.5t-5.5 79.5h32q0 -45 4 -67t22 -34t58 -12t58.5 12t22.5 34t4 67h32q0 -52 -6 -79.5zM437 986q-11 -20 -46 -20
q-23 0 -46.5 7t-56.5 20q-56 24 -87 24q-19 0 -25 -13.5t-6 -48.5h-27q0 54 11.5 74.5t46.5 20.5q23 0 45.5 -7t58.5 -21q28 -11 48 -17t38 -6q19 0 24.5 13t5.5 49h27q0 -55 -11 -75z" />
    <glyph glyph-name="uni1EB5" unicode="&#x1eb5;" horiz-adv-x="503" 
d="M123 3.5q-35 11.5 -52 43t-17 91.5q0 57 12 88t41.5 44t84.5 13q31 0 191 -5v46q0 76 -11.5 108.5t-42 43t-100.5 10.5q-32 0 -75.5 -4t-68.5 -9v33q60 12 156 12q75 0 112 -15.5t51 -54.5t14 -118v-330h-28l-3 80h-4q-17 -53 -60.5 -70.5t-104.5 -17.5q-60 0 -95 11.5z
M311 35q36 11 51 49q12 29 16.5 58t4.5 68v41h-183q-47 0 -70 -8t-32 -31.5t-9 -73.5q0 -48 10.5 -72t37 -33t80.5 -9q58 0 94 11zM360 663.5q-6 -27.5 -31 -44.5t-80 -17t-80 17t-30.5 44.5t-5.5 79.5h32q0 -45 4 -67t22 -34t58 -12t58.5 12t22.5 34t4 67h32
q0 -52 -6 -79.5zM393 841q-11 -20 -46 -20q-23 0 -46.5 7t-56.5 20q-56 24 -87 24q-19 0 -25 -13.5t-6 -48.5h-27q0 54 11.5 74.5t46.5 20.5q23 0 45.5 -7t58.5 -21q28 -11 48 -17t38 -6q19 0 24.5 13t5.5 49h27q0 -55 -11 -75z" />
    <glyph glyph-name="uni1EB6" unicode="&#x1eb6;" horiz-adv-x="590" 
d="M519 0l-78 220h-293l-77 -220h-38l244 688h37l243 -688h-38zM297 630h-5l-132 -376h269zM273 -127v65h46v-65h-46zM406 808.5q-6 -27.5 -31 -44.5t-80 -17t-80 17t-30.5 44.5t-5.5 79.5h32q0 -45 4 -67t22 -34t58 -12t58.5 12t22.5 34t4 67h32q0 -52 -6 -79.5z" />
    <glyph glyph-name="uni1EB7" unicode="&#x1eb7;" horiz-adv-x="503" 
d="M123 3.5q-35 11.5 -52 43t-17 91.5q0 57 12 88t41.5 44t84.5 13q31 0 191 -5v46q0 76 -11.5 108.5t-42 43t-100.5 10.5q-32 0 -75.5 -4t-68.5 -9v33q60 12 156 12q75 0 112 -15.5t51 -54.5t14 -118v-330h-28l-3 80h-4q-17 -53 -60.5 -70.5t-104.5 -17.5q-60 0 -95 11.5z
M311 35q36 11 51 49q12 29 16.5 58t4.5 68v41h-183q-47 0 -70 -8t-32 -31.5t-9 -73.5q0 -48 10.5 -72t37 -33t80.5 -9q58 0 94 11zM229 -127v65h46v-65h-46zM362 663.5q-6 -27.5 -31 -44.5t-80 -17t-80 17t-30.5 44.5t-5.5 79.5h32q0 -45 4 -67t22 -34t58 -12t58.5 12
t22.5 34t4 67h32q0 -52 -6 -79.5z" />
    <glyph glyph-name="uni1EB8" unicode="&#x1eb8;" horiz-adv-x="517" 
d="M99 0v688h370v-34h-334v-289h293v-34h-293v-297h334v-34h-370zM261 -127v65h46v-65h-46z" />
    <glyph glyph-name="uni1EB9" unicode="&#x1eb9;" horiz-adv-x="498" 
d="M432 243h-332q0 -96 10.5 -139.5t44 -61.5t108.5 -18q36 0 78.5 4t73.5 10v-33q-25 -6 -68.5 -9.5t-87.5 -3.5q-86 0 -126.5 21.5t-54 75t-13.5 165.5q0 114 10.5 165t51 75t133.5 24q81 0 116.5 -22.5t45.5 -74t10 -165.5v-13zM152 471q-32 -15 -42 -57t-10 -139h297v21
q0 86 -12 125.5t-40 52t-87 12.5q-74 0 -106 -15zM226 -127v65h46v-65h-46z" />
    <glyph glyph-name="uni1EBA" unicode="&#x1eba;" horiz-adv-x="517" 
d="M99 0v688h370v-34h-334v-289h293v-34h-293v-297h334v-34h-370zM244 743q0 21 8.5 30t31.5 16l21 5q34 9 44 17.5t10 29.5q0 19 -7.5 27.5t-25 11t-56.5 2.5q-24 0 -92 -4v26q62 6 99 6q44 0 67.5 -5.5t34 -19.5t10.5 -40q0 -30 -8.5 -44t-41.5 -24l-23 -6
q-22 -6 -30.5 -10t-10.5 -9.5t-2 -18.5h-29v10z" />
    <glyph glyph-name="uni1EBB" unicode="&#x1ebb;" horiz-adv-x="498" 
d="M432 243h-332q0 -96 10.5 -139.5t44 -61.5t108.5 -18q36 0 78.5 4t73.5 10v-33q-25 -6 -68.5 -9.5t-87.5 -3.5q-86 0 -126.5 21.5t-54 75t-13.5 165.5q0 114 10.5 165t51 75t133.5 24q81 0 116.5 -22.5t45.5 -74t10 -165.5v-13zM152 471q-32 -15 -42 -57t-10 -139h297v21
q0 86 -12 125.5t-40 52t-87 12.5q-74 0 -106 -15zM209 618q0 21 8.5 30t31.5 15l21 6q34 9 44 17.5t10 29.5q0 19 -7.5 27.5t-25 11t-56.5 2.5q-35 0 -92 -5v26q47 6 99 6q44 0 67.5 -5.5t34 -19t10.5 -39.5q0 -31 -8.5 -45t-41.5 -23l-23 -7q-23 -6 -31 -10t-10 -9t-2 -18
h-29v10z" />
    <glyph glyph-name="uni1EBC" unicode="&#x1ebc;" horiz-adv-x="517" 
d="M99 0v688h370v-34h-334v-289h293v-34h-293v-297h334v-34h-370zM425 813q-11 -20 -46 -20q-23 0 -46.5 7t-56.5 20q-56 24 -87 24q-19 0 -25 -13.5t-6 -48.5h-27q0 54 11.5 74.5t46.5 20.5q23 0 45.5 -7t58.5 -21q28 -11 48 -17t38 -6q19 0 24.5 13t5.5 49h27
q0 -55 -11 -75z" />
    <glyph glyph-name="uni1EBD" unicode="&#x1ebd;" horiz-adv-x="498" 
d="M432 243h-332q0 -96 10.5 -139.5t44 -61.5t108.5 -18q36 0 78.5 4t73.5 10v-33q-25 -6 -68.5 -9.5t-87.5 -3.5q-86 0 -126.5 21.5t-54 75t-13.5 165.5q0 114 10.5 165t51 75t133.5 24q81 0 116.5 -22.5t45.5 -74t10 -165.5v-13zM152 471q-32 -15 -42 -57t-10 -139h297v21
q0 86 -12 125.5t-40 52t-87 12.5q-74 0 -106 -15zM390 668q-11 -20 -46 -20q-23 0 -46.5 7t-56.5 20q-56 24 -87 24q-19 0 -25 -13.5t-6 -48.5h-27q0 54 11.5 74.5t46.5 20.5q23 0 45.5 -7t58.5 -21q28 -11 48 -17t38 -6q19 0 24.5 13t5.5 49h27q0 -55 -11 -75z" />
    <glyph glyph-name="uni1EBE" unicode="&#x1ebe;" horiz-adv-x="517" 
d="M99 0v688h370v-34h-334v-289h293v-34h-293v-297h334v-34h-370zM164 747v5l94 133h46l94 -133v-5h-27l-90 108l-90 -108h-27zM354 885v5l83 133h44v-5l-101 -133h-26z" />
    <glyph glyph-name="uni1EBF" unicode="&#x1ebf;" horiz-adv-x="498" 
d="M432 243h-332q0 -96 10.5 -139.5t44 -61.5t108.5 -18q36 0 78.5 4t73.5 10v-33q-25 -6 -68.5 -9.5t-87.5 -3.5q-86 0 -126.5 21.5t-54 75t-13.5 165.5q0 114 10.5 165t51 75t133.5 24q81 0 116.5 -22.5t45.5 -74t10 -165.5v-13zM152 471q-32 -15 -42 -57t-10 -139h297v21
q0 86 -12 125.5t-40 52t-87 12.5q-74 0 -106 -15zM129 605v5l94 133h46l94 -133v-5h-27l-90 108l-90 -108h-27zM319 743v5l83 133h44v-5l-101 -133h-26z" />
    <glyph glyph-name="uni1EC0" unicode="&#x1ec0;" horiz-adv-x="517" 
d="M99 0v688h370v-34h-334v-289h293v-34h-293v-297h334v-34h-370zM163 747v5l94 133h46l94 -133v-5h-27l-90 108l-90 -108h-27zM376 885l-101 133v5h44l83 -133v-5h-26z" />
    <glyph glyph-name="uni1EC1" unicode="&#x1ec1;" horiz-adv-x="498" 
d="M432 243h-332q0 -96 10.5 -139.5t44 -61.5t108.5 -18q36 0 78.5 4t73.5 10v-33q-25 -6 -68.5 -9.5t-87.5 -3.5q-86 0 -126.5 21.5t-54 75t-13.5 165.5q0 114 10.5 165t51 75t133.5 24q81 0 116.5 -22.5t45.5 -74t10 -165.5v-13zM152 471q-32 -15 -42 -57t-10 -139h297v21
q0 86 -12 125.5t-40 52t-87 12.5q-74 0 -106 -15zM128 605v5l94 133h46l94 -133v-5h-27l-90 108l-90 -108h-27zM341 743l-101 133v5h44l83 -133v-5h-26z" />
    <glyph glyph-name="uni1EC2" unicode="&#x1ec2;" horiz-adv-x="517" 
d="M99 0v688h370v-34h-334v-289h293v-34h-293v-297h334v-34h-370zM167 747v5l94 133h46l94 -133v-5h-27l-90 108l-90 -108h-27zM328 896q0 21 8.5 30t31.5 15l21 6q34 9 44 17.5t10 29.5q0 19 -7.5 27.5t-25 11t-56.5 2.5q-35 0 -92 -5v26q47 6 99 6q44 0 67.5 -5.5t34 -19
t10.5 -39.5q0 -31 -8.5 -45t-41.5 -23l-23 -7q-23 -6 -31 -10t-10 -9t-2 -18h-29v10z" />
    <glyph glyph-name="uni1EC3" unicode="&#x1ec3;" horiz-adv-x="498" 
d="M432 243h-332q0 -96 10.5 -139.5t44 -61.5t108.5 -18q36 0 78.5 4t73.5 10v-33q-25 -6 -68.5 -9.5t-87.5 -3.5q-86 0 -126.5 21.5t-54 75t-13.5 165.5q0 114 10.5 165t51 75t133.5 24q81 0 116.5 -22.5t45.5 -74t10 -165.5v-13zM152 471q-32 -15 -42 -57t-10 -139h297v21
q0 86 -12 125.5t-40 52t-87 12.5q-74 0 -106 -15zM132 605v5l94 133h46l94 -133v-5h-27l-90 108l-90 -108h-27zM293 753q0 21 8.5 30t31.5 15l21 6q34 9 44 17.5t10 29.5q0 19 -7.5 27.5t-25 11t-56.5 2.5q-35 0 -92 -5v26q47 6 99 6q44 0 67.5 -5.5t34 -19t10.5 -39.5
q0 -31 -8.5 -45t-41.5 -23l-23 -7q-23 -6 -31 -10t-10 -9t-2 -18h-29v10z" />
    <glyph glyph-name="uni1EC4" unicode="&#x1ec4;" horiz-adv-x="517" 
d="M99 0v688h370v-34h-334v-289h293v-34h-293v-297h334v-34h-370zM165 748v5l94 133h46l94 -133v-5h-27l-90 108l-90 -108h-27zM425 984q-11 -20 -46 -20q-23 0 -46.5 7t-56.5 20q-56 24 -87 24q-19 0 -25 -13.5t-6 -48.5h-27q0 54 11.5 74.5t46.5 20.5q23 0 45.5 -7
t58.5 -21q28 -11 48 -17t38 -6q19 0 24.5 13t5.5 49h27q0 -55 -11 -75z" />
    <glyph glyph-name="uni1EC5" unicode="&#x1ec5;" horiz-adv-x="498" 
d="M432 243h-332q0 -96 10.5 -139.5t44 -61.5t108.5 -18q36 0 78.5 4t73.5 10v-33q-25 -6 -68.5 -9.5t-87.5 -3.5q-86 0 -126.5 21.5t-54 75t-13.5 165.5q0 114 10.5 165t51 75t133.5 24q81 0 116.5 -22.5t45.5 -74t10 -165.5v-13zM152 471q-32 -15 -42 -57t-10 -139h297v21
q0 86 -12 125.5t-40 52t-87 12.5q-74 0 -106 -15zM130 605v5l94 133h46l94 -133v-5h-27l-90 108l-90 -108h-27zM390 841q-11 -20 -46 -20q-23 0 -46.5 7t-56.5 20q-56 24 -87 24q-19 0 -25 -13.5t-6 -48.5h-27q0 54 11.5 74.5t46.5 20.5q23 0 45.5 -7t58.5 -21
q28 -11 48 -17t38 -6q19 0 24.5 13t5.5 49h27q0 -55 -11 -75z" />
    <glyph glyph-name="uni1EC6" unicode="&#x1ec6;" horiz-adv-x="517" 
d="M99 0v688h370v-34h-334v-289h293v-34h-293v-297h334v-34h-370zM261 -127v65h46v-65h-46zM167 750v5l94 133h46l94 -133v-5h-27l-90 108l-90 -108h-27z" />
    <glyph glyph-name="uni1EC7" unicode="&#x1ec7;" horiz-adv-x="498" 
d="M432 243h-332q0 -96 10.5 -139.5t44 -61.5t108.5 -18q36 0 78.5 4t73.5 10v-33q-25 -6 -68.5 -9.5t-87.5 -3.5q-86 0 -126.5 21.5t-54 75t-13.5 165.5q0 114 10.5 165t51 75t133.5 24q81 0 116.5 -22.5t45.5 -74t10 -165.5v-13zM152 471q-32 -15 -42 -57t-10 -139h297v21
q0 86 -12 125.5t-40 52t-87 12.5q-74 0 -106 -15zM226 -127v65h46v-65h-46zM132 605v5l94 133h46l94 -133v-5h-27l-90 108l-90 -108h-27z" />
    <glyph glyph-name="uni1EC8" unicode="&#x1ec8;" horiz-adv-x="236" 
d="M100 0v688h36v-688h-36zM78 743q0 21 8.5 30t31.5 16l21 5q34 9 44 17.5t10 29.5q0 19 -7.5 27.5t-25 11t-56.5 2.5q-24 0 -92 -4v26q62 6 99 6q44 0 67.5 -5.5t34 -19.5t10.5 -40q0 -30 -8.5 -44t-41.5 -24l-23 -6q-22 -6 -30.5 -10t-10.5 -9.5t-2 -18.5h-29v10z" />
    <glyph glyph-name="uni1EC9" unicode="&#x1ec9;" horiz-adv-x="209" 
d="M87 0v510h35v-510h-35zM65 618q0 21 8.5 30t31.5 15l21 6q34 9 44 17.5t10 29.5q0 19 -7.5 27.5t-25 11t-56.5 2.5q-35 0 -92 -5v26q47 6 99 6q44 0 67.5 -5.5t34 -19t10.5 -39.5q0 -31 -8.5 -45t-41.5 -23l-23 -7q-23 -6 -31 -10t-10 -9t-2 -18h-29v10z" />
    <glyph glyph-name="uni1ECA" unicode="&#x1eca;" horiz-adv-x="236" 
d="M100 0v688h36v-688h-36zM95 -127v65h46v-65h-46z" />
    <glyph glyph-name="uni1ECB" unicode="&#x1ecb;" horiz-adv-x="209" 
d="M84 682v61h41v-61h-41zM87 0v510h35v-510h-35zM61 -127v65h46v-65h-46z" />
    <glyph glyph-name="uni1ECC" unicode="&#x1ecc;" horiz-adv-x="628" 
d="M152 15.5q-47 23.5 -61 92t-14 236.5t14 236.5t61 92t162 23.5t162 -23.5t61 -92t14 -236.5t-14 -236.5t-61 -92t-162 -23.5t-162 23.5zM452.5 42q37.5 16 50 78t12.5 224t-12.5 224t-50 78t-138.5 16q-100 0 -138 -16t-50.5 -78t-12.5 -224t12.5 -224t50.5 -78t138 -16
q101 0 138.5 16zM291 -127v65h46v-65h-46z" />
    <glyph glyph-name="uni1ECD" unicode="&#x1ecd;" horiz-adv-x="513" 
d="M126 12q-39 20 -50 71.5t-11 170.5q0 120 11 171.5t50.5 72t130.5 20.5t130 -20.5t50 -72t11 -171.5q0 -119 -11 -170.5t-50 -71.5t-130 -20q-92 0 -131 20zM367 41q31 17 38.5 59.5t7.5 153.5t-7.5 154.5t-39 60.5t-109.5 17q-79 0 -110.5 -17t-39 -60.5t-7.5 -154.5
t7.5 -153.5t39 -59.5t110.5 -17t110 17zM234 -127v65h46v-65h-46z" />
    <glyph glyph-name="uni1ECE" unicode="&#x1ece;" horiz-adv-x="628" 
d="M152 15.5q-47 23.5 -61 92t-14 236.5t14 236.5t61 92t162 23.5t162 -23.5t61 -92t14 -236.5t-14 -236.5t-61 -92t-162 -23.5t-162 23.5zM452.5 42q37.5 16 50 78t12.5 224t-12.5 224t-50 78t-138.5 16q-100 0 -138 -16t-50.5 -78t-12.5 -224t12.5 -224t50.5 -78t138 -16
q101 0 138.5 16zM274 743q0 21 8.5 30t31.5 16l21 5q34 9 44 17.5t10 29.5q0 19 -7.5 27.5t-25 11t-56.5 2.5q-24 0 -92 -4v26q62 6 99 6q44 0 67.5 -5.5t34 -19.5t10.5 -40q0 -30 -8.5 -44t-41.5 -24l-23 -6q-22 -6 -30.5 -10t-10.5 -9.5t-2 -18.5h-29v10z" />
    <glyph glyph-name="uni1ECF" unicode="&#x1ecf;" horiz-adv-x="513" 
d="M126 12q-39 20 -50 71.5t-11 170.5q0 120 11 171.5t50.5 72t130.5 20.5t130 -20.5t50 -72t11 -171.5q0 -119 -11 -170.5t-50 -71.5t-130 -20q-92 0 -131 20zM367 41q31 17 38.5 59.5t7.5 153.5t-7.5 154.5t-39 60.5t-109.5 17q-79 0 -110.5 -17t-39 -60.5t-7.5 -154.5
t7.5 -153.5t39 -59.5t110.5 -17t110 17zM217 618q0 21 8.5 30t31.5 15l21 6q34 9 44 17.5t10 29.5q0 19 -7.5 27.5t-25 11t-56.5 2.5q-35 0 -92 -5v26q47 6 99 6q44 0 67.5 -5.5t34 -19t10.5 -39.5q0 -31 -8.5 -45t-41.5 -23l-23 -7q-23 -6 -31 -10t-10 -9t-2 -18h-29v10z
" />
    <glyph glyph-name="uni1ED0" unicode="&#x1ed0;" horiz-adv-x="628" 
d="M152 15.5q-47 23.5 -61 92t-14 236.5t14 236.5t61 92t162 23.5t162 -23.5t61 -92t14 -236.5t-14 -236.5t-61 -92t-162 -23.5t-162 23.5zM452.5 42q37.5 16 50 78t12.5 224t-12.5 224t-50 78t-138.5 16q-100 0 -138 -16t-50.5 -78t-12.5 -224t12.5 -224t50.5 -78t138 -16
q101 0 138.5 16zM194 747v5l94 133h46l94 -133v-5h-27l-90 108l-90 -108h-27zM384 885v5l83 133h44v-5l-101 -133h-26z" />
    <glyph glyph-name="uni1ED1" unicode="&#x1ed1;" horiz-adv-x="513" 
d="M126 12q-39 20 -50 71.5t-11 170.5q0 120 11 171.5t50.5 72t130.5 20.5t130 -20.5t50 -72t11 -171.5q0 -119 -11 -170.5t-50 -71.5t-130 -20q-92 0 -131 20zM367 41q31 17 38.5 59.5t7.5 153.5t-7.5 154.5t-39 60.5t-109.5 17q-79 0 -110.5 -17t-39 -60.5t-7.5 -154.5
t7.5 -153.5t39 -59.5t110.5 -17t110 17zM137 605v5l94 133h46l94 -133v-5h-27l-90 108l-90 -108h-27zM327 743v5l83 133h44v-5l-101 -133h-26z" />
    <glyph glyph-name="uni1ED2" unicode="&#x1ed2;" horiz-adv-x="628" 
d="M152 15.5q-47 23.5 -61 92t-14 236.5t14 236.5t61 92t162 23.5t162 -23.5t61 -92t14 -236.5t-14 -236.5t-61 -92t-162 -23.5t-162 23.5zM452.5 42q37.5 16 50 78t12.5 224t-12.5 224t-50 78t-138.5 16q-100 0 -138 -16t-50.5 -78t-12.5 -224t12.5 -224t50.5 -78t138 -16
q101 0 138.5 16zM193 747v5l94 133h46l94 -133v-5h-27l-90 108l-90 -108h-27zM406 885l-101 133v5h44l83 -133v-5h-26z" />
    <glyph glyph-name="uni1ED3" unicode="&#x1ed3;" horiz-adv-x="513" 
d="M126 12q-39 20 -50 71.5t-11 170.5q0 120 11 171.5t50.5 72t130.5 20.5t130 -20.5t50 -72t11 -171.5q0 -119 -11 -170.5t-50 -71.5t-130 -20q-92 0 -131 20zM367 41q31 17 38.5 59.5t7.5 153.5t-7.5 154.5t-39 60.5t-109.5 17q-79 0 -110.5 -17t-39 -60.5t-7.5 -154.5
t7.5 -153.5t39 -59.5t110.5 -17t110 17zM136 605v5l94 133h46l94 -133v-5h-27l-90 108l-90 -108h-27zM349 743l-101 133v5h44l83 -133v-5h-26z" />
    <glyph glyph-name="uni1ED4" unicode="&#x1ed4;" horiz-adv-x="628" 
d="M152 15.5q-47 23.5 -61 92t-14 236.5t14 236.5t61 92t162 23.5t162 -23.5t61 -92t14 -236.5t-14 -236.5t-61 -92t-162 -23.5t-162 23.5zM452.5 42q37.5 16 50 78t12.5 224t-12.5 224t-50 78t-138.5 16q-100 0 -138 -16t-50.5 -78t-12.5 -224t12.5 -224t50.5 -78t138 -16
q101 0 138.5 16zM197 747v5l94 133h46l94 -133v-5h-27l-90 108l-90 -108h-27zM358 896q0 21 8.5 30t31.5 15l21 6q34 9 44 17.5t10 29.5q0 19 -7.5 27.5t-25 11t-56.5 2.5q-35 0 -92 -5v26q47 6 99 6q44 0 67.5 -5.5t34 -19t10.5 -39.5q0 -31 -8.5 -45t-41.5 -23l-23 -7
q-23 -6 -31 -10t-10 -9t-2 -18h-29v10z" />
    <glyph glyph-name="uni1ED5" unicode="&#x1ed5;" horiz-adv-x="513" 
d="M126 12q-39 20 -50 71.5t-11 170.5q0 120 11 171.5t50.5 72t130.5 20.5t130 -20.5t50 -72t11 -171.5q0 -119 -11 -170.5t-50 -71.5t-130 -20q-92 0 -131 20zM367 41q31 17 38.5 59.5t7.5 153.5t-7.5 154.5t-39 60.5t-109.5 17q-79 0 -110.5 -17t-39 -60.5t-7.5 -154.5
t7.5 -153.5t39 -59.5t110.5 -17t110 17zM140 605v5l94 133h46l94 -133v-5h-27l-90 108l-90 -108h-27zM301 753q0 21 8.5 30t31.5 15l21 6q34 9 44 17.5t10 29.5q0 19 -7.5 27.5t-25 11t-56.5 2.5q-35 0 -92 -5v26q47 6 99 6q44 0 67.5 -5.5t34 -19t10.5 -39.5
q0 -31 -8.5 -45t-41.5 -23l-23 -7q-23 -6 -31 -10t-10 -9t-2 -18h-29v10z" />
    <glyph glyph-name="uni1ED6" unicode="&#x1ed6;" horiz-adv-x="628" 
d="M152 15.5q-47 23.5 -61 92t-14 236.5t14 236.5t61 92t162 23.5t162 -23.5t61 -92t14 -236.5t-14 -236.5t-61 -92t-162 -23.5t-162 23.5zM452.5 42q37.5 16 50 78t12.5 224t-12.5 224t-50 78t-138.5 16q-100 0 -138 -16t-50.5 -78t-12.5 -224t12.5 -224t50.5 -78t138 -16
q101 0 138.5 16zM195 748v5l94 133h46l94 -133v-5h-27l-90 108l-90 -108h-27zM455 984q-11 -20 -46 -20q-23 0 -46.5 7t-56.5 20q-56 24 -87 24q-19 0 -25 -13.5t-6 -48.5h-27q0 54 11.5 74.5t46.5 20.5q23 0 45.5 -7t58.5 -21q28 -11 48 -17t38 -6q19 0 24.5 13t5.5 49h27
q0 -55 -11 -75z" />
    <glyph glyph-name="uni1ED7" unicode="&#x1ed7;" horiz-adv-x="513" 
d="M126 12q-39 20 -50 71.5t-11 170.5q0 120 11 171.5t50.5 72t130.5 20.5t130 -20.5t50 -72t11 -171.5q0 -119 -11 -170.5t-50 -71.5t-130 -20q-92 0 -131 20zM367 41q31 17 38.5 59.5t7.5 153.5t-7.5 154.5t-39 60.5t-109.5 17q-79 0 -110.5 -17t-39 -60.5t-7.5 -154.5
t7.5 -153.5t39 -59.5t110.5 -17t110 17zM138 605v5l94 133h46l94 -133v-5h-27l-90 108l-90 -108h-27zM398 841q-11 -20 -46 -20q-23 0 -46.5 7t-56.5 20q-56 24 -87 24q-19 0 -25 -13.5t-6 -48.5h-27q0 54 11.5 74.5t46.5 20.5q23 0 45.5 -7t58.5 -21q28 -11 48 -17t38 -6
q19 0 24.5 13t5.5 49h27q0 -55 -11 -75z" />
    <glyph glyph-name="uni1ED8" unicode="&#x1ed8;" horiz-adv-x="628" 
d="M152 15.5q-47 23.5 -61 92t-14 236.5t14 236.5t61 92t162 23.5t162 -23.5t61 -92t14 -236.5t-14 -236.5t-61 -92t-162 -23.5t-162 23.5zM452.5 42q37.5 16 50 78t12.5 224t-12.5 224t-50 78t-138.5 16q-100 0 -138 -16t-50.5 -78t-12.5 -224t12.5 -224t50.5 -78t138 -16
q101 0 138.5 16zM291 -127v65h46v-65h-46zM197 750v5l94 133h46l94 -133v-5h-27l-90 108l-90 -108h-27z" />
    <glyph glyph-name="uni1ED9" unicode="&#x1ed9;" horiz-adv-x="513" 
d="M126 12q-39 20 -50 71.5t-11 170.5q0 120 11 171.5t50.5 72t130.5 20.5t130 -20.5t50 -72t11 -171.5q0 -119 -11 -170.5t-50 -71.5t-130 -20q-92 0 -131 20zM367 41q31 17 38.5 59.5t7.5 153.5t-7.5 154.5t-39 60.5t-109.5 17q-79 0 -110.5 -17t-39 -60.5t-7.5 -154.5
t7.5 -153.5t39 -59.5t110.5 -17t110 17zM234 -127v65h46v-65h-46zM140 605v5l94 133h46l94 -133v-5h-27l-90 108l-90 -108h-27z" />
    <glyph glyph-name="uni1EDA" unicode="&#x1eda;" horiz-adv-x="628" 
d="M545 683q-13 -20 -51 -23q25 -21 37 -58.5t16 -96t4 -161.5q0 -168 -14 -236.5t-61 -92t-162 -23.5t-162 23.5t-61 92t-14 236.5t14 236.5t61 92t162 23.5q75 0 116 -8h48q31 0 39.5 12t8.5 49v37h32v-30q0 -53 -13 -73zM502.5 568q-12.5 62 -50 78t-138.5 16
q-100 0 -138 -16t-50.5 -78t-12.5 -224t12.5 -224t50.5 -78t138 -16q101 0 138.5 16t50 78t12.5 224t-12.5 224zM296 750v5l83 133h44v-5l-101 -133h-26z" />
    <glyph glyph-name="uni1EDB" unicode="&#x1edb;" horiz-adv-x="513" 
d="M486 608v-30q0 -39 -6.5 -59t-23 -28.5t-48.5 -8.5q25 -25 32.5 -75t7.5 -153q0 -119 -11 -170.5t-50 -71.5t-130 -20q-92 0 -131 20t-50 71.5t-11 170.5q0 120 11 171.5t50.5 72t130.5 20.5q63 0 96 -8h53q31 0 39.5 12t8.5 49v37h32zM405.5 408.5q-7.5 43.5 -39 60.5
t-109.5 17q-79 0 -110.5 -17t-39 -60.5t-7.5 -154.5t7.5 -153.5t39 -59.5t110.5 -17t110 17t38.5 59.5t7.5 153.5t-7.5 154.5zM240 605v5l83 133h44v-5l-101 -133h-26z" />
    <glyph glyph-name="uni1EDC" unicode="&#x1edc;" horiz-adv-x="628" 
d="M545 683q-13 -20 -51 -23q25 -21 37 -58.5t16 -96t4 -161.5q0 -168 -14 -236.5t-61 -92t-162 -23.5t-162 23.5t-61 92t-14 236.5t14 236.5t61 92t162 23.5q75 0 116 -8h48q31 0 39.5 12t8.5 49v37h32v-30q0 -53 -13 -73zM502.5 568q-12.5 62 -50 78t-138.5 16
q-100 0 -138 -16t-50.5 -78t-12.5 -224t12.5 -224t50.5 -78t138 -16q101 0 138.5 16t50 78t12.5 224t-12.5 224zM310 750l-101 133v5h44l83 -133v-5h-26z" />
    <glyph glyph-name="uni1EDD" unicode="&#x1edd;" horiz-adv-x="513" 
d="M486 608v-30q0 -39 -6.5 -59t-23 -28.5t-48.5 -8.5q25 -25 32.5 -75t7.5 -153q0 -119 -11 -170.5t-50 -71.5t-130 -20q-92 0 -131 20t-50 71.5t-11 170.5q0 120 11 171.5t50.5 72t130.5 20.5q63 0 96 -8h53q31 0 39.5 12t8.5 49v37h32zM405.5 408.5q-7.5 43.5 -39 60.5
t-109.5 17q-79 0 -110.5 -17t-39 -60.5t-7.5 -154.5t7.5 -153.5t39 -59.5t110.5 -17t110 17t38.5 59.5t7.5 153.5t-7.5 154.5zM253 605l-101 133v5h44l83 -133v-5h-26z" />
    <glyph glyph-name="uni1EDE" unicode="&#x1ede;" horiz-adv-x="628" 
d="M545 683q-13 -20 -51 -23q25 -21 37 -58.5t16 -96t4 -161.5q0 -168 -14 -236.5t-61 -92t-162 -23.5t-162 23.5t-61 92t-14 236.5t14 236.5t61 92t162 23.5q75 0 116 -8h48q31 0 39.5 12t8.5 49v37h32v-30q0 -53 -13 -73zM502.5 568q-12.5 62 -50 78t-138.5 16
q-100 0 -138 -16t-50.5 -78t-12.5 -224t12.5 -224t50.5 -78t138 -16q101 0 138.5 16t50 78t12.5 224t-12.5 224zM274 743q0 21 8.5 30t31.5 16l21 5q34 9 44 17.5t10 29.5q0 19 -7.5 27.5t-25 11t-56.5 2.5q-24 0 -92 -4v26q62 6 99 6q44 0 67.5 -5.5t34 -19.5t10.5 -40
q0 -30 -8.5 -44t-41.5 -24l-23 -6q-22 -6 -30.5 -10t-10.5 -9.5t-2 -18.5h-29v10z" />
    <glyph glyph-name="uni1EDF" unicode="&#x1edf;" horiz-adv-x="513" 
d="M486 608v-30q0 -39 -6.5 -59t-23 -28.5t-48.5 -8.5q25 -25 32.5 -75t7.5 -153q0 -119 -11 -170.5t-50 -71.5t-130 -20q-92 0 -131 20t-50 71.5t-11 170.5q0 120 11 171.5t50.5 72t130.5 20.5q63 0 96 -8h53q31 0 39.5 12t8.5 49v37h32zM405.5 408.5q-7.5 43.5 -39 60.5
t-109.5 17q-79 0 -110.5 -17t-39 -60.5t-7.5 -154.5t7.5 -153.5t39 -59.5t110.5 -17t110 17t38.5 59.5t7.5 153.5t-7.5 154.5zM217 618q0 21 8.5 30t31.5 15l21 6q34 9 44 17.5t10 29.5q0 19 -7.5 27.5t-25 11t-56.5 2.5q-35 0 -92 -5v26q47 6 99 6q44 0 67.5 -5.5t34 -19
t10.5 -39.5q0 -31 -8.5 -45t-41.5 -23l-23 -7q-23 -6 -31 -10t-10 -9t-2 -18h-29v10z" />
    <glyph glyph-name="uni1EE0" unicode="&#x1ee0;" horiz-adv-x="628" 
d="M545 683q-13 -20 -51 -23q25 -21 37 -58.5t16 -96t4 -161.5q0 -168 -14 -236.5t-61 -92t-162 -23.5t-162 23.5t-61 92t-14 236.5t14 236.5t61 92t162 23.5q75 0 116 -8h48q31 0 39.5 12t8.5 49v37h32v-30q0 -53 -13 -73zM502.5 568q-12.5 62 -50 78t-138.5 16
q-100 0 -138 -16t-50.5 -78t-12.5 -224t12.5 -224t50.5 -78t138 -16q101 0 138.5 16t50 78t12.5 224t-12.5 224zM455 813q-11 -20 -46 -20q-23 0 -46.5 7t-56.5 20q-56 24 -87 24q-19 0 -25 -13.5t-6 -48.5h-27q0 54 11.5 74.5t46.5 20.5q23 0 45.5 -7t58.5 -21
q28 -11 48 -17t38 -6q19 0 24.5 13t5.5 49h27q0 -55 -11 -75z" />
    <glyph glyph-name="uni1EE1" unicode="&#x1ee1;" horiz-adv-x="513" 
d="M486 608v-30q0 -39 -6.5 -59t-23 -28.5t-48.5 -8.5q25 -25 32.5 -75t7.5 -153q0 -119 -11 -170.5t-50 -71.5t-130 -20q-92 0 -131 20t-50 71.5t-11 170.5q0 120 11 171.5t50.5 72t130.5 20.5q63 0 96 -8h53q31 0 39.5 12t8.5 49v37h32zM405.5 408.5q-7.5 43.5 -39 60.5
t-109.5 17q-79 0 -110.5 -17t-39 -60.5t-7.5 -154.5t7.5 -153.5t39 -59.5t110.5 -17t110 17t38.5 59.5t7.5 153.5t-7.5 154.5zM398 668q-11 -20 -46 -20q-23 0 -46.5 7t-56.5 20q-56 24 -87 24q-19 0 -25 -13.5t-6 -48.5h-27q0 54 11.5 74.5t46.5 20.5q23 0 45.5 -7
t58.5 -21q28 -11 48 -17t38 -6q19 0 24.5 13t5.5 49h27q0 -55 -11 -75z" />
    <glyph glyph-name="uni1EE2" unicode="&#x1ee2;" horiz-adv-x="628" 
d="M545 683q-13 -20 -51 -23q25 -21 37 -58.5t16 -96t4 -161.5q0 -168 -14 -236.5t-61 -92t-162 -23.5t-162 23.5t-61 92t-14 236.5t14 236.5t61 92t162 23.5q75 0 116 -8h48q31 0 39.5 12t8.5 49v37h32v-30q0 -53 -13 -73zM502.5 568q-12.5 62 -50 78t-138.5 16
q-100 0 -138 -16t-50.5 -78t-12.5 -224t12.5 -224t50.5 -78t138 -16q101 0 138.5 16t50 78t12.5 224t-12.5 224zM291 -127v65h46v-65h-46z" />
    <glyph glyph-name="uni1EE3" unicode="&#x1ee3;" horiz-adv-x="513" 
d="M486 608v-30q0 -39 -6.5 -59t-23 -28.5t-48.5 -8.5q25 -25 32.5 -75t7.5 -153q0 -119 -11 -170.5t-50 -71.5t-130 -20q-92 0 -131 20t-50 71.5t-11 170.5q0 120 11 171.5t50.5 72t130.5 20.5q63 0 96 -8h53q31 0 39.5 12t8.5 49v37h32zM405.5 408.5q-7.5 43.5 -39 60.5
t-109.5 17q-79 0 -110.5 -17t-39 -60.5t-7.5 -154.5t7.5 -153.5t39 -59.5t110.5 -17t110 17t38.5 59.5t7.5 153.5t-7.5 154.5zM234 -127v65h46v-65h-46z" />
    <glyph glyph-name="uni1EE4" unicode="&#x1ee4;" horiz-adv-x="621" 
d="M531 688v-394q0 -132 -13.5 -192t-59 -85t-147.5 -25t-148 25t-59.5 85.5t-13.5 191.5v394h36v-424q0 -106 11 -152.5t49 -66t125 -19.5t125 19.5t48.5 66t10.5 152.5v424h36zM288 -127v65h46v-65h-46z" />
    <glyph glyph-name="uni1EE5" unicode="&#x1ee5;" horiz-adv-x="532" 
d="M415 80h-4q-12 -40 -47.5 -64t-112.5 -24q-71 0 -106 19t-47 60t-12 119v320h35v-315q0 -77 10.5 -112t38.5 -47t89 -12q72 0 104.5 28t40 71.5t7.5 122.5v264h35v-510h-28zM234 -127v65h46v-65h-46z" />
    <glyph glyph-name="uni1EE6" unicode="&#x1ee6;" horiz-adv-x="621" 
d="M531 688v-394q0 -132 -13.5 -192t-59 -85t-147.5 -25t-148 25t-59.5 85.5t-13.5 191.5v394h36v-424q0 -106 11 -152.5t49 -66t125 -19.5t125 19.5t48.5 66t10.5 152.5v424h36zM271 743q0 21 8.5 30t31.5 16l21 5q34 9 44 17.5t10 29.5q0 19 -7.5 27.5t-25 11t-56.5 2.5
q-24 0 -92 -4v26q62 6 99 6q44 0 67.5 -5.5t34 -19.5t10.5 -40q0 -30 -8.5 -44t-41.5 -24l-23 -6q-22 -6 -30.5 -10t-10.5 -9.5t-2 -18.5h-29v10z" />
    <glyph glyph-name="uni1EE7" unicode="&#x1ee7;" horiz-adv-x="532" 
d="M415 80h-4q-12 -40 -47.5 -64t-112.5 -24q-71 0 -106 19t-47 60t-12 119v320h35v-315q0 -77 10.5 -112t38.5 -47t89 -12q72 0 104.5 28t40 71.5t7.5 122.5v264h35v-510h-28zM226 618q0 21 8.5 30t31.5 15l21 6q34 9 44 17.5t10 29.5q0 19 -7.5 27.5t-25 11t-56.5 2.5
q-35 0 -92 -5v26q47 6 99 6q44 0 67.5 -5.5t34 -19t10.5 -39.5q0 -31 -8.5 -45t-41.5 -23l-23 -7q-23 -6 -31 -10t-10 -9t-2 -18h-29v10z" />
    <glyph glyph-name="uni1EE8" unicode="&#x1ee8;" horiz-adv-x="621" 
d="M633 786v-30q0 -39 -6.5 -59.5t-23.5 -28.5t-50 -8h-22v-366q0 -132 -13.5 -192t-59 -85t-147.5 -25t-148 25t-59.5 85.5t-13.5 191.5v394h36v-424q0 -106 11 -152.5t49 -66t125 -19.5t125 19.5t48.5 66t10.5 152.5v424h58q31 0 39.5 12t8.5 49v37h32zM293 750v5l83 133
h44v-5l-101 -133h-26z" />
    <glyph glyph-name="uni1EE9" unicode="&#x1ee9;" horiz-adv-x="532" 
d="M544 608v-30q0 -39 -6.5 -59.5t-23.5 -28.5t-50 -8h-18v-482h-28l-3 80h-4q-12 -40 -47.5 -64t-112.5 -24q-71 0 -106 19t-47 60t-12 119v320h35v-315q0 -77 10.5 -112t38.5 -47t89 -12q72 0 104.5 28t40 71.5t7.5 122.5v264h53q31 0 39.5 12t8.5 49v37h32zM249 605v5
l83 133h44v-5l-101 -133h-26z" />
    <glyph glyph-name="uni1EEA" unicode="&#x1eea;" horiz-adv-x="621" 
d="M633 786v-30q0 -39 -6.5 -59.5t-23.5 -28.5t-50 -8h-22v-366q0 -132 -13.5 -192t-59 -85t-147.5 -25t-148 25t-59.5 85.5t-13.5 191.5v394h36v-424q0 -106 11 -152.5t49 -66t125 -19.5t125 19.5t48.5 66t10.5 152.5v424h58q31 0 39.5 12t8.5 49v37h32zM307 750l-101 133
v5h44l83 -133v-5h-26z" />
    <glyph glyph-name="uni1EEB" unicode="&#x1eeb;" horiz-adv-x="532" 
d="M544 608v-30q0 -39 -6.5 -59.5t-23.5 -28.5t-50 -8h-18v-482h-28l-3 80h-4q-12 -40 -47.5 -64t-112.5 -24q-71 0 -106 19t-47 60t-12 119v320h35v-315q0 -77 10.5 -112t38.5 -47t89 -12q72 0 104.5 28t40 71.5t7.5 122.5v264h53q31 0 39.5 12t8.5 49v37h32zM262 605
l-101 133v5h44l83 -133v-5h-26z" />
    <glyph glyph-name="uni1EEC" unicode="&#x1eec;" horiz-adv-x="621" 
d="M633 786v-30q0 -39 -6.5 -59.5t-23.5 -28.5t-50 -8h-22v-366q0 -132 -13.5 -192t-59 -85t-147.5 -25t-148 25t-59.5 85.5t-13.5 191.5v394h36v-424q0 -106 11 -152.5t49 -66t125 -19.5t125 19.5t48.5 66t10.5 152.5v424h58q31 0 39.5 12t8.5 49v37h32zM271 743
q0 21 8.5 30t31.5 16l21 5q34 9 44 17.5t10 29.5q0 19 -7.5 27.5t-25 11t-56.5 2.5q-24 0 -92 -4v26q62 6 99 6q44 0 67.5 -5.5t34 -19.5t10.5 -40q0 -30 -8.5 -44t-41.5 -24l-23 -6q-22 -6 -30.5 -10t-10.5 -9.5t-2 -18.5h-29v10z" />
    <glyph glyph-name="uni1EED" unicode="&#x1eed;" horiz-adv-x="532" 
d="M544 608v-30q0 -39 -6.5 -59.5t-23.5 -28.5t-50 -8h-18v-482h-28l-3 80h-4q-12 -40 -47.5 -64t-112.5 -24q-71 0 -106 19t-47 60t-12 119v320h35v-315q0 -77 10.5 -112t38.5 -47t89 -12q72 0 104.5 28t40 71.5t7.5 122.5v264h53q31 0 39.5 12t8.5 49v37h32zM226 618
q0 21 8.5 30t31.5 15l21 6q34 9 44 17.5t10 29.5q0 19 -7.5 27.5t-25 11t-56.5 2.5q-35 0 -92 -5v26q47 6 99 6q44 0 67.5 -5.5t34 -19t10.5 -39.5q0 -31 -8.5 -45t-41.5 -23l-23 -7q-23 -6 -31 -10t-10 -9t-2 -18h-29v10z" />
    <glyph glyph-name="uni1EEE" unicode="&#x1eee;" horiz-adv-x="621" 
d="M633 786v-30q0 -39 -6.5 -59.5t-23.5 -28.5t-50 -8h-22v-366q0 -132 -13.5 -192t-59 -85t-147.5 -25t-148 25t-59.5 85.5t-13.5 191.5v394h36v-424q0 -106 11 -152.5t49 -66t125 -19.5t125 19.5t48.5 66t10.5 152.5v424h58q31 0 39.5 12t8.5 49v37h32zM452 813
q-11 -20 -46 -20q-23 0 -46.5 7t-56.5 20q-56 24 -87 24q-19 0 -25 -13.5t-6 -48.5h-27q0 54 11.5 74.5t46.5 20.5q23 0 45.5 -7t58.5 -21q28 -11 48 -17t38 -6q19 0 24.5 13t5.5 49h27q0 -55 -11 -75z" />
    <glyph glyph-name="uni1EEF" unicode="&#x1eef;" horiz-adv-x="532" 
d="M544 608v-30q0 -39 -6.5 -59.5t-23.5 -28.5t-50 -8h-18v-482h-28l-3 80h-4q-12 -40 -47.5 -64t-112.5 -24q-71 0 -106 19t-47 60t-12 119v320h35v-315q0 -77 10.5 -112t38.5 -47t89 -12q72 0 104.5 28t40 71.5t7.5 122.5v264h53q31 0 39.5 12t8.5 49v37h32zM407 668
q-11 -20 -46 -20q-23 0 -46.5 7t-56.5 20q-56 24 -87 24q-19 0 -25 -13.5t-6 -48.5h-27q0 54 11.5 74.5t46.5 20.5q23 0 45.5 -7t58.5 -21q28 -11 48 -17t38 -6q19 0 24.5 13t5.5 49h27q0 -55 -11 -75z" />
    <glyph glyph-name="uni1EF0" unicode="&#x1ef0;" horiz-adv-x="621" 
d="M633 786v-30q0 -39 -6.5 -59.5t-23.5 -28.5t-50 -8h-22v-366q0 -132 -13.5 -192t-59 -85t-147.5 -25t-148 25t-59.5 85.5t-13.5 191.5v394h36v-424q0 -106 11 -152.5t49 -66t125 -19.5t125 19.5t48.5 66t10.5 152.5v424h58q31 0 39.5 12t8.5 49v37h32zM288 -127v65h46
v-65h-46z" />
    <glyph glyph-name="uni1EF1" unicode="&#x1ef1;" horiz-adv-x="532" 
d="M544 608v-30q0 -39 -6.5 -59.5t-23.5 -28.5t-50 -8h-18v-482h-28l-3 80h-4q-12 -40 -47.5 -64t-112.5 -24q-71 0 -106 19t-47 60t-12 119v320h35v-315q0 -77 10.5 -112t38.5 -47t89 -12q72 0 104.5 28t40 71.5t7.5 122.5v264h53q31 0 39.5 12t8.5 49v37h32zM234 -127v65
h46v-65h-46z" />
    <glyph glyph-name="Ygrave" unicode="&#x1ef2;" horiz-adv-x="512" 
d="M238 0v281l-225 407h41l199 -364h7l200 364h39l-225 -407v-281h-36zM253 750l-101 133v5h44l83 -133v-5h-26z" />
    <glyph glyph-name="ygrave" unicode="&#x1ef3;" horiz-adv-x="532" 
d="M96 -197v33q77 -7 146 -7q75 0 111 22.5t47 67.5t11 132v21h-4q-12 -35 -46 -57.5t-111 -22.5q-70 0 -105 19t-47 60t-12 119v320h35v-315q0 -77 10.5 -112t38.5 -47t89 -12q72 0 104.5 28t40 71.5t7.5 122.5v264h35v-440q0 -108 -15.5 -165t-58 -82.5t-126.5 -25.5
q-72 0 -150 6zM262 605l-101 133v5h44l83 -133v-5h-26z" />
    <glyph glyph-name="uni1EF4" unicode="&#x1ef4;" horiz-adv-x="512" 
d="M238 0v281l-225 407h41l199 -364h7l200 364h39l-225 -407v-281h-36zM234 -127v65h46v-65h-46z" />
    <glyph glyph-name="uni1EF5" unicode="&#x1ef5;" horiz-adv-x="532" 
d="M96 -197v33q77 -7 146 -7q75 0 111 22.5t47 67.5t11 132v21h-4q-12 -35 -46 -57.5t-111 -22.5q-70 0 -105 19t-47 60t-12 119v320h35v-315q0 -77 10.5 -112t38.5 -47t89 -12q72 0 104.5 28t40 71.5t7.5 122.5v264h35v-440q0 -108 -15.5 -165t-58 -82.5t-126.5 -25.5
q-72 0 -150 6zM223 -330v65h46v-65h-46z" />
    <glyph glyph-name="uni1EF6" unicode="&#x1ef6;" horiz-adv-x="512" 
d="M238 0v281l-225 407h41l199 -364h7l200 364h39l-225 -407v-281h-36zM217 743q0 21 8.5 30t31.5 16l21 5q34 9 44 17.5t10 29.5q0 19 -7.5 27.5t-25 11t-56.5 2.5q-24 0 -92 -4v26q62 6 99 6q44 0 67.5 -5.5t34 -19.5t10.5 -40q0 -30 -8.5 -44t-41.5 -24l-23 -6
q-22 -6 -30.5 -10t-10.5 -9.5t-2 -18.5h-29v10z" />
    <glyph glyph-name="uni1EF7" unicode="&#x1ef7;" horiz-adv-x="532" 
d="M96 -197v33q77 -7 146 -7q75 0 111 22.5t47 67.5t11 132v21h-4q-12 -35 -46 -57.5t-111 -22.5q-70 0 -105 19t-47 60t-12 119v320h35v-315q0 -77 10.5 -112t38.5 -47t89 -12q72 0 104.5 28t40 71.5t7.5 122.5v264h35v-440q0 -108 -15.5 -165t-58 -82.5t-126.5 -25.5
q-72 0 -150 6zM226 618q0 21 8.5 30t31.5 15l21 6q34 9 44 17.5t10 29.5q0 19 -7.5 27.5t-25 11t-56.5 2.5q-35 0 -92 -5v26q47 6 99 6q44 0 67.5 -5.5t34 -19t10.5 -39.5q0 -31 -8.5 -45t-41.5 -23l-23 -7q-23 -6 -31 -10t-10 -9t-2 -18h-29v10z" />
    <glyph glyph-name="uni1EF8" unicode="&#x1ef8;" horiz-adv-x="512" 
d="M238 0v281l-225 407h41l199 -364h7l200 364h39l-225 -407v-281h-36zM398 813q-11 -20 -46 -20q-23 0 -46.5 7t-56.5 20q-56 24 -87 24q-19 0 -25 -13.5t-6 -48.5h-27q0 54 11.5 74.5t46.5 20.5q23 0 45.5 -7t58.5 -21q28 -11 48 -17t38 -6q19 0 24.5 13t5.5 49h27
q0 -55 -11 -75z" />
    <glyph glyph-name="uni1EF9" unicode="&#x1ef9;" horiz-adv-x="532" 
d="M96 -197v33q77 -7 146 -7q75 0 111 22.5t47 67.5t11 132v21h-4q-12 -35 -46 -57.5t-111 -22.5q-70 0 -105 19t-47 60t-12 119v320h35v-315q0 -77 10.5 -112t38.5 -47t89 -12q72 0 104.5 28t40 71.5t7.5 122.5v264h35v-440q0 -108 -15.5 -165t-58 -82.5t-126.5 -25.5
q-72 0 -150 6zM407 668q-11 -20 -46 -20q-23 0 -46.5 7t-56.5 20q-56 24 -87 24q-19 0 -25 -13.5t-6 -48.5h-27q0 54 11.5 74.5t46.5 20.5q23 0 45.5 -7t58.5 -21q28 -11 48 -17t38 -6q19 0 24.5 13t5.5 49h27q0 -55 -11 -75z" />
    <glyph glyph-name="uni2002" unicode="&#x2002;" horiz-adv-x="300" 
 />
    <glyph glyph-name="endash" unicode="&#x2013;" horiz-adv-x="447" 
d="M63 287v34h321v-34h-321z" />
    <glyph glyph-name="emdash" unicode="&#x2014;" horiz-adv-x="848" 
d="M63 287v34h722v-34h-722z" />
    <glyph glyph-name="underscoredbl" unicode="&#x2017;" horiz-adv-x="320" 
d="M0 -249v32h320v-32h-320zM0 -160v32h320v-32h-320z" />
    <glyph glyph-name="quoteleft" unicode="&#x2018;" horiz-adv-x="159" 
d="M54 597q0 37 6.5 56t22.5 27t47 8v-21q-22 0 -32 -5.5t-13 -18t-3 -39.5v-17h20v-65h-48v75z" />
    <glyph glyph-name="quoteright" unicode="&#x2019;" horiz-adv-x="159" 
d="M61 548.5q10 5.5 13 18t3 39.5v17h-20v65h48v-75q0 -37 -6.5 -56t-22.5 -27t-47 -8v21q22 0 32 5.5z" />
    <glyph glyph-name="quotesinglbase" unicode="&#x201a;" horiz-adv-x="168" 
d="M64 -74.5q10 5.5 13 18t3 39.5v17h-20v65h47v-75q0 -37 -6 -56t-22 -27t-47 -8v21q22 0 32 5.5z" />
    <glyph glyph-name="quotedblleft" unicode="&#x201c;" horiz-adv-x="277" 
d="M54 597q0 37 6.5 56t22.5 27t47 8v-21q-22 0 -32 -5.5t-13 -18t-3 -39.5v-17h20v-65h-48v75zM172 597q0 37 6 56t22 27t47 8v-21q-22 0 -32 -5.5t-13 -18t-3 -39.5v-17h20v-65h-47v75z" />
    <glyph glyph-name="quotedblright" unicode="&#x201d;" horiz-adv-x="277" 
d="M61 548.5q10 5.5 13 18t3 39.5v17h-20v65h48v-75q0 -37 -6.5 -56t-22.5 -27t-47 -8v21q22 0 32 5.5zM179 548.5q10 5.5 13 18t3 39.5v17h-20v65h47v-75q0 -37 -6 -56t-22 -27t-47 -8v21q22 0 32 5.5z" />
    <glyph glyph-name="quotedblbase" unicode="&#x201e;" horiz-adv-x="286" 
d="M64 -74.5q10 5.5 13 18t3 39.5v17h-20v65h47v-75q0 -37 -6 -56t-22 -27t-47 -8v21q22 0 32 5.5zM182 -74.5q10 5.5 13 18t3 39.5v17h-20v65h47v-75q0 -37 -6 -56t-22 -27t-48 -8v21q23 0 33 5.5z" />
    <glyph glyph-name="dagger" unicode="&#x2020;" horiz-adv-x="366" 
d="M169 0l-6 466l-116 6v24l116 6l6 186h25l6 -186l119 -6v-24l-119 -6l-6 -466h-25z" />
    <glyph glyph-name="daggerdbl" unicode="&#x2021;" horiz-adv-x="366" 
d="M169 0l-6 186l-116 6v24l116 6v244l-116 6v24l116 6l6 186h25l6 -186l119 -6v-24l-119 -6v-244l119 -6v-24l-119 -6l-6 -186h-25z" />
    <glyph glyph-name="bullet" unicode="&#x2022;" horiz-adv-x="324" 
d="M251 280.5q-5 -17.5 -24 -24t-66 -6.5q-46 0 -64.5 6.5t-23.5 24t-5 61.5q0 45 5 63.5t23.5 25t64.5 6.5q47 0 66 -6.5t24 -25t5 -63.5q0 -44 -5 -61.5z" />
    <glyph glyph-name="ellipsis" unicode="&#x2026;" horiz-adv-x="504" 
d="M61 0v65h46v-65h-46zM229 0v65h47v-65h-47zM397 0v65h47v-65h-47z" />
    <glyph glyph-name="perthousand" unicode="&#x2030;" horiz-adv-x="825" 
d="M92 372.5q-21 12.5 -28 46t-7 109.5q0 75 7 109t28 46.5t69 12.5t69.5 -12.5t28 -46t6.5 -109.5t-6.5 -109.5t-28 -46t-69.5 -12.5t-69 12.5zM70 0l399 688h37l-398 -688h-38zM209 399q13 7 18 34t5 95q0 70 -4 95.5t-17.5 32.5t-49.5 7q-35 0 -48.5 -7t-18 -33.5
t-4.5 -94.5q0 -69 4.5 -95.5t18 -33.5t48.5 -7t48 7zM347 4.5q-21 12.5 -28 46t-7 109.5q0 75 7 109t28 46.5t69 12.5t69.5 -12.5t28 -46t6.5 -109.5t-6.5 -109.5t-28 -46t-69.5 -12.5t-69 12.5zM595 4.5q-21 12.5 -28 46t-7 109.5q0 75 7 109t28 46.5t69 12.5t69.5 -12.5
t28 -46t6.5 -109.5t-6.5 -109.5t-28 -46t-69.5 -12.5t-69 12.5zM464 31.5q13 6.5 18 33.5t5 95q0 70 -4 96t-17.5 33t-49.5 7q-35 0 -48.5 -7t-18 -33.5t-4.5 -95.5t4.5 -95.5t18 -33t48.5 -6.5t48 6.5zM712 31.5q13 6.5 18 33.5t5 95q0 70 -4 96t-17.5 33t-49.5 7
q-35 0 -48.5 -7t-18 -33.5t-4.5 -95.5t4.5 -95.5t18 -33t48.5 -6.5t48 6.5z" />
    <glyph glyph-name="minute" unicode="&#x2032;" horiz-adv-x="153" 
d="M48 394l18 294h39l-9 -149l-25 -145h-23z" />
    <glyph glyph-name="second" unicode="&#x2033;" horiz-adv-x="271" 
d="M167 394l18 294h39l-9 -149l-25 -145h-23zM48 394l18 294h39l-9 -149l-25 -145h-23z" />
    <glyph glyph-name="guilsinglleft" unicode="&#x2039;" horiz-adv-x="265" 
d="M164 99l-115 205l115 206h31l-104 -206l104 -205h-31z" />
    <glyph glyph-name="guilsinglright" unicode="&#x203a;" horiz-adv-x="265" 
d="M70 99l103 205l-103 206h30l116 -206l-116 -205h-30z" />
    <glyph glyph-name="exclamdbl" unicode="&#x203c;" horiz-adv-x="359" 
d="M248 541v147h38v-147q0 -125 -5 -368h-28q-5 243 -5 368zM243 0v65h47v-65h-47zM74 541v147h38v-147q0 -125 -5 -368h-28q-5 243 -5 368zM69 0v65h47v-65h-47z" />
    <glyph glyph-name="fraction" unicode="&#x2044;" horiz-adv-x="124" 
d="M-152 0l390 688h39l-391 -688h-38z" />
    <glyph glyph-name="Euro" unicode="&#x20ac;" horiz-adv-x="540" 
d="M210.5 9.5q-45.5 17.5 -66 71.5t-24.5 171h-79v34h78v119h-78v34h79q5 114 25.5 167.5t66 71.5t139.5 18q32 0 68.5 -3.5t59.5 -8.5v-32q-55 10 -120 10q-88 0 -127.5 -14.5t-56 -60t-19.5 -148.5h279v-34h-280v-119h280v-34h-279q3 -104 19.5 -150.5t56 -61t127.5 -14.5
q67 0 124 10v-34q-58 -10 -132 -10q-95 0 -140.5 17.5z" />
    <glyph glyph-name="uni20B2" unicode="&#x20b2;" horiz-adv-x="546" 
d="M470 358v-59q0 -103 -9.5 -146t-44.5 -61t-119 -20v-80h-34v80q-82 1 -120 21t-52 75.5t-14 175.5q0 118 14.5 173.5t53 76t118.5 22.5v80h34v-80q38 -1 81 -6t73 -12v-32q-38 7 -80.5 11.5t-70.5 4.5h-3v-224h173zM123 190.5q10 -47.5 40.5 -65t99.5 -19.5v476
q-67 -2 -96.5 -17.5t-41.5 -63.5t-12 -157q0 -106 10 -153.5zM435 324h-138v-218q68 1 95.5 14.5t35 50.5t7.5 130v23z" />
    <glyph glyph-name="uni2113" unicode="&#x2113;" horiz-adv-x="401" 
d="M280.5 43q29.5 16 67.5 51v-42q-32 -29 -63 -44t-64 -15q-57 0 -84.5 43t-36.5 148q-35 -18 -66 -24v36q32 8 64 26q-2 60 -2 101q0 130 12.5 210.5t43 121t84.5 40.5q53 0 79 -32t26 -90q0 -59 -24 -129.5t-71 -135t-111 -104.5q6 -99 26.5 -138t62.5 -39q27 0 56.5 16z
M173 624q-23 -37 -32 -110t-9 -190q0 -56 1 -80q54 38 93 95.5t59 119t20 113.5q0 89 -68 89q-41 0 -64 -37z" />
    <glyph glyph-name="uni2116" unicode="&#x2116;" horiz-adv-x="934" 
d="M670 409q-23 12 -29.5 41.5t-6.5 95.5q0 67 6.5 96.5t29.5 41.5t76 12q52 0 74.5 -12t29 -41.5t6.5 -96.5t-6.5 -96t-29 -41t-74.5 -12q-53 0 -76 12zM502 0l-364 613h-4v-613h-35v688h37l365 -613h4v613h35v-688h-38zM799.5 437q15.5 9 19 31t3.5 78t-3.5 78t-19 31.5
t-53.5 9.5q-39 0 -55 -9.5t-19.5 -31.5t-3.5 -78t3.5 -78t19.5 -31t55 -9q38 0 53.5 9zM636 237v32h216v-32h-216z" />
    <glyph glyph-name="trademark" unicode="&#x2122;" horiz-adv-x="628" 
d="M122 384v283h-86v21h195v-21h-87v-283h-22zM285 384v304h28l102 -265h4l101 265h28v-304h-23v249h-4l-95 -249h-20l-96 248h-4v-248h-21z" />
    <glyph glyph-name="uni2126" unicode="&#x2126;" horiz-adv-x="631" 
d="M81 34h3l104 -8v6q-49 16 -72 56t-30 101t-7 169q0 151 13.5 217t62 93.5t161.5 27.5t161.5 -27.5t62 -93.5t13.5 -217q0 -107 -7 -168.5t-30.5 -101.5t-72.5 -56v-6l104 8h3v-34h-186v29q70 13 101.5 43.5t41.5 92.5t10 193q0 146 -12.5 205.5t-52 79t-136.5 19.5
t-136.5 -19.5t-52 -79t-12.5 -205.5q0 -131 9.5 -192.5t41 -92.5t101.5 -44v-29h-186v34z" />
    <glyph glyph-name="estimated" unicode="&#x212e;" horiz-adv-x="628" 
d="M127 114.5q13 -58.5 51 -73.5t136 -15q84 0 120.5 9t54.5 45t23 120h36q-5 -92 -25.5 -135t-66.5 -58t-142 -15q-115 0 -162 23.5t-61 92t-14 236.5t14 236.5t61 92t162 23.5t162 -23.5t61 -92t14 -236.5v-21h-438q1 -150 14 -208.5zM177.5 646.5
q-37.5 -15.5 -50.5 -75.5t-14 -214h402q-1 155 -14 214.5t-50.5 75t-136.5 15.5t-136.5 -15.5z" />
    <glyph glyph-name="uni2153" unicode="&#x2153;" horiz-adv-x="682" 
d="M104 319v326l-66 -35v33l74 45h25v-369h-33zM58 0l390 688h39l-391 -688h-38zM489 24q45 0 66.5 14.5t21.5 57.5q0 40 -14 58t-46 18h-68v31h68q23 0 40 15.5t17 54.5q0 43 -20.5 57.5t-68.5 14.5q-39 0 -90 -8v31q52 9 95 9q66 0 91.5 -23t25.5 -80q0 -59 -44 -83v-4
q49 -21 49 -87q0 -38 -9.5 -61t-36.5 -35t-77 -12q-40 0 -96 9v31q72 -8 96 -8z" />
    <glyph glyph-name="uni2154" unicode="&#x2154;" horiz-adv-x="750" 
d="M275 319h-218v39q0 47 2 66t12 31t34 24l99 49q22 11 29.5 26t7.5 44q0 28 -6.5 41.5t-22 18.5t-47.5 5q-18 0 -102 -7v32q54 8 106 8q36 0 57.5 -6t35 -26t13.5 -61q0 -45 -13 -66t-49 -39l-12 -6t-11 -5q-15 -8 -34.5 -17.5t-41.5 -21.5q-18 -9 -22 -21t-4 -49v-26h187
v-33zM554 688h38l-390 -688h-39zM679 100q0 -38 -9.5 -61t-36 -35t-76.5 -12q-42 0 -96 9v31q72 -8 96 -8q45 0 66.5 14.5t21.5 57.5q0 40 -14.5 58t-46.5 18h-68v31h68q23 0 40 15.5t17 54.5q0 43 -20 57.5t-68 14.5q-40 0 -90 -8v31q52 9 95 9q66 0 91.5 -23t25.5 -80
q0 -59 -45 -83v-4q49 -20 49 -87z" />
    <glyph glyph-name="oneeighth" unicode="&#x215b;" horiz-adv-x="703" 
d="M104 319v326l-66 -35v33l74 45h25v-369h-33zM58 0l390 688h39l-391 -688h-38zM415.5 7q-28.5 11 -39 33t-10.5 60q0 46 15 64.5t49 26.5v2q-32 6 -46.5 27t-14.5 62q0 54 28 76.5t102 22.5q51 0 79.5 -10t40 -31t11.5 -58q0 -41 -14.5 -62t-46.5 -27v-2q34 -8 49 -26.5
t15 -64.5q0 -38 -10.5 -60t-39.5 -33t-84 -11t-83.5 11zM558.5 212q20.5 6 28.5 21.5t8 44.5q0 30 -7.5 45t-28 21t-60.5 6t-60 -6t-27.5 -21t-7.5 -45q0 -29 8 -44.5t28 -21.5t59 -6t59.5 6zM559.5 32.5q20.5 5.5 29.5 21.5t9 47q0 33 -8 48t-28.5 20.5t-62.5 5.5t-62 -5.5
t-28 -20.5t-8 -48q0 -31 9 -47t29.5 -21.5t59.5 -5.5q40 0 60.5 5.5z" />
    <glyph glyph-name="threeeighths" unicode="&#x215c;" horiz-adv-x="778" 
d="M29 312v30q51 -6 99 -6q54 0 77.5 13.5t23.5 58.5q0 41 -17 58t-56 17h-68v32h68q31 0 50 15.5t19 55.5q0 31 -10 46t-31.5 20t-60.5 5q-49 0 -92 -6v30q45 8 102 8q72 0 99.5 -22t27.5 -77q0 -40 -15.5 -61t-45.5 -28v-2q32 -6 48.5 -26.5t16.5 -64.5q0 -36 -10.5 -58.5
t-39.5 -34t-82 -11.5q-55 0 -103 8zM153 0l390 688h39l-391 -688h-38zM519.5 7q-28.5 11 -39 33t-10.5 60q0 46 15 64.5t49 26.5v2q-32 6 -46.5 27t-14.5 62q0 54 28 76.5t102 22.5q51 0 79.5 -10t40 -31t11.5 -58q0 -41 -14.5 -62t-46.5 -27v-2q34 -8 49 -26.5t15 -64.5
q0 -38 -10.5 -60t-39.5 -33t-84 -11t-83.5 11zM662.5 212q20.5 6 28.5 21.5t8 44.5q0 30 -7.5 45t-28 21t-60.5 6t-60 -6t-27.5 -21t-7.5 -45q0 -29 8 -44.5t28 -21.5t59 -6t59.5 6zM663.5 32.5q20.5 5.5 29.5 21.5t9 47q0 33 -8 48t-28.5 20.5t-62.5 5.5t-62 -5.5
t-28 -20.5t-8 -48q0 -31 9 -47t29.5 -21.5t59.5 -5.5q40 0 60.5 5.5z" />
    <glyph glyph-name="fiveeighths" unicode="&#x215d;" horiz-adv-x="789" 
d="M142 336q43 0 64.5 7t29.5 24.5t8 50.5q0 36 -9 52.5t-31.5 22t-70.5 5.5q-27 0 -86 -7v194h206v-32h-172v-129q30 6 79 6q51 0 76.5 -11.5t34 -34t8.5 -61.5q0 -46 -11 -71t-39.5 -36.5t-81.5 -11.5q-57 0 -103 8v30q49 -6 98 -6zM164 0l390 688h39l-391 -688h-38z
M530.5 7q-28.5 11 -39 33t-10.5 60q0 46 15 64.5t49 26.5v2q-32 6 -46.5 27t-14.5 62q0 54 28 76.5t102 22.5q51 0 79.5 -10t40 -31t11.5 -58q0 -41 -14.5 -62t-46.5 -27v-2q34 -8 49 -26.5t15 -64.5q0 -38 -10.5 -60t-39.5 -33t-84 -11t-83.5 11zM673.5 212
q20.5 6 28.5 21.5t8 44.5q0 30 -7.5 45t-28 21t-60.5 6t-60 -6t-27.5 -21t-7.5 -45q0 -29 8 -44.5t28 -21.5t59 -6t59.5 6zM674.5 32.5q20.5 5.5 29.5 21.5t9 47q0 33 -8 48t-28.5 20.5t-62.5 5.5t-62 -5.5t-28 -20.5t-8 -48q0 -31 9 -47t29.5 -21.5t59.5 -5.5
q40 0 60.5 5.5z" />
    <glyph glyph-name="seveneighths" unicode="&#x215e;" horiz-adv-x="717" 
d="M75 308l148 345h-201v32h239v-28l-148 -349h-38zM92 0l390 688h39l-391 -688h-38zM458.5 7q-28.5 11 -39 33t-10.5 60q0 46 15 64.5t49 26.5v2q-32 6 -46.5 27t-14.5 62q0 54 28 76.5t102 22.5q51 0 79.5 -10t40 -31t11.5 -58q0 -41 -14.5 -62t-46.5 -27v-2
q34 -8 49 -26.5t15 -64.5q0 -38 -10.5 -60t-39.5 -33t-84 -11t-83.5 11zM601.5 212q20.5 6 28.5 21.5t8 44.5q0 30 -7.5 45t-28 21t-60.5 6t-60 -6t-27.5 -21t-7.5 -45q0 -29 8 -44.5t28 -21.5t59 -6t59.5 6zM602.5 32.5q20.5 5.5 29.5 21.5t9 47q0 33 -8 48t-28.5 20.5
t-62.5 5.5t-62 -5.5t-28 -20.5t-8 -48q0 -31 9 -47t29.5 -21.5t59.5 -5.5q40 0 60.5 5.5z" />
    <glyph glyph-name="arrowleft" unicode="&#x2190;" horiz-adv-x="883" 
d="M257 287l43 -95l-245 112l245 113l-43 -96h571v-34h-571z" />
    <glyph glyph-name="arrowup" unicode="&#x2191;" horiz-adv-x="395" 
d="M181 -81v559l-96 -42l113 255l112 -255l-95 42v-559h-34z" />
    <glyph glyph-name="arrowright" unicode="&#x2192;" horiz-adv-x="883" 
d="M573 192l42 95h-560v34h560l-42 96l255 -113z" />
    <glyph glyph-name="arrowdown" unicode="&#x2193;" horiz-adv-x="395" 
d="M198 -85l-113 255l96 -43v561h34v-561l95 43z" />
    <glyph glyph-name="arrowboth" unicode="&#x2194;" horiz-adv-x="883" 
d="M310 192l-255 112l255 113l-43 -96h348l-42 96l255 -113l-255 -112l42 95h-348z" />
    <glyph glyph-name="arrowupdn" unicode="&#x2195;" horiz-adv-x="395" 
d="M198 -85l-113 255l96 -43v356l-96 -42l113 255l112 -255l-95 42v-356l95 43z" />
    <glyph glyph-name="arrowupdnbse" unicode="&#x21a8;" horiz-adv-x="395" 
d="M198 -85l-113 255l96 -43v356l-96 -42l113 255l112 -255l-95 42v-356l95 43zM55 -163v34h285v-34h-285z" />
    <glyph glyph-name="partialdiff" unicode="&#x2202;" horiz-adv-x="513" 
d="M126 12.5q-39 20.5 -50 71.5t-11 170q0 120 11 171.5t50 72t131 20.5q86 0 129 -36l5 2q-23 78 -58.5 140t-95.5 115v4h42q63 -52 106.5 -144t53.5 -177q9 -86 9 -143q0 -134 -9.5 -188t-48 -76.5t-133.5 -22.5q-92 0 -131 20.5zM367.5 41.5q31.5 17.5 38.5 60t7 152.5
q0 95 -7.5 139t-40.5 68.5t-108 24.5q-80 0 -111.5 -17t-38.5 -60t-7 -155q0 -110 7 -152.5t39 -60t111 -17.5t110.5 17.5z" />
    <glyph glyph-name="uni2206" unicode="&#x2206;" horiz-adv-x="590" 
d="M33 0l244 688h37l243 -688h-524zM298 630h-5l-210 -596h424z" />
    <glyph glyph-name="product" unicode="&#x220f;" horiz-adv-x="638" 
d="M504 -190v844h-370v-844h-35v878h441v-878h-36z" />
    <glyph glyph-name="summation" unicode="&#x2211;" horiz-adv-x="618" 
d="M89 -190v30l281 409l-281 409v30h441v-34h-397l281 -405l-281 -405h397v-34h-441z" />
    <glyph glyph-name="minus" unicode="&#x2212;" horiz-adv-x="514" 
d="M67 237v32h380v-32h-380z" />
    <glyph glyph-name="radical" unicode="&#x221a;" horiz-adv-x="508" 
d="M254 -106l-165 378l-54 -24l-12 30l86 39l161 -375l187 828h36l-199 -876h-40z" />
    <glyph glyph-name="infinity" unicode="&#x221e;" horiz-adv-x="918" 
d="M136 79.5q-41 22.5 -57 65.5t-16 111t16 111t57 65.5t115 22.5q87 0 133 -38t76 -107q29 69 75.5 107t133.5 38q74 0 114.5 -22.5t56 -65.5t15.5 -111q0 -69 -15.5 -111.5t-56 -65t-114.5 -22.5q-88 0 -134 38t-75 107q-30 -69 -76 -107t-133 -38q-74 0 -115 22.5z
M375.5 134q42.5 45 65.5 122q-23 77 -65.5 122t-124.5 45q-61 0 -94.5 -19.5t-46 -55.5t-12.5 -92t12.5 -92t46 -55.5t94.5 -19.5q82 0 124.5 45zM763 108.5q33 19.5 45 55t12 92.5t-12 92.5t-45 55t-94 19.5q-83 0 -125.5 -45t-64.5 -122q22 -77 64.5 -122t125.5 -45
q61 0 94 19.5z" />
    <glyph glyph-name="integral" unicode="&#x222b;" horiz-adv-x="359" 
d="M73 -160q59 0 80.5 11.5t21.5 44.5l-4 79l-36 594l-1 38q0 39 16.5 58.5t45 25t76.5 5.5v-30q-59 0 -80.5 -11.5t-21.5 -44.5l2 -41l34 -591l4 -79q0 -40 -16 -59t-44 -24.5t-77 -5.5v30z" />
    <glyph glyph-name="approxequal" unicode="&#x2248;" horiz-adv-x="466" 
d="M83 369q12 20 50 20q21 0 41.5 -5.5t40.5 -12.5t29 -10q28 -11 49 -17t40 -6q21 0 28 13.5t7 48.5h27q0 -55 -12 -75t-50 -20q-25 0 -50.5 7t-58.5 21q-29 11 -50 17t-41 6q-21 0 -28 -13.5t-7 -48.5h-27q0 55 12 75zM83 185q12 20 50 20q25 0 48 -6.5t63 -21.5
q5 -2 24 -8.5t35.5 -10.5t29.5 -4q21 0 28 13.5t7 48.5h27q0 -55 -12 -75t-50 -20q-24 0 -47 6.5t-63 21.5q-28 11 -49 17t-41 6q-21 0 -28 -13.5t-7 -48.5h-27q0 55 12 75z" />
    <glyph glyph-name="notequal" unicode="&#x2260;" horiz-adv-x="514" 
d="M218 142l-64 -132h-36l64 132h-115v32h131l76 158h-207v32h223l66 136h36l-66 -136h121v-32h-137l-76 -158h213v-32h-229z" />
    <glyph glyph-name="lessequal" unicode="&#x2264;" horiz-adv-x="515" 
d="M448 180l-380 173v50l380 173v-37l-354 -161l354 -161v-37zM67 15v32h381v-32h-381z" />
    <glyph glyph-name="greaterequal" unicode="&#x2265;" horiz-adv-x="515" 
d="M67 180v37l353 161l-353 161v37l380 -173v-50zM67 15v32h380v-32h-380z" />
    <glyph glyph-name="house" unicode="&#x2302;" horiz-adv-x="634" 
d="M49 0v391l250 304h37l250 -304v-391h-537zM85 33h465v348l-233 281l-232 -281v-348z" />
    <glyph glyph-name="lozenge" unicode="&#x25ca;" horiz-adv-x="487" 
d="M220 0l-162 344l162 345h47l162 -345l-162 -344h-47zM243 30l149 314l-149 315l-148 -315z" />
    <glyph glyph-name="uniA78B" unicode="&#xa78b;" horiz-adv-x="96" 
d="M29 294v394h39v-178l-16 -216h-23z" />
    <glyph glyph-name="uniA78C" unicode="&#xa78c;" horiz-adv-x="96" 
d="M29 294v449h39v-233l-16 -216h-23z" />
    <glyph glyph-name="uniF8FF" unicode="&#xf8ff;" horiz-adv-x="841" 
d="M72 0v698h697v-698h-697zM594.5 473.5q-23.5 41.5 -68 65.5t-104.5 24q-61 0 -105.5 -24t-68.5 -65.5t-24 -91.5v-66q0 -50 24 -91.5t68.5 -65.5t105.5 -24q60 0 104.5 24t68 65.5t23.5 91.5v66q0 50 -23.5 91.5zM465 247.5q-18 -17.5 -43 -17.5q-26 0 -44 17.5t-18 42.5
v118q0 25 18 42.5t44 17.5q25 0 43 -17.5t18 -42.5v-118q0 -25 -18 -42.5z" />
    <glyph glyph-name="Iacute_J.loclNLD" horiz-adv-x="512" 
d="M100 0v688h36v-688h-36zM100 750v5l83 133h44v-5l-101 -133h-26zM352 46.5q22 10.5 28 47.5t6 145v449h36v-437q0 -129 -8.5 -175.5t-37.5 -60t-110 -15.5v34q64 2 86 12.5zM386 750v5l83 133h44v-5l-101 -133h-26z" />
    <glyph glyph-name="G_tilde.loclGUA" horiz-adv-x="587" 
d="M305 315v34h200v-340q-42 -8 -93 -12.5t-90 -4.5q-108 0 -157.5 24t-68.5 96.5t-19 231.5q0 158 19 230.5t68.5 97t157.5 24.5q43 0 94.5 -5t86.5 -13v-32q-39 7 -83 11.5t-72 4.5q-110 0 -154 -16t-62.5 -80.5t-18.5 -221.5q0 -146 13.5 -209.5t55.5 -86t139 -22.5
q31 0 75 3.5t73 8.5v277h-164zM435 813q-11 -20 -46 -20q-23 0 -46.5 7t-56.5 20q-56 24 -87 24q-19 0 -25 -13.5t-6 -48.5h-27q0 54 11.5 74.5t46.5 20.5q23 0 45.5 -7t58.5 -21q28 -11 48 -17t38 -6q19 0 24.5 13t5.5 49h27q0 -55 -11 -75z" />
    <glyph glyph-name="Y.loclGUA" horiz-adv-x="511" 
d="M476 688v-184q0 -128 -12.5 -187.5t-54.5 -86t-135 -28.5v-202h-36v202q-93 2 -135.5 28.5t-55 86t-12.5 187.5v184h36v-214q0 -106 11 -152.5t49 -66t125 -19.5t125 19.5t48.5 66t10.5 152.5v214h36z" />
    <glyph glyph-name="Yacute.loclGUA" horiz-adv-x="511" 
d="M476 688v-184q0 -128 -12.5 -187.5t-54.5 -86t-135 -28.5v-202h-36v202q-93 2 -135.5 28.5t-55 86t-12.5 187.5v184h36v-214q0 -106 11 -152.5t49 -66t125 -19.5t125 19.5t48.5 66t10.5 152.5v214h36zM237 750v5l83 133h44v-5l-101 -133h-26z" />
    <glyph glyph-name="Ycircumflex.loclGUA" horiz-adv-x="511" 
d="M476 688v-184q0 -128 -12.5 -187.5t-54.5 -86t-135 -28.5v-202h-36v202q-93 2 -135.5 28.5t-55 86t-12.5 187.5v184h36v-214q0 -106 11 -152.5t49 -66t125 -19.5t125 19.5t48.5 66t10.5 152.5v214h36zM138 750v5l94 133h46l94 -133v-5h-27l-90 108l-90 -108h-27z" />
    <glyph glyph-name="Ydieresis.loclGUA" horiz-adv-x="511" 
d="M476 688v-184q0 -128 -12.5 -187.5t-54.5 -86t-135 -28.5v-202h-36v202q-93 2 -135.5 28.5t-55 86t-12.5 187.5v184h36v-214q0 -106 11 -152.5t49 -66t125 -19.5t125 19.5t48.5 66t10.5 152.5v214h36zM145 815v61h42v-61h-42zM322 815v61h42v-61h-42z" />
    <glyph glyph-name="uni1EF4.loclGUA" horiz-adv-x="511" 
d="M476 688v-184q0 -128 -12.5 -187.5t-54.5 -86t-135 -28.5v-202h-36v202q-93 2 -135.5 28.5t-55 86t-12.5 187.5v184h36v-214q0 -106 11 -152.5t49 -66t125 -19.5t125 19.5t48.5 66t10.5 152.5v214h36zM232 -127v65h46v-65h-46z" />
    <glyph glyph-name="Ygrave.loclGUA" horiz-adv-x="511" 
d="M476 688v-184q0 -128 -12.5 -187.5t-54.5 -86t-135 -28.5v-202h-36v202q-93 2 -135.5 28.5t-55 86t-12.5 187.5v184h36v-214q0 -106 11 -152.5t49 -66t125 -19.5t125 19.5t48.5 66t10.5 152.5v214h36zM251 750l-101 133v5h44l83 -133v-5h-26z" />
    <glyph glyph-name="uni1EF6.loclGUA" horiz-adv-x="511" 
d="M476 688v-184q0 -128 -12.5 -187.5t-54.5 -86t-135 -28.5v-202h-36v202q-93 2 -135.5 28.5t-55 86t-12.5 187.5v184h36v-214q0 -106 11 -152.5t49 -66t125 -19.5t125 19.5t48.5 66t10.5 152.5v214h36zM215 743q0 21 8.5 30t31.5 16l21 5q34 9 44 17.5t10 29.5
q0 19 -7.5 27.5t-25 11t-56.5 2.5q-24 0 -92 -4v26q62 6 99 6q44 0 67.5 -5.5t34 -19.5t10.5 -40q0 -30 -8.5 -44t-41.5 -24l-23 -6q-22 -6 -30.5 -10t-10.5 -9.5t-2 -18.5h-29v10z" />
    <glyph glyph-name="uni0232.loclGUA" horiz-adv-x="511" 
d="M476 688v-184q0 -128 -12.5 -187.5t-54.5 -86t-135 -28.5v-202h-36v202q-93 2 -135.5 28.5t-55 86t-12.5 187.5v184h36v-214q0 -106 11 -152.5t49 -66t125 -19.5t125 19.5t48.5 66t10.5 152.5v214h36zM151 851v36h206v-36h-206z" />
    <glyph glyph-name="uni1EF8.loclGUA" horiz-adv-x="511" 
d="M476 688v-184q0 -128 -12.5 -187.5t-54.5 -86t-135 -28.5v-202h-36v202q-93 2 -135.5 28.5t-55 86t-12.5 187.5v184h36v-214q0 -106 11 -152.5t49 -66t125 -19.5t125 19.5t48.5 66t10.5 152.5v214h36zM396 813q-11 -20 -46 -20q-23 0 -46.5 7t-56.5 20q-56 24 -87 24
q-19 0 -25 -13.5t-6 -48.5h-27q0 54 11.5 74.5t46.5 20.5q23 0 45.5 -7t58.5 -21q28 -11 48 -17t38 -6q19 0 24.5 13t5.5 49h27q0 -55 -11 -75z" />
    <glyph glyph-name="Cacute.loclPLK" horiz-adv-x="493" 
d="M309 -8q-106 0 -152 23t-63 94.5t-17 234.5q0 161 17 232.5t63.5 95.5t151.5 24q32 0 68.5 -3.5t59.5 -8.5v-32q-55 10 -120 10q-99 0 -138.5 -19.5t-52.5 -82t-13 -216.5t13 -216.5t52.5 -82t138.5 -19.5q67 0 124 10v-34q-58 -10 -132 -10zM228 750v5l43 133h44v-5
l-61 -133h-26z" />
    <glyph glyph-name="Nacute.loclPLK" horiz-adv-x="638" 
d="M502 0l-364 613h-4v-613h-35v688h37l365 -613h4v613h35v-688h-38zM301 750v5l43 133h44v-5l-61 -133h-26z" />
    <glyph glyph-name="Oacute.loclPLK" horiz-adv-x="628" 
d="M152 15.5q-47 23.5 -61 92t-14 236.5t14 236.5t61 92t162 23.5t162 -23.5t61 -92t14 -236.5t-14 -236.5t-61 -92t-162 -23.5t-162 23.5zM452.5 42q37.5 16 50 78t12.5 224t-12.5 224t-50 78t-138.5 16q-100 0 -138 -16t-50.5 -78t-12.5 -224t12.5 -224t50.5 -78t138 -16
q101 0 138.5 16zM296 750v5l43 133h44v-5l-61 -133h-26z" />
    <glyph glyph-name="Sacute.loclPLK" horiz-adv-x="544" 
d="M179 -4.5q-56 3.5 -96 8.5v35q43 -5 97.5 -9t90.5 -4q50 0 79.5 5t53.5 21q23 14 31 46.5t8 84.5q0 69 -5.5 94t-26.5 36t-79 18l-157 19q-52 6 -75.5 26.5t-29 50.5t-5.5 88q0 70 21 109.5t66 55.5t122 16q50 0 99 -3.5t75 -9.5v-33q-35 5 -83 8.5t-87 3.5
q-55 0 -89.5 -8t-54.5 -25q-19 -17 -26 -45t-7 -71q0 -53 6 -77.5t23.5 -35.5t55.5 -16l148 -18q44 -5 69 -11.5t42.5 -20.5t25.5 -41q5 -16 6.5 -38t1.5 -67q0 -80 -21 -122.5t-62.5 -58t-113.5 -15.5q-47 0 -103 3.5zM254 750v5l43 133h44v-5l-61 -133h-26z" />
    <glyph glyph-name="Zacute.loclPLK" horiz-adv-x="513" 
d="M47 0v32l372 622h-362v34h405v-32l-371 -622h378v-34h-422zM239 750v5l43 133h44v-5l-61 -133h-26z" />
    <glyph glyph-name="A.ss01" horiz-adv-x="621" 
d="M495 274h-369v-274h-36v394q0 132 13.5 192t59 85t147.5 25q103 0 148.5 -25t59 -85t13.5 -192v-394h-36v274zM484 576.5q-11 46.5 -49 66t-125 19.5t-125 -19.5t-48.5 -66t-10.5 -152.5v-116h369v116q0 106 -11 152.5z" />
    <glyph glyph-name="Aacute.ss01" horiz-adv-x="621" 
d="M495 274h-369v-274h-36v394q0 132 13.5 192t59 85t147.5 25q103 0 148.5 -25t59 -85t13.5 -192v-394h-36v274zM484 576.5q-11 46.5 -49 66t-125 19.5t-125 -19.5t-48.5 -66t-10.5 -152.5v-116h369v116q0 106 -11 152.5zM283 750v5l83 133h44v-5l-101 -133h-26z" />
    <glyph glyph-name="Abreve.ss01" horiz-adv-x="621" 
d="M495 274h-369v-274h-36v394q0 132 13.5 192t59 85t147.5 25q103 0 148.5 -25t59 -85t13.5 -192v-394h-36v274zM484 576.5q-11 46.5 -49 66t-125 19.5t-125 -19.5t-48.5 -66t-10.5 -152.5v-116h369v116q0 106 -11 152.5zM421 808.5q-6 -27.5 -31 -44.5t-80 -17t-80 17
t-30.5 44.5t-5.5 79.5h32q0 -45 4 -67t22 -34t58 -12t58.5 12t22.5 34t4 67h32q0 -52 -6 -79.5z" />
    <glyph glyph-name="uni1EAE.ss01" horiz-adv-x="621" 
d="M495 274h-369v-274h-36v394q0 132 13.5 192t59 85t147.5 25q103 0 148.5 -25t59 -85t13.5 -192v-394h-36v274zM484 576.5q-11 46.5 -49 66t-125 19.5t-125 -19.5t-48.5 -66t-10.5 -152.5v-116h369v116q0 106 -11 152.5zM418 808.5q-6 -27.5 -31 -44.5t-80 -17t-80 17
t-30.5 44.5t-5.5 79.5h32q0 -45 4 -67t22 -34t58 -12t58.5 12t22.5 34t4 67h32q0 -52 -6 -79.5zM293 923v5l83 133h44v-5l-101 -133h-26z" />
    <glyph glyph-name="uni1EB6.ss01" horiz-adv-x="621" 
d="M495 274h-369v-274h-36v394q0 132 13.5 192t59 85t147.5 25q103 0 148.5 -25t59 -85t13.5 -192v-394h-36v274zM484 576.5q-11 46.5 -49 66t-125 19.5t-125 -19.5t-48.5 -66t-10.5 -152.5v-116h369v116q0 106 -11 152.5zM421 808.5q-6 -27.5 -31 -44.5t-80 -17t-80 17
t-30.5 44.5t-5.5 79.5h32q0 -45 4 -67t22 -34t58 -12t58.5 12t22.5 34t4 67h32q0 -52 -6 -79.5zM288 -127v65h46v-65h-46z" />
    <glyph glyph-name="uni1EB0.ss01" horiz-adv-x="621" 
d="M495 274h-369v-274h-36v394q0 132 13.5 192t59 85t147.5 25q103 0 148.5 -25t59 -85t13.5 -192v-394h-36v274zM484 576.5q-11 46.5 -49 66t-125 19.5t-125 -19.5t-48.5 -66t-10.5 -152.5v-116h369v116q0 106 -11 152.5zM421 808.5q-6 -27.5 -31 -44.5t-80 -17t-80 17
t-30.5 44.5t-5.5 79.5h32q0 -45 4 -67t22 -34t58 -12t58.5 12t22.5 34t4 67h32q0 -52 -6 -79.5zM309 923l-101 133v5h44l83 -133v-5h-26z" />
    <glyph glyph-name="uni1EB2.ss01" horiz-adv-x="621" 
d="M495 274h-369v-274h-36v394q0 132 13.5 192t59 85t147.5 25q103 0 148.5 -25t59 -85t13.5 -192v-394h-36v274zM484 576.5q-11 46.5 -49 66t-125 19.5t-125 -19.5t-48.5 -66t-10.5 -152.5v-116h369v116q0 106 -11 152.5zM421 808.5q-6 -27.5 -31 -44.5t-80 -17t-80 17
t-30.5 44.5t-5.5 79.5h32q0 -45 4 -67t22 -34t58 -12t58.5 12t22.5 34t4 67h32q0 -52 -6 -79.5zM273 883q0 21 8.5 30t31.5 16l21 5q34 9 44 17.5t10 29.5q0 19 -7.5 27.5t-25 11t-56.5 2.5q-24 0 -92 -4v26q62 6 99 6q44 0 67.5 -5.5t34 -19.5t10.5 -40q0 -30 -8.5 -44
t-41.5 -24l-23 -6q-22 -6 -30.5 -10t-10.5 -9.5t-2 -18.5h-29v10z" />
    </font>
</defs>
</svg>
