<?xml version="1.0" standalone="no"?>
<!DOCTYPE svg PUBLIC "-//W3C//DTD SVG 1.1//EN" "http://www.w3.org/Graphics/SVG/1.1/DTD/svg11.dtd" >
<svg xmlns="http://www.w3.org/2000/svg" xmlns:xlink="http://www.w3.org/1999/xlink" version="1.1">
<metadata>
Created by FontForge 20201107 at Sat Dec  3 12:15:20 2016
 By 
Copyright 2016 The Saira Project Authors (omnibus.type@gmail.com), with reserved font name "Saira".
</metadata>
<defs>
<font id="SairaSemiCondensed-Black" horiz-adv-x="0" >
  <font-face 
    font-family="Saira SemiCondensed Black"
    font-weight="900"
    font-stretch="semi-condensed"
    units-per-em="1000"
    panose-1="0 0 10 6 0 0 0 0 0 0"
    ascent="800"
    descent="-200"
    x-height="510"
    cap-height="688"
    bbox="-563 -430 1087 1121"
    underline-thickness="50"
    underline-position="-100"
    unicode-range="U+000D-FB02"
  />
<missing-glyph horiz-adv-x="500" 
d="M0 0v700h500v-700h-500zM450 650h-400v-600h400v600zM229 278q0 29 13.5 48t40.5 41q28 23 42 43.5t14 54.5q0 31 -19 59t-70 28q-58 0 -78 -33.5t-20 -66.5v-28h-49q-4 14 -4 31q0 23 10.5 56t44 62t96.5 29t94.5 -28t40 -58t8.5 -49q0 -45 -18.5 -74t-48.5 -55
q-22 -18 -33 -33t-11 -37v-53h-53v63zM225 99v70h60v-70h-60z" />
    <glyph glyph-name="fi" unicode="fi" horiz-adv-x="669" 
d="M86 370h-71v140h71v11q0 110 20.5 154t75 55.5t193.5 11.5v-126q-50 0 -68 -3.5t-23.5 -16t-5.5 -46.5v-40h97v-140h-97v-370h-192v370zM436 598v145h193v-145h-193zM436 0v510h193v-510h-193z" />
    <glyph glyph-name="fl" unicode="fl" horiz-adv-x="669" 
d="M86 370h-71v140h71v11q0 110 20.5 154t75 55.5t193.5 11.5v-126q-50 0 -68 -3.5t-23.5 -16t-5.5 -46.5v-40h97v-140h-97v-370h-192v370zM436 0v743h193v-743h-193z" />
    <glyph glyph-name="f_f" unicode="ff" horiz-adv-x="794" 
d="M86 370h-71v140h71v11q0 110 20.5 154t75 55.5t193.5 11.5v-126q-50 0 -68 -3.5t-23.5 -16t-5.5 -46.5v-40h97v-140h-97v-370h-192v370zM483 370h-71v140h71v11q0 110 20.5 154t75 55.5t193.5 11.5v-126q-50 0 -68 -3.5t-23.5 -16t-5.5 -46.5v-40h97v-140h-97v-370h-192
v370z" />
    <glyph glyph-name=".notdef" horiz-adv-x="500" 
d="M0 0v700h500v-700h-500zM450 650h-400v-600h400v600zM229 278q0 29 13.5 48t40.5 41q28 23 42 43.5t14 54.5q0 31 -19 59t-70 28q-58 0 -78 -33.5t-20 -66.5v-28h-49q-4 14 -4 31q0 23 10.5 56t44 62t96.5 29t94.5 -28t40 -58t8.5 -49q0 -45 -18.5 -74t-48.5 -55
q-22 -18 -33 -33t-11 -37v-53h-53v63zM225 99v70h60v-70h-60z" />
    <glyph glyph-name=".null" 
 />
    <glyph glyph-name="nonmarkingreturn" unicode="&#xd;" horiz-adv-x="222" 
 />
    <glyph glyph-name="NULL" 
 />
    <glyph glyph-name="NULL" 
 />
    <glyph glyph-name="space" unicode=" " horiz-adv-x="222" 
 />
    <glyph glyph-name="exclam" unicode="!" horiz-adv-x="338" 
d="M77.5 518q-12.5 121 -12.5 145v25h221v-25q0 -25 -13 -147.5t-32 -273.5h-132q-19 155 -31.5 276zM77 0v161h197v-161h-197z" />
    <glyph glyph-name="quotedbl" unicode="&#x22;" horiz-adv-x="496" 
d="M75 421l-18 222v45h167v-45l-19 -222h-130zM290 421l-19 222v45h168v-45l-19 -222h-130z" />
    <glyph glyph-name="numbersign" unicode="#" horiz-adv-x="629" 
d="M302 0l30 170h-92l-30 -170h-123l30 170h-74v115h95l21 119h-87v115h109l31 169h123l-31 -169h92l31 169h123l-31 -169h77v-115h-99l-21 -119h90v-115h-111l-30 -170h-123zM374 404h-92l-21 -119h92z" />
    <glyph glyph-name="dollar" unicode="$" horiz-adv-x="475" 
d="M171 71q-74 6 -120 14v132q82 -6 123 -6q44 0 59.5 1.5t20.5 7t5 21.5t-5 20.5t-29 8.5l-59 9q-56 9 -83.5 30t-36.5 54.5t-9 91.5q0 77 34.5 113.5t99.5 46.5v81h139v-80q60 -3 102 -13v-133q-88 7 -118 7q-38 0 -53 -1.5t-19.5 -6.5t-4.5 -17q0 -13 1.5 -17.5t8 -7
t23.5 -5.5l66 -9q43 -6 68.5 -19.5t39.5 -47.5t14 -98q0 -89 -33 -128t-95 -48v-80h-139v79z" />
    <glyph glyph-name="percent" unicode="%" horiz-adv-x="840" 
d="M93 325.5q-30 14.5 -40 53t-10 124.5q0 87 10 125.5t40 53t97 14.5t97 -14.5t40 -53.5t10 -125t-10 -124.5t-40 -53t-97 -14.5t-97 14.5zM160 0l412 688h109l-412 -688h-109zM214 400.5q6 5.5 7.5 24.5t1.5 78t-1.5 78.5t-7.5 25t-24 5.5t-24 -5.5t-7.5 -25.5t-1.5 -78
q0 -57 1.5 -77t7.5 -25.5t24 -5.5t24 5.5zM553 6.5q-30 14.5 -40 53t-10 124.5t10 125t40 53.5t97 14.5t97.5 -14.5t40.5 -53.5t10 -125t-10 -124.5t-40.5 -53t-97.5 -14.5t-97 14.5zM674.5 81.5q6.5 5.5 8 25.5t1.5 77q0 58 -1.5 78t-8 25t-24.5 5t-24 -5t-7.5 -25
t-1.5 -78q0 -57 1.5 -77t7.5 -25.5t24 -5.5t24.5 5.5z" />
    <glyph glyph-name="ampersand" unicode="&#x26;" horiz-adv-x="646" 
d="M635 418v-141h-86v-263q-50 -10 -116.5 -16t-119.5 -6q-113 0 -175 22t-85 63t-23 106q0 81 27 116.5t86 49.5v4q-55 14 -81 52t-26 112q0 63 26 101.5t87.5 58t166.5 19.5q50 0 115.5 -6.5t114.5 -15.5v-133q-90 10 -193 10q-59 0 -82 -4t-31 -17t-8 -47q0 -32 4.5 -45
t15.5 -16.5t38 -3.5h20v-141h-20q-28 0 -41 -4t-18.5 -19t-5.5 -48t7 -47t26.5 -18.5t64.5 -4.5h34v282h278z" />
    <glyph glyph-name="quotesingle" unicode="'" horiz-adv-x="280" 
d="M75 421l-18 222v45h167v-45l-19 -222h-130z" />
    <glyph glyph-name="parenleft" unicode="(" horiz-adv-x="349" 
d="M104 -21.5q-28 46.5 -42 118t-14 200.5t14 202.5t44 122.5t93 121h128q-43 -65 -61.5 -105t-29.5 -118t-11 -223q0 -144 11 -222.5t29.5 -119t61.5 -105.5h-128q-67 82 -95 128.5z" />
    <glyph glyph-name="parenright" unicode=")" horiz-adv-x="349" 
d="M83 -44.5q19 40.5 30 118.5t11 223t-11 223t-30 118.5t-62 104.5h129q63 -72 92.5 -121t43.5 -122.5t14 -202.5t-14 -200.5t-42 -118t-94 -128.5h-129q43 65 62 105.5z" />
    <glyph glyph-name="asterisk" unicode="*" horiz-adv-x="434" 
d="M252 453l12 -113h-94l12 113l-94 -68l-48 82l105 46l-105 48l48 82l94 -68l-12 113h94l-12 -112l95 67l47 -82l-106 -48l106 -46l-47 -82z" />
    <glyph glyph-name="plus" unicode="+" horiz-adv-x="506" 
d="M184 63v121h-121v137h121v123h138v-123h122v-137h-122v-121h-138z" />
    <glyph glyph-name="comma" unicode="," horiz-adv-x="312" 
d="M101.5 -82.5q13.5 6.5 18 22t4.5 45.5v15h-67v161h197v-120q0 -86 -13 -127t-54 -59t-128 -18v74q29 0 42.5 6.5z" />
    <glyph glyph-name="hyphen" unicode="-" horiz-adv-x="341" 
d="M44 210v148h253v-148h-253z" />
    <glyph glyph-name="period" unicode="." horiz-adv-x="312" 
d="M57 0v161h197v-161h-197z" />
    <glyph glyph-name="slash" unicode="/" horiz-adv-x="396" 
d="M-2 -55l242 798h158l-242 -798h-158z" />
    <glyph glyph-name="zero" unicode="0" horiz-adv-x="570" 
d="M116.5 18.5q-50.5 26.5 -65.5 95.5t-15 230t15 230t65.5 95.5t168.5 26.5t168.5 -26.5t65.5 -95.5t15 -230t-15 -230t-65.5 -95.5t-168.5 -26.5t-168.5 26.5zM317 158.5q8 9.5 10 45t2 140.5t-2 140.5t-10 45t-32 9.5t-31.5 -9t-9.5 -44t-2 -142t2 -142t9.5 -44t31.5 -9
t32 9.5z" />
    <glyph glyph-name="one" unicode="1" horiz-adv-x="366" 
d="M114 0v484l-107 -42v161l168 85h146v-688h-207z" />
    <glyph glyph-name="two" unicode="2" horiz-adv-x="538" 
d="M237 194q-1 -15 -1 -35h263v-159h-462v98q0 94 4.5 139t23 75.5t61.5 49.5l120 55q23 10 31.5 16t12 17.5t3.5 35.5q0 25 -6 36t-20.5 14t-47.5 3q-56 0 -171 -12v148q44 9 106 15t115 6q73 0 121.5 -13.5t78.5 -57t30 -128.5q0 -93 -25 -137.5t-70 -63.5l-132 -58
q-14 -6 -20.5 -10t-9.5 -11q-4 -8 -5 -23z" />
    <glyph glyph-name="three" unicode="3" horiz-adv-x="530" 
d="M136.5 -2q-58.5 6 -102.5 15v146q105 -10 177 -10q37 0 51.5 3t20 14.5t5.5 39.5q0 31 -5 44t-16.5 17t-39.5 4h-99v153h99q28 0 39 4t14 15.5t3 39.5t-4.5 39t-20 14t-55.5 3q-78 0 -166 -11v147q44 9 102 15t103 6q91 0 145 -18.5t78 -57.5t24 -103q0 -74 -25.5 -112
t-80.5 -52v-4q40 -10 63.5 -27.5t36 -50.5t12.5 -88q0 -67 -22.5 -108.5t-78 -62t-153.5 -20.5q-46 0 -104.5 6z" />
    <glyph glyph-name="four" unicode="4" horiz-adv-x="568" 
d="M287 0v125h-266v139l163 424h217l-174 -406h68l61 132h134v-132h62v-157h-62v-125h-203z" />
    <glyph glyph-name="five" unicode="5" horiz-adv-x="547" 
d="M221 149q41 0 57.5 4t22 17.5t5.5 48.5q0 34 -5.5 48t-21.5 18.5t-56 4.5q-87 0 -164 -8v406h414v-159h-236v-90q38 6 91 6q104 0 144.5 -53t40.5 -159q0 -89 -21 -140t-75.5 -76t-156.5 -25q-45 0 -103 6t-104 15v145q99 -9 168 -9z" />
    <glyph glyph-name="six" unicode="6" horiz-adv-x="572" 
d="M181 1q-44 9 -74 35.5t-49 77.5q-22 57 -22 231q0 156 26 223q26 70 83 99t164 29q38 0 93 -6t105 -16v-146q-121 11 -161 11q-50 0 -71.5 -9.5t-28.5 -37.5t-7 -94h8q10 17 37 32t75 15q62 0 100.5 -16t59.5 -61t21 -131q0 -92 -20.5 -144t-73 -76.5t-150.5 -24.5
q-71 0 -115 9zM326.5 150.5q10.5 4.5 15 19t4.5 48.5t-4.5 48.5t-15 19t-35.5 4.5q-24 0 -34 -5t-13 -19t-3 -45q0 -37 4.5 -52.5t14 -19t31.5 -3.5q25 0 35.5 4.5z" />
    <glyph glyph-name="seven" unicode="7" horiz-adv-x="505" 
d="M64 0l209 529h-249v159h462v-144l-200 -544h-222z" />
    <glyph glyph-name="eight" unicode="8" horiz-adv-x="585" 
d="M136.5 12.5q-56.5 20.5 -80 62t-23.5 108.5q0 80 27 116t86 50v4q-55 14 -80.5 52t-25.5 112q0 64 24.5 103t80 57.5t148.5 18.5t148 -18.5t80 -57.5t25 -103q0 -74 -26 -112t-80 -52v-4q58 -14 85 -50t27 -116q0 -67 -23.5 -108.5t-80 -62t-155.5 -20.5
q-100 0 -156.5 20.5zM327.5 417.5q9.5 3.5 12.5 16.5t3 46t-3 46t-12.5 16.5t-34.5 3.5t-34.5 -3.5t-12.5 -16.5t-3 -46t3 -46t12.5 -16.5t34.5 -3.5t34.5 3.5zM328.5 145.5q10.5 4.5 14.5 18t4 46.5t-4 47.5t-14.5 18.5t-35.5 4t-35.5 -4t-14.5 -18.5t-4 -47.5t4 -46.5
t14.5 -18t35.5 -4.5t35.5 4.5z" />
    <glyph glyph-name="nine" unicode="9" horiz-adv-x="572" 
d="M168.5 -1.5q-55.5 6.5 -103.5 15.5v146q121 -11 162 -11q50 0 71 9.5t28 37.5t7 94h-7q-11 -18 -38.5 -32.5t-74.5 -14.5q-62 0 -100.5 16t-59.5 61t-21 131q0 92 20.5 144t73 76.5t150.5 24.5q77 0 123 -9.5t74.5 -36.5t42.5 -79q20 -75 20 -228q0 -168 -32 -238
q-29 -61 -85.5 -87t-155.5 -26q-39 0 -94.5 6.5zM316 403q10 5 13 19t3 45q0 37 -4.5 52.5t-14 19t-31.5 3.5q-25 0 -36 -4.5t-15.5 -19t-4.5 -48.5t4.5 -48.5t15.5 -19t36 -4.5q24 0 34 5z" />
    <glyph glyph-name="colon" unicode=":" horiz-adv-x="312" 
d="M57 348v162h197v-162h-197zM57 0v161h197v-161h-197z" />
    <glyph glyph-name="semicolon" unicode=";" horiz-adv-x="312" 
d="M57 348v162h197v-162h-197zM101.5 -82.5q13.5 6.5 18 22t4.5 45.5v15h-67v161h197v-120q0 -86 -13 -127t-54 -59t-128 -18v74q29 0 42.5 6.5z" />
    <glyph glyph-name="less" unicode="&#x3c;" horiz-adv-x="507" 
d="M445 55l-381 131v134l381 131v-136l-209 -62l209 -61v-137z" />
    <glyph glyph-name="equal" unicode="=" horiz-adv-x="506" 
d="M63 285v137h381v-137h-381zM63 84v137h381v-137h-381z" />
    <glyph glyph-name="greater" unicode="&#x3e;" horiz-adv-x="507" 
d="M63 55v137l208 61l-208 62v136l381 -131v-134z" />
    <glyph glyph-name="question" unicode="?" horiz-adv-x="467" 
d="M111 313q0 55 13.5 78.5t47.5 38.5l18 8q23 12 29 21.5t6 34.5q0 21 -5.5 30.5t-18 12t-38.5 2.5t-67 -2.5t-62 -6.5v147q36 8 88.5 13.5t96.5 5.5q63 0 106.5 -11t72 -49t28.5 -115q0 -62 -12.5 -94t-30.5 -45.5t-60 -34.5l-14 -7q-17 -11 -23 -16.5t-7.5 -16.5
t-1.5 -41v-24h-166v71zM96 0v161h197v-161h-197z" />
    <glyph glyph-name="at" unicode="@" horiz-adv-x="835" 
d="M170.5 -82q-70.5 26 -90.5 103t-20 273t20 273t90.5 103t248.5 26q177 0 247.5 -26t90.5 -103t20 -273q0 -107 -12 -152.5t-36.5 -56t-81.5 -10.5h-197l-4 50h-7q-19 -33 -43 -45t-56 -12q-55 0 -80.5 33t-25.5 101q0 53 11 81t38 40t79 12l49 -2l34 -1v15
q0 27 -4.5 36.5t-19.5 12t-56 2.5q-36 0 -110 -4v110q81 14 161 14q85 0 125.5 -18.5t53 -55.5t12.5 -109v-191h46q25 0 33.5 7t11.5 36t3 107q0 143 -6 202t-31 88t-86 38q-22 3 -65 4t-94 1q-123 0 -156 -4q-63 -8 -89 -36.5t-32 -87.5t-6 -205q0 -158 8 -218.5t42 -85
t121 -29.5q23 -1 113 -1q133 0 185 4v-70q-31 -2 -186 -2q-178 0 -248.5 26zM440 193q5 10 5 42v23h-29q-21 0 -26.5 -7t-5.5 -34q0 -20 4.5 -27t25.5 -7t26 10z" />
    <glyph glyph-name="A" unicode="A" horiz-adv-x="606" 
d="M403 0l-21 110h-162l-20 -110h-202l159 688h293l158 -688h-205zM304 515h-8l-46 -253h102z" />
    <glyph glyph-name="B" unicode="B" horiz-adv-x="576" 
d="M46 688h312q184 0 184 -173q0 -74 -26 -111t-81 -51v-4q38 -10 61.5 -26.5t36.5 -49.5t13 -89q0 -93 -46 -138.5t-143 -45.5h-311v688zM322 419.5q10 3.5 13.5 15t3.5 40.5q0 30 -3.5 41.5t-13.5 15t-35 3.5h-39v-119h39q25 0 35 3.5zM322 156.5q10 3.5 13.5 16t3.5 43.5
q0 30 -3.5 42.5t-13.5 16.5t-35 4h-39v-126h39q25 0 35 3.5z" />
    <glyph glyph-name="C" unicode="C" horiz-adv-x="485" 
d="M382 -3q-45 -5 -86 -5q-116 0 -170.5 32t-72 103.5t-17.5 216.5t17.5 216.5t72.5 103.5t170 32q41 0 84.5 -5t71.5 -13v-146q-87 7 -110 7q-52 0 -71 -11.5t-23.5 -47.5t-4.5 -136q0 -101 4.5 -136.5t23.5 -47t71 -11.5q57 0 113 7v-147q-28 -7 -73 -12z" />
    <glyph glyph-name="D" unicode="D" horiz-adv-x="585" 
d="M46 688h227q136 0 192.5 -29.5t70 -94.5t13.5 -220t-13.5 -220t-70 -94.5t-192.5 -29.5h-227v688zM275 157q36 0 48.5 9t15.5 42.5t3 134.5q0 103 -3 136.5t-15 42.5t-49 9h-24v-374h24z" />
    <glyph glyph-name="E" unicode="E" horiz-adv-x="514" 
d="M46 0v688h428v-157h-223v-106h186v-155h-186v-113h223v-157h-428z" />
    <glyph glyph-name="F" unicode="F" horiz-adv-x="483" 
d="M46 0v688h410v-157h-205v-130h176v-157h-176v-244h-205z" />
    <glyph glyph-name="G" unicode="G" horiz-adv-x="578" 
d="M300 268v145h235v-400q-47 -9 -110.5 -15t-114.5 -6q-115 0 -172.5 30t-79.5 103.5t-22 218.5t22.5 218.5t81.5 103.5t176 30q48 0 109.5 -6.5t107.5 -16.5v-146q-110 12 -154 12q-74 0 -99.5 -9.5t-33 -46t-7.5 -139.5q0 -93 5 -132.5t21 -53t54 -13.5l35 1v122h-54z
" />
    <glyph glyph-name="H" unicode="H" horiz-adv-x="608" 
d="M356 0v259h-104v-259h-207v688h207v-256h104v256h207v-688h-207z" />
    <glyph glyph-name="I" unicode="I" horiz-adv-x="298" 
d="M46 0v688h206v-688h-206z" />
    <glyph glyph-name="J" unicode="J" horiz-adv-x="381" 
d="M95.5 154q22.5 6 29 27.5t6.5 79.5v427h206v-360q0 -171 -17 -232t-77.5 -78.5t-229.5 -17.5v148q60 0 82.5 6z" />
    <glyph glyph-name="K" unicode="K" horiz-adv-x="602" 
d="M378 0l-114 271h-12v-271h-206v688h206v-260h12l117 260h218l-169 -325l171 -363h-223z" />
    <glyph glyph-name="L" unicode="L" horiz-adv-x="459" 
d="M46 0v688h206v-524h191v-164h-397z" />
    <glyph glyph-name="M" unicode="M" horiz-adv-x="813" 
d="M570 0v428h-10l-79 -428h-154l-79 428h-10v-428h-193v688h293l66 -371h8l65 371h290v-688h-197z" />
    <glyph glyph-name="N" unicode="N" horiz-adv-x="615" 
d="M383 0l-136 316h-5v-316h-197v688h206l115 -267h7v267h197v-688h-187z" />
    <glyph glyph-name="O" unicode="O" horiz-adv-x="602" 
d="M116 23q-55 31 -67.5 97.5t-12.5 223.5t12.5 223.5t67.5 97.5t184 31q130 0 184.5 -31t67.5 -97.5t13 -223.5t-13 -223.5t-67.5 -97.5t-184.5 -31q-129 0 -184 31zM342.5 158.5q10.5 9.5 13 44t2.5 141.5t-2.5 141.5t-13 44t-42.5 9.5q-31 0 -41.5 -9.5t-13 -44
t-2.5 -141.5t2.5 -141.5t13 -44t41.5 -9.5q32 0 42.5 9.5z" />
    <glyph glyph-name="P" unicode="P" horiz-adv-x="559" 
d="M46 688h300q83 0 124.5 -25.5t56 -75.5t14.5 -139q0 -84 -13 -134t-55.5 -78t-126.5 -28h-94v-208h-206v688zM279 362q27 0 37.5 4.5t14 21.5t3.5 60t-3.5 60t-14 21t-37.5 4h-27v-171h27z" />
    <glyph glyph-name="Q" unicode="Q" horiz-adv-x="602" 
d="M335 -7l-35 -1q-129 0 -184 31t-67.5 97.5t-12.5 223.5t12.5 223.5t67.5 97.5t184 31q130 0 184.5 -31t67.5 -97.5t13 -223.5q0 -129 -11 -195t-45 -101l103 -155v-8h-211zM341.5 158.5q10.5 9.5 13.5 45t3 140.5t-3 140.5t-13.5 45t-41.5 9.5t-41.5 -9.5t-13 -44
t-2.5 -141.5t2.5 -141.5t13 -44t41.5 -9.5t41.5 9.5z" />
    <glyph glyph-name="R" unicode="R" horiz-adv-x="583" 
d="M353 0l-62 228h-39v-228h-206v688h307q83 0 125 -24.5t56.5 -72.5t14.5 -133q0 -79 -13.5 -126.5t-55.5 -73.5l85 -258h-212zM324.5 380q10.5 4 14.5 19.5t4 54.5q0 40 -3 55t-14 19.5t-40 4.5h-34v-157h35q27 0 37.5 4z" />
    <glyph glyph-name="S" unicode="S" horiz-adv-x="529" 
d="M153.5 -3q-64.5 5 -109.5 13v148q115 -9 165 -9q38 0 54 2t23 8q6 6 8 15t2 27q0 25 -5 36t-19.5 16t-52.5 10l-101 15q-50 8 -70 59.5t-20 146.5q0 87 30.5 133.5t82.5 62.5t129 16q56 0 112 -6.5t89 -13.5v-146q-77 9 -161 9q-27 0 -41.5 -1.5t-20.5 -6.5
q-8 -6 -11 -15.5t-3 -25.5q0 -21 3 -30.5t12.5 -14t32.5 -8.5l89 -13q40 -7 67 -22t45 -53q19 -43 19 -126q0 -100 -29 -150.5t-77 -65.5t-124 -15q-54 0 -118.5 5z" />
    <glyph glyph-name="T" unicode="T" horiz-adv-x="515" 
d="M154 0v524h-144v164h495v-164h-145v-524h-206z" />
    <glyph glyph-name="U" unicode="U" horiz-adv-x="590" 
d="M546 688v-375q0 -142 -12.5 -202.5t-64.5 -89.5t-174 -29t-174 29t-64.5 89.5t-12.5 202.5v375h207v-418q0 -64 2 -85.5t10 -27.5t32 -6t32.5 6t10.5 28t2 85v418h206z" />
    <glyph glyph-name="V" unicode="V" horiz-adv-x="581" 
d="M149 0l-148 688h210l76 -474h11l76 474h206l-148 -688h-283z" />
    <glyph glyph-name="W" unicode="W" horiz-adv-x="882" 
d="M503 0l-57 385h-10l-56 -385h-269l-106 688h206l46 -467h10l66 467h222l67 -467h10l40 467h205l-106 -688h-268z" />
    <glyph glyph-name="X" unicode="X" horiz-adv-x="611" 
d="M379 0l-72 198h-10l-73 -198h-218l163 346l-160 342h226l69 -192h9l72 192h218l-161 -338l163 -350h-226z" />
    <glyph glyph-name="Y" unicode="Y" horiz-adv-x="575" 
d="M184 0v225l-187 463h210l80 -267h8l78 267h205l-187 -463v-225h-207z" />
    <glyph glyph-name="Z" unicode="Z" horiz-adv-x="536" 
d="M34 0v150l225 381h-216v157h459v-147l-228 -384h227v-157h-467z" />
    <glyph glyph-name="bracketleft" unicode="[" horiz-adv-x="368" 
d="M51 -150v893h276v-110l-105 -4v-665l105 -4v-110h-276z" />
    <glyph glyph-name="backslash" unicode="\" horiz-adv-x="396" 
d="M240 -55l-242 798h158l242 -798h-158z" />
    <glyph glyph-name="bracketright" unicode="]" horiz-adv-x="368" 
d="M41 -150v110l106 4v665l-106 4v110h276v-893h-276z" />
    <glyph glyph-name="asciicircum" unicode="^" horiz-adv-x="401" 
d="M265 459l-65 167l-64 -167h-138l135 290h135l135 -290h-138z" />
    <glyph glyph-name="underscore" unicode="_" horiz-adv-x="393" 
d="M0 -193v136h393v-136h-393z" />
    <glyph glyph-name="grave" unicode="`" horiz-adv-x="274" 
d="M122 595l-109 143v5h178l69 -143v-5h-138z" />
    <glyph glyph-name="a" unicode="a" horiz-adv-x="501" 
d="M54 30q-30 38 -30 119q0 60 12.5 93t44.5 47.5t93 14.5q40 0 98 -4v19q0 30 -5.5 41.5t-23 14.5t-64.5 3q-56 0 -130 -6v130q98 16 188 16q100 0 148 -22.5t62.5 -66t14.5 -124.5v-305h-185l-4 56h-9q-22 -37 -49.5 -50.5t-65.5 -13.5q-65 0 -95 38zM257.5 130
q7.5 4 11.5 13q3 9 3 44v27h-34q-25 0 -31.5 -8.5t-6.5 -39.5q0 -24 6 -32t30 -8q14 0 21.5 4z" />
    <glyph glyph-name="b" unicode="b" horiz-adv-x="519" 
d="M237 57h-10l-4 -57h-184v743h190v-284h10q18 32 46 45t67 13q52 0 82 -23.5t43.5 -80.5t13.5 -159q0 -104 -14 -160.5t-43.5 -79t-80.5 -22.5q-86 0 -116 65zM291.5 150q6.5 5 8.5 25.5t2 79.5t-2 79.5t-8.5 25.5t-26.5 5q-16 0 -22.5 -3.5t-9.5 -16.5q-4 -23 -4 -90
q0 -30 0.5 -53t3.5 -35q2 -14 9 -18t23 -4q20 0 26.5 5z" />
    <glyph glyph-name="c" unicode="c" horiz-adv-x="406" 
d="M234 -8q-93 0 -137.5 30t-57 83.5t-12.5 148.5q0 97 12.5 150.5t56.5 83.5t138 30q78 0 142 -16v-129q-55 5 -87 5q-34 0 -47.5 -8t-18 -32t-4.5 -83q0 -60 4 -84t18 -31.5t48 -7.5t90 6v-129q-76 -17 -145 -17z" />
    <glyph glyph-name="d" unicode="d" horiz-adv-x="519" 
d="M84.5 14.5q-29.5 22.5 -43.5 79t-14 160.5q0 102 14 159t44 80.5t82 23.5q39 0 66.5 -13t45.5 -45h10v284h190v-743h-184l-4 57h-10q-29 -65 -116 -65q-51 0 -80.5 22.5zM277.5 149.5q6.5 4.5 8.5 21.5q3 22 3 84t-2 79q-2 20 -9 25.5t-25 5.5q-20 0 -26.5 -5t-8 -24.5
t-1.5 -80.5t1.5 -80.5t8 -24.5t26.5 -5q18 0 24.5 4.5z" />
    <glyph glyph-name="e" unicode="e" horiz-adv-x="494" 
d="M464 214h-250q0 -43 5.5 -58.5t23.5 -19.5t69 -4q40 0 136 6v-128q-28 -8 -79 -13t-102 -5q-112 0 -163 26.5t-64 78t-13 157.5t13 158.5t60 79t150 26.5q105 0 149.5 -24.5t54.5 -74t10 -165.5v-40zM226 383.5q-7 -4.5 -9.5 -21.5t-2.5 -59h74q0 43 -2.5 59.5t-9.5 21
t-26 4.5q-17 0 -24 -4.5z" />
    <glyph glyph-name="f" unicode="f" horiz-adv-x="397" 
d="M86 370h-71v140h71v11q0 110 20.5 154t75 55.5t193.5 11.5v-126q-50 0 -68 -3.5t-23.5 -16t-5.5 -46.5v-40h97v-140h-97v-370h-192v370z" />
    <glyph glyph-name="g" unicode="g" horiz-adv-x="519" 
d="M145 -202.5q-48 3.5 -77 9.5v127h120q54 0 73 4.5t23.5 19.5t4.5 60v49h-10q-18 -33 -45.5 -46t-66.5 -13q-52 0 -82 23t-44 78t-14 155q0 101 14 156t43.5 76.5t80.5 21.5q87 0 116 -65h10l4 57h184v-455q0 -101 -13.5 -152.5t-64.5 -80t-163 -28.5q-45 0 -93 3.5z
M277.5 164.5q6.5 4.5 8.5 20.5q3 16 3 78q0 58 -2 73q-2 19 -9 24t-25 5q-20 0 -26.5 -4.5t-8 -23t-1.5 -74.5t1.5 -74.5t8 -23.5t26.5 -5q18 0 24.5 4.5z" />
    <glyph glyph-name="h" unicode="h" horiz-adv-x="522" 
d="M293 271q0 50 -1.5 67t-7 21.5t-22.5 4.5q-18 0 -24 -5t-7.5 -23.5t-1.5 -72.5v-263h-190v743h190v-290h10q34 65 118 65q55 0 82 -20.5t35.5 -60t8.5 -109.5v-328h-190v271z" />
    <glyph glyph-name="i" unicode="i" horiz-adv-x="272" 
d="M39 598v145h193v-145h-193zM39 0v510h193v-510h-193z" />
    <glyph glyph-name="j" unicode="j" horiz-adv-x="272" 
d="M39 598v145h193v-145h-193zM-24 -71q30 0 43 5t16.5 15t3.5 31v530h193v-474q0 -110 -19.5 -158t-70 -62.5t-166.5 -14.5v128z" />
    <glyph glyph-name="k" unicode="k" horiz-adv-x="527" 
d="M322 0l-82 182h-11v-182h-190v743h190v-421h11l89 188h196l-127 -241l129 -269h-205z" />
    <glyph glyph-name="l" unicode="l" horiz-adv-x="272" 
d="M39 0v743h193v-743h-193z" />
    <glyph glyph-name="m" unicode="m" horiz-adv-x="769" 
d="M541 271q0 48 -2 66t-7.5 22.5t-20.5 4.5q-17 0 -22.5 -5t-7 -23t-1.5 -73v-263h-190v271q0 49 -1.5 66.5t-7 22t-21.5 4.5q-17 0 -22.5 -5t-7 -23.5t-1.5 -72.5v-263h-190v510h184l4 -57h10q35 65 120 65q50 0 77 -15.5t38 -49.5h10q37 65 121 65q53 0 80.5 -20.5
t37.5 -60t10 -106.5v-331h-190v271z" />
    <glyph glyph-name="n" unicode="n" horiz-adv-x="522" 
d="M293 271q0 50 -1.5 67t-7 21.5t-22.5 4.5q-18 0 -24 -5t-7.5 -23.5t-1.5 -72.5v-263h-190v510h184l4 -57h10q34 65 119 65q55 0 82 -20.5t36 -60t9 -109.5v-328h-190v271z" />
    <glyph glyph-name="o" unicode="o" horiz-adv-x="507" 
d="M99.5 14q-46.5 22 -59.5 73.5t-13 167.5t13 167.5t59.5 73.5t153.5 22t153.5 -22t59.5 -73.5t13 -167.5t-13 -167.5t-59.5 -73.5t-153.5 -22t-153.5 22zM279.5 138.5q6.5 6.5 8.5 29t2 87.5t-2 87.5t-8.5 29t-26.5 6.5q-19 0 -26 -6.5t-8.5 -28.5t-1.5 -88t1.5 -88
t8.5 -28.5t26 -6.5q20 0 26.5 6.5z" />
    <glyph glyph-name="p" unicode="p" horiz-adv-x="519" 
d="M39 510h184l4 -57h10q30 65 116 65q51 0 80.5 -22.5t43.5 -79t14 -160.5q0 -102 -13.5 -159t-43.5 -80.5t-82 -23.5q-39 0 -67 13t-46 45h-10v-250h-190v709zM291.5 150q6.5 5 8.5 25.5t2 79.5t-2 79.5t-8.5 25.5t-26.5 5q-16 0 -23 -4.5t-10 -19.5q-3 -16 -3 -86
q0 -72 3 -83q3 -18 10 -22.5t23 -4.5q20 0 26.5 5z" />
    <glyph glyph-name="q" unicode="q" horiz-adv-x="519" 
d="M289 51h-10q-18 -32 -45.5 -45t-66.5 -13q-52 0 -82 23.5t-44 80.5t-14 159q0 104 14 160.5t43.5 79t80.5 22.5q87 0 116 -65h10l4 57h184v-709h-190v250zM275 148.5q7 3.5 10 16.5q3 8 3.5 32t0.5 58q0 31 -0.5 55t-3.5 35q-3 13 -9.5 16.5t-22.5 3.5q-20 0 -26.5 -5
t-8 -24.5t-1.5 -80.5t1.5 -80.5t8 -24.5t26.5 -5q15 0 22 3.5z" />
    <glyph glyph-name="r" unicode="r" horiz-adv-x="386" 
d="M39 510h184l4 -83h10q19 51 49 71t84 20v-175q-53 0 -82.5 -11t-44 -42.5t-14.5 -93.5v-196h-190v510z" />
    <glyph glyph-name="s" unicode="s" horiz-adv-x="439" 
d="M129 -3.5q-54 4.5 -94 10.5v127q84 -6 122 -6q44 0 59 1.5t20 6.5t5 20q0 12 -2 16.5t-10.5 7t-30.5 5.5l-100 15q-45 6 -61 44t-16 117q0 64 25 98t68 46.5t107 12.5q46 0 94.5 -4t76.5 -11v-128q-82 7 -117 7q-37 0 -52 -1.5t-19 -6t-4 -16.5t1.5 -16.5t8.5 -6.5t26 -5
l83 -12q32 -5 53 -17t33.5 -44.5t12.5 -92.5q0 -73 -24 -110.5t-64 -49.5t-102 -12q-45 0 -99 4.5z" />
    <glyph glyph-name="t" unicode="t" horiz-adv-x="382" 
d="M86 0v370h-71v140h71v148h192v-148h90v-140h-90v-370h-192z" />
    <glyph glyph-name="u" unicode="u" horiz-adv-x="522" 
d="M295 57h-9q-34 -65 -120 -65q-55 0 -82 20.5t-36 60t-9 109.5v328h190v-271q0 -50 1.5 -67t7 -21.5t22.5 -4.5q18 0 24 5t7.5 23.5t1.5 72.5v263h190v-510h-184z" />
    <glyph glyph-name="v" unicode="v" horiz-adv-x="499" 
d="M118 0l-114 510h190l53 -338h10l50 338h188l-115 -510h-262z" />
    <glyph glyph-name="w" unicode="w" horiz-adv-x="766" 
d="M429 0l-40 218h-11l-40 -218h-237l-93 510h184l35 -321h10l60 321h176l62 -321h11l32 321h180l-94 -510h-235z" />
    <glyph glyph-name="x" unicode="x" horiz-adv-x="515" 
d="M312 0l-56 140h-9l-54 -140h-192l132 258l-127 252h202l52 -129h8l49 129h192l-128 -250l133 -260h-202z" />
    <glyph glyph-name="y" unicode="y" horiz-adv-x="522" 
d="M152 -202.5q-47 3.5 -76 9.5v127h121q52 0 69.5 4t22 19.5t4.5 61.5v53h-10q-20 -37 -51.5 -51t-65.5 -14q-55 0 -82 20.5t-36 60t-9 109.5v313h190v-255q0 -51 1.5 -68t7 -21.5t22.5 -4.5q18 0 24 5t7.5 23.5t1.5 72.5v248h190v-455q0 -101 -13 -152.5t-64 -80
t-162 -28.5q-45 0 -92 3.5z" />
    <glyph glyph-name="z" unicode="z" horiz-adv-x="473" 
d="M32 0v132l177 238h-168v140h399v-132l-177 -238h178v-140h-409z" />
    <glyph glyph-name="braceleft" unicode="{" horiz-adv-x="366" 
d="M132.5 -69.5q-36.5 54.5 -36.5 112.5v114q0 44 -16 68.5t-59 33.5v75q43 9 59 33.5t16 68.5v114q0 58 36.5 112.5t93.5 80.5h117q-77 -82 -77 -181v-117q0 -59 -30 -96.5t-92 -48.5v-7q62 -11 92 -48.5t30 -96.5v-117q0 -99 77 -181h-117q-57 26 -93.5 80.5z" />
    <glyph glyph-name="bar" unicode="|" horiz-adv-x="278" 
d="M57 -161v904h164v-904h-164z" />
    <glyph glyph-name="braceright" unicode="}" horiz-adv-x="366" 
d="M99 31v117q0 59 30 96.5t93 48.5v7q-63 11 -93 48.5t-30 96.5v117q0 101 -77 181h118q56 -26 93 -80.5t37 -112.5v-114q0 -44 16 -68.5t59 -33.5v-75q-43 -9 -59 -33.5t-16 -68.5v-114q0 -58 -37 -112.5t-93 -80.5h-118q77 80 77 181z" />
    <glyph glyph-name="asciitilde" unicode="~" horiz-adv-x="482" 
d="M431.5 298.5q-4.5 -28.5 -25.5 -46t-68 -17.5q-32 0 -68.5 6.5t-46.5 8.5q-45 9 -61 9q-15 0 -18 -7t-3 -28h-95q0 58 4.5 86.5t25.5 46t68 17.5q33 0 69 -6.5t45 -8.5q7 -1 29 -5.5t33 -4.5q15 0 18 7t3 29h95q0 -58 -4.5 -86.5z" />
    <glyph glyph-name="uni00A0" unicode="&#xa0;" horiz-adv-x="222" 
 />
    <glyph glyph-name="exclamdown" unicode="&#xa1;" horiz-adv-x="322" 
d="M62 349v161h197v-161h-197zM50 -153q0 24 12.5 145t31.5 276h132q45 -373 45 -421v-25h-221v25z" />
    <glyph glyph-name="cent" unicode="&#xa2;" horiz-adv-x="412" 
d="M164 74q-53 12 -80.5 45t-37 85.5t-9.5 136.5q0 85 9.5 138t37 85.5t80.5 44.5v87h139v-83q32 -3 71 -13v-134q-62 5 -83 5q-31 0 -43.5 -8.5t-17 -34t-4.5 -86.5q0 -62 4 -87.5t17 -33.5t44 -8q29 0 87 6v-133q-34 -10 -75 -15v-79h-139v82z" />
    <glyph glyph-name="sterling" unicode="&#xa3;" horiz-adv-x="529" 
d="M495 157v-157h-462v157h66v122h-66v149h67v8q0 97 19.5 152t71 81.5t150.5 26.5q37 0 78.5 -5t67.5 -12v-148q-66 8 -98 8q-26 0 -40.5 -2.5t-21.5 -8.5q-12 -10 -16.5 -30.5t-4.5 -61.5v-8h120v-149h-120v-122h189z" />
    <glyph glyph-name="currency" unicode="&#xa4;" horiz-adv-x="619" 
d="M29 101l68 69q-8 29 -11 69.5t-3 105.5q0 64 3 104t11 69l-70 69l99 99l79 -80q39 7 104 7q61 0 106 -8l80 80l96 -97l-70 -70q8 -29 11 -69t3 -104t-2.5 -104.5t-10.5 -68.5l69 -70l-98 -98l-79 79q-39 -7 -105 -7q-56 0 -105 7l-78 -79zM335.5 222.5q6.5 6.5 8.5 30.5
t2 92q0 67 -2 91t-8.5 30.5t-26.5 6.5q-19 0 -26 -6.5t-8.5 -29.5t-1.5 -92t1.5 -92.5t8.5 -30t26 -6.5q20 0 26.5 6.5z" />
    <glyph glyph-name="yen" unicode="&#xa5;" horiz-adv-x="578" 
d="M185 0v195h-146v90h132l-26 62h-106v91h71l-92 250h202l68 -263h8l66 263h198l-94 -250h71v-91h-105l-26 -62h131v-90h-145v-195h-207z" />
    <glyph glyph-name="brokenbar" unicode="&#xa6;" horiz-adv-x="278" 
d="M57 390v353h164v-353h-164zM57 -161v353h164v-353h-164z" />
    <glyph glyph-name="section" unicode="&#xa7;" horiz-adv-x="599" 
d="M179.5 -164.5q-49.5 5.5 -75.5 12.5v141q74 -6 168 -6q25 0 31.5 4.5t6.5 20.5q0 10 -2 14.5t-11.5 9t-24.5 9.5l-105 38q-52 17 -79.5 33.5t-44.5 51.5t-17 98q0 56 8.5 89.5t28 52.5t53.5 29q-15 35 -15 89q0 101 55 137.5t158 36.5q57 0 107 -6t74 -13v-141
q-82 7 -170 7q-23 0 -30 -4.5t-7 -20.5q0 -11 2.5 -15.5t12.5 -9t28 -10.5l105 -37q49 -17 75.5 -33t43 -51t16.5 -99q0 -56 -8.5 -89.5t-28 -52.5t-53.5 -29q17 -36 17 -88q0 -101 -55 -137.5t-159 -36.5q-55 0 -104.5 5.5zM389 195.5q2 11.5 2 42.5q0 23 -6 34.5t-21 17.5
l-119 43q-22 9 -27 9q-6 0 -8 -11.5t-2 -43.5q0 -24 7 -35t27 -18l116 -43q20 -7 22 -7q7 0 9 11.5z" />
    <glyph glyph-name="dieresis" unicode="&#xa8;" horiz-adv-x="371" 
d="M11 611v119h150v-119h-150zM210 611v119h151v-119h-151z" />
    <glyph glyph-name="copyright" unicode="&#xa9;" horiz-adv-x="676" 
d="M148 15q-54 23 -69.5 90.5t-15.5 238.5t15.5 238.5t69.5 90.5t190 23t190 -23t69.5 -90.5t15.5 -238.5t-15.5 -238.5t-69.5 -90.5t-190 -23t-190 23zM487.5 69.5q37.5 13.5 47 65.5t9.5 209t-9.5 209t-47 65.5t-149.5 13.5t-149.5 -13.5t-47 -65.5t-9.5 -209t9.5 -209
t47 -65.5t149.5 -13.5t149.5 13.5zM266.5 173.5q-28.5 17.5 -38 56t-9.5 114.5t9.5 114.5t38 56t89.5 17.5q53 0 83 -9v-78q-54 3 -58 3q-27 0 -37 -6t-12.5 -25t-2.5 -73t2.5 -73t12.5 -25t37 -6q21 0 60 3v-79q-37 -8 -85 -8q-61 0 -89.5 17.5z" />
    <glyph glyph-name="ordfeminine" unicode="&#xaa;" horiz-adv-x="380" 
d="M48 338q-22 29 -22 87q0 44 9.5 68t33 34.5t67.5 10.5q38 0 71 -3v15q0 22 -4 30t-17 10.5t-47 2.5q-26 0 -94 -4v94q68 13 137 13q72 0 107 -16t45.5 -48t10.5 -93v-224h-135l-3 44h-7q-14 -29 -34.5 -39.5t-48.5 -10.5q-47 0 -69 29zM195 410.5q5 2.5 9 8.5q3 5 3 33
v20h-25q-18 0 -23 -6t-5 -28q0 -18 4.5 -24t21.5 -6q10 0 15 2.5z" />
    <glyph glyph-name="guillemotleft" unicode="&#xab;" horiz-adv-x="480" 
d="M128 111l-110 199l110 200h121l-81 -200l81 -199h-121zM320 111l-109 199l109 200h121l-81 -200l81 -199h-121z" />
    <glyph glyph-name="logicalnot" unicode="&#xac;" horiz-adv-x="507" 
d="M305 59v121h-242v138h380v-259h-138z" />
    <glyph glyph-name="uni00AD" unicode="&#xad;" horiz-adv-x="341" 
d="M44 210v148h253v-148h-253z" />
    <glyph glyph-name="registered" unicode="&#xae;" horiz-adv-x="676" 
d="M528 673q54 -23 69.5 -90.5t15.5 -238.5t-15.5 -238.5t-69.5 -90.5t-190 -23t-190 23t-69.5 90.5t-15.5 238.5t15.5 238.5t69.5 90.5t190 23t190 -23zM487.5 69.5q37.5 13.5 47 65.5t9.5 209t-9.5 209t-47 65.5t-149.5 13.5t-149.5 -13.5t-47 -65.5t-9.5 -209t9.5 -209
t47 -65.5t149.5 -13.5t149.5 13.5zM466 337.5q-7 -25.5 -29 -39.5l45 -138h-110l-33 122h-28v-122h-105v368h160q45 0 68 -13t31 -38.5t8 -71.5q0 -42 -7 -67.5zM311 362h26q15 0 20.5 2t7.5 10t2 29t-1.5 29t-7.5 10.5t-21 2.5h-26v-83z" />
    <glyph glyph-name="macron" unicode="&#xaf;" horiz-adv-x="343" 
d="M44 594v149h257v-149h-257z" />
    <glyph glyph-name="degree" unicode="&#xb0;" horiz-adv-x="363" 
d="M85 409.5q-30 12.5 -38.5 42t-8.5 94.5t8.5 94.5t38.5 42.5t98 13q67 0 96.5 -13t38 -42.5t8.5 -94.5t-8.5 -94.5t-38 -42t-96.5 -12.5q-68 0 -98 12.5zM206.5 481q6.5 5 8 17.5t1.5 47.5t-1.5 48t-8 18t-23.5 5q-18 0 -25 -5t-9 -18.5t-2 -47.5q0 -33 2 -46.5t9 -18.5
t25 -5q17 0 23.5 5z" />
    <glyph glyph-name="plusminus" unicode="&#xb1;" horiz-adv-x="506" 
d="M184 195v121h-121v137h121v123h138v-123h122v-137h-122v-121h-138zM63 14v137h381v-137h-381z" />
    <glyph glyph-name="uni00B2" unicode="&#xb2;" horiz-adv-x="337" 
d="M158 412h142v-99h-262v57q0 51 2.5 76t12 41.5t30.5 26.5q23 11 71 31q15 8 18.5 13t3.5 19q0 15 -6 18.5t-28 3.5q-31 0 -98 -7v92q24 5 59.5 8.5t65.5 3.5q42 0 69.5 -7.5t44.5 -32t17 -73.5q0 -52 -15 -76.5t-44 -36.5q-46 -19 -63 -25q-13 -6 -16.5 -11t-3.5 -21v-1z
" />
    <glyph glyph-name="uni00B3" unicode="&#xb3;" horiz-adv-x="335" 
d="M38 317v92q66 -6 101 -6q23 0 28.5 4t5.5 23q0 21 -4.5 25.5t-20.5 4.5h-61v85h61q15 0 18.5 4.5t3.5 23.5q0 14 -2 18.5t-8.5 6t-25.5 1.5q-34 0 -95 -7v92q24 5 57 8.5t59 3.5q76 0 108 -23.5t32 -78.5q0 -36 -12.5 -57t-38.5 -31v-4q27 -9 40.5 -29.5t13.5 -58.5
q0 -58 -31 -83.5t-112 -25.5q-49 0 -117 12z" />
    <glyph glyph-name="acute" unicode="&#xb4;" horiz-adv-x="274" 
d="M13 595v5l70 143h177v-5l-109 -143h-138z" />
    <glyph glyph-name="uni00B5" unicode="&#xb5;" horiz-adv-x="523" 
d="M483 510v-510h-183l-4 57h-10q-12 -20 -25.5 -32.5t-31.5 -18.5v-195h-190v699h190v-271q0 -49 2 -66.5t7.5 -22t22.5 -4.5q18 0 23.5 5t7 23t1.5 73v263h190z" />
    <glyph glyph-name="paragraph" unicode="&#xb6;" horiz-adv-x="592" 
d="M225 222q-94 0 -132.5 16t-49.5 60.5t-11 155.5t11 156t49.5 61.5t132.5 16.5h124v-832h-124v366zM409 -144v832h126v-832h-126z" />
    <glyph glyph-name="periodcentered" unicode="&#xb7;" horiz-adv-x="312" 
d="M57 218v162h197v-162h-197z" />
    <glyph glyph-name="cedilla" unicode="&#xb8;" horiz-adv-x="222" 
d="M12 -189v5l76 192h121v-5l-33 -192h-164z" />
    <glyph glyph-name="uni00B9" unicode="&#xb9;" horiz-adv-x="251" 
d="M90 313v249l-58 -23v101l96 48h86v-375h-124z" />
    <glyph glyph-name="ordmasculine" unicode="&#xba;" horiz-adv-x="396" 
d="M91.5 324.5q-33.5 14.5 -45.5 53.5t-12 125t12 125t45.5 53.5t106.5 14.5t106.5 -14.5t46 -54t12.5 -124.5t-12.5 -124.5t-46 -54t-106.5 -14.5t-106.5 14.5zM217 417.5q5 4.5 6.5 21.5t1.5 64t-1.5 64t-6.5 21.5t-19 4.5t-19 -4.5t-6.5 -21.5t-1.5 -64t1.5 -64
t6.5 -21.5t19 -4.5t19 4.5z" />
    <glyph glyph-name="guillemotright" unicode="&#xbb;" horiz-adv-x="480" 
d="M38 111l82 199l-82 200h122l109 -200l-109 -199h-122zM230 111l82 199l-82 200h122l109 -200l-109 -199h-122z" />
    <glyph glyph-name="onequarter" unicode="&#xbc;" horiz-adv-x="724" 
d="M89 313v249l-57 -23v101l96 48h85v-375h-124zM83 0l401 688h112l-401 -688h-112zM531 0v63h-144v83l91 229h132l-101 -213h33l38 71h73v-71h34v-99h-34v-63h-122z" />
    <glyph glyph-name="onehalf" unicode="&#xbd;" horiz-adv-x="752" 
d="M89 313v249l-57 -23v101l96 48h85v-375h-124zM484 688h112l-401 -688h-112zM577.5 121q-4.5 -7 -4.5 -22h142v-99h-262v57q0 51 2.5 76t12 41.5t30.5 26.5l32 14q25 10 39 17t18 12.5t4 19.5q0 15 -6 18t-28 3q-31 0 -98 -7v93q24 5 59.5 8.5t65.5 3.5q42 0 69.5 -8
t44.5 -32.5t17 -73.5q0 -52 -14.5 -76t-44.5 -36q-44 -18 -59 -23q-15 -6 -19.5 -13z" />
    <glyph glyph-name="threequarters" unicode="&#xbe;" horiz-adv-x="777" 
d="M139 403q23 0 28.5 4t5.5 23q0 21 -4.5 25.5t-20.5 4.5h-61v85h61q15 0 18.5 4.5t3.5 23.5q0 14 -2 18.5t-8.5 6t-25.5 1.5q-34 0 -95 -7v92q24 5 57 8.5t59 3.5q76 0 108 -23.5t32 -78.5q0 -36 -12.5 -57t-38.5 -31v-4q27 -9 40.5 -29.5t13.5 -58.5q0 -58 -31 -83.5
t-112 -25.5q-49 0 -117 12v92q66 -6 101 -6zM136 0l402 688h111l-401 -688h-112zM584 0v63h-144v83l91 229h131l-101 -213h34l38 71h73v-71h34v-99h-34v-63h-122z" />
    <glyph glyph-name="questiondown" unicode="&#xbf;" horiz-adv-x="425" 
d="M175 349v161h197v-161h-197zM134 -172q-44 14 -68 52.5t-24 108.5q0 53 7.5 84t25 49.5t51.5 34.5l40 18q14 8 18 13t5.5 15.5t1.5 40.5v24h166v-71q0 -55 -13.5 -78.5t-47.5 -38.5l-17 -8q-24 -12 -30 -22t-6 -34q0 -21 5.5 -30.5t18 -12t38.5 -2.5q55 0 129 9v-147
q-35 -8 -87.5 -13.5t-98.5 -5.5q-70 0 -114 14z" />
    <glyph glyph-name="Agrave" unicode="&#xc0;" horiz-adv-x="606" 
d="M403 0l-21 110h-162l-20 -110h-202l159 688h293l158 -688h-205zM304 515h-8l-46 -253h102zM242 750l-109 143v5h178l69 -143v-5h-138z" />
    <glyph glyph-name="Aacute" unicode="&#xc1;" horiz-adv-x="606" 
d="M403 0l-21 110h-162l-20 -110h-202l159 688h293l158 -688h-205zM304 515h-8l-46 -253h102zM209 750v5l70 143h177v-5l-109 -143h-138z" />
    <glyph glyph-name="Acircumflex" unicode="&#xc2;" horiz-adv-x="606" 
d="M403 0l-21 110h-162l-20 -110h-202l159 688h293l158 -688h-205zM304 515h-8l-46 -253h102zM134 750v9l82 131h172l83 -131v-9h-122l-47 67l-46 -67h-122z" />
    <glyph glyph-name="Atilde" unicode="&#xc3;" horiz-adv-x="606" 
d="M403 0l-21 110h-162l-20 -110h-202l159 688h293l158 -688h-205zM304 515h-8l-46 -253h102zM483.5 824.5q-4.5 -28.5 -24.5 -45.5t-65 -17q-39 0 -103 15l-24 4q-23 5 -34 5q-13 0 -16 -7t-3 -29h-95q0 57 4.5 86t25 46t64.5 17q40 0 104 -15q43 -9 57 -9q13 0 16 7t3 29
h95q0 -58 -4.5 -86.5z" />
    <glyph glyph-name="Adieresis" unicode="&#xc4;" horiz-adv-x="606" 
d="M403 0l-21 110h-162l-20 -110h-202l159 688h293l158 -688h-205zM304 515h-8l-46 -253h102zM128 777v119h150v-119h-150zM327 777v119h151v-119h-151z" />
    <glyph glyph-name="Aring" unicode="&#xc5;" horiz-adv-x="606" 
d="M608 0h-205l-21 110h-162l-20 -110h-202l159 687q-10 15 -13.5 36t-3.5 56q0 54 10.5 81t44.5 39.5t108 12.5t108 -12.5t44.5 -39.5t10.5 -81q0 -33 -3.5 -54.5t-12.5 -36.5zM339.5 735q10.5 4 13 13t2.5 31q0 23 -2.5 32t-13 13t-36.5 4q-25 0 -35 -4t-12.5 -13
t-2.5 -32q0 -22 2.5 -31t12.5 -13t35 -4q26 0 36.5 4zM250 262h102l-48 253h-8z" />
    <glyph glyph-name="AE" unicode="&#xc6;" horiz-adv-x="837" 
d="M388 0l-10 112h-166l-32 -112h-202l245 688h573v-157h-271l10 -106h225v-155h-209l11 -113h234v-157h-408zM344 529h-8l-78 -265h108z" />
    <glyph glyph-name="Ccedilla" unicode="&#xc7;" horiz-adv-x="485" 
d="M455 9q-26 -7 -68 -11.5t-84 -5.5l-31 -181h-164v5l74 186q-63 15 -94.5 53.5t-41.5 104.5t-10 184q0 145 17.5 216.5t72.5 103.5t170 32q41 0 84.5 -5t71.5 -13v-146q-87 7 -110 7q-52 0 -71 -11.5t-23.5 -47.5t-4.5 -136q0 -101 4.5 -136.5t23.5 -47t71 -11.5
q57 0 113 7v-147z" />
    <glyph glyph-name="Egrave" unicode="&#xc8;" horiz-adv-x="514" 
d="M46 0v688h428v-157h-223v-106h186v-155h-186v-113h223v-157h-428zM214 750l-109 143v5h178l69 -143v-5h-138z" />
    <glyph glyph-name="Eacute" unicode="&#xc9;" horiz-adv-x="514" 
d="M46 0v688h428v-157h-223v-106h186v-155h-186v-113h223v-157h-428zM185 750v5l70 143h177v-5l-109 -143h-138z" />
    <glyph glyph-name="Ecircumflex" unicode="&#xca;" horiz-adv-x="514" 
d="M46 0v688h428v-157h-223v-106h186v-155h-186v-113h223v-157h-428zM90 750v9l82 131h172l83 -131v-9h-122l-47 67l-46 -67h-122z" />
    <glyph glyph-name="Edieresis" unicode="&#xcb;" horiz-adv-x="514" 
d="M46 0v688h428v-157h-223v-106h186v-155h-186v-113h223v-157h-428zM85 760v119h150v-119h-150zM284 760v119h151v-119h-151z" />
    <glyph glyph-name="Igrave" unicode="&#xcc;" horiz-adv-x="298" 
d="M46 0v688h206v-688h-206zM113 750l-109 143v5h178l69 -143v-5h-138z" />
    <glyph glyph-name="Iacute" unicode="&#xcd;" horiz-adv-x="298" 
d="M46 0v688h206v-688h-206zM48 749v5l70 143h177v-5l-109 -143h-138z" />
    <glyph glyph-name="Icircumflex" unicode="&#xce;" horiz-adv-x="298" 
d="M46 0v688h206v-688h-206zM-20 749v9l82 131h172l83 -131v-9h-122l-47 67l-46 -67h-122z" />
    <glyph glyph-name="Idieresis" unicode="&#xcf;" horiz-adv-x="298" 
d="M46 0v688h206v-688h-206zM-26 777v119h150v-119h-150zM173 777v119h151v-119h-151z" />
    <glyph glyph-name="Eth" unicode="&#xd0;" horiz-adv-x="585" 
d="M46 279h-52v138h52v271h227q136 0 192.5 -29.5t70 -94.5t13.5 -220t-13.5 -220t-70 -94.5t-192.5 -29.5h-227v279zM323.5 166q12.5 9 15.5 42.5t3 134.5q0 103 -3 136.5t-15 42.5t-49 9h-24v-114h53v-138h-53v-122h24q36 0 48.5 9z" />
    <glyph glyph-name="Ntilde" unicode="&#xd1;" horiz-adv-x="615" 
d="M383 0l-136 316h-5v-316h-197v688h206l115 -267h7v267h197v-688h-187zM487.5 825.5q-4.5 -28.5 -24.5 -45.5t-65 -17q-39 0 -103 15l-24 4q-23 5 -34 5q-13 0 -16 -7t-3 -29h-95q0 57 4.5 86t25 46t64.5 17q40 0 104 -15q43 -9 57 -9q13 0 16 7t3 29h95q0 -58 -4.5 -86.5
z" />
    <glyph glyph-name="Ograve" unicode="&#xd2;" horiz-adv-x="602" 
d="M116 23q-55 31 -67.5 97.5t-12.5 223.5t12.5 223.5t67.5 97.5t184 31q130 0 184.5 -31t67.5 -97.5t13 -223.5t-13 -223.5t-67.5 -97.5t-184.5 -31q-129 0 -184 31zM342.5 158.5q10.5 9.5 13 44t2.5 141.5t-2.5 141.5t-13 44t-42.5 9.5q-31 0 -41.5 -9.5t-13 -44
t-2.5 -141.5t2.5 -141.5t13 -44t41.5 -9.5q32 0 42.5 9.5zM241 750l-109 143v5h178l69 -143v-5h-138z" />
    <glyph glyph-name="Oacute" unicode="&#xd3;" horiz-adv-x="602" 
d="M116 23q-55 31 -67.5 97.5t-12.5 223.5t12.5 223.5t67.5 97.5t184 31q130 0 184.5 -31t67.5 -97.5t13 -223.5t-13 -223.5t-67.5 -97.5t-184.5 -31q-129 0 -184 31zM342.5 158.5q10.5 9.5 13 44t2.5 141.5t-2.5 141.5t-13 44t-42.5 9.5q-31 0 -41.5 -9.5t-13 -44
t-2.5 -141.5t2.5 -141.5t13 -44t41.5 -9.5q32 0 42.5 9.5zM223 750v5l70 143h177v-5l-109 -143h-138z" />
    <glyph glyph-name="Ocircumflex" unicode="&#xd4;" horiz-adv-x="602" 
d="M116 23q-55 31 -67.5 97.5t-12.5 223.5t12.5 223.5t67.5 97.5t184 31q130 0 184.5 -31t67.5 -97.5t13 -223.5t-13 -223.5t-67.5 -97.5t-184.5 -31q-129 0 -184 31zM342.5 158.5q10.5 9.5 13 44t2.5 141.5t-2.5 141.5t-13 44t-42.5 9.5q-31 0 -41.5 -9.5t-13 -44
t-2.5 -141.5t2.5 -141.5t13 -44t41.5 -9.5q32 0 42.5 9.5zM132 750v9l82 131h172l83 -131v-9h-122l-47 67l-46 -67h-122z" />
    <glyph glyph-name="Otilde" unicode="&#xd5;" horiz-adv-x="602" 
d="M116 23q-55 31 -67.5 97.5t-12.5 223.5t12.5 223.5t67.5 97.5t184 31q130 0 184.5 -31t67.5 -97.5t13 -223.5t-13 -223.5t-67.5 -97.5t-184.5 -31q-129 0 -184 31zM342.5 158.5q10.5 9.5 13 44t2.5 141.5t-2.5 141.5t-13 44t-42.5 9.5q-31 0 -41.5 -9.5t-13 -44
t-2.5 -141.5t2.5 -141.5t13 -44t41.5 -9.5q32 0 42.5 9.5zM482.5 824.5q-4.5 -28.5 -24.5 -45.5t-65 -17q-39 0 -103 15l-24 4q-23 5 -34 5q-13 0 -16 -7t-3 -29h-95q0 57 4.5 86t25 46t64.5 17q40 0 104 -15q43 -9 57 -9q13 0 16 7t3 29h95q0 -58 -4.5 -86.5z" />
    <glyph glyph-name="Odieresis" unicode="&#xd6;" horiz-adv-x="602" 
d="M116 23q-55 31 -67.5 97.5t-12.5 223.5t12.5 223.5t67.5 97.5t184 31q130 0 184.5 -31t67.5 -97.5t13 -223.5t-13 -223.5t-67.5 -97.5t-184.5 -31q-129 0 -184 31zM342.5 158.5q10.5 9.5 13 44t2.5 141.5t-2.5 141.5t-13 44t-42.5 9.5q-31 0 -41.5 -9.5t-13 -44
t-2.5 -141.5t2.5 -141.5t13 -44t41.5 -9.5q32 0 42.5 9.5zM126 777v119h150v-119h-150zM325 777v119h151v-119h-151z" />
    <glyph glyph-name="multiply" unicode="&#xd7;" horiz-adv-x="500" 
d="M250 156l-89 -89l-97 98l89 88l-90 90l98 98l90 -90l90 90l96 -97l-89 -89l89 -90l-98 -98z" />
    <glyph glyph-name="Oslash" unicode="&#xd8;" horiz-adv-x="602" 
d="M516 640q23 -25 33.5 -64t13 -89.5t2.5 -142.5q0 -157 -13 -223.5t-67.5 -97.5t-184.5 -31q-50 0 -83 4l-23 -51h-158l48 103q-22 25 -32.5 64t-13 89.5t-2.5 142.5q0 157 12.5 223.5t67.5 97.5t184 31q51 0 83 -4l24 51h158zM342.5 158.5q10.5 9.5 13 44t2.5 141.5
t-2.5 141.5t-13 44t-42.5 9.5q-31 0 -41.5 -9.5t-13 -44t-2.5 -141.5t2.5 -141.5t13 -44t41.5 -9.5q32 0 42.5 9.5z" />
    <glyph glyph-name="Ugrave" unicode="&#xd9;" horiz-adv-x="590" 
d="M546 688v-375q0 -142 -12.5 -202.5t-64.5 -89.5t-174 -29t-174 29t-64.5 89.5t-12.5 202.5v375h207v-418q0 -64 2 -85.5t10 -27.5t32 -6t32.5 6t10.5 28t2 85v418h206zM232 750l-109 143v5h178l69 -143v-5h-138z" />
    <glyph glyph-name="Uacute" unicode="&#xda;" horiz-adv-x="590" 
d="M546 688v-375q0 -142 -12.5 -202.5t-64.5 -89.5t-174 -29t-174 29t-64.5 89.5t-12.5 202.5v375h207v-418q0 -64 2 -85.5t10 -27.5t32 -6t32.5 6t10.5 28t2 85v418h206zM220 750v5l70 143h177v-5l-109 -143h-138z" />
    <glyph glyph-name="Ucircumflex" unicode="&#xdb;" horiz-adv-x="590" 
d="M546 688v-375q0 -142 -12.5 -202.5t-64.5 -89.5t-174 -29t-174 29t-64.5 89.5t-12.5 202.5v375h207v-418q0 -64 2 -85.5t10 -27.5t32 -6t32.5 6t10.5 28t2 85v418h206zM126 750v9l82 131h172l83 -131v-9h-122l-47 67l-46 -67h-122z" />
    <glyph glyph-name="Udieresis" unicode="&#xdc;" horiz-adv-x="590" 
d="M546 688v-375q0 -142 -12.5 -202.5t-64.5 -89.5t-174 -29t-174 29t-64.5 89.5t-12.5 202.5v375h207v-418q0 -64 2 -85.5t10 -27.5t32 -6t32.5 6t10.5 28t2 85v418h206zM120 777v119h150v-119h-150zM319 777v119h151v-119h-151z" />
    <glyph glyph-name="Yacute" unicode="&#xdd;" horiz-adv-x="575" 
d="M184 0v225l-187 463h210l80 -267h8l78 267h205l-187 -463v-225h-207zM220 750v5l70 143h177v-5l-109 -143h-138z" />
    <glyph glyph-name="Thorn" unicode="&#xde;" horiz-adv-x="559" 
d="M46 688h206v-95h94q83 0 124.5 -25.5t56 -76t14.5 -139.5q0 -84 -13 -133.5t-55.5 -78t-126.5 -28.5h-94v-112h-206v688zM279 267q27 0 37.5 4.5t14 21.5t3.5 59q0 43 -3.5 60t-14 21.5t-37.5 4.5h-27v-171h27z" />
    <glyph glyph-name="germandbls" unicode="&#xdf;" horiz-adv-x="535" 
d="M268 0v140h4q21 0 29.5 5.5t11.5 28t3 80.5q0 54 -3.5 75.5t-12 27t-31.5 5.5h-5v140h5q20 0 27.5 3t9 13t1.5 39q0 24 -3 35t-10 14.5t-22 3.5q-19 0 -27.5 -4t-12 -18.5t-3.5 -46.5v-541h-190v553q0 69 21.5 112t71.5 64t137 21q88 0 138.5 -19t71.5 -55.5t21 -93.5
q0 -65 -25.5 -99t-79.5 -44v-4q58 -12 85 -55.5t27 -138.5q0 -92 -17 -143t-64.5 -74.5t-138.5 -23.5h-19z" />
    <glyph glyph-name="agrave" unicode="&#xe0;" horiz-adv-x="501" 
d="M54 30q-30 38 -30 119q0 60 12.5 93t44.5 47.5t93 14.5q40 0 98 -4v19q0 30 -5.5 41.5t-23 14.5t-64.5 3q-56 0 -130 -6v130q98 16 188 16q100 0 148 -22.5t62.5 -66t14.5 -124.5v-305h-185l-4 56h-9q-22 -37 -49.5 -50.5t-65.5 -13.5q-65 0 -95 38zM257.5 130
q7.5 4 11.5 13q3 9 3 44v27h-34q-25 0 -31.5 -8.5t-6.5 -39.5q0 -24 6 -32t30 -8q14 0 21.5 4zM190 595l-109 143v5h178l69 -143v-5h-138z" />
    <glyph glyph-name="aacute" unicode="&#xe1;" horiz-adv-x="501" 
d="M54 30q-30 38 -30 119q0 60 12.5 93t44.5 47.5t93 14.5q40 0 98 -4v19q0 30 -5.5 41.5t-23 14.5t-64.5 3q-56 0 -130 -6v130q98 16 188 16q100 0 148 -22.5t62.5 -66t14.5 -124.5v-305h-185l-4 56h-9q-22 -37 -49.5 -50.5t-65.5 -13.5q-65 0 -95 38zM257.5 130
q7.5 4 11.5 13q3 9 3 44v27h-34q-25 0 -31.5 -8.5t-6.5 -39.5q0 -24 6 -32t30 -8q14 0 21.5 4zM179 595v5l70 143h177v-5l-109 -143h-138z" />
    <glyph glyph-name="acircumflex" unicode="&#xe2;" horiz-adv-x="501" 
d="M54 30q-30 38 -30 119q0 60 12.5 93t44.5 47.5t93 14.5q40 0 98 -4v19q0 30 -5.5 41.5t-23 14.5t-64.5 3q-56 0 -130 -6v130q98 16 188 16q100 0 148 -22.5t62.5 -66t14.5 -124.5v-305h-185l-4 56h-9q-22 -37 -49.5 -50.5t-65.5 -13.5q-65 0 -95 38zM257.5 130
q7.5 4 11.5 13q3 9 3 44v27h-34q-25 0 -31.5 -8.5t-6.5 -39.5q0 -24 6 -32t30 -8q14 0 21.5 4zM85 603v9l82 131h172l83 -131v-9h-122l-47 67l-46 -67h-122z" />
    <glyph glyph-name="atilde" unicode="&#xe3;" horiz-adv-x="501" 
d="M54 30q-30 38 -30 119q0 60 12.5 93t44.5 47.5t93 14.5q40 0 98 -4v19q0 30 -5.5 41.5t-23 14.5t-64.5 3q-56 0 -130 -6v130q98 16 188 16q100 0 148 -22.5t62.5 -66t14.5 -124.5v-305h-185l-4 56h-9q-22 -37 -49.5 -50.5t-65.5 -13.5q-65 0 -95 38zM257.5 130
q7.5 4 11.5 13q3 9 3 44v27h-34q-25 0 -31.5 -8.5t-6.5 -39.5q0 -24 6 -32t30 -8q14 0 21.5 4zM430.5 656.5q-4.5 -28.5 -24.5 -45.5t-65 -17q-39 0 -103 15l-24 4q-23 5 -34 5q-13 0 -16 -7t-3 -29h-95q0 57 4.5 86t25 46t64.5 17q40 0 104 -15q43 -9 57 -9q13 0 16 7t3 29
h95q0 -58 -4.5 -86.5z" />
    <glyph glyph-name="adieresis" unicode="&#xe4;" horiz-adv-x="501" 
d="M54 30q-30 38 -30 119q0 60 12.5 93t44.5 47.5t93 14.5q40 0 98 -4v19q0 30 -5.5 41.5t-23 14.5t-64.5 3q-56 0 -130 -6v130q98 16 188 16q100 0 148 -22.5t62.5 -66t14.5 -124.5v-305h-185l-4 56h-9q-22 -37 -49.5 -50.5t-65.5 -13.5q-65 0 -95 38zM257.5 130
q7.5 4 11.5 13q3 9 3 44v27h-34q-25 0 -31.5 -8.5t-6.5 -39.5q0 -24 6 -32t30 -8q14 0 21.5 4zM79 611v119h150v-119h-150zM278 611v119h151v-119h-151z" />
    <glyph glyph-name="aring" unicode="&#xe5;" horiz-adv-x="501" 
d="M54 30q-30 38 -30 119q0 60 12.5 93t44.5 47.5t93 14.5q40 0 98 -4v19q0 30 -5.5 41.5t-23 14.5t-64.5 3q-56 0 -130 -6v130q98 16 188 16q100 0 148 -22.5t62.5 -66t14.5 -124.5v-305h-185l-4 56h-9q-22 -37 -49.5 -50.5t-65.5 -13.5q-65 0 -95 38zM257.5 130
q7.5 4 11.5 13q3 9 3 44v27h-34q-25 0 -31.5 -8.5t-6.5 -39.5q0 -24 6 -32t30 -8q14 0 21.5 4zM159.5 592.5q-30.5 11.5 -40 35t-9.5 71.5t9.5 72t40.5 36t96 12q66 0 97 -11.5t40 -36t9 -72.5t-9 -71.5t-40 -35t-97 -11.5t-96.5 11.5zM288.5 659.5q9.5 3.5 11.5 11.5t2 28
t-2 28.5t-11.5 12t-32.5 3.5q-22 0 -31.5 -3.5t-11.5 -12t-2 -28.5t2 -28t11.5 -11.5t31.5 -3.5q23 0 32.5 3.5z" />
    <glyph glyph-name="ae" unicode="&#xe6;" horiz-adv-x="743" 
d="M712 214h-250q0 -43 5.5 -58.5t24 -19.5t69.5 -4q43 0 135 6v-128q-29 -8 -79.5 -13t-101.5 -5q-117 0 -164 35q-33 -20 -71 -27.5t-88 -7.5q-69 0 -105.5 16.5t-49.5 50t-13 90.5q0 60 12.5 93t44.5 47.5t93 14.5q40 0 98 -4v19q0 30 -5.5 41.5t-23 14.5t-64.5 3
q-56 0 -130 -6v130q91 16 175 16q93 0 146 -35q50 35 142 35q98 0 139.5 -24.5t51 -74t9.5 -165.5v-40zM474 383.5q-7 -4.5 -9.5 -21.5t-2.5 -59h74q0 44 -2.5 60.5t-9.5 20.5t-26 4q-17 0 -24 -4.5zM272 214h-34q-25 0 -31.5 -8.5t-6.5 -39.5q0 -25 6 -33.5t30 -8.5
q18 0 25.5 6t9.5 19q1 11 1 37v28z" />
    <glyph glyph-name="ccedilla" unicode="&#xe7;" horiz-adv-x="406" 
d="M379 9q-56 -13 -116 -16l-31 -182h-164v5l74 186q-51 14 -76 47.5t-32 80.5t-7 124q0 97 12.5 150.5t56.5 83.5t138 30q78 0 142 -16v-129q-55 5 -87 5q-34 0 -47.5 -8t-18 -32t-4.5 -83q0 -60 4 -84t18 -31.5t48 -7.5t90 6v-129z" />
    <glyph glyph-name="egrave" unicode="&#xe8;" horiz-adv-x="494" 
d="M464 214h-250q0 -43 5.5 -58.5t23.5 -19.5t69 -4q40 0 136 6v-128q-28 -8 -79 -13t-102 -5q-112 0 -163 26.5t-64 78t-13 157.5t13 158.5t60 79t150 26.5q105 0 149.5 -24.5t54.5 -74t10 -165.5v-40zM226 383.5q-7 -4.5 -9.5 -21.5t-2.5 -59h74q0 43 -2.5 59.5t-9.5 21
t-26 4.5q-17 0 -24 -4.5zM191 595l-109 143v5h178l69 -143v-5h-138z" />
    <glyph glyph-name="eacute" unicode="&#xe9;" horiz-adv-x="494" 
d="M464 214h-250q0 -43 5.5 -58.5t23.5 -19.5t69 -4q40 0 136 6v-128q-28 -8 -79 -13t-102 -5q-112 0 -163 26.5t-64 78t-13 157.5t13 158.5t60 79t150 26.5q105 0 149.5 -24.5t54.5 -74t10 -165.5v-40zM226 383.5q-7 -4.5 -9.5 -21.5t-2.5 -59h74q0 43 -2.5 59.5t-9.5 21
t-26 4.5q-17 0 -24 -4.5zM183 595v5l70 143h177v-5l-109 -143h-138z" />
    <glyph glyph-name="ecircumflex" unicode="&#xea;" horiz-adv-x="494" 
d="M464 214h-250q0 -43 5.5 -58.5t23.5 -19.5t69 -4q40 0 136 6v-128q-28 -8 -79 -13t-102 -5q-112 0 -163 26.5t-64 78t-13 157.5t13 158.5t60 79t150 26.5q105 0 149.5 -24.5t54.5 -74t10 -165.5v-40zM226 383.5q-7 -4.5 -9.5 -21.5t-2.5 -59h74q0 43 -2.5 59.5t-9.5 21
t-26 4.5q-17 0 -24 -4.5zM88 603v9l82 131h172l83 -131v-9h-122l-47 67l-46 -67h-122z" />
    <glyph glyph-name="edieresis" unicode="&#xeb;" horiz-adv-x="494" 
d="M464 214h-250q0 -43 5.5 -58.5t23.5 -19.5t69 -4q40 0 136 6v-128q-28 -8 -79 -13t-102 -5q-112 0 -163 26.5t-64 78t-13 157.5t13 158.5t60 79t150 26.5q105 0 149.5 -24.5t54.5 -74t10 -165.5v-40zM226 383.5q-7 -4.5 -9.5 -21.5t-2.5 -59h74q0 43 -2.5 59.5t-9.5 21
t-26 4.5q-17 0 -24 -4.5zM81 611v119h150v-119h-150zM280 611v119h151v-119h-151z" />
    <glyph glyph-name="igrave" unicode="&#xec;" horiz-adv-x="272" 
d="M39 0v510h193v-510h-193zM93 595l-109 143v5h178l69 -143v-5h-138z" />
    <glyph glyph-name="iacute" unicode="&#xed;" horiz-adv-x="272" 
d="M39 0v510h193v-510h-193zM39 595v5l70 143h177v-5l-109 -143h-138z" />
    <glyph glyph-name="icircumflex" unicode="&#xee;" horiz-adv-x="272" 
d="M39 0v510h193v-510h-193zM-33 603v9l82 131h172l83 -131v-9h-122l-47 67l-46 -67h-122z" />
    <glyph glyph-name="idieresis" unicode="&#xef;" horiz-adv-x="272" 
d="M39 0v510h193v-510h-193zM-39 611v119h150v-119h-150zM160 611v119h151v-119h-151z" />
    <glyph glyph-name="eth" unicode="&#xf0;" horiz-adv-x="507" 
d="M99.5 14.5q-46.5 22.5 -59.5 74t-13 166.5q0 101 11 155t44.5 81t103.5 27q25 0 69 -7l5 4q-7 27 -23 65l-115 -15v100l58 7q-24 30 -61 67v4h199q21 -20 39 -46l117 16v-100l-54 -9q34 -69 49 -171q10 -77 10 -179q0 -114 -13 -165.5t-59.5 -74t-153.5 -22.5
t-153.5 22.5zM279.5 138.5q6.5 6.5 8.5 29t2 87.5t-2 87.5t-8.5 29t-26.5 6.5q-19 0 -26 -6.5t-8.5 -28.5t-1.5 -88t1.5 -88t8.5 -28.5t26 -6.5q20 0 26.5 6.5z" />
    <glyph glyph-name="ntilde" unicode="&#xf1;" horiz-adv-x="522" 
d="M293 271q0 50 -1.5 67t-7 21.5t-22.5 4.5q-18 0 -24 -5t-7.5 -23.5t-1.5 -72.5v-263h-190v510h184l4 -57h10q34 65 119 65q55 0 82 -20.5t36 -60t9 -109.5v-328h-190v271zM444.5 656.5q-4.5 -28.5 -24.5 -45.5t-65 -17q-39 0 -103 15l-24 4q-23 5 -34 5q-13 0 -16 -7
t-3 -29h-95q0 57 4.5 86t25 46t64.5 17q40 0 104 -15q43 -9 57 -9q13 0 16 7t3 29h95q0 -58 -4.5 -86.5z" />
    <glyph glyph-name="ograve" unicode="&#xf2;" horiz-adv-x="507" 
d="M99.5 14q-46.5 22 -59.5 73.5t-13 167.5t13 167.5t59.5 73.5t153.5 22t153.5 -22t59.5 -73.5t13 -167.5t-13 -167.5t-59.5 -73.5t-153.5 -22t-153.5 22zM279.5 138.5q6.5 6.5 8.5 29t2 87.5t-2 87.5t-8.5 29t-26.5 6.5q-19 0 -26 -6.5t-8.5 -28.5t-1.5 -88t1.5 -88
t8.5 -28.5t26 -6.5q20 0 26.5 6.5zM189 595l-109 143v5h178l69 -143v-5h-138z" />
    <glyph glyph-name="oacute" unicode="&#xf3;" horiz-adv-x="507" 
d="M99.5 14q-46.5 22 -59.5 73.5t-13 167.5t13 167.5t59.5 73.5t153.5 22t153.5 -22t59.5 -73.5t13 -167.5t-13 -167.5t-59.5 -73.5t-153.5 -22t-153.5 22zM279.5 138.5q6.5 6.5 8.5 29t2 87.5t-2 87.5t-8.5 29t-26.5 6.5q-19 0 -26 -6.5t-8.5 -28.5t-1.5 -88t1.5 -88
t8.5 -28.5t26 -6.5q20 0 26.5 6.5zM174 595v5l70 143h177v-5l-109 -143h-138z" />
    <glyph glyph-name="ocircumflex" unicode="&#xf4;" horiz-adv-x="507" 
d="M99.5 14q-46.5 22 -59.5 73.5t-13 167.5t13 167.5t59.5 73.5t153.5 22t153.5 -22t59.5 -73.5t13 -167.5t-13 -167.5t-59.5 -73.5t-153.5 -22t-153.5 22zM279.5 138.5q6.5 6.5 8.5 29t2 87.5t-2 87.5t-8.5 29t-26.5 6.5q-19 0 -26 -6.5t-8.5 -28.5t-1.5 -88t1.5 -88
t8.5 -28.5t26 -6.5q20 0 26.5 6.5zM87 603v9l82 131h172l83 -131v-9h-122l-47 67l-46 -67h-122z" />
    <glyph glyph-name="otilde" unicode="&#xf5;" horiz-adv-x="507" 
d="M99.5 14q-46.5 22 -59.5 73.5t-13 167.5t13 167.5t59.5 73.5t153.5 22t153.5 -22t59.5 -73.5t13 -167.5t-13 -167.5t-59.5 -73.5t-153.5 -22t-153.5 22zM279.5 138.5q6.5 6.5 8.5 29t2 87.5t-2 87.5t-8.5 29t-26.5 6.5q-19 0 -26 -6.5t-8.5 -28.5t-1.5 -88t1.5 -88
t8.5 -28.5t26 -6.5q20 0 26.5 6.5zM435.5 656.5q-4.5 -28.5 -24.5 -45.5t-65 -17q-39 0 -103 15l-24 4q-23 5 -34 5q-13 0 -16 -7t-3 -29h-95q0 57 4.5 86t25 46t64.5 17q40 0 104 -15q43 -9 57 -9q13 0 16 7t3 29h95q0 -58 -4.5 -86.5z" />
    <glyph glyph-name="odieresis" unicode="&#xf6;" horiz-adv-x="507" 
d="M99.5 14q-46.5 22 -59.5 73.5t-13 167.5t13 167.5t59.5 73.5t153.5 22t153.5 -22t59.5 -73.5t13 -167.5t-13 -167.5t-59.5 -73.5t-153.5 -22t-153.5 22zM279.5 138.5q6.5 6.5 8.5 29t2 87.5t-2 87.5t-8.5 29t-26.5 6.5q-19 0 -26 -6.5t-8.5 -28.5t-1.5 -88t1.5 -88
t8.5 -28.5t26 -6.5q20 0 26.5 6.5zM81 611v119h150v-119h-150zM280 611v119h151v-119h-151z" />
    <glyph glyph-name="divide" unicode="&#xf7;" horiz-adv-x="506" 
d="M184 376v109h138v-109h-138zM63 184v137h381v-137h-381zM184 21v109h138v-109h-138z" />
    <glyph glyph-name="oslash" unicode="&#xf8;" horiz-adv-x="507" 
d="M70 34q-27 27 -35 76t-8 145q0 116 13 167.5t59.5 73.5t153.5 22q18 0 46 -2l22 49h158l-42 -90q26 -27 34 -76t8 -144q0 -116 -13 -167.5t-59.5 -73.5t-153.5 -22q-31 0 -45 1l-22 -48h-158zM279.5 138.5q6.5 6.5 8.5 29t2 87.5t-2 87.5t-8.5 29t-26.5 6.5
q-19 0 -26 -6.5t-8.5 -28.5t-1.5 -88t1.5 -88t8.5 -28.5t26 -6.5q20 0 26.5 6.5z" />
    <glyph glyph-name="ugrave" unicode="&#xf9;" horiz-adv-x="522" 
d="M295 57h-9q-34 -65 -120 -65q-55 0 -82 20.5t-36 60t-9 109.5v328h190v-271q0 -50 1.5 -67t7 -21.5t22.5 -4.5q18 0 24 5t7.5 23.5t1.5 72.5v263h190v-510h-184zM195 595l-109 143v5h178l69 -143v-5h-138z" />
    <glyph glyph-name="uacute" unicode="&#xfa;" horiz-adv-x="522" 
d="M295 57h-9q-34 -65 -120 -65q-55 0 -82 20.5t-36 60t-9 109.5v328h190v-271q0 -50 1.5 -67t7 -21.5t22.5 -4.5q18 0 24 5t7.5 23.5t1.5 72.5v263h190v-510h-184zM193 595v5l70 143h177v-5l-109 -143h-138z" />
    <glyph glyph-name="ucircumflex" unicode="&#xfb;" horiz-adv-x="522" 
d="M295 57h-9q-34 -65 -120 -65q-55 0 -82 20.5t-36 60t-9 109.5v328h190v-271q0 -50 1.5 -67t7 -21.5t22.5 -4.5q18 0 24 5t7.5 23.5t1.5 72.5v263h190v-510h-184zM92 603v9l82 131h172l83 -131v-9h-122l-47 67l-46 -67h-122z" />
    <glyph glyph-name="udieresis" unicode="&#xfc;" horiz-adv-x="522" 
d="M295 57h-9q-34 -65 -120 -65q-55 0 -82 20.5t-36 60t-9 109.5v328h190v-271q0 -50 1.5 -67t7 -21.5t22.5 -4.5q18 0 24 5t7.5 23.5t1.5 72.5v263h190v-510h-184zM86 611v119h150v-119h-150zM285 611v119h151v-119h-151z" />
    <glyph glyph-name="yacute" unicode="&#xfd;" horiz-adv-x="522" 
d="M152 -202.5q-47 3.5 -76 9.5v127h121q52 0 69.5 4t22 19.5t4.5 61.5v53h-10q-20 -37 -51.5 -51t-65.5 -14q-55 0 -82 20.5t-36 60t-9 109.5v313h190v-255q0 -51 1.5 -68t7 -21.5t22.5 -4.5q18 0 24 5t7.5 23.5t1.5 72.5v248h190v-455q0 -101 -13 -152.5t-64 -80
t-162 -28.5q-45 0 -92 3.5zM186 595v5l70 143h177v-5l-109 -143h-138z" />
    <glyph glyph-name="thorn" unicode="&#xfe;" horiz-adv-x="519" 
d="M39 743h190v-290h11q16 36 45 50.5t68 14.5q51 0 80.5 -22.5t43.5 -79t14 -160.5q0 -102 -13.5 -159t-43.5 -80.5t-82 -23.5q-39 0 -67 13t-46 45h-10v-240h-190v932zM291.5 150q6.5 5 8.5 25.5t2 79.5t-2 79.5t-8.5 25.5t-26.5 5q-18 0 -24.5 -5t-8.5 -26q-3 -17 -3 -79
q0 -67 2 -79q3 -21 10 -26t24 -5q20 0 26.5 5z" />
    <glyph glyph-name="ydieresis" unicode="&#xff;" horiz-adv-x="522" 
d="M152 -202.5q-47 3.5 -76 9.5v127h121q52 0 69.5 4t22 19.5t4.5 61.5v53h-10q-20 -37 -51.5 -51t-65.5 -14q-55 0 -82 20.5t-36 60t-9 109.5v313h190v-255q0 -51 1.5 -68t7 -21.5t22.5 -4.5q18 0 24 5t7.5 23.5t1.5 72.5v248h190v-455q0 -101 -13 -152.5t-64 -80
t-162 -28.5q-45 0 -92 3.5zM87 611v119h150v-119h-150zM286 611v119h151v-119h-151z" />
    <glyph glyph-name="Amacron" unicode="&#x100;" horiz-adv-x="606" 
d="M403 0l-21 110h-162l-20 -110h-202l159 688h293l158 -688h-205zM304 515h-8l-46 -253h102zM176 739v149h257v-149h-257z" />
    <glyph glyph-name="amacron" unicode="&#x101;" horiz-adv-x="501" 
d="M54 30q-30 38 -30 119q0 60 12.5 93t44.5 47.5t93 14.5q40 0 98 -4v19q0 30 -5.5 41.5t-23 14.5t-64.5 3q-56 0 -130 -6v130q98 16 188 16q100 0 148 -22.5t62.5 -66t14.5 -124.5v-305h-185l-4 56h-9q-22 -37 -49.5 -50.5t-65.5 -13.5q-65 0 -95 38zM257.5 130
q7.5 4 11.5 13q3 9 3 44v27h-34q-25 0 -31.5 -8.5t-6.5 -39.5q0 -24 6 -32t30 -8q14 0 21.5 4zM123 594v149h257v-149h-257z" />
    <glyph glyph-name="Abreve" unicode="&#x102;" horiz-adv-x="606" 
d="M403 0l-21 110h-162l-20 -110h-202l159 688h293l158 -688h-205zM304 515h-8l-46 -253h102zM442.5 810q-11.5 -31 -44.5 -48.5t-95 -17.5q-61 0 -94 17.5t-44.5 48.5t-11.5 78h103q0 -25 7.5 -36.5t39.5 -11.5q23 0 33 6t12.5 15.5t2.5 26.5h103q0 -47 -11.5 -78z" />
    <glyph glyph-name="abreve" unicode="&#x103;" horiz-adv-x="501" 
d="M54 30q-30 38 -30 119q0 60 12.5 93t44.5 47.5t93 14.5q40 0 98 -4v19q0 30 -5.5 41.5t-23 14.5t-64.5 3q-56 0 -130 -6v130q98 16 188 16q100 0 148 -22.5t62.5 -66t14.5 -124.5v-305h-185l-4 56h-9q-22 -37 -49.5 -50.5t-65.5 -13.5q-65 0 -95 38zM257.5 130
q7.5 4 11.5 13q3 9 3 44v27h-34q-25 0 -31.5 -8.5t-6.5 -39.5q0 -24 6 -32t30 -8q14 0 21.5 4zM389.5 665q-11.5 -31 -44.5 -48.5t-95 -17.5q-61 0 -94 17.5t-44.5 48.5t-11.5 78h103q0 -25 7.5 -36.5t39.5 -11.5q23 0 33 6t12.5 15.5t2.5 26.5h103q0 -47 -11.5 -78z" />
    <glyph glyph-name="Aogonek" unicode="&#x104;" horiz-adv-x="606" 
d="M503 -97q9 -9 34 -9l14 1v-87q-38 -4 -75 -4q-70 0 -99.5 25t-29.5 65q0 26 15 54.5t41 52.5l-21 109h-162l-20 -110h-202l159 688h293l158 -688h-64q-20 -14 -35 -33.5t-15 -37.5q0 -17 9 -26zM250 262h102l-48 253h-8z" />
    <glyph glyph-name="aogonek" unicode="&#x105;" horiz-adv-x="501" 
d="M421.5 -31q-17.5 -21 -17.5 -43q0 -32 42 -32l15 1v-87q-40 -4 -74 -4q-69 0 -99.5 24.5t-30.5 62.5q0 54 60 109h-40l-4 56h-9q-22 -37 -49.5 -50.5t-65.5 -13.5q-65 0 -95 38t-30 119q0 60 12.5 93t44.5 47.5t93 14.5q40 0 98 -4v19q0 30 -5.5 41.5t-23 14.5t-64.5 3
q-36 0 -81 -3t-49 -3v130q98 16 188 16q100 0 148 -22.5t62.5 -66t14.5 -124.5v-305q-23 -10 -40.5 -31zM272 214h-34q-25 0 -31.5 -8.5t-6.5 -39.5q0 -24 6 -32t30 -8q14 0 21.5 4t11.5 13q3 9 3 44v27z" />
    <glyph glyph-name="Cacute" unicode="&#x106;" horiz-adv-x="485" 
d="M382 -3q-45 -5 -86 -5q-116 0 -170.5 32t-72 103.5t-17.5 216.5t17.5 216.5t72.5 103.5t170 32q41 0 84.5 -5t71.5 -13v-146q-87 7 -110 7q-52 0 -71 -11.5t-23.5 -47.5t-4.5 -136q0 -101 4.5 -136.5t23.5 -47t71 -11.5q57 0 113 7v-147q-28 -7 -73 -12zM170 740v5
l70 143h177v-5l-109 -143h-138z" />
    <glyph glyph-name="cacute" unicode="&#x107;" horiz-adv-x="406" 
d="M234 -8q-93 0 -137.5 30t-57 83.5t-12.5 148.5q0 97 12.5 150.5t56.5 83.5t138 30q78 0 142 -16v-129q-55 5 -87 5q-34 0 -47.5 -8t-18 -32t-4.5 -83q0 -60 4 -84t18 -31.5t48 -7.5t90 6v-129q-76 -17 -145 -17zM134 595v5l70 143h177v-5l-109 -143h-138z" />
    <glyph glyph-name="Ccircumflex" unicode="&#x108;" horiz-adv-x="485" 
d="M382 -3q-45 -5 -86 -5q-116 0 -170.5 32t-72 103.5t-17.5 216.5t17.5 216.5t72.5 103.5t170 32q41 0 84.5 -5t71.5 -13v-146q-87 7 -110 7q-52 0 -71 -11.5t-23.5 -47.5t-4.5 -136q0 -101 4.5 -136.5t23.5 -47t71 -11.5q57 0 113 7v-147q-28 -7 -73 -12zM74 748v9l82 131
h172l83 -131v-9h-122l-47 67l-46 -67h-122z" />
    <glyph glyph-name="ccircumflex" unicode="&#x109;" horiz-adv-x="406" 
d="M234 -8q-93 0 -137.5 30t-57 83.5t-12.5 148.5q0 97 12.5 150.5t56.5 83.5t138 30q78 0 142 -16v-129q-55 5 -87 5q-34 0 -47.5 -8t-18 -32t-4.5 -83q0 -60 4 -84t18 -31.5t48 -7.5t90 6v-129q-76 -17 -145 -17zM34 603v9l82 131h172l83 -131v-9h-122l-47 67l-46 -67
h-122z" />
    <glyph glyph-name="Cdotaccent" unicode="&#x10a;" horiz-adv-x="485" 
d="M382 -3q-45 -5 -86 -5q-116 0 -170.5 32t-72 103.5t-17.5 216.5t17.5 216.5t72.5 103.5t170 32q41 0 84.5 -5t71.5 -13v-146q-87 7 -110 7q-52 0 -71 -11.5t-23.5 -47.5t-4.5 -136q0 -101 4.5 -136.5t23.5 -47t71 -11.5q57 0 113 7v-147q-28 -7 -73 -12zM167 756v119h151
v-119h-151z" />
    <glyph glyph-name="cdotaccent" unicode="&#x10b;" horiz-adv-x="406" 
d="M234 -8q-93 0 -137.5 30t-57 83.5t-12.5 148.5q0 97 12.5 150.5t56.5 83.5t138 30q78 0 142 -16v-129q-55 5 -87 5q-34 0 -47.5 -8t-18 -32t-4.5 -83q0 -60 4 -84t18 -31.5t48 -7.5t90 6v-129q-76 -17 -145 -17zM127 611v119h151v-119h-151z" />
    <glyph glyph-name="Ccaron" unicode="&#x10c;" horiz-adv-x="485" 
d="M382 -3q-45 -5 -86 -5q-116 0 -170.5 32t-72 103.5t-17.5 216.5t17.5 216.5t72.5 103.5t170 32q41 0 84.5 -5t71.5 -13v-146q-87 7 -110 7q-52 0 -71 -11.5t-23.5 -47.5t-4.5 -136q0 -101 4.5 -136.5t23.5 -47t71 -11.5q57 0 113 7v-147q-28 -7 -73 -12zM156 748l-82 132
v8h122l48 -67l45 67h122v-8l-83 -132h-172z" />
    <glyph glyph-name="ccaron" unicode="&#x10d;" horiz-adv-x="406" 
d="M234 -8q-93 0 -137.5 30t-57 83.5t-12.5 148.5q0 97 12.5 150.5t56.5 83.5t138 30q78 0 142 -16v-129q-55 5 -87 5q-34 0 -47.5 -8t-18 -32t-4.5 -83q0 -60 4 -84t18 -31.5t48 -7.5t90 6v-129q-76 -17 -145 -17zM116 603l-82 132v8h122l48 -67l45 67h122v-8l-83 -132
h-172z" />
    <glyph glyph-name="Dcaron" unicode="&#x10e;" horiz-adv-x="585" 
d="M46 688h227q136 0 192.5 -29.5t70 -94.5t13.5 -220t-13.5 -220t-70 -94.5t-192.5 -29.5h-227v688zM275 157q36 0 48.5 9t15.5 42.5t3 134.5q0 103 -3 136.5t-15 42.5t-49 9h-24v-374h24zM205 748l-82 132v8h122l48 -67l45 67h122v-8l-83 -132h-172z" />
    <glyph glyph-name="dcaron" unicode="&#x10f;" horiz-adv-x="635" 
d="M84.5 14.5q-29.5 22.5 -43.5 79t-14 160.5q0 102 14 159t44 80.5t82 23.5q39 0 66.5 -13t45.5 -45h10v284h190v-743h-184l-4 57h-10q-29 -65 -116 -65q-51 0 -80.5 22.5zM277.5 149.5q6.5 4.5 8.5 21.5q3 22 3 84t-2 79q-2 20 -9 25.5t-25 5.5q-20 0 -26.5 -5t-8 -24.5
t-1.5 -80.5t1.5 -80.5t8 -24.5t26.5 -5q18 0 24.5 4.5zM508 421l12 222v45h167v-45l-49 -222h-130z" />
    <glyph glyph-name="Dcroat" unicode="&#x110;" horiz-adv-x="585" 
d="M46 279h-52v138h52v271h227q136 0 192.5 -29.5t70 -94.5t13.5 -220t-13.5 -220t-70 -94.5t-192.5 -29.5h-227v279zM323.5 166q12.5 9 15.5 42.5t3 134.5q0 103 -3 136.5t-15 42.5t-49 9h-24v-114h53v-138h-53v-122h24q36 0 48.5 9z" />
    <glyph glyph-name="dcroat" unicode="&#x111;" horiz-adv-x="519" 
d="M525 556h-46v-556h-184l-4 57h-10q-29 -65 -116 -65q-51 0 -80.5 22.5t-43.5 79t-14 160.5q0 102 14 159t44 80.5t82 23.5q39 0 66.5 -13t45.5 -45h10v97h-105v132h105v55h190v-55h46v-132zM289 255q0 62 -2 79q-2 20 -9 25.5t-25 5.5q-20 0 -26.5 -5t-8 -24.5
t-1.5 -80.5t1.5 -80.5t8 -24.5t26.5 -5q18 0 24.5 4.5t8.5 21.5q3 22 3 84z" />
    <glyph glyph-name="Emacron" unicode="&#x112;" horiz-adv-x="514" 
d="M46 0v688h428v-157h-223v-106h186v-155h-186v-113h223v-157h-428zM131 739v149h257v-149h-257z" />
    <glyph glyph-name="emacron" unicode="&#x113;" horiz-adv-x="494" 
d="M464 214h-250q0 -43 5.5 -58.5t23.5 -19.5t69 -4q40 0 136 6v-128q-28 -8 -79 -13t-102 -5q-112 0 -163 26.5t-64 78t-13 157.5t13 158.5t60 79t150 26.5q105 0 149.5 -24.5t54.5 -74t10 -165.5v-40zM226 383.5q-7 -4.5 -9.5 -21.5t-2.5 -59h74q0 43 -2.5 59.5t-9.5 21
t-26 4.5q-17 0 -24 -4.5zM119 594v149h257v-149h-257z" />
    <glyph glyph-name="Ebreve" unicode="&#x114;" horiz-adv-x="514" 
d="M46 0v688h428v-157h-223v-106h186v-155h-186v-113h223v-157h-428zM397.5 810q-11.5 -31 -44.5 -48.5t-95 -17.5q-61 0 -94 17.5t-44.5 48.5t-11.5 78h103q0 -25 7.5 -36.5t39.5 -11.5q23 0 33 6t12.5 15.5t2.5 26.5h103q0 -47 -11.5 -78z" />
    <glyph glyph-name="ebreve" unicode="&#x115;" horiz-adv-x="494" 
d="M464 214h-250q0 -43 5.5 -58.5t23.5 -19.5t69 -4q40 0 136 6v-128q-28 -8 -79 -13t-102 -5q-112 0 -163 26.5t-64 78t-13 157.5t13 158.5t60 79t150 26.5q105 0 149.5 -24.5t54.5 -74t10 -165.5v-40zM226 383.5q-7 -4.5 -9.5 -21.5t-2.5 -59h74q0 43 -2.5 59.5t-9.5 21
t-26 4.5q-17 0 -24 -4.5zM385.5 665q-11.5 -31 -44.5 -48.5t-95 -17.5q-61 0 -94 17.5t-44.5 48.5t-11.5 78h103q0 -25 7.5 -36.5t39.5 -11.5q23 0 33 6t12.5 15.5t2.5 26.5h103q0 -47 -11.5 -78z" />
    <glyph glyph-name="Edotaccent" unicode="&#x116;" horiz-adv-x="514" 
d="M46 0v688h428v-157h-223v-106h186v-155h-186v-113h223v-157h-428zM183 756v119h151v-119h-151z" />
    <glyph glyph-name="edotaccent" unicode="&#x117;" horiz-adv-x="494" 
d="M464 214h-250q0 -43 5.5 -58.5t23.5 -19.5t69 -4q40 0 136 6v-128q-28 -8 -79 -13t-102 -5q-112 0 -163 26.5t-64 78t-13 157.5t13 158.5t60 79t150 26.5q105 0 149.5 -24.5t54.5 -74t10 -165.5v-40zM226 383.5q-7 -4.5 -9.5 -21.5t-2.5 -59h74q0 43 -2.5 59.5t-9.5 21
t-26 4.5q-17 0 -24 -4.5zM171 611v119h151v-119h-151z" />
    <glyph glyph-name="Eogonek" unicode="&#x118;" horiz-adv-x="514" 
d="M288.5 -171.5q-30.5 24.5 -30.5 61.5q0 30 18.5 57t51.5 53h-283v688h429v-157h-223v-106h186v-155h-186v-113h223v-157q-27 -13 -47.5 -32.5t-20.5 -42.5q0 -31 42 -31l15 1v-87q-40 -4 -75 -4q-69 0 -99.5 24.5z" />
    <glyph glyph-name="eogonek" unicode="&#x119;" horiz-adv-x="494" 
d="M464 214h-250q0 -43 5.5 -58.5t23.5 -19.5t69 -4q40 0 136 6v-128q-31 -14 -57 -36.5t-26 -48.5q0 -31 42 -31l15 1v-87q-40 -4 -74 -4q-70 0 -100.5 24.5t-30.5 61.5q0 53 61 102h-11q-112 0 -163 26.5t-64 78t-13 157.5t13 158.5t60 79t150 26.5q105 0 149.5 -24.5
t54.5 -74t10 -165.5v-40zM226 383.5q-7 -4.5 -9.5 -21.5t-2.5 -59h74q0 43 -2.5 59.5t-9.5 21t-26 4.5q-17 0 -24 -4.5z" />
    <glyph glyph-name="Ecaron" unicode="&#x11a;" horiz-adv-x="514" 
d="M46 0v688h428v-157h-223v-106h186v-155h-186v-113h223v-157h-428zM172 748l-82 132v8h122l48 -67l45 67h122v-8l-83 -132h-172z" />
    <glyph glyph-name="ecaron" unicode="&#x11b;" horiz-adv-x="494" 
d="M464 214h-250q0 -43 5.5 -58.5t23.5 -19.5t69 -4q40 0 136 6v-128q-28 -8 -79 -13t-102 -5q-112 0 -163 26.5t-64 78t-13 157.5t13 158.5t60 79t150 26.5q105 0 149.5 -24.5t54.5 -74t10 -165.5v-40zM226 383.5q-7 -4.5 -9.5 -21.5t-2.5 -59h74q0 43 -2.5 59.5t-9.5 21
t-26 4.5q-17 0 -24 -4.5zM160 603l-82 132v8h122l48 -67l45 67h122v-8l-83 -132h-172z" />
    <glyph glyph-name="Gcircumflex" unicode="&#x11c;" horiz-adv-x="578" 
d="M300 268v145h235v-400q-47 -9 -110.5 -15t-114.5 -6q-115 0 -172.5 30t-79.5 103.5t-22 218.5t22.5 218.5t81.5 103.5t176 30q48 0 109.5 -6.5t107.5 -16.5v-146q-110 12 -154 12q-74 0 -99.5 -9.5t-33 -46t-7.5 -139.5q0 -93 5 -132.5t21 -53t54 -13.5l35 1v122h-54z
M118 748v9l82 131h172l83 -131v-9h-122l-47 67l-46 -67h-122z" />
    <glyph glyph-name="gcircumflex" unicode="&#x11d;" horiz-adv-x="519" 
d="M145 -202.5q-48 3.5 -77 9.5v127h120q54 0 73 4.5t23.5 19.5t4.5 60v49h-10q-18 -33 -45.5 -46t-66.5 -13q-52 0 -82 23t-44 78t-14 155q0 101 14 156t43.5 76.5t80.5 21.5q87 0 116 -65h10l4 57h184v-455q0 -101 -13.5 -152.5t-64.5 -80t-163 -28.5q-45 0 -93 3.5z
M277.5 164.5q6.5 4.5 8.5 20.5q3 16 3 78q0 58 -2 73q-2 19 -9 24t-25 5q-20 0 -26.5 -4.5t-8 -23t-1.5 -74.5t1.5 -74.5t8 -23.5t26.5 -5q18 0 24.5 4.5zM90 603v9l82 131h172l83 -131v-9h-122l-47 67l-46 -67h-122z" />
    <glyph glyph-name="Gbreve" unicode="&#x11e;" horiz-adv-x="578" 
d="M300 268v145h235v-400q-47 -9 -110.5 -15t-114.5 -6q-115 0 -172.5 30t-79.5 103.5t-22 218.5t22.5 218.5t81.5 103.5t176 30q48 0 109.5 -6.5t107.5 -16.5v-146q-110 12 -154 12q-74 0 -99.5 -9.5t-33 -46t-7.5 -139.5q0 -93 5 -132.5t21 -53t54 -13.5l35 1v122h-54z
M425.5 810q-11.5 -31 -44.5 -48.5t-95 -17.5q-61 0 -94 17.5t-44.5 48.5t-11.5 78h103q0 -25 7.5 -36.5t39.5 -11.5q23 0 33 6t12.5 15.5t2.5 26.5h103q0 -47 -11.5 -78z" />
    <glyph glyph-name="gbreve" unicode="&#x11f;" horiz-adv-x="519" 
d="M145 -202.5q-48 3.5 -77 9.5v127h120q54 0 73 4.5t23.5 19.5t4.5 60v49h-10q-18 -33 -45.5 -46t-66.5 -13q-52 0 -82 23t-44 78t-14 155q0 101 14 156t43.5 76.5t80.5 21.5q87 0 116 -65h10l4 57h184v-455q0 -101 -13.5 -152.5t-64.5 -80t-163 -28.5q-45 0 -93 3.5z
M277.5 164.5q6.5 4.5 8.5 20.5q3 16 3 78q0 58 -2 73q-2 19 -9 24t-25 5q-20 0 -26.5 -4.5t-8 -23t-1.5 -74.5t1.5 -74.5t8 -23.5t26.5 -5q18 0 24.5 4.5zM397.5 665q-11.5 -31 -44.5 -48.5t-95 -17.5q-61 0 -94 17.5t-44.5 48.5t-11.5 78h103q0 -25 7.5 -36.5t39.5 -11.5
q23 0 33 6t12.5 15.5t2.5 26.5h103q0 -47 -11.5 -78z" />
    <glyph glyph-name="Gdotaccent" unicode="&#x120;" horiz-adv-x="578" 
d="M300 268v145h235v-400q-47 -9 -110.5 -15t-114.5 -6q-115 0 -172.5 30t-79.5 103.5t-22 218.5t22.5 218.5t81.5 103.5t176 30q48 0 109.5 -6.5t107.5 -16.5v-146q-110 12 -154 12q-74 0 -99.5 -9.5t-33 -46t-7.5 -139.5q0 -93 5 -132.5t21 -53t54 -13.5l35 1v122h-54z
M211 756v119h151v-119h-151z" />
    <glyph glyph-name="gdotaccent" unicode="&#x121;" horiz-adv-x="519" 
d="M145 -202.5q-48 3.5 -77 9.5v127h120q54 0 73 4.5t23.5 19.5t4.5 60v49h-10q-18 -33 -45.5 -46t-66.5 -13q-52 0 -82 23t-44 78t-14 155q0 101 14 156t43.5 76.5t80.5 21.5q87 0 116 -65h10l4 57h184v-455q0 -101 -13.5 -152.5t-64.5 -80t-163 -28.5q-45 0 -93 3.5z
M277.5 164.5q6.5 4.5 8.5 20.5q3 16 3 78q0 58 -2 73q-2 19 -9 24t-25 5q-20 0 -26.5 -4.5t-8 -23t-1.5 -74.5t1.5 -74.5t8 -23.5t26.5 -5q18 0 24.5 4.5zM183 611v119h151v-119h-151z" />
    <glyph glyph-name="Gcommaaccent" unicode="&#x122;" horiz-adv-x="578" 
d="M300 268v145h235v-400q-47 -9 -110.5 -15t-114.5 -6q-115 0 -172.5 30t-79.5 103.5t-22 218.5t22.5 218.5t81.5 103.5t176 30q48 0 109.5 -6.5t107.5 -16.5v-146q-110 12 -154 12q-74 0 -99.5 -9.5t-33 -46t-7.5 -139.5q0 -93 5 -132.5t21 -53t54 -13.5l35 1v122h-54z
M247.5 -212q11.5 8 11.5 32v8h-65v113h185v-69q0 -68 -12 -100.5t-50.5 -46.5t-120.5 -14v69q40 0 51.5 8z" />
    <glyph glyph-name="gcommaaccent" unicode="&#x123;" horiz-adv-x="519" 
d="M145 -202.5q-48 3.5 -77 9.5v127h120q54 0 73 4.5t23.5 19.5t4.5 60v49h-10q-18 -33 -45.5 -46t-66.5 -13q-52 0 -82 23t-44 78t-14 155q0 101 14 156t43.5 76.5t80.5 21.5q87 0 116 -65h10l4 57h184v-455q0 -101 -13.5 -152.5t-64.5 -80t-163 -28.5q-45 0 -93 3.5z
M277.5 164.5q6.5 4.5 8.5 20.5q3 16 3 78q0 58 -2 73q-2 19 -9 24t-25 5q-20 0 -26.5 -4.5t-8 -23t-1.5 -74.5t1.5 -74.5t8 -23.5t26.5 -5q18 0 24.5 4.5zM297.5 749q-11.5 -8 -11.5 -31v-9h65v-113h-185v70q0 67 12 99.5t50.5 46.5t120.5 14v-69q-40 0 -51.5 -8z" />
    <glyph glyph-name="Hcircumflex" unicode="&#x124;" horiz-adv-x="608" 
d="M356 0v259h-104v-259h-207v688h207v-256h104v256h207v-688h-207zM135 748v9l82 131h172l83 -131v-9h-122l-47 67l-46 -67h-122z" />
    <glyph glyph-name="hcircumflex" unicode="&#x125;" horiz-adv-x="522" 
d="M293 271q0 50 -1.5 67t-7 21.5t-22.5 4.5q-18 0 -24 -5t-7.5 -23.5t-1.5 -72.5v-263h-190v743h190v-290h10q34 65 118 65q55 0 82 -20.5t35.5 -60t8.5 -109.5v-328h-190v271zM-35 781v9l82 131h172l83 -131v-9h-122l-47 67l-46 -67h-122z" />
    <glyph glyph-name="Hbar" unicode="&#x126;" horiz-adv-x="608" 
d="M356 688h207v-688h-207v219h-104v-219h-207v688h207v-77h104v77zM252 392h104v82h-104v-82z" />
    <glyph glyph-name="hbar" unicode="&#x127;" horiz-adv-x="522" 
d="M439 497.5q27 -20.5 35.5 -60t8.5 -109.5v-328h-190v271q0 50 -1.5 67t-7 21.5t-22.5 4.5q-18 0 -24 -5t-7.5 -23.5t-1.5 -72.5v-263h-190v556h-45v132h45v55h190v-55h105v-132h-105v-103h10q34 65 118 65q55 0 82 -20.5z" />
    <glyph glyph-name="Itilde" unicode="&#x128;" horiz-adv-x="298" 
d="M46 0v688h206v-688h-206zM328.5 801.5q-4.5 -28.5 -24.5 -45.5t-65 -17q-39 0 -103 15l-24 4q-23 5 -34 5q-13 0 -16 -7t-3 -29h-95q0 57 4.5 86t25 46t64.5 17q40 0 104 -15q43 -9 57 -9q13 0 16 7t3 29h95q0 -58 -4.5 -86.5z" />
    <glyph glyph-name="itilde" unicode="&#x129;" horiz-adv-x="272" 
d="M39 0v510h193v-510h-193zM315.5 656.5q-4.5 -28.5 -24.5 -45.5t-65 -17q-39 0 -103 15l-24 4q-23 5 -34 5q-13 0 -16 -7t-3 -29h-95q0 57 4.5 86t25 46t64.5 17q40 0 104 -15q43 -9 57 -9q13 0 16 7t3 29h95q0 -58 -4.5 -86.5z" />
    <glyph glyph-name="Imacron" unicode="&#x12a;" horiz-adv-x="298" 
d="M46 0v688h206v-688h-206zM21 739v149h257v-149h-257z" />
    <glyph glyph-name="imacron" unicode="&#x12b;" horiz-adv-x="272" 
d="M39 0v510h193v-510h-193zM8 594v149h257v-149h-257z" />
    <glyph glyph-name="Ibreve" unicode="&#x12c;" horiz-adv-x="298" 
d="M46 0v688h206v-688h-206zM287.5 810q-11.5 -31 -44.5 -48.5t-95 -17.5q-61 0 -94 17.5t-44.5 48.5t-11.5 78h103q0 -25 7.5 -36.5t39.5 -11.5q23 0 33 6t12.5 15.5t2.5 26.5h103q0 -47 -11.5 -78z" />
    <glyph glyph-name="ibreve" unicode="&#x12d;" horiz-adv-x="272" 
d="M39 0v510h193v-510h-193zM274.5 665q-11.5 -31 -44.5 -48.5t-95 -17.5q-61 0 -94 17.5t-44.5 48.5t-11.5 78h103q0 -25 7.5 -36.5t39.5 -11.5q23 0 33 6t12.5 15.5t2.5 26.5h103q0 -47 -11.5 -78z" />
    <glyph glyph-name="Iogonek" unicode="&#x12e;" horiz-adv-x="298" 
d="M79 -171.5q-30 24.5 -30 63.5q0 55 58 108h-61v688h206v-688q-21 -12 -38.5 -32t-17.5 -41q0 -33 42 -33l15 1v-87q-40 -4 -75 -4q-69 0 -99 24.5z" />
    <glyph glyph-name="iogonek" unicode="&#x12f;" horiz-adv-x="272" 
d="M211 730v-119h-151v119h151zM191.5 -31q-16.5 -21 -16.5 -43q0 -32 42 -32l15 1v-87q-40 -4 -74 -4q-69 0 -99.5 24.5t-30.5 62.5q0 55 59 109h-48v510h193v-510q-24 -10 -40.5 -31z" />
    <glyph glyph-name="Idotaccent" unicode="&#x130;" horiz-adv-x="298" 
d="M46 0v688h206v-688h-206zM73 756v119h151v-119h-151z" />
    <glyph glyph-name="dotlessi" unicode="&#x131;" horiz-adv-x="272" 
d="M39 0v510h193v-510h-193z" />
    <glyph glyph-name="IJ" unicode="&#x132;" horiz-adv-x="679" 
d="M46 0v688h206v-688h-206zM393.5 154q22.5 6 29 27.5t6.5 79.5v427h206v-360q0 -171 -17 -232t-77.5 -78.5t-229.5 -17.5v148q60 0 82.5 6z" />
    <glyph glyph-name="ij" unicode="&#x133;" horiz-adv-x="544" 
d="M39 598v145h193v-145h-193zM39 0v510h193v-510h-193zM311 598v145h193v-145h-193zM248 -71q30 0 43 5t16.5 15t3.5 31v530h193v-474q0 -110 -19.5 -158t-70 -62.5t-166.5 -14.5v128z" />
    <glyph glyph-name="Jcircumflex" unicode="&#x134;" horiz-adv-x="381" 
d="M95.5 154q22.5 6 29 27.5t6.5 79.5v427h206v-360q0 -171 -17 -232t-77.5 -78.5t-229.5 -17.5v148q60 0 82.5 6zM65 748v9l82 131h172l83 -131v-9h-122l-47 67l-46 -67h-122z" />
    <glyph glyph-name="jcircumflex" unicode="&#x135;" horiz-adv-x="272" 
d="M-24 -71q30 0 43 5t16.5 15t3.5 31v530h193v-474q0 -110 -19.5 -158t-70 -62.5t-166.5 -14.5v128zM-33 603v9l82 131h172l83 -131v-9h-122l-47 67l-46 -67h-122z" />
    <glyph glyph-name="Kcommaaccent" unicode="&#x136;" horiz-adv-x="602" 
d="M378 0l-114 271h-12v-271h-206v688h206v-260h12l117 260h218l-169 -325l171 -363h-223zM261.5 -212q11.5 8 11.5 32v8h-65v113h185v-69q0 -68 -12 -100.5t-50.5 -46.5t-120.5 -14v69q40 0 51.5 8z" />
    <glyph glyph-name="kcommaaccent" unicode="&#x137;" horiz-adv-x="527" 
d="M322 0l-82 182h-11v-182h-190v743h190v-421h11l89 188h196l-127 -241l129 -269h-205zM224.5 -212q11.5 8 11.5 32v8h-65v113h185v-69q0 -68 -12 -100.5t-50.5 -46.5t-120.5 -14v69q40 0 51.5 8z" />
    <glyph glyph-name="kgreenlandic" unicode="&#x138;" horiz-adv-x="527" 
d="M322 0l-82 182h-11v-182h-190v510h190v-188h11l89 188h196l-127 -241l129 -269h-205z" />
    <glyph glyph-name="Lacute" unicode="&#x139;" horiz-adv-x="459" 
d="M46 0v688h206v-524h191v-164h-397zM76 740v5l70 143h177v-5l-109 -143h-138z" />
    <glyph glyph-name="lacute" unicode="&#x13a;" horiz-adv-x="272" 
d="M39 0v743h193v-743h-193zM67 773v5l70 143h177v-5l-109 -143h-138z" />
    <glyph glyph-name="Lcommaaccent" unicode="&#x13b;" horiz-adv-x="459" 
d="M46 0v688h206v-524h191v-164h-397zM194.5 -212q11.5 8 11.5 32v8h-65v113h185v-69q0 -68 -12 -100.5t-50.5 -46.5t-120.5 -14v69q40 0 51.5 8z" />
    <glyph glyph-name="lcommaaccent" unicode="&#x13c;" horiz-adv-x="272" 
d="M39 0v743h193v-743h-193zM96.5 -212q11.5 8 11.5 32v8h-65v113h185v-69q0 -68 -12 -100.5t-50.5 -46.5t-120.5 -14v69q40 0 51.5 8z" />
    <glyph glyph-name="Lcaron" unicode="&#x13d;" horiz-adv-x="459" 
d="M46 0v688h206v-524h191v-164h-397zM316 422l12 222v45h167v-45l-49 -222h-130z" />
    <glyph glyph-name="lcaron" unicode="&#x13e;" horiz-adv-x="397" 
d="M39 0v743h193v-743h-193zM263 421l12 222v45h167v-45l-49 -222h-130z" />
    <glyph glyph-name="Ldot" unicode="&#x13f;" horiz-adv-x="491" 
d="M46 0v688h206v-524h191v-164h-397zM295 304v162h197v-162h-197z" />
    <glyph glyph-name="ldot" unicode="&#x140;" horiz-adv-x="410" 
d="M39 0v743h193v-743h-193zM261 218v162h158v-162h-158z" />
    <glyph glyph-name="Lslash" unicode="&#x141;" horiz-adv-x="459" 
d="M252 164h191v-164h-397v248l-47 -17v138l47 17v302h206v-226l107 39v-137l-107 -40v-160z" />
    <glyph glyph-name="lslash" unicode="&#x142;" horiz-adv-x="296" 
d="M51 0v275l-47 -16v137l47 16v331h192v-266l49 17v-137l-49 -17v-340h-192z" />
    <glyph glyph-name="Nacute" unicode="&#x143;" horiz-adv-x="615" 
d="M383 0l-136 316h-5v-316h-197v688h206l115 -267h7v267h197v-688h-187zM235 740v5l70 143h177v-5l-109 -143h-138z" />
    <glyph glyph-name="nacute" unicode="&#x144;" horiz-adv-x="522" 
d="M293 271q0 50 -1.5 67t-7 21.5t-22.5 4.5q-18 0 -24 -5t-7.5 -23.5t-1.5 -72.5v-263h-190v510h184l4 -57h10q34 65 119 65q55 0 82 -20.5t36 -60t9 -109.5v-328h-190v271zM192 595v5l70 143h177v-5l-109 -143h-138z" />
    <glyph glyph-name="Ncommaaccent" unicode="&#x145;" horiz-adv-x="615" 
d="M383 0l-136 316h-5v-316h-197v688h206l115 -267h7v267h197v-688h-187zM268.5 -212q11.5 8 11.5 32v8h-65v113h185v-69q0 -68 -12 -100.5t-50.5 -46.5t-120.5 -14v69q40 0 51.5 8z" />
    <glyph glyph-name="ncommaaccent" unicode="&#x146;" horiz-adv-x="522" 
d="M293 271q0 50 -1.5 67t-7 21.5t-22.5 4.5q-18 0 -24 -5t-7.5 -23.5t-1.5 -72.5v-263h-190v510h184l4 -57h10q34 65 119 65q55 0 82 -20.5t36 -60t9 -109.5v-328h-190v271zM221.5 -212q11.5 8 11.5 32v8h-65v113h185v-69q0 -68 -12 -100.5t-50.5 -46.5t-120.5 -14v69
q40 0 51.5 8z" />
    <glyph glyph-name="Ncaron" unicode="&#x147;" horiz-adv-x="615" 
d="M383 0l-136 316h-5v-316h-197v688h206l115 -267h7v267h197v-688h-187zM221 748l-82 132v8h122l48 -67l45 67h122v-8l-83 -132h-172z" />
    <glyph glyph-name="ncaron" unicode="&#x148;" horiz-adv-x="522" 
d="M293 271q0 50 -1.5 67t-7 21.5t-22.5 4.5q-18 0 -24 -5t-7.5 -23.5t-1.5 -72.5v-263h-190v510h184l4 -57h10q34 65 119 65q55 0 82 -20.5t36 -60t9 -109.5v-328h-190v271zM174 603l-82 132v8h122l48 -67l45 67h122v-8l-83 -132h-172z" />
    <glyph glyph-name="napostrophe" unicode="&#x149;" horiz-adv-x="695" 
d="M63.5 545.5q13.5 6.5 18 20.5t4.5 42v14h-64v121h184v-83q0 -80 -12 -118.5t-50.5 -55t-120.5 -16.5v69q27 0 40.5 6.5zM466 271q0 50 -1.5 67t-7 21.5t-22.5 4.5q-18 0 -24 -5t-7.5 -23.5t-1.5 -72.5v-263h-190v510h184l4 -57h10q34 65 119 65q55 0 82 -20.5t36 -60
t9 -109.5v-328h-190v271z" />
    <glyph glyph-name="Eng" unicode="&#x14a;" horiz-adv-x="615" 
d="M570 688v-664q-1 -104 -21 -149.5t-71.5 -59.5t-167.5 -14v128q30 0 43 5t16.5 15t3.5 31v46l-126 290h-5v-316h-197v688h206l115 -267h7v267h197z" />
    <glyph glyph-name="eng" unicode="&#x14b;" horiz-adv-x="522" 
d="M438 497.5q27 -20.5 36 -60t9 -109.5v-292q0 -110 -19 -158t-69 -62.5t-165 -14.5v128q30 0 43 5t16.5 15t3.5 31v291q0 50 -1.5 67t-7 21.5t-22.5 4.5q-18 0 -24 -5t-7.5 -23.5t-1.5 -72.5v-263h-190v510h184l4 -57h10q34 65 119 65q55 0 82 -20.5z" />
    <glyph glyph-name="Omacron" unicode="&#x14c;" horiz-adv-x="602" 
d="M116 23q-55 31 -67.5 97.5t-12.5 223.5t12.5 223.5t67.5 97.5t184 31q130 0 184.5 -31t67.5 -97.5t13 -223.5t-13 -223.5t-67.5 -97.5t-184.5 -31q-129 0 -184 31zM342.5 158.5q10.5 9.5 13 44t2.5 141.5t-2.5 141.5t-13 44t-42.5 9.5q-31 0 -41.5 -9.5t-13 -44
t-2.5 -141.5t2.5 -141.5t13 -44t41.5 -9.5q32 0 42.5 9.5zM173 739v149h257v-149h-257z" />
    <glyph glyph-name="omacron" unicode="&#x14d;" horiz-adv-x="507" 
d="M99.5 14q-46.5 22 -59.5 73.5t-13 167.5t13 167.5t59.5 73.5t153.5 22t153.5 -22t59.5 -73.5t13 -167.5t-13 -167.5t-59.5 -73.5t-153.5 -22t-153.5 22zM279.5 138.5q6.5 6.5 8.5 29t2 87.5t-2 87.5t-8.5 29t-26.5 6.5q-19 0 -26 -6.5t-8.5 -28.5t-1.5 -88t1.5 -88
t8.5 -28.5t26 -6.5q20 0 26.5 6.5zM126 594v149h257v-149h-257z" />
    <glyph glyph-name="Obreve" unicode="&#x14e;" horiz-adv-x="602" 
d="M116 23q-55 31 -67.5 97.5t-12.5 223.5t12.5 223.5t67.5 97.5t184 31q130 0 184.5 -31t67.5 -97.5t13 -223.5t-13 -223.5t-67.5 -97.5t-184.5 -31q-129 0 -184 31zM342.5 158.5q10.5 9.5 13 44t2.5 141.5t-2.5 141.5t-13 44t-42.5 9.5q-31 0 -41.5 -9.5t-13 -44
t-2.5 -141.5t2.5 -141.5t13 -44t41.5 -9.5q32 0 42.5 9.5zM439.5 810q-11.5 -31 -44.5 -48.5t-95 -17.5q-61 0 -94 17.5t-44.5 48.5t-11.5 78h103q0 -25 7.5 -36.5t39.5 -11.5q23 0 33 6t12.5 15.5t2.5 26.5h103q0 -47 -11.5 -78z" />
    <glyph glyph-name="obreve" unicode="&#x14f;" horiz-adv-x="507" 
d="M99.5 14q-46.5 22 -59.5 73.5t-13 167.5t13 167.5t59.5 73.5t153.5 22t153.5 -22t59.5 -73.5t13 -167.5t-13 -167.5t-59.5 -73.5t-153.5 -22t-153.5 22zM279.5 138.5q6.5 6.5 8.5 29t2 87.5t-2 87.5t-8.5 29t-26.5 6.5q-19 0 -26 -6.5t-8.5 -28.5t-1.5 -88t1.5 -88
t8.5 -28.5t26 -6.5q20 0 26.5 6.5zM392.5 665q-11.5 -31 -44.5 -48.5t-95 -17.5q-61 0 -94 17.5t-44.5 48.5t-11.5 78h103q0 -25 7.5 -36.5t39.5 -11.5q23 0 33 6t12.5 15.5t2.5 26.5h103q0 -47 -11.5 -78z" />
    <glyph glyph-name="Ohungarumlaut" unicode="&#x150;" horiz-adv-x="602" 
d="M116 23q-55 31 -67.5 97.5t-12.5 223.5t12.5 223.5t67.5 97.5t184 31q130 0 184.5 -31t67.5 -97.5t13 -223.5t-13 -223.5t-67.5 -97.5t-184.5 -31q-129 0 -184 31zM342.5 158.5q10.5 9.5 13 44t2.5 141.5t-2.5 141.5t-13 44t-42.5 9.5q-31 0 -41.5 -9.5t-13 -44
t-2.5 -141.5t2.5 -141.5t13 -44t41.5 -9.5q32 0 42.5 9.5zM164 756v4l54 114h144v-4l-86 -114h-112zM334 756v4l55 114h143v-4l-85 -114h-113z" />
    <glyph glyph-name="ohungarumlaut" unicode="&#x151;" horiz-adv-x="507" 
d="M99.5 14q-46.5 22 -59.5 73.5t-13 167.5t13 167.5t59.5 73.5t153.5 22t153.5 -22t59.5 -73.5t13 -167.5t-13 -167.5t-59.5 -73.5t-153.5 -22t-153.5 22zM279.5 138.5q6.5 6.5 8.5 29t2 87.5t-2 87.5t-8.5 29t-26.5 6.5q-19 0 -26 -6.5t-8.5 -28.5t-1.5 -88t1.5 -88
t8.5 -28.5t26 -6.5q20 0 26.5 6.5zM114 611v4l54 114h144v-4l-86 -114h-112zM284 611v4l55 114h143v-4l-85 -114h-113z" />
    <glyph glyph-name="OE" unicode="&#x152;" horiz-adv-x="843" 
d="M116 30.5q-55 30.5 -67.5 95t-12.5 218.5t12.5 218.5t67.5 95t184 30.5h502v-157h-188q-46 0 -64 6q11 -49 14 -112h202v-155h-201q-2 -76 -15 -119q24 6 64 6h188v-157h-502q-129 0 -184 30.5zM342.5 166q10.5 9 13 42.5t2.5 135.5t-2.5 135.5t-13 42.5t-42.5 9
q-31 0 -41.5 -9t-13 -42.5t-2.5 -135.5t2.5 -135.5t13 -42.5t41.5 -9q32 0 42.5 9z" />
    <glyph glyph-name="oe" unicode="&#x153;" horiz-adv-x="760" 
d="M729 214h-250q0 -43 5.5 -58.5t24 -19.5t69.5 -4q49 0 135 6v-128q-27 -8 -74.5 -13t-95.5 -5q-99 0 -152 36q-49 -36 -143 -36q-105 0 -150.5 22t-58 73.5t-12.5 167.5t12.5 167.5t58 73.5t150.5 22q93 0 141 -35q50 35 137 35q100 0 142 -24.5t51.5 -74t9.5 -165.5v-40
zM491.5 383.5q-6.5 -4.5 -9 -21t-3.5 -59.5h74q0 44 -2 60t-9 20.5t-27 4.5q-17 0 -23.5 -4.5zM279.5 138.5q6.5 6.5 8.5 29t2 87.5t-2 87.5t-8.5 29t-26.5 6.5q-19 0 -26 -6.5t-8.5 -28.5t-1.5 -88t1.5 -88t8.5 -28.5t26 -6.5q20 0 26.5 6.5z" />
    <glyph glyph-name="Racute" unicode="&#x154;" horiz-adv-x="583" 
d="M353 0l-62 228h-39v-228h-206v688h307q83 0 125 -24.5t56.5 -72.5t14.5 -133q0 -79 -13.5 -126.5t-55.5 -73.5l85 -258h-212zM324.5 380q10.5 4 14.5 19.5t4 54.5q0 40 -3 55t-14 19.5t-40 4.5h-34v-157h35q27 0 37.5 4zM219 740v5l70 143h177v-5l-109 -143h-138z" />
    <glyph glyph-name="racute" unicode="&#x155;" horiz-adv-x="386" 
d="M39 510h184l4 -83h10q19 51 49 71t84 20v-175q-53 0 -82.5 -11t-44 -42.5t-14.5 -93.5v-196h-190v510zM124 595v5l70 143h177v-5l-109 -143h-138z" />
    <glyph glyph-name="Rcommaaccent" unicode="&#x156;" horiz-adv-x="583" 
d="M353 0l-62 228h-39v-228h-206v688h307q83 0 125 -24.5t56.5 -72.5t14.5 -133q0 -79 -13.5 -126.5t-55.5 -73.5l85 -258h-212zM324.5 380q10.5 4 14.5 19.5t4 54.5q0 40 -3 55t-14 19.5t-40 4.5h-34v-157h35q27 0 37.5 4zM252.5 -212q11.5 8 11.5 32v8h-65v113h185v-69
q0 -68 -12 -100.5t-50.5 -46.5t-120.5 -14v69q40 0 51.5 8z" />
    <glyph glyph-name="rcommaaccent" unicode="&#x157;" horiz-adv-x="386" 
d="M39 510h184l4 -83h10q19 51 49 71t84 20v-175q-53 0 -82.5 -11t-44 -42.5t-14.5 -93.5v-196h-190v510zM94.5 -212q11.5 8 11.5 32v8h-65v113h185v-69q0 -68 -12 -100.5t-50.5 -46.5t-120.5 -14v69q40 0 51.5 8z" />
    <glyph glyph-name="Rcaron" unicode="&#x158;" horiz-adv-x="583" 
d="M353 0l-62 228h-39v-228h-206v688h307q83 0 125 -24.5t56.5 -72.5t14.5 -133q0 -79 -13.5 -126.5t-55.5 -73.5l85 -258h-212zM324.5 380q10.5 4 14.5 19.5t4 54.5q0 40 -3 55t-14 19.5t-40 4.5h-34v-157h35q27 0 37.5 4zM205 748l-82 132v8h122l48 -67l45 67h122v-8
l-83 -132h-172z" />
    <glyph glyph-name="rcaron" unicode="&#x159;" horiz-adv-x="386" 
d="M39 510h184l4 -83h10q19 51 49 71t84 20v-175q-53 0 -82.5 -11t-44 -42.5t-14.5 -93.5v-196h-190v510zM106 603l-82 132v8h122l48 -67l45 67h122v-8l-83 -132h-172z" />
    <glyph glyph-name="Sacute" unicode="&#x15a;" horiz-adv-x="529" 
d="M153.5 -3q-64.5 5 -109.5 13v148q115 -9 165 -9q38 0 54 2t23 8q6 6 8 15t2 27q0 25 -5 36t-19.5 16t-52.5 10l-101 15q-50 8 -70 59.5t-20 146.5q0 87 30.5 133.5t82.5 62.5t129 16q56 0 112 -6.5t89 -13.5v-146q-77 9 -161 9q-27 0 -41.5 -1.5t-20.5 -6.5
q-8 -6 -11 -15.5t-3 -25.5q0 -21 3 -30.5t12.5 -14t32.5 -8.5l89 -13q40 -7 67 -22t45 -53q19 -43 19 -126q0 -100 -29 -150.5t-77 -65.5t-124 -15q-54 0 -118.5 5zM192 740v5l70 143h177v-5l-109 -143h-138z" />
    <glyph glyph-name="sacute" unicode="&#x15b;" horiz-adv-x="439" 
d="M129 -3.5q-54 4.5 -94 10.5v127q84 -6 122 -6q44 0 59 1.5t20 6.5t5 20q0 12 -2 16.5t-10.5 7t-30.5 5.5l-100 15q-45 6 -61 44t-16 117q0 64 25 98t68 46.5t107 12.5q46 0 94.5 -4t76.5 -11v-128q-82 7 -117 7q-37 0 -52 -1.5t-19 -6t-4 -16.5t1.5 -16.5t8.5 -6.5t26 -5
l83 -12q32 -5 53 -17t33.5 -44.5t12.5 -92.5q0 -73 -24 -110.5t-64 -49.5t-102 -12q-45 0 -99 4.5zM150 595v5l70 143h177v-5l-109 -143h-138z" />
    <glyph glyph-name="Scircumflex" unicode="&#x15c;" horiz-adv-x="529" 
d="M153.5 -3q-64.5 5 -109.5 13v148q115 -9 165 -9q38 0 54 2t23 8q6 6 8 15t2 27q0 25 -5 36t-19.5 16t-52.5 10l-101 15q-50 8 -70 59.5t-20 146.5q0 87 30.5 133.5t82.5 62.5t129 16q56 0 112 -6.5t89 -13.5v-146q-77 9 -161 9q-27 0 -41.5 -1.5t-20.5 -6.5
q-8 -6 -11 -15.5t-3 -25.5q0 -21 3 -30.5t12.5 -14t32.5 -8.5l89 -13q40 -7 67 -22t45 -53q19 -43 19 -126q0 -100 -29 -150.5t-77 -65.5t-124 -15q-54 0 -118.5 5zM96 748v9l82 131h172l83 -131v-9h-122l-47 67l-46 -67h-122z" />
    <glyph glyph-name="scircumflex" unicode="&#x15d;" horiz-adv-x="439" 
d="M129 -3.5q-54 4.5 -94 10.5v127q84 -6 122 -6q44 0 59 1.5t20 6.5t5 20q0 12 -2 16.5t-10.5 7t-30.5 5.5l-100 15q-45 6 -61 44t-16 117q0 64 25 98t68 46.5t107 12.5q46 0 94.5 -4t76.5 -11v-128q-82 7 -117 7q-37 0 -52 -1.5t-19 -6t-4 -16.5t1.5 -16.5t8.5 -6.5t26 -5
l83 -12q32 -5 53 -17t33.5 -44.5t12.5 -92.5q0 -73 -24 -110.5t-64 -49.5t-102 -12q-45 0 -99 4.5zM50 603v9l82 131h172l83 -131v-9h-122l-47 67l-46 -67h-122z" />
    <glyph glyph-name="Scedilla" unicode="&#x15e;" horiz-adv-x="529" 
d="M480 87q-22 -49 -60 -69t-95 -24l-31 -183h-164v5l70 178q-91 5 -156 16v148q115 -9 165 -9q38 0 54 2t23 8q6 6 8 15t2 27q0 25 -5 36t-19.5 16t-52.5 10l-101 15q-50 8 -70 59.5t-20 146.5q0 87 30.5 133.5t82.5 62.5t129 16q56 0 112 -6.5t89 -13.5v-146q-77 9 -161 9
q-27 0 -41.5 -1.5t-20.5 -6.5q-8 -6 -11 -15.5t-3 -25.5q0 -21 3 -30.5t12.5 -14t32.5 -8.5l89 -13q40 -7 67 -22t45 -53q19 -43 19 -126q0 -87 -22 -136z" />
    <glyph glyph-name="scedilla" unicode="&#x15f;" horiz-adv-x="439" 
d="M382.5 37.5q-35.5 -36.5 -103.5 -43.5l-31 -183h-164v5l71 179q-61 3 -120 12v127q84 -6 122 -6q44 0 59 1.5t20 6.5t5 20q0 12 -2 16.5t-10.5 7t-30.5 5.5l-100 15q-45 6 -61 44t-16 117q0 64 25 98t68 46.5t107 12.5q46 0 94.5 -4t76.5 -11v-128q-82 7 -117 7
q-37 0 -52 -1.5t-19 -6t-4 -16.5t1.5 -16.5t8.5 -6.5t26 -5l83 -12q32 -5 53 -17t33.5 -44.5t12.5 -92.5q0 -90 -35.5 -126.5z" />
    <glyph glyph-name="Scaron" unicode="&#x160;" horiz-adv-x="529" 
d="M153.5 -3q-64.5 5 -109.5 13v148q115 -9 165 -9q38 0 54 2t23 8q6 6 8 15t2 27q0 25 -5 36t-19.5 16t-52.5 10l-101 15q-50 8 -70 59.5t-20 146.5q0 87 30.5 133.5t82.5 62.5t129 16q56 0 112 -6.5t89 -13.5v-146q-77 9 -161 9q-27 0 -41.5 -1.5t-20.5 -6.5
q-8 -6 -11 -15.5t-3 -25.5q0 -21 3 -30.5t12.5 -14t32.5 -8.5l89 -13q40 -7 67 -22t45 -53q19 -43 19 -126q0 -100 -29 -150.5t-77 -65.5t-124 -15q-54 0 -118.5 5zM180 750l-82 132v8h122l48 -67l45 67h122v-8l-83 -132h-172z" />
    <glyph glyph-name="scaron" unicode="&#x161;" horiz-adv-x="439" 
d="M129 -3.5q-54 4.5 -94 10.5v127q84 -6 122 -6q44 0 59 1.5t20 6.5t5 20q0 12 -2 16.5t-10.5 7t-30.5 5.5l-100 15q-45 6 -61 44t-16 117q0 64 25 98t68 46.5t107 12.5q46 0 94.5 -4t76.5 -11v-128q-82 7 -117 7q-37 0 -52 -1.5t-19 -6t-4 -16.5t1.5 -16.5t8.5 -6.5t26 -5
l83 -12q32 -5 53 -17t33.5 -44.5t12.5 -92.5q0 -73 -24 -110.5t-64 -49.5t-102 -12q-45 0 -99 4.5zM136 603l-82 132v8h122l48 -67l45 67h122v-8l-83 -132h-172z" />
    <glyph glyph-name="uni0162" unicode="&#x162;" horiz-adv-x="515" 
d="M10 688h495v-164h-145v-524h-41l-32 -189h-164v5l73 184h-42v524h-144v164z" />
    <glyph glyph-name="uni0163" unicode="&#x163;" horiz-adv-x="382" 
d="M278 510h90v-140h-90v-370h-35l-32 -189h-164v5l73 184h-34v370h-71v140h71v148h192v-148z" />
    <glyph glyph-name="Tcaron" unicode="&#x164;" horiz-adv-x="515" 
d="M154 0v524h-144v164h495v-164h-145v-524h-206zM171 748l-82 132v8h122l48 -67l45 67h122v-8l-83 -132h-172z" />
    <glyph glyph-name="tcaron" unicode="&#x165;" horiz-adv-x="528" 
d="M86 0v370h-71v140h71v148h192v-148h90v-140h-90v-370h-192zM396 421l12 222v45h167v-45l-49 -222h-130z" />
    <glyph glyph-name="Tbar" unicode="&#x166;" horiz-adv-x="515" 
d="M505 524h-145v-126h122v-132h-122v-266h-206v266h-122v132h122v126h-144v164h495v-164z" />
    <glyph glyph-name="tbar" unicode="&#x167;" horiz-adv-x="382" 
d="M368 370h-90v-71h88v-132h-88v-167h-192v167h-70v132h70v71h-71v140h71v148h192v-148h90v-140z" />
    <glyph glyph-name="Utilde" unicode="&#x168;" horiz-adv-x="590" 
d="M546 688v-375q0 -142 -12.5 -202.5t-64.5 -89.5t-174 -29t-174 29t-64.5 89.5t-12.5 202.5v375h207v-418q0 -64 2 -85.5t10 -27.5t32 -6t32.5 6t10.5 28t2 85v418h206zM474.5 801.5q-4.5 -28.5 -24.5 -45.5t-65 -17q-39 0 -103 15l-24 4q-23 5 -34 5q-13 0 -16 -7t-3 -29
h-95q0 57 4.5 86t25 46t64.5 17q40 0 104 -15q43 -9 57 -9q13 0 16 7t3 29h95q0 -58 -4.5 -86.5z" />
    <glyph glyph-name="utilde" unicode="&#x169;" horiz-adv-x="522" 
d="M295 57h-9q-34 -65 -120 -65q-55 0 -82 20.5t-36 60t-9 109.5v328h190v-271q0 -50 1.5 -67t7 -21.5t22.5 -4.5q18 0 24 5t7.5 23.5t1.5 72.5v263h190v-510h-184zM440.5 656.5q-4.5 -28.5 -24.5 -45.5t-65 -17q-39 0 -103 15l-24 4q-23 5 -34 5q-13 0 -16 -7t-3 -29h-95
q0 57 4.5 86t25 46t64.5 17q40 0 104 -15q43 -9 57 -9q13 0 16 7t3 29h95q0 -58 -4.5 -86.5z" />
    <glyph glyph-name="Umacron" unicode="&#x16a;" horiz-adv-x="590" 
d="M546 688v-375q0 -142 -12.5 -202.5t-64.5 -89.5t-174 -29t-174 29t-64.5 89.5t-12.5 202.5v375h207v-418q0 -64 2 -85.5t10 -27.5t32 -6t32.5 6t10.5 28t2 85v418h206zM167 739v149h257v-149h-257z" />
    <glyph glyph-name="umacron" unicode="&#x16b;" horiz-adv-x="522" 
d="M295 57h-9q-34 -65 -120 -65q-55 0 -82 20.5t-36 60t-9 109.5v328h190v-271q0 -50 1.5 -67t7 -21.5t22.5 -4.5q18 0 24 5t7.5 23.5t1.5 72.5v263h190v-510h-184zM133 594v149h257v-149h-257z" />
    <glyph glyph-name="Ubreve" unicode="&#x16c;" horiz-adv-x="590" 
d="M546 688v-375q0 -142 -12.5 -202.5t-64.5 -89.5t-174 -29t-174 29t-64.5 89.5t-12.5 202.5v375h207v-418q0 -64 2 -85.5t10 -27.5t32 -6t32.5 6t10.5 28t2 85v418h206zM433.5 810q-11.5 -31 -44.5 -48.5t-95 -17.5q-61 0 -94 17.5t-44.5 48.5t-11.5 78h103
q0 -25 7.5 -36.5t39.5 -11.5q23 0 33 6t12.5 15.5t2.5 26.5h103q0 -47 -11.5 -78z" />
    <glyph glyph-name="ubreve" unicode="&#x16d;" horiz-adv-x="522" 
d="M295 57h-9q-34 -65 -120 -65q-55 0 -82 20.5t-36 60t-9 109.5v328h190v-271q0 -50 1.5 -67t7 -21.5t22.5 -4.5q18 0 24 5t7.5 23.5t1.5 72.5v263h190v-510h-184zM399.5 665q-11.5 -31 -44.5 -48.5t-95 -17.5q-61 0 -94 17.5t-44.5 48.5t-11.5 78h103q0 -25 7.5 -36.5
t39.5 -11.5q23 0 33 6t12.5 15.5t2.5 26.5h103q0 -47 -11.5 -78z" />
    <glyph glyph-name="Uring" unicode="&#x16e;" horiz-adv-x="590" 
d="M546 688v-375q0 -142 -12.5 -202.5t-64.5 -89.5t-174 -29t-174 29t-64.5 89.5t-12.5 202.5v375h207v-418q0 -64 2 -85.5t10 -27.5t32 -6t32.5 6t10.5 28t2 85v418h206zM197.5 724.5q-30.5 11.5 -40 35t-9.5 71.5t9.5 72t40.5 36t96 12q66 0 97 -11.5t40 -36t9 -72.5
t-9 -71.5t-40 -35t-97 -11.5t-96.5 11.5zM326.5 791.5q9.5 3.5 11.5 11.5t2 28t-2 28.5t-11.5 12t-32.5 3.5q-22 0 -31.5 -3.5t-11.5 -12t-2 -28.5t2 -28t11.5 -11.5t31.5 -3.5q23 0 32.5 3.5z" />
    <glyph glyph-name="uring" unicode="&#x16f;" horiz-adv-x="522" 
d="M295 57h-9q-34 -65 -120 -65q-55 0 -82 20.5t-36 60t-9 109.5v328h190v-271q0 -50 1.5 -67t7 -21.5t22.5 -4.5q18 0 24 5t7.5 23.5t1.5 72.5v263h190v-510h-184zM163.5 609.5q-30.5 11.5 -40 35t-9.5 71.5t9.5 72t40.5 36t96 12q66 0 97 -11.5t40 -36t9 -72.5t-9 -71.5
t-40 -35t-97 -11.5t-96.5 11.5zM292.5 676.5q9.5 3.5 11.5 11.5t2 28t-2 28.5t-11.5 12t-32.5 3.5q-22 0 -31.5 -3.5t-11.5 -12t-2 -28.5t2 -28t11.5 -11.5t31.5 -3.5q23 0 32.5 3.5z" />
    <glyph glyph-name="Uhungarumlaut" unicode="&#x170;" horiz-adv-x="590" 
d="M546 688v-375q0 -142 -12.5 -202.5t-64.5 -89.5t-174 -29t-174 29t-64.5 89.5t-12.5 202.5v375h207v-418q0 -64 2 -85.5t10 -27.5t32 -6t32.5 6t10.5 28t2 85v418h206zM158 756v4l54 114h144v-4l-86 -114h-112zM328 756v4l55 114h143v-4l-85 -114h-113z" />
    <glyph glyph-name="uhungarumlaut" unicode="&#x171;" horiz-adv-x="522" 
d="M295 57h-9q-34 -65 -120 -65q-55 0 -82 20.5t-36 60t-9 109.5v328h190v-271q0 -50 1.5 -67t7 -21.5t22.5 -4.5q18 0 24 5t7.5 23.5t1.5 72.5v263h190v-510h-184zM121 611v4l54 114h144v-4l-86 -114h-112zM291 611v4l55 114h143v-4l-85 -114h-113z" />
    <glyph glyph-name="Uogonek" unicode="&#x172;" horiz-adv-x="590" 
d="M546 688v-375q0 -98 -4 -149.5t-21.5 -88t-54.5 -56.5q-32 -17 -51.5 -38t-19.5 -52q0 -17 9 -26t34 -9l14 1v-87q-38 -4 -76 -4q-69 0 -98.5 25t-29.5 65q0 48 47 98h-2q-121 0 -173 29t-64 89.5t-12 202.5v375h207v-418q0 -64 2 -85.5t10 -27.5t32 -6t32.5 6t10.5 28
t2 85v418h206z" />
    <glyph glyph-name="uogonek" unicode="&#x173;" horiz-adv-x="522" 
d="M441 -32.5q-19 -19.5 -19 -41.5q0 -32 42 -32l15 1v-87q-38 -4 -74 -4q-69 0 -99.5 24.5t-30.5 62.5q0 55 63 109h-39l-4 57h-9q-34 -65 -120 -65q-55 0 -82 20.5t-36 60t-9 109.5v328h190v-271q0 -50 1.5 -67t7 -21.5t22.5 -4.5q18 0 24 5t7.5 23.5t1.5 72.5v263h190
v-510q-23 -13 -42 -32.5z" />
    <glyph glyph-name="Wcircumflex" unicode="&#x174;" horiz-adv-x="882" 
d="M503 0l-57 385h-10l-56 -385h-269l-106 688h206l46 -467h10l66 467h222l67 -467h10l40 467h205l-106 -688h-268zM273 748v9l82 131h172l83 -131v-9h-122l-47 67l-46 -67h-122z" />
    <glyph glyph-name="wcircumflex" unicode="&#x175;" horiz-adv-x="766" 
d="M429 0l-40 218h-11l-40 -218h-237l-93 510h184l35 -321h10l60 321h176l62 -321h11l32 321h180l-94 -510h-235zM215 603v9l82 131h172l83 -131v-9h-122l-47 67l-46 -67h-122z" />
    <glyph glyph-name="Ycircumflex" unicode="&#x176;" horiz-adv-x="575" 
d="M184 0v225l-187 463h210l80 -267h8l78 267h205l-187 -463v-225h-207zM119 748v9l82 131h172l83 -131v-9h-122l-47 67l-46 -67h-122z" />
    <glyph glyph-name="ycircumflex" unicode="&#x177;" horiz-adv-x="522" 
d="M152 -202.5q-47 3.5 -76 9.5v127h121q52 0 69.5 4t22 19.5t4.5 61.5v53h-10q-20 -37 -51.5 -51t-65.5 -14q-55 0 -82 20.5t-36 60t-9 109.5v313h190v-255q0 -51 1.5 -68t7 -21.5t22.5 -4.5q18 0 24 5t7.5 23.5t1.5 72.5v248h190v-455q0 -101 -13 -152.5t-64 -80
t-162 -28.5q-45 0 -92 3.5zM92 603v9l82 131h172l83 -131v-9h-122l-47 67l-46 -67h-122z" />
    <glyph glyph-name="Ydieresis" unicode="&#x178;" horiz-adv-x="575" 
d="M184 0v225l-187 463h210l80 -267h8l78 267h205l-187 -463v-225h-207zM116 777v119h150v-119h-150zM315 777v119h151v-119h-151z" />
    <glyph glyph-name="Zacute" unicode="&#x179;" horiz-adv-x="536" 
d="M34 0v150l225 381h-216v157h459v-147l-228 -384h227v-157h-467zM195 740v5l70 143h177v-5l-109 -143h-138z" />
    <glyph glyph-name="zacute" unicode="&#x17a;" horiz-adv-x="473" 
d="M32 0v132l177 238h-168v140h399v-132l-177 -238h178v-140h-409zM168 595v5l70 143h177v-5l-109 -143h-138z" />
    <glyph glyph-name="Zdotaccent" unicode="&#x17b;" horiz-adv-x="536" 
d="M34 0v150l225 381h-216v157h459v-147l-228 -384h227v-157h-467zM192 756v119h151v-119h-151z" />
    <glyph glyph-name="zdotaccent" unicode="&#x17c;" horiz-adv-x="473" 
d="M32 0v132l177 238h-168v140h399v-132l-177 -238h178v-140h-409zM161 611v119h151v-119h-151z" />
    <glyph glyph-name="Zcaron" unicode="&#x17d;" horiz-adv-x="536" 
d="M34 0v150l225 381h-216v157h459v-147l-228 -384h227v-157h-467zM189 751l-82 132v8h122l48 -67l45 67h122v-8l-83 -132h-172z" />
    <glyph glyph-name="zcaron" unicode="&#x17e;" horiz-adv-x="473" 
d="M32 0v132l177 238h-168v140h399v-132l-177 -238h178v-140h-409zM156 603l-82 132v8h122l48 -67l45 67h122v-8l-83 -132h-172z" />
    <glyph glyph-name="longs" unicode="&#x17f;" horiz-adv-x="379" 
d="M86 370h-71v140h71v11q0 110 20.5 154t75 55.5t193.5 11.5v-126q-50 0 -68 -3.5t-23.5 -16t-5.5 -46.5v-550h-192v370z" />
    <glyph glyph-name="uni018F" unicode="&#x18f;" horiz-adv-x="601" 
d="M459.5 663.5q60.5 -32.5 80 -104t19.5 -215.5q0 -157 -13 -223.5t-67.5 -97.5t-184.5 -31q-126 0 -179.5 31t-66 97.5t-12.5 223.5v81h315q-2 53 -12 76t-35 30.5t-81 7.5q-60 0 -120 -7v147q30 8 77 12.5t92 4.5q127 0 187.5 -32.5zM337.5 155q12.5 6 17.5 30t6 85h-128
q1 -61 5.5 -85t15.5 -30t40 -6q31 0 43.5 6z" />
    <glyph glyph-name="florin" unicode="&#x192;" horiz-adv-x="517" 
d="M402.5 610.5q-19.5 -5.5 -29 -25.5t-21.5 -75h97l-30 -140h-97l-84 -396q-18 -85 -45.5 -119t-84.5 -43.5t-194 -9.5l27 126q49 0 68 3.5t26.5 15t14.5 42.5l80 381h-71l30 140h71l1 4q24 114 54 159.5t87 57t197 11.5l-27 -126q-50 0 -69.5 -5.5z" />
    <glyph glyph-name="uni019D" unicode="&#x19d;" horiz-adv-x="615" 
d="M570 688v-688h-187l-136 316h-5v-280q0 -110 -19.5 -158t-71 -62.5t-169.5 -14.5v128q30 0 43 5t16.5 15t3.5 31v708h206l115 -267h7v267h197z" />
    <glyph glyph-name="Ohorn" unicode="&#x1a0;" horiz-adv-x="602" 
d="M619 776v-13q0 -47 -6.5 -73.5t-26 -42.5t-58.5 -22q25 -37 31 -97.5t6 -183.5q0 -157 -13 -223.5t-67.5 -97.5t-184.5 -31q-129 0 -184 31t-67.5 97.5t-12.5 223.5t12.5 223.5t67.5 97.5t184 31q73 0 114 -8h22q28 0 41 5.5t17.5 18.5t4.5 39v25h120zM342.5 158.5
q10.5 9.5 13 44t2.5 141.5t-2.5 141.5t-13 44t-42.5 9.5q-31 0 -41.5 -9.5t-13 -44t-2.5 -141.5t2.5 -141.5t13 -44t41.5 -9.5q32 0 42.5 9.5z" />
    <glyph glyph-name="ohorn" unicode="&#x1a1;" horiz-adv-x="507" 
d="M534 598v-13q0 -44 -5.5 -70t-22.5 -42.5t-50 -23.5q14 -28 18.5 -71.5t4.5 -122.5q0 -116 -13 -167.5t-59.5 -73.5t-153.5 -22t-153.5 22t-59.5 73.5t-13 167.5t13 167.5t59.5 73.5t153.5 22q69 0 108 -8q33 1 43 14.5t10 48.5v25h120zM279.5 138.5q6.5 6.5 8.5 29
t2 87.5t-2 87.5t-8.5 29t-26.5 6.5q-19 0 -26 -6.5t-8.5 -28.5t-1.5 -88t1.5 -88t8.5 -28.5t26 -6.5q20 0 26.5 6.5z" />
    <glyph glyph-name="Uhorn" unicode="&#x1af;" horiz-adv-x="590" 
d="M617 776v-13q0 -64 -13.5 -93.5t-57.5 -40.5v-316q0 -142 -12.5 -202.5t-64.5 -89.5t-174 -29t-174 29t-64.5 89.5t-12.5 202.5v375h207v-418q0 -64 2 -85.5t10 -27.5t32 -6t32.5 6t10.5 28t2 85v418h94q28 0 41 5.5t17.5 18.5t4.5 39v25h120z" />
    <glyph glyph-name="uhorn" unicode="&#x1b0;" horiz-adv-x="522" 
d="M549 598v-13q0 -62 -13 -91t-53 -42v-452h-184l-4 57h-9q-34 -65 -120 -65q-55 0 -82 20.5t-36 60t-9 109.5v328h190v-271q0 -50 1.5 -67t7 -21.5t22.5 -4.5q18 0 24 5t7.5 23.5t1.5 72.5v263h73q28 0 41 5.5t17.5 18.5t4.5 39v25h120z" />
    <glyph glyph-name="uni01C4" unicode="&#x1c4;" horiz-adv-x="1121" 
d="M46 688h227q136 0 192.5 -29.5t70 -94.5t13.5 -220t-13.5 -220t-70 -94.5t-192.5 -29.5h-227v688zM275 157q36 0 48.5 9t15.5 42.5t3 134.5q0 103 -3 136.5t-15 42.5t-49 9h-24v-374h24zM619 0v150l225 381h-216v157h459v-147l-228 -384h227v-157h-467zM768 748l-82 132
v8h122l48 -67l45 67h122v-8l-83 -132h-172z" />
    <glyph glyph-name="uni01C5" unicode="&#x1c5;" horiz-adv-x="1058" 
d="M46 688h227q136 0 192.5 -29.5t70 -94.5t13.5 -220t-13.5 -220t-70 -94.5t-192.5 -29.5h-227v688zM275 157q36 0 48.5 9t15.5 42.5t3 134.5q0 103 -3 136.5t-15 42.5t-49 9h-24v-374h24zM617 0v132l177 238h-168v140h399v-132l-177 -238h178v-140h-409zM740 603l-82 132
v8h122l48 -67l45 67h122v-8l-83 -132h-172z" />
    <glyph glyph-name="uni01C6" unicode="&#x1c6;" horiz-adv-x="992" 
d="M84.5 14.5q-29.5 22.5 -43.5 79t-14 160.5q0 102 14 159t44 80.5t82 23.5q39 0 66.5 -13t45.5 -45h10v284h190v-743h-184l-4 57h-10q-29 -65 -116 -65q-51 0 -80.5 22.5zM277.5 149.5q6.5 4.5 8.5 21.5q3 22 3 84t-2 79q-2 20 -9 25.5t-25 5.5q-20 0 -26.5 -5t-8 -24.5
t-1.5 -80.5t1.5 -80.5t8 -24.5t26.5 -5q18 0 24.5 4.5zM551 0v132l177 238h-168v140h399v-132l-177 -238h178v-140h-409zM665 603l-82 132v8h122l48 -67l45 67h122v-8l-83 -132h-172z" />
    <glyph glyph-name="uni01C7" unicode="&#x1c7;" horiz-adv-x="840" 
d="M46 0v688h206v-524h191v-164h-397zM554.5 154q22.5 6 29 27.5t6.5 79.5v427h206v-360q0 -171 -17 -232t-77.5 -78.5t-229.5 -17.5v148q60 0 82.5 6z" />
    <glyph glyph-name="uni01C8" unicode="&#x1c8;" horiz-adv-x="731" 
d="M46 0v688h206v-524h191v-164h-397zM498 598v145h193v-145h-193zM435 -71q30 0 43 5t16.5 15t3.5 31v530h193v-474q0 -110 -19.5 -158t-70 -62.5t-166.5 -14.5v128z" />
    <glyph glyph-name="uni01C9" unicode="&#x1c9;" horiz-adv-x="544" 
d="M39 0v743h193v-743h-193zM311 598v145h193v-145h-193zM248 -71q30 0 43 5t16.5 15t3.5 31v530h193v-474q0 -110 -19.5 -158t-70 -62.5t-166.5 -14.5v128z" />
    <glyph glyph-name="uni01CA" unicode="&#x1ca;" horiz-adv-x="996" 
d="M383 0l-136 316h-5v-316h-197v688h206l115 -267h7v267h197v-688h-187zM710.5 154q22.5 6 29 27.5t6.5 79.5v427h206v-360q0 -171 -17 -232t-77.5 -78.5t-229.5 -17.5v148q60 0 82.5 6z" />
    <glyph glyph-name="uni01CB" unicode="&#x1cb;" horiz-adv-x="887" 
d="M383 0l-136 316h-5v-316h-197v688h206l115 -267h7v267h197v-688h-187zM654 598v145h193v-145h-193zM591 -71q30 0 43 5t16.5 15t3.5 31v530h193v-474q0 -110 -19.5 -158t-70 -62.5t-166.5 -14.5v128z" />
    <glyph glyph-name="uni01CC" unicode="&#x1cc;" horiz-adv-x="794" 
d="M293 271q0 50 -1.5 67t-7 21.5t-22.5 4.5q-18 0 -24 -5t-7.5 -23.5t-1.5 -72.5v-263h-190v510h184l4 -57h10q34 65 119 65q55 0 82 -20.5t36 -60t9 -109.5v-328h-190v271zM561 598v145h193v-145h-193zM498 -71q30 0 43 5t16.5 15t3.5 31v530h193v-474q0 -110 -19.5 -158
t-70 -62.5t-166.5 -14.5v128z" />
    <glyph glyph-name="uni01CD" unicode="&#x1cd;" horiz-adv-x="606" 
d="M403 0l-21 110h-162l-20 -110h-202l159 688h293l158 -688h-205zM304 515h-8l-46 -253h102zM217 748l-82 132v8h122l48 -67l45 67h122v-8l-83 -132h-172z" />
    <glyph glyph-name="uni01CE" unicode="&#x1ce;" horiz-adv-x="501" 
d="M54 30q-30 38 -30 119q0 60 12.5 93t44.5 47.5t93 14.5q40 0 98 -4v19q0 30 -5.5 41.5t-23 14.5t-64.5 3q-56 0 -130 -6v130q98 16 188 16q100 0 148 -22.5t62.5 -66t14.5 -124.5v-305h-185l-4 56h-9q-22 -37 -49.5 -50.5t-65.5 -13.5q-65 0 -95 38zM257.5 130
q7.5 4 11.5 13q3 9 3 44v27h-34q-25 0 -31.5 -8.5t-6.5 -39.5q0 -24 6 -32t30 -8q14 0 21.5 4zM164 603l-82 132v8h122l48 -67l45 67h122v-8l-83 -132h-172z" />
    <glyph glyph-name="uni01CF" unicode="&#x1cf;" horiz-adv-x="298" 
d="M46 0v688h206v-688h-206zM62 748l-82 132v8h122l48 -67l45 67h122v-8l-83 -132h-172z" />
    <glyph glyph-name="uni01D0" unicode="&#x1d0;" horiz-adv-x="272" 
d="M39 0v510h193v-510h-193zM49 603l-82 132v8h122l48 -67l45 67h122v-8l-83 -132h-172z" />
    <glyph glyph-name="uni01D1" unicode="&#x1d1;" horiz-adv-x="602" 
d="M116 23q-55 31 -67.5 97.5t-12.5 223.5t12.5 223.5t67.5 97.5t184 31q130 0 184.5 -31t67.5 -97.5t13 -223.5t-13 -223.5t-67.5 -97.5t-184.5 -31q-129 0 -184 31zM342.5 158.5q10.5 9.5 13 44t2.5 141.5t-2.5 141.5t-13 44t-42.5 9.5q-31 0 -41.5 -9.5t-13 -44
t-2.5 -141.5t2.5 -141.5t13 -44t41.5 -9.5q32 0 42.5 9.5zM214 748l-82 132v8h122l48 -67l45 67h122v-8l-83 -132h-172z" />
    <glyph glyph-name="uni01D2" unicode="&#x1d2;" horiz-adv-x="507" 
d="M99.5 14q-46.5 22 -59.5 73.5t-13 167.5t13 167.5t59.5 73.5t153.5 22t153.5 -22t59.5 -73.5t13 -167.5t-13 -167.5t-59.5 -73.5t-153.5 -22t-153.5 22zM279.5 138.5q6.5 6.5 8.5 29t2 87.5t-2 87.5t-8.5 29t-26.5 6.5q-19 0 -26 -6.5t-8.5 -28.5t-1.5 -88t1.5 -88
t8.5 -28.5t26 -6.5q20 0 26.5 6.5zM167 603l-82 132v8h122l48 -67l45 67h122v-8l-83 -132h-172z" />
    <glyph glyph-name="uni01D3" unicode="&#x1d3;" horiz-adv-x="590" 
d="M546 688v-375q0 -142 -12.5 -202.5t-64.5 -89.5t-174 -29t-174 29t-64.5 89.5t-12.5 202.5v375h207v-418q0 -64 2 -85.5t10 -27.5t32 -6t32.5 6t10.5 28t2 85v418h206zM208 748l-82 132v8h122l48 -67l45 67h122v-8l-83 -132h-172z" />
    <glyph glyph-name="uni01D4" unicode="&#x1d4;" horiz-adv-x="522" 
d="M295 57h-9q-34 -65 -120 -65q-55 0 -82 20.5t-36 60t-9 109.5v328h190v-271q0 -50 1.5 -67t7 -21.5t22.5 -4.5q18 0 24 5t7.5 23.5t1.5 72.5v263h190v-510h-184zM174 603l-82 132v8h122l48 -67l45 67h122v-8l-83 -132h-172z" />
    <glyph glyph-name="uni01D5" unicode="&#x1d5;" horiz-adv-x="590" 
d="M270 852v-96h-150v119h49v87h257v-87h44v-119h-151v96h-49zM546 688v-375q0 -142 -12.5 -202.5t-64.5 -89.5t-174 -29t-174 29t-64.5 89.5t-12.5 202.5v375h207v-418q0 -64 2 -85.5t10 -27.5t32 -6t32.5 6t10.5 28t2 85v418h206z" />
    <glyph glyph-name="uni01D6" unicode="&#x1d6;" horiz-adv-x="522" 
d="M295 57h-9q-34 -65 -120 -65q-55 0 -82 20.5t-36 60t-9 109.5v328h190v-271q0 -50 1.5 -67t7 -21.5t22.5 -4.5q18 0 24 5t7.5 23.5t1.5 72.5v263h190v-510h-184zM86 611v119h150v-119h-150zM285 611v119h151v-119h-151zM135 754v149h257v-149h-257z" />
    <glyph glyph-name="uni01D7" unicode="&#x1d7;" horiz-adv-x="590" 
d="M270 867v-111h-150v119h105l69 140h177v-5l-103 -135h102v-119h-151v111h-49zM546 688v-375q0 -142 -12.5 -202.5t-64.5 -89.5t-174 -29t-174 29t-64.5 89.5t-12.5 202.5v375h207v-418q0 -64 2 -85.5t10 -27.5t32 -6t32.5 6t10.5 28t2 85v418h206z" />
    <glyph glyph-name="uni01D8" unicode="&#x1d8;" horiz-adv-x="522" 
d="M295 57h-9q-34 -65 -120 -65q-55 0 -82 20.5t-36 60t-9 109.5v328h190v-271q0 -50 1.5 -67t7 -21.5t22.5 -4.5q18 0 24 5t7.5 23.5t1.5 72.5v263h190v-510h-184zM86 611v119h150v-119h-150zM285 611v119h151v-119h-151zM194 755v5l70 143h177v-5l-109 -143h-138z" />
    <glyph glyph-name="uni01D9" unicode="&#x1d9;" horiz-adv-x="590" 
d="M546 688v-375q0 -142 -12.5 -202.5t-64.5 -89.5t-174 -29t-174 29t-64.5 89.5t-12.5 202.5v375h207v-418q0 -64 2 -85.5t10 -27.5t32 -6t32.5 6t10.5 28t2 85v418h206zM120 756v119h150v-119h-150zM319 756v119h151v-119h-151zM210 875l-82 132v8h122l48 -67l45 67h122
v-8l-83 -132h-172z" />
    <glyph glyph-name="uni01DA" unicode="&#x1da;" horiz-adv-x="522" 
d="M295 57h-9q-34 -65 -120 -65q-55 0 -82 20.5t-36 60t-9 109.5v328h190v-271q0 -50 1.5 -67t7 -21.5t22.5 -4.5q18 0 24 5t7.5 23.5t1.5 72.5v263h190v-510h-184zM86 611v119h150v-119h-150zM285 611v119h151v-119h-151zM176 763l-82 132v8h122l48 -67l45 67h122v-8
l-83 -132h-172z" />
    <glyph glyph-name="uni01DB" unicode="&#x1db;" horiz-adv-x="590" 
d="M270 867v-111h-150v119h110l-103 135v5h178l68 -140h97v-119h-151v111h-49zM546 688v-375q0 -142 -12.5 -202.5t-64.5 -89.5t-174 -29t-174 29t-64.5 89.5t-12.5 202.5v375h207v-418q0 -64 2 -85.5t10 -27.5t32 -6t32.5 6t10.5 28t2 85v418h206z" />
    <glyph glyph-name="uni01DC" unicode="&#x1dc;" horiz-adv-x="522" 
d="M295 57h-9q-34 -65 -120 -65q-55 0 -82 20.5t-36 60t-9 109.5v328h190v-271q0 -50 1.5 -67t7 -21.5t22.5 -4.5q18 0 24 5t7.5 23.5t1.5 72.5v263h190v-510h-184zM86 611v119h150v-119h-150zM285 611v119h151v-119h-151zM195 755l-109 143v5h178l69 -143v-5h-138z" />
    <glyph glyph-name="Gcaron" unicode="&#x1e6;" horiz-adv-x="578" 
d="M300 268v145h235v-400q-47 -9 -110.5 -15t-114.5 -6q-115 0 -172.5 30t-79.5 103.5t-22 218.5t22.5 218.5t81.5 103.5t176 30q48 0 109.5 -6.5t107.5 -16.5v-146q-110 12 -154 12q-74 0 -99.5 -9.5t-33 -46t-7.5 -139.5q0 -93 5 -132.5t21 -53t54 -13.5l35 1v122h-54z
M200 748l-82 132v8h122l48 -67l45 67h122v-8l-83 -132h-172z" />
    <glyph glyph-name="gcaron" unicode="&#x1e7;" horiz-adv-x="519" 
d="M145 -202.5q-48 3.5 -77 9.5v127h120q54 0 73 4.5t23.5 19.5t4.5 60v49h-10q-18 -33 -45.5 -46t-66.5 -13q-52 0 -82 23t-44 78t-14 155q0 101 14 156t43.5 76.5t80.5 21.5q87 0 116 -65h10l4 57h184v-455q0 -101 -13.5 -152.5t-64.5 -80t-163 -28.5q-45 0 -93 3.5z
M277.5 164.5q6.5 4.5 8.5 20.5q3 16 3 78q0 58 -2 73q-2 19 -9 24t-25 5q-20 0 -26.5 -4.5t-8 -23t-1.5 -74.5t1.5 -74.5t8 -23.5t26.5 -5q18 0 24.5 4.5zM172 603l-82 132v8h122l48 -67l45 67h122v-8l-83 -132h-172z" />
    <glyph glyph-name="uni01EA" unicode="&#x1ea;" horiz-adv-x="602" 
d="M298 -171.5q-30 24.5 -30 63.5q0 51 43 100h-11q-129 0 -184 31t-67.5 97.5t-12.5 223.5t12.5 223.5t67.5 97.5t184 31q130 0 184.5 -31t67.5 -97.5t13 -223.5q0 -108 -4 -163t-20.5 -94.5t-53.5 -61.5q-34 -18 -52.5 -43.5t-18.5 -55.5q0 -32 42 -32l15 1v-87
q-40 -4 -75 -4q-70 0 -100 24.5zM341.5 158.5q10.5 9.5 13.5 45t3 140.5t-3 140.5t-13.5 45t-41.5 9.5t-41.5 -9.5t-13 -44t-2.5 -141.5t2.5 -141.5t13 -44t41.5 -9.5t41.5 9.5z" />
    <glyph glyph-name="uni01EB" unicode="&#x1eb;" horiz-adv-x="507" 
d="M406.5 496q46.5 -22 59.5 -73.5t13 -167.5q0 -77 -4 -119t-17.5 -70.5t-42.5 -46.5q-25 -17 -41 -38.5t-16 -51.5q0 -17 8.5 -26t33.5 -9l15 1v-87q-40 -4 -75 -4q-70 0 -100 24.5t-30 64.5q0 48 38 99q-105 2 -150.5 23.5t-58 72.5t-12.5 167t13 167.5t59.5 73.5
t153.5 22t153.5 -22zM218.5 167q1.5 -22 8.5 -28.5t26 -6.5q20 0 26.5 6.5t8.5 29t2 87.5t-2 87.5t-8.5 29t-26.5 6.5q-19 0 -26 -6.5t-8.5 -28.5t-1.5 -88t1.5 -88z" />
    <glyph glyph-name="uni01F1" unicode="&#x1f1;" horiz-adv-x="1121" 
d="M46 688h227q136 0 192.5 -29.5t70 -94.5t13.5 -220t-13.5 -220t-70 -94.5t-192.5 -29.5h-227v688zM275 157q36 0 48.5 9t15.5 42.5t3 134.5q0 103 -3 136.5t-15 42.5t-49 9h-24v-374h24zM619 0v150l225 381h-216v157h459v-147l-228 -384h227v-157h-467z" />
    <glyph glyph-name="uni01F2" unicode="&#x1f2;" horiz-adv-x="1058" 
d="M46 688h227q136 0 192.5 -29.5t70 -94.5t13.5 -220t-13.5 -220t-70 -94.5t-192.5 -29.5h-227v688zM275 157q36 0 48.5 9t15.5 42.5t3 134.5q0 103 -3 136.5t-15 42.5t-49 9h-24v-374h24zM617 0v132l177 238h-168v140h399v-132l-177 -238h178v-140h-409z" />
    <glyph glyph-name="uni01F3" unicode="&#x1f3;" horiz-adv-x="992" 
d="M84.5 14.5q-29.5 22.5 -43.5 79t-14 160.5q0 102 14 159t44 80.5t82 23.5q39 0 66.5 -13t45.5 -45h10v284h190v-743h-184l-4 57h-10q-29 -65 -116 -65q-51 0 -80.5 22.5zM277.5 149.5q6.5 4.5 8.5 21.5q3 22 3 84t-2 79q-2 20 -9 25.5t-25 5.5q-20 0 -26.5 -5t-8 -24.5
t-1.5 -80.5t1.5 -80.5t8 -24.5t26.5 -5q18 0 24.5 4.5zM551 0v132l177 238h-168v140h399v-132l-177 -238h178v-140h-409z" />
    <glyph glyph-name="uni01F4" unicode="&#x1f4;" horiz-adv-x="578" 
d="M300 268v145h235v-400q-47 -9 -110.5 -15t-114.5 -6q-115 0 -172.5 30t-79.5 103.5t-22 218.5t22.5 218.5t81.5 103.5t176 30q48 0 109.5 -6.5t107.5 -16.5v-146q-110 12 -154 12q-74 0 -99.5 -9.5t-33 -46t-7.5 -139.5q0 -93 5 -132.5t21 -53t54 -13.5l35 1v122h-54z
M214 740v5l70 143h177v-5l-109 -143h-138z" />
    <glyph glyph-name="uni01F5" unicode="&#x1f5;" horiz-adv-x="519" 
d="M145 -202.5q-48 3.5 -77 9.5v127h120q54 0 73 4.5t23.5 19.5t4.5 60v49h-10q-18 -33 -45.5 -46t-66.5 -13q-52 0 -82 23t-44 78t-14 155q0 101 14 156t43.5 76.5t80.5 21.5q87 0 116 -65h10l4 57h184v-455q0 -101 -13.5 -152.5t-64.5 -80t-163 -28.5q-45 0 -93 3.5z
M277.5 164.5q6.5 4.5 8.5 20.5q3 16 3 78q0 58 -2 73q-2 19 -9 24t-25 5q-20 0 -26.5 -4.5t-8 -23t-1.5 -74.5t1.5 -74.5t8 -23.5t26.5 -5q18 0 24.5 4.5zM190 595v5l70 143h177v-5l-109 -143h-138z" />
    <glyph glyph-name="Aringacute" unicode="&#x1fa;" horiz-adv-x="606" 
d="M608 0h-205l-21 110h-162l-20 -110h-202l159 687q-10 15 -13.5 36t-3.5 56q0 54 10.5 81t44.5 39.5t108 12.5t108 -12.5t44.5 -39.5t10.5 -81q0 -33 -3.5 -54.5t-12.5 -36.5zM339.5 735q10.5 4 13 13t2.5 31q0 23 -2.5 32t-13 13t-36.5 4q-25 0 -35 -4t-12.5 -13
t-2.5 -32q0 -22 2.5 -31t12.5 -13t35 -4q26 0 36.5 4zM250 262h102l-48 253h-8zM230 964v5l70 143h177v-5l-109 -143h-138z" />
    <glyph glyph-name="aringacute" unicode="&#x1fb;" horiz-adv-x="501" 
d="M54 30q-30 38 -30 119q0 60 12.5 93t44.5 47.5t93 14.5q40 0 98 -4v19q0 30 -5.5 41.5t-23 14.5t-64.5 3q-56 0 -130 -6v130q98 16 188 16q100 0 148 -22.5t62.5 -66t14.5 -124.5v-305h-185l-4 56h-9q-22 -37 -49.5 -50.5t-65.5 -13.5q-65 0 -95 38zM257.5 130
q7.5 4 11.5 13q3 9 3 44v27h-34q-25 0 -31.5 -8.5t-6.5 -39.5q0 -24 6 -32t30 -8q14 0 21.5 4zM153.5 609.5q-30.5 11.5 -40 35t-9.5 71.5t9.5 72t40.5 36t96 12q66 0 97 -11.5t40 -36t9 -72.5t-9 -71.5t-40 -35t-97 -11.5t-96.5 11.5zM282.5 676.5q9.5 3.5 11.5 11.5t2 28
t-2 28.5t-11.5 12t-32.5 3.5q-22 0 -31.5 -3.5t-11.5 -12t-2 -28.5t2 -28t11.5 -11.5t31.5 -3.5q23 0 32.5 3.5zM184 861v5l70 143h177v-5l-109 -143h-138z" />
    <glyph glyph-name="AEacute" unicode="&#x1fc;" horiz-adv-x="837" 
d="M388 0l-10 112h-166l-32 -112h-202l245 688h573v-157h-271l10 -106h225v-155h-209l11 -113h234v-157h-408zM344 529h-8l-78 -265h108zM346 740v5l70 143h177v-5l-109 -143h-138z" />
    <glyph glyph-name="aeacute" unicode="&#x1fd;" horiz-adv-x="743" 
d="M712 214h-250q0 -43 5.5 -58.5t24 -19.5t69.5 -4q43 0 135 6v-128q-29 -8 -79.5 -13t-101.5 -5q-117 0 -164 35q-33 -20 -71 -27.5t-88 -7.5q-69 0 -105.5 16.5t-49.5 50t-13 90.5q0 60 12.5 93t44.5 47.5t93 14.5q40 0 98 -4v19q0 30 -5.5 41.5t-23 14.5t-64.5 3
q-56 0 -130 -6v130q91 16 175 16q93 0 146 -35q50 35 142 35q98 0 139.5 -24.5t51 -74t9.5 -165.5v-40zM474 383.5q-7 -4.5 -9.5 -21.5t-2.5 -59h74q0 44 -2.5 60.5t-9.5 20.5t-26 4q-17 0 -24 -4.5zM272 214h-34q-25 0 -31.5 -8.5t-6.5 -39.5q0 -25 6 -33.5t30 -8.5
q18 0 25.5 6t9.5 19q1 11 1 37v28zM302 595v5l70 143h177v-5l-109 -143h-138z" />
    <glyph glyph-name="Oslashacute" unicode="&#x1fe;" horiz-adv-x="602" 
d="M516 640q23 -25 33.5 -64t13 -89.5t2.5 -142.5q0 -157 -13 -223.5t-67.5 -97.5t-184.5 -31q-50 0 -83 4l-23 -51h-158l48 103q-22 25 -32.5 64t-13 89.5t-2.5 142.5q0 157 12.5 223.5t67.5 97.5t184 31q51 0 83 -4l24 51h158zM342.5 158.5q10.5 9.5 13 44t2.5 141.5
t-2.5 141.5t-13 44t-42.5 9.5q-31 0 -41.5 -9.5t-13 -44t-2.5 -141.5t2.5 -141.5t13 -44t41.5 -9.5q32 0 42.5 9.5zM215 740v5l70 143h177v-5l-109 -143h-138z" />
    <glyph glyph-name="oslashacute" unicode="&#x1ff;" horiz-adv-x="507" 
d="M70 34q-27 27 -35 76t-8 145q0 116 13 167.5t59.5 73.5t153.5 22q18 0 46 -2l22 49h158l-42 -90q26 -27 34 -76t8 -144q0 -116 -13 -167.5t-59.5 -73.5t-153.5 -22q-31 0 -45 1l-22 -48h-158zM279.5 138.5q6.5 6.5 8.5 29t2 87.5t-2 87.5t-8.5 29t-26.5 6.5
q-19 0 -26 -6.5t-8.5 -28.5t-1.5 -88t1.5 -88t8.5 -28.5t26 -6.5q20 0 26.5 6.5zM185 595v5l70 143h177v-5l-109 -143h-138z" />
    <glyph glyph-name="uni0200" unicode="&#x200;" horiz-adv-x="606" 
d="M403 0l-21 110h-162l-20 -110h-202l159 688h293l158 -688h-205zM304 515h-8l-46 -253h102zM282 756h-113l-85 114v4h143l55 -114v-4zM452 756h-112l-86 114v4h144l54 -114v-4z" />
    <glyph glyph-name="uni0201" unicode="&#x201;" horiz-adv-x="501" 
d="M54 30q-30 38 -30 119q0 60 12.5 93t44.5 47.5t93 14.5q40 0 98 -4v19q0 30 -5.5 41.5t-23 14.5t-64.5 3q-56 0 -130 -6v130q98 16 188 16q100 0 148 -22.5t62.5 -66t14.5 -124.5v-305h-185l-4 56h-9q-22 -37 -49.5 -50.5t-65.5 -13.5q-65 0 -95 38zM257.5 130
q7.5 4 11.5 13q3 9 3 44v27h-34q-25 0 -31.5 -8.5t-6.5 -39.5q0 -24 6 -32t30 -8q14 0 21.5 4zM229 611h-113l-85 114v4h143l55 -114v-4zM399 611h-112l-86 114v4h144l54 -114v-4z" />
    <glyph glyph-name="uni0202" unicode="&#x202;" horiz-adv-x="606" 
d="M403 0l-21 110h-162l-20 -110h-202l159 688h293l158 -688h-205zM304 515h-8l-46 -253h102zM164.5 827q11.5 31 44.5 48.5t95 17.5q61 0 94 -17.5t44.5 -48.5t11.5 -78h-103q0 25 -7.5 36.5t-39.5 11.5q-23 0 -33 -6t-12.5 -15.5t-2.5 -26.5h-103q0 47 11.5 78z" />
    <glyph glyph-name="uni0203" unicode="&#x203;" horiz-adv-x="501" 
d="M54 30q-30 38 -30 119q0 60 12.5 93t44.5 47.5t93 14.5q40 0 98 -4v19q0 30 -5.5 41.5t-23 14.5t-64.5 3q-56 0 -130 -6v130q98 16 188 16q100 0 148 -22.5t62.5 -66t14.5 -124.5v-305h-185l-4 56h-9q-22 -37 -49.5 -50.5t-65.5 -13.5q-65 0 -95 38zM257.5 130
q7.5 4 11.5 13q3 9 3 44v27h-34q-25 0 -31.5 -8.5t-6.5 -39.5q0 -24 6 -32t30 -8q14 0 21.5 4zM111.5 682q11.5 31 44.5 48.5t95 17.5q61 0 94 -17.5t44.5 -48.5t11.5 -78h-103q0 25 -7.5 36.5t-39.5 11.5q-23 0 -33 -6t-12.5 -15.5t-2.5 -26.5h-103q0 47 11.5 78z" />
    <glyph glyph-name="uni0204" unicode="&#x204;" horiz-adv-x="514" 
d="M46 0v688h428v-157h-223v-106h186v-155h-186v-113h223v-157h-428zM237 756h-113l-85 114v4h143l55 -114v-4zM407 756h-112l-86 114v4h144l54 -114v-4z" />
    <glyph glyph-name="uni0205" unicode="&#x205;" horiz-adv-x="494" 
d="M464 214h-250q0 -43 5.5 -58.5t23.5 -19.5t69 -4q40 0 136 6v-128q-28 -8 -79 -13t-102 -5q-112 0 -163 26.5t-64 78t-13 157.5t13 158.5t60 79t150 26.5q105 0 149.5 -24.5t54.5 -74t10 -165.5v-40zM226 383.5q-7 -4.5 -9.5 -21.5t-2.5 -59h74q0 43 -2.5 59.5t-9.5 21
t-26 4.5q-17 0 -24 -4.5zM225 611h-113l-85 114v4h143l55 -114v-4zM395 611h-112l-86 114v4h144l54 -114v-4z" />
    <glyph glyph-name="uni0206" unicode="&#x206;" horiz-adv-x="514" 
d="M46 0v688h428v-157h-223v-106h186v-155h-186v-113h223v-157h-428zM119.5 827q11.5 31 44.5 48.5t95 17.5q61 0 94 -17.5t44.5 -48.5t11.5 -78h-103q0 25 -7.5 36.5t-39.5 11.5q-23 0 -33 -6t-12.5 -15.5t-2.5 -26.5h-103q0 47 11.5 78z" />
    <glyph glyph-name="uni0207" unicode="&#x207;" horiz-adv-x="494" 
d="M464 214h-250q0 -43 5.5 -58.5t23.5 -19.5t69 -4q40 0 136 6v-128q-28 -8 -79 -13t-102 -5q-112 0 -163 26.5t-64 78t-13 157.5t13 158.5t60 79t150 26.5q105 0 149.5 -24.5t54.5 -74t10 -165.5v-40zM226 383.5q-7 -4.5 -9.5 -21.5t-2.5 -59h74q0 43 -2.5 59.5t-9.5 21
t-26 4.5q-17 0 -24 -4.5zM107.5 682q11.5 31 44.5 48.5t95 17.5q61 0 94 -17.5t44.5 -48.5t11.5 -78h-103q0 25 -7.5 36.5t-39.5 11.5q-23 0 -33 -6t-12.5 -15.5t-2.5 -26.5h-103q0 47 11.5 78z" />
    <glyph glyph-name="uni0208" unicode="&#x208;" horiz-adv-x="298" 
d="M46 0v688h206v-688h-206zM127 756h-113l-85 114v4h143l55 -114v-4zM297 756h-112l-86 114v4h144l54 -114v-4z" />
    <glyph glyph-name="uni0209" unicode="&#x209;" horiz-adv-x="272" 
d="M39 0v510h193v-510h-193zM114 611h-113l-85 114v4h143l55 -114v-4zM284 611h-112l-86 114v4h144l54 -114v-4z" />
    <glyph glyph-name="uni020A" unicode="&#x20a;" horiz-adv-x="298" 
d="M46 0v688h206v-688h-206zM9.5 827q11.5 31 44.5 48.5t95 17.5q61 0 94 -17.5t44.5 -48.5t11.5 -78h-103q0 25 -7.5 36.5t-39.5 11.5q-23 0 -33 -6t-12.5 -15.5t-2.5 -26.5h-103q0 47 11.5 78z" />
    <glyph glyph-name="uni020B" unicode="&#x20b;" horiz-adv-x="272" 
d="M39 0v510h193v-510h-193zM-3.5 682q11.5 31 44.5 48.5t95 17.5q61 0 94 -17.5t44.5 -48.5t11.5 -78h-103q0 25 -7.5 36.5t-39.5 11.5q-23 0 -33 -6t-12.5 -15.5t-2.5 -26.5h-103q0 47 11.5 78z" />
    <glyph glyph-name="uni020C" unicode="&#x20c;" horiz-adv-x="602" 
d="M116 23q-55 31 -67.5 97.5t-12.5 223.5t12.5 223.5t67.5 97.5t184 31q130 0 184.5 -31t67.5 -97.5t13 -223.5t-13 -223.5t-67.5 -97.5t-184.5 -31q-129 0 -184 31zM342.5 158.5q10.5 9.5 13 44t2.5 141.5t-2.5 141.5t-13 44t-42.5 9.5q-31 0 -41.5 -9.5t-13 -44
t-2.5 -141.5t2.5 -141.5t13 -44t41.5 -9.5q32 0 42.5 9.5zM279 756h-113l-85 114v4h143l55 -114v-4zM449 756h-112l-86 114v4h144l54 -114v-4z" />
    <glyph glyph-name="uni020D" unicode="&#x20d;" horiz-adv-x="507" 
d="M99.5 14q-46.5 22 -59.5 73.5t-13 167.5t13 167.5t59.5 73.5t153.5 22t153.5 -22t59.5 -73.5t13 -167.5t-13 -167.5t-59.5 -73.5t-153.5 -22t-153.5 22zM279.5 138.5q6.5 6.5 8.5 29t2 87.5t-2 87.5t-8.5 29t-26.5 6.5q-19 0 -26 -6.5t-8.5 -28.5t-1.5 -88t1.5 -88
t8.5 -28.5t26 -6.5q20 0 26.5 6.5zM232 611h-113l-85 114v4h143l55 -114v-4zM402 611h-112l-86 114v4h144l54 -114v-4z" />
    <glyph glyph-name="uni020E" unicode="&#x20e;" horiz-adv-x="602" 
d="M116 23q-55 31 -67.5 97.5t-12.5 223.5t12.5 223.5t67.5 97.5t184 31q130 0 184.5 -31t67.5 -97.5t13 -223.5t-13 -223.5t-67.5 -97.5t-184.5 -31q-129 0 -184 31zM342.5 158.5q10.5 9.5 13 44t2.5 141.5t-2.5 141.5t-13 44t-42.5 9.5q-31 0 -41.5 -9.5t-13 -44
t-2.5 -141.5t2.5 -141.5t13 -44t41.5 -9.5q32 0 42.5 9.5zM161.5 827q11.5 31 44.5 48.5t95 17.5q61 0 94 -17.5t44.5 -48.5t11.5 -78h-103q0 25 -7.5 36.5t-39.5 11.5q-23 0 -33 -6t-12.5 -15.5t-2.5 -26.5h-103q0 47 11.5 78z" />
    <glyph glyph-name="uni020F" unicode="&#x20f;" horiz-adv-x="507" 
d="M99.5 14q-46.5 22 -59.5 73.5t-13 167.5t13 167.5t59.5 73.5t153.5 22t153.5 -22t59.5 -73.5t13 -167.5t-13 -167.5t-59.5 -73.5t-153.5 -22t-153.5 22zM279.5 138.5q6.5 6.5 8.5 29t2 87.5t-2 87.5t-8.5 29t-26.5 6.5q-19 0 -26 -6.5t-8.5 -28.5t-1.5 -88t1.5 -88
t8.5 -28.5t26 -6.5q20 0 26.5 6.5zM114.5 682q11.5 31 44.5 48.5t95 17.5q61 0 94 -17.5t44.5 -48.5t11.5 -78h-103q0 25 -7.5 36.5t-39.5 11.5q-23 0 -33 -6t-12.5 -15.5t-2.5 -26.5h-103q0 47 11.5 78z" />
    <glyph glyph-name="uni0210" unicode="&#x210;" horiz-adv-x="583" 
d="M353 0l-62 228h-39v-228h-206v688h307q83 0 125 -24.5t56.5 -72.5t14.5 -133q0 -79 -13.5 -126.5t-55.5 -73.5l85 -258h-212zM324.5 380q10.5 4 14.5 19.5t4 54.5q0 40 -3 55t-14 19.5t-40 4.5h-34v-157h35q27 0 37.5 4zM270 756h-113l-85 114v4h143l55 -114v-4zM440 756
h-112l-86 114v4h144l54 -114v-4z" />
    <glyph glyph-name="uni0211" unicode="&#x211;" horiz-adv-x="386" 
d="M39 510h184l4 -83h10q19 51 49 71t84 20v-175q-53 0 -82.5 -11t-44 -42.5t-14.5 -93.5v-196h-190v510zM171 611h-113l-85 114v4h143l55 -114v-4zM341 611h-112l-86 114v4h144l54 -114v-4z" />
    <glyph glyph-name="uni0212" unicode="&#x212;" horiz-adv-x="583" 
d="M353 0l-62 228h-39v-228h-206v688h307q83 0 125 -24.5t56.5 -72.5t14.5 -133q0 -79 -13.5 -126.5t-55.5 -73.5l85 -258h-212zM324.5 380q10.5 4 14.5 19.5t4 54.5q0 40 -3 55t-14 19.5t-40 4.5h-34v-157h35q27 0 37.5 4zM152.5 827q11.5 31 44.5 48.5t95 17.5
q61 0 94 -17.5t44.5 -48.5t11.5 -78h-103q0 25 -7.5 36.5t-39.5 11.5q-23 0 -33 -6t-12.5 -15.5t-2.5 -26.5h-103q0 47 11.5 78z" />
    <glyph glyph-name="uni0213" unicode="&#x213;" horiz-adv-x="386" 
d="M39 510h184l4 -83h10q19 51 49 71t84 20v-175q-53 0 -82.5 -11t-44 -42.5t-14.5 -93.5v-196h-190v510zM53.5 682q11.5 31 44.5 48.5t95 17.5q61 0 94 -17.5t44.5 -48.5t11.5 -78h-103q0 25 -7.5 36.5t-39.5 11.5q-23 0 -33 -6t-12.5 -15.5t-2.5 -26.5h-103q0 47 11.5 78z
" />
    <glyph glyph-name="uni0214" unicode="&#x214;" horiz-adv-x="590" 
d="M546 688v-375q0 -142 -12.5 -202.5t-64.5 -89.5t-174 -29t-174 29t-64.5 89.5t-12.5 202.5v375h207v-418q0 -64 2 -85.5t10 -27.5t32 -6t32.5 6t10.5 28t2 85v418h206zM273 756h-113l-85 114v4h143l55 -114v-4zM443 756h-112l-86 114v4h144l54 -114v-4z" />
    <glyph glyph-name="uni0215" unicode="&#x215;" horiz-adv-x="522" 
d="M295 57h-9q-34 -65 -120 -65q-55 0 -82 20.5t-36 60t-9 109.5v328h190v-271q0 -50 1.5 -67t7 -21.5t22.5 -4.5q18 0 24 5t7.5 23.5t1.5 72.5v263h190v-510h-184zM239 611h-113l-85 114v4h143l55 -114v-4zM409 611h-112l-86 114v4h144l54 -114v-4z" />
    <glyph glyph-name="uni0216" unicode="&#x216;" horiz-adv-x="590" 
d="M546 688v-375q0 -142 -12.5 -202.5t-64.5 -89.5t-174 -29t-174 29t-64.5 89.5t-12.5 202.5v375h207v-418q0 -64 2 -85.5t10 -27.5t32 -6t32.5 6t10.5 28t2 85v418h206zM155.5 827q11.5 31 44.5 48.5t95 17.5q61 0 94 -17.5t44.5 -48.5t11.5 -78h-103q0 25 -7.5 36.5
t-39.5 11.5q-23 0 -33 -6t-12.5 -15.5t-2.5 -26.5h-103q0 47 11.5 78z" />
    <glyph glyph-name="uni0217" unicode="&#x217;" horiz-adv-x="522" 
d="M295 57h-9q-34 -65 -120 -65q-55 0 -82 20.5t-36 60t-9 109.5v328h190v-271q0 -50 1.5 -67t7 -21.5t22.5 -4.5q18 0 24 5t7.5 23.5t1.5 72.5v263h190v-510h-184zM121.5 682q11.5 31 44.5 48.5t95 17.5q61 0 94 -17.5t44.5 -48.5t11.5 -78h-103q0 25 -7.5 36.5t-39.5 11.5
q-23 0 -33 -6t-12.5 -15.5t-2.5 -26.5h-103q0 47 11.5 78z" />
    <glyph glyph-name="Scommaaccent" unicode="&#x218;" horiz-adv-x="529" 
d="M153.5 -3q-64.5 5 -109.5 13v148q115 -9 165 -9q38 0 54 2t23 8q6 6 8 15t2 27q0 25 -5 36t-19.5 16t-52.5 10l-101 15q-50 8 -70 59.5t-20 146.5q0 87 30.5 133.5t82.5 62.5t129 16q56 0 112 -6.5t89 -13.5v-146q-77 9 -161 9q-27 0 -41.5 -1.5t-20.5 -6.5
q-8 -6 -11 -15.5t-3 -25.5q0 -21 3 -30.5t12.5 -14t32.5 -8.5l89 -13q40 -7 67 -22t45 -53q19 -43 19 -126q0 -100 -29 -150.5t-77 -65.5t-124 -15q-54 0 -118.5 5zM225.5 -212q11.5 8 11.5 32v8h-65v113h185v-69q0 -68 -12 -100.5t-50.5 -46.5t-120.5 -14v69q40 0 51.5 8z
" />
    <glyph glyph-name="scommaaccent" unicode="&#x219;" horiz-adv-x="439" 
d="M129 -3.5q-54 4.5 -94 10.5v127q84 -6 122 -6q44 0 59 1.5t20 6.5t5 20q0 12 -2 16.5t-10.5 7t-30.5 5.5l-100 15q-45 6 -61 44t-16 117q0 64 25 98t68 46.5t107 12.5q46 0 94.5 -4t76.5 -11v-128q-82 7 -117 7q-37 0 -52 -1.5t-19 -6t-4 -16.5t1.5 -16.5t8.5 -6.5t26 -5
l83 -12q32 -5 53 -17t33.5 -44.5t12.5 -92.5q0 -73 -24 -110.5t-64 -49.5t-102 -12q-45 0 -99 4.5zM179.5 -212q11.5 8 11.5 32v8h-65v113h185v-69q0 -68 -12 -100.5t-50.5 -46.5t-120.5 -14v69q40 0 51.5 8z" />
    <glyph glyph-name="uni021A" unicode="&#x21a;" horiz-adv-x="515" 
d="M154 0v524h-144v164h495v-164h-145v-524h-206zM218.5 -212q11.5 8 11.5 32v8h-65v113h185v-69q0 -68 -12 -100.5t-50.5 -46.5t-120.5 -14v69q40 0 51.5 8z" />
    <glyph glyph-name="uni021B" unicode="&#x21b;" horiz-adv-x="382" 
d="M86 0v370h-71v140h71v148h192v-148h90v-140h-90v-370h-192zM142.5 -212q11.5 8 11.5 32v8h-65v113h185v-69q0 -68 -12 -100.5t-50.5 -46.5t-120.5 -14v69q40 0 51.5 8z" />
    <glyph glyph-name="uni0232" unicode="&#x232;" horiz-adv-x="575" 
d="M184 0v225l-187 463h210l80 -267h8l78 267h205l-187 -463v-225h-207zM160 739v149h257v-149h-257z" />
    <glyph glyph-name="uni0233" unicode="&#x233;" horiz-adv-x="522" 
d="M152 -202.5q-47 3.5 -76 9.5v127h121q52 0 69.5 4t22 19.5t4.5 61.5v53h-10q-20 -37 -51.5 -51t-65.5 -14q-55 0 -82 20.5t-36 60t-9 109.5v313h190v-255q0 -51 1.5 -68t7 -21.5t22.5 -4.5q18 0 24 5t7.5 23.5t1.5 72.5v248h190v-455q0 -101 -13 -152.5t-64 -80
t-162 -28.5q-45 0 -92 3.5zM133 594v149h257v-149h-257z" />
    <glyph glyph-name="uni0237" unicode="&#x237;" horiz-adv-x="272" 
d="M-24 -71q30 0 43 5t16.5 15t3.5 31v530h193v-474q0 -110 -19.5 -158t-70 -62.5t-166.5 -14.5v128z" />
    <glyph glyph-name="uni0259" unicode="&#x259;" horiz-adv-x="494" 
d="M390 491.5q51 -26.5 64 -78t13 -157.5t-13 -158.5t-60 -79t-150 -26.5q-105 0 -149.5 24.5t-54.5 74t-10 165.5v40h250q0 43 -5.5 58.5t-23.5 19.5t-69 4q-40 0 -136 -6v128q28 8 79 13t102 5q112 0 163 -26.5zM268 126.5q7 4.5 9.5 21.5t2.5 59h-74q0 -43 2.5 -59.5
t9.5 -21t26 -4.5q17 0 24 4.5z" />
    <glyph glyph-name="uni0272" unicode="&#x272;" horiz-adv-x="522" 
d="M-24 -71q30 0 43 5t16.5 15t3.5 31v530h184l4 -57h10q34 65 119 65q55 0 82 -20.5t36 -60t9 -109.5v-328h-190v271q0 50 -1.5 67t-7 21.5t-22.5 4.5q-18 0 -24 -5t-7.5 -23.5t-1.5 -71.5v-228q0 -110 -19 -158t-69 -62.5t-165 -14.5v128z" />
    <glyph glyph-name="uni02BC" unicode="&#x2bc;" horiz-adv-x="229" 
d="M63.5 545.5q13.5 6.5 18 20.5t4.5 42v14h-64v121h184v-83q0 -80 -12 -118.5t-50.5 -55t-120.5 -16.5v69q27 0 40.5 6.5z" />
    <glyph glyph-name="circumflex" unicode="&#x2c6;" horiz-adv-x="363" 
d="M13 603v9l82 131h172l83 -131v-9h-122l-47 67l-46 -67h-122z" />
    <glyph glyph-name="caron" unicode="&#x2c7;" horiz-adv-x="363" 
d="M95 603l-82 132v8h122l48 -67l45 67h122v-8l-83 -132h-172z" />
    <glyph glyph-name="uni02C9" unicode="&#x2c9;" horiz-adv-x="343" 
d="M44 594v149h257v-149h-257z" />
    <glyph glyph-name="breve" unicode="&#x2d8;" horiz-adv-x="327" 
d="M302.5 665q-11.5 -31 -44.5 -48.5t-95 -17.5q-61 0 -94 17.5t-44.5 48.5t-11.5 78h103q0 -25 7.5 -36.5t39.5 -11.5q23 0 33 6t12.5 15.5t2.5 26.5h103q0 -47 -11.5 -78z" />
    <glyph glyph-name="dotaccent" unicode="&#x2d9;" horiz-adv-x="175" 
d="M12 611v119h151v-119h-151z" />
    <glyph glyph-name="ring" unicode="&#x2da;" horiz-adv-x="319" 
d="M62.5 609.5q-30.5 11.5 -40 35t-9.5 71.5t9.5 72t40.5 36t96 12q66 0 97 -11.5t40 -36t9 -72.5t-9 -71.5t-40 -35t-97 -11.5t-96.5 11.5zM191.5 676.5q9.5 3.5 11.5 11.5t2 28t-2 28.5t-11.5 12t-32.5 3.5q-22 0 -31.5 -3.5t-11.5 -12t-2 -28.5t2 -28t11.5 -11.5
t31.5 -3.5q23 0 32.5 3.5z" />
    <glyph glyph-name="ogonek" unicode="&#x2db;" horiz-adv-x="204" 
d="M128 -196q-69 0 -99 25t-30 65q0 27 16 56t43 54h145q-20 -12 -38 -34t-18 -41q0 -17 9 -26t33 -9l15 1v-87q-40 -4 -76 -4z" />
    <glyph glyph-name="tilde" unicode="&#x2dc;" horiz-adv-x="395" 
d="M377.5 656.5q-4.5 -28.5 -24.5 -45.5t-65 -17q-39 0 -103 15l-24 4q-23 5 -34 5q-13 0 -16 -7t-3 -29h-95q0 57 4.5 86t25 46t64.5 17q40 0 104 -15q43 -9 57 -9q13 0 16 7t3 29h95q0 -58 -4.5 -86.5z" />
    <glyph glyph-name="hungarumlaut" unicode="&#x2dd;" horiz-adv-x="393" 
d="M12 611v4l54 114h144v-4l-86 -114h-112zM182 611v4l55 114h143v-4l-85 -114h-113z" />
    <glyph glyph-name="gravecomb" unicode="&#x300;" 
d="M-152 595l-109 143v5h178l69 -143v-5h-138z" />
    <glyph glyph-name="acutecomb" unicode="&#x301;" 
d="M-261 595v5l70 143h177v-5l-109 -143h-138z" />
    <glyph glyph-name="uni0302" unicode="&#x302;" 
d="M-350 603v9l82 131h172l83 -131v-9h-122l-47 67l-46 -67h-122z" />
    <glyph glyph-name="tildecomb" unicode="&#x303;" 
d="M-17.5 656.5q-4.5 -28.5 -24.5 -45.5t-65 -17q-39 0 -103 15l-24 4q-23 5 -34 5q-13 0 -16 -7t-3 -29h-95q0 57 4.5 86t25 46t64.5 17q40 0 104 -15q43 -9 57 -9q13 0 16 7t3 29h95q0 -58 -4.5 -86.5z" />
    <glyph glyph-name="uni0304" unicode="&#x304;" 
d="M-299 594v149h257v-149h-257z" />
    <glyph glyph-name="uni0306" unicode="&#x306;" 
d="M-24.5 665q-11.5 -31 -44.5 -48.5t-95 -17.5q-61 0 -94 17.5t-44.5 48.5t-11.5 78h103q0 -25 7.5 -36.5t39.5 -11.5q23 0 33 6t12.5 15.5t2.5 26.5h103q0 -47 -11.5 -78z" />
    <glyph glyph-name="uni0307" unicode="&#x307;" 
d="M-163 611v119h151v-119h-151z" />
    <glyph glyph-name="uni0308" unicode="&#x308;" 
d="M-360 611v119h150v-119h-150zM-161 611v119h151v-119h-151z" />
    <glyph glyph-name="hookabovecomb" unicode="&#x309;" 
d="M-237 623q0 33 8.5 46t36.5 20l13 4q22 6 28.5 11t6.5 15q0 14 -9 17.5t-38 3.5q-50 0 -104 -4v87q67 13 131 13q46 0 75.5 -6t48 -27.5t18.5 -66.5q0 -30 -7.5 -46t-21 -25t-40.5 -18l-10 -3q-22 -8 -28 -13.5t-6 -18.5h-102v11z" />
    <glyph glyph-name="uni030A" unicode="&#x30a;" 
d="M-256.5 609.5q-30.5 11.5 -40 35t-9.5 71.5t9.5 72t40.5 36t96 12q66 0 97 -11.5t40 -36t9 -72.5t-9 -71.5t-40 -35t-97 -11.5t-96.5 11.5zM-127.5 676.5q9.5 3.5 11.5 11.5t2 28t-2 28.5t-11.5 12t-32.5 3.5q-22 0 -31.5 -3.5t-11.5 -12t-2 -28.5t2 -28t11.5 -11.5
t31.5 -3.5q23 0 32.5 3.5z" />
    <glyph glyph-name="uni030B" unicode="&#x30b;" 
d="M-381 611v4l54 114h144v-4l-86 -114h-112zM-211 611v4l55 114h143v-4l-85 -114h-113z" />
    <glyph glyph-name="uni030C" unicode="&#x30c;" 
d="M-268 603l-82 132v8h122l48 -67l45 67h122v-8l-83 -132h-172z" />
    <glyph glyph-name="uni030F" unicode="&#x30f;" 
d="M-182 611h-113l-85 114v4h143l55 -114v-4zM-12 611h-112l-86 114v4h144l54 -114v-4z" />
    <glyph glyph-name="uni0311" unicode="&#x311;" 
d="M-302.5 682q11.5 31 44.5 48.5t95 17.5q61 0 94 -17.5t44.5 -48.5t11.5 -78h-103q0 25 -7.5 36.5t-39.5 11.5q-23 0 -33 -6t-12.5 -15.5t-2.5 -26.5h-103q0 47 11.5 78z" />
    <glyph glyph-name="uni0312" unicode="&#x312;" 
d="M-202.5 749q-11.5 -8 -11.5 -31v-9h65v-113h-185v70q0 67 12 99.5t50.5 46.5t120.5 14v-69q-40 0 -51.5 -8z" />
    <glyph glyph-name="uni031B" unicode="&#x31b;" 
d="M-262 515.5q13 5.5 17.5 18.5t4.5 39v25h120v-13q0 -61 -12 -90t-50.5 -41.5t-120.5 -12.5h-35v69h35q28 0 41 5.5z" />
    <glyph glyph-name="dotbelowcomb" unicode="&#x323;" 
d="M-255 -224v162h197v-162h-197z" />
    <glyph glyph-name="uni0326" unicode="&#x326;" 
d="M-191.5 -212q11.5 8 11.5 32v8h-65v113h185v-69q0 -68 -12 -100.5t-50.5 -46.5t-120.5 -14v69q40 0 51.5 8z" />
    <glyph glyph-name="uni0327" unicode="&#x327;" 
d="M-210 -189v5l76 192h121v-5l-33 -192h-164z" />
    <glyph glyph-name="uni0328" unicode="&#x328;" 
d="M-76 -196q-69 0 -99 25t-30 65q0 27 16 56t43 54h145q-20 -12 -38 -34t-18 -41q0 -17 9 -26t33 -9l15 1v-87q-40 -4 -76 -4z" />
    <glyph glyph-name="uni0335" unicode="&#x335;" 
d="M-304 279v138h310v-138h-310z" />
    <glyph glyph-name="uni0336" unicode="&#x336;" 
d="M-45 474h-518v137h518v-137z" />
    <glyph glyph-name="uni0394" unicode="&#x394;" horiz-adv-x="606" 
d="M-2 0l158 688h294l158 -688h-610zM304 532h-8l-73 -380h154z" />
    <glyph glyph-name="uni03A9" unicode="&#x3a9;" horiz-adv-x="613" 
d="M39 154h10q33 -10 55 -19l54 -19v8q-116 63 -116 268q0 114 14 174t70.5 95t179.5 35t180 -35t71 -95t14 -174q0 -205 -116 -268v-8q16 5 30 10t25 9q18 7 54 19h10v-154h-231v152q13 8 17 54.5t4 144.5q0 99 -3 133t-13.5 44.5t-41.5 10.5t-41.5 -10t-13 -44t-2.5 -134
q0 -101 3.5 -146t16.5 -53v-152h-230v154z" />
    <glyph glyph-name="uni03BC" unicode="&#x3bc;" horiz-adv-x="523" 
d="M483 510v-510h-183l-4 57h-10q-12 -20 -25.5 -32.5t-31.5 -18.5v-195h-190v699h190v-271q0 -49 2 -66.5t7.5 -22t22.5 -4.5q18 0 23.5 5t7 23t1.5 73v263h190z" />
    <glyph glyph-name="pi" unicode="&#x3c0;" horiz-adv-x="523" 
d="M288 0v372h-53v-372h-193v510h439v-510h-193z" />
    <glyph glyph-name="uni1E0C" unicode="&#x1e0c;" horiz-adv-x="585" 
d="M46 688h227q136 0 192.5 -29.5t70 -94.5t13.5 -220t-13.5 -220t-70 -94.5t-192.5 -29.5h-227v688zM275 157q36 0 48.5 9t15.5 42.5t3 134.5q0 103 -3 136.5t-15 42.5t-49 9h-24v-374h24zM193 -224v162h197v-162h-197z" />
    <glyph glyph-name="uni1E0D" unicode="&#x1e0d;" horiz-adv-x="519" 
d="M84.5 14.5q-29.5 22.5 -43.5 79t-14 160.5q0 102 14 159t44 80.5t82 23.5q39 0 66.5 -13t45.5 -45h10v284h190v-743h-184l-4 57h-10q-29 -65 -116 -65q-51 0 -80.5 22.5zM277.5 149.5q6.5 4.5 8.5 21.5q3 22 3 84t-2 79q-2 20 -9 25.5t-25 5.5q-20 0 -26.5 -5t-8 -24.5
t-1.5 -80.5t1.5 -80.5t8 -24.5t26.5 -5q18 0 24.5 4.5zM160 -224v162h197v-162h-197z" />
    <glyph glyph-name="uni1E24" unicode="&#x1e24;" horiz-adv-x="608" 
d="M356 0v259h-104v-259h-207v688h207v-256h104v256h207v-688h-207zM205 -224v162h197v-162h-197z" />
    <glyph glyph-name="uni1E25" unicode="&#x1e25;" horiz-adv-x="522" 
d="M293 271q0 50 -1.5 67t-7 21.5t-22.5 4.5q-18 0 -24 -5t-7.5 -23.5t-1.5 -72.5v-263h-190v743h190v-290h10q34 65 118 65q55 0 82 -20.5t35.5 -60t8.5 -109.5v-328h-190v271zM162 -224v162h197v-162h-197z" />
    <glyph glyph-name="uni1E44" unicode="&#x1e44;" horiz-adv-x="615" 
d="M383 0l-136 316h-5v-316h-197v688h206l115 -267h7v267h197v-688h-187zM232 756v119h151v-119h-151z" />
    <glyph glyph-name="uni1E45" unicode="&#x1e45;" horiz-adv-x="522" 
d="M293 271q0 50 -1.5 67t-7 21.5t-22.5 4.5q-18 0 -24 -5t-7.5 -23.5t-1.5 -72.5v-263h-190v510h184l4 -57h10q34 65 119 65q55 0 82 -20.5t36 -60t9 -109.5v-328h-190v271zM185 611v119h151v-119h-151z" />
    <glyph glyph-name="uni1E5A" unicode="&#x1e5a;" horiz-adv-x="583" 
d="M353 0l-62 228h-39v-228h-206v688h307q83 0 125 -24.5t56.5 -72.5t14.5 -133q0 -79 -13.5 -126.5t-55.5 -73.5l85 -258h-212zM324.5 380q10.5 4 14.5 19.5t4 54.5q0 40 -3 55t-14 19.5t-40 4.5h-34v-157h35q27 0 37.5 4zM193 -224v162h197v-162h-197z" />
    <glyph glyph-name="uni1E5B" unicode="&#x1e5b;" horiz-adv-x="386" 
d="M39 510h184l4 -83h10q19 51 49 71t84 20v-175q-53 0 -82.5 -11t-44 -42.5t-14.5 -93.5v-196h-190v510zM35 -224v162h197v-162h-197z" />
    <glyph glyph-name="uni1E62" unicode="&#x1e62;" horiz-adv-x="529" 
d="M153.5 -3q-64.5 5 -109.5 13v148q115 -9 165 -9q38 0 54 2t23 8q6 6 8 15t2 27q0 25 -5 36t-19.5 16t-52.5 10l-101 15q-50 8 -70 59.5t-20 146.5q0 87 30.5 133.5t82.5 62.5t129 16q56 0 112 -6.5t89 -13.5v-146q-77 9 -161 9q-27 0 -41.5 -1.5t-20.5 -6.5
q-8 -6 -11 -15.5t-3 -25.5q0 -21 3 -30.5t12.5 -14t32.5 -8.5l89 -13q40 -7 67 -22t45 -53q19 -43 19 -126q0 -100 -29 -150.5t-77 -65.5t-124 -15q-54 0 -118.5 5zM166 -224v162h197v-162h-197z" />
    <glyph glyph-name="uni1E63" unicode="&#x1e63;" horiz-adv-x="439" 
d="M129 -3.5q-54 4.5 -94 10.5v127q84 -6 122 -6q44 0 59 1.5t20 6.5t5 20q0 12 -2 16.5t-10.5 7t-30.5 5.5l-100 15q-45 6 -61 44t-16 117q0 64 25 98t68 46.5t107 12.5q46 0 94.5 -4t76.5 -11v-128q-82 7 -117 7q-37 0 -52 -1.5t-19 -6t-4 -16.5t1.5 -16.5t8.5 -6.5t26 -5
l83 -12q32 -5 53 -17t33.5 -44.5t12.5 -92.5q0 -73 -24 -110.5t-64 -49.5t-102 -12q-45 0 -99 4.5zM120 -224v162h197v-162h-197z" />
    <glyph glyph-name="uni1E6C" unicode="&#x1e6c;" horiz-adv-x="515" 
d="M154 0v524h-144v164h495v-164h-145v-524h-206zM159 -224v162h197v-162h-197z" />
    <glyph glyph-name="uni1E6D" unicode="&#x1e6d;" horiz-adv-x="382" 
d="M86 0v370h-71v140h71v148h192v-148h90v-140h-90v-370h-192zM83 -224v162h197v-162h-197z" />
    <glyph glyph-name="Wgrave" unicode="&#x1e80;" horiz-adv-x="882" 
d="M503 0l-57 385h-10l-56 -385h-269l-106 688h206l46 -467h10l66 467h222l67 -467h10l40 467h205l-106 -688h-268zM381 740l-109 143v5h178l69 -143v-5h-138z" />
    <glyph glyph-name="wgrave" unicode="&#x1e81;" horiz-adv-x="766" 
d="M429 0l-40 218h-11l-40 -218h-237l-93 510h184l35 -321h10l60 321h176l62 -321h11l32 321h180l-94 -510h-235zM316 595l-109 143v5h178l69 -143v-5h-138z" />
    <glyph glyph-name="Wacute" unicode="&#x1e82;" horiz-adv-x="882" 
d="M503 0l-57 385h-10l-56 -385h-269l-106 688h206l46 -467h10l66 467h222l67 -467h10l40 467h205l-106 -688h-268zM369 740v5l70 143h177v-5l-109 -143h-138z" />
    <glyph glyph-name="wacute" unicode="&#x1e83;" horiz-adv-x="766" 
d="M429 0l-40 218h-11l-40 -218h-237l-93 510h184l35 -321h10l60 321h176l62 -321h11l32 321h180l-94 -510h-235zM315 595v5l70 143h177v-5l-109 -143h-138z" />
    <glyph glyph-name="Wdieresis" unicode="&#x1e84;" horiz-adv-x="882" 
d="M503 0l-57 385h-10l-56 -385h-269l-106 688h206l46 -467h10l66 467h222l67 -467h10l40 467h205l-106 -688h-268zM267 756v119h150v-119h-150zM466 756v119h151v-119h-151z" />
    <glyph glyph-name="wdieresis" unicode="&#x1e85;" horiz-adv-x="766" 
d="M429 0l-40 218h-11l-40 -218h-237l-93 510h184l35 -321h10l60 321h176l62 -321h11l32 321h180l-94 -510h-235zM209 611v119h150v-119h-150zM408 611v119h151v-119h-151z" />
    <glyph glyph-name="uni1E92" unicode="&#x1e92;" horiz-adv-x="536" 
d="M34 0v150l225 381h-216v157h459v-147l-228 -384h227v-157h-467zM169 -224v162h197v-162h-197z" />
    <glyph glyph-name="uni1E93" unicode="&#x1e93;" horiz-adv-x="473" 
d="M32 0v132l177 238h-168v140h399v-132l-177 -238h178v-140h-409zM138 -224v162h197v-162h-197z" />
    <glyph glyph-name="uni1E9E" unicode="&#x1e9e;" horiz-adv-x="694" 
d="M627.5 323.5q36.5 -43.5 36.5 -140.5q0 -67 -21 -108.5t-72.5 -62t-143.5 -20.5q-28 0 -64 6t-62 15v146q47 -10 80 -10q37 0 51 3t19.5 14.5t5.5 39.5q0 31 -6 44t-20.5 17t-47.5 4h-69v132l100 133q-42 3 -63 3q-52 0 -71.5 -13t-24 -51t-4.5 -144v-331h-207v331
q0 155 18.5 229t76.5 105t184 31q120 0 310 -29v-132l-119 -157q77 -11 113.5 -54.5z" />
    <glyph glyph-name="uni1EA0" unicode="&#x1ea0;" horiz-adv-x="606" 
d="M403 0l-21 110h-162l-20 -110h-202l159 688h293l158 -688h-205zM304 515h-8l-46 -253h102zM205 -224v162h197v-162h-197z" />
    <glyph glyph-name="uni1EA1" unicode="&#x1ea1;" horiz-adv-x="501" 
d="M54 30q-30 38 -30 119q0 60 12.5 93t44.5 47.5t93 14.5q40 0 98 -4v19q0 30 -5.5 41.5t-23 14.5t-64.5 3q-56 0 -130 -6v130q98 16 188 16q100 0 148 -22.5t62.5 -66t14.5 -124.5v-305h-185l-4 56h-9q-22 -37 -49.5 -50.5t-65.5 -13.5q-65 0 -95 38zM257.5 130
q7.5 4 11.5 13q3 9 3 44v27h-34q-25 0 -31.5 -8.5t-6.5 -39.5q0 -24 6 -32t30 -8q14 0 21.5 4zM152 -224v162h197v-162h-197z" />
    <glyph glyph-name="uni1EA2" unicode="&#x1ea2;" horiz-adv-x="606" 
d="M403 0l-21 110h-162l-20 -110h-202l159 688h293l158 -688h-205zM304 515h-8l-46 -253h102zM226 737q0 33 8.5 46t36.5 20l13 3q22 7 28.5 11.5t6.5 15.5q0 14 -9 17t-38 3q-50 0 -104 -4v87q67 13 131 13q46 0 75.5 -6t48 -27.5t18.5 -66.5q0 -42 -15.5 -58.5
t-53.5 -29.5l-10 -4q-22 -8 -28 -13.5t-6 -17.5h-102v11z" />
    <glyph glyph-name="uni1EA3" unicode="&#x1ea3;" horiz-adv-x="501" 
d="M54 30q-30 38 -30 119q0 60 12.5 93t44.5 47.5t93 14.5q40 0 98 -4v19q0 30 -5.5 41.5t-23 14.5t-64.5 3q-56 0 -130 -6v130q98 16 188 16q100 0 148 -22.5t62.5 -66t14.5 -124.5v-305h-185l-4 56h-9q-22 -37 -49.5 -50.5t-65.5 -13.5q-65 0 -95 38zM257.5 130
q7.5 4 11.5 13q3 9 3 44v27h-34q-25 0 -31.5 -8.5t-6.5 -39.5q0 -24 6 -32t30 -8q14 0 21.5 4zM173 623q0 33 8.5 46t36.5 20l13 4q22 6 28.5 11t6.5 15q0 14 -9 17.5t-38 3.5q-50 0 -104 -4v87q67 13 131 13q46 0 75.5 -6t48 -27.5t18.5 -66.5q0 -30 -7.5 -46t-21 -25
t-40.5 -18l-10 -3q-22 -8 -28 -13.5t-6 -18.5h-102v11z" />
    <glyph glyph-name="uni1EA4" unicode="&#x1ea4;" horiz-adv-x="606" 
d="M403 0l-21 110h-162l-20 -110h-202l159 688h293l158 -688h-205zM304 515h-8l-46 -253h102zM135 734v9l82 131h172l83 -131v-9h-122l-47 67l-46 -67h-122zM312 899v5l70 143h177v-5l-109 -143h-138z" />
    <glyph glyph-name="uni1EA5" unicode="&#x1ea5;" horiz-adv-x="501" 
d="M54 30q-30 38 -30 119q0 60 12.5 93t44.5 47.5t93 14.5q40 0 98 -4v19q0 30 -5.5 41.5t-23 14.5t-64.5 3q-56 0 -130 -6v130q98 16 188 16q100 0 148 -22.5t62.5 -66t14.5 -124.5v-305h-185l-4 56h-9q-22 -37 -49.5 -50.5t-65.5 -13.5q-65 0 -95 38zM257.5 130
q7.5 4 11.5 13q3 9 3 44v27h-34q-25 0 -31.5 -8.5t-6.5 -39.5q0 -24 6 -32t30 -8q14 0 21.5 4zM82 603v9l82 131h172l83 -131v-9h-122l-47 67l-46 -67h-122zM259 768v5l70 143h177v-5l-109 -143h-138z" />
    <glyph glyph-name="uni1EA6" unicode="&#x1ea6;" horiz-adv-x="606" 
d="M403 0l-21 110h-162l-20 -110h-202l159 688h293l158 -688h-205zM304 515h-8l-46 -253h102zM123 734v9l82 131h172l83 -131v-9h-122l-47 67l-46 -67h-122zM345 899l-109 143v5h178l69 -143v-5h-138z" />
    <glyph glyph-name="uni1EA7" unicode="&#x1ea7;" horiz-adv-x="501" 
d="M54 30q-30 38 -30 119q0 60 12.5 93t44.5 47.5t93 14.5q40 0 98 -4v19q0 30 -5.5 41.5t-23 14.5t-64.5 3q-56 0 -130 -6v130q98 16 188 16q100 0 148 -22.5t62.5 -66t14.5 -124.5v-305h-185l-4 56h-9q-22 -37 -49.5 -50.5t-65.5 -13.5q-65 0 -95 38zM257.5 130
q7.5 4 11.5 13q3 9 3 44v27h-34q-25 0 -31.5 -8.5t-6.5 -39.5q0 -24 6 -32t30 -8q14 0 21.5 4zM70 603v9l82 131h172l83 -131v-9h-122l-47 67l-46 -67h-122zM292 768l-109 143v5h178l69 -143v-5h-138z" />
    <glyph glyph-name="uni1EA8" unicode="&#x1ea8;" horiz-adv-x="606" 
d="M403 0l-21 110h-162l-20 -110h-202l159 688h293l158 -688h-205zM304 515h-8l-46 -253h102zM135 734v9l82 131h172l83 -131v-9h-122l-47 67l-46 -67h-122zM359 906q0 33 8.5 46t36.5 20l13 4q22 6 28.5 11t6.5 15q0 14 -9 17.5t-38 3.5q-50 0 -104 -4v87q67 13 131 13
q46 0 75.5 -6t48 -27.5t18.5 -66.5q0 -30 -7.5 -46t-21 -25t-40.5 -18l-10 -3q-22 -8 -28 -13.5t-6 -18.5h-102v11z" />
    <glyph glyph-name="uni1EA9" unicode="&#x1ea9;" horiz-adv-x="501" 
d="M54 30q-30 38 -30 119q0 60 12.5 93t44.5 47.5t93 14.5q40 0 98 -4v19q0 30 -5.5 41.5t-23 14.5t-64.5 3q-56 0 -130 -6v130q98 16 188 16q100 0 148 -22.5t62.5 -66t14.5 -124.5v-305h-185l-4 56h-9q-22 -37 -49.5 -50.5t-65.5 -13.5q-65 0 -95 38zM257.5 130
q7.5 4 11.5 13q3 9 3 44v27h-34q-25 0 -31.5 -8.5t-6.5 -39.5q0 -24 6 -32t30 -8q14 0 21.5 4zM82 603v9l82 131h172l83 -131v-9h-122l-47 67l-46 -67h-122zM306 775q0 33 8.5 46t36.5 20l13 4q22 6 28.5 11t6.5 15q0 14 -9 17.5t-38 3.5q-50 0 -104 -4v87q67 13 131 13
q46 0 75.5 -6t48 -27.5t18.5 -66.5q0 -30 -7.5 -46t-21 -25t-40.5 -18l-10 -3q-22 -8 -28 -13.5t-6 -18.5h-102v11z" />
    <glyph glyph-name="uni1EAA" unicode="&#x1eaa;" horiz-adv-x="606" 
d="M403 0l-21 110h-162l-20 -110h-202l159 688h293l158 -688h-205zM304 515h-8l-46 -253h102zM133 734v9l82 131h172l83 -131v-9h-122l-47 67l-46 -67h-122zM483.5 960.5q-4.5 -28.5 -24.5 -45.5t-65 -17q-39 0 -103 15l-24 4q-23 5 -34 5q-13 0 -16 -7t-3 -29h-95
q0 57 4.5 86t25 46t64.5 17q40 0 104 -15q43 -9 57 -9q13 0 16 7t3 29h95q0 -58 -4.5 -86.5z" />
    <glyph glyph-name="uni1EAB" unicode="&#x1eab;" horiz-adv-x="501" 
d="M54 30q-30 38 -30 119q0 60 12.5 93t44.5 47.5t93 14.5q40 0 98 -4v19q0 30 -5.5 41.5t-23 14.5t-64.5 3q-56 0 -130 -6v130q98 16 188 16q100 0 148 -22.5t62.5 -66t14.5 -124.5v-305h-185l-4 56h-9q-22 -37 -49.5 -50.5t-65.5 -13.5q-65 0 -95 38zM257.5 130
q7.5 4 11.5 13q3 9 3 44v27h-34q-25 0 -31.5 -8.5t-6.5 -39.5q0 -24 6 -32t30 -8q14 0 21.5 4zM80 603v9l82 131h172l83 -131v-9h-122l-47 67l-46 -67h-122zM430.5 829.5q-4.5 -28.5 -24.5 -45.5t-65 -17q-39 0 -103 15l-24 4q-23 5 -34 5q-13 0 -16 -7t-3 -29h-95
q0 57 4.5 86t25 46t64.5 17q40 0 104 -15q43 -9 57 -9q13 0 16 7t3 29h95q0 -58 -4.5 -86.5z" />
    <glyph glyph-name="uni1EAC" unicode="&#x1eac;" horiz-adv-x="606" 
d="M403 0l-21 110h-162l-20 -110h-202l159 688h293l158 -688h-205zM304 515h-8l-46 -253h102zM205 -224v162h197v-162h-197zM135 748v9l82 131h172l83 -131v-9h-122l-47 67l-46 -67h-122z" />
    <glyph glyph-name="uni1EAD" unicode="&#x1ead;" horiz-adv-x="501" 
d="M54 30q-30 38 -30 119q0 60 12.5 93t44.5 47.5t93 14.5q40 0 98 -4v19q0 30 -5.5 41.5t-23 14.5t-64.5 3q-56 0 -130 -6v130q98 16 188 16q100 0 148 -22.5t62.5 -66t14.5 -124.5v-305h-185l-4 56h-9q-22 -37 -49.5 -50.5t-65.5 -13.5q-65 0 -95 38zM257.5 130
q7.5 4 11.5 13q3 9 3 44v27h-34q-25 0 -31.5 -8.5t-6.5 -39.5q0 -24 6 -32t30 -8q14 0 21.5 4zM152 -224v162h197v-162h-197zM82 603v9l82 131h172l83 -131v-9h-122l-47 67l-46 -67h-122z" />
    <glyph glyph-name="uni1EAE" unicode="&#x1eae;" horiz-adv-x="606" 
d="M403 0l-21 110h-162l-20 -110h-202l159 688h293l158 -688h-205zM304 515h-8l-46 -253h102zM440.5 810q-11.5 -31 -44.5 -48.5t-95 -17.5q-61 0 -94 17.5t-44.5 48.5t-11.5 78h103q0 -25 7.5 -36.5t39.5 -11.5q23 0 33 6t12.5 15.5t2.5 26.5h103q0 -47 -11.5 -78zM221 913
v5l70 143h177v-5l-109 -143h-138z" />
    <glyph glyph-name="uni1EAF" unicode="&#x1eaf;" horiz-adv-x="501" 
d="M54 30q-30 38 -30 119q0 60 12.5 93t44.5 47.5t93 14.5q40 0 98 -4v19q0 30 -5.5 41.5t-23 14.5t-64.5 3q-56 0 -130 -6v130q98 16 188 16q100 0 148 -22.5t62.5 -66t14.5 -124.5v-305h-185l-4 56h-9q-22 -37 -49.5 -50.5t-65.5 -13.5q-65 0 -95 38zM257.5 130
q7.5 4 11.5 13q3 9 3 44v27h-34q-25 0 -31.5 -8.5t-6.5 -39.5q0 -24 6 -32t30 -8q14 0 21.5 4zM378.5 665q-11.5 -31 -44.5 -48.5t-95 -17.5q-61 0 -94 17.5t-44.5 48.5t-11.5 78h103q0 -25 7.5 -36.5t39.5 -11.5q23 0 33 6t12.5 15.5t2.5 26.5h103q0 -47 -11.5 -78z
M159 768v5l70 143h177v-5l-109 -143h-138z" />
    <glyph glyph-name="uni1EB0" unicode="&#x1eb0;" horiz-adv-x="606" 
d="M403 0l-21 110h-162l-20 -110h-202l159 688h293l158 -688h-205zM304 515h-8l-46 -253h102zM445.5 810q-11.5 -31 -44.5 -48.5t-95 -17.5q-61 0 -94 17.5t-44.5 48.5t-11.5 78h103q0 -25 7.5 -36.5t39.5 -11.5q23 0 33 6t12.5 15.5t2.5 26.5h103q0 -47 -11.5 -78zM241 913
l-109 143v5h178l69 -143v-5h-138z" />
    <glyph glyph-name="uni1EB1" unicode="&#x1eb1;" horiz-adv-x="501" 
d="M54 30q-30 38 -30 119q0 60 12.5 93t44.5 47.5t93 14.5q40 0 98 -4v19q0 30 -5.5 41.5t-23 14.5t-64.5 3q-56 0 -130 -6v130q98 16 188 16q100 0 148 -22.5t62.5 -66t14.5 -124.5v-305h-185l-4 56h-9q-22 -37 -49.5 -50.5t-65.5 -13.5q-65 0 -95 38zM257.5 130
q7.5 4 11.5 13q3 9 3 44v27h-34q-25 0 -31.5 -8.5t-6.5 -39.5q0 -24 6 -32t30 -8q14 0 21.5 4zM403.5 665q-11.5 -31 -44.5 -48.5t-95 -17.5q-61 0 -94 17.5t-44.5 48.5t-11.5 78h103q0 -25 7.5 -36.5t39.5 -11.5q23 0 33 6t12.5 15.5t2.5 26.5h103q0 -47 -11.5 -78z
M199 768l-109 143v5h178l69 -143v-5h-138z" />
    <glyph glyph-name="uni1EB2" unicode="&#x1eb2;" horiz-adv-x="606" 
d="M403 0l-21 110h-162l-20 -110h-202l159 688h293l158 -688h-205zM304 515h-8l-46 -253h102zM436.5 810q-11.5 -31 -44.5 -48.5t-95 -17.5q-61 0 -94 17.5t-44.5 48.5t-11.5 78h103q0 -25 7.5 -36.5t39.5 -11.5q23 0 33 6t12.5 15.5t2.5 26.5h103q0 -47 -11.5 -78zM246 908
q0 33 8.5 46t36.5 20l13 4q22 6 28.5 11t6.5 15q0 14 -9 17.5t-38 3.5q-50 0 -104 -4v87q67 13 131 13q46 0 75.5 -6t48 -27.5t18.5 -66.5q0 -30 -7.5 -46t-21 -25t-40.5 -18l-10 -3q-22 -8 -28 -13.5t-6 -18.5h-102v11z" />
    <glyph glyph-name="uni1EB3" unicode="&#x1eb3;" horiz-adv-x="501" 
d="M54 30q-30 38 -30 119q0 60 12.5 93t44.5 47.5t93 14.5q40 0 98 -4v19q0 30 -5.5 41.5t-23 14.5t-64.5 3q-56 0 -130 -6v130q98 16 188 16q100 0 148 -22.5t62.5 -66t14.5 -124.5v-305h-185l-4 56h-9q-22 -37 -49.5 -50.5t-65.5 -13.5q-65 0 -95 38zM257.5 130
q7.5 4 11.5 13q3 9 3 44v27h-34q-25 0 -31.5 -8.5t-6.5 -39.5q0 -24 6 -32t30 -8q14 0 21.5 4zM383.5 665q-11.5 -31 -44.5 -48.5t-95 -17.5q-61 0 -94 17.5t-44.5 48.5t-11.5 78h103q0 -25 7.5 -36.5t39.5 -11.5q23 0 33 6t12.5 15.5t2.5 26.5h103q0 -47 -11.5 -78z
M193 763q0 33 8.5 46t36.5 20l13 4q22 6 28.5 11t6.5 15q0 14 -9 17.5t-38 3.5q-50 0 -104 -4v87q67 13 131 13q46 0 75.5 -6t48 -27.5t18.5 -66.5q0 -30 -7.5 -46t-21 -25t-40.5 -18l-10 -3q-22 -8 -28 -13.5t-6 -18.5h-102v11z" />
    <glyph glyph-name="uni1EB4" unicode="&#x1eb4;" horiz-adv-x="606" 
d="M403 0l-21 110h-162l-20 -110h-202l159 688h293l158 -688h-205zM304 515h-8l-46 -253h102zM440.5 810q-11.5 -31 -44.5 -48.5t-95 -17.5q-61 0 -94 17.5t-44.5 48.5t-11.5 78h103q0 -25 7.5 -36.5t39.5 -11.5q23 0 33 6t12.5 15.5t2.5 26.5h103q0 -47 -11.5 -78z
M483.5 1007.5q-4.5 -28.5 -24.5 -45.5t-65 -17q-39 0 -103 15l-24 4q-23 5 -34 5q-13 0 -16 -7t-3 -29h-95q0 57 4.5 86t25 46t64.5 17q40 0 104 -15q43 -9 57 -9q13 0 16 7t3 29h95q0 -58 -4.5 -86.5z" />
    <glyph glyph-name="uni1EB5" unicode="&#x1eb5;" horiz-adv-x="501" 
d="M54 30q-30 38 -30 119q0 60 12.5 93t44.5 47.5t93 14.5q40 0 98 -4v19q0 30 -5.5 41.5t-23 14.5t-64.5 3q-56 0 -130 -6v130q98 16 188 16q100 0 148 -22.5t62.5 -66t14.5 -124.5v-305h-185l-4 56h-9q-22 -37 -49.5 -50.5t-65.5 -13.5q-65 0 -95 38zM257.5 130
q7.5 4 11.5 13q3 9 3 44v27h-34q-25 0 -31.5 -8.5t-6.5 -39.5q0 -24 6 -32t30 -8q14 0 21.5 4zM387.5 665q-11.5 -31 -44.5 -48.5t-95 -17.5q-61 0 -94 17.5t-44.5 48.5t-11.5 78h103q0 -25 7.5 -36.5t39.5 -11.5q23 0 33 6t12.5 15.5t2.5 26.5h103q0 -47 -11.5 -78z
M430.5 862.5q-4.5 -28.5 -24.5 -45.5t-65 -17q-39 0 -103 15l-24 4q-23 5 -34 5q-13 0 -16 -7t-3 -29h-95q0 57 4.5 86t25 46t64.5 17q40 0 104 -15q43 -9 57 -9q13 0 16 7t3 29h95q0 -58 -4.5 -86.5z" />
    <glyph glyph-name="uni1EB6" unicode="&#x1eb6;" horiz-adv-x="606" 
d="M403 0l-21 110h-162l-20 -110h-202l159 688h293l158 -688h-205zM304 515h-8l-46 -253h102zM205 -224v162h197v-162h-197zM442.5 810q-11.5 -31 -44.5 -48.5t-95 -17.5q-61 0 -94 17.5t-44.5 48.5t-11.5 78h103q0 -25 7.5 -36.5t39.5 -11.5q23 0 33 6t12.5 15.5t2.5 26.5
h103q0 -47 -11.5 -78z" />
    <glyph glyph-name="uni1EB7" unicode="&#x1eb7;" horiz-adv-x="501" 
d="M54 30q-30 38 -30 119q0 60 12.5 93t44.5 47.5t93 14.5q40 0 98 -4v19q0 30 -5.5 41.5t-23 14.5t-64.5 3q-56 0 -130 -6v130q98 16 188 16q100 0 148 -22.5t62.5 -66t14.5 -124.5v-305h-185l-4 56h-9q-22 -37 -49.5 -50.5t-65.5 -13.5q-65 0 -95 38zM257.5 130
q7.5 4 11.5 13q3 9 3 44v27h-34q-25 0 -31.5 -8.5t-6.5 -39.5q0 -24 6 -32t30 -8q14 0 21.5 4zM152 -224v162h197v-162h-197zM389.5 665q-11.5 -31 -44.5 -48.5t-95 -17.5q-61 0 -94 17.5t-44.5 48.5t-11.5 78h103q0 -25 7.5 -36.5t39.5 -11.5q23 0 33 6t12.5 15.5t2.5 26.5
h103q0 -47 -11.5 -78z" />
    <glyph glyph-name="uni1EB8" unicode="&#x1eb8;" horiz-adv-x="514" 
d="M46 0v688h428v-157h-223v-106h186v-155h-186v-113h223v-157h-428zM160 -224v162h197v-162h-197z" />
    <glyph glyph-name="uni1EB9" unicode="&#x1eb9;" horiz-adv-x="494" 
d="M464 214h-250q0 -43 5.5 -58.5t23.5 -19.5t69 -4q40 0 136 6v-128q-28 -8 -79 -13t-102 -5q-112 0 -163 26.5t-64 78t-13 157.5t13 158.5t60 79t150 26.5q105 0 149.5 -24.5t54.5 -74t10 -165.5v-40zM226 383.5q-7 -4.5 -9.5 -21.5t-2.5 -59h74q0 43 -2.5 59.5t-9.5 21
t-26 4.5q-17 0 -24 -4.5zM148 -224v162h197v-162h-197z" />
    <glyph glyph-name="uni1EBA" unicode="&#x1eba;" horiz-adv-x="514" 
d="M46 0v688h428v-157h-223v-106h186v-155h-186v-113h223v-157h-428zM181 737q0 33 8.5 46t36.5 20l13 3q22 7 28.5 11.5t6.5 15.5q0 14 -9 17t-38 3q-50 0 -104 -4v87q67 13 131 13q46 0 75.5 -6t48 -27.5t18.5 -66.5q0 -42 -15.5 -58.5t-53.5 -29.5l-10 -4
q-22 -8 -28 -13.5t-6 -17.5h-102v11z" />
    <glyph glyph-name="uni1EBB" unicode="&#x1ebb;" horiz-adv-x="494" 
d="M464 214h-250q0 -43 5.5 -58.5t23.5 -19.5t69 -4q40 0 136 6v-128q-28 -8 -79 -13t-102 -5q-112 0 -163 26.5t-64 78t-13 157.5t13 158.5t60 79t150 26.5q105 0 149.5 -24.5t54.5 -74t10 -165.5v-40zM226 383.5q-7 -4.5 -9.5 -21.5t-2.5 -59h74q0 43 -2.5 59.5t-9.5 21
t-26 4.5q-17 0 -24 -4.5zM169 623q0 33 8.5 46t36.5 20l13 4q22 6 28.5 11t6.5 15q0 14 -9 17.5t-38 3.5q-50 0 -104 -4v87q67 13 131 13q46 0 75.5 -6t48 -27.5t18.5 -66.5q0 -30 -7.5 -46t-21 -25t-40.5 -18l-10 -3q-22 -8 -28 -13.5t-6 -18.5h-102v11z" />
    <glyph glyph-name="uni1EBC" unicode="&#x1ebc;" horiz-adv-x="514" 
d="M46 0v688h428v-157h-223v-106h186v-155h-186v-113h223v-157h-428zM438.5 801.5q-4.5 -28.5 -24.5 -45.5t-65 -17q-39 0 -103 15l-24 4q-23 5 -34 5q-13 0 -16 -7t-3 -29h-95q0 57 4.5 86t25 46t64.5 17q40 0 104 -15q43 -9 57 -9q13 0 16 7t3 29h95q0 -58 -4.5 -86.5z
" />
    <glyph glyph-name="uni1EBD" unicode="&#x1ebd;" horiz-adv-x="494" 
d="M464 214h-250q0 -43 5.5 -58.5t23.5 -19.5t69 -4q40 0 136 6v-128q-28 -8 -79 -13t-102 -5q-112 0 -163 26.5t-64 78t-13 157.5t13 158.5t60 79t150 26.5q105 0 149.5 -24.5t54.5 -74t10 -165.5v-40zM226 383.5q-7 -4.5 -9.5 -21.5t-2.5 -59h74q0 43 -2.5 59.5t-9.5 21
t-26 4.5q-17 0 -24 -4.5zM426.5 656.5q-4.5 -28.5 -24.5 -45.5t-65 -17q-39 0 -103 15l-24 4q-23 5 -34 5q-13 0 -16 -7t-3 -29h-95q0 57 4.5 86t25 46t64.5 17q40 0 104 -15q43 -9 57 -9q13 0 16 7t3 29h95q0 -58 -4.5 -86.5z" />
    <glyph glyph-name="uni1EBE" unicode="&#x1ebe;" horiz-adv-x="514" 
d="M46 0v688h428v-157h-223v-106h186v-155h-186v-113h223v-157h-428zM90 734v9l82 131h172l83 -131v-9h-122l-47 67l-46 -67h-122zM267 899v5l70 143h177v-5l-109 -143h-138z" />
    <glyph glyph-name="uni1EBF" unicode="&#x1ebf;" horiz-adv-x="494" 
d="M464 214h-250q0 -43 5.5 -58.5t23.5 -19.5t69 -4q40 0 136 6v-128q-28 -8 -79 -13t-102 -5q-112 0 -163 26.5t-64 78t-13 157.5t13 158.5t60 79t150 26.5q105 0 149.5 -24.5t54.5 -74t10 -165.5v-40zM226 383.5q-7 -4.5 -9.5 -21.5t-2.5 -59h74q0 43 -2.5 59.5t-9.5 21
t-26 4.5q-17 0 -24 -4.5zM78 603v9l82 131h172l83 -131v-9h-122l-47 67l-46 -67h-122zM255 768v5l70 143h177v-5l-109 -143h-138z" />
    <glyph glyph-name="uni1EC0" unicode="&#x1ec0;" horiz-adv-x="514" 
d="M46 0v688h428v-157h-223v-106h186v-155h-186v-113h223v-157h-428zM78 734v9l82 131h172l83 -131v-9h-122l-47 67l-46 -67h-122zM300 899l-109 143v5h178l69 -143v-5h-138z" />
    <glyph glyph-name="uni1EC1" unicode="&#x1ec1;" horiz-adv-x="494" 
d="M464 214h-250q0 -43 5.5 -58.5t23.5 -19.5t69 -4q40 0 136 6v-128q-28 -8 -79 -13t-102 -5q-112 0 -163 26.5t-64 78t-13 157.5t13 158.5t60 79t150 26.5q105 0 149.5 -24.5t54.5 -74t10 -165.5v-40zM226 383.5q-7 -4.5 -9.5 -21.5t-2.5 -59h74q0 43 -2.5 59.5t-9.5 21
t-26 4.5q-17 0 -24 -4.5zM66 603v9l82 131h172l83 -131v-9h-122l-47 67l-46 -67h-122zM288 768l-109 143v5h178l69 -143v-5h-138z" />
    <glyph glyph-name="uni1EC2" unicode="&#x1ec2;" horiz-adv-x="514" 
d="M46 0v688h428v-157h-223v-106h186v-155h-186v-113h223v-157h-428zM90 734v9l82 131h172l83 -131v-9h-122l-47 67l-46 -67h-122zM314 906q0 33 8.5 46t36.5 20l13 4q22 6 28.5 11t6.5 15q0 14 -9 17.5t-38 3.5q-50 0 -104 -4v87q67 13 131 13q46 0 75.5 -6t48 -27.5
t18.5 -66.5q0 -30 -7.5 -46t-21 -25t-40.5 -18l-10 -3q-22 -8 -28 -13.5t-6 -18.5h-102v11z" />
    <glyph glyph-name="uni1EC3" unicode="&#x1ec3;" horiz-adv-x="494" 
d="M464 214h-250q0 -43 5.5 -58.5t23.5 -19.5t69 -4q40 0 136 6v-128q-28 -8 -79 -13t-102 -5q-112 0 -163 26.5t-64 78t-13 157.5t13 158.5t60 79t150 26.5q105 0 149.5 -24.5t54.5 -74t10 -165.5v-40zM226 383.5q-7 -4.5 -9.5 -21.5t-2.5 -59h74q0 43 -2.5 59.5t-9.5 21
t-26 4.5q-17 0 -24 -4.5zM78 603v9l82 131h172l83 -131v-9h-122l-47 67l-46 -67h-122zM302 775q0 33 8.5 46t36.5 20l13 4q22 6 28.5 11t6.5 15q0 14 -9 17.5t-38 3.5q-50 0 -104 -4v87q67 13 131 13q46 0 75.5 -6t48 -27.5t18.5 -66.5q0 -30 -7.5 -46t-21 -25t-40.5 -18
l-10 -3q-22 -8 -28 -13.5t-6 -18.5h-102v11z" />
    <glyph glyph-name="uni1EC4" unicode="&#x1ec4;" horiz-adv-x="514" 
d="M46 0v688h428v-157h-223v-106h186v-155h-186v-113h223v-157h-428zM88 734v9l82 131h172l83 -131v-9h-122l-47 67l-46 -67h-122zM438.5 960.5q-4.5 -28.5 -24.5 -45.5t-65 -17q-39 0 -103 15l-24 4q-23 5 -34 5q-13 0 -16 -7t-3 -29h-95q0 57 4.5 86t25 46t64.5 17
q40 0 104 -15q43 -9 57 -9q13 0 16 7t3 29h95q0 -58 -4.5 -86.5z" />
    <glyph glyph-name="uni1EC5" unicode="&#x1ec5;" horiz-adv-x="494" 
d="M464 214h-250q0 -43 5.5 -58.5t23.5 -19.5t69 -4q40 0 136 6v-128q-28 -8 -79 -13t-102 -5q-112 0 -163 26.5t-64 78t-13 157.5t13 158.5t60 79t150 26.5q105 0 149.5 -24.5t54.5 -74t10 -165.5v-40zM226 383.5q-7 -4.5 -9.5 -21.5t-2.5 -59h74q0 43 -2.5 59.5t-9.5 21
t-26 4.5q-17 0 -24 -4.5zM76 603v9l82 131h172l83 -131v-9h-122l-47 67l-46 -67h-122zM426.5 829.5q-4.5 -28.5 -24.5 -45.5t-65 -17q-39 0 -103 15l-24 4q-23 5 -34 5q-13 0 -16 -7t-3 -29h-95q0 57 4.5 86t25 46t64.5 17q40 0 104 -15q43 -9 57 -9q13 0 16 7t3 29h95
q0 -58 -4.5 -86.5z" />
    <glyph glyph-name="uni1EC6" unicode="&#x1ec6;" horiz-adv-x="514" 
d="M46 0v688h428v-157h-223v-106h186v-155h-186v-113h223v-157h-428zM160 -224v162h197v-162h-197zM90 748v9l82 131h172l83 -131v-9h-122l-47 67l-46 -67h-122z" />
    <glyph glyph-name="uni1EC7" unicode="&#x1ec7;" horiz-adv-x="494" 
d="M464 214h-250q0 -43 5.5 -58.5t23.5 -19.5t69 -4q40 0 136 6v-128q-28 -8 -79 -13t-102 -5q-112 0 -163 26.5t-64 78t-13 157.5t13 158.5t60 79t150 26.5q105 0 149.5 -24.5t54.5 -74t10 -165.5v-40zM226 383.5q-7 -4.5 -9.5 -21.5t-2.5 -59h74q0 43 -2.5 59.5t-9.5 21
t-26 4.5q-17 0 -24 -4.5zM148 -224v162h197v-162h-197zM78 603v9l82 131h172l83 -131v-9h-122l-47 67l-46 -67h-122z" />
    <glyph glyph-name="uni1EC8" unicode="&#x1ec8;" horiz-adv-x="298" 
d="M46 0v688h206v-688h-206zM71 737q0 33 8.5 46t36.5 20l13 3q22 7 28.5 11.5t6.5 15.5q0 14 -9 17t-38 3q-50 0 -104 -4v87q67 13 131 13q46 0 75.5 -6t48 -27.5t18.5 -66.5q0 -42 -15.5 -58.5t-53.5 -29.5l-10 -4q-22 -8 -28 -13.5t-6 -17.5h-102v11z" />
    <glyph glyph-name="uni1EC9" unicode="&#x1ec9;" horiz-adv-x="272" 
d="M39 0v510h193v-510h-193zM58 623q0 33 8.5 46t36.5 20l13 4q22 6 28.5 11t6.5 15q0 14 -9 17.5t-38 3.5q-50 0 -104 -4v87q67 13 131 13q46 0 75.5 -6t48 -27.5t18.5 -66.5q0 -30 -7.5 -46t-21 -25t-40.5 -18l-10 -3q-22 -8 -28 -13.5t-6 -18.5h-102v11z" />
    <glyph glyph-name="uni1ECA" unicode="&#x1eca;" horiz-adv-x="298" 
d="M46 0v688h206v-688h-206zM50 -224v162h197v-162h-197z" />
    <glyph glyph-name="uni1ECB" unicode="&#x1ecb;" horiz-adv-x="272" 
d="M39 598v145h193v-145h-193zM39 0v510h193v-510h-193zM57 -224v162h197v-162h-197z" />
    <glyph glyph-name="uni1ECC" unicode="&#x1ecc;" horiz-adv-x="602" 
d="M116 23q-55 31 -67.5 97.5t-12.5 223.5t12.5 223.5t67.5 97.5t184 31q130 0 184.5 -31t67.5 -97.5t13 -223.5t-13 -223.5t-67.5 -97.5t-184.5 -31q-129 0 -184 31zM342.5 158.5q10.5 9.5 13 44t2.5 141.5t-2.5 141.5t-13 44t-42.5 9.5q-31 0 -41.5 -9.5t-13 -44
t-2.5 -141.5t2.5 -141.5t13 -44t41.5 -9.5q32 0 42.5 9.5zM202 -224v162h197v-162h-197z" />
    <glyph glyph-name="uni1ECD" unicode="&#x1ecd;" horiz-adv-x="507" 
d="M99.5 14q-46.5 22 -59.5 73.5t-13 167.5t13 167.5t59.5 73.5t153.5 22t153.5 -22t59.5 -73.5t13 -167.5t-13 -167.5t-59.5 -73.5t-153.5 -22t-153.5 22zM279.5 138.5q6.5 6.5 8.5 29t2 87.5t-2 87.5t-8.5 29t-26.5 6.5q-19 0 -26 -6.5t-8.5 -28.5t-1.5 -88t1.5 -88
t8.5 -28.5t26 -6.5q20 0 26.5 6.5zM155 -224v162h197v-162h-197z" />
    <glyph glyph-name="uni1ECE" unicode="&#x1ece;" horiz-adv-x="602" 
d="M116 23q-55 31 -67.5 97.5t-12.5 223.5t12.5 223.5t67.5 97.5t184 31q130 0 184.5 -31t67.5 -97.5t13 -223.5t-13 -223.5t-67.5 -97.5t-184.5 -31q-129 0 -184 31zM342.5 158.5q10.5 9.5 13 44t2.5 141.5t-2.5 141.5t-13 44t-42.5 9.5q-31 0 -41.5 -9.5t-13 -44
t-2.5 -141.5t2.5 -141.5t13 -44t41.5 -9.5q32 0 42.5 9.5zM223 737q0 33 8.5 46t36.5 20l13 3q22 7 28.5 11.5t6.5 15.5q0 14 -9 17t-38 3q-50 0 -104 -4v87q67 13 131 13q46 0 75.5 -6t48 -27.5t18.5 -66.5q0 -42 -15.5 -58.5t-53.5 -29.5l-10 -4q-22 -8 -28 -13.5
t-6 -17.5h-102v11z" />
    <glyph glyph-name="uni1ECF" unicode="&#x1ecf;" horiz-adv-x="507" 
d="M99.5 14q-46.5 22 -59.5 73.5t-13 167.5t13 167.5t59.5 73.5t153.5 22t153.5 -22t59.5 -73.5t13 -167.5t-13 -167.5t-59.5 -73.5t-153.5 -22t-153.5 22zM279.5 138.5q6.5 6.5 8.5 29t2 87.5t-2 87.5t-8.5 29t-26.5 6.5q-19 0 -26 -6.5t-8.5 -28.5t-1.5 -88t1.5 -88
t8.5 -28.5t26 -6.5q20 0 26.5 6.5zM176 623q0 33 8.5 46t36.5 20l13 4q22 6 28.5 11t6.5 15q0 14 -9 17.5t-38 3.5q-50 0 -104 -4v87q67 13 131 13q46 0 75.5 -6t48 -27.5t18.5 -66.5q0 -30 -7.5 -46t-21 -25t-40.5 -18l-10 -3q-22 -8 -28 -13.5t-6 -18.5h-102v11z" />
    <glyph glyph-name="uni1ED0" unicode="&#x1ed0;" horiz-adv-x="602" 
d="M116 23q-55 31 -67.5 97.5t-12.5 223.5t12.5 223.5t67.5 97.5t184 31q130 0 184.5 -31t67.5 -97.5t13 -223.5t-13 -223.5t-67.5 -97.5t-184.5 -31q-129 0 -184 31zM342.5 158.5q10.5 9.5 13 44t2.5 141.5t-2.5 141.5t-13 44t-42.5 9.5q-31 0 -41.5 -9.5t-13 -44
t-2.5 -141.5t2.5 -141.5t13 -44t41.5 -9.5q32 0 42.5 9.5zM132 734v9l82 131h172l83 -131v-9h-122l-47 67l-46 -67h-122zM309 899v5l70 143h177v-5l-109 -143h-138z" />
    <glyph glyph-name="uni1ED1" unicode="&#x1ed1;" horiz-adv-x="507" 
d="M99.5 14q-46.5 22 -59.5 73.5t-13 167.5t13 167.5t59.5 73.5t153.5 22t153.5 -22t59.5 -73.5t13 -167.5t-13 -167.5t-59.5 -73.5t-153.5 -22t-153.5 22zM279.5 138.5q6.5 6.5 8.5 29t2 87.5t-2 87.5t-8.5 29t-26.5 6.5q-19 0 -26 -6.5t-8.5 -28.5t-1.5 -88t1.5 -88
t8.5 -28.5t26 -6.5q20 0 26.5 6.5zM85 603v9l82 131h172l83 -131v-9h-122l-47 67l-46 -67h-122zM262 768v5l70 143h177v-5l-109 -143h-138z" />
    <glyph glyph-name="uni1ED2" unicode="&#x1ed2;" horiz-adv-x="602" 
d="M116 23q-55 31 -67.5 97.5t-12.5 223.5t12.5 223.5t67.5 97.5t184 31q130 0 184.5 -31t67.5 -97.5t13 -223.5t-13 -223.5t-67.5 -97.5t-184.5 -31q-129 0 -184 31zM342.5 158.5q10.5 9.5 13 44t2.5 141.5t-2.5 141.5t-13 44t-42.5 9.5q-31 0 -41.5 -9.5t-13 -44
t-2.5 -141.5t2.5 -141.5t13 -44t41.5 -9.5q32 0 42.5 9.5zM120 734v9l82 131h172l83 -131v-9h-122l-47 67l-46 -67h-122zM342 899l-109 143v5h178l69 -143v-5h-138z" />
    <glyph glyph-name="uni1ED3" unicode="&#x1ed3;" horiz-adv-x="507" 
d="M99.5 14q-46.5 22 -59.5 73.5t-13 167.5t13 167.5t59.5 73.5t153.5 22t153.5 -22t59.5 -73.5t13 -167.5t-13 -167.5t-59.5 -73.5t-153.5 -22t-153.5 22zM279.5 138.5q6.5 6.5 8.5 29t2 87.5t-2 87.5t-8.5 29t-26.5 6.5q-19 0 -26 -6.5t-8.5 -28.5t-1.5 -88t1.5 -88
t8.5 -28.5t26 -6.5q20 0 26.5 6.5zM73 603v9l82 131h172l83 -131v-9h-122l-47 67l-46 -67h-122zM295 768l-109 143v5h178l69 -143v-5h-138z" />
    <glyph glyph-name="uni1ED4" unicode="&#x1ed4;" horiz-adv-x="602" 
d="M116 23q-55 31 -67.5 97.5t-12.5 223.5t12.5 223.5t67.5 97.5t184 31q130 0 184.5 -31t67.5 -97.5t13 -223.5t-13 -223.5t-67.5 -97.5t-184.5 -31q-129 0 -184 31zM342.5 158.5q10.5 9.5 13 44t2.5 141.5t-2.5 141.5t-13 44t-42.5 9.5q-31 0 -41.5 -9.5t-13 -44
t-2.5 -141.5t2.5 -141.5t13 -44t41.5 -9.5q32 0 42.5 9.5zM132 734v9l82 131h172l83 -131v-9h-122l-47 67l-46 -67h-122zM356 906q0 33 8.5 46t36.5 20l13 4q22 6 28.5 11t6.5 15q0 14 -9 17.5t-38 3.5q-50 0 -104 -4v87q67 13 131 13q46 0 75.5 -6t48 -27.5t18.5 -66.5
q0 -30 -7.5 -46t-21 -25t-40.5 -18l-10 -3q-22 -8 -28 -13.5t-6 -18.5h-102v11z" />
    <glyph glyph-name="uni1ED5" unicode="&#x1ed5;" horiz-adv-x="507" 
d="M99.5 14q-46.5 22 -59.5 73.5t-13 167.5t13 167.5t59.5 73.5t153.5 22t153.5 -22t59.5 -73.5t13 -167.5t-13 -167.5t-59.5 -73.5t-153.5 -22t-153.5 22zM279.5 138.5q6.5 6.5 8.5 29t2 87.5t-2 87.5t-8.5 29t-26.5 6.5q-19 0 -26 -6.5t-8.5 -28.5t-1.5 -88t1.5 -88
t8.5 -28.5t26 -6.5q20 0 26.5 6.5zM85 603v9l82 131h172l83 -131v-9h-122l-47 67l-46 -67h-122zM309 775q0 33 8.5 46t36.5 20l13 4q22 6 28.5 11t6.5 15q0 14 -9 17.5t-38 3.5q-50 0 -104 -4v87q67 13 131 13q46 0 75.5 -6t48 -27.5t18.5 -66.5q0 -30 -7.5 -46t-21 -25
t-40.5 -18l-10 -3q-22 -8 -28 -13.5t-6 -18.5h-102v11z" />
    <glyph glyph-name="uni1ED6" unicode="&#x1ed6;" horiz-adv-x="602" 
d="M116 23q-55 31 -67.5 97.5t-12.5 223.5t12.5 223.5t67.5 97.5t184 31q130 0 184.5 -31t67.5 -97.5t13 -223.5t-13 -223.5t-67.5 -97.5t-184.5 -31q-129 0 -184 31zM342.5 158.5q10.5 9.5 13 44t2.5 141.5t-2.5 141.5t-13 44t-42.5 9.5q-31 0 -41.5 -9.5t-13 -44
t-2.5 -141.5t2.5 -141.5t13 -44t41.5 -9.5q32 0 42.5 9.5zM130 734v9l82 131h172l83 -131v-9h-122l-47 67l-46 -67h-122zM480.5 960.5q-4.5 -28.5 -24.5 -45.5t-65 -17q-39 0 -103 15l-24 4q-23 5 -34 5q-13 0 -16 -7t-3 -29h-95q0 57 4.5 86t25 46t64.5 17q40 0 104 -15
q43 -9 57 -9q13 0 16 7t3 29h95q0 -58 -4.5 -86.5z" />
    <glyph glyph-name="uni1ED7" unicode="&#x1ed7;" horiz-adv-x="507" 
d="M99.5 14q-46.5 22 -59.5 73.5t-13 167.5t13 167.5t59.5 73.5t153.5 22t153.5 -22t59.5 -73.5t13 -167.5t-13 -167.5t-59.5 -73.5t-153.5 -22t-153.5 22zM279.5 138.5q6.5 6.5 8.5 29t2 87.5t-2 87.5t-8.5 29t-26.5 6.5q-19 0 -26 -6.5t-8.5 -28.5t-1.5 -88t1.5 -88
t8.5 -28.5t26 -6.5q20 0 26.5 6.5zM83 603v9l82 131h172l83 -131v-9h-122l-47 67l-46 -67h-122zM433.5 829.5q-4.5 -28.5 -24.5 -45.5t-65 -17q-39 0 -103 15l-24 4q-23 5 -34 5q-13 0 -16 -7t-3 -29h-95q0 57 4.5 86t25 46t64.5 17q40 0 104 -15q43 -9 57 -9q13 0 16 7
t3 29h95q0 -58 -4.5 -86.5z" />
    <glyph glyph-name="uni1ED8" unicode="&#x1ed8;" horiz-adv-x="602" 
d="M116 23q-55 31 -67.5 97.5t-12.5 223.5t12.5 223.5t67.5 97.5t184 31q130 0 184.5 -31t67.5 -97.5t13 -223.5t-13 -223.5t-67.5 -97.5t-184.5 -31q-129 0 -184 31zM342.5 158.5q10.5 9.5 13 44t2.5 141.5t-2.5 141.5t-13 44t-42.5 9.5q-31 0 -41.5 -9.5t-13 -44
t-2.5 -141.5t2.5 -141.5t13 -44t41.5 -9.5q32 0 42.5 9.5zM202 -224v162h197v-162h-197zM132 748v9l82 131h172l83 -131v-9h-122l-47 67l-46 -67h-122z" />
    <glyph glyph-name="uni1ED9" unicode="&#x1ed9;" horiz-adv-x="507" 
d="M99.5 14q-46.5 22 -59.5 73.5t-13 167.5t13 167.5t59.5 73.5t153.5 22t153.5 -22t59.5 -73.5t13 -167.5t-13 -167.5t-59.5 -73.5t-153.5 -22t-153.5 22zM279.5 138.5q6.5 6.5 8.5 29t2 87.5t-2 87.5t-8.5 29t-26.5 6.5q-19 0 -26 -6.5t-8.5 -28.5t-1.5 -88t1.5 -88
t8.5 -28.5t26 -6.5q20 0 26.5 6.5zM155 -224v162h197v-162h-197zM85 603v9l82 131h172l83 -131v-9h-122l-47 67l-46 -67h-122z" />
    <glyph glyph-name="uni1EDA" unicode="&#x1eda;" horiz-adv-x="602" 
d="M619 776v-13q0 -47 -6.5 -73.5t-26 -42.5t-58.5 -22q25 -37 31 -97.5t6 -183.5q0 -157 -13 -223.5t-67.5 -97.5t-184.5 -31q-129 0 -184 31t-67.5 97.5t-12.5 223.5t12.5 223.5t67.5 97.5t184 31q73 0 114 -8h22q28 0 41 5.5t17.5 18.5t4.5 39v25h120zM342.5 158.5
q10.5 9.5 13 44t2.5 141.5t-2.5 141.5t-13 44t-42.5 9.5q-31 0 -41.5 -9.5t-13 -44t-2.5 -141.5t2.5 -141.5t13 -44t41.5 -9.5q32 0 42.5 9.5zM228 740v5l70 143h177v-5l-109 -143h-138z" />
    <glyph glyph-name="uni1EDB" unicode="&#x1edb;" horiz-adv-x="507" 
d="M534 598v-13q0 -44 -5.5 -70t-22.5 -42.5t-50 -23.5q14 -28 18.5 -71.5t4.5 -122.5q0 -116 -13 -167.5t-59.5 -73.5t-153.5 -22t-153.5 22t-59.5 73.5t-13 167.5t13 167.5t59.5 73.5t153.5 22q69 0 108 -8q33 1 43 14.5t10 48.5v25h120zM279.5 138.5q6.5 6.5 8.5 29
t2 87.5t-2 87.5t-8.5 29t-26.5 6.5q-19 0 -26 -6.5t-8.5 -28.5t-1.5 -88t1.5 -88t8.5 -28.5t26 -6.5q20 0 26.5 6.5zM185 595v5l70 143h177v-5l-109 -143h-138z" />
    <glyph glyph-name="uni1EDC" unicode="&#x1edc;" horiz-adv-x="602" 
d="M619 776v-13q0 -47 -6.5 -73.5t-26 -42.5t-58.5 -22q25 -37 31 -97.5t6 -183.5q0 -157 -13 -223.5t-67.5 -97.5t-184.5 -31q-129 0 -184 31t-67.5 97.5t-12.5 223.5t12.5 223.5t67.5 97.5t184 31q73 0 114 -8h22q28 0 41 5.5t17.5 18.5t4.5 39v25h120zM342.5 158.5
q10.5 9.5 13 44t2.5 141.5t-2.5 141.5t-13 44t-42.5 9.5q-31 0 -41.5 -9.5t-13 -44t-2.5 -141.5t2.5 -141.5t13 -44t41.5 -9.5q32 0 42.5 9.5zM240 740l-109 143v5h178l69 -143v-5h-138z" />
    <glyph glyph-name="uni1EDD" unicode="&#x1edd;" horiz-adv-x="507" 
d="M534 598v-13q0 -44 -5.5 -70t-22.5 -42.5t-50 -23.5q14 -28 18.5 -71.5t4.5 -122.5q0 -116 -13 -167.5t-59.5 -73.5t-153.5 -22t-153.5 22t-59.5 73.5t-13 167.5t13 167.5t59.5 73.5t153.5 22q69 0 108 -8q33 1 43 14.5t10 48.5v25h120zM279.5 138.5q6.5 6.5 8.5 29
t2 87.5t-2 87.5t-8.5 29t-26.5 6.5q-19 0 -26 -6.5t-8.5 -28.5t-1.5 -88t1.5 -88t8.5 -28.5t26 -6.5q20 0 26.5 6.5zM186 595l-109 143v5h178l69 -143v-5h-138z" />
    <glyph glyph-name="uni1EDE" unicode="&#x1ede;" horiz-adv-x="602" 
d="M619 776v-13q0 -47 -6.5 -73.5t-26 -42.5t-58.5 -22q25 -37 31 -97.5t6 -183.5q0 -157 -13 -223.5t-67.5 -97.5t-184.5 -31q-129 0 -184 31t-67.5 97.5t-12.5 223.5t12.5 223.5t67.5 97.5t184 31q73 0 114 -8h22q28 0 41 5.5t17.5 18.5t4.5 39v25h120zM342.5 158.5
q10.5 9.5 13 44t2.5 141.5t-2.5 141.5t-13 44t-42.5 9.5q-31 0 -41.5 -9.5t-13 -44t-2.5 -141.5t2.5 -141.5t13 -44t41.5 -9.5q32 0 42.5 9.5zM223 737q0 33 8.5 46t36.5 20l13 3q22 7 28.5 11.5t6.5 15.5q0 14 -9 17t-38 3q-50 0 -104 -4v87q67 13 131 13q46 0 75.5 -6
t48 -27.5t18.5 -66.5q0 -42 -15.5 -58.5t-53.5 -29.5l-10 -4q-22 -8 -28 -13.5t-6 -17.5h-102v11z" />
    <glyph glyph-name="uni1EDF" unicode="&#x1edf;" horiz-adv-x="507" 
d="M534 598v-13q0 -44 -5.5 -70t-22.5 -42.5t-50 -23.5q14 -28 18.5 -71.5t4.5 -122.5q0 -116 -13 -167.5t-59.5 -73.5t-153.5 -22t-153.5 22t-59.5 73.5t-13 167.5t13 167.5t59.5 73.5t153.5 22q69 0 108 -8q33 1 43 14.5t10 48.5v25h120zM279.5 138.5q6.5 6.5 8.5 29
t2 87.5t-2 87.5t-8.5 29t-26.5 6.5q-19 0 -26 -6.5t-8.5 -28.5t-1.5 -88t1.5 -88t8.5 -28.5t26 -6.5q20 0 26.5 6.5zM176 623q0 33 8.5 46t36.5 20l13 4q22 6 28.5 11t6.5 15q0 14 -9 17.5t-38 3.5q-50 0 -104 -4v87q67 13 131 13q46 0 75.5 -6t48 -27.5t18.5 -66.5
q0 -30 -7.5 -46t-21 -25t-40.5 -18l-10 -3q-22 -8 -28 -13.5t-6 -18.5h-102v11z" />
    <glyph glyph-name="uni1EE0" unicode="&#x1ee0;" horiz-adv-x="602" 
d="M619 776v-13q0 -47 -6.5 -73.5t-26 -42.5t-58.5 -22q25 -37 31 -97.5t6 -183.5q0 -157 -13 -223.5t-67.5 -97.5t-184.5 -31q-129 0 -184 31t-67.5 97.5t-12.5 223.5t12.5 223.5t67.5 97.5t184 31q73 0 114 -8h22q28 0 41 5.5t17.5 18.5t4.5 39v25h120zM342.5 158.5
q10.5 9.5 13 44t2.5 141.5t-2.5 141.5t-13 44t-42.5 9.5q-31 0 -41.5 -9.5t-13 -44t-2.5 -141.5t2.5 -141.5t13 -44t41.5 -9.5q32 0 42.5 9.5zM480.5 801.5q-4.5 -28.5 -24.5 -45.5t-65 -17q-39 0 -103 15l-24 4q-23 5 -34 5q-13 0 -16 -7t-3 -29h-95q0 57 4.5 86t25 46
t64.5 17q40 0 104 -15q43 -9 57 -9q13 0 16 7t3 29h95q0 -58 -4.5 -86.5z" />
    <glyph glyph-name="uni1EE1" unicode="&#x1ee1;" horiz-adv-x="507" 
d="M534 598v-13q0 -44 -5.5 -70t-22.5 -42.5t-50 -23.5q14 -28 18.5 -71.5t4.5 -122.5q0 -116 -13 -167.5t-59.5 -73.5t-153.5 -22t-153.5 22t-59.5 73.5t-13 167.5t13 167.5t59.5 73.5t153.5 22q69 0 108 -8q33 1 43 14.5t10 48.5v25h120zM279.5 138.5q6.5 6.5 8.5 29
t2 87.5t-2 87.5t-8.5 29t-26.5 6.5q-19 0 -26 -6.5t-8.5 -28.5t-1.5 -88t1.5 -88t8.5 -28.5t26 -6.5q20 0 26.5 6.5zM433.5 656.5q-4.5 -28.5 -24.5 -45.5t-65 -17q-39 0 -103 15l-24 4q-23 5 -34 5q-13 0 -16 -7t-3 -29h-95q0 57 4.5 86t25 46t64.5 17q40 0 104 -15
q43 -9 57 -9q13 0 16 7t3 29h95q0 -58 -4.5 -86.5z" />
    <glyph glyph-name="uni1EE2" unicode="&#x1ee2;" horiz-adv-x="602" 
d="M619 776v-13q0 -47 -6.5 -73.5t-26 -42.5t-58.5 -22q25 -37 31 -97.5t6 -183.5q0 -157 -13 -223.5t-67.5 -97.5t-184.5 -31q-129 0 -184 31t-67.5 97.5t-12.5 223.5t12.5 223.5t67.5 97.5t184 31q73 0 114 -8h22q28 0 41 5.5t17.5 18.5t4.5 39v25h120zM342.5 158.5
q10.5 9.5 13 44t2.5 141.5t-2.5 141.5t-13 44t-42.5 9.5q-31 0 -41.5 -9.5t-13 -44t-2.5 -141.5t2.5 -141.5t13 -44t41.5 -9.5q32 0 42.5 9.5zM202 -224v162h197v-162h-197z" />
    <glyph glyph-name="uni1EE3" unicode="&#x1ee3;" horiz-adv-x="507" 
d="M534 598v-13q0 -44 -5.5 -70t-22.5 -42.5t-50 -23.5q14 -28 18.5 -71.5t4.5 -122.5q0 -116 -13 -167.5t-59.5 -73.5t-153.5 -22t-153.5 22t-59.5 73.5t-13 167.5t13 167.5t59.5 73.5t153.5 22q69 0 108 -8q33 1 43 14.5t10 48.5v25h120zM279.5 138.5q6.5 6.5 8.5 29
t2 87.5t-2 87.5t-8.5 29t-26.5 6.5q-19 0 -26 -6.5t-8.5 -28.5t-1.5 -88t1.5 -88t8.5 -28.5t26 -6.5q20 0 26.5 6.5zM155 -224v162h197v-162h-197z" />
    <glyph glyph-name="uni1EE4" unicode="&#x1ee4;" horiz-adv-x="590" 
d="M546 688v-375q0 -142 -12.5 -202.5t-64.5 -89.5t-174 -29t-174 29t-64.5 89.5t-12.5 202.5v375h207v-418q0 -64 2 -85.5t10 -27.5t32 -6t32.5 6t10.5 28t2 85v418h206zM196 -224v162h197v-162h-197z" />
    <glyph glyph-name="uni1EE5" unicode="&#x1ee5;" horiz-adv-x="522" 
d="M295 57h-9q-34 -65 -120 -65q-55 0 -82 20.5t-36 60t-9 109.5v328h190v-271q0 -50 1.5 -67t7 -21.5t22.5 -4.5q18 0 24 5t7.5 23.5t1.5 72.5v263h190v-510h-184zM155 -224v162h197v-162h-197z" />
    <glyph glyph-name="uni1EE6" unicode="&#x1ee6;" horiz-adv-x="590" 
d="M546 688v-375q0 -142 -12.5 -202.5t-64.5 -89.5t-174 -29t-174 29t-64.5 89.5t-12.5 202.5v375h207v-418q0 -64 2 -85.5t10 -27.5t32 -6t32.5 6t10.5 28t2 85v418h206zM217 737q0 33 8.5 46t36.5 20l13 3q22 7 28.5 11.5t6.5 15.5q0 14 -9 17t-38 3q-50 0 -104 -4v87
q67 13 131 13q46 0 75.5 -6t48 -27.5t18.5 -66.5q0 -42 -15.5 -58.5t-53.5 -29.5l-10 -4q-22 -8 -28 -13.5t-6 -17.5h-102v11z" />
    <glyph glyph-name="uni1EE7" unicode="&#x1ee7;" horiz-adv-x="522" 
d="M295 57h-9q-34 -65 -120 -65q-55 0 -82 20.5t-36 60t-9 109.5v328h190v-271q0 -50 1.5 -67t7 -21.5t22.5 -4.5q18 0 24 5t7.5 23.5t1.5 72.5v263h190v-510h-184zM183 623q0 33 8.5 46t36.5 20l13 4q22 6 28.5 11t6.5 15q0 14 -9 17.5t-38 3.5q-50 0 -104 -4v87
q67 13 131 13q46 0 75.5 -6t48 -27.5t18.5 -66.5q0 -30 -7.5 -46t-21 -25t-40.5 -18l-10 -3q-22 -8 -28 -13.5t-6 -18.5h-102v11z" />
    <glyph glyph-name="uni1EE8" unicode="&#x1ee8;" horiz-adv-x="590" 
d="M617 776v-13q0 -64 -13.5 -93.5t-57.5 -40.5v-316q0 -142 -12.5 -202.5t-64.5 -89.5t-174 -29t-174 29t-64.5 89.5t-12.5 202.5v375h207v-418q0 -64 2 -85.5t10 -27.5t32 -6t32.5 6t10.5 28t2 85v418h94q28 0 41 5.5t17.5 18.5t4.5 39v25h120zM222 740v5l70 143h177v-5
l-109 -143h-138z" />
    <glyph glyph-name="uni1EE9" unicode="&#x1ee9;" horiz-adv-x="522" 
d="M549 598v-13q0 -62 -13 -91t-53 -42v-452h-184l-4 57h-9q-34 -65 -120 -65q-55 0 -82 20.5t-36 60t-9 109.5v328h190v-271q0 -50 1.5 -67t7 -21.5t22.5 -4.5q18 0 24 5t7.5 23.5t1.5 72.5v263h73q28 0 41 5.5t17.5 18.5t4.5 39v25h120zM192 595v5l70 143h177v-5
l-109 -143h-138z" />
    <glyph glyph-name="uni1EEA" unicode="&#x1eea;" horiz-adv-x="590" 
d="M617 776v-13q0 -64 -13.5 -93.5t-57.5 -40.5v-316q0 -142 -12.5 -202.5t-64.5 -89.5t-174 -29t-174 29t-64.5 89.5t-12.5 202.5v375h207v-418q0 -64 2 -85.5t10 -27.5t32 -6t32.5 6t10.5 28t2 85v418h94q28 0 41 5.5t17.5 18.5t4.5 39v25h120zM234 740l-109 143v5h178
l69 -143v-5h-138z" />
    <glyph glyph-name="uni1EEB" unicode="&#x1eeb;" horiz-adv-x="522" 
d="M549 598v-13q0 -62 -13 -91t-53 -42v-452h-184l-4 57h-9q-34 -65 -120 -65q-55 0 -82 20.5t-36 60t-9 109.5v328h190v-271q0 -50 1.5 -67t7 -21.5t22.5 -4.5q18 0 24 5t7.5 23.5t1.5 72.5v263h73q28 0 41 5.5t17.5 18.5t4.5 39v25h120zM193 595l-109 143v5h178l69 -143
v-5h-138z" />
    <glyph glyph-name="uni1EEC" unicode="&#x1eec;" horiz-adv-x="590" 
d="M617 776v-13q0 -64 -13.5 -93.5t-57.5 -40.5v-316q0 -142 -12.5 -202.5t-64.5 -89.5t-174 -29t-174 29t-64.5 89.5t-12.5 202.5v375h207v-418q0 -64 2 -85.5t10 -27.5t32 -6t32.5 6t10.5 28t2 85v418h94q28 0 41 5.5t17.5 18.5t4.5 39v25h120zM217 737q0 33 8.5 46
t36.5 20l13 3q22 7 28.5 11.5t6.5 15.5q0 14 -9 17t-38 3q-50 0 -104 -4v87q67 13 131 13q46 0 75.5 -6t48 -27.5t18.5 -66.5q0 -42 -15.5 -58.5t-53.5 -29.5l-10 -4q-22 -8 -28 -13.5t-6 -17.5h-102v11z" />
    <glyph glyph-name="uni1EED" unicode="&#x1eed;" horiz-adv-x="522" 
d="M549 598v-13q0 -62 -13 -91t-53 -42v-452h-184l-4 57h-9q-34 -65 -120 -65q-55 0 -82 20.5t-36 60t-9 109.5v328h190v-271q0 -50 1.5 -67t7 -21.5t22.5 -4.5q18 0 24 5t7.5 23.5t1.5 72.5v263h73q28 0 41 5.5t17.5 18.5t4.5 39v25h120zM183 623q0 33 8.5 46t36.5 20l13 4
q22 6 28.5 11t6.5 15q0 14 -9 17.5t-38 3.5q-50 0 -104 -4v87q67 13 131 13q46 0 75.5 -6t48 -27.5t18.5 -66.5q0 -30 -7.5 -46t-21 -25t-40.5 -18l-10 -3q-22 -8 -28 -13.5t-6 -18.5h-102v11z" />
    <glyph glyph-name="uni1EEE" unicode="&#x1eee;" horiz-adv-x="590" 
d="M617 776v-13q0 -64 -13.5 -93.5t-57.5 -40.5v-316q0 -142 -12.5 -202.5t-64.5 -89.5t-174 -29t-174 29t-64.5 89.5t-12.5 202.5v375h207v-418q0 -64 2 -85.5t10 -27.5t32 -6t32.5 6t10.5 28t2 85v418h94q28 0 41 5.5t17.5 18.5t4.5 39v25h120zM474.5 801.5
q-4.5 -28.5 -24.5 -45.5t-65 -17q-39 0 -103 15l-24 4q-23 5 -34 5q-13 0 -16 -7t-3 -29h-95q0 57 4.5 86t25 46t64.5 17q40 0 104 -15q43 -9 57 -9q13 0 16 7t3 29h95q0 -58 -4.5 -86.5z" />
    <glyph glyph-name="uni1EEF" unicode="&#x1eef;" horiz-adv-x="522" 
d="M549 598v-13q0 -62 -13 -91t-53 -42v-452h-184l-4 57h-9q-34 -65 -120 -65q-55 0 -82 20.5t-36 60t-9 109.5v328h190v-271q0 -50 1.5 -67t7 -21.5t22.5 -4.5q18 0 24 5t7.5 23.5t1.5 72.5v263h73q28 0 41 5.5t17.5 18.5t4.5 39v25h120zM440.5 656.5
q-4.5 -28.5 -24.5 -45.5t-65 -17q-39 0 -103 15l-24 4q-23 5 -34 5q-13 0 -16 -7t-3 -29h-95q0 57 4.5 86t25 46t64.5 17q40 0 104 -15q43 -9 57 -9q13 0 16 7t3 29h95q0 -58 -4.5 -86.5z" />
    <glyph glyph-name="uni1EF0" unicode="&#x1ef0;" horiz-adv-x="590" 
d="M617 776v-13q0 -64 -13.5 -93.5t-57.5 -40.5v-316q0 -142 -12.5 -202.5t-64.5 -89.5t-174 -29t-174 29t-64.5 89.5t-12.5 202.5v375h207v-418q0 -64 2 -85.5t10 -27.5t32 -6t32.5 6t10.5 28t2 85v418h94q28 0 41 5.5t17.5 18.5t4.5 39v25h120zM196 -224v162h197v-162
h-197z" />
    <glyph glyph-name="uni1EF1" unicode="&#x1ef1;" horiz-adv-x="522" 
d="M549 598v-13q0 -62 -13 -91t-53 -42v-452h-184l-4 57h-9q-34 -65 -120 -65q-55 0 -82 20.5t-36 60t-9 109.5v328h190v-271q0 -50 1.5 -67t7 -21.5t22.5 -4.5q18 0 24 5t7.5 23.5t1.5 72.5v263h73q28 0 41 5.5t17.5 18.5t4.5 39v25h120zM155 -224v162h197v-162h-197z" />
    <glyph glyph-name="Ygrave" unicode="&#x1ef2;" horiz-adv-x="575" 
d="M184 0v225l-187 463h210l80 -267h8l78 267h205l-187 -463v-225h-207zM227 740l-109 143v5h178l69 -143v-5h-138z" />
    <glyph glyph-name="ygrave" unicode="&#x1ef3;" horiz-adv-x="522" 
d="M152 -202.5q-47 3.5 -76 9.5v127h121q52 0 69.5 4t22 19.5t4.5 61.5v53h-10q-20 -37 -51.5 -51t-65.5 -14q-55 0 -82 20.5t-36 60t-9 109.5v313h190v-255q0 -51 1.5 -68t7 -21.5t22.5 -4.5q18 0 24 5t7.5 23.5t1.5 72.5v248h190v-455q0 -101 -13 -152.5t-64 -80
t-162 -28.5q-45 0 -92 3.5zM193 595l-109 143v5h178l69 -143v-5h-138z" />
    <glyph glyph-name="uni1EF4" unicode="&#x1ef4;" horiz-adv-x="575" 
d="M184 0v225l-187 463h210l80 -267h8l78 267h205l-187 -463v-225h-207zM189 -224v162h197v-162h-197z" />
    <glyph glyph-name="uni1EF5" unicode="&#x1ef5;" horiz-adv-x="522" 
d="M152 -202.5q-47 3.5 -76 9.5v127h121q52 0 69.5 4t22 19.5t4.5 61.5v53h-10q-20 -37 -51.5 -51t-65.5 -14q-55 0 -82 20.5t-36 60t-9 109.5v313h190v-255q0 -51 1.5 -68t7 -21.5t22.5 -4.5q18 0 24 5t7.5 23.5t1.5 72.5v248h190v-455q0 -101 -13 -152.5t-64 -80
t-162 -28.5q-45 0 -92 3.5zM145 -430v162h197v-162h-197z" />
    <glyph glyph-name="uni1EF6" unicode="&#x1ef6;" horiz-adv-x="575" 
d="M184 0v225l-187 463h210l80 -267h8l78 267h205l-187 -463v-225h-207zM210 737q0 33 8.5 46t36.5 20l13 3q22 7 28.5 11.5t6.5 15.5q0 14 -9 17t-38 3q-50 0 -104 -4v87q67 13 131 13q46 0 75.5 -6t48 -27.5t18.5 -66.5q0 -42 -15.5 -58.5t-53.5 -29.5l-10 -4
q-22 -8 -28 -13.5t-6 -17.5h-102v11z" />
    <glyph glyph-name="uni1EF7" unicode="&#x1ef7;" horiz-adv-x="522" 
d="M152 -202.5q-47 3.5 -76 9.5v127h121q52 0 69.5 4t22 19.5t4.5 61.5v53h-10q-20 -37 -51.5 -51t-65.5 -14q-55 0 -82 20.5t-36 60t-9 109.5v313h190v-255q0 -51 1.5 -68t7 -21.5t22.5 -4.5q18 0 24 5t7.5 23.5t1.5 72.5v248h190v-455q0 -101 -13 -152.5t-64 -80
t-162 -28.5q-45 0 -92 3.5zM183 623q0 33 8.5 46t36.5 20l13 4q22 6 28.5 11t6.5 15q0 14 -9 17.5t-38 3.5q-50 0 -104 -4v87q67 13 131 13q46 0 75.5 -6t48 -27.5t18.5 -66.5q0 -30 -7.5 -46t-21 -25t-40.5 -18l-10 -3q-22 -8 -28 -13.5t-6 -18.5h-102v11z" />
    <glyph glyph-name="uni1EF8" unicode="&#x1ef8;" horiz-adv-x="575" 
d="M184 0v225l-187 463h210l80 -267h8l78 267h205l-187 -463v-225h-207zM467.5 801.5q-4.5 -28.5 -24.5 -45.5t-65 -17q-39 0 -103 15l-24 4q-23 5 -34 5q-13 0 -16 -7t-3 -29h-95q0 57 4.5 86t25 46t64.5 17q40 0 104 -15q43 -9 57 -9q13 0 16 7t3 29h95q0 -58 -4.5 -86.5z
" />
    <glyph glyph-name="uni1EF9" unicode="&#x1ef9;" horiz-adv-x="522" 
d="M152 -202.5q-47 3.5 -76 9.5v127h121q52 0 69.5 4t22 19.5t4.5 61.5v53h-10q-20 -37 -51.5 -51t-65.5 -14q-55 0 -82 20.5t-36 60t-9 109.5v313h190v-255q0 -51 1.5 -68t7 -21.5t22.5 -4.5q18 0 24 5t7.5 23.5t1.5 72.5v248h190v-455q0 -101 -13 -152.5t-64 -80
t-162 -28.5q-45 0 -92 3.5zM440.5 656.5q-4.5 -28.5 -24.5 -45.5t-65 -17q-39 0 -103 15l-24 4q-23 5 -34 5q-13 0 -16 -7t-3 -29h-95q0 57 4.5 86t25 46t64.5 17q40 0 104 -15q43 -9 57 -9q13 0 16 7t3 29h95q0 -58 -4.5 -86.5z" />
    <glyph glyph-name="uni2002" unicode="&#x2002;" horiz-adv-x="300" 
 />
    <glyph glyph-name="endash" unicode="&#x2013;" horiz-adv-x="468" 
d="M37 237v135h393v-135h-393z" />
    <glyph glyph-name="emdash" unicode="&#x2014;" horiz-adv-x="850" 
d="M37 237v135h775v-135h-775z" />
    <glyph glyph-name="underscoredbl" unicode="&#x2017;" horiz-adv-x="393" 
d="M0 -161v100h393v-100h-393zM0 -288v100h393v-100h-393z" />
    <glyph glyph-name="quoteleft" unicode="&#x2018;" horiz-adv-x="303" 
d="M59 498q0 80 12 119t50.5 55.5t120.5 16.5v-70q-28 0 -41 -6t-17.5 -20.5t-4.5 -42.5v-14h65v-151h-185v113z" />
    <glyph glyph-name="quoteright" unicode="&#x2019;" horiz-adv-x="303" 
d="M100.5 461.5q13.5 6.5 18 20.5t4.5 42v14h-65v151h185v-113q0 -80 -12 -119t-50.5 -55.5t-120.5 -16.5v70q27 0 40.5 6.5z" />
    <glyph glyph-name="quotesinglbase" unicode="&#x201a;" horiz-adv-x="301" 
d="M100 -76.5q13 6.5 17.5 20.5t4.5 42v14h-64v151h185v-113q0 -80 -12.5 -118.5t-51 -55t-120.5 -16.5v69q28 0 41 6.5z" />
    <glyph glyph-name="quotedblleft" unicode="&#x201c;" horiz-adv-x="538" 
d="M59 498q0 80 12 119t50.5 55.5t120.5 16.5v-70q-28 0 -41 -6t-17.5 -20.5t-4.5 -42.5v-14h65v-151h-185v113zM295 498q0 80 12 119t50.5 55.5t120.5 16.5v-70q-28 0 -41 -6t-17.5 -20.5t-4.5 -42.5v-14h65v-151h-185v113z" />
    <glyph glyph-name="quotedblright" unicode="&#x201d;" horiz-adv-x="538" 
d="M100.5 461.5q13.5 6.5 18 20.5t4.5 42v14h-65v151h185v-113q0 -80 -12 -119t-50.5 -55.5t-120.5 -16.5v70q27 0 40.5 6.5zM336.5 461.5q13.5 6.5 18 20.5t4.5 42v14h-65v151h185v-113q0 -80 -12 -119t-50.5 -55.5t-121.5 -16.5v70q28 0 41.5 6.5z" />
    <glyph glyph-name="quotedblbase" unicode="&#x201e;" horiz-adv-x="537" 
d="M100 -76.5q13 6.5 17.5 20.5t4.5 42v14h-64v151h185v-113q0 -80 -12.5 -118.5t-51 -55t-120.5 -16.5v69q28 0 41 6.5zM336 -76.5q13 6.5 17.5 20.5t4.5 42v14h-64v151h185v-113q0 -80 -12.5 -118.5t-51 -55t-120.5 -16.5v69q28 0 41 6.5z" />
    <glyph glyph-name="dagger" unicode="&#x2020;" horiz-adv-x="486" 
d="M184 0l-10 410l-116 10v116l116 10l10 142h118l10 -142l116 -10v-116l-116 -10l-10 -410h-118z" />
    <glyph glyph-name="daggerdbl" unicode="&#x2021;" horiz-adv-x="486" 
d="M184 0l-10 142l-116 10v116l116 11v131l-116 10v116l116 11l10 141h118l10 -141l116 -11v-116l-116 -10v-131l116 -11v-116l-116 -10l-10 -142h-118z" />
    <glyph glyph-name="bullet" unicode="&#x2022;" horiz-adv-x="354" 
d="M289 264q-6 -22 -30 -30t-84 -8q-57 0 -80.5 8t-29.5 30t-6 78q0 58 6 80.5t29.5 31t80.5 8.5q60 0 84 -8.5t30 -31t6 -80.5q0 -56 -6 -78z" />
    <glyph glyph-name="ellipsis" unicode="&#x2026;" horiz-adv-x="935" 
d="M57 0v161h197v-161h-197zM369 0v161h197v-161h-197zM681 0v161h197v-161h-197z" />
    <glyph glyph-name="perthousand" unicode="&#x2030;" horiz-adv-x="999" 
d="M86.5 371.5q-26.5 12.5 -35 46.5t-8.5 110t8.5 109.5t35 46t86.5 12.5t86 -12.5t34.5 -46t8.5 -109.5t-8.5 -110t-34.5 -46.5t-86 -12.5t-86.5 12.5zM88 0l420 688h108l-420 -688h-108zM194 438q5 5 6.5 22t1.5 68t-1.5 68t-6.5 21.5t-21 4.5t-21.5 -4.5t-7 -21.5
t-1.5 -68t1.5 -68t7 -22t21.5 -5t21 5zM446.5 4.5q-26.5 12.5 -34.5 46t-8 109.5t8 110t34.5 46.5t86.5 12.5t86.5 -12.5t35 -46.5t8.5 -110t-8.5 -109.5t-35 -46t-86.5 -12.5t-86.5 12.5zM739 4.5q-26 12.5 -34.5 46t-8.5 109.5t8.5 110t34.5 46.5t86 12.5t86.5 -12.5
t35 -46.5t8.5 -110t-8.5 -109.5t-35 -46t-86.5 -12.5t-86 12.5zM554 70.5q5 4.5 6.5 21.5t1.5 68t-1.5 68t-6.5 22t-21 5t-21 -5t-6.5 -22t-1.5 -68t1.5 -68t6.5 -21.5t21 -4.5t21 4.5zM846.5 70.5q5.5 4.5 7 21.5t1.5 68t-1.5 68t-7 22t-21.5 5t-21 -5t-6.5 -22t-1.5 -68
t1.5 -68t6.5 -21.5t21 -4.5t21.5 4.5z" />
    <glyph glyph-name="minute" unicode="&#x2032;" horiz-adv-x="280" 
d="M41 361l24 327h167l-8 -105l-53 -222h-130z" />
    <glyph glyph-name="second" unicode="&#x2033;" horiz-adv-x="494" 
d="M255 361l24 327h167l-8 -105l-53 -222h-130zM41 361l24 327h167l-8 -105l-53 -222h-130z" />
    <glyph glyph-name="guilsinglleft" unicode="&#x2039;" horiz-adv-x="288" 
d="M128 111l-110 199l110 200h121l-81 -200l81 -199h-121z" />
    <glyph glyph-name="guilsinglright" unicode="&#x203a;" horiz-adv-x="288" 
d="M38 111l82 199l-82 200h122l109 -200l-109 -199h-122z" />
    <glyph glyph-name="exclamdbl" unicode="&#x203c;" horiz-adv-x="603" 
d="M342.5 518q-12.5 121 -12.5 145v25h221v-25q0 -25 -13 -147.5t-32 -273.5h-132q-19 155 -31.5 276zM342 0v161h197v-161h-197zM77.5 518q-12.5 121 -12.5 145v25h221v-25q0 -25 -13 -147.5t-32 -273.5h-132q-19 155 -31.5 276zM77 0v161h197v-161h-197z" />
    <glyph glyph-name="fraction" unicode="&#x2044;" horiz-adv-x="158" 
d="M-178 0l402 688h112l-402 -688h-112z" />
    <glyph glyph-name="Euro" unicode="&#x20ac;" horiz-adv-x="527" 
d="M192.5 14.5q-52.5 22.5 -76.5 72t-31 136.5h-61v91h58v61h-58v91h62q7 86 31 135t76.5 72t145.5 23q40 0 83 -5t69 -13v-144q-70 7 -106 7q-39 0 -58 -5t-28.5 -20.5t-13.5 -49.5h164v-91h-167v-61h167v-91h-165q3 -34 13 -50t29.5 -21t58.5 -5q63 0 109 7v-144
q-29 -8 -72.5 -13t-82.5 -5q-94 0 -146.5 22.5z" />
    <glyph glyph-name="uni20B2" unicode="&#x20b2;" horiz-adv-x="551" 
d="M513 393v-112q0 -78 -8.5 -117t-42 -61.5t-107.5 -28.5v-82h-138v83q-77 7 -115.5 34.5t-52 81t-13.5 153.5q0 96 15 150.5t54 82t112 35.5v84h138v-83q66 -4 136 -19v-140q-96 11 -147 11q-54 0 -73.5 -6t-25 -28.5t-5.5 -86.5q0 -60 3 -83t10.5 -28.5t28.5 -5.5
q17 0 23.5 2.5t8 11t1.5 30.5v14h-34v108h232z" />
    <glyph glyph-name="uni2113" unicode="&#x2113;" horiz-adv-x="517" 
d="M266.5 161.5q13.5 -10.5 38.5 -10.5q44 0 134 31v-166q-46 -13 -82 -18.5t-75 -5.5q-105 0 -159 43t-72 142q-19 0 -57 2v154q32 -2 47 -2q1 136 28.5 216t80.5 114.5t134 34.5q106 0 153.5 -53.5t47.5 -148.5q0 -109 -59.5 -188.5t-178.5 -110.5q6 -23 19.5 -33.5z
M258.5 523q-10.5 -17 -14.5 -54.5t-5 -106.5q78 42 78 138q0 19 -7 29.5t-21 10.5q-20 0 -30.5 -17z" />
    <glyph glyph-name="uni2116" unicode="&#x2116;" horiz-adv-x="947" 
d="M670 409.5q-30 12.5 -38.5 42t-8.5 94.5t8.5 94.5t38.5 42.5t98 13q67 0 96.5 -13t38 -42.5t8.5 -94.5t-8.5 -94.5t-38 -42t-96.5 -12.5q-68 0 -98 12.5zM383 0l-136 316h-5v-316h-197v688h206l115 -267h7v267h197v-688h-187zM791.5 481q6.5 5 8 17.5t1.5 47.5t-1.5 48
t-8 18t-23.5 5q-18 0 -25 -5t-9 -18.5t-2 -47.5q0 -33 2 -46.5t9 -18.5t25 -5q17 0 23.5 5zM638 184v137h260v-137h-260z" />
    <glyph glyph-name="trademark" unicode="&#x2122;" horiz-adv-x="716" 
d="M128 388v220h-73v80h240v-80h-74v-220h-93zM327 388v300h131l35 -167h5l33 167h131v-300h-88v195h-4l-44 -195h-66l-43 195h-4v-195h-86z" />
    <glyph glyph-name="uni2126" unicode="&#x2126;" horiz-adv-x="613" 
d="M39 154h10q33 -10 55 -19l54 -19v8q-116 63 -116 268q0 114 14 174t70.5 95t179.5 35t180 -35t71 -95t14 -174q0 -205 -116 -268v-8q16 5 30 10t25 9q18 7 54 19h10v-154h-231v152q13 8 17 54.5t4 144.5q0 99 -3 133t-13.5 44.5t-41.5 10.5t-41.5 -10t-13 -44t-2.5 -134
q0 -101 3.5 -146t16.5 -53v-152h-230v154z" />
    <glyph glyph-name="estimated" unicode="&#x212e;" horiz-adv-x="602" 
d="M246.5 109.5q3.5 -54.5 15.5 -69t48 -14.5q87 0 124.5 9t56 44.5t23.5 120.5h36q-6 -92 -27 -135t-70.5 -58t-152.5 -15q-129 0 -184 31t-67.5 97.5t-12.5 223.5t12.5 223.5t67.5 97.5t184 31q130 0 184.5 -31t67.5 -97.5t13 -223.5v-21h-322q0 -159 3.5 -213.5z
M258.5 647.5q-10.5 -14.5 -13 -70t-2.5 -220.5h115q0 163 -3 219t-13.5 71t-41.5 15t-41.5 -14.5z" />
    <glyph glyph-name="uni2153" unicode="&#x2153;" horiz-adv-x="755" 
d="M89 313v249l-57 -23v101l96 48h85v-375h-124zM83 0l401 688h112l-401 -688h-112zM559 89q23 0 28.5 4.5t5.5 22.5q0 21 -4.5 25.5t-20.5 4.5h-61v86h61q15 0 18.5 4.5t3.5 23.5q0 14 -2 18.5t-8.5 6t-25.5 1.5q-33 0 -94 -7v92q24 5 56.5 8.5t58.5 3.5q77 0 109 -24
t32 -79q0 -68 -51 -87v-4q53 -18 53 -89q0 -57 -30.5 -82.5t-112.5 -25.5q-26 0 -59 3.5t-58 8.5v92q77 -7 101 -7z" />
    <glyph glyph-name="uni2154" unicode="&#x2154;" horiz-adv-x="815" 
d="M300 313h-262v57q0 51 2.5 76t12 41.5t30.5 26.5q23 11 71 31q15 8 18.5 13t3.5 19q0 15 -6 18.5t-28 3.5q-31 0 -98 -7v92q24 5 59.5 8.5t65.5 3.5q42 0 69.5 -7.5t44.5 -32t17 -73.5q0 -52 -15 -76.5t-44 -36.5q-46 -19 -63 -25q-13 -6 -16.5 -11t-3.5 -21v-1h142v-99z
M551 688h112l-402 -688h-112zM778 100q0 -57 -31 -82.5t-112 -25.5q-26 0 -59 3.5t-58 8.5v92q77 -7 101 -7q22 0 28 4.5t6 22.5q0 21 -4.5 25.5t-20.5 4.5h-61v86h61q15 0 18.5 4.5t3.5 23.5q0 14 -2 18.5t-8.5 6t-25.5 1.5q-34 0 -95 -7v92q24 5 57 8.5t59 3.5
q77 0 108.5 -24t31.5 -79q0 -36 -12.5 -57t-38.5 -30v-4q54 -17 54 -89z" />
    <glyph glyph-name="oneeighth" unicode="&#x215b;" horiz-adv-x="774" 
d="M89 313v249l-57 -23v101l96 48h85v-375h-124zM83 0l401 688h112l-401 -688h-112zM470.5 21q-32.5 25 -32.5 80q0 44 16 64.5t49 27.5v3q-32 8 -47 28.5t-15 61.5q0 53 33.5 76.5t113.5 23.5q79 0 112 -23.5t33 -76.5q0 -41 -14.5 -61.5t-46.5 -28.5v-3q33 -7 49 -27.5
t16 -64.5q0 -55 -32.5 -80t-116.5 -25q-85 0 -117.5 25zM609 231q6 2 7.5 9t1.5 25q0 26 -5 32t-25 6q-21 0 -26 -6t-5 -32q0 -18 2 -25t8 -9t21 -2t21 2zM614.5 84.5q5.5 6.5 5.5 31.5q0 27 -5.5 33.5t-26.5 6.5t-27 -6.5t-6 -33.5q0 -25 5.5 -31.5t27.5 -6.5
q21 0 26.5 6.5z" />
    <glyph glyph-name="threeeighths" unicode="&#x215c;" horiz-adv-x="798" 
d="M80.5 307q-32.5 3 -57.5 8v82q54 -6 100 -6q19 0 26.5 1.5t10 7.5t2.5 22q0 25 -5.5 30.5t-25.5 5.5h-55v85h55q20 0 24.5 5.5t4.5 27.5q0 15 -2.5 21t-10.5 7.5t-29 1.5q-54 0 -94 -6v82q66 12 115 12q76 0 107.5 -23.5t31.5 -76.5q0 -40 -14.5 -61t-45.5 -29v-3
q34 -8 48.5 -27.5t14.5 -64.5q0 -55 -31 -80t-111 -25q-26 0 -58.5 3zM127 0l402 688h112l-402 -688h-112zM513.5 21q-32.5 25 -32.5 80q0 44 16 64.5t49 27.5v3q-32 8 -47 28.5t-15 61.5q0 53 33.5 76.5t113.5 23.5q79 0 112 -23.5t33 -76.5q0 -41 -14.5 -61.5t-46.5 -28.5
v-3q33 -7 49 -27.5t16 -64.5q0 -55 -32.5 -80t-116.5 -25q-85 0 -117.5 25zM652 231q6 2 7.5 9t1.5 25q0 26 -5 32t-25 6q-21 0 -26 -6t-5 -32q0 -18 2 -25t8 -9t21 -2t21 2zM657.5 84.5q5.5 6.5 5.5 31.5q0 27 -5.5 33.5t-26.5 6.5t-27 -6.5t-6 -33.5q0 -25 5.5 -31.5
t27.5 -6.5q21 0 26.5 6.5z" />
    <glyph glyph-name="fiveeighths" unicode="&#x215d;" horiz-adv-x="812" 
d="M134 391q23 0 31 1.5t10.5 9t2.5 27.5t-2 27t-10.5 9.5t-30.5 2.5q-54 0 -93 -4v225h232v-89h-131v-49q23 3 51 3q58 0 80 -28.5t22 -88.5q0 -50 -11.5 -78t-42 -41.5t-88.5 -13.5q-52 0 -116 11v81q53 -5 96 -5zM141 0l402 688h112l-402 -688h-112zM527.5 21
q-32.5 25 -32.5 80q0 44 16 64.5t49 27.5v3q-32 8 -47 28.5t-15 61.5q0 53 33.5 76.5t113.5 23.5q79 0 112 -23.5t33 -76.5q0 -41 -14.5 -61.5t-46.5 -28.5v-3q33 -7 49 -27.5t16 -64.5q0 -55 -32.5 -80t-116.5 -25q-85 0 -117.5 25zM666 231q6 2 7.5 9t1.5 25q0 26 -5 32
t-25 6q-21 0 -26 -6t-5 -32q0 -18 2 -25t8 -9t21 -2t21 2zM671.5 84.5q5.5 6.5 5.5 31.5q0 27 -5.5 33.5t-26.5 6.5t-27 -6.5t-6 -33.5q0 -25 5.5 -31.5t27.5 -6.5q21 0 26.5 6.5z" />
    <glyph glyph-name="seveneighths" unicode="&#x215e;" horiz-adv-x="745" 
d="M38 308l116 292h-137v89h258v-80l-111 -301h-126zM74 0l402 688h112l-402 -688h-112zM460.5 21q-32.5 25 -32.5 80q0 44 16 64.5t49 27.5v3q-32 8 -47 28.5t-15 61.5q0 53 33.5 76.5t113.5 23.5q79 0 112 -23.5t33 -76.5q0 -41 -14.5 -61.5t-46.5 -28.5v-3
q33 -7 49 -27.5t16 -64.5q0 -55 -32.5 -80t-116.5 -25q-85 0 -117.5 25zM599 231q6 2 7.5 9t1.5 25q0 26 -5 32t-25 6q-21 0 -26 -6t-5 -32q0 -18 2 -25t8 -9t21 -2t21 2zM604.5 84.5q5.5 6.5 5.5 31.5q0 27 -5.5 33.5t-26.5 6.5t-27 -6.5t-6 -33.5q0 -25 5.5 -31.5
t27.5 -6.5q21 0 26.5 6.5z" />
    <glyph glyph-name="arrowleft" unicode="&#x2190;" horiz-adv-x="883" 
d="M312 243l28 -81l-285 142l285 143l-27 -80h515v-124h-516z" />
    <glyph glyph-name="arrowup" unicode="&#x2191;" horiz-adv-x="395" 
d="M137 -82v515l-82 -27l143 285l142 -285l-80 27v-515h-123z" />
    <glyph glyph-name="arrowright" unicode="&#x2192;" horiz-adv-x="883" 
d="M543 162l27 81h-515v124h515l-27 80l285 -143z" />
    <glyph glyph-name="arrowdown" unicode="&#x2193;" horiz-adv-x="395" 
d="M198 -85l-143 285l82 -28v516h123v-515l80 27z" />
    <glyph glyph-name="arrowboth" unicode="&#x2194;" horiz-adv-x="883" 
d="M340 162l-285 142l285 143l-27 -80h257l-27 80l285 -143l-285 -142l27 81h-258z" />
    <glyph glyph-name="arrowupdn" unicode="&#x2195;" horiz-adv-x="395" 
d="M198 -85l-143 285l82 -28v266l-82 -27l143 285l142 -285l-80 27v-265l80 27z" />
    <glyph glyph-name="arrowupdnbse" unicode="&#x21a8;" horiz-adv-x="395" 
d="M198 -85l-143 285l82 -28v266l-82 -27l143 285l142 -285l-80 27v-265l80 27zM55 -219v100h285v-100h-285z" />
    <glyph glyph-name="partialdiff" unicode="&#x2202;" horiz-adv-x="507" 
d="M99.5 14.5q-46.5 22.5 -59.5 74t-13 166.5q0 103 12 157t48 80t109 26q22 0 59 -7l4 3q-21 70 -55.5 120.5t-84.5 104.5v4h199q55 -55 91 -119.5t51 -149.5q19 -103 19 -220q0 -114 -13 -165.5t-59.5 -74t-153.5 -22.5t-153.5 22.5zM279.5 138.5q6.5 6.5 8.5 29t2 87.5
t-2 87.5t-8.5 29t-26.5 6.5q-19 0 -26 -6.5t-8.5 -28.5t-1.5 -88t1.5 -88t8.5 -28.5t26 -6.5q20 0 26.5 6.5z" />
    <glyph glyph-name="uni2206" unicode="&#x2206;" horiz-adv-x="606" 
d="M-2 0l158 688h294l158 -688h-610zM304 532h-8l-73 -380h154z" />
    <glyph glyph-name="product" unicode="&#x220f;" horiz-adv-x="618" 
d="M363 -189v722h-107v-722h-209v877h524v-877h-208z" />
    <glyph glyph-name="summation" unicode="&#x2211;" horiz-adv-x="623" 
d="M50 -189v151l216 287l-216 289v150h522v-155h-280l212 -284l-212 -283h280v-155h-522z" />
    <glyph glyph-name="minus" unicode="&#x2212;" horiz-adv-x="506" 
d="M63 184v137h381v-137h-381z" />
    <glyph glyph-name="radical" unicode="&#x221a;" horiz-adv-x="724" 
d="M238 -106l-122 305l-57 -23l-35 93l217 89l113 -298l144 710h178l-190 -876h-248z" />
    <glyph glyph-name="infinity" unicode="&#x221e;" horiz-adv-x="914" 
d="M125 56.5q-47 25.5 -66 74.5t-19 125q0 114 47 170t167 56q141 0 203 -111q62 111 204 111q82 0 128.5 -26t65.5 -75t19 -125t-19 -125t-65.5 -74.5t-128.5 -25.5q-144 0 -204 111q-60 -111 -203 -111q-82 0 -129 25.5zM343.5 182.5q26.5 26.5 41.5 73.5q-14 48 -41 74
t-77 26q-46 0 -63.5 -23.5t-17.5 -76.5q0 -54 17.5 -77t63.5 -23q50 0 76.5 26.5zM711.5 179q17.5 23 17.5 77q0 53 -17.5 76.5t-63.5 23.5q-50 0 -77 -26.5t-40 -73.5q13 -47 40 -73.5t77 -26.5q46 0 63.5 23z" />
    <glyph glyph-name="integral" unicode="&#x222b;" horiz-adv-x="418" 
d="M35 -62q43 0 60 2t23.5 10t6.5 28l-4 71l-25 436q-2 30 -2 50q0 78 25 111.5t79 41.5t181 8v-128q-44 0 -60.5 -2.5t-22.5 -11.5t-6 -33q0 -23 1 -37l25 -429q4 -68 4 -79q0 -81 -25 -115t-79 -42.5t-181 -8.5v128z" />
    <glyph glyph-name="approxequal" unicode="&#x2248;" horiz-adv-x="482" 
d="M50.5 348q4.5 29 25.5 46t68 17q40 0 115 -15q45 -9 61 -9q15 0 18 6.5t3 28.5h95q0 -57 -4.5 -86t-25.5 -46t-68 -17q-25 0 -56 4.5t-58 9.5q-7 1 -29 5.5t-33 4.5q-15 0 -18 -7t-3 -29h-95q0 58 4.5 87zM50.5 170q4.5 29 25.5 46t68 17q35 0 72 -6.5t43 -7.5
q50 -10 61 -10q15 0 18 7t3 29h95q0 -58 -4.5 -87t-25.5 -46t-68 -17q-40 0 -115 15q-45 9 -61 9q-15 0 -18 -7t-3 -29h-95q0 58 4.5 87z" />
    <glyph glyph-name="notequal" unicode="&#x2260;" horiz-adv-x="506" 
d="M228 84l-33 -72h-115l32 72h-49v137h113l30 64h-143v137h206l36 76h115l-35 -76h59v-137h-123l-29 -64h152v-137h-216z" />
    <glyph glyph-name="lessequal" unicode="&#x2264;" horiz-adv-x="507" 
d="M444 180l-381 131v134l381 132v-137l-209 -62l209 -61v-137zM63 14v137h381v-137h-381z" />
    <glyph glyph-name="greaterequal" unicode="&#x2265;" horiz-adv-x="511" 
d="M66 180v137l209 61l-209 62v137l382 -132v-134zM66 14v137h382v-137h-382z" />
    <glyph glyph-name="house" unicode="&#x2302;" horiz-adv-x="679" 
d="M33 0v398l236 300h141l236 -300v-398h-613zM180 121h319v248l-159 207l-160 -207v-248z" />
    <glyph glyph-name="lozenge" unicode="&#x25ca;" horiz-adv-x="501" 
d="M177 0l-158 344l158 344h148l158 -344l-158 -344h-148zM251 119l91 225l-91 225l-92 -225z" />
    <glyph glyph-name="uniA78B" unicode="&#xa78b;" horiz-adv-x="224" 
d="M29 261v427h167v-165l-37 -262h-130z" />
    <glyph glyph-name="uniA78C" unicode="&#xa78c;" horiz-adv-x="224" 
d="M29 261v482h167v-220l-37 -262h-130z" />
    <glyph glyph-name="uniF8FF" unicode="&#xf8ff;" horiz-adv-x="841" 
d="M72 0v698h697v-698h-697zM594.5 473.5q-23.5 41.5 -68 65.5t-104.5 24q-61 0 -105.5 -24t-68.5 -65.5t-24 -91.5v-66q0 -50 24 -91.5t68.5 -65.5t105.5 -24q60 0 104.5 24t68 65.5t23.5 91.5v66q0 50 -23.5 91.5zM465 247.5q-18 -17.5 -43 -17.5q-26 0 -44 17.5t-18 42.5
v118q0 25 18 42.5t44 17.5q25 0 43 -17.5t18 -42.5v-118q0 -25 -18 -42.5z" />
    <glyph glyph-name="Iacute_J.loclNLD" horiz-adv-x="679" 
d="M46 0v688h206v-688h-206zM76 740v5l70 143h177v-5l-109 -143h-138zM393.5 154q22.5 6 29 27.5t6.5 79.5v427h206v-360q0 -171 -17 -232t-77.5 -78.5t-229.5 -17.5v148q60 0 82.5 6zM459 740v5l70 143h177v-5l-109 -143h-138z" />
    <glyph glyph-name="Oslash.bold" horiz-adv-x="602" 
d="M517 640q22 -25 32.5 -64.5t13 -89.5t2.5 -142q0 -157 -13 -223.5t-67.5 -97.5t-184.5 -31q-50 0 -82 4l-24 -51h-158l48 103q-22 25 -32.5 64t-13 89.5t-2.5 142.5q0 157 12.5 223.5t67.5 97.5t184 31q51 0 83 -4l24 51h158zM260.5 531.5q-10.5 -7.5 -14 -36
t-3.5 -105.5l69 149h-12q-29 0 -39.5 -7.5zM340.5 156.5q10.5 7.5 14 36t3.5 105.5l-69 -149h11q30 0 40.5 7.5z" />
    <glyph glyph-name="Q.bold" horiz-adv-x="602" 
d="M612 -107v-8h-211l-67 108q-11 -1 -34 -1q-129 0 -184 31t-67.5 97.5t-12.5 223.5t12.5 223.5t67.5 97.5t184 31q130 0 184.5 -31t67.5 -97.5t13 -223.5q0 -127 -10 -192.5t-45 -102.5zM258.5 529.5q-10.5 -9.5 -13 -44t-2.5 -141.5q0 -97 2 -126h111q2 29 2 126
q0 107 -2.5 141.5t-13 44t-42.5 9.5q-31 0 -41.5 -9.5z" />
    <glyph glyph-name="G_tilde.loclGUA" horiz-adv-x="578" 
d="M300 268v145h235v-400q-47 -9 -110.5 -15t-114.5 -6q-115 0 -172.5 30t-79.5 103.5t-22 218.5t22.5 218.5t81.5 103.5t176 30q48 0 109.5 -6.5t107.5 -16.5v-146q-110 12 -154 12q-74 0 -99.5 -9.5t-33 -46t-7.5 -139.5q0 -93 5 -132.5t21 -53t54 -13.5l35 1v122h-54z
M466.5 801.5q-4.5 -28.5 -24.5 -45.5t-65 -17q-39 0 -103 15l-24 4q-23 5 -34 5q-13 0 -16 -7t-3 -29h-95q0 57 4.5 86t25 46t64.5 17q40 0 104 -15q43 -9 57 -9q13 0 16 7t3 29h95q0 -58 -4.5 -86.5z" />
    <glyph glyph-name="Y.loclGUA" horiz-adv-x="577" 
d="M540 688v-175q0 -120 -7.5 -177t-38 -91t-99.5 -46v-199h-207v198q-72 11 -103.5 45.5t-39 91.5t-7.5 178v175h206v-218q0 -63 2 -85t10.5 -28t32.5 -6t32 6t10 27.5t2 85.5v218h207z" />
    <glyph glyph-name="Yacute.loclGUA" horiz-adv-x="577" 
d="M540 688v-175q0 -120 -7.5 -177t-38 -91t-99.5 -46v-199h-207v198q-72 11 -103.5 45.5t-39 91.5t-7.5 178v175h206v-218q0 -63 2 -85t10.5 -28t32.5 -6t32 6t10 27.5t2 85.5v218h207zM215 740v5l70 143h177v-5l-109 -143h-138z" />
    <glyph glyph-name="Ycircumflex.loclGUA" horiz-adv-x="577" 
d="M540 688v-175q0 -120 -7.5 -177t-38 -91t-99.5 -46v-199h-207v198q-72 11 -103.5 45.5t-39 91.5t-7.5 178v175h206v-218q0 -63 2 -85t10.5 -28t32.5 -6t32 6t10 27.5t2 85.5v218h207zM119 748v9l82 131h172l83 -131v-9h-122l-47 67l-46 -67h-122z" />
    <glyph glyph-name="Ydieresis.loclGUA" horiz-adv-x="577" 
d="M540 688v-175q0 -120 -7.5 -177t-38 -91t-99.5 -46v-199h-207v198q-72 11 -103.5 45.5t-39 91.5t-7.5 178v175h206v-218q0 -63 2 -85t10.5 -28t32.5 -6t32 6t10 27.5t2 85.5v218h207zM113 756v119h150v-119h-150zM312 756v119h151v-119h-151z" />
    <glyph glyph-name="uni1EF4.loclGUA" horiz-adv-x="577" 
d="M540 688v-175q0 -120 -7.5 -177t-38 -91t-99.5 -46v-199h-207v198q-72 11 -103.5 45.5t-39 91.5t-7.5 178v175h206v-218q0 -63 2 -85t10.5 -28t32.5 -6t32 6t10 27.5t2 85.5v218h207zM189 -224v162h197v-162h-197z" />
    <glyph glyph-name="Ygrave.loclGUA" horiz-adv-x="577" 
d="M540 688v-175q0 -120 -7.5 -177t-38 -91t-99.5 -46v-199h-207v198q-72 11 -103.5 45.5t-39 91.5t-7.5 178v175h206v-218q0 -63 2 -85t10.5 -28t32.5 -6t32 6t10 27.5t2 85.5v218h207zM227 740l-109 143v5h178l69 -143v-5h-138z" />
    <glyph glyph-name="uni1EF6.loclGUA" horiz-adv-x="577" 
d="M540 688v-175q0 -120 -7.5 -177t-38 -91t-99.5 -46v-199h-207v198q-72 11 -103.5 45.5t-39 91.5t-7.5 178v175h206v-218q0 -63 2 -85t10.5 -28t32.5 -6t32 6t10 27.5t2 85.5v218h207zM210 737q0 33 8.5 46t36.5 20l13 3q22 7 28.5 11.5t6.5 15.5q0 14 -9 17t-38 3
q-50 0 -104 -4v87q67 13 131 13q46 0 75.5 -6t48 -27.5t18.5 -66.5q0 -42 -15.5 -58.5t-53.5 -29.5l-10 -4q-22 -8 -28 -13.5t-6 -17.5h-102v11z" />
    <glyph glyph-name="uni0232.loclGUA" horiz-adv-x="577" 
d="M540 688v-175q0 -120 -7.5 -177t-38 -91t-99.5 -46v-199h-207v198q-72 11 -103.5 45.5t-39 91.5t-7.5 178v175h206v-218q0 -63 2 -85t10.5 -28t32.5 -6t32 6t10 27.5t2 85.5v218h207zM160 739v149h257v-149h-257z" />
    <glyph glyph-name="uni1EF8.loclGUA" horiz-adv-x="577" 
d="M540 688v-175q0 -120 -7.5 -177t-38 -91t-99.5 -46v-199h-207v198q-72 11 -103.5 45.5t-39 91.5t-7.5 178v175h206v-218q0 -63 2 -85t10.5 -28t32.5 -6t32 6t10 27.5t2 85.5v218h207zM467.5 801.5q-4.5 -28.5 -24.5 -45.5t-65 -17q-39 0 -103 15l-24 4q-23 5 -34 5
q-13 0 -16 -7t-3 -29h-95q0 57 4.5 86t25 46t64.5 17q40 0 104 -15q43 -9 57 -9q13 0 16 7t3 29h95q0 -58 -4.5 -86.5z" />
    <glyph glyph-name="Cacute.loclPLK" horiz-adv-x="485" 
d="M382 -3q-45 -5 -86 -5q-116 0 -170.5 32t-72 103.5t-17.5 216.5t17.5 216.5t72.5 103.5t170 32q41 0 84.5 -5t71.5 -13v-146q-87 7 -110 7q-52 0 -71 -11.5t-23.5 -47.5t-4.5 -136q0 -101 4.5 -136.5t23.5 -47t71 -11.5q57 0 113 7v-147q-28 -7 -73 -12zM170 740v5
l36 143h178v-5l-76 -143h-138z" />
    <glyph glyph-name="Nacute.loclPLK" horiz-adv-x="615" 
d="M383 0l-136 316h-5v-316h-197v688h206l115 -267h7v267h197v-688h-187zM235 740v5l36 143h178v-5l-76 -143h-138z" />
    <glyph glyph-name="Oacute.loclPLK" horiz-adv-x="602" 
d="M116 23q-55 31 -67.5 97.5t-12.5 223.5t12.5 223.5t67.5 97.5t184 31q130 0 184.5 -31t67.5 -97.5t13 -223.5t-13 -223.5t-67.5 -97.5t-184.5 -31q-129 0 -184 31zM342.5 158.5q10.5 9.5 13 44t2.5 141.5t-2.5 141.5t-13 44t-42.5 9.5q-31 0 -41.5 -9.5t-13 -44
t-2.5 -141.5t2.5 -141.5t13 -44t41.5 -9.5q32 0 42.5 9.5zM228 740v5l36 143h178v-5l-76 -143h-138z" />
    <glyph glyph-name="Sacute.loclPLK" horiz-adv-x="529" 
d="M153.5 -3q-64.5 5 -109.5 13v148q115 -9 165 -9q38 0 54 2t23 8q6 6 8 15t2 27q0 25 -5 36t-19.5 16t-52.5 10l-101 15q-50 8 -70 59.5t-20 146.5q0 87 30.5 133.5t82.5 62.5t129 16q56 0 112 -6.5t89 -13.5v-146q-77 9 -161 9q-27 0 -41.5 -1.5t-20.5 -6.5
q-8 -6 -11 -15.5t-3 -25.5q0 -21 3 -30.5t12.5 -14t32.5 -8.5l89 -13q40 -7 67 -22t45 -53q19 -43 19 -126q0 -100 -29 -150.5t-77 -65.5t-124 -15q-54 0 -118.5 5zM192 740v5l36 143h178v-5l-76 -143h-138z" />
    <glyph glyph-name="Zacute.loclPLK" horiz-adv-x="536" 
d="M34 0v150l225 381h-216v157h459v-147l-228 -384h227v-157h-467zM195 740v5l36 143h178v-5l-76 -143h-138z" />
    <glyph glyph-name="A.ss01" horiz-adv-x="590" 
d="M340 165h-89v-165h-207v375q0 142 12.5 202.5t64.5 89.5t174 29t174 -29t64.5 -89.5t12.5 -202.5v-375h-206v165zM338 503q-2 22 -10.5 28t-32.5 6t-32 -6t-10 -27.5t-2 -85.5v-94h89v94q0 63 -2 85z" />
    <glyph glyph-name="Aacute.ss01" horiz-adv-x="590" 
d="M340 165h-89v-165h-207v375q0 142 12.5 202.5t64.5 89.5t174 29t174 -29t64.5 -89.5t12.5 -202.5v-375h-206v165zM338 503q-2 22 -10.5 28t-32.5 6t-32 -6t-10 -27.5t-2 -85.5v-94h89v94q0 63 -2 85zM230 750v5l70 143h177v-5l-109 -143h-138z" />
    <glyph glyph-name="Abreve.ss01" horiz-adv-x="590" 
d="M340 165h-89v-165h-207v375q0 142 12.5 202.5t64.5 89.5t174 29t174 -29t64.5 -89.5t12.5 -202.5v-375h-206v165zM338 503q-2 22 -10.5 28t-32.5 6t-32 -6t-10 -27.5t-2 -85.5v-94h89v94q0 63 -2 85zM433.5 810q-11.5 -31 -44.5 -48.5t-95 -17.5q-61 0 -94 17.5
t-44.5 48.5t-11.5 78h103q0 -25 7.5 -36.5t39.5 -11.5q23 0 33 6t12.5 15.5t2.5 26.5h103q0 -47 -11.5 -78z" />
    <glyph glyph-name="uni1EAE.ss01" horiz-adv-x="590" 
d="M340 165h-89v-165h-207v375q0 142 12.5 202.5t64.5 89.5t174 29t174 -29t64.5 -89.5t12.5 -202.5v-375h-206v165zM338 503q-2 22 -10.5 28t-32.5 6t-32 -6t-10 -27.5t-2 -85.5v-94h89v94q0 63 -2 85zM431.5 810q-11.5 -31 -44.5 -48.5t-95 -17.5q-61 0 -94 17.5
t-44.5 48.5t-11.5 78h103q0 -25 7.5 -36.5t39.5 -11.5q23 0 33 6t12.5 15.5t2.5 26.5h103q0 -47 -11.5 -78zM212 913v5l70 143h177v-5l-109 -143h-138z" />
    <glyph glyph-name="uni1EB6.ss01" horiz-adv-x="590" 
d="M340 165h-89v-165h-207v375q0 142 12.5 202.5t64.5 89.5t174 29t174 -29t64.5 -89.5t12.5 -202.5v-375h-206v165zM338 503q-2 22 -10.5 28t-32.5 6t-32 -6t-10 -27.5t-2 -85.5v-94h89v94q0 63 -2 85zM433.5 810q-11.5 -31 -44.5 -48.5t-95 -17.5q-61 0 -94 17.5
t-44.5 48.5t-11.5 78h103q0 -25 7.5 -36.5t39.5 -11.5q23 0 33 6t12.5 15.5t2.5 26.5h103q0 -47 -11.5 -78zM196 -224v162h197v-162h-197z" />
    <glyph glyph-name="uni1EB0.ss01" horiz-adv-x="590" 
d="M340 165h-89v-165h-207v375q0 142 12.5 202.5t64.5 89.5t174 29t174 -29t64.5 -89.5t12.5 -202.5v-375h-206v165zM338 503q-2 22 -10.5 28t-32.5 6t-32 -6t-10 -27.5t-2 -85.5v-94h89v94q0 63 -2 85zM436.5 810q-11.5 -31 -44.5 -48.5t-95 -17.5q-61 0 -94 17.5
t-44.5 48.5t-11.5 78h103q0 -25 7.5 -36.5t39.5 -11.5q23 0 33 6t12.5 15.5t2.5 26.5h103q0 -47 -11.5 -78zM232 913l-109 143v5h178l69 -143v-5h-138z" />
    <glyph glyph-name="uni1EB2.ss01" horiz-adv-x="590" 
d="M305.5 957.5q6.5 4.5 6.5 15.5q0 14 -9 17t-38 3q-50 0 -104 -4v87q67 13 131 13q46 0 75.5 -6t48 -27.5t18.5 -66.5q0 -42 -15.5 -58.5t-53.5 -29.5l-10 -4q-22 -8 -28 -13.5t-6 -17.5h-73q3 -13 13 -19.5t33 -6.5t33 6t12.5 15.5t2.5 26.5h103q0 -47 -11.5 -78
t-44.5 -48.5t-95 -17.5q-61 0 -94 17.5t-44.5 48.5t-11.5 78h75q2 26 11 37t34 18l13 3q22 7 28.5 11.5zM469 667q52 -29 64.5 -89.5t12.5 -202.5v-375h-206v165h-89v-165h-207v375q0 142 12.5 202.5t64.5 89.5t174 29t174 -29zM340 418q0 63 -2 85t-10.5 28t-32.5 6t-32 -6
t-10 -27.5t-2 -85.5v-94h89v94z" />
    <glyph glyph-name="uni1EB4.ss01" horiz-adv-x="590" 
d="M340 165h-89v-165h-207v375q0 142 12.5 202.5t64.5 89.5t174 29t174 -29t64.5 -89.5t12.5 -202.5v-375h-206v165zM338 503q-2 22 -10.5 28t-32.5 6t-32 -6t-10 -27.5t-2 -85.5v-94h89v94q0 63 -2 85zM431.5 810q-11.5 -31 -44.5 -48.5t-95 -17.5q-61 0 -94 17.5
t-44.5 48.5t-11.5 78h103q0 -25 7.5 -36.5t39.5 -11.5q23 0 33 6t12.5 15.5t2.5 26.5h103q0 -47 -11.5 -78zM474.5 1007.5q-4.5 -28.5 -24.5 -45.5t-65 -17q-39 0 -103 15l-24 4q-23 5 -34 5q-13 0 -16 -7t-3 -29h-95q0 57 4.5 86t25 46t64.5 17q40 0 104 -15q43 -9 57 -9
q13 0 16 7t3 29h95q0 -58 -4.5 -86.5z" />
    <glyph glyph-name="uni01CD.ss01" horiz-adv-x="590" 
d="M340 165h-89v-165h-207v375q0 142 12.5 202.5t64.5 89.5t174 29t174 -29t64.5 -89.5t12.5 -202.5v-375h-206v165zM338 503q-2 22 -10.5 28t-32.5 6t-32 -6t-10 -27.5t-2 -85.5v-94h89v94q0 63 -2 85zM208 748l-82 132v8h122l48 -67l45 67h122v-8l-83 -132h-172z" />
    <glyph glyph-name="Acircumflex.ss01" horiz-adv-x="590" 
d="M340 165h-89v-165h-207v375q0 142 12.5 202.5t64.5 89.5t174 29t174 -29t64.5 -89.5t12.5 -202.5v-375h-206v165zM338 503q-2 22 -10.5 28t-32.5 6t-32 -6t-10 -27.5t-2 -85.5v-94h89v94q0 63 -2 85zM129 750v9l82 131h172l83 -131v-9h-122l-47 67l-46 -67h-122z" />
    <glyph glyph-name="uni1EA4.ss01" horiz-adv-x="590" 
d="M340 165h-89v-165h-207v375q0 142 12.5 202.5t64.5 89.5t174 29t174 -29t64.5 -89.5t12.5 -202.5v-375h-206v165zM338 503q-2 22 -10.5 28t-32.5 6t-32 -6t-10 -27.5t-2 -85.5v-94h89v94q0 63 -2 85zM126 734v9l82 131h172l83 -131v-9h-122l-47 67l-46 -67h-122zM303 899
v5l70 143h177v-5l-109 -143h-138z" />
    <glyph glyph-name="uni1EAC.ss01" horiz-adv-x="590" 
d="M340 165h-89v-165h-207v375q0 142 12.5 202.5t64.5 89.5t174 29t174 -29t64.5 -89.5t12.5 -202.5v-375h-206v165zM338 503q-2 22 -10.5 28t-32.5 6t-32 -6t-10 -27.5t-2 -85.5v-94h89v94q0 63 -2 85zM126 748v9l82 131h172l83 -131v-9h-122l-47 67l-46 -67h-122z
M196 -224v162h197v-162h-197z" />
    <glyph glyph-name="uni1EA6.ss01" horiz-adv-x="590" 
d="M340 165h-89v-165h-207v375q0 142 12.5 202.5t64.5 89.5t174 29t174 -29t64.5 -89.5t12.5 -202.5v-375h-206v165zM338 503q-2 22 -10.5 28t-32.5 6t-32 -6t-10 -27.5t-2 -85.5v-94h89v94q0 63 -2 85zM114 734v9l82 131h172l83 -131v-9h-122l-47 67l-46 -67h-122zM336 899
l-109 143v5h178l69 -143v-5h-138z" />
    </font>
</defs>
</svg>
